<svg id="Layer_1" data-name="Layer 1" xmlns="http://www.w3.org/2000/svg" viewBox="0 0 373.67 155"><defs><style>.cls-1,.cls-3{fill:#231f20;}.cls-2{fill:#fff;stroke:#231f20;stroke-width:0.25px;}.cls-3{font-size:12.58px;font-family:AppleSDGothicNeo-UltraLight-KSCpc-EUC-H, Apple SD Gothic Neo;letter-spacing:-0.02em;}.cls-4{letter-spacing:-0.03em;}</style></defs><title>mondo_logo</title><path class="cls-1" d="M62.08,138.82a15.91,15.91,0,0,1,3.15-9.51A52.74,52.74,0,0,1,65.11,27a15.85,15.85,0,0,1-2.24-14.9A67.76,67.76,0,0,0,63,144.22,16.09,16.09,0,0,1,62.08,138.82Z"/><path class="cls-1" d="M92.93,12A15.84,15.84,0,0,1,90.77,27a52.74,52.74,0,0,1,.12,102.36,15.81,15.81,0,0,1,2.2,14.91A67.76,67.76,0,0,0,92.93,12Z"/><rect class="cls-1" x="75.09" y="110.4" width="5.64" height="25.96"/><rect class="cls-1" x="75.09" y="14.76" width="5.64" height="25.96"/><path class="cls-1" d="M166.79,82.94h3.7V52.58c0-6,2.3-9.78,10.24-9.78s9.87,4.25,9.87,12.28V82.85h3.69V54.06c0-6.18,2.31-11.16,10.34-11.16S214.5,46,214.5,55.17V82.94h3.69V55.17c0-10.15-2.67-15.69-13.1-15.69-4.71,0-8.77.92-12.37,6.28-1.57-3.7-5.16-6.28-11.53-6.28-4.71,0-8.31,1.2-10.52,4.25l-.37-3.42h-3.51Z"/><path class="cls-1" d="M240.8,39.57c-9.23,0-13.57,3.88-13.57,16V67.26c-.09,12.54,4.25,16.14,13.57,16.14s13.56-4.15,13.56-16.05V55.81C254.36,43.17,250,39.57,240.8,39.57Zm9.87,27.59c0,9-2,12.92-9.87,12.92-8.4,0-9.88-3.78-9.88-13V55.72c0-9,1.94-12.64,9.88-12.64,8.39,0,9.87,3.51,9.87,12.73Z"/><path class="cls-1" d="M313.46,39.57c-9.22,0-13.56,3.88-13.56,16V67.26c-.09,12.54,4.24,16.14,13.56,16.14S327,79.25,327,67.35V55.81C327,43.17,322.69,39.57,313.46,39.57Zm9.88,27.59c0,9-2,12.92-9.88,12.92-8.39,0-9.87-3.78-9.87-13V55.72c0-9,1.94-12.64,9.87-12.64,8.4,0,9.88,3.51,9.88,12.73Z"/><path class="cls-1" d="M351.25,39.57c-9.23,0-13.56,3.88-13.56,16V67.26c-.1,12.54,4.24,16.14,13.56,16.14s13.56-4.15,13.56-16.05V55.81C364.81,43.17,360.48,39.57,351.25,39.57Zm9.87,27.59c0,9-2,12.92-9.87,12.92-8.4,0-9.87-3.78-9.87-13V55.72c0-9,1.93-12.64,9.87-12.64,8.4,0,9.87,3.51,9.87,12.73Z"/><path class="cls-1" d="M263.77,40.31V82.94h3.69V53c0-4.89,2.59-10.24,10.25-10.24s9.87,2.86,9.87,12.37V82.85h3.69V55.08c0-11.08-3-15.6-13.1-15.6-5.26,0-8.77,2.22-10.8,5.35l-.27-4.52Z"/><circle class="cls-1" cx="77.91" cy="78.15" r="37.43" transform="translate(-19.44 130.1) rotate(-73.17)"/><circle class="cls-1" cx="77.91" cy="17.48" r="5.98"/><circle class="cls-1" cx="77.91" cy="138.82" r="5.98"/><rect class="cls-1" x="323.34" y="3.89" width="3.69" height="61.64"/><path class="cls-2" d="M74.34,42.43a6.62,6.62,0,0,1,2.48-.54c.55,0,1.11.08,1.68.11a11.72,11.72,0,0,1,3.7,1,9.4,9.4,0,0,0,1.59.14,15.11,15.11,0,0,1,3.08.31,7,7,0,0,1,1.38.59,21.57,21.57,0,0,0,3.68,1.17,5.15,5.15,0,0,1,2.59,1.4,8.74,8.74,0,0,0,2,1.79,20,20,0,0,1,2,1.6,6.73,6.73,0,0,1,1.76,2.4c.19.47.38,1,.89,1.24a7.19,7.19,0,0,1,1.82,1,11.2,11.2,0,0,1,1.85,1.51,2.58,2.58,0,0,1,.63,1,4.45,4.45,0,0,0,1.06,1.67,1.23,1.23,0,0,1,.4.75.43.43,0,0,1-.33.45c-.48-.23-.92-.67-1.5-.58a1.81,1.81,0,0,0,.11.8,2,2,0,0,0,.58.65,20.49,20.49,0,0,0,3.33,2.77c-.14-.55-.77-.87-.73-1.48a9.12,9.12,0,0,1,1.81,0,1.46,1.46,0,0,1,1.15.51,4,4,0,0,1,.77,1.8c.17,1,.39,2,.58,3a.63.63,0,0,1-.3.67,1.49,1.49,0,0,1-1.74,0c-.66-.58-1.29-1.19-1.94-1.77a2.68,2.68,0,0,1-.59-1,1.38,1.38,0,0,1-.07-.7,4.55,4.55,0,0,0,.74-.11,5.32,5.32,0,0,0-1.22-1.1c-1.48-1.09-3.18-1.9-4.38-3.32-.3-.33-.44-.78-.82-1a3.73,3.73,0,0,0-2.43-.54,3.36,3.36,0,0,0-2.2.77c-.27.24-.4.6-.65.86s-.4.42-.59.64-.1.68-.25,1c-.45,1-1.41,1.75-1.95,2.75l.26.21a4.74,4.74,0,0,1-1.43.3,15.82,15.82,0,0,1-2,.07c-.36,0-.69-.13-1.06-.12-1,0-2,.53-3,.5a2,2,0,0,1-1.22-.32,3.62,3.62,0,0,0-3.59-.42,1.2,1.2,0,0,1-.38.05,1.4,1.4,0,0,0-.32.47c-.3.55-.85,1-.95,1.62s0,1.32-.09,2a.73.73,0,0,1,.46.46,15.16,15.16,0,0,0,.39,1.47A4.56,4.56,0,0,0,83.28,73a13.58,13.58,0,0,0,2,.89,2.71,2.71,0,0,0,1.15.32,41.12,41.12,0,0,1,4.3,0A4.54,4.54,0,0,1,92,75.25a2,2,0,0,0-.24,1.32c.1.34.36.68.22,1.06a13.71,13.71,0,0,0-1.25,2.44,1.28,1.28,0,0,0,.39,1.37,3.16,3.16,0,0,0,1.76.72c.54,0,1-.3,1.59-.21.32.07.68.36.61.72s-.37.42-.61.56a2.17,2.17,0,0,0-1.27,1.39,9,9,0,0,0,1.95.5c.49.16.72.68.92,1.1s.64,1,.41,1.58a14.26,14.26,0,0,0-1,2.17.53.53,0,0,0,.15.6c.27.2.62.3.82.6s.06.52.2.76a2.2,2.2,0,0,0,1,.91c.72.34,1.46.66,2.19,1,.22.07.27.32.36.51.17.42.31.92.75,1.11a1.55,1.55,0,0,0,1.19-.26,2.26,2.26,0,0,0,.1.82,5.4,5.4,0,0,1,.49,1.45,5.64,5.64,0,0,1-.41,2.22c-.19.61.29,1.15.3,1.75a2,2,0,0,1-.68,1.67l-2,1.8a11.26,11.26,0,0,1-4.43,2.1,5.3,5.3,0,0,0-1.95,1.09,2.67,2.67,0,0,1-1.27.57c-.84.12-1.7-.12-2.53,0a4.92,4.92,0,0,0-.85.26c0,.13,0,.26-.08.39a15.92,15.92,0,0,1-1.81.31,11.88,11.88,0,0,1-1.79-.13c.05-.33.2-.71,0-1s-.48-.17-.71-.27a.75.75,0,0,1-.57-.72,3.44,3.44,0,0,1,.4-1,2,2,0,0,0,0-.9,4.41,4.41,0,0,1-3,.42c-.73-.28-1.41-.68-2.13-1s-1.6-.12-2.33-.49c-.19-.11-.52-.19-.5-.46a4.43,4.43,0,0,1,.68-1.67c-.38,0-.82.17-1.15-.08s-.42-.74-.67-1.09a1.54,1.54,0,0,0-1.42-.84,2.49,2.49,0,0,0-1.54.36c-.22.14-.08.41,0,.57s.55.44.61.79-.4.54-.7.61a1.61,1.61,0,0,1-1.42-.16c-.53-.44-.9-1-1.41-1.51-.84-.8-1.61-1.68-2.46-2.49-.15-.15-.37-.29-.37-.53a19.38,19.38,0,0,1-.11-2A6.36,6.36,0,0,0,66.32,94a3.52,3.52,0,0,0-1.43-1.82l-1.56-1.2c-.27-.23-.65-.13-1-.16a4.38,4.38,0,0,1-.43-.8c-.57-.17-1.27,0-1.71-.5-.19-.31-.1-.75-.35-1.06s-.79-.32-1.19-.38a.6.6,0,0,1-.52-.75,6.81,6.81,0,0,0,.35-1.84,8.77,8.77,0,0,1-.34-1.34c0-.42.67-.28.74-.68a1.15,1.15,0,0,0-.29-1.19c-.43-.22-.94,0-1.4-.19a1.65,1.65,0,0,1-.89-.71c-.1-.21.13-.39.3-.44a5,5,0,0,1,1-.08,3.48,3.48,0,0,0,2.49-1.21c.22-.24.1-.57,0-.84a2.88,2.88,0,0,0-.81-1.32,2.52,2.52,0,0,0-1.51-.61.83.83,0,0,1-.75-.7c-.11-.37.26-.61.33-.94a3.84,3.84,0,0,0,0-2.3c-.28-.79-1.06-1.29-1.28-2.11a2.18,2.18,0,0,1,.25-1.45c.53-1.46,1.18-2.88,1.78-4.31a13.41,13.41,0,0,0,1-3c.1-.52,0-1,.09-1.57.05-.32.28-.63.16-1a.92.92,0,0,0-.24-.13,12.55,12.55,0,0,0-2.12-.78c-.32-.08-.74-.18-.85-.54s.27-.51.45-.74c.06-.39,0-.85.37-1.12a11.29,11.29,0,0,0,1.34-1.15,2.52,2.52,0,0,1,1.69-.51c.38,0,.47-.56.88-.48a14.77,14.77,0,0,0,2.4.21,1,1,0,0,1,.52.18,2.76,2.76,0,0,0,.89-1.08c.06-.1.09-.24.21-.31a2.42,2.42,0,0,1,1.94-.32,2.85,2.85,0,0,1,1,.78,2.27,2.27,0,0,0,1.86.53,3.34,3.34,0,0,1,1.29-.3,2.89,2.89,0,0,1,1.51.42c.46.24.79.65,1.26.86a.92.92,0,0,0,1.06-.71,2.89,2.89,0,0,0-.13-1.27,3.39,3.39,0,0,0-.94-1.63c-.47-.4-1.17-.26-1.62-.68-.3-.28,0-.76-.29-1.06a2.61,2.61,0,0,0-2-.76,5,5,0,0,0-2.66.84.65.65,0,0,1-.82,0,2.17,2.17,0,0,1-.54-1.35,6.13,6.13,0,0,0,.94-1.15c-.14-.31-.44-.76-.09-1a2.72,2.72,0,0,1,1.5-.11,1.6,1.6,0,0,1,.82-1.55,13.3,13.3,0,0,1,2.42-1.2c1-.3,1.9-.64,2.85-1Z"/><path class="cls-2" d="M75.52,44.65a4.36,4.36,0,0,1,2.36-.49l4.34.34c1.49.16,3-.06,4.48.16.19.05.5.09.48.35s-.48.56-.43,1a1.15,1.15,0,0,0,.79.78c1,0,2,.06,3.07.11a2.19,2.19,0,0,0,1.32,1,5.46,5.46,0,0,0,.32-.64,3.34,3.34,0,0,1,1.23.59,5,5,0,0,0,2,.78c.33.06.67,0,1,.05a9.19,9.19,0,0,1,1.13.84,8,8,0,0,1,2.4,2.89,2.37,2.37,0,0,0,1,1.43,9.88,9.88,0,0,1,2.66,1.59,4.38,4.38,0,0,1,1.64,1.9A5.28,5.28,0,0,0,106.41,59a.86.86,0,0,1,.23.72c-.52-.22-1-.67-1.59-.6a.56.56,0,0,0-.22.55,1.43,1.43,0,0,0,.47,1.06c.56.5,1.11,1,1.66,1.53a14,14,0,0,0,1.82,1.44,2.37,2.37,0,0,0,.53.26c.09-.68-.49-1.12-.77-1.66.54,0,1.08,0,1.62,0a1.35,1.35,0,0,1,1.08.6,4,4,0,0,1,.61,1.61c.17.92.36,1.83.53,2.74a.72.72,0,0,1,0,.5,1.3,1.3,0,0,1-1.06.41,1.25,1.25,0,0,1-.83-.43l-1.61-1.49a2.16,2.16,0,0,1-.67-1.41c.23,0,.54,0,.68-.21s-.1-.41-.22-.55c-1.62-1.52-3.79-2.35-5.27-4-.35-.37-.52-.89-1-1.18a3.94,3.94,0,0,0-2.54-.56,3.67,3.67,0,0,0-2.37.82c-.31.26-.43.67-.71,1a4.71,4.71,0,0,0-.62.72c-.16.31-.08.68-.24,1a15.63,15.63,0,0,1-1.66,2.24,2,2,0,0,0-.31.67,10.82,10.82,0,0,1-3.26.13c-1.42-.37-2.73.68-4.15.4-.49-.07-.84-.46-1.28-.64a4.06,4.06,0,0,0-2.89-.14,6.08,6.08,0,0,1,.34-1.1c.1-.22.29-.4.39-.62a.89.89,0,0,0-1-1.2,1.44,1.44,0,0,1-1.07-.38,2.12,2.12,0,0,1-.42-1c-.3.08-.71.12-.82.46a2.59,2.59,0,0,0,.23,1.1,12,12,0,0,1,1,3.87,3.78,3.78,0,0,1-.47-.83,2.51,2.51,0,0,0-1.26-1.12c-.32-.12-.71-.27-.8-.64s.17-.7.2-1.06c.13-.69-.33-1.33-.17-2a1.19,1.19,0,0,1,.9-1c.46-.09.93-.15,1.39-.2,0,.25-.19.56.06.75s.44.09.66.08c.72-.11,1.57-.11,2.07-.72a3,3,0,0,1-1.5-.69c-.34-.36-.07-.86-.13-1.3a9.22,9.22,0,0,1-2.28-.26,3.16,3.16,0,0,1-1-.45c.1-.14.26-.24.26-.42a2.41,2.41,0,0,0-.17-.69A10,10,0,0,0,81,56.67a1.74,1.74,0,0,0,1.08,0c-.11-.3-.36-.61-.24-.94s.73-.4.9-.79a.68.68,0,0,0-.38-.62,3,3,0,0,0-1.86-.15c0-.19,0-.4-.1-.55a1.74,1.74,0,0,0-.67-.39,11.15,11.15,0,0,0-2.79-.62,2.85,2.85,0,0,1-.87-.22,9.91,9.91,0,0,1,1.63-1.06c-.05-.69-.79-.92-1.33-1.12-.34-.1-.42-.46-.48-.76s-.35-.29-.55-.25a10.33,10.33,0,0,1-2.13.31c-.36,0-.7,0-1,0s-.53-.39-.84-.52a3.8,3.8,0,0,0-2.68-.09,5,5,0,0,0-1.52.71.43.43,0,0,1-.6-.07,2.81,2.81,0,0,1-.36-1,4.88,4.88,0,0,0,.92-1.24c0-.29-.44-.64-.09-.89a5.2,5.2,0,0,1,1,0,2.69,2.69,0,0,0,1.14,1,1.1,1.1,0,0,0,1.23-.11c.3-.27.52-.64.92-.78a4.23,4.23,0,0,1,2.34,0,6.4,6.4,0,0,0,3.25-.18,1.79,1.79,0,0,0,.81-.53c-.26-.38-.73-.21-1.11-.31a2.67,2.67,0,0,1-1.07-.75Z"/><path class="cls-2" d="M73.54,49.76c.71,0,1.38-.27,2.08-.3.07.34.12.79.49.94s1.12.31,1.35.86a8.68,8.68,0,0,0-1.71,1.12c.18.37.62.43,1,.47a11,11,0,0,1,3.1.72.67.67,0,0,1,.43.37,4.74,4.74,0,0,1-.24.51,5.15,5.15,0,0,1,2.07,0c.18.07.44.23.37.48s-.69.32-.85.68,0,.6.08.88a4.06,4.06,0,0,1-2.3-1.2c-.29-.2-.53-.56-.92-.55a4.25,4.25,0,0,0,.24,1,1.54,1.54,0,0,0-.37.27,1.68,1.68,0,0,0,1.07.76,15.42,15.42,0,0,0,2.33.35,1.49,1.49,0,0,0,.06,1.06,3.47,3.47,0,0,0,1.24.81,5.64,5.64,0,0,1-1.72.38,1,1,0,0,1-.41-.07,2.6,2.6,0,0,0,.12-.74,2.48,2.48,0,0,0-.86,0,3.17,3.17,0,0,0-1.26.32,1.91,1.91,0,0,0-.52.5,2.23,2.23,0,0,0-2.37,0c-.49-.2-1-.43-1.44-.6a1.77,1.77,0,0,0-1.89.74,1.38,1.38,0,0,0,.23,1.47,2.63,2.63,0,0,1,.49,1.18,3.07,3.07,0,0,1-1.28-.66c-.39-.34-.47-.92-.92-1.2a.91.91,0,0,0-1.08.2,2.44,2.44,0,0,0-.91,1.74,8.24,8.24,0,0,1-.63-.83c-.06-.08-.11-.2-.22-.22A9.51,9.51,0,0,1,67.05,61a2.35,2.35,0,0,0,.2-.6c-.24-.3-.74-.39-.79-.82a3.73,3.73,0,0,0-.54-1.14c-.1-.17-.36-.08-.43.07s-.26.52-.4.78a1.35,1.35,0,0,1-1.3-.75c-.18-.31.13-.55.31-.75-.21-.14-.42-.28-.62-.43a1,1,0,0,0,.33-.88c0-.4-.05-.94-.47-1.13s-.89.11-1.31.25a2.59,2.59,0,0,0-1,0,1.89,1.89,0,0,0-.92.93c-.6,0-1.3-.12-1.77.34-.25.27,0,.59,0,.89a2.06,2.06,0,0,1-.34.91,6.17,6.17,0,0,1-1.61-.58c.1-.3.37-.48.53-.72a1.37,1.37,0,0,1,.3-1,7.68,7.68,0,0,0,.79-.62,3.53,3.53,0,0,1,1-.76,4.6,4.6,0,0,1,1.17-.18c.3,0,.42-.45.74-.42.79.09,1.58.16,2.36.18.19,0,.27.16.38.26a2.38,2.38,0,0,0,1-.76c.17-.22.25-.49.4-.73A2.14,2.14,0,0,1,66.94,53c.45.17.66.66,1.07.88a2.25,2.25,0,0,0,2,.36,2.66,2.66,0,0,1,2.19,0c.59.22,1,.74,1.57,1a1.11,1.11,0,0,0,1.37-.8,3.74,3.74,0,0,0-.38-2.13A2.27,2.27,0,0,0,73.48,51c-.39-.13-.87-.13-1.16-.46a5.12,5.12,0,0,1-.06-.78Z"/><path class="cls-2" d="M62,55.85c.38-.12.78-.39,1.21-.27s.31.61.35.93-.24.59-.34.88c.08.21.29.33.46.47-.11.2-.28.43-.18.67a1.57,1.57,0,0,0,1.6,1,3.39,3.39,0,0,0,.6-.95,4.82,4.82,0,0,1,.6,1.38,6.68,6.68,0,0,0,.69.53c-.08.17-.16.34-.23.51.36.49,1,.34,1.53.53a10.89,10.89,0,0,0,1,1.3c-.63.39-1.25.81-1.88,1.21a1.2,1.2,0,0,0-.59.94,2.55,2.55,0,0,0,.71,1.62c.29.39.73.64,1,1.06a5.85,5.85,0,0,1,.28.56A1.89,1.89,0,0,0,70.35,67c.24-.6,0-1.31.34-1.86a.72.72,0,0,1,.73-.25,2.89,2.89,0,0,1,2.19,1.26,10.88,10.88,0,0,1,1,2c-.56.1-1.23.12-1.6.61s0,.91.1,1.32a3.82,3.82,0,0,0-1.59.93c-.19.33-.3.72-.51,1.06a1.12,1.12,0,0,0-.8.27c-.58.61-1,1.39-1.47,2.06a4.77,4.77,0,0,1-.9.71,1.39,1.39,0,0,0-.41.69,2.63,2.63,0,0,1,.53,1.15l-.77.22A1.77,1.77,0,0,0,66.36,76a.91.91,0,0,0-.9-.07c-.41.3-.6.94-1.18.94a7.86,7.86,0,0,1-1.18.07.93.93,0,0,0-.92.57,5,5,0,0,0-.12,1.85l-1.58-.13a3.52,3.52,0,0,0-1.25-2.13,2.37,2.37,0,0,0-1.33-.48.6.6,0,0,1-.58-.43c-.15-.35.24-.61.29-.94a3.91,3.91,0,0,0,0-2.53c-.28-.73-1-1.21-1.23-2a2.16,2.16,0,0,1,.26-1.33c.56-1.53,1.24-3,1.87-4.51a14.3,14.3,0,0,0,.9-2.47c.19-.75-.09-1.56.24-2.3a.62.62,0,0,0-.17-.86c-.39-.21-.81-.34-1.2-.52.18-.38.45-.81.29-1.23,0-.18-.2-.39,0-.53.49-.36,1.13-.2,1.69-.24a1.9,1.9,0,0,1,.86-1c.31-.12.63,0,.94.05Z"/><path class="cls-2" d="M69.77,57.86a2.59,2.59,0,0,1,1.83-.92,1.18,1.18,0,0,1,.88.37,2,2,0,0,1-.75,1.19c-.27.18-.16.53-.28.79s-.53.19-.81.24a6.1,6.1,0,0,0-1.09.45c.07-.29.29-.57.18-.89S69.4,58.2,69.77,57.86Z"/><path class="cls-2" d="M70.15,57.81a2.23,2.23,0,0,1,1.36-.65,2.1,2.1,0,0,1,.73.17,1.75,1.75,0,0,1-.27.61c-.16.22-.41.36-.57.58a3,3,0,0,0-.16.64c-.39.18-.83.14-1.22.33,0-.39-.18-.74-.21-1.12s.19-.41.34-.56Z"/><path class="cls-2" d="M73.45,59.24a1.3,1.3,0,0,1,1.12-.13c.4.19.8.39,1.23.55a.93.93,0,0,0,.17.53c.16.18.39.33.44.6a5.92,5.92,0,0,0,.54,1.6.86.86,0,0,1,0,1c-.5.6-1.28.89-1.73,1.54A3.81,3.81,0,0,0,74.64,66c-.13.1-.22-.06-.3-.15a3.93,3.93,0,0,1-.71-1.76c-.11-.83.2-1.7-.16-2.49-.18-.53-.69-.91-.68-1.5a1.09,1.09,0,0,1,.66-.89Z"/><path class="cls-2" d="M76,59.79a1.94,1.94,0,0,1,2.28-.09,3.49,3.49,0,0,0,.09,1.51,2.62,2.62,0,0,1-.13,1.44.77.77,0,0,0,.16.83c.37.39,1,.4,1.35.77s.7,1.11,1.12,1.63a2.41,2.41,0,0,0-.54,1.33c0,.59,0,1.19,0,1.78l-.39,0a1.94,1.94,0,0,0-.42-1.13,1.62,1.62,0,0,0-1.07-.35,4,4,0,0,0-.71-2.2,3.16,3.16,0,0,0,0-1.3.94.94,0,0,0-.59-.56,1.35,1.35,0,0,0,.17-.68,4.4,4.4,0,0,0-.35-1c-.16-.37-.21-.78-.34-1.16s-.49-.49-.56-.84Z"/><path class="cls-2" d="M80,60.75c.07-.16.26-.22.4-.3a1.89,1.89,0,0,0,.69,1.12,3.36,3.36,0,0,0,1.41.29c.3,0,.38.41.39.66s-.23.48-.35.72a5.29,5.29,0,0,0-.42,1.35l-.44.07a8,8,0,0,1-.47.75,13.79,13.79,0,0,0-.66-2.84A9.08,9.08,0,0,1,80,60.75Z"/><path class="cls-2" d="M70.12,61a1,1,0,0,1,.85-.4c.39.14.5.58.71.9a3.16,3.16,0,0,0,1.76,1.08,6.52,6.52,0,0,0,0,1.82,4.47,4.47,0,0,0,.76,1.73c.11.12.26.29.45.22.32-.35.35-.86.63-1.24.38-.64,1.1-.91,1.62-1.4.2.07.45.11.54.32a2.18,2.18,0,0,1,0,1.24c0,.19.13.34.21.5a4,4,0,0,1,.54,2,2.31,2.31,0,0,1,1,.21,1.71,1.71,0,0,1,.41,1,2.57,2.57,0,0,0-1.56.32,4.06,4.06,0,0,0-1.18,1.73l-.8,0a2.64,2.64,0,0,0-.91-1.73c.28-.18.77-.36.66-.77-.26-.32-.71-.34-1.08-.43a8.46,8.46,0,0,0-1.12-2.25A3,3,0,0,0,71.6,64.7a1.21,1.21,0,0,0-1,.24,1.87,1.87,0,0,0-.32,1.31,1.72,1.72,0,0,1-.41,1.23A2.16,2.16,0,0,1,69,68a2.6,2.6,0,0,0-.64-.9,3.43,3.43,0,0,1-1.22-1.69,1,1,0,0,1,.43-1.13c.71-.47,1.42-.91,2.12-1.39a1.56,1.56,0,0,1-.22-.78A2.22,2.22,0,0,1,70.12,61Z"/><path class="cls-2" d="M73.93,68.48a2.33,2.33,0,0,1,1.74.16.2.2,0,0,1-.11.23c-.22.17-.48.28-.71.45a2.72,2.72,0,0,1,1.08,1.76,4.87,4.87,0,0,0-1.94.83,7.15,7.15,0,0,1-2.45,1.34,3.46,3.46,0,0,0-2.08,2.07,2.25,2.25,0,0,0,.08,2,6,6,0,0,1,.75,2.16,5.09,5.09,0,0,1-1.33.19A4.53,4.53,0,0,1,67.59,79l.69-.57a2.38,2.38,0,0,1-.65-1.15c.18-.09.45-.13.49-.38a2,2,0,0,0-.49-1.15c.17-.54.78-.72,1.14-1.12.58-.67.94-1.51,1.56-2.15.19-.21.5-.16.75-.21.29-.48.42-1.09.91-1.42a6,6,0,0,1,1.4-.65,2.53,2.53,0,0,1-.32-1.13,1,1,0,0,1,.86-.6Z"/><path class="cls-2" d="M77.2,71.05c.32-.77.83-1.69,1.75-1.8a10.24,10.24,0,0,1,1.75,0,5.76,5.76,0,0,1,.26,1A8.85,8.85,0,0,1,79,71.8,5.58,5.58,0,0,0,77.2,71.05Z"/><path class="cls-2" d="M60,70.16c.39,0,.52.73.12.76C59.8,70.78,59.85,70.4,60,70.16Z"/><path class="cls-2" d="M65.87,70.25c.08-.12.34,0,.23.13S65.76,70.39,65.87,70.25Z"/><path class="cls-2" d="M64.52,70.26h.35c0,.22.07.45-.05.63s-.21,0-.3,0v-.6Z"/><path class="cls-2" d="M79.33,71.89A12.82,12.82,0,0,0,81,70.55a5,5,0,0,0,2.44,2.77c.72.38,1.5.61,2.25.93a3.26,3.26,0,0,0,1.46.1c1.16-.06,2.34,0,3.5,0a3.72,3.72,0,0,1,1,.94,2,2,0,0,0-.15,1.52c.14.27.3.63.09.91-.37.61-.7,1.24-1,1.87a1.79,1.79,0,0,0-.09,1.53,2.35,2.35,0,0,0,1,.88,2.7,2.7,0,0,0,1.84.34,3.21,3.21,0,0,1,1.06-.16c.23,0,.35.26.48.43a1.16,1.16,0,0,1-.39.34A2.49,2.49,0,0,0,93,84.43c-.06.32-.43.4-.67.57-.42.27-1,.09-1.42.12s-.63.22-1,.15a1.23,1.23,0,0,1-.64-.8c-.67-1.88-1.34-3.76-2-5.67a2.17,2.17,0,0,1,.2-1.76c.11-.2.29-.38.27-.62a.39.39,0,0,0-.32-.31c-.58,0-1.16,0-1.74,0-1,0-1.51-1.22-2.52-1.19a5,5,0,0,0,.15.69,1.43,1.43,0,0,1-1.21-.51c-.39-.37-.74-.75-1.1-1.15.21-.19.53-.37.53-.68s-.34-.56-.63-.69c-.54-.22-1.11-.38-1.63-.65Z"/><path class="cls-2" d="M74,72.22a4.44,4.44,0,0,1,4-.76c.51.24,1,.56,1.53.78s1,.33,1.46.55c.18.11.45.26.39.52s-.39.39-.6.54a8.56,8.56,0,0,0,1.69,1.71,1,1,0,0,0,1,.15c.2-.14.08-.4.07-.6a13.47,13.47,0,0,1,1.24.84,1.72,1.72,0,0,0,1,.35c.57,0,1.15,0,1.72,0,0,.34-.25.57-.38.88a2.9,2.9,0,0,0,.06,2q.85,2.64,1.82,5.24a1.48,1.48,0,0,0,.8,1,1.64,1.64,0,0,0,.85-.13c.39,0,.78,0,1.17,0a5.18,5.18,0,0,1-2.28,2.75,5.41,5.41,0,0,1-1.58.73A4,4,0,0,0,85.49,91a3.76,3.76,0,0,0-.24,1.59c0,.33-.25.53-.5.67a5.1,5.1,0,0,0-1.37,1.12,1.66,1.66,0,0,1-.62.35,4.32,4.32,0,0,0-2.26,1.9c-.63.11-1.39-.1-1.92.38a5.55,5.55,0,0,1-4,1.13,2.09,2.09,0,0,1-1.32-.52c-.22-.33,0-.72.22-1a4.91,4.91,0,0,0,.56-4.82c-.17-.32.07-.66.24-.93.56-.68,1.16-1.32,1.72-2a2.39,2.39,0,0,0,.53-1.5c0-.48-.18-.94-.13-1.42s.49-1,.41-1.59-.54-.9-1-1.17a5.44,5.44,0,0,1-1.35-2,1.24,1.24,0,0,0-1.15-.78,7.43,7.43,0,0,0-1.33.16,1.64,1.64,0,0,1-1.35-.75,1,1,0,0,1-.2-.51,5.67,5.67,0,0,0-.72-2,1.92,1.92,0,0,1-.16-1.7A3.36,3.36,0,0,1,71,73.77a9.19,9.19,0,0,1,1.25-.53,7.59,7.59,0,0,0,1.71-1Z"/><path class="cls-2" d="M65.63,76.11c.43-.15.81.21,1.07.51a1.05,1.05,0,0,1,.13.85c.19,0,.38-.1.57-.15A2.53,2.53,0,0,0,68,78.41a2.13,2.13,0,0,0-.75.8c.64.08,1.1.62,1.73.69a6,6,0,0,0,1.39-.21,2.43,2.43,0,0,0,1.2,1c.64.22,1.27-.21,1.92-.09a1.09,1.09,0,0,1,.87.65,5.63,5.63,0,0,0,1.28,2c.4.26.9.52,1,1s-.32,1-.38,1.51a13.19,13.19,0,0,0,.09,1.66,2.25,2.25,0,0,1-.57,1.4l-1.47,1.7a2.15,2.15,0,0,0-.51.92c-.06.2.07.39.14.58a4.54,4.54,0,0,1-.19,3.78c-.22.49-.67.88-.74,1.44a.84.84,0,0,0,.61.85,5.7,5.7,0,0,0,3.25,0,4.82,4.82,0,0,0,1.71-.85A1.45,1.45,0,0,1,79.2,97c.4,0,.81,0,1.21-.09A8.47,8.47,0,0,0,80,99.32a1.57,1.57,0,0,1-.24,1,.81.81,0,0,1-.83.12,10.32,10.32,0,0,0-3.38-.72,4,4,0,0,0-1.7.44,2.66,2.66,0,0,0-2,.7,3.54,3.54,0,0,1-.45-.41,2.36,2.36,0,0,0-.37-.59c-.29-.25-.68-.4-.79-.79.2-.13.43-.26.64-.38-.21-.27-.48-.59-.37-1,.16-.55.81-.68,1.07-1.16-.22-.37-.6-.7-.55-1.15s.49-.47.76-.69a1.24,1.24,0,0,0,.47-1.18,3.91,3.91,0,0,1,.89-2.76A5.91,5.91,0,0,0,74.29,89a13.84,13.84,0,0,0,.34-2.31c.11-.21.35-.35.38-.6a3.61,3.61,0,0,0-.08-2.23,2.49,2.49,0,0,0-1.38-1.36,2.9,2.9,0,0,0-1.21-.05,9.24,9.24,0,0,1-2.23-.09,1.45,1.45,0,0,1-1-.65A1.94,1.94,0,0,0,68,80.84c-.56-.09-1.14,0-1.7-.14-.39-.11-.16-.57-.13-.84-1.28-.11-2.53-.42-3.82-.49a4.48,4.48,0,0,1,.06-1.75.75.75,0,0,1,.75-.46A5.78,5.78,0,0,0,64.67,77c.35-.26.57-.69,1-.91Z"/><path class="cls-2" d="M58.35,81a3.26,3.26,0,0,0,2.1-1.49c1.15.09,2.31.13,3.44.32.65.1,1.28.22,1.93.27-.07.31-.06.75.32.86.57.13,1.18,0,1.77.17a2,2,0,0,1,1,.75,1.84,1.84,0,0,0,.64.6,3.74,3.74,0,0,0,1.33.25,12.5,12.5,0,0,0,2,0,1.93,1.93,0,0,1,1.76,1.21A3.06,3.06,0,0,1,74.8,86c0,.28-.35.42-.4.68A10.28,10.28,0,0,0,74.27,88a4,4,0,0,1-.68,1.9c-.31.5-.77.9-1,1.43a4.16,4.16,0,0,0-.5,2.15,1.37,1.37,0,0,1-.17.91c-.25.38-.84.38-1,.84s.2,1,.49,1.37c-.37.34-.91.55-1,1.08a1.19,1.19,0,0,0,.22.93c-.17.14-.42.22-.48.46,0,.44.43.66.74.89s.31.49.5.73a2.35,2.35,0,0,0,.62.45c.23.38.56.69.78,1.08a1.65,1.65,0,0,1-1.51.35c-.48-.2-.74-.67-1.1-1-.75-.92-1.66-1.69-2.47-2.55-.23-.25-.48-.47-.71-.71-.12-.08-.12-.23-.14-.36a20.15,20.15,0,0,1-.07-3,3.27,3.27,0,0,0-.89-2.26c-.68-.69-1.51-1.19-2.25-1.82a1.64,1.64,0,0,0-1.14-.27c-.17-.26-.16-.71-.53-.8s-1.15,0-1.51-.43c-.13-.37-.12-.8-.4-1.11s-.84-.34-1.28-.39a.37.37,0,0,1-.32-.44c.08-.76.61-1.55.24-2.3-.1-.33-.17-.66-.27-1a3.35,3.35,0,0,0,.63-.31,1.34,1.34,0,0,0,.18-1,.92.92,0,0,0-.68-.84c-.52-.1-1.12.07-1.58-.28-.15-.14-.42-.3-.32-.53.58-.15,1.19,0,1.78-.18Z"/><path class="cls-2" d="M80,83.89c.07.14.13.29.19.43h-.38C79.89,84.18,80,84,80,83.89Z"/><path class="cls-2" d="M92.16,85.31a5.07,5.07,0,0,1,.85-.47c.54.12,1,.35,1.59.43a1.17,1.17,0,0,1,.72.23,5,5,0,0,1,.76,1.29,1.26,1.26,0,0,1,0,1.15,18.4,18.4,0,0,0-.88,1.85.81.81,0,0,0,0,.68c.22.4.75.48,1,.85a5,5,0,0,0,.13.67,2.11,2.11,0,0,0,.87.88c.74.44,1.55.72,2.3,1.11a5.88,5.88,0,0,0-1.58.9c-.81.7-1.66,1.34-2.5,2A2.79,2.79,0,0,0,95,96a2.6,2.6,0,0,0-.95-.65c.32-.58,1-.73,1.5-1.16,0-.18-.2-.15-.32-.19a10.83,10.83,0,0,0-2.84-.35,6.78,6.78,0,0,0-1,.19,5.33,5.33,0,0,0-.63-.72,1.59,1.59,0,0,0-1.32-.27,11.89,11.89,0,0,0-1.56.4c.5-.81,1.11-1.55,1.6-2.37a3.83,3.83,0,0,1,1.66-1.53.82.82,0,0,0,.57-.81A2.33,2.33,0,0,0,91,87.31a3.92,3.92,0,0,0,1-1.51,2.41,2.41,0,0,1,.21-.49Z"/><path class="cls-2" d="M89,88.74a8.09,8.09,0,0,0,1.81-1.27c.3.33.73.65.72,1.15,0,.33-.35.49-.59.63a4.09,4.09,0,0,0-1.53,1.42c-.5.83-1.09,1.6-1.64,2.41-.12.16-.22.35-.42.38-1.21.25-2.4.54-3.58.85a5.1,5.1,0,0,1,1.37-1,.74.74,0,0,0,.37-.77,3.32,3.32,0,0,1,1.83-3.14c.52-.29,1.13-.37,1.66-.64Z"/><path class="cls-2" d="M87.64,93.61A8.91,8.91,0,0,1,89.91,93a1.53,1.53,0,0,1,1.26.87,4.37,4.37,0,0,1,.29,1.4.42.42,0,0,0,.4.31c.44,0,.88-.14,1.32-.15a2.36,2.36,0,0,1,1.53.56,2.4,2.4,0,0,1,.53,1,2,2,0,0,0-.57,1.7,3.84,3.84,0,0,1-.29,2.71,2.29,2.29,0,0,1-1,1,5.23,5.23,0,0,0-1.83,1.43,8.19,8.19,0,0,1-1,1,8,8,0,0,0-1.5,1.2c-.53-.42-1.23-.64-1.58-1.25-.11-.13-.15-.38-.35-.36a6,6,0,0,0-1,0,2.43,2.43,0,0,0-.49.29c-.38.26-.83.39-1.22.65a4.6,4.6,0,0,1-2.46.54c-1.32-.21-2.36-1.27-3.72-1.33a3.26,3.26,0,0,1-1.55-.44,3.6,3.6,0,0,1,.32-1,8.39,8.39,0,0,0,.49-.94c-.47,0-1,.23-1.43-.08s-.34-.7-.58-1a2.2,2.2,0,0,0-1.08-.89,3.32,3.32,0,0,1,1.36-.25,10.21,10.21,0,0,1,3,.66,1.22,1.22,0,0,0,1.13,0,1.17,1.17,0,0,0,.4-1,7.56,7.56,0,0,1,.45-2.75,3.17,3.17,0,0,1,1.75-1.7c.6-.28,1.22-.5,1.84-.72,1.12-.29,2.24-.55,3.36-.8Z"/><path class="cls-2" d="M91.5,94.06a4.93,4.93,0,0,1,1.33-.21,13.32,13.32,0,0,1,2.26.37c-.44.36-1.06.54-1.3,1.1-.7-.23-1.39.12-2.1,0a11.14,11.14,0,0,0-.19-1.29Z"/><path class="cls-2" d="M98,95.13a5.13,5.13,0,0,1,1.82-1c.25.48.35,1.09.81,1.45a1.5,1.5,0,0,0,1.26,0,16,16,0,0,0,.52,1.62,4,4,0,0,1-.32,2.32,1.72,1.72,0,0,0,.09,1.22,4.35,4.35,0,0,0-1.78,1c-.5.44-.83,1-1.28,1.47-.23.23-.53.38-.75.61,0,.2.16.32.29.43a6.49,6.49,0,0,0,1,.55,10.45,10.45,0,0,1-4,1.9,5.27,5.27,0,0,0-2.2,1.17,2.42,2.42,0,0,1-1.51.61c-.56,0-1.12-.1-1.69-.07a4.46,4.46,0,0,0-1.52.41,1.44,1.44,0,0,1-.2-1.34c.17-.42.71-.66.63-1.18.21-.57.87-.76,1.3-1.14.84-.6,1.35-1.55,2.2-2.14a11.53,11.53,0,0,0,1.43-.86,3.23,3.23,0,0,0,.9-2.42,5.49,5.49,0,0,1,0-2c.16-.48.61-.74,1-1,.67-.54,1.36-1,2-1.61Z"/><path class="cls-2" d="M83.87,100.42c.07-.14.13-.29.2-.43.07.14.13.29.19.43Z"/><path class="cls-2" d="M100.56,101.92a4,4,0,0,1,1.72-.94,1.87,1.87,0,0,1-.42,1.89c-.65.6-1.32,1.18-2,1.78a4.71,4.71,0,0,1-1.29-.73,7.89,7.89,0,0,0,.65-.49c.47-.47.8-1.07,1.32-1.51Z"/><path class="cls-2" d="M84.57,105.52a7.68,7.68,0,0,0,1.46-.81,5.32,5.32,0,0,1,1.06,0,2.52,2.52,0,0,0,1,1.06c.36.19.8.4.87.84-.28.38-.73.72-.74,1.25a2.24,2.24,0,0,0,.43,1.36c-.49.12-1,.16-1.47.24a6.76,6.76,0,0,1-1.68,0,1.18,1.18,0,0,0-.15-1c-.28-.24-.69-.21-1-.42a.38.38,0,0,1-.22-.4c.09-.41.33-.77.41-1.18a3.1,3.1,0,0,0,0-.86Z"/><text class="cls-3" transform="translate(166.79 111.32) scale(0.95 1)">MONA<tspan class="cls-4" x="32.75" y="0">R</tspan><tspan x="39.46" y="0">CH MERGED DISEASE ONTOLOGY</tspan></text></svg>