<svg id="Layer_1" data-name="Layer 1" xmlns="http://www.w3.org/2000/svg" viewBox="0 0 1069 332"><defs><style>.cls-1{fill:#231f20;}.cls-2,.cls-3{fill:#fff;}.cls-3{font-size:7.6785px;font-family:AppleSDGothicNeo-UltraLight-KSCpc-EUC-H, Apple SD Gothic Neo;letter-spacing:-0.021em;}.cls-4{letter-spacing:-0.0259em;}</style></defs><title>mondo_logo</title><rect class="cls-1" x="0.2527" width="1069" height="332"/><path class="cls-2" d="M454.8585,207.054a10.1184,10.1184,0,0,1,2.0089-6.0526,33.5828,33.5828,0,0,1-.08-65.1364,10.0877,10.0877,0,0,1-1.4243-9.49,43.1438,43.1438,0,0,0,.1035,84.1176A10.1352,10.1352,0,0,1,454.8585,207.054Z"/><path class="cls-2" d="M474.5036,126.3315a10.0879,10.0879,0,0,1-1.3772,9.4921,33.5838,33.5838,0,0,1,.08,65.1778,10.0875,10.0875,0,0,1,1.4,9.4916,43.142,43.142,0,0,0-.1028-84.1615Z"/><rect class="cls-2" x="463.1462" y="188.9587" width="3.5907" height="16.5317"/><rect class="cls-2" x="463.1462" y="128.0597" width="3.5907" height="16.5317"/><path class="cls-2" d="M521.5346,171.4754h2.35v-19.33c0-3.819,1.4688-6.2279,6.5216-6.2279,5.1115,0,6.2866,2.7027,6.2866,7.8142v17.6846h2.35V153.0857c0-3.9365,1.4688-7.1091,6.58-7.1091s6.2866,1.9976,6.2866,7.8141v17.6847h2.35V153.7907c0-6.4628-1.7038-9.988-8.3429-9.988-2.9964,0-5.5815.5875-7.8729,3.9952-.9988-2.35-3.29-3.9952-7.3441-3.9952-2.9964,0-5.2878.7638-6.6979,2.7026l-.235-2.1738h-2.2326Z"/><path class="cls-2" d="M568.6545,143.8615c-5.8753,0-8.6367,2.4676-8.6367,10.1642v7.4617c-.0587,7.99,2.7027,10.2818,8.6367,10.2818,5.8753,0,8.6367-2.6439,8.6367-10.2231V154.202C577.2912,146.1528,574.53,143.8615,568.6545,143.8615Zm6.2866,17.5671c0,5.7578-1.2926,8.2254-6.2866,8.2254-5.3465,0-6.2865-2.4088-6.2865-8.2841v-7.2267c0-5.7577,1.2338-8.0491,6.2865-8.0491,5.3466,0,6.2866,2.2326,6.2866,8.1079Z"/><path class="cls-2" d="M614.923,143.8615c-5.8753,0-8.6367,2.4676-8.6367,10.1642v7.4617c-.0588,7.99,2.7026,10.2818,8.6367,10.2818,5.8753,0,8.6367-2.6439,8.6367-10.2231V154.202C623.56,146.1528,620.7983,143.8615,614.923,143.8615Zm6.2866,17.5671c0,5.7578-1.2926,8.2254-6.2866,8.2254-5.3465,0-6.2866-2.4088-6.2866-8.2841v-7.2267c0-5.7577,1.2338-8.0491,6.2866-8.0491,5.3465,0,6.2866,2.2326,6.2866,8.1079Z"/><path class="cls-2" d="M638.9824,143.8615c-5.8754,0-8.6367,2.4676-8.6367,10.1642v7.4617c-.0588,7.99,2.7026,10.2818,8.6367,10.2818,5.8753,0,8.6367-2.6439,8.6367-10.2231V154.202C647.6191,146.1528,644.8577,143.8615,638.9824,143.8615Zm6.2865,17.5671c0,5.7578-1.2925,8.2254-6.2865,8.2254-5.3466,0-6.2866-2.4088-6.2866-8.2841v-7.2267c0-5.7577,1.2338-8.0491,6.2866-8.0491,5.3465,0,6.2865,2.2326,6.2865,8.1079Z"/><path class="cls-2" d="M583.284,144.3315v27.1439h2.35V152.3807c0-3.1139,1.645-6.5216,6.5215-6.5216s6.2866,1.8213,6.2866,7.8729v17.6846h2.35V153.732c0-7.05-1.9388-9.9293-8.3429-9.9293a7.711,7.711,0,0,0-6.8741,3.4077l-.1763-2.8789Z"/><path class="cls-2" d="M462.5863,144.708a23.8315,23.8315,0,1,0,26.07,21.3595A23.8315,23.8315,0,0,0,462.5863,144.708Zm16.8479,31.1575c-.0891.8606-.1947,1.7217-.35,2.5722a5.1783,5.1783,0,0,1-.4306,1.1787c-.5208,1.1427-1.0615,2.2763-1.5928,3.4143-.0244.0523-.0169.1258-.0514.1662a13.76,13.76,0,0,1-2.4119,2.7114,5.1038,5.1038,0,0,0-.9389,1.2043,3.8161,3.8161,0,0,1-.27.3586c-.2951.3075-.2906.3537.1057.6136a1.3343,1.3343,0,0,1-1.5881-.1548c-.0739-.0721-.1615-.2205-.134-.2918.2681-.6965.5592-1.384.8439-2.0741a1.8506,1.8506,0,0,0,.1475-.3661c.1172-.6783.2066-1.3616.3326-2.0382.2351-1.2619.0476-1.6541-1.1447-2.03a2.95,2.95,0,0,1-1.4561-1.1234,2.1706,2.1706,0,0,1-.5181-2.2612,5.556,5.556,0,0,1,.769-1.8078,2.1436,2.1436,0,0,0,.25-1.2905c-.0153-.3833-.4919-.3953-.8786-.4087a2.5734,2.5734,0,0,1-1.6825-.4512c-1.2036-1.376-2.8261-1.4816-4.42-1.7871a11.0962,11.0962,0,0,1-2.4133-.7237,2.3091,2.3091,0,0,1-.8486-1.0091,16.1928,16.1928,0,0,0-2.3734-3.3481l-.175.0916,1.177,2.4081-.1351.1191c-.1274-.0525-.2908-.0714-.3762-.1631a5.9662,5.9662,0,0,1-1.0955-1.8319c-.3983-.9484-.3372-2.2167-1.5632-2.707a.5139.5139,0,0,1-.2422-.3012,6.6667,6.6667,0,0,1-.05-4.6524c.2065-.5088.2708-1.0735.4459-1.5973.1722-.5151-.0484-.79-.4828-.9883a2.0771,2.0771,0,0,1-.28-.2,1.1454,1.1454,0,0,0,.1119-1.6648c-.077-.0878-.2953-.0514-.4877-.0778l.4116-.3433a6.3708,6.3708,0,0,0-.4145-1.9845c-.2917-.4967-.9537-.7759-1.4774-1.1695a4.6982,4.6982,0,0,1-1.0453.7642c-1.134.408-1.641,1.4824-2.4779,2.2a1.9669,1.9669,0,0,1-.5949.4407l1.0624-1.37-.1131-.1181-.3925.104a1.544,1.544,0,0,1,.3191-1.8595c.4383-.4529.9833-.8027,1.45-1.3179l-.5049.05a1.1617,1.1617,0,0,1,1.1642-1.0774c.1475.0214.4606-.1423.4631-.2279.0226-.7842.6535-.9252,1.1789-1.18a8.1991,8.1991,0,0,1,5.3024-.5392,2.3782,2.3782,0,0,0,1.1848-.1731,4.2625,4.2625,0,0,1,2.9627.1755,2.4767,2.4767,0,0,0,1.1265.1036l-.34-.2914.3962-.3562-1.5119-.281c.3873-.1343.6439-.2494.9128-.3112a2.3391,2.3391,0,0,1,1.9329.1421c.2687.1693.7376.0336,1.1143.0147.2509-.0126.5-.064.7307-.0954-.0267.476-.048.8561-.0764,1.3637-.2934.0259-.7007.0617-1.1771.1035a1.5248,1.5248,0,0,0,2.4442-.3345c.0453-.12-.0532-.2907-.0768-.4393-.0684-.4312.1537-.6887.5779-.6227.4453.0693.8832.1862,1.3253.2825-.241.1945-.5474.3246-.6311.5409a1.7428,1.7428,0,0,0,.0422.7571l.9066.7419.5564-.525c-.0889-.0794-.1145-.1218-.1473-.1285-.4391-.09-.7329-.4217-.6144-.7936s.5511-.3736.9735-.3476c1.2041.0741,1.8192,1.0078,2.6585,1.6383.762.5723.8155,1.5512,1.4326,2.1918.088.0914-.04.3913-.0858.7183l-.4852-.565-.1267.0655a3.1037,3.1037,0,0,1,.2117.5737,2.3486,2.3486,0,0,1-.0341.5514c-.1858-.02-.4118.02-.5486-.0729-.2508-.1695-.433-.437-.6731-.6266-.2972-.2346-.6261-.4285-.9372-.646-.1383-.0968-.2665-.2081-.48-.3765.3824-.0221.6935.0545.8567-.0671.5184-.3866.5275-.641.0484-1.0979-.3845-.3665-.8327-.6662-1.3141-1.0437-.2976,1.2305-.2976,1.2305-1.2452,1.37l1.233,1.1558a6.5731,6.5731,0,0,1-1.3109-.1822c-.0958-.033-.0522-.47-.0832-.85a2.7271,2.7271,0,0,0-.752.27,12.9609,12.9609,0,0,0-1.579,1.27,1.1643,1.1643,0,0,0,.2774,1.9672c.4679.2647.9236.5517,1.3776.84a1.5044,1.5044,0,0,1,.7311,1.1873,3.05,3.05,0,0,0,.3742.7964c.1316-.2452.2126-.3311.2221-.4244a2.2788,2.2788,0,0,1,.8282-1.5981.4113.4113,0,0,0-.0181-.7226.45.45,0,0,1-.1443-.3827c.1229-.4809.2882-.951.451-1.4657.6554.0282,1.1308.5977,1.6815,1.0255.0676.0525.0472.2087.0864.3094.1032.2651.2168.5262.3262.7888l.6852-.335c.5041,1.2135,1.034,2.4888,1.6255,3.9125l-2.298.0839c.38.4557.7663.928,1.1623,1.3923.243.2848.2579.4669-.1433.635a1.6235,1.6235,0,0,1-1.4173.1465c-.4684-.2163-.6154.1742-.8169.4909a7.5932,7.5932,0,0,1-.5782.6082,11.7188,11.7188,0,0,0-.9161,1.2241c-.1577.2569-.1607.6056-.3043.875a5.618,5.618,0,0,1-.6888,1.0071,9.027,9.027,0,0,1-.7075.5928c-.7451.7044-.7787,1.102-.3121,2.03a5.2049,5.2049,0,0,1,.2669,1.1192c-.7825-.0888-.917-.6309-1.1294-1.0431a1.4322,1.4322,0,0,0-1.1168-.9033,1.3042,1.3042,0,0,0-.8281.061,4.9332,4.9332,0,0,1-2.3047.6434,1.111,1.111,0,0,0-.5926.3632,3.9345,3.9345,0,0,0-1.0669,2.498c-.0209,1.5518,1.1188,1.8708,2.2823,1.4914a.8453.8453,0,0,0,.4126-.447,1.49,1.49,0,0,1,1.5253-.8464,5.9053,5.9053,0,0,1-.5255,1.4627c-.326.465-.0826.61.2513.7069a2.4168,2.4168,0,0,0,.9595.0652c.4028-.0524.48.1361.4653.4574a5.99,5.99,0,0,0-.04.7436c.0491.6062.3337.829.952.7448.9205-.1254,1.8869-.1261,2.4891-1.0493a1.105,1.105,0,0,1,1.4021-.3793c.8346.3539,1.5022-.04,2.2444-.2924a1.43,1.43,0,0,0,1.496,1.2354c.2008-.0031.4622.4167.6019.69.2859.5586.664.6913,1.3257.2436C479.4843,174.74,479.492,175.3063,479.4342,175.8655Z"/><circle class="cls-2" cx="464.9416" cy="129.7916" r="3.8084"/><circle class="cls-2" cx="464.9416" cy="207.054" r="3.8084"/><rect class="cls-2" x="621.2096" y="121.1376" width="2.3501" height="39.2459"/><text class="cls-3" transform="translate(519.999 193.7275) scale(0.947 1)">THE WORLD’S DISEASE CONCE<tspan class="cls-4" x="94.9276" y="0">P</tspan><tspan x="98.7906" y="0">TS, UNIFIED</tspan></text></svg>