<svg id="Layer_1" data-name="Layer 1" xmlns="http://www.w3.org/2000/svg" viewBox="0 0 220.474 241.3333"><defs><style>.cls-1,.cls-3{fill:#828385;}.cls-2{fill:#9d9ea1;}.cls-3{font-size:12.5787px;font-family:AppleSDGothicNeo-UltraLight-KSCpc-EUC-H, Apple SD Gothic Neo;letter-spacing:-0.021em;}.cls-4{letter-spacing:-0.0261em;}</style></defs><title>mondo_logo</title><path class="cls-1" d="M91.2738,138.819a15.8918,15.8918,0,0,1,3.1551-9.5058,52.7427,52.7427,0,0,1-.125-102.2984A15.8433,15.8433,0,0,1,92.067,12.1111,67.7586,67.7586,0,0,0,92.23,144.22,15.92,15.92,0,0,1,91.2738,138.819Z"/><path class="cls-1" d="M122.127,12.0423A15.8429,15.8429,0,0,1,119.9641,26.95a52.7442,52.7442,0,0,1,.125,102.3634,15.8426,15.8426,0,0,1,2.1994,14.9069,67.7556,67.7556,0,0,0-.1615-132.1778Z"/><rect class="cls-2" x="104.4393" y="110.3999" width="5.6393" height="25.9634"/><rect class="cls-2" x="104.4393" y="14.7564" width="5.6393" height="25.9634"/><path class="cls-2" d="M103.56,40.903a37.4279,37.4279,0,1,0,40.9436,33.5457A37.428,37.428,0,0,0,103.56,40.903Zm26.46,48.9336c-.14,1.3516-.3057,2.704-.55,4.04a8.1244,8.1244,0,0,1-.6762,1.8512c-.8179,1.7947-1.6671,3.5751-2.5016,5.3622-.0383.0822-.0264.1977-.0806.2612-1.231,1.4436-2.1652,3.131-3.788,4.2582a8.02,8.02,0,0,0-1.4746,1.8914,5.9512,5.9512,0,0,1-.4243.5631c-.4635.4831-.4564.5557.166.9638a2.0955,2.0955,0,0,1-2.4942-.2432c-.116-.1132-.2536-.3462-.21-.4582.4211-1.0938.8784-2.1737,1.3255-3.2574a2.9076,2.9076,0,0,0,.2316-.575c.184-1.0654.3246-2.1385.5224-3.201.3692-1.9819.0747-2.5978-1.7978-3.1876a4.6323,4.6323,0,0,1-2.2868-1.7644,3.409,3.409,0,0,1-.8137-3.5513,8.7265,8.7265,0,0,1,1.2077-2.8391,3.3652,3.3652,0,0,0,.3922-2.0268c-.0239-.6019-.7724-.6208-1.38-.6419-.9072-.0315-2.1351-.1285-2.6425-.7086-1.89-2.1609-4.4385-2.3268-6.9422-2.8066a17.429,17.429,0,0,1-3.79-1.1367,3.624,3.624,0,0,1-1.3328-1.5848,25.428,25.428,0,0,0-3.7275-5.2583l-.2748.1439,1.8486,3.782-.2123.1871c-.2-.0825-.4566-.1122-.5908-.2561a9.367,9.367,0,0,1-1.72-2.8771c-.6257-1.49-.53-3.4815-2.4551-4.2514a.807.807,0,0,1-.3805-.4731,10.47,10.47,0,0,1-.0778-7.3067c.3242-.7991.4252-1.6859.7-2.5086.27-.8089-.076-1.2407-.7583-1.5521a3.2715,3.2715,0,0,1-.44-.314,1.799,1.799,0,0,0,.1756-2.6147c-.1209-.1377-.4637-.0806-.7658-.1221l.6464-.5392a10.01,10.01,0,0,0-.651-3.1167c-.4581-.78-1.4978-1.2185-2.32-1.8368a7.3735,7.3735,0,0,1-1.6417,1.2c-1.7809.6407-2.5772,2.3282-3.8916,3.4547a3.0909,3.0909,0,0,1-.9342.6922l1.6684-2.1513L84.7,55.1414l-.6164.1633c-.5453-.5716-.35-2.04.5012-2.92.6882-.7114,1.5442-1.2607,2.277-2.07l-.7929.0793a1.8243,1.8243,0,0,1,1.8284-1.6921c.2317.0335.7234-.2235.7273-.3579.0355-1.2316,1.0264-1.4531,1.8514-1.8529a12.878,12.878,0,0,1,8.3277-.8468,3.7328,3.7328,0,0,0,1.8607-.2717,6.6936,6.6936,0,0,1,4.6529.2755,3.8921,3.8921,0,0,0,1.7694.1628l-.5336-.4577.6222-.5594-2.3745-.4414c.6083-.2108,1.0113-.3917,1.4336-.4887a3.6739,3.6739,0,0,1,3.0357.2232c.422.2659,1.1584.0527,1.75.0231.394-.02.7851-.1005,1.1475-.15-.0419.7475-.0754,1.3445-.12,2.1417l-1.8487.1626c1.21,1.1778,3.3178.85,3.8388-.5255.071-.1875-.0836-.4565-.1207-.69-.1074-.6772.2415-1.0816.9077-.9779.6993.1089,1.387.2924,2.0813.4437-.3784.3053-.86.51-.9912.8495a2.74,2.74,0,0,0,.0663,1.189l1.4239,1.1651.8739-.8244c-.14-.1247-.18-.1913-.2314-.2018-.69-.1412-1.151-.6624-.9649-1.2465.1867-.5857.8655-.5866,1.529-.5459,1.8909.1164,2.8569,1.5828,4.1752,2.573,1.1967.8988,1.2807,2.4362,2.25,3.4423.1382.1436-.0634.6145-.1348,1.1281l-.762-.8873-.1991.1028a4.8683,4.8683,0,0,1,.3325.901,3.684,3.684,0,0,1-.0534.8661c-.2919-.0314-.6468.0307-.8616-.1145-.3939-.2662-.68-.6864-1.0572-.9841-.4667-.3685-.9834-.6731-1.4718-1.0146-.2174-.152-.4187-.3268-.7542-.5913.6-.0347,1.0892.0856,1.3455-.1054.8141-.6072.8284-1.0066.0759-1.7243-.6038-.5756-1.3077-1.0463-2.0637-1.6392-.4674,1.9326-.4674,1.9326-1.9557,2.1517l1.9365,1.8152a10.3135,10.3135,0,0,1-2.0588-.2862c-.1505-.0518-.0821-.7386-.1307-1.3356a4.2849,4.2849,0,0,0-1.181.4243,20.3409,20.3409,0,0,0-2.48,1.994,1.8284,1.8284,0,0,0,.4355,3.0894c.7349.4158,1.4506.8665,2.1635,1.32a2.3623,2.3623,0,0,1,1.1483,1.8646,4.7925,4.7925,0,0,0,.5877,1.2507c.2066-.3849.3339-.52.3489-.6664a3.5782,3.5782,0,0,1,1.3007-2.51.6459.6459,0,0,0-.0285-1.1349.7067.7067,0,0,1-.2266-.6009c.193-.7554.4526-1.4937.7082-2.302,1.0293.0443,1.776.9387,2.6409,1.6105.1063.0826.0742.3278.1358.4861.162.4163.34.8263.5122,1.2387l1.0762-.526,2.5528,6.1446-3.609.1317c.5962.7157,1.2035,1.4574,1.8254,2.1867.3815.4473.4051.7332-.2251.9972a2.5492,2.5492,0,0,1-2.2259.23c-.7356-.34-.9664.2736-1.2829.771a11.9557,11.9557,0,0,1-.9081.9553,18.3682,18.3682,0,0,0-1.4387,1.9225c-.2478.4034-.2524.9509-.478,1.3742a8.8375,8.8375,0,0,1-1.0817,1.5817,14.2276,14.2276,0,0,1-1.1112.9309c-1.17,1.1063-1.2229,1.7307-.49,3.1888a8.1656,8.1656,0,0,1,.4192,1.7577c-1.229-.1394-1.44-.9909-1.7738-1.6382a2.2494,2.2494,0,0,0-1.754-1.4187,2.0479,2.0479,0,0,0-1.3.0959c-1.0955.8344-2.3842.7774-3.62,1.01a1.7439,1.7439,0,0,0-.9307.57,6.179,6.179,0,0,0-1.6756,3.9231c-.0328,2.4371,1.7571,2.9381,3.5844,2.3424a1.329,1.329,0,0,0,.648-.7022,2.34,2.34,0,0,1,2.3954-1.3293,9.265,9.265,0,0,1-.8252,2.2972c-.512.73-.13.9585.3947,1.11a3.7945,3.7945,0,0,0,1.5069.1025c.6326-.0824.7535.2137.7307.7182a9.3979,9.3979,0,0,0-.0629,1.1679c.0771.952.5241,1.302,1.4951,1.17,1.4457-.197,2.9635-.1981,3.9091-1.648a1.7356,1.7356,0,0,1,2.2021-.5957c1.3108.5558,2.3592-.062,3.5249-.4592a2.2459,2.2459,0,0,0,2.3495,1.94c.3154-.0047.7259.6545.9453,1.0834.449.8773,1.0429,1.0857,2.0821.3826C130.0987,88.07,130.1109,88.9584,130.02,89.8366Z"/><circle class="cls-2" cx="107.259" cy="17.4764" r="5.9811"/><circle class="cls-2" cx="107.259" cy="138.819" r="5.9811"/><path class="cls-1" d="M9.2485,211.8947H12.94V181.5368c0-5.9977,2.3068-9.7809,10.2423-9.7809,8.0277,0,9.8732,4.2446,9.8732,12.2723v27.7742h3.6909V183.0132c0-6.1823,2.3069-11.1651,10.3346-11.1651s9.8732,3.1373,9.8732,12.2723v27.7743h3.691V184.12c0-10.15-2.6759-15.6864-13.1028-15.6864-4.7059,0-8.766.9227-12.3646,6.2746-1.5686-3.6909-5.1673-6.2746-11.5342-6.2746-4.7059,0-8.3045,1.2-10.5191,4.2446l-.3691-3.4141H9.2485Z"/><path class="cls-1" d="M83.7049,168.5263c-9.2273,0-13.5641,3.8755-13.5641,15.9632v11.7187c-.0923,12.5492,4.2446,16.1478,13.5641,16.1478,9.2273,0,13.5642-4.1522,13.5642-16.0555V184.7664C97.2691,172.125,92.9322,168.5263,83.7049,168.5263Zm9.8733,27.59c0,9.0428-2.03,12.9183-9.8733,12.9183-8.3968,0-9.8732-3.7832-9.8732-13.0105v-11.35c0-9.0427,1.9378-12.6414,9.8732-12.6414,8.3969,0,9.8733,3.5063,9.8733,12.7337Z"/><path class="cls-1" d="M193.5782,168.5263c-9.2273,0-13.5641,3.8755-13.5641,15.9632v11.7187c-.0923,12.5492,4.2446,16.1478,13.5641,16.1478,9.2273,0,13.5642-4.1522,13.5642-16.0555V184.7664C207.1424,172.125,202.8055,168.5263,193.5782,168.5263Zm9.8733,27.59c0,9.0428-2.03,12.9183-9.8733,12.9183-8.3968,0-9.8732-3.7832-9.8732-13.0105v-11.35c0-9.0427,1.9378-12.6414,9.8732-12.6414,8.3969,0,9.8733,3.5063,9.8733,12.7337Z"/><path class="cls-1" d="M106.3961,169.2645v42.63h3.6909V181.9059c0-4.89,2.5837-10.2423,10.2424-10.2423s9.8732,2.8605,9.8732,12.3646v27.7742h3.6909V184.0282c0-11.0728-3.045-15.5942-13.1028-15.5942-5.26,0-8.7659,2.2146-10.7959,5.3519l-.2768-4.5214Z"/><path class="cls-1" d="M166.827,132.8379v38.7137c-2.2352-2.1986-5.4978-3.0253-9.8732-3.0253-9.2273,0-13.5641,3.8754-13.5641,15.9632v11.7187c-.0923,12.5491,4.2445,16.1478,13.5641,16.1478,9.2273,0,13.5642-4.1523,13.5642-16.0555V132.8379Zm0,63.278c0,9.0428-2.03,12.9183-9.8732,12.9183-8.3968,0-9.8732-3.7832-9.8732-13.0105v-11.35c0-9.0428,1.9377-12.6414,9.8732-12.6414,8.3969,0,9.8732,3.5063,9.8732,12.7337v11.35Z"/><text class="cls-3" transform="translate(2.6027 227.198) scale(0.947 1)">THE WORLD’S DISEASE CONCE<tspan class="cls-4" x="155.5081" y="0">P</tspan><tspan x="161.8347" y="0">TS, UNIFIED</tspan></text></svg>