<svg id="Layer_1" data-name="Layer 1" xmlns="http://www.w3.org/2000/svg" viewBox="0 0 373.67 155"><defs><style>.cls-1,.cls-3{fill:#828385;}.cls-2{fill:#9d9ea1;}.cls-3{font-size:12.58px;font-family:AppleSDGothicNeo-UltraLight-KSCpc-EUC-H, Apple SD Gothic Neo;letter-spacing:-0.02em;}.cls-4{letter-spacing:-0.03em;}</style></defs><title>mondo_logo</title><path class="cls-1" d="M62.08,138.82a15.91,15.91,0,0,1,3.15-9.51A52.74,52.74,0,0,1,65.11,27a15.85,15.85,0,0,1-2.24-14.9A67.76,67.76,0,0,0,63,144.22,16.09,16.09,0,0,1,62.08,138.82Z"/><path class="cls-1" d="M92.93,12A15.84,15.84,0,0,1,90.77,27a52.74,52.74,0,0,1,.12,102.36,15.81,15.81,0,0,1,2.2,14.91A67.76,67.76,0,0,0,92.93,12Z"/><rect class="cls-2" x="75.09" y="110.4" width="5.64" height="25.96"/><rect class="cls-2" x="75.09" y="14.76" width="5.64" height="25.96"/><path class="cls-1" d="M166.79,82.94h3.7V52.58c0-6,2.3-9.78,10.24-9.78s9.87,4.25,9.87,12.28V82.85h3.69V54.06c0-6.18,2.31-11.16,10.34-11.16S214.5,46,214.5,55.17V82.94h3.69V55.17c0-10.15-2.67-15.69-13.1-15.69-4.71,0-8.77.92-12.37,6.28-1.57-3.7-5.16-6.28-11.53-6.28-4.71,0-8.31,1.2-10.52,4.25l-.37-3.42h-3.51Z"/><path class="cls-1" d="M240.8,39.57c-9.23,0-13.57,3.88-13.57,16V67.26c-.09,12.54,4.25,16.14,13.57,16.14s13.56-4.15,13.56-16.05V55.81C254.36,43.17,250,39.57,240.8,39.57Zm9.87,27.59c0,9-2,12.92-9.87,12.92-8.4,0-9.88-3.78-9.88-13V55.72c0-9,1.94-12.64,9.88-12.64,8.39,0,9.87,3.51,9.87,12.73Z"/><path class="cls-1" d="M313.46,39.57c-9.22,0-13.56,3.88-13.56,16V67.26c-.09,12.54,4.24,16.14,13.56,16.14S327,79.25,327,67.35V55.81C327,43.17,322.69,39.57,313.46,39.57Zm9.88,27.59c0,9-2,12.92-9.88,12.92-8.39,0-9.87-3.78-9.87-13V55.72c0-9,1.94-12.64,9.87-12.64,8.4,0,9.88,3.51,9.88,12.73Z"/><path class="cls-1" d="M351.25,39.57c-9.23,0-13.56,3.88-13.56,16V67.26c-.1,12.54,4.24,16.14,13.56,16.14s13.56-4.15,13.56-16.05V55.81C364.81,43.17,360.48,39.57,351.25,39.57Zm9.87,27.59c0,9-2,12.92-9.87,12.92-8.4,0-9.87-3.78-9.87-13V55.72c0-9,1.93-12.64,9.87-12.64,8.4,0,9.87,3.51,9.87,12.73Z"/><path class="cls-1" d="M263.77,40.31V82.94h3.69V53c0-4.89,2.59-10.24,10.25-10.24s9.87,2.86,9.87,12.37V82.85h3.69V55.08c0-11.08-3-15.6-13.1-15.6-5.26,0-8.77,2.22-10.8,5.35l-.27-4.52Z"/><path class="cls-2" d="M74.22,40.9a37.43,37.43,0,1,0,40.94,33.55A37.44,37.44,0,0,0,74.22,40.9Zm26.45,48.94c-.13,1.35-.3,2.7-.55,4a8.06,8.06,0,0,1-.67,1.85c-.82,1.79-1.67,3.57-2.5,5.36,0,.08,0,.2-.08.26-1.23,1.44-2.17,3.13-3.79,4.26a8.05,8.05,0,0,0-1.48,1.89,4.81,4.81,0,0,1-.42.56c-.46.49-.46.56.17,1a2.09,2.09,0,0,1-2.5-.25c-.11-.11-.25-.34-.21-.45.42-1.1.88-2.18,1.33-3.26a3.18,3.18,0,0,0,.23-.58c.18-1.06.32-2.13.52-3.2.37-2,.08-2.6-1.8-3.18a4.61,4.61,0,0,1-2.28-1.77,3.41,3.41,0,0,1-.82-3.55A8.9,8.9,0,0,1,87,90a3.34,3.34,0,0,0,.39-2c0-.6-.77-.62-1.38-.64-.9,0-2.13-.13-2.64-.71-1.89-2.16-4.44-2.32-6.94-2.8a17.47,17.47,0,0,1-3.79-1.14A3.6,3.6,0,0,1,71.33,81a25.2,25.2,0,0,0-3.72-5.25l-.28.14,1.85,3.78L69,79.9c-.2-.08-.46-.11-.59-.26a9.26,9.26,0,0,1-1.72-2.87c-.63-1.49-.53-3.49-2.46-4.26a.82.82,0,0,1-.38-.47,10.54,10.54,0,0,1-.08-7.3c.33-.8.43-1.69.7-2.51s-.07-1.24-.75-1.56a2.28,2.28,0,0,1-.44-.31,1.79,1.79,0,0,0,.17-2.61c-.12-.14-.46-.08-.76-.13l.64-.54A9.69,9.69,0,0,0,62.65,54c-.46-.78-1.5-1.22-2.32-1.84a7.21,7.21,0,0,1-1.64,1.2c-1.78.64-2.58,2.33-3.89,3.46a3.18,3.18,0,0,1-.94.69l1.67-2.15-.18-.19-.61.16c-.55-.57-.35-2,.5-2.92.69-.71,1.54-1.26,2.28-2.07l-.8.08a1.83,1.83,0,0,1,1.83-1.69c.23,0,.73-.22.73-.36,0-1.23,1-1.45,1.85-1.85a13,13,0,0,1,8.33-.85,3.67,3.67,0,0,0,1.86-.27,6.71,6.71,0,0,1,4.65.28,3.85,3.85,0,0,0,1.77.16l-.53-.46.62-.56-2.37-.44c.6-.21,1-.39,1.43-.49a3.67,3.67,0,0,1,3,.23c.43.26,1.16,0,1.75,0,.4,0,.79-.1,1.15-.15,0,.75-.07,1.34-.12,2.14l-1.85.16c1.21,1.18,3.32.85,3.84-.52.07-.19-.08-.46-.12-.69-.11-.68.24-1.08.91-1s1.39.29,2.08.44c-.38.31-.86.51-1,.85a2.77,2.77,0,0,0,.07,1.19l1.42,1.17.87-.83c-.14-.12-.18-.19-.23-.2-.69-.14-1.15-.66-1-1.24s.86-.59,1.53-.55c1.89.12,2.85,1.58,4.17,2.57s1.28,2.44,2.25,3.45c.14.14-.06.61-.13,1.12l-.77-.88-.19.1a5.14,5.14,0,0,1,.33.9,3.68,3.68,0,0,1-.06.87c-.29,0-.64,0-.86-.12-.39-.26-.68-.69-1.05-1s-1-.68-1.48-1c-.21-.15-.41-.32-.75-.59.6,0,1.09.09,1.35-.1.81-.61.82-1,.07-1.73s-1.31-1-2.06-1.64c-.47,1.93-.47,1.93-2,2.15l1.94,1.82A10.49,10.49,0,0,1,88,50.53c-.15-.05-.08-.74-.13-1.33a4.31,4.31,0,0,0-1.18.42,19.2,19.2,0,0,0-2.48,2,1.83,1.83,0,0,0,.43,3.09c.74.41,1.45.86,2.17,1.31A2.41,2.41,0,0,1,88,57.89a4.84,4.84,0,0,0,.58,1.25c.21-.38.34-.52.35-.67A3.61,3.61,0,0,1,90.2,56a.64.64,0,0,0,0-1.13.69.69,0,0,1-.22-.6c.19-.76.45-1.5.71-2.3,1,0,1.77.93,2.64,1.61.1.08.07.32.13.48.16.42.34.83.51,1.24L95,54.74l2.55,6.14L94,61c.6.72,1.21,1.46,1.83,2.19.38.45.41.73-.23,1a2.58,2.58,0,0,1-2.22.23c-.74-.34-1,.27-1.28.77s-.64.61-.91,1a17.8,17.8,0,0,0-1.44,1.92c-.25.41-.25,1-.48,1.38A9,9,0,0,1,88.15,71,14.37,14.37,0,0,1,87,72c-1.17,1.11-1.22,1.73-.49,3.19A8.43,8.43,0,0,1,87,76.91c-1.23-.14-1.44-1-1.78-1.64a2.24,2.24,0,0,0-1.75-1.42c-.43,0-1-.13-1.3.1-1.1.83-2.39.77-3.62,1a1.69,1.69,0,0,0-.93.57,6.16,6.16,0,0,0-1.68,3.92c0,2.44,1.76,2.94,3.59,2.34a1.32,1.32,0,0,0,.65-.7,2.34,2.34,0,0,1,2.39-1.33,9.4,9.4,0,0,1-.82,2.3c-.52.73-.13,1,.39,1.11a3.66,3.66,0,0,0,1.51.1c.63-.08.75.22.73.72a7.65,7.65,0,0,0-.06,1.17c.07,1,.52,1.3,1.49,1.17,1.45-.2,3-.2,3.91-1.65a1.74,1.74,0,0,1,2.2-.6c1.31.56,2.36-.06,3.53-.46a2.23,2.23,0,0,0,2.35,1.94c.31,0,.72.66.94,1.09.45.88,1,1.08,2.08.38C100.75,88.07,100.77,89,100.67,89.84Z"/><circle class="cls-2" cx="77.91" cy="17.48" r="5.98"/><circle class="cls-2" cx="77.91" cy="138.82" r="5.98"/><rect class="cls-1" x="323.34" y="3.89" width="3.69" height="61.64"/><text class="cls-3" transform="translate(165.33 111.32) scale(0.95 1)">MONA<tspan class="cls-4" x="32.75" y="0">R</tspan><tspan x="39.46" y="0">CH MERGED DISEASE ONTOLOGY</tspan></text></svg>