<svg id="Layer_1" data-name="Layer 1" xmlns="http://www.w3.org/2000/svg" viewBox="0 0 220.47 241.33"><defs><style>.cls-1,.cls-3{fill:#828385;}.cls-2{fill:#9d9ea1;}.cls-3{font-size:12.58px;font-family:AppleSDGothicNeo-UltraLight-KSCpc-EUC-H, Apple SD Gothic Neo;letter-spacing:-0.02em;}.cls-4{letter-spacing:-0.03em;}</style></defs><title>mondo_logo</title><path class="cls-1" d="M91.27,138.82a15.92,15.92,0,0,1,3.16-9.51A52.74,52.74,0,0,1,94.3,27a15.79,15.79,0,0,1-2.23-14.9,67.76,67.76,0,0,0,.16,132.11A15.85,15.85,0,0,1,91.27,138.82Z"/><path class="cls-1" d="M122.13,12a16.08,16.08,0,0,1,1,5.44A15.87,15.87,0,0,1,120,27a52.74,52.74,0,0,1,.13,102.36,15.89,15.89,0,0,1,2.2,14.91A67.76,67.76,0,0,0,122.13,12Z"/><rect class="cls-2" x="104.44" y="110.4" width="5.64" height="25.96"/><rect class="cls-2" x="104.44" y="14.76" width="5.64" height="25.96"/><path class="cls-2" d="M103.56,40.9A37.43,37.43,0,1,0,144.5,74.45,37.44,37.44,0,0,0,103.56,40.9ZM130,89.84c-.14,1.35-.31,2.7-.55,4a8.1,8.1,0,0,1-.68,1.85c-.81,1.79-1.66,3.57-2.5,5.36,0,.08,0,.2-.08.26-1.23,1.44-2.16,3.13-3.79,4.26A8,8,0,0,0,121,107.5a4,4,0,0,1-.43.56c-.46.49-.45.56.17,1a2.08,2.08,0,0,1-2.49-.25c-.12-.11-.26-.34-.21-.45.42-1.1.87-2.18,1.32-3.26a2.6,2.6,0,0,0,.23-.58c.19-1.06.33-2.13.53-3.2.36-2,.07-2.6-1.8-3.18A4.68,4.68,0,0,1,116,96.34a3.4,3.4,0,0,1-.81-3.55,8.65,8.65,0,0,1,1.2-2.84,3.42,3.42,0,0,0,.4-2c0-.6-.78-.62-1.38-.64-.91,0-2.14-.13-2.65-.71-1.89-2.16-4.43-2.32-6.94-2.8A17.81,17.81,0,0,1,102,82.63,3.58,3.58,0,0,1,100.68,81,25.25,25.25,0,0,0,97,75.79l-.27.14c.61,1.26,1.23,2.52,1.85,3.78l-.22.19a1.59,1.59,0,0,1-.59-.26A9.45,9.45,0,0,1,96,76.77c-.62-1.49-.53-3.49-2.45-4.26a.75.75,0,0,1-.38-.47,10.42,10.42,0,0,1-.08-7.3c.32-.8.42-1.69.7-2.51S93.71,61,93,60.67a2.28,2.28,0,0,1-.44-.31,1.79,1.79,0,0,0,.18-2.61c-.12-.14-.47-.08-.77-.13l.65-.54A10.26,10.26,0,0,0,92,54c-.46-.78-1.5-1.22-2.32-1.84A7.48,7.48,0,0,1,88,53.33c-1.78.64-2.57,2.33-3.89,3.46a3,3,0,0,1-.93.69c.55-.72,1.11-1.44,1.67-2.15l-.18-.19-.62.16c-.54-.57-.35-2,.5-2.92.69-.71,1.55-1.26,2.28-2.07l-.79.08A1.82,1.82,0,0,1,87.9,48.7c.23,0,.72-.22.72-.36,0-1.23,1-1.45,1.86-1.85a12.94,12.94,0,0,1,8.32-.85,3.65,3.65,0,0,0,1.86-.27,6.74,6.74,0,0,1,4.66.28,3.84,3.84,0,0,0,1.77.16l-.54-.46.62-.56-2.37-.44c.61-.21,1-.39,1.43-.49a3.69,3.69,0,0,1,3,.23c.42.26,1.16,0,1.75,0,.39,0,.78-.1,1.15-.15,0,.75-.08,1.34-.12,2.14l-1.85.16c1.21,1.18,3.32.85,3.84-.52.07-.19-.09-.46-.12-.69-.11-.68.24-1.08.9-1s1.39.29,2.09.44c-.38.31-.86.51-1,.85a2.77,2.77,0,0,0,.07,1.19l1.42,1.17.88-.83c-.14-.12-.18-.19-.23-.2-.69-.14-1.15-.66-1-1.24s.87-.59,1.53-.55c1.89.12,2.86,1.58,4.18,2.57s1.28,2.44,2.25,3.45c.13.14-.07.61-.14,1.12l-.76-.88-.2.1a4.44,4.44,0,0,1,.33.9,3.66,3.66,0,0,1,0,.87c-.29,0-.65,0-.86-.12-.4-.26-.68-.69-1.06-1s-1-.68-1.47-1c-.22-.15-.42-.32-.76-.59.61,0,1.09.09,1.35-.1.81-.61.83-1,.08-1.73s-1.31-1-2.07-1.64c-.46,1.93-.46,1.93-2,2.15l1.93,1.82a10.61,10.61,0,0,1-2.06-.29c-.15-.05-.08-.74-.13-1.33a4.42,4.42,0,0,0-1.18.42,20.67,20.67,0,0,0-2.48,2,1.83,1.83,0,0,0,.44,3.09c.73.41,1.45.86,2.16,1.31a2.38,2.38,0,0,1,1.15,1.87,4.94,4.94,0,0,0,.59,1.25,3.31,3.31,0,0,0,.35-.67,3.57,3.57,0,0,1,1.3-2.51.64.64,0,0,0,0-1.13.73.73,0,0,1-.23-.6c.2-.76.46-1.5.71-2.3,1,0,1.78.93,2.64,1.61.11.08.08.32.14.48.16.42.34.83.51,1.24l1.08-.52,2.55,6.14-3.61.13c.6.72,1.2,1.46,1.83,2.19.38.45.4.73-.23,1a2.61,2.61,0,0,1-2.23.23c-.73-.34-1,.27-1.28.77a11.56,11.56,0,0,1-.91,1,19.22,19.22,0,0,0-1.44,1.92c-.24.41-.25,1-.47,1.38A8.54,8.54,0,0,1,117.49,71a14.37,14.37,0,0,1-1.11.93c-1.17,1.11-1.22,1.73-.49,3.19a7.84,7.84,0,0,1,.42,1.76c-1.23-.14-1.44-1-1.77-1.64a2.24,2.24,0,0,0-1.76-1.42,2,2,0,0,0-1.3.1c-1.09.83-2.38.77-3.62,1a1.76,1.76,0,0,0-.93.57,6.2,6.2,0,0,0-1.67,3.92c0,2.44,1.76,2.94,3.58,2.34a1.28,1.28,0,0,0,.65-.7,2.36,2.36,0,0,1,2.4-1.33,9.84,9.84,0,0,1-.83,2.3c-.51.73-.13,1,.4,1.11a3.61,3.61,0,0,0,1.5.1c.64-.08.76.22.73.72a11.46,11.46,0,0,0-.06,1.17c.08,1,.52,1.3,1.5,1.17,1.44-.2,3-.2,3.9-1.65a1.75,1.75,0,0,1,2.21-.6c1.31.56,2.36-.06,3.52-.46.35,1.17.95,2,2.35,1.94.32,0,.73.66,1,1.09.45.88,1,1.08,2.08.38C130.1,88.07,130.11,89,130,89.84Z"/><circle class="cls-2" cx="107.26" cy="17.48" r="5.98"/><circle class="cls-2" cx="107.26" cy="138.82" r="5.98"/><path class="cls-1" d="M9.25,211.89h3.69V181.54c0-6,2.31-9.78,10.24-9.78S33.06,176,33.06,184V211.8h3.69V183c0-6.18,2.3-11.16,10.33-11.16S57,175,57,184.12v27.77h3.69V184.12c0-10.15-2.67-15.69-13.1-15.69-4.7,0-8.76.93-12.36,6.28-1.57-3.69-5.17-6.28-11.54-6.28-4.7,0-8.3,1.2-10.52,4.25l-.37-3.42H9.25Z"/><path class="cls-1" d="M83.7,168.53c-9.22,0-13.56,3.87-13.56,16v11.72c-.09,12.55,4.25,16.15,13.56,16.15s13.57-4.16,13.57-16.06V184.77C97.27,172.12,92.93,168.53,83.7,168.53Zm9.88,27.59c0,9-2,12.91-9.88,12.91-8.39,0-9.87-3.78-9.87-13V184.67c0-9,1.94-12.64,9.87-12.64,8.4,0,9.88,3.51,9.88,12.74Z"/><path class="cls-1" d="M193.58,168.53c-9.23,0-13.57,3.87-13.57,16v11.72c-.09,12.55,4.25,16.15,13.57,16.15s13.56-4.16,13.56-16.06V184.77C207.14,172.12,202.81,168.53,193.58,168.53Zm9.87,27.59c0,9-2,12.91-9.87,12.91-8.4,0-9.87-3.78-9.87-13V184.67c0-9,1.93-12.64,9.87-12.64,8.4,0,9.87,3.51,9.87,12.74Z"/><path class="cls-1" d="M106.4,169.26v42.63h3.69v-30c0-4.89,2.58-10.25,10.24-10.25s9.87,2.86,9.87,12.37V211.8h3.69V184c0-11.07-3-15.6-13.1-15.6-5.26,0-8.77,2.22-10.8,5.36l-.27-4.53Z"/><path class="cls-1" d="M166.83,132.84v38.71c-2.24-2.2-5.5-3-9.88-3-9.22,0-13.56,3.87-13.56,16v11.72c-.09,12.55,4.24,16.15,13.56,16.15s13.57-4.16,13.57-16.06V132.84Zm0,63.28c0,9-2,12.91-9.88,12.91-8.39,0-9.87-3.78-9.87-13V184.67c0-9,1.94-12.64,9.87-12.64,8.4,0,9.88,3.51,9.88,12.74v11.35Z"/><text class="cls-3" transform="translate(8.25 229.86) scale(0.95 1)">MONA<tspan class="cls-4" x="32.75" y="0">R</tspan><tspan x="39.46" y="0">CH MERGED DISEASE ONTOLOGY</tspan></text></svg>