<svg id="Layer_1" data-name="Layer 1" xmlns="http://www.w3.org/2000/svg" viewBox="0 0 220.47 226.08"><defs><style>.cls-1,.cls-2{fill:#fff;}.cls-2{font-size:12.58px;font-family:AppleSDGothicNeo-UltraLight-KSCpc-EUC-H, Apple SD Gothic Neo;letter-spacing:-0.02em;}.cls-3{letter-spacing:-0.03em;}</style></defs><title>mondo_logo</title><path class="cls-1" d="M16.79,211.89h3.69V181.54c0-6,2.31-9.78,10.24-9.78S40.6,176,40.6,184V211.8h3.69V183c0-6.18,2.31-11.16,10.33-11.16S64.5,175,64.5,184.12v27.77h3.69V184.12c0-10.15-2.68-15.69-13.11-15.69-4.7,0-8.76.93-12.36,6.28-1.57-3.69-5.17-6.28-11.53-6.28-4.71,0-8.31,1.2-10.52,4.25l-.37-3.42H16.79Z"/><path class="cls-1" d="M86.79,168.53c-9.22,0-13.56,3.87-13.56,16v11.72c-.09,12.55,4.24,16.15,13.56,16.15s13.57-4.16,13.57-16.06V184.77C100.36,172.12,96,168.53,86.79,168.53Zm9.88,27.59c0,9-2,12.91-9.88,12.91-8.39,0-9.87-3.78-9.87-13V184.67c0-9,1.94-12.64,9.87-12.64,8.4,0,9.88,3.51,9.88,12.74Z"/><path class="cls-1" d="M151.46,168.53c-9.23,0-13.56,3.87-13.56,16v11.72c-.1,12.55,4.24,16.15,13.56,16.15S165,208.2,165,196.3V184.77C165,172.12,160.69,168.53,151.46,168.53Zm9.87,27.59c0,9-2,12.91-9.87,12.91-8.4,0-9.87-3.78-9.87-13V184.67c0-9,1.93-12.64,9.87-12.64,8.4,0,9.87,3.51,9.87,12.74Z"/><path class="cls-1" d="M183.25,168.53c-9.23,0-13.57,3.87-13.57,16v11.72c-.09,12.55,4.25,16.15,13.57,16.15s13.56-4.16,13.56-16.06V184.77C196.81,172.12,192.47,168.53,183.25,168.53Zm9.87,27.59c0,9-2,12.91-9.87,12.91-8.4,0-9.88-3.78-9.88-13V184.67c0-9,1.94-12.64,9.88-12.64,8.39,0,9.87,3.51,9.87,12.74Z"/><path class="cls-1" d="M105.77,169.26v42.63h3.69v-30c0-4.89,2.58-10.25,10.24-10.25s9.88,2.86,9.88,12.37V211.8h3.69V184c0-11.07-3.05-15.6-13.11-15.6-5.25,0-8.76,2.22-10.79,5.36l-.28-4.53Z"/><rect class="cls-1" x="161.33" y="132.84" width="3.69" height="61.64"/><path class="cls-1" d="M90.82,138.82A15.91,15.91,0,0,1,94,129.31,52.74,52.74,0,0,1,93.85,27a15.85,15.85,0,0,1-2.24-14.9,67.76,67.76,0,0,0,.16,132.11A15.84,15.84,0,0,1,90.82,138.82Z"/><path class="cls-1" d="M121.67,12A15.84,15.84,0,0,1,119.51,27a52.74,52.74,0,0,1,.12,102.36,15.81,15.81,0,0,1,2.2,14.91A67.76,67.76,0,0,0,121.67,12Z"/><rect class="cls-1" x="103.98" y="110.4" width="5.64" height="25.96"/><rect class="cls-1" x="103.98" y="14.76" width="5.64" height="25.96"/><path class="cls-1" d="M103.1,40.9a37.43,37.43,0,1,0,41,33.55A37.43,37.43,0,0,0,103.1,40.9Zm26.46,48.94c-.14,1.35-.3,2.7-.55,4a8.56,8.56,0,0,1-.67,1.85c-.82,1.79-1.67,3.57-2.51,5.36,0,.08,0,.2-.08.26-1.23,1.44-2.16,3.13-3.79,4.26a8,8,0,0,0-1.47,1.89,4.81,4.81,0,0,1-.42.56c-.47.49-.46.56.16,1a2.08,2.08,0,0,1-2.49-.25c-.12-.11-.26-.34-.21-.45.42-1.1.88-2.18,1.32-3.26a2.6,2.6,0,0,0,.23-.58c.19-1.06.33-2.13.53-3.2.37-2,.07-2.6-1.8-3.18a4.68,4.68,0,0,1-2.29-1.77,3.42,3.42,0,0,1-.81-3.55A8.9,8.9,0,0,1,115.92,90a3.41,3.41,0,0,0,.39-2c0-.6-.77-.62-1.38-.64-.91,0-2.14-.13-2.64-.71-1.89-2.16-4.44-2.32-7-2.8a17.81,17.81,0,0,1-3.79-1.14A3.58,3.58,0,0,1,100.22,81a25.25,25.25,0,0,0-3.73-5.25l-.27.14,1.85,3.78-.21.19c-.2-.08-.46-.11-.6-.26a9.45,9.45,0,0,1-1.72-2.87c-.62-1.49-.53-3.49-2.45-4.26a.79.79,0,0,1-.38-.47,10.42,10.42,0,0,1-.08-7.3c.32-.8.43-1.69.7-2.51s-.08-1.24-.76-1.56a2.63,2.63,0,0,1-.44-.31,1.79,1.79,0,0,0,.18-2.61c-.12-.14-.47-.08-.77-.13l.65-.54A10.26,10.26,0,0,0,91.54,54c-.46-.78-1.5-1.22-2.32-1.84a7.21,7.21,0,0,1-1.64,1.2c-1.78.64-2.58,2.33-3.9,3.46a3,3,0,0,1-.93.69c.56-.72,1.11-1.44,1.67-2.15l-.18-.19-.62.16c-.54-.57-.35-2,.51-2.92.68-.71,1.54-1.26,2.27-2.07l-.79.08a1.83,1.83,0,0,1,1.83-1.69c.23,0,.72-.22.73-.36,0-1.23,1-1.45,1.85-1.85a12.94,12.94,0,0,1,8.32-.85,3.7,3.7,0,0,0,1.87-.27,6.71,6.71,0,0,1,4.65.28,3.84,3.84,0,0,0,1.77.16l-.54-.46.63-.56-2.38-.44c.61-.21,1-.39,1.44-.49a3.67,3.67,0,0,1,3,.23c.42.26,1.16,0,1.75,0,.4,0,.79-.1,1.15-.15,0,.75-.08,1.34-.12,2.14l-1.85.16c1.21,1.18,3.32.85,3.84-.52.07-.19-.08-.46-.12-.69-.11-.68.24-1.08.91-1s1.38.29,2.08.44c-.38.31-.86.51-1,.85a2.63,2.63,0,0,0,.06,1.19L117,47.72l.87-.83c-.14-.12-.18-.19-.23-.2-.69-.14-1.15-.66-1-1.24s.87-.59,1.53-.55c1.89.12,2.86,1.58,4.18,2.57s1.28,2.44,2.25,3.45c.14.14-.07.61-.14,1.12l-.76-.88-.2.1a4.44,4.44,0,0,1,.33.9,3.66,3.66,0,0,1,0,.87c-.29,0-.65,0-.86-.12-.39-.26-.68-.69-1.06-1s-1-.68-1.47-1c-.22-.15-.42-.32-.75-.59.6,0,1.09.09,1.34-.1.82-.61.83-1,.08-1.73s-1.31-1-2.07-1.64c-.46,1.93-.46,1.93-2,2.15L119,50.82a10.49,10.49,0,0,1-2-.29c-.15-.05-.09-.74-.13-1.33a4.36,4.36,0,0,0-1.19.42,20.67,20.67,0,0,0-2.48,2,1.83,1.83,0,0,0,.44,3.09c.74.41,1.45.86,2.16,1.31a2.38,2.38,0,0,1,1.15,1.87,4.94,4.94,0,0,0,.59,1.25,2.83,2.83,0,0,0,.35-.67,3.57,3.57,0,0,1,1.3-2.51.64.64,0,0,0,0-1.13.73.73,0,0,1-.23-.6c.2-.76.46-1.5.71-2.3,1,0,1.78.93,2.64,1.61.11.08.08.32.14.48.16.42.34.83.51,1.24l1.08-.52,2.55,6.14-3.61.13c.6.72,1.2,1.46,1.83,2.19.38.45.4.73-.23,1a2.59,2.59,0,0,1-2.22.23c-.74-.34-1,.27-1.29.77a11.56,11.56,0,0,1-.91,1,17.71,17.71,0,0,0-1.43,1.92c-.25.41-.26,1-.48,1.38A9,9,0,0,1,117,71a14.37,14.37,0,0,1-1.11.93c-1.18,1.11-1.23,1.73-.5,3.19a7.84,7.84,0,0,1,.42,1.76c-1.22-.14-1.44-1-1.77-1.64a2.24,2.24,0,0,0-1.75-1.42c-.44,0-1-.13-1.3.1-1.1.83-2.39.77-3.62,1a1.69,1.69,0,0,0-.93.57,6.16,6.16,0,0,0-1.68,3.92c0,2.44,1.76,2.94,3.58,2.34a1.28,1.28,0,0,0,.65-.7,2.36,2.36,0,0,1,2.4-1.33,9,9,0,0,1-.83,2.3c-.51.73-.13,1,.4,1.11a3.61,3.61,0,0,0,1.5.1c.64-.08.76.22.73.72a11.46,11.46,0,0,0-.06,1.17c.08,1,.53,1.3,1.5,1.17,1.44-.2,3-.2,3.91-1.65a1.73,1.73,0,0,1,2.2-.6c1.31.56,2.36-.06,3.52-.46.35,1.17,1,2,2.35,1.94.32,0,.73.66.95,1.09.45.88,1,1.08,2.08.38C129.64,88.07,129.65,89,129.56,89.84Z"/><circle class="cls-1" cx="106.8" cy="17.48" r="5.98"/><circle class="cls-1" cx="106.8" cy="138.82" r="5.98"/><path class="cls-1" d="M9.25,202.19h3.69V171.83c0-6,2.31-9.78,10.24-9.78s9.88,4.24,9.88,12.27v27.77h3.69V173.3c0-6.18,2.3-11.16,10.33-11.16S57,165.28,57,174.41v27.78h3.69V174.41c0-10.15-2.67-15.68-13.1-15.68-4.7,0-8.76.92-12.36,6.27-1.57-3.69-5.17-6.27-11.54-6.27-4.7,0-8.3,1.2-10.52,4.24l-.37-3.41H9.25Z"/><path class="cls-1" d="M83.7,158.82c-9.22,0-13.56,3.87-13.56,16V186.5c-.09,12.55,4.25,16.15,13.56,16.15s13.57-4.15,13.57-16.06V175.06C97.27,162.42,92.93,158.82,83.7,158.82Zm9.88,27.59c0,9-2,12.92-9.88,12.92-8.39,0-9.87-3.79-9.87-13V175c0-9.05,1.94-12.65,9.87-12.65,8.4,0,9.88,3.51,9.88,12.74Z"/><path class="cls-1" d="M193.58,158.82c-9.23,0-13.57,3.87-13.57,16V186.5c-.09,12.55,4.25,16.15,13.57,16.15s13.56-4.15,13.56-16.06V175.06C207.14,162.42,202.81,158.82,193.58,158.82Zm9.87,27.59c0,9-2,12.92-9.87,12.92-8.4,0-9.87-3.79-9.87-13V175c0-9.05,1.93-12.65,9.87-12.65,8.4,0,9.87,3.51,9.87,12.74Z"/><path class="cls-1" d="M106.4,159.56v42.63h3.69v-30c0-4.89,2.58-10.24,10.24-10.24s9.87,2.86,9.87,12.36v27.77h3.69V174.32c0-11.07-3-15.59-13.1-15.59-5.26,0-8.77,2.21-10.8,5.35l-.27-4.52Z"/><path class="cls-1" d="M166.83,123.13v38.71c-2.24-2.2-5.5-3-9.88-3-9.22,0-13.56,3.87-13.56,16V186.5c-.09,12.55,4.24,16.15,13.56,16.15s13.57-4.15,13.57-16.06V123.13Zm0,63.28c0,9-2,12.92-9.88,12.92-8.39,0-9.87-3.79-9.87-13V175c0-9.05,1.94-12.65,9.87-12.65,8.4,0,9.88,3.51,9.88,12.74v11.35Z"/><text class="cls-2" transform="translate(8.25 220.16) scale(0.95 1)">MONA<tspan class="cls-3" x="32.75" y="0">R</tspan><tspan x="39.46" y="0">CH MERGED DISEASE ONTOLOGY</tspan></text></svg>