<svg id="Layer_1" data-name="Layer 1" xmlns="http://www.w3.org/2000/svg" viewBox="0 0 373.6667 155"><defs><style>.cls-1,.cls-3{fill:#231f20;}.cls-2{fill:#fff;stroke:#231f20;stroke-width:0.25px;}.cls-3{font-size:12.5787px;font-family:AppleSDGothicNeo-UltraLight-KSCpc-EUC-H, Apple SD Gothic Neo;letter-spacing:-0.021em;}.cls-4{letter-spacing:-0.026em;}.cls-5{letter-spacing:-0.0209em;}</style></defs><title>mondo_logo</title><path class="cls-1" d="M62.0782,138.819a15.8911,15.8911,0,0,1,3.1551-9.5058,52.7427,52.7427,0,0,1-.1251-102.2984,15.8441,15.8441,0,0,1-2.2369-14.9037,67.7586,67.7586,0,0,0,.1626,132.109A15.92,15.92,0,0,1,62.0782,138.819Z"/><path class="cls-1" d="M92.9314,12.0423A15.8427,15.8427,0,0,1,90.7684,26.95a52.7442,52.7442,0,0,1,.125,102.3634A15.8426,15.8426,0,0,1,93.0928,144.22a67.7556,67.7556,0,0,0-.1614-132.1778Z"/><rect class="cls-1" x="75.0943" y="110.3999" width="5.6393" height="25.9634"/><rect class="cls-1" x="75.0943" y="14.7564" width="5.6393" height="25.9634"/><circle class="cls-1" cx="77.914" cy="78.1477" r="37.4279" transform="translate(-19.4435 130.1012) rotate(-73.1718)"/><circle class="cls-1" cx="77.914" cy="17.4764" r="5.9811"/><circle class="cls-1" cx="77.914" cy="138.819" r="5.9811"/><path class="cls-1" d="M153.0382,88.434h3.9474V55.9672c0-6.4144,2.4671-10.46,10.9538-10.46,8.5855,0,10.5592,4.5394,10.5592,13.1248V88.3354h3.9473V57.5461c0-6.6118,2.4671-11.9407,11.0525-11.9407s10.5592,3.3552,10.5592,13.1249V88.434h3.9473V58.73c0-10.8552-2.8618-16.7762-14.013-16.7762-5.0329,0-9.375.9868-13.2236,6.7105-1.6776-3.9474-5.5263-6.7105-12.3354-6.7105-5.0329,0-8.8816,1.2829-11.25,4.54l-.3948-3.6513h-3.75Z"/><path class="cls-1" d="M232.1824,42.0528c-9.8684,0-14.5065,4.1447-14.5065,17.0722V71.6578c-.0987,13.4209,4.5395,17.27,14.5065,17.27,9.8683,0,14.5064-4.4407,14.5064-17.1709V59.4211C246.6888,45.9015,242.0507,42.0528,232.1824,42.0528Zm10.5591,29.5063c0,9.671-2.171,13.8157-10.5591,13.8157-8.98,0-10.5592-4.046-10.5592-13.9143V59.3224c0-9.6709,2.0724-13.52,10.5592-13.52,8.98,0,10.5591,3.75,10.5591,13.6183Z"/><path class="cls-1" d="M309.8963,42.0528c-9.8683,0-14.5064,4.1447-14.5064,17.0722V71.6578c-.0987,13.4209,4.5394,17.27,14.5064,17.27,9.8684,0,14.5065-4.4407,14.5065-17.1709V59.4211C324.4028,45.9015,319.7647,42.0528,309.8963,42.0528Zm10.5592,29.5063c0,9.671-2.1711,13.8157-10.5592,13.8157-8.98,0-10.5591-4.046-10.5591-13.9143V59.3224c0-9.6709,2.0724-13.52,10.5591-13.52,8.98,0,10.5592,3.75,10.5592,13.6183Z"/><path class="cls-1" d="M350.3072,42.0528c-9.8684,0-14.5064,4.1447-14.5064,17.0722V71.6578c-.0987,13.4209,4.5394,17.27,14.5064,17.27,9.8683,0,14.5065-4.4407,14.5065-17.1709V59.4211C364.8137,45.9015,360.1755,42.0528,350.3072,42.0528Zm10.5592,29.5063c0,9.671-2.1711,13.8157-10.5592,13.8157-8.98,0-10.5591-4.046-10.5591-13.9143V59.3224c0-9.6709,2.0723-13.52,10.5591-13.52,8.98,0,10.5592,3.75,10.5592,13.6183Z"/><path class="cls-1" d="M256.7545,42.8423V88.434h3.9474V56.3619c0-5.23,2.7631-10.9538,10.9538-10.9538s10.5592,3.0592,10.5592,13.2235V88.3354h3.9473V58.6316c0-11.842-3.2565-16.6775-14.013-16.6775-5.625,0-9.375,2.3684-11.546,5.7237l-.2961-4.8355Z"/><rect class="cls-1" x="320.4555" y="3.8851" width="3.9473" height="65.9187"/><path class="cls-2" d="M74.3385,42.4347a6.6367,6.6367,0,0,1,2.4768-.5485c.5573.0177,1.1146.08,1.6807.1151a11.62,11.62,0,0,1,3.7063.9818,8.7281,8.7281,0,0,0,1.5922.1327,15.6,15.6,0,0,1,3.0783.3185,6.7183,6.7183,0,0,1,1.38.5838,22.2767,22.2767,0,0,0,3.68,1.1764,5.0169,5.0169,0,0,1,2.5829,1.3976,8.5891,8.5891,0,0,0,2.008,1.7868A19.9182,19.9182,0,0,1,98.47,49.98a6.72,6.72,0,0,1,1.76,2.3972c.1946.4688.38,1.0349.8934,1.2384a7.2991,7.2991,0,0,1,1.8134,1.0084,11.708,11.708,0,0,1,1.8576,1.5037,2.7091,2.7091,0,0,1,.628.9731,4.4957,4.4957,0,0,0,1.0615,1.6718,1.2349,1.2349,0,0,1,.3981.743.4319.4319,0,0,1-.3362.4511c-.4776-.23-.92-.6634-1.4949-.5749a1.87,1.87,0,0,0,.1062.7961,2.0641,2.0641,0,0,0,.5838.6546,21.1759,21.1759,0,0,0,3.3259,2.7687c-.1327-.5485-.77-.8758-.7253-1.4773a9.5488,9.5488,0,0,1,1.8133-.0088,1.4568,1.4568,0,0,1,1.1411.513,3.9238,3.9238,0,0,1,.77,1.8046c.1769,1.0172.398,2.0256.5838,3.0428a.63.63,0,0,1-.3008.6723,1.4878,1.4878,0,0,1-1.7425.0266c-.6546-.5839-1.2827-1.1942-1.9372-1.778a2.5964,2.5964,0,0,1-.5838-1.0173,1.254,1.254,0,0,1-.0708-.6988,4.0864,4.0864,0,0,0,.7342-.115,5.56,5.56,0,0,0-1.2207-1.0968c-1.4772-1.0881-3.1756-1.9018-4.3786-3.3172-.3008-.3272-.4423-.7784-.8138-1.0437a3.7623,3.7623,0,0,0-2.4326-.54,3.41,3.41,0,0,0-2.2025.77c-.2742.2388-.3981.6015-.6457.858-.1858.23-.407.4246-.5927.6457-.23.2831-.1062.6811-.2477,1-.4511,1.0526-1.4153,1.7514-1.9549,2.751.0885.0707.1681.1415.2565.2122a4.64,4.64,0,0,1-1.4241.292,14.4028,14.4028,0,0,1-1.9549.0707c-.3538,0-.69-.1238-1.0526-.115-1.0261-.0176-1.9726.5308-3.0076.4954a1.9834,1.9834,0,0,1-1.2206-.3184,3.6208,3.6208,0,0,0-3.5825-.4158,1.3968,1.3968,0,0,1-.38.0442,1.5976,1.5976,0,0,0-.3273.4688c-.2919.5573-.8492.9731-.9464,1.6276-.0885.6546-.0354,1.318-.0885,1.9726a.7427.7427,0,0,1,.46.46,14.4922,14.4922,0,0,0,.3892,1.4772,4.6031,4.6031,0,0,0,1.9018,2.0788,12.8828,12.8828,0,0,0,2.0256.8845,2.6381,2.6381,0,0,0,1.15.3185c1.433-.0708,2.8748-.0974,4.3078-.0266A4.4815,4.4815,0,0,1,91.95,75.252a1.9722,1.9722,0,0,0-.2388,1.318c.0973.345.3538.6811.2211,1.0615a13.0073,13.0073,0,0,0-1.2561,2.4414,1.3046,1.3046,0,0,0,.3892,1.3711,3.2307,3.2307,0,0,0,1.76.7164c.54.0266,1.0438-.3007,1.5922-.2122.3185.0707.6812.3626.61.7253-.0531.3008-.3715.4158-.61.5573A2.1484,2.1484,0,0,0,93.1532,84.62a8.8816,8.8816,0,0,0,1.9461.5042c.4953.1592.7165.6722.92,1.0968.23.4954.6457,1.0084.4069,1.5745a15.1613,15.1613,0,0,0-1.0084,2.1761.535.535,0,0,0,.15.6015c.2742.1946.6192.3007.8226.5926.1769.2123.0619.5219.1946.7608a2.2342,2.2342,0,0,0,1.0438.9111c.7254.3449,1.46.6634,2.1937.9995.2212.0708.2654.3273.3538.5131.177.4157.31.92.7519,1.1145a1.5684,1.5684,0,0,0,1.1942-.2654,2.1268,2.1268,0,0,0,.0973.8227,5.2922,5.2922,0,0,1,.4865,1.4507,5.6173,5.6173,0,0,1-.4069,2.22c-.1946.61.2919,1.15.3007,1.7515a2.0158,2.0158,0,0,1-.6811,1.6629c-.6634.6016-1.3268,1.2031-1.9991,1.8046a11.3221,11.3221,0,0,1-4.4316,2.0964,5.3557,5.3557,0,0,0-1.9461,1.088,2.7017,2.7017,0,0,1-1.2737.575c-.84.1149-1.6984-.1239-2.53.0442a5.5784,5.5784,0,0,0-.8492.2653c-.0265.1327-.0531.2566-.08.3893a15.8854,15.8854,0,0,1-1.8134.31,12.067,12.067,0,0,1-1.7868-.1327c.0531-.3273.2035-.7077-.0177-1-.1946-.1769-.4776-.168-.7076-.2653a.7706.7706,0,0,1-.575-.7254,3.8618,3.8618,0,0,1,.3981-1.0172,1.9434,1.9434,0,0,0,.0265-.9023,4.4031,4.4031,0,0,1-3.0075.4246c-.7254-.2831-1.4065-.6811-2.123-1-.743-.3184-1.601-.1238-2.3352-.4953-.1858-.1062-.5219-.1858-.4954-.46a4.223,4.223,0,0,1,.6811-1.663c-.38.0443-.8226.1681-1.1587-.08-.3981-.2388-.4158-.743-.6635-1.0969a1.5656,1.5656,0,0,0-1.4241-.84,2.5706,2.5706,0,0,0-1.5391.3627c-.2212.1415-.08.4069.0353.5661.1858.2742.5485.4423.6016.7961-.0355.3538-.3981.54-.6989.61a1.6237,1.6237,0,0,1-1.4153-.1592c-.5307-.4423-.9022-1.035-1.4064-1.5126-.8492-.805-1.6188-1.6807-2.468-2.4857-.15-.1592-.3626-.2919-.3626-.5307a19.29,19.29,0,0,1-.115-2.0257,6.35,6.35,0,0,0-.115-2.0875,3.5538,3.5538,0,0,0-1.433-1.8222c-.5219-.3981-1.035-.7961-1.5568-1.1942-.2743-.23-.6546-.1327-.9908-.1681A4.0557,4.0557,0,0,1,61.91,89.98c-.5661-.1681-1.2738-.0088-1.7072-.4953-.1946-.3185-.1062-.7519-.3538-1.0615-.2477-.4158-.7873-.3273-1.1942-.38a.6.6,0,0,1-.5131-.7519,6.8941,6.8941,0,0,0,.345-1.84,8.795,8.795,0,0,1-.3361-1.3445c.0266-.4157.6723-.2742.7342-.6723a1.1306,1.1306,0,0,0-.2831-1.1941c-.4334-.2212-.9464-.0354-1.3976-.1946a1.5823,1.5823,0,0,1-.8934-.7077c-.0973-.2123.1327-.3892.3008-.4423a5.6437,5.6437,0,0,1,1.0172-.08,3.4909,3.4909,0,0,0,2.4945-1.203c.2123-.2388.0973-.5749.0088-.84a2.8862,2.8862,0,0,0-.8138-1.318,2.5,2.5,0,0,0-1.5126-.6192.818.818,0,0,1-.743-.6988c-.115-.3627.2565-.61.3273-.9377a3.8517,3.8517,0,0,0,.0354-2.3c-.2743-.7873-1.0527-1.2915-1.2738-2.1053A2.15,2.15,0,0,1,56.4,69.3431c.5307-1.46,1.1764-2.8836,1.778-4.3166a12.9635,12.9635,0,0,0,1.0349-2.9456c.0973-.5219-.0354-1.0527.0884-1.5746.0531-.3184.2831-.628.1593-.9641a1.0385,1.0385,0,0,0-.2389-.1327,12.2079,12.2079,0,0,0-2.1229-.7784c-.3185-.08-.7431-.177-.8492-.54,0-.31.2742-.5131.4511-.7431.0619-.3892.0354-.8491.3715-1.1234a10.9577,10.9577,0,0,0,1.3357-1.141,2.4943,2.4943,0,0,1,1.69-.5131c.38,0,.4777-.5573.8846-.4776a15.476,15.476,0,0,0,2.3972.2034,1.0075,1.0075,0,0,1,.5219.1858,2.7617,2.7617,0,0,0,.8846-1.0792c.0619-.1062.0972-.2477.2122-.31a2.4121,2.4121,0,0,1,1.9461-.3273,2.7946,2.7946,0,0,1,.973.7873,2.2556,2.2556,0,0,0,1.8664.5218,3.2,3.2,0,0,1,1.2827-.2919,2.8678,2.8678,0,0,1,1.5126.4158c.46.2388.7961.6546,1.2649.858a.9232.9232,0,0,0,1.0614-.7076,2.9784,2.9784,0,0,0-.1326-1.2738,3.41,3.41,0,0,0-.9465-1.6276c-.4688-.3981-1.1676-.2565-1.6188-.6811-.3007-.2742.0089-.7608-.283-1.0526a2.65,2.65,0,0,0-2.008-.77,4.9178,4.9178,0,0,0-2.6537.8492.6645.6645,0,0,1-.8226.0088A2.1943,2.1943,0,0,1,65.9,48.45a5.8606,5.8606,0,0,0,.9376-1.15c-.1327-.31-.4334-.7607-.0884-1.035a2.7018,2.7018,0,0,1,1.5037-.1149,1.5955,1.5955,0,0,1,.8138-1.548,12.8888,12.8888,0,0,1,2.4237-1.203c.9554-.3008,1.9018-.6369,2.8483-.9642Z"/><path class="cls-2" d="M75.515,44.6461a4.3652,4.3652,0,0,1,2.3618-.4865c1.4507.115,2.8925.2211,4.3432.345,1.4861.1592,2.9987-.062,4.4848.1592.1857.0442.4953.0884.4776.345-.0973.3361-.4865.5661-.4334.9553a1.1763,1.1763,0,0,0,.7872.7784c1.0261.0442,2.0434.0619,3.07.1062a2.1949,2.1949,0,0,0,1.3268.9995,5.3292,5.3292,0,0,0,.3185-.6369,3.2409,3.2409,0,0,1,1.23.5927,5.1141,5.1141,0,0,0,1.9637.7784c.3273.0531.6635.0089,1,.0442a10.3078,10.3078,0,0,1,1.1234.84,8.0019,8.0019,0,0,1,2.406,2.8925,2.3587,2.3587,0,0,0,.9642,1.433A9.82,9.82,0,0,1,103.6,55.3758a4.3157,4.3157,0,0,1,1.6365,1.9019,5.1879,5.1879,0,0,0,1.1765,1.7426.8854.8854,0,0,1,.23.7165c-.5219-.2212-.9995-.6635-1.5922-.5927a.567.567,0,0,0-.2211.5484,1.408,1.408,0,0,0,.4688,1.0527c.5661.5042,1.1146,1.0084,1.663,1.53a12.4308,12.4308,0,0,0,1.8222,1.4418,2.1265,2.1265,0,0,0,.5307.2654c.0885-.6812-.4953-1.1234-.7784-1.663.5484-.0354,1.088.0177,1.6276.0265a1.3725,1.3725,0,0,1,1.0792.6015,4.1949,4.1949,0,0,1,.61,1.61c.1681.92.3538,1.8311.5307,2.7422a.6815.6815,0,0,1-.0176.4953,1.2649,1.2649,0,0,1-1.0527.4158,1.242,1.242,0,0,1-.8315-.4334c-.54-.4954-1.07-.9908-1.61-1.4861a2.1627,2.1627,0,0,1-.6722-1.4065c.23-.0354.5395.0266.6811-.2123.1327-.2034-.0973-.4157-.2212-.5572-1.6187-1.5126-3.7859-2.3441-5.272-4.016-.345-.3715-.513-.8845-.9465-1.1764a3.9746,3.9746,0,0,0-2.5387-.5661,3.681,3.681,0,0,0-2.3706.8226c-.31.2653-.4334.6723-.7076.9642a4.39,4.39,0,0,0-.6281.7165c-.1592.31-.08.6811-.2388.9907a15.55,15.55,0,0,1-1.6541,2.2379,2.0263,2.0263,0,0,0-.31.6723,10.9422,10.9422,0,0,1-3.2641.1327c-1.4153-.3715-2.7333.6811-4.1486.398-.4954-.0707-.84-.46-1.2826-.6369a3.9859,3.9859,0,0,0-2.8925-.1415,6.96,6.96,0,0,1,.3449-1.1057c.0974-.2211.292-.398.3892-.6192a.8823.8823,0,0,0-1.0172-1.1942,1.4369,1.4369,0,0,1-1.07-.3892,2.0271,2.0271,0,0,1-.4246-1c-.3008.08-.7077.1238-.8138.4688a2.4709,2.4709,0,0,0,.23,1.0969,12.1732,12.1732,0,0,1,.9642,3.8655,3.8,3.8,0,0,1-.4689-.8226,2.4687,2.4687,0,0,0-1.256-1.1234c-.3185-.1239-.7165-.2743-.805-.6458a4.82,4.82,0,0,1,.2034-1.0526c.1239-.69-.3361-1.3357-.168-2.0168a1.1588,1.1588,0,0,1,.8934-.973c.46-.0973.9288-.15,1.3976-.2035-.0088.2477-.1946.5573.0531.7519.1592.2034.4423.0885.6634.08.7165-.115,1.5657-.115,2.07-.7165a3.0894,3.0894,0,0,1-1.5038-.69c-.3361-.3627-.0707-.8669-.1238-1.3a9.47,9.47,0,0,1-2.2822-.2654,3.0463,3.0463,0,0,1-1.0084-.4511c.0973-.1327.2565-.2389.2565-.4158a2.3883,2.3883,0,0,0-.168-.69,9.8855,9.8855,0,0,0,2.22,1.5657,1.7334,1.7334,0,0,0,1.0792.0443c-.115-.3008-.3627-.61-.2389-.9377.23-.3361.7254-.4069.8935-.7961a.671.671,0,0,0-.38-.6192,2.9674,2.9674,0,0,0-1.8576-.15c-.0088-.1857.0354-.398-.0973-.5484a1.66,1.66,0,0,0-.6722-.3892,11.1484,11.1484,0,0,0-2.7864-.6192,2.7151,2.7151,0,0,1-.8757-.2211,9.9607,9.9607,0,0,1,1.6364-1.0615c-.0531-.69-.7873-.92-1.3357-1.1234-.3361-.0973-.4157-.4511-.4777-.7519-.053-.2477-.3449-.2919-.5484-.2565a9.6912,9.6912,0,0,1-2.1318.31c-.3538-.0089-.6988.0177-1.0526-.0177-.2919-.1415-.5219-.3892-.8315-.5219a3.8518,3.8518,0,0,0-2.6891-.0885,5.0354,5.0354,0,0,0-1.5126.7077.4329.4329,0,0,1-.6015-.0619,2.78,2.78,0,0,1-.3627-1.035,4.8518,4.8518,0,0,0,.92-1.2383c-.0177-.292-.4423-.6458-.0885-.8935a5.1516,5.1516,0,0,1,1.0438-.0353,2.6362,2.6362,0,0,0,1.1323.9995,1.1284,1.1284,0,0,0,1.2384-.115c.2919-.2654.513-.6369.911-.7784a4.3048,4.3048,0,0,1,2.3441-.0531,6.351,6.351,0,0,0,3.2552-.1769,1.7636,1.7636,0,0,0,.805-.5307c-.2565-.38-.7254-.2035-1.1057-.31a2.774,2.774,0,0,1-1.0792-.7519Z"/><path class="cls-2" d="M73.5424,49.7589c.7077-.0177,1.38-.2654,2.0788-.3008.0707.345.1149.7873.4865.9465.4953.2123,1.1234.3008,1.3534.858a8.3358,8.3358,0,0,0-1.7073,1.1146c.1769.3715.6192.4334.9819.4777a11.0066,11.0066,0,0,1,3.1048.7165.64.64,0,0,1,.4246.3715,3.7362,3.7362,0,0,1-.2388.5042,5.25,5.25,0,0,1,2.07.053c.1857.0708.4422.23.3715.4777-.2123.31-.69.3184-.8492.6811a1.4561,1.4561,0,0,0,.08.8846,4.1068,4.1068,0,0,1-2.3-1.203c-.2919-.2035-.5307-.5573-.92-.5485a4.2989,4.2989,0,0,0,.2388,1.0085,1.6847,1.6847,0,0,0-.3715.2742,1.7063,1.7063,0,0,0,1.0792.7518,14.929,14.929,0,0,0,2.3264.3539,1.4615,1.4615,0,0,0,.0619,1.0614,3.45,3.45,0,0,0,1.2384.805,5.482,5.482,0,0,1-1.7249.38.8123.8123,0,0,1-.4069-.0708,2.5534,2.5534,0,0,0,.1238-.7342,2.3776,2.3776,0,0,0-.8668.0265,3.2133,3.2133,0,0,0-1.2561.3185,1.8892,1.8892,0,0,0-.5219.5042,2.2456,2.2456,0,0,0-2.3706.0265c-.4866-.1946-.9465-.4246-1.4419-.6015a1.7862,1.7862,0,0,0-1.8841.743,1.368,1.368,0,0,0,.23,1.4684,2.7029,2.7029,0,0,1,.4865,1.1854A3.1784,3.1784,0,0,1,72.136,61.63c-.3892-.3361-.4688-.92-.92-1.203a.9125.9125,0,0,0-1.0791.2035,2.4629,2.4629,0,0,0-.9111,1.7426,9.3228,9.3228,0,0,1-.6281-.8315c-.0619-.08-.1061-.2035-.2211-.2212a9.5729,9.5729,0,0,1-1.3269-.2919,2.5384,2.5384,0,0,0,.2035-.6015c-.2477-.2919-.7431-.3892-.7961-.8138a3.5643,3.5643,0,0,0-.54-1.1411c-.0973-.168-.3538-.08-.4246.0708-.15.2477-.2654.5219-.4069.7784a1.3508,1.3508,0,0,1-1.3-.7519c-.1769-.31.1327-.5484.31-.7518-.2035-.1416-.4158-.2743-.6192-.4246a.9874.9874,0,0,0,.3361-.8846c-.0442-.3981-.0531-.9376-.4688-1.1323-.4511-.1592-.8934.1151-1.3091.2566a2.7165,2.7165,0,0,0-1-.0354,1.9518,1.9518,0,0,0-.9288.9376c-.5927.0089-1.3-.1238-1.7691.3362-.2477.2653.0177.5926.053.8845a2.0006,2.0006,0,0,1-.3361.9111,5.8182,5.8182,0,0,1-1.61-.5749c.0973-.3008.3627-.4777.5308-.7254a1.3817,1.3817,0,0,1,.2918-1.0349,7.656,7.656,0,0,0,.7961-.6192,3.37,3.37,0,0,1,1.0085-.7607,4.3344,4.3344,0,0,1,1.1676-.1769c.3007-.0443.4246-.4512.743-.4246.7873.0884,1.5746.1592,2.3618.1769.1858-.0266.2654.1681.38.2653a2.4412,2.4412,0,0,0,.9818-.7607,7.37,7.37,0,0,0,.4069-.7342,2.1443,2.1443,0,0,1,1.8311-.2742c.4423.1681.6546.6546,1.0615.8757a2.262,2.262,0,0,0,1.9725.3627,2.6384,2.6384,0,0,1,2.1938-.0088c.5926.2211,1.0084.7341,1.5656,1a1.108,1.108,0,0,0,1.3711-.8049,3.7256,3.7256,0,0,0-.38-2.1318,2.2724,2.2724,0,0,0-1.2473-1.3092c-.3892-.1238-.8669-.1238-1.1588-.46a4.5585,4.5585,0,0,1-.0619-.7784c.4246-.0088.858,0,1.2826-.0088Z"/><path class="cls-2" d="M62.0343,55.8535c.38-.1238.7784-.3892,1.203-.2742.3361.1769.31.61.3538.9288.0531.3538-.2388.5927-.345.8846.08.2122.2919.3273.46.4688-.1062.2034-.2742.4246-.1769.6722A1.5834,1.5834,0,0,0,65.13,59.551a3.3546,3.3546,0,0,0,.6015-.9553,5.08,5.08,0,0,1,.6015,1.3887,6.4059,6.4059,0,0,0,.69.5219c-.08.1769-.1592.345-.23.5131.3538.4865,1.0261.3361,1.53.5307a10.5357,10.5357,0,0,0,1.0261,1.3c-.628.3892-1.2472.805-1.8753,1.2119A1.1688,1.1688,0,0,0,66.8817,65a2.5537,2.5537,0,0,0,.7076,1.6188c.2919.3892.7342.6369.9819,1.0614.1061.177.1857.3716.283.5573a1.8689,1.8689,0,0,0,1.495-1.2207c.2388-.5926-.0443-1.3091.3449-1.8576.1416-.2565.4688-.2653.7254-.2476a2.8878,2.8878,0,0,1,2.1937,1.256,10.6856,10.6856,0,0,1,.9553,1.9726c-.5572.0973-1.23.115-1.601.61-.3008.4069-.0443.9111.1061,1.318a3.8075,3.8075,0,0,0-1.5922.9288c-.1946.3361-.3007.7253-.5131,1.0614a1.0857,1.0857,0,0,0-.7961.2742c-.5838.61-.9553,1.3888-1.4772,2.0522a4.6674,4.6674,0,0,1-.8934.7165,1.3732,1.3732,0,0,0-.4069.69,2.527,2.527,0,0,1,.5219,1.15c-.2565.08-.513.15-.77.2212A1.7779,1.7779,0,0,0,66.36,75.995a.9151.9151,0,0,0-.9023-.0619c-.4069.2919-.6015.9376-1.1765.9376a7.6047,7.6047,0,0,1-1.1853.0708.9343.9343,0,0,0-.92.5661,5.184,5.184,0,0,0-.115,1.8488c-.5219-.0354-1.0527-.08-1.5834-.1239A3.5229,3.5229,0,0,0,59.23,77.1008a2.3976,2.3976,0,0,0-1.3269-.4777A.6078.6078,0,0,1,57.32,76.19c-.15-.3449.2389-.61.2919-.9376a3.9317,3.9317,0,0,0-.0088-2.53c-.2831-.7342-1.0172-1.2119-1.23-1.9815A2.1686,2.1686,0,0,1,56.63,69.405c.5572-1.5214,1.2383-3.0075,1.8664-4.5024a13.7618,13.7618,0,0,0,.9023-2.4679c.1946-.7519-.0885-1.5657.2388-2.3a.6293.6293,0,0,0-.1681-.8669c-.3892-.2034-.8049-.3361-1.203-.5219.1858-.38.4511-.8049.2919-1.23-.0354-.1769-.1946-.3892-.0177-.5307.4865-.3539,1.1323-.1946,1.69-.2389a1.9479,1.9479,0,0,1,.8581-.9465c.31-.1238.628.0354.9465.0531Z"/><path class="cls-2" d="M69.7653,57.8615a2.5976,2.5976,0,0,1,1.8311-.92,1.1622,1.1622,0,0,1,.8846.3716,1.9893,1.9893,0,0,1-.7519,1.1853c-.2654.1769-.1592.5307-.2742.7872-.1946.2389-.54.1946-.8138.2477a5.5451,5.5451,0,0,0-1.088.4511c.0707-.2919.2918-.5749.1769-.8934C69.65,58.693,69.4027,58.1976,69.7653,57.8615Z"/><path class="cls-2" d="M70.1546,57.8084a2.2165,2.2165,0,0,1,1.3533-.6457,2.1123,2.1123,0,0,1,.7342.168,1.7279,1.7279,0,0,1-.2742.61c-.1592.2211-.4069.3627-.5661.5838-.1239.1946-.0885.4334-.1592.6369-.3892.1769-.8315.1415-1.2207.3273,0-.3892-.177-.743-.2123-1.1234-.0354-.2477.1946-.4069.345-.5573Z"/><path class="cls-2" d="M73.4451,59.2414a1.3219,1.3219,0,0,1,1.1234-.1327c.3981.1946.805.3892,1.23.5485a1.0179,1.0179,0,0,0,.1681.5307c.1592.1858.398.3361.4422.6015a6.3293,6.3293,0,0,0,.54,1.6011.84.84,0,0,1-.0265.9464c-.5042.6015-1.2826.8934-1.7338,1.5392a3.985,3.985,0,0,0-.5484,1.1588c-.1327.0973-.2212-.062-.3008-.15a3.9165,3.9165,0,0,1-.7076-1.7691c-.115-.8227.1946-1.6984-.1592-2.4857-.1769-.5307-.69-.9111-.6812-1.4949a1.0809,1.0809,0,0,1,.6546-.8934Z"/><path class="cls-2" d="M76.0281,59.79a1.9421,1.9421,0,0,1,2.2821-.0884,3.4925,3.4925,0,0,0,.0885,1.5126,2.565,2.565,0,0,1-.1327,1.433.7972.7972,0,0,0,.1592.8315c.3715.3892.9642.398,1.3534.77.54.4157.6988,1.1145,1.1234,1.6275a2.4082,2.4082,0,0,0-.54,1.3357c-.0265.5927-.0265,1.1853-.0531,1.778-.1326.0088-.2653.0088-.3892.0177a1.9034,1.9034,0,0,0-.4157-1.1234,1.5964,1.5964,0,0,0-1.07-.3538,4.08,4.08,0,0,0-.7165-2.2026,3.2178,3.2178,0,0,0-.0177-1.3.9511.9511,0,0,0-.5927-.5573,1.2388,1.2388,0,0,0,.1681-.6811,4.0555,4.0555,0,0,0-.345-1c-.1592-.3715-.2123-.7784-.3361-1.1587-.0885-.345-.4954-.4865-.5661-.84Z"/><path class="cls-2" d="M80.0351,60.754c.08-.1592.2654-.2211.4069-.3007a1.8571,1.8571,0,0,0,.69,1.1145,3.2874,3.2874,0,0,0,1.4064.2919c.3008.0442.38.4069.3893.6634.0265.292-.23.4777-.345.7165a5.592,5.592,0,0,0-.4246,1.3534c-.15.0177-.2919.0443-.4334.0708a7.1084,7.1084,0,0,1-.4777.743,14.22,14.22,0,0,0-.6546-2.8394A8.9422,8.9422,0,0,1,80.0351,60.754Z"/><path class="cls-2" d="M70.1192,60.9575a1.0178,1.0178,0,0,1,.8491-.3981c.3893.1415.5043.5838.7165.9023a3.1941,3.1941,0,0,0,1.7515,1.0791,6.6127,6.6127,0,0,0,.0265,1.8222,4.3217,4.3217,0,0,0,.7607,1.7249c.1062.1239.2566.2919.4423.2212.3273-.345.3538-.8581.6369-1.2384.38-.6369,1.0969-.9111,1.6188-1.3976.1946.0707.4511.1061.54.3184a2.1851,2.1851,0,0,1,.0177,1.2384c-.0531.1946.1326.3361.2122.4953a4.0948,4.0948,0,0,1,.54,2.0169,2.2817,2.2817,0,0,1,1.035.2034,1.736,1.736,0,0,1,.4157,1.0526,2.5635,2.5635,0,0,0-1.5568.3185A3.9865,3.9865,0,0,0,76.9392,71.05c-.2654.0089-.5308.0266-.7961.0354a2.6206,2.6206,0,0,0-.9111-1.7249c.2742-.1769.7695-.3627.6545-.77-.2565-.3184-.7076-.3449-1.0791-.4334a8.4618,8.4618,0,0,0-1.1146-2.2468,3.0411,3.0411,0,0,0-2.0964-1.2118,1.2294,1.2294,0,0,0-1.035.2388,1.8825,1.8825,0,0,0-.3184,1.3091,1.7222,1.7222,0,0,1-.4157,1.23,2.1023,2.1023,0,0,1-.8138.5042,2.7249,2.7249,0,0,0-.6458-.9023,3.475,3.475,0,0,1-1.2207-1.6895,1.0384,1.0384,0,0,1,.4335-1.1322c.7076-.4688,1.4241-.9111,2.1229-1.3888a1.443,1.443,0,0,1-.2211-.7784,2.2377,2.2377,0,0,1,.6369-1.1322Z"/><path class="cls-2" d="M73.9317,68.4761a2.3126,2.3126,0,0,1,1.7337.1681.1977.1977,0,0,1-.1062.23c-.2211.1681-.4776.2742-.7076.4423a2.74,2.74,0,0,1,1.0791,1.76,4.8,4.8,0,0,0-1.9371.8314,7.3,7.3,0,0,1-2.45,1.3446,3.4763,3.4763,0,0,0-2.0876,2.07,2.25,2.25,0,0,0,.0885,1.99,5.9144,5.9144,0,0,1,.743,2.1584,4.8549,4.8549,0,0,1-1.3268.1857,4.5225,4.5225,0,0,1-1.3711-.6457c.23-.1946.46-.38.69-.575a2.2765,2.2765,0,0,1-.6458-1.15c.177-.0885.4512-.1239.4866-.3715a1.9381,1.9381,0,0,0-.4866-1.15c.1681-.5484.7785-.7253,1.1323-1.1234.5838-.6722.9465-1.5126,1.5657-2.1495.1857-.2122.4953-.1592.7518-.2122.2831-.4777.4158-1.0881.9023-1.4154a5.9791,5.9791,0,0,1,1.4065-.6545,2.4525,2.4525,0,0,1-.3185-1.1323c.0973-.3892.5042-.54.8581-.6015Z"/><path class="cls-2" d="M77.1957,71.05c.3273-.77.8315-1.69,1.7514-1.8045a10.539,10.539,0,0,1,1.7515.0177,4.8209,4.8209,0,0,1,.2565,1.0084,8.8574,8.8574,0,0,1-1.9107,1.53A5.62,5.62,0,0,0,77.1957,71.05Z"/><path class="cls-2" d="M59.9909,70.1569c.3892,0,.5219.7342.115.7607C59.7963,70.7849,59.8494,70.3957,59.9909,70.1569Z"/><path class="cls-2" d="M65.8733,70.2454c.08-.115.3361,0,.23.1326C66.0148,70.493,65.7583,70.3869,65.8733,70.2454Z"/><path class="cls-2" d="M64.52,70.2632c.1238-.0089.2388-.0089.3538-.0089-.0177.2123.0619.4423-.0531.6281-.0973.0707-.2123.0088-.3007-.0266v-.5926Z"/><path class="cls-2" d="M79.3275,71.8907a12.3136,12.3136,0,0,0,1.6807-1.3445A4.9868,4.9868,0,0,0,83.45,73.3237c.7165.3716,1.5037.61,2.2467.9288a3.2478,3.2478,0,0,0,1.46.0973c1.1676-.0619,2.3441-.0442,3.5028-.0088a3.7707,3.7707,0,0,1,1.0438.9376,2.0326,2.0326,0,0,0-.15,1.5215c.1415.2742.3007.628.0884.9111-.3715.61-.6988,1.2384-1.0438,1.8664a1.7883,1.7883,0,0,0-.0884,1.53,2.3413,2.3413,0,0,0,.9907.8846,2.6878,2.6878,0,0,0,1.84.3361A3.1262,3.1262,0,0,1,94.4,82.1694c.23.0442.3539.2565.4777.4334a1.1912,1.1912,0,0,1-.3892.3362,2.5281,2.5281,0,0,0-1.5214,1.486c-.062.3273-.4246.4069-.6635.575-.4245.2742-.9553.0885-1.4241.1238-.3361-.0353-.628.2123-.9642.1416-.345-.115-.5042-.4777-.6369-.7961-.6722-1.8753-1.3357-3.7594-1.946-5.67a2.1883,2.1883,0,0,1,.1946-1.76c.115-.1946.2919-.38.2742-.6192a.3858.3858,0,0,0-.3184-.31c-.5838-.0442-1.1588-.0177-1.7426-.0354-.9907-.0353-1.5126-1.2207-2.521-1.1941a4.3285,4.3285,0,0,0,.15.69,1.4372,1.4372,0,0,1-1.2119-.513c-.3892-.3627-.743-.7519-1.0969-1.15.2123-.1858.5308-.3627.5308-.6812-.0089-.3538-.345-.5572-.6369-.69-.54-.2211-1.1057-.38-1.6276-.6458Z"/><path class="cls-2" d="M73.9493,72.218a4.4242,4.4242,0,0,1,4.0159-.7608c.5131.2477.9908.5662,1.53.7785.4688.2122.9818.3361,1.46.5572.1858.1062.4511.2565.398.5131-.0973.2742-.3892.3892-.6015.5484a8.354,8.354,0,0,0,1.69,1.7072.9654.9654,0,0,0,1.0349.15c.2034-.1415.08-.4069.0708-.6015a13.3816,13.3816,0,0,1,1.2472.84,1.684,1.684,0,0,0,1.0349.3539c.575-.0089,1.15,0,1.7249.0353.0177.3362-.2565.575-.38.8758a2.8807,2.8807,0,0,0,.0531,2.0521q.8623,2.64,1.8222,5.2455a1.4527,1.4527,0,0,0,.8049.9642c.2919.0973.575-.0708.8492-.1239.3892-.0353.7784.0177,1.1676.0177a5.1722,5.1722,0,0,1-2.2822,2.751,5.4225,5.4225,0,0,1-1.5745.7254,4.0454,4.0454,0,0,0-2.521,2.1671,3.5846,3.5846,0,0,0-.2388,1.5834c.0353.3273-.2565.5308-.5042.6723a5.23,5.23,0,0,0-1.3711,1.1145,1.5507,1.5507,0,0,1-.6192.3539,4.269,4.269,0,0,0-2.2556,1.9018c-.6369.1061-1.3976-.0973-1.9195.38a5.5814,5.5814,0,0,1-3.9806,1.1323,2.1248,2.1248,0,0,1-1.3268-.5219c-.2212-.3273.053-.7165.2211-1a4.8934,4.8934,0,0,0,.5573-4.8208c-.1681-.3185.0708-.6635.2477-.9288.5572-.6812,1.1587-1.318,1.716-1.9992a2.381,2.381,0,0,0,.5308-1.5037c.0176-.4777-.177-.9376-.1327-1.4153.0177-.5661.4953-1.0173.4157-1.5922-.0442-.5573-.54-.9023-.9642-1.1765A5.2871,5.2871,0,0,1,74.5243,81.17a1.2527,1.2527,0,0,0-1.1588-.7784,7.5464,7.5464,0,0,0-1.3268.1593,1.6394,1.6394,0,0,1-1.3534-.7519,1.04,1.04,0,0,1-.1946-.5042,5.8831,5.8831,0,0,0-.7165-2.0345,1.9176,1.9176,0,0,1-.1681-1.6984,3.44,3.44,0,0,1,1.38-1.7957,8.7408,8.7408,0,0,1,1.256-.5219,7.611,7.611,0,0,0,1.7072-1.026Z"/><path class="cls-2" d="M65.6256,76.11c.4334-.15.8138.2123,1.07.5131a1.0207,1.0207,0,0,1,.1327.8491c.1946-.0442.38-.0973.575-.15a2.4611,2.4611,0,0,0,.5572,1.0881,2.1608,2.1608,0,0,0-.7518.7961c.6369.0884,1.0968.6192,1.7337.69a5.729,5.729,0,0,0,1.3888-.2034,2.4685,2.4685,0,0,0,1.1941,1.0349c.6458.2212,1.2738-.2034,1.9284-.0884a1.0922,1.0922,0,0,1,.8669.6545,5.7043,5.7043,0,0,0,1.2826,1.99c.398.2565.8934.513.9995,1.0173.1327.5572-.3184.9907-.38,1.5126a11.5215,11.5215,0,0,0,.0884,1.6541,2.2657,2.2657,0,0,1-.5661,1.4065c-.4953.5661-.9907,1.1322-1.4772,1.6983a2.095,2.095,0,0,0-.5042.92c-.0619.1946.0707.3892.1327.5749a4.5342,4.5342,0,0,1-.1858,3.786c-.2211.4865-.6723.8757-.743,1.433a.87.87,0,0,0,.61.858,5.74,5.74,0,0,0,3.2552.0354,4.761,4.761,0,0,0,1.7072-.8492,1.4193,1.4193,0,0,1,.6634-.3715c.3981-.0531.805-.0531,1.203-.0885a8.4883,8.4883,0,0,0-.38,2.45,1.5611,1.5611,0,0,1-.2388,1.0172.7966.7966,0,0,1-.8227.1239,10.4174,10.4174,0,0,0-3.3879-.7254,4.0686,4.0686,0,0,0-1.6983.4423,2.6613,2.6613,0,0,0-2.008.6988,3.979,3.979,0,0,1-.4511-.4069,2.2439,2.2439,0,0,0-.3715-.5927c-.2831-.2477-.6812-.398-.7873-.7872.2035-.1327.4246-.2566.6369-.38-.2123-.2742-.4777-.5927-.3627-.9642.15-.5484.805-.6811,1.0615-1.1587-.2123-.3627-.5927-.6989-.5484-1.15.08-.3715.4953-.4688.7607-.69a1.2224,1.2224,0,0,0,.4688-1.1765,3.9225,3.9225,0,0,1,.8934-2.76,5.8628,5.8628,0,0,0,1.1146-1.8045,13.4624,13.4624,0,0,0,.3449-2.3087c.1062-.2123.345-.345.38-.6015a3.6182,3.6182,0,0,0-.08-2.2291,2.4955,2.4955,0,0,0-1.38-1.3534,2.8025,2.8025,0,0,0-1.2119-.053,9.4,9.4,0,0,1-2.2291-.0885,1.4588,1.4588,0,0,1-.9995-.6546,1.954,1.954,0,0,0-1.1588-.8757c-.5573-.0973-1.1411-.0265-1.6984-.1415-.3892-.115-.1592-.5661-.1327-.84-1.2826-.1061-2.53-.4157-3.8213-.4865a4.3176,4.3176,0,0,1,.0619-1.7514.7487.7487,0,0,1,.7519-.46,5.742,5.742,0,0,0,1.5568-.1415c.3539-.2654.5662-.69.9554-.9111Z"/><path class="cls-2" d="M58.3456,80.9486a3.293,3.293,0,0,0,2.1053-1.4861c1.15.0884,2.3087.1238,3.4409.3184.6458.0973,1.2827.2212,1.9284.2654-.0708.3185-.0619.7519.3184.8669.575.1238,1.1854.0442,1.7692.1681a1.9507,1.9507,0,0,1,1.0084.7518,1.8041,1.8041,0,0,0,.6457.5927,3.7268,3.7268,0,0,0,1.3268.2565,12.0083,12.0083,0,0,0,2.0345-.0354,1.9626,1.9626,0,0,1,1.76,1.2119,3.102,3.102,0,0,1,.115,2.1141c-.0442.2742-.345.4157-.398.6811a11.3386,11.3386,0,0,0-.1327,1.3445A3.8958,3.8958,0,0,1,73.5867,89.9c-.31.5042-.77.9023-1.035,1.433a4.1471,4.1471,0,0,0-.5042,2.15,1.3263,1.3263,0,0,1-.1681.9023c-.2476.38-.84.38-1.0083.84-.1946.5131.2034.9819.4865,1.3711-.3627.345-.9111.5573-1.0438,1.0792a1.1532,1.1532,0,0,0,.2211.9376c-.1769.1327-.4246.2211-.4865.46,0,.4334.4334.6545.7431.8845.2742.1592.3095.4954.4953.7342a2.8447,2.8447,0,0,0,.6192.4511c.23.38.5661.69.7873,1.0792a1.643,1.643,0,0,1-1.5126.345c-.4777-.1946-.7431-.6723-1.0969-1.0349-.7519-.92-1.663-1.69-2.4768-2.5564-.23-.2477-.4776-.4688-.7077-.7077-.1149-.08-.1238-.23-.1415-.3538a21.4468,21.4468,0,0,1-.0707-3.0164,3.2366,3.2366,0,0,0-.8846-2.2556c-.6811-.69-1.5126-1.1942-2.2556-1.8222a1.6124,1.6124,0,0,0-1.1411-.2654c-.1681-.2654-.1593-.7165-.5219-.8049-.4865-.177-1.15.0265-1.5126-.4335-.1327-.3626-.1239-.7961-.3981-1.1057-.3007-.3892-.84-.345-1.2826-.3892a.3693.3693,0,0,1-.3184-.4423c.08-.7607.61-1.548.2388-2.3-.0973-.3273-.1681-.6635-.2742-.9908a3.2654,3.2654,0,0,0,.6369-.3095,1.3536,1.3536,0,0,0,.1769-1,.9271.9271,0,0,0-.6811-.84c-.5219-.0974-1.1234.0707-1.5834-.2831-.15-.1327-.4158-.3007-.3185-.5308.5839-.1415,1.1942-.0176,1.778-.1769Z"/><path class="cls-2" d="M80.0175,83.8853c.0707.1415.1326.2919.1946.4334-.0885,0-.2831.0088-.38.0088C79.8936,84.1772,79.9555,84.0268,80.0175,83.8853Z"/><path class="cls-2" d="M92.1624,85.31a4.69,4.69,0,0,1,.8492-.4688c.54.1238,1.0438.3449,1.5922.4245.2388.0443.5307.0354.7165.2389a4.9141,4.9141,0,0,1,.7607,1.2826,1.2566,1.2566,0,0,1,.0443,1.15,19.8027,19.8027,0,0,0-.8758,1.8576.7815.7815,0,0,0-.0265.6723c.2211.4069.743.4865,1.0084.8492a5.6524,5.6524,0,0,0,.1238.6722,2.1622,2.1622,0,0,0,.8758.8846c.7342.4334,1.5479.7165,2.3,1.1057a5.836,5.836,0,0,0-1.5833.9023c-.805.6988-1.6542,1.3357-2.4945,1.99a2.8134,2.8134,0,0,0-.46-.8668,2.6354,2.6354,0,0,0-.9553-.6546c.3273-.5838,1.0349-.7254,1.5038-1.1588,0-.1769-.2035-.15-.3185-.1946a10.9993,10.9993,0,0,0-2.8394-.345,7.4131,7.4131,0,0,0-.9642.1858,5.36,5.36,0,0,0-.6281-.7165,1.5544,1.5544,0,0,0-1.318-.2654,11.9331,11.9331,0,0,0-1.5656.3981c.5042-.8138,1.1145-1.5568,1.601-2.3707a3.8063,3.8063,0,0,1,1.663-1.53.8249.8249,0,0,0,.5661-.8139c-.0442-.5219-.4688-.8668-.7872-1.23a4.04,4.04,0,0,0,1-1.5126,2.19,2.19,0,0,1,.2123-.4865Z"/><path class="cls-2" d="M88.9692,88.7416a8.2794,8.2794,0,0,0,1.8134-1.2737c.3007.3273.7253.6546.7165,1.15-.0089.3362-.345.4954-.5927.6369A3.9656,3.9656,0,0,0,89.3849,90.67c-.5041.8315-1.0968,1.601-1.6452,2.406-.115.1592-.2212.3538-.4246.38-1.203.2565-2.3972.5484-3.5737.858a5.0618,5.0618,0,0,1,1.3711-1.0261.7376.7376,0,0,0,.3627-.77,3.3406,3.3406,0,0,1,1.831-3.14c.5219-.2919,1.1323-.3715,1.663-.6369Z"/><path class="cls-2" d="M87.6423,93.6068a8.6951,8.6951,0,0,1,2.2645-.575,1.53,1.53,0,0,1,1.2649.8669,4.632,4.632,0,0,1,.2919,1.3976.4089.4089,0,0,0,.3981.31c.4422.0177.8757-.1327,1.318-.15a2.4012,2.4012,0,0,1,1.53.5662,2.3577,2.3577,0,0,1,.5307.9818,1.9767,1.9767,0,0,0-.575,1.6984,3.81,3.81,0,0,1-.283,2.7068,2.2847,2.2847,0,0,1-1.0527.9907,5.2615,5.2615,0,0,0-1.831,1.433,7.9006,7.9006,0,0,1-1,1.0349,8.6328,8.6328,0,0,0-1.5037,1.203c-.5219-.4246-1.23-.6369-1.5746-1.2472-.115-.1327-.15-.38-.3538-.3627a6.7465,6.7465,0,0,0-1.0349.0088,2.5176,2.5176,0,0,0-.4954.2919c-.38.2566-.8315.3893-1.2207.6458a4.5828,4.5828,0,0,1-2.4591.54c-1.318-.2035-2.3529-1.265-3.7151-1.3269a3.1974,3.1974,0,0,1-1.548-.4423,3.4343,3.4343,0,0,1,.3184-1.0349,8.5821,8.5821,0,0,0,.4865-.9376c-.4688-.0531-1.0084.2211-1.433-.0885-.283-.2742-.3361-.6988-.5749-1.0172a2.211,2.211,0,0,0-1.0792-.8846,3.2074,3.2074,0,0,1,1.3534-.2565,10.237,10.237,0,0,1,3.0429.6634,1.1945,1.1945,0,0,0,1.1322-.0442,1.1637,1.1637,0,0,0,.3981-1,7.677,7.677,0,0,1,.4511-2.751,3.2009,3.2009,0,0,1,1.7514-1.6983c.6015-.2743,1.2207-.4954,1.84-.7165,1.1146-.292,2.238-.5485,3.3614-.805Z"/><path class="cls-2" d="M91.4992,94.0579a4.8263,4.8263,0,0,1,1.3269-.2034,13.1142,13.1142,0,0,1,2.2644.3626c-.4422.3627-1.0614.54-1.3,1.1057-.6988-.23-1.3887.115-2.0964.0266a12.6075,12.6075,0,0,0-.1946-1.2915Z"/><path class="cls-2" d="M98.0007,95.1281a5.1568,5.1568,0,0,1,1.8222-.9908c.2477.4865.345,1.0969.805,1.4507a1.4716,1.4716,0,0,0,1.2649.0177,13.8974,13.8974,0,0,0,.5219,1.6276,3.97,3.97,0,0,1-.3273,2.3176,1.7659,1.7659,0,0,0,.0885,1.2207,4.3686,4.3686,0,0,0-1.778.9907c-.4954.4334-.8315.9995-1.2738,1.4684-.23.23-.5307.38-.7519.61,0,.1946.1593.3185.2919.4334a6.8275,6.8275,0,0,0,1,.5485,10.7076,10.7076,0,0,1-4.0159,1.9018,5.2577,5.2577,0,0,0-2.2026,1.1676,2.3754,2.3754,0,0,1-1.5038.61c-.5661,0-1.1234-.1062-1.6895-.0708a4.3152,4.3152,0,0,0-1.5214.4069,1.4575,1.4575,0,0,1-.2035-1.3357c.1769-.4246.7165-.6634.6369-1.1853.2035-.5661.8669-.7607,1.2915-1.1411.84-.6015,1.3534-1.548,2.2025-2.1318a12.32,12.32,0,0,0,1.433-.8669,3.2479,3.2479,0,0,0,.9023-2.4148c.0177-.6546-.2565-1.3357.0088-1.9815.1592-.4776.61-.743.9907-1.0437.6723-.54,1.3623-1.0438,2.008-1.61Z"/><path class="cls-2" d="M83.8741,100.418c.0619-.1416.1239-.2831.1946-.4246.0708.1415.1327.283.1946.4246Z"/><path class="cls-2" d="M100.557,101.9217a3.8862,3.8862,0,0,1,1.7249-.9377,1.8692,1.8692,0,0,1-.4246,1.8842c-.6457.6015-1.318,1.1853-1.9725,1.7779a4.6531,4.6531,0,0,1-1.2915-.7253c.2211-.1592.4423-.31.6457-.4865.4688-.4777.805-1.0792,1.318-1.5126Z"/><path class="cls-2" d="M84.5729,105.5218a8.0974,8.0974,0,0,0,1.46-.8137,5.1945,5.1945,0,0,1,1.0526-.0354,2.5363,2.5363,0,0,0,1.0173,1.0526c.3538.1946.7961.4069.8668.84-.283.3892-.7342.7254-.743,1.2561a2.329,2.329,0,0,0,.4334,1.3622c-.4865.115-.9818.1593-1.4683.2389a7.1364,7.1364,0,0,1-1.6807-.0531,1.2114,1.2114,0,0,0-.15-.9907c-.283-.2388-.69-.2123-.9907-.4158a.3863.3863,0,0,1-.2211-.4069c.0884-.4069.3273-.7695.4157-1.1764a3.4806,3.4806,0,0,0,.0088-.8581Z"/><text class="cls-3" transform="translate(152.0977 115.5781) scale(0.9635 1)">THE WORLD’S DISEASE CONCE<tspan class="cls-4" x="155.5078" y="0">P</tspan><tspan class="cls-5" x="161.8342" y="0">TS, UNIFIED</tspan></text></svg>