<svg id="Layer_1" data-name="Layer 1" xmlns="http://www.w3.org/2000/svg" viewBox="0 0 1069 332"><defs><style>.cls-1{fill:#231f20;}.cls-2,.cls-3{fill:#fff;}.cls-3{font-size:7.95px;font-family:AppleSDGothicNeo-UltraLight-KSCpc-EUC-H, Apple SD Gothic Neo;letter-spacing:-0.02em;}.cls-4{letter-spacing:-0.03em;}</style></defs><title>mondo_logo</title><rect class="cls-1" x="0.25" width="1069" height="332"/><path class="cls-2" d="M454.86,207.05a10.08,10.08,0,0,1,2-6.05,33.59,33.59,0,0,1-.08-65.14,10.06,10.06,0,0,1-1.43-9.48,43.14,43.14,0,0,0,.11,84.11A10,10,0,0,1,454.86,207.05Z"/><path class="cls-2" d="M474.5,126.33a9.92,9.92,0,0,1,.62,3.46,10.16,10.16,0,0,1-2,6,33.59,33.59,0,0,1,.08,65.18,10.14,10.14,0,0,1,2,6.05,10.27,10.27,0,0,1-.6,3.44,43.14,43.14,0,0,0-.11-84.16Z"/><rect class="cls-2" x="463.15" y="188.96" width="3.59" height="16.53"/><rect class="cls-2" x="463.15" y="128.06" width="3.59" height="16.53"/><path class="cls-2" d="M521.53,171.48h2.35V152.15c0-3.82,1.47-6.23,6.53-6.23s6.28,2.7,6.28,7.81v17.69H539V153.09c0-3.94,1.47-7.11,6.58-7.11s6.29,2,6.29,7.81v17.69h2.35V153.79c0-6.46-1.7-10-8.34-10-3,0-5.58.59-7.88,4-1-2.35-3.29-4-7.34-4-3,0-5.29.77-6.7,2.71l-.23-2.18h-2.24Z"/><path class="cls-2" d="M568.65,143.86c-5.87,0-8.63,2.47-8.63,10.17v7.46c-.06,8,2.7,10.28,8.63,10.28s8.64-2.64,8.64-10.22V154.2C577.29,146.15,574.53,143.86,568.65,143.86Zm6.29,17.57c0,5.76-1.29,8.22-6.29,8.22-5.34,0-6.28-2.4-6.28-8.28v-7.23c0-5.75,1.23-8,6.28-8,5.35,0,6.29,2.24,6.29,8.11Z"/><path class="cls-2" d="M614.92,143.86c-5.87,0-8.63,2.47-8.63,10.17v7.46c-.06,8,2.7,10.28,8.63,10.28s8.64-2.64,8.64-10.22V154.2C623.56,146.15,620.8,143.86,614.92,143.86Zm6.29,17.57c0,5.76-1.29,8.22-6.29,8.22-5.34,0-6.28-2.4-6.28-8.28v-7.23c0-5.75,1.23-8,6.28-8,5.35,0,6.29,2.24,6.29,8.11Z"/><path class="cls-2" d="M639,143.86c-5.87,0-8.63,2.47-8.63,10.17v7.46c-.06,8,2.7,10.28,8.63,10.28s8.64-2.64,8.64-10.22V154.2C647.62,146.15,644.86,143.86,639,143.86Zm6.29,17.57c0,5.76-1.29,8.22-6.29,8.22-5.34,0-6.28-2.4-6.28-8.28v-7.23c0-5.75,1.23-8,6.28-8,5.35,0,6.29,2.24,6.29,8.11Z"/><path class="cls-2" d="M583.28,144.33v27.15h2.35v-19.1c0-3.11,1.65-6.52,6.53-6.52s6.28,1.82,6.28,7.87v17.69h2.35V153.73c0-7-1.94-9.93-8.34-9.93a7.7,7.7,0,0,0-6.87,3.41l-.18-2.88Z"/><text class="cls-3" transform="translate(520.6 184.61) scale(0.95 1)">MONA<tspan class="cls-4" x="20.71" y="0">R</tspan><tspan x="24.95" y="0">CH MERGED DISEASE ONTOLOGY</tspan></text><path class="cls-2" d="M462.59,144.71a23.83,23.83,0,1,0,26.07,21.36A23.83,23.83,0,0,0,462.59,144.71Zm16.84,31.16c-.08.86-.19,1.72-.35,2.57a4.79,4.79,0,0,1-.43,1.18c-.52,1.14-1.06,2.27-1.59,3.41,0,.05,0,.13-.05.17a13.77,13.77,0,0,1-2.41,2.71,5.15,5.15,0,0,0-.94,1.2c-.09.12-.17.25-.27.36-.3.31-.29.35.1.61a1.32,1.32,0,0,1-1.58-.15c-.08-.07-.17-.22-.14-.29.27-.7.56-1.39.85-2.08a1.78,1.78,0,0,0,.14-.36c.12-.68.21-1.36.34-2,.23-1.26,0-1.65-1.15-2a3,3,0,0,1-1.46-1.12,2.17,2.17,0,0,1-.51-2.26,5.47,5.47,0,0,1,.77-1.81,2.21,2.21,0,0,0,.25-1.29c0-.39-.5-.4-.88-.41a2.6,2.6,0,0,1-1.69-.45c-1.2-1.38-2.82-1.48-4.42-1.79a11.16,11.16,0,0,1-2.41-.72,2.44,2.44,0,0,1-.85-1,16.11,16.11,0,0,0-2.37-3.35l-.18.09c.4.8.79,1.61,1.18,2.41l-.13.12a1.09,1.09,0,0,1-.38-.16,6,6,0,0,1-1.1-1.84c-.39-.95-.33-2.21-1.56-2.7a.58.58,0,0,1-.24-.31,6.64,6.64,0,0,1-.05-4.65c.21-.51.27-1.07.44-1.59s0-.79-.48-1a3.32,3.32,0,0,1-.28-.2,1.14,1.14,0,0,0,.11-1.67c-.07-.09-.29-.05-.48-.08l.41-.34a6.14,6.14,0,0,0-.42-2c-.29-.5-1-.78-1.47-1.17a4.41,4.41,0,0,1-1.05.76c-1.13.41-1.64,1.48-2.48,2.2a1.9,1.9,0,0,1-.59.44l1.06-1.37-.11-.12-.4.11a1.56,1.56,0,0,1,.32-1.86c.44-.45,1-.8,1.45-1.32l-.5.05a1.17,1.17,0,0,1,1.16-1.08.59.59,0,0,0,.47-.22c0-.79.65-.93,1.18-1.18a8.13,8.13,0,0,1,5.3-.54,2.33,2.33,0,0,0,1.18-.18,4.28,4.28,0,0,1,3,.18,2.44,2.44,0,0,0,1.12.1l-.34-.29.4-.35-1.51-.29c.38-.13.64-.25.91-.31a2.3,2.3,0,0,1,1.93.15c.27.16.74,0,1.12,0a5.58,5.58,0,0,0,.73-.1c0,.48-.05.86-.08,1.37l-1.18.1a1.53,1.53,0,0,0,2.45-.33c0-.12-.06-.29-.08-.44-.07-.43.15-.69.58-.62s.88.18,1.32.28c-.24.19-.54.32-.63.54a1.76,1.76,0,0,0,.05.76l.9.74.56-.53c-.09-.08-.12-.12-.15-.13-.44-.09-.73-.42-.61-.79s.55-.37,1-.35c1.2.08,1.82,1,2.66,1.64s.81,1.55,1.43,2.19c.09.09,0,.39-.08.72l-.49-.56-.13.06a2.52,2.52,0,0,1,.21.58,2.08,2.08,0,0,1,0,.55c-.18,0-.41,0-.55-.08s-.43-.43-.67-.62-.63-.43-.94-.65c-.14-.1-.26-.21-.48-.38.38,0,.7.06.86-.06.52-.39.53-.64.05-1.1s-.84-.67-1.32-1c-.29,1.23-.29,1.23-1.24,1.37l1.23,1.15a6.37,6.37,0,0,1-1.31-.18c-.1,0-.05-.47-.08-.85a2.78,2.78,0,0,0-.76.27,12.82,12.82,0,0,0-1.57,1.27,1.16,1.16,0,0,0,.27,2c.47.26.93.55,1.38.84a1.48,1.48,0,0,1,.73,1.18,3.25,3.25,0,0,0,.38.8c.13-.25.21-.33.22-.42a2.24,2.24,0,0,1,.83-1.6.42.42,0,0,0,0-.73.45.45,0,0,1-.15-.38c.13-.48.29-.95.45-1.46.66,0,1.14.59,1.69,1,.06.05,0,.21.08.31l.33.79.68-.33c.51,1.21,1,2.48,1.63,3.91l-2.3.08,1.16,1.39c.25.29.26.47-.14.64a1.65,1.65,0,0,1-1.42.15c-.47-.22-.61.17-.81.49a8.21,8.21,0,0,1-.58.6,13.57,13.57,0,0,0-.92,1.23c-.16.26-.16.6-.3.87a5.82,5.82,0,0,1-.69,1c-.2.23-.49.38-.71.59-.74.71-.78,1.11-.31,2a5.26,5.26,0,0,1,.27,1.12c-.79-.09-.92-.63-1.13-1a1.43,1.43,0,0,0-1.12-.9,1.27,1.27,0,0,0-.83.06,5,5,0,0,1-2.3.64,1.13,1.13,0,0,0-.6.36,4,4,0,0,0-1.06,2.5c0,1.55,1.12,1.87,2.28,1.49a.81.81,0,0,0,.41-.44,1.49,1.49,0,0,1,1.53-.85,5.69,5.69,0,0,1-.53,1.46c-.32.47-.08.61.25.71a2.41,2.41,0,0,0,1,.07c.41-.06.48.13.47.45a6.28,6.28,0,0,0,0,.75c.05.6.33.83.95.74.92-.12,1.89-.13,2.49-1a1.11,1.11,0,0,1,1.4-.38c.84.36,1.5,0,2.25-.29a1.43,1.43,0,0,0,1.49,1.24c.2,0,.46.41.6.69.29.55.67.69,1.33.24C479.48,174.74,479.49,175.31,479.43,175.87Z"/><circle class="cls-2" cx="464.94" cy="129.79" r="3.81"/><circle class="cls-2" cx="464.94" cy="207.05" r="3.81"/><rect class="cls-2" x="621.21" y="121.14" width="2.35" height="39.25"/></svg>