<svg id="Layer_2" data-name="Layer 2" xmlns="http://www.w3.org/2000/svg" viewBox="0 0 784.5073 679.8126"><defs><style>.cls-1{fill:#0096b6;}.cls-2{fill:#084b56;}.cls-3{fill:#033c42;}.cls-4{fill:#01728d;}.cls-5{fill:#00a9d0;}.cls-6{fill:#f99d1c;}.cls-7{fill:#eb4424;}.cls-8{fill:#88171a;}.cls-9{fill:#c52f26;}.cls-10{fill:#f47421;}.cls-11{fill:#febd43;}.cls-12{fill:#70cee5;}</style></defs><title>CCDH-LOGO</title><rect class="cls-1" x="432.4871" y="230.1486" width="66.5853" height="130.7773" transform="translate(170.2426 761.317) rotate(-90)"/><rect class="cls-2" x="432.4871" y="93.9216" width="66.5853" height="130.7773" transform="translate(306.4696 625.09) rotate(-90)"/><rect class="cls-3" x="432.4871" y="26.1138" width="66.5853" height="130.7773" transform="translate(374.2774 557.2822) rotate(-90)"/><rect class="cls-4" x="432.4871" y="162.3407" width="66.5853" height="130.7773" transform="translate(238.0505 693.5092) rotate(-90)"/><rect class="cls-5" x="432.4871" y="297.9564" width="66.5853" height="130.7773" transform="translate(102.4348 829.1248) rotate(-90)"/><rect class="cls-6" x="288.318" y="297.9564" width="66.5853" height="130.7773" transform="translate(-41.7343 684.9557) rotate(-90)"/><rect class="cls-7" x="288.318" y="162.3407" width="66.5853" height="130.7773" transform="translate(93.8813 549.34) rotate(-90)"/><rect class="cls-8" x="288.318" y="26.1138" width="66.5853" height="130.7773" transform="translate(230.1083 413.1131) rotate(-90)"/><rect class="cls-9" x="288.318" y="93.9216" width="66.5853" height="130.7773" transform="translate(162.3005 480.9209) rotate(-90)"/><rect class="cls-10" x="288.318" y="230.1486" width="66.5853" height="130.7773" transform="translate(26.0735 617.1479) rotate(-90)"/><rect class="cls-11" x="288.318" y="365.7642" width="66.5853" height="130.7773" transform="translate(-109.5422 752.7636) rotate(-90)"/><rect class="cls-12" x="432.4871" y="365.7642" width="66.5853" height="130.7773" transform="translate(34.6269 896.9327) rotate(-90)"/></svg>