<svg id="Layer_2" data-name="Layer 2" xmlns="http://www.w3.org/2000/svg" viewBox="0 0 162.1148 169.4051"><defs><style>.cls-1{fill:#231f20;}.cls-2{fill:#7b7b7b;}</style></defs><title>CCDH-LOGO</title><path class="cls-1" d="M80.2637,124.1752c-1.3853-.0735-2.75-.2249-4.099-.4248a7.4288,7.4288,0,1,1-13.5937-4.6533,39.368,39.368,0,0,1-3.7681-2.4463,8.8906,8.8906,0,0,1-4.3044,1.1433,8.9557,8.9557,0,0,1-7.2337-14.28,39.17,39.17,0,0,1-3.8735-10.5857,2.8063,2.8063,0,0,1-.8491.1717,2.89,2.89,0,0,1,0-5.78c.0456,0,.084.0239.1291.0261-.0549-.8479-.1291-1.6906-.1291-2.5517a39.5516,39.5516,0,0,1,.8755-8.2359,12.6467,12.6467,0,0,1,12.9558-21.72,39.3634,39.3634,0,0,1,11.58-6.8625,8.2776,8.2776,0,0,1,8.2654-8.0276,8.14,8.14,0,0,1,4.0445,1.0852V11.0841a74.3259,74.3259,0,0,0,0,148.4363Z"/><path class="cls-2" d="M87.3684,11.06V45.8117a38.1053,38.1053,0,0,1,6.7468,1.5166,11.8041,11.8041,0,1,1,19.1062,13.6259A39.1921,39.1921,0,0,1,121.25,83.871a7.25,7.25,0,0,1-2.0239,13.4629,39.3277,39.3277,0,0,1-6.7251,12.2634,4.324,4.324,0,0,1,2.0266,3.6087,4.4,4.4,0,0,1-4.4,4.4,4.3269,4.3269,0,0,1-3.6258-2.0516,39.4142,39.4142,0,0,1-7.24,4.586,5.5751,5.5751,0,1,1-10.1047,3.3838c-.5906.1106-1.19.1948-1.7893.2795v35.7407a74.3107,74.3107,0,0,0,0-148.4843Z"/><path class="cls-2" d="M88.3684,101.57a4.909,4.909,0,1,1,4.909,4.9089A4.9089,4.9089,0,0,1,88.3684,101.57Z"/><path class="cls-2" d="M96.4048,78.6164a4.0182,4.0182,0,1,0-4.0183,4.0186A4.0184,4.0184,0,0,0,96.4048,78.6164Z"/><path class="cls-2" d="M106.0244,45.6264a5.7021,5.7021,0,1,0,5.7022,5.7024A5.7022,5.7022,0,0,0,106.0244,45.6264Z"/><path class="cls-2" d="M108.0316,113.6181a2.0073,2.0073,0,1,0,2.0072-2.0073A2.007,2.007,0,0,0,108.0316,113.6181Z"/><path class="cls-2" d="M90.3682,122.2754a3.9091,3.9091,0,1,0,3.9092-3.909A3.909,3.909,0,0,0,90.3682,122.2754Z"/><circle class="cls-2" cx="119.1851" cy="90.9653" r="5.094"/><circle class="cls-1" cx="70.7092" cy="61.9468" r="1.4026"/><path class="cls-1" d="M66.7043,123.8762a4.4192,4.4192,0,1,0,4.4195-4.4194A4.4192,4.4192,0,0,0,66.7043,123.8762Z"/><path class="cls-1" d="M75.5427,53.9187a4.5948,4.5948,0,1,0-4.5945-4.595A4.5948,4.5948,0,0,0,75.5427,53.9187Z"/><path class="cls-1" d="M54.7461,113.6181a6.292,6.292,0,1,0-6.292-6.2922A6.2917,6.2917,0,0,0,54.7461,113.6181Z"/><path class="cls-1" d="M81.2961,84.8281a5.174,5.174,0,1,0-5.174,5.1741A5.1739,5.1739,0,0,0,81.2961,84.8281Z"/><path class="cls-1" d="M41.0533,90.083A2.0228,2.0228,0,1,0,43.0761,88.06,2.0232,2.0232,0,0,0,41.0533,90.083Z"/><path class="cls-1" d="M56.2966,64.0808a8.8847,8.8847,0,1,0-8.8846,8.8845A8.8847,8.8847,0,0,0,56.2966,64.0808Z"/></svg>