<svg id="Layer_2" data-name="Layer 2" xmlns="http://www.w3.org/2000/svg" viewBox="0 0 156.4383 169.4051"><defs><style>.cls-1{fill:#fff;}</style></defs><title>CCDH-LOGO</title><path class="cls-1" d="M74.3256,123.8384c-1.3854-.0735-2.75-.2249-4.099-.4248A7.4288,7.4288,0,1,1,56.6328,118.76a39.3805,39.3805,0,0,1-3.7681-2.4463,8.889,8.889,0,0,1-4.3044,1.1434,8.9556,8.9556,0,0,1-7.2336-14.28,39.1714,39.1714,0,0,1-3.8736-10.5857,2.8062,2.8062,0,0,1-.8491.1716,2.89,2.89,0,0,1,0-5.7795c.0457,0,.084.0239.1292.0261-.055-.8479-.1292-1.6907-.1292-2.5518a39.5567,39.5567,0,0,1,.8755-8.2358,12.6467,12.6467,0,0,1,12.9558-21.72,39.365,39.365,0,0,1,11.58-6.8626,8.2777,8.2777,0,0,1,8.2654-8.0276,8.1411,8.1411,0,0,1,4.0446,1.0853v-29.95a74.3259,74.3259,0,0,0,0,148.4363Z"/><path class="cls-1" d="M81.43,10.7231V45.4748a38.123,38.123,0,0,1,6.7468,1.5166,11.8041,11.8041,0,1,1,19.1062,13.626,39.1921,39.1921,0,0,1,8.0288,22.9168,7.25,7.25,0,0,1-2.0239,13.4628,39.3282,39.3282,0,0,1-6.7251,12.2635,4.3238,4.3238,0,0,1,2.0266,3.6086,4.4,4.4,0,0,1-4.4,4.4,4.3265,4.3265,0,0,1-3.6257-2.0515,39.4179,39.4179,0,0,1-7.24,4.5859A5.5751,5.5751,0,1,1,83.22,123.1872c-.5906.1106-1.19.1949-1.7893.28v35.7407a74.3108,74.3108,0,0,0,0-148.4844Z"/><path class="cls-1" d="M82.43,101.233a4.909,4.909,0,1,1,4.909,4.9089A4.9089,4.9089,0,0,1,82.43,101.233Z"/><path class="cls-1" d="M90.4666,78.28a4.0182,4.0182,0,1,0-4.0183,4.0185A4.0184,4.0184,0,0,0,90.4666,78.28Z"/><path class="cls-1" d="M100.0863,45.29a5.7021,5.7021,0,1,0,5.7021,5.7024A5.7022,5.7022,0,0,0,100.0863,45.29Z"/><path class="cls-1" d="M102.0935,113.2813a2.0073,2.0073,0,1,0,2.0072-2.0073A2.007,2.007,0,0,0,102.0935,113.2813Z"/><path class="cls-1" d="M84.43,121.9385a3.9091,3.9091,0,1,0,3.9092-3.9089A3.9091,3.9091,0,0,0,84.43,121.9385Z"/><circle class="cls-1" cx="113.2469" cy="90.6285" r="5.094"/><circle class="cls-1" cx="64.771" cy="61.6099" r="1.4026"/><path class="cls-1" d="M60.7662,123.5394a4.4192,4.4192,0,1,0,4.4194-4.4195A4.4191,4.4191,0,0,0,60.7662,123.5394Z"/><path class="cls-1" d="M69.6045,53.5818A4.5947,4.5947,0,1,0,65.01,48.9869,4.5948,4.5948,0,0,0,69.6045,53.5818Z"/><path class="cls-1" d="M48.8079,113.2813a6.292,6.292,0,1,0-6.292-6.2922A6.2918,6.2918,0,0,0,48.8079,113.2813Z"/><path class="cls-1" d="M75.358,84.4913a5.174,5.174,0,1,0-5.1741,5.174A5.174,5.174,0,0,0,75.358,84.4913Z"/><path class="cls-1" d="M35.1152,89.7461a2.0227,2.0227,0,1,0,2.0227-2.0227A2.0231,2.0231,0,0,0,35.1152,89.7461Z"/><path class="cls-1" d="M50.3584,63.7439a8.8846,8.8846,0,1,0-8.8846,8.8846A8.8847,8.8847,0,0,0,50.3584,63.7439Z"/></svg>