<svg id="Layer_2" data-name="Layer 2" xmlns="http://www.w3.org/2000/svg" viewBox="0 0 225.279 276.302"><defs><style>.cls-1{fill:#fff;}</style></defs><title>CCDH-LOGO</title><path class="cls-1" d="M107.1662,133.8384c-1.3853-.0735-2.75-.2249-4.099-.4248A7.4288,7.4288,0,1,1,89.4735,128.76a39.368,39.368,0,0,1-3.7681-2.4463,8.89,8.89,0,0,1-4.3044,1.1434,8.9557,8.9557,0,0,1-7.2337-14.28,39.1712,39.1712,0,0,1-3.8735-10.5857,2.8062,2.8062,0,0,1-.8491.1716,2.89,2.89,0,0,1,0-5.7795c.0456,0,.084.0239.1291.0261-.0549-.8479-.1291-1.6907-.1291-2.5518a39.55,39.55,0,0,1,.8755-8.2358,12.6467,12.6467,0,0,1,12.9558-21.72,39.3637,39.3637,0,0,1,11.58-6.8626,8.2777,8.2777,0,0,1,8.2654-8.0276,8.1408,8.1408,0,0,1,4.0445,1.0853v-29.95a74.3259,74.3259,0,0,0,0,148.4363Z"/><path class="cls-1" d="M114.2709,20.7231V55.4748a38.123,38.123,0,0,1,6.7468,1.5166,11.8041,11.8041,0,1,1,19.1062,13.626,39.1921,39.1921,0,0,1,8.0288,22.9168,7.25,7.25,0,0,1-2.0239,13.4628,39.3282,39.3282,0,0,1-6.7251,12.2635,4.3238,4.3238,0,0,1,2.0266,3.6086,4.4,4.4,0,0,1-4.4,4.4,4.3268,4.3268,0,0,1-3.6258-2.0515,39.4137,39.4137,0,0,1-7.24,4.5859,5.5751,5.5751,0,1,1-10.1047,3.3838c-.5906.1106-1.19.1949-1.7893.28v35.7407a74.3108,74.3108,0,0,0,0-148.4844Z"/><path class="cls-1" d="M115.2709,111.233a4.909,4.909,0,1,1,4.909,4.9089A4.9089,4.9089,0,0,1,115.2709,111.233Z"/><path class="cls-1" d="M123.3073,88.28a4.0182,4.0182,0,1,0-4.0183,4.0185A4.0184,4.0184,0,0,0,123.3073,88.28Z"/><path class="cls-1" d="M132.9269,55.29a5.7021,5.7021,0,1,0,5.7022,5.7024A5.7022,5.7022,0,0,0,132.9269,55.29Z"/><path class="cls-1" d="M134.9341,123.2813a2.0073,2.0073,0,1,0,2.0072-2.0073A2.0071,2.0071,0,0,0,134.9341,123.2813Z"/><path class="cls-1" d="M117.2707,131.9385A3.9091,3.9091,0,1,0,121.18,128.03,3.9091,3.9091,0,0,0,117.2707,131.9385Z"/><circle class="cls-1" cx="146.0876" cy="100.6285" r="5.094"/><circle class="cls-1" cx="97.6117" cy="71.6099" r="1.4026"/><path class="cls-1" d="M93.6068,133.5394a4.4192,4.4192,0,1,0,4.4195-4.4195A4.4192,4.4192,0,0,0,93.6068,133.5394Z"/><path class="cls-1" d="M102.4452,63.5818a4.5947,4.5947,0,1,0-4.5945-4.5949A4.5948,4.5948,0,0,0,102.4452,63.5818Z"/><path class="cls-1" d="M81.6486,123.2813a6.292,6.292,0,1,0-6.292-6.2922A6.2917,6.2917,0,0,0,81.6486,123.2813Z"/><path class="cls-1" d="M108.1986,94.4913a5.174,5.174,0,1,0-5.174,5.174A5.1739,5.1739,0,0,0,108.1986,94.4913Z"/><path class="cls-1" d="M67.9558,99.7461a2.0228,2.0228,0,1,0,2.0228-2.0227A2.0231,2.0231,0,0,0,67.9558,99.7461Z"/><path class="cls-1" d="M83.1991,73.7439a8.8847,8.8847,0,1,0-8.8846,8.8846A8.8847,8.8847,0,0,0,83.1991,73.7439Z"/><path class="cls-1" d="M53.7719,228.8089a8.0682,8.0682,0,0,1-2.8571.4434,7.0734,7.0734,0,0,1-4.5558-1.3507,6.416,6.416,0,0,1-2.413-5.251c0-3.8224,2.78-6.4666,6.7563-6.4666a6.6412,6.6412,0,0,1,2.9345.5785L53.4823,218.5a4.8566,4.8566,0,0,0-2.6835-.7525,4.6667,4.6667,0,0,0-4.8839,4.8641,4.8392,4.8392,0,0,0,4.9614,5,7.2227,7.2227,0,0,0,2.7605-.5792Z"/><path class="cls-1" d="M61.2978,216.28h1.93l5.5791,12.8759H66.7415L65.39,225.8938H59.1355l-1.332,3.2623H55.8152Zm3.4554,8.05-1.4865-3.59a18.7448,18.7448,0,0,1-1.0425-2.8769,27.7191,27.7191,0,0,1-1.0809,2.915L59.7147,224.33Z"/><path class="cls-1" d="M70.7746,216.28h2.5095l4.3822,7.5868a21.5254,21.5254,0,0,1,1.7566,3.6866c-.1156-1.1195-.193-2.9921-.193-5.077V216.28H81.064v12.8759H78.6892l-4.0731-6.9878a20.5931,20.5931,0,0,1-2.1619-4.4207c.0965,1.1.1542,3.1654.1542,4.845v6.5635H70.7746Z"/><path class="cls-1" d="M95.19,228.8089a8.0682,8.0682,0,0,1-2.8571.4434,7.0732,7.0732,0,0,1-4.5558-1.3507,6.416,6.416,0,0,1-2.413-5.251c0-3.8224,2.78-6.4666,6.7563-6.4666a6.6412,6.6412,0,0,1,2.9345.5785L94.9006,218.5a4.8569,4.8569,0,0,0-2.6835-.7525,4.6667,4.6667,0,0,0-4.8839,4.8641,4.8391,4.8391,0,0,0,4.9613,5,7.2228,7.2228,0,0,0,2.7606-.5792Z"/><path class="cls-1" d="M99.028,216.28H106.19v1.5636h-5.328v3.8033h4.9419v1.5636h-4.9419v4.3818h5.4825v1.5636H99.028Z"/><path class="cls-1" d="M110.9159,216.28h3.1082a7.8735,7.8735,0,0,1,2.8956.3281,3.1554,3.1554,0,0,1,2.1428,3.0692,3.0436,3.0436,0,0,1-1.0619,2.355,3.298,3.298,0,0,1-1.68.6761,2.8642,2.8642,0,0,1,1.6026,1.7567l2.1813,4.6908h-2.1237l-1.66-3.8605c-.6948-1.6026-1.0424-1.8727-2.51-1.8727H112.75v5.7332h-1.8338Zm2.9731,5.5592a6.2992,6.2992,0,0,0,2.0074-.2312,1.8846,1.8846,0,0,0,.0385-3.5523,5.57,5.57,0,0,0-1.8532-.2121H112.75v3.9956Z"/><path class="cls-1" d="M130.4274,216.28h2.664a12.5649,12.5649,0,0,1,3.4363.309,6.2764,6.2764,0,0,1,4.6329,6.1774,6.0991,6.0991,0,0,1-4.3242,5.9645,11.0206,11.0206,0,0,1-3.4554.425h-2.9536Zm2.7991,11.3123a7.5533,7.5533,0,0,0,3.2432-.4632,4.6235,4.6235,0,0,0,2.722-4.4207,4.7554,4.7554,0,0,0-3.05-4.5367,8.9072,8.9072,0,0,0-2.8957-.3281h-.9848v9.7487Z"/><path class="cls-1" d="M148.7628,216.28h1.93l5.5791,12.8759h-2.0657l-1.3515-3.2623h-6.2544l-1.3321,3.2623H143.28Zm3.4554,8.05-1.4865-3.59a18.7288,18.7288,0,0,1-1.0424-2.8769,27.7293,27.7293,0,0,1-1.081,2.915L147.18,224.33Z"/><path class="cls-1" d="M161.056,217.8438h-4.1117V216.28h9.98v1.5636H162.89v11.3123H161.056Z"/><path class="cls-1" d="M173.1377,216.28h1.93l5.5791,12.8759h-2.0658l-1.3514-3.2623h-6.2545l-1.332,3.2623h-1.9883Zm3.4553,8.05-1.4865-3.59a18.74,18.74,0,0,1-1.0424-2.8769,27.7293,27.7293,0,0,1-1.081,2.915l-1.4285,3.5523Z"/><path class="cls-1" d="M66.2989,207.8906a8.4312,8.4312,0,0,1-2.9846.4636,7.3883,7.3883,0,0,1-4.76-1.4117,6.7021,6.7021,0,0,1-2.521-5.4853c0-3.9931,2.9043-6.756,7.0587-6.756a6.9387,6.9387,0,0,1,3.0655.6047l-.1612,1.8148a5.0734,5.0734,0,0,0-2.8032-.7861,4.8756,4.8756,0,0,0-5.1024,5.0822,5.0558,5.0558,0,0,0,5.183,5.2234,7.5466,7.5466,0,0,0,2.8838-.6054Z"/><path class="cls-1" d="M70.577,194.802h7.4819v1.6334H72.493v3.9729h5.1628v1.6334H72.493V206.62h5.7276v1.6334H70.577Z"/><path class="cls-1" d="M82.6324,194.802h2.6217l4.578,7.9257a22.5222,22.5222,0,0,1,1.8353,3.852c-.1213-1.17-.2019-3.1264-.2019-5.3039V194.802h1.9159v13.4514h-2.48l-4.2555-7.3009a21.4877,21.4877,0,0,1-2.2589-4.6179c.1011,1.15.1616,3.307.1616,5.0621v6.8567H82.6324Z"/><path class="cls-1" d="M101.4474,196.4354H97.1516V194.802h10.4265v1.6334h-4.2148v11.818h-1.9159Z"/><path class="cls-1" d="M111.1156,194.802h7.4819v1.6334h-5.566v3.9729h5.1629v1.6334h-5.1629V206.62h5.7276v1.6334h-7.6435Z"/><path class="cls-1" d="M123.0035,194.802H126.25a8.2259,8.2259,0,0,1,3.0249.3427,3.2956,3.2956,0,0,1,2.2388,3.2062,3.18,3.18,0,0,1-1.1093,2.46,3.4392,3.4392,0,0,1-1.7547.7062,2.9906,2.9906,0,0,1,1.674,1.8349l2.2791,4.9009h-2.2186L128.65,204.22c-.726-1.6737-1.0888-1.9566-2.6217-1.9566h-1.109v5.99h-1.9159Zm3.1058,5.8079a6.5775,6.5775,0,0,0,2.0974-.2419,1.9687,1.9687,0,0,0,.04-3.7109,5.8138,5.8138,0,0,0-1.9361-.2217h-1.3915V200.61Z"/><path class="cls-1" d="M151.2382,197.494a.6631.6631,0,0,1-.5517.2532.6936.6936,0,0,1-.5065-.1952.6257.6257,0,0,1-.1989-.46,2.1028,2.1028,0,0,1,.1717-.6276.2629.2629,0,0,0-.1174-.2092.3869.3869,0,0,0-.2481-.0815q-.6789,0-1.1361,1.4586a24.0619,24.0619,0,0,0-.5744,2.8366h2.0162l-.1266.6056h-2.0573l-1.73,5.9072a12.212,12.212,0,0,1-1.4722,3.7879,2.7362,2.7362,0,0,1-2.3635,1.4455,1.63,1.63,0,0,1-1.082-.3531,1.0171,1.0171,0,0,1-.4225-.7862.8266.8266,0,0,1,.1762-.5066.6186.6186,0,0,1,.5293-.2349.7226.7226,0,0,1,.52.2034.6672.6672,0,0,1,.1175.8317.609.609,0,0,0-.0947.2305.1577.1577,0,0,0,.1039.1358.5785.5785,0,0,0,.2672.0543q.77,0,1.3041-1.2119a9.1518,9.1518,0,0,0,.516-1.745l2.1487-7.7586h-1.673l.1267-.6056h1.7515a11.2038,11.2038,0,0,1,1.11-3.12,2.6409,2.6409,0,0,1,2.2606-1.5556,1.513,1.513,0,0,1,1.0252.3531,1.0423,1.0423,0,0,1,.4092.8046A.8628.8628,0,0,1,151.2382,197.494Z"/><path class="cls-1" d="M158.42,200.9618a3.0411,3.0411,0,0,1,.624,1.9123,5.5806,5.5806,0,0,1-1.691,3.7623,5.0418,5.0418,0,0,1-3.7255,1.9167,2.7579,2.7579,0,0,1-1.9986-.7231,2.6944,2.6944,0,0,1-.7506-2.0349,5.5273,5.5273,0,0,1,1.6822-3.7887,5.0345,5.0345,0,0,1,3.7163-1.8543A2.5475,2.5475,0,0,1,158.42,200.9618Zm-5.6019,6.6913a1.2948,1.2948,0,0,0,1.0986.4933q1.4739,0,2.6134-2.225a7.843,7.843,0,0,0,.9675-3.5083,3.0572,3.0572,0,0,0-.1626-1.0938,1.1542,1.1542,0,0,0-1.1577-.7869q-1.3836,0-2.595,2.0709a7.4705,7.4705,0,0,0-1.14,3.807A1.9914,1.9914,0,0,0,152.8183,207.6531Z"/><path class="cls-1" d="M165.19,200.1749a.21.21,0,0,1,.0316.113c-.0055.0617-.011.1079-.0169.138l-.9213,3.5274.2092-.4185a12.6711,12.6711,0,0,1,1.5229-2.3285,2.34,2.34,0,0,1,1.6583-1.0542.802.802,0,0,1,.6552.28,1.055,1.055,0,0,1,0,1.3163.7961.7961,0,0,1-.636.2665.6973.6973,0,0,1-.4244-.1087.8043.8043,0,0,1-.2253-.2533l-.1083-.1989a.299.299,0,0,0-.0859-.0859.2273.2273,0,0,0-.1218-.0316q-.3536,0-1.0186.9859a14.8374,14.8374,0,0,0-1.19,2.134q-.3166.6971-.7059,1.8448-.246.7234-.6562,2.0525h-1.3882l1.5074-5.4433q.1267-.47.2038-.8412a3.1354,3.1354,0,0,0,.0767-.6057.5858.5858,0,0,0-.1355-.4162.6292.6292,0,0,0-.4705-.1446,2.4387,2.4387,0,0,0-.2713.0184c-.1082.0117-.2382.0264-.3887.0447v-.298l.3619-.0727q.7059-.1443,1.5424-.3076t.8823-.1622A.1235.1235,0,0,1,165.19,200.1749Z"/><path class="cls-1" d="M33.6529,235.9766h1.8338v5.4051h6.2354v-5.4051h1.8341v12.876H41.7221v-5.9072H35.4867v5.9072H33.6529Z"/><path class="cls-1" d="M51.0047,235.9766h1.93l5.5791,12.876H56.4484L55.0969,245.59H48.8424l-1.332,3.2623H45.5221Zm3.4554,8.05-1.4866-3.59a18.7364,18.7364,0,0,1-1.0424-2.8769,27.7261,27.7261,0,0,1-1.0809,2.9151l-1.4286,3.5523Z"/><path class="cls-1" d="M61.0317,235.9766h3.3719a9.2263,9.2263,0,0,1,3.1415.3281A3.1812,3.1812,0,0,1,69.87,239.374a2.9483,2.9483,0,0,1-1.152,2.355,3.7478,3.7478,0,0,1-1.8222.6761,2.9743,2.9743,0,0,1,1.7386,1.7566l2.3665,4.6909h-2.304l-1.8011-3.8606c-.7538-1.6025-1.1309-1.8727-2.7225-1.8727h-1.152v5.7333H61.0317Zm3.2254,5.5593a7.3842,7.3842,0,0,0,2.1778-.2312,1.84,1.84,0,0,0,.0418-3.5523,6.5228,6.5228,0,0,0-2.01-.2122H63.0211v3.9957Z"/><path class="cls-1" d="M74.14,235.9766h2.9349l1.916,6.4666.8481,2.9151a1.8771,1.8771,0,0,0,.0771.245l.9019-3.1982,1.8575-6.4285h2.8625v12.876H83.8361v-7.3549c0-1.1973.0439-3.3012.0439-4.4016v-.27l-.0878.3281-.2339,1.0042c-.1171.5014-.1318.5594-.6438,2.3932l-.2922,1.1c-.1026.3861-.205.6952-.2781.9462l-1.8281,6.2545H79.1705l-1.8425-6.2545c-1.1262-3.8415-1.1115-3.8415-1.4919-5.4249,0-.0382-.0439-.1733-.0876-.3472v.2892c.0729,1.0622.0729,1.0622.0876,1.7574,0,.3472.0147.8684.0292,1.4858.0147.5792.0292,1.0043.0292,1.2744v7.22H74.14Z"/><path class="cls-1" d="M87.3849,242.1922a8.4146,8.4146,0,0,1,1.5277-5.0572,4.5732,4.5732,0,0,1,3.7867-1.66c3.1364,0,5.1677,2.6258,5.1677,6.6986a8.4562,8.4562,0,0,1-1.3,4.7488,4.5963,4.5963,0,0,1-3.9165,1.9307,4.6463,4.6463,0,0,1-3.8192-1.8147A8.2917,8.2917,0,0,1,87.3849,242.1922Zm5.2492,5.2128c2.0966,0,3.5754-2.1428,3.5754-5.193,0-3.1272-1.4464-5.29-3.5265-5.29-2.21,0-3.64,2.0467-3.64,5.2319C89.0427,245.2423,90.5215,247.405,92.6341,247.405Z"/><path class="cls-1" d="M167.368,242.1922a8.4153,8.4153,0,0,1,1.5277-5.0572,4.5735,4.5735,0,0,1,3.7868-1.66c3.1363,0,5.1676,2.6258,5.1676,6.6986a8.457,8.457,0,0,1-1.3,4.7488,4.5966,4.5966,0,0,1-3.9166,1.9307,4.6465,4.6465,0,0,1-3.8192-1.8147A8.2917,8.2917,0,0,1,167.368,242.1922Zm5.2493,5.2128c2.0965,0,3.5754-2.1428,3.5754-5.193,0-3.1272-1.4464-5.29-3.5266-5.29-2.21,0-3.64,2.0467-3.64,5.2319C169.0258,245.2423,170.5046,247.405,172.6173,247.405Z"/><path class="cls-1" d="M100.0726,235.9766h2.51l4.3822,7.5869a21.5218,21.5218,0,0,1,1.7566,3.6866c-.116-1.12-.193-2.9922-.193-5.077v-6.1965h1.8341v12.876h-2.3744l-4.0735-6.9878a20.5931,20.5931,0,0,1-2.1619-4.4207c.0965,1.1.1541,3.1654.1541,4.845v6.5635h-1.8337Z"/><path class="cls-1" d="M115.05,235.9766h1.8341v12.876H115.05Z"/><path class="cls-1" d="M120.7047,247.289l5.2315-7.5869a22.0091,22.0091,0,0,1,1.6407-2.2008c-.9459.0389-.9459.0389-1.7952.0389h-4.8454v-1.5636h8.6289v1.6987l-5.5207,7.9341c-.1355.2121-.29.4052-.4251.5983a5.8377,5.8377,0,0,0-.3472.483l-.2511.3281a3.213,3.213,0,0,0-.2121.3282,9.8407,9.8407,0,0,1,1.4282-.058h5.444v1.5636h-8.9765Z"/><path class="cls-1" d="M138.47,235.9766h1.93l5.5791,12.876h-2.0657l-1.3515-3.2623h-6.2545l-1.332,3.2623h-1.9883Zm3.4554,8.05-1.4866-3.59a18.7478,18.7478,0,0,1-1.0424-2.8769,27.7261,27.7261,0,0,1-1.0809,2.9151l-1.4286,3.5523Z"/><path class="cls-1" d="M150.7628,237.54h-4.1116v-1.5636h9.98V237.54h-4.0349v11.3124h-1.8338Z"/><path class="cls-1" d="M160.75,235.9766h1.8341v12.876H160.75Z"/><path class="cls-1" d="M180.6508,235.9766h2.51l4.3821,7.5869a21.5236,21.5236,0,0,1,1.7567,3.6866c-.1156-1.12-.193-2.9922-.193-5.077v-6.1965H190.94v12.876h-2.3748l-4.0731-6.9878a20.5931,20.5931,0,0,1-2.1619-4.4207c.0965,1.1.1541,3.1654.1541,4.845v6.5635h-1.8337Z"/></svg>