<svg id="Layer_2" data-name="Layer 2" xmlns="http://www.w3.org/2000/svg" viewBox="0 0 397.7339 178.6043"><defs><style>.cls-1{fill:#231f20;}.cls-2{fill:#7b7b7b;}</style></defs><title>CCDH-LOGO</title><path class="cls-1" d="M72.725,128.1752c-1.3853-.0735-2.75-.2249-4.099-.4248a7.4288,7.4288,0,1,1-13.5937-4.6533,39.368,39.368,0,0,1-3.7681-2.4463,8.8906,8.8906,0,0,1-4.3044,1.1433,8.9557,8.9557,0,0,1-7.2337-14.28,39.17,39.17,0,0,1-3.8735-10.5857,2.8069,2.8069,0,0,1-.8491.1717,2.89,2.89,0,0,1,0-5.78c.0456,0,.084.0239.1291.0261-.0549-.8479-.1291-1.6906-.1291-2.5517a39.5516,39.5516,0,0,1,.8755-8.2359,12.6467,12.6467,0,0,1,12.9558-21.72,39.3634,39.3634,0,0,1,11.58-6.8625,8.2776,8.2776,0,0,1,8.2654-8.0276,8.1407,8.1407,0,0,1,4.0445,1.0852V15.0841a74.3259,74.3259,0,0,0,0,148.4363Z"/><path class="cls-2" d="M79.83,15.06V49.8117a38.1053,38.1053,0,0,1,6.7468,1.5166,11.8041,11.8041,0,1,1,19.1062,13.6259,39.1921,39.1921,0,0,1,8.0288,22.9168,7.25,7.25,0,0,1-2.0239,13.4629,39.3277,39.3277,0,0,1-6.7251,12.2634,4.3242,4.3242,0,0,1,2.0266,3.6087,4.4,4.4,0,0,1-4.4,4.4,4.3269,4.3269,0,0,1-3.6258-2.0516,39.4176,39.4176,0,0,1-7.24,4.586,5.5751,5.5751,0,1,1-10.1047,3.3838c-.5906.1106-1.19.1948-1.7893.2795v35.7407a74.3107,74.3107,0,0,0,0-148.4843Z"/><path class="cls-2" d="M80.83,105.57a4.909,4.909,0,1,1,4.909,4.9089A4.9089,4.9089,0,0,1,80.83,105.57Z"/><path class="cls-2" d="M88.8661,82.6164a4.0182,4.0182,0,1,0-4.0183,4.0186A4.0184,4.0184,0,0,0,88.8661,82.6164Z"/><path class="cls-2" d="M98.4857,49.6264a5.7021,5.7021,0,1,0,5.7022,5.7024A5.7022,5.7022,0,0,0,98.4857,49.6264Z"/><path class="cls-2" d="M100.4929,117.6181a2.0073,2.0073,0,1,0,2.0072-2.0073A2.007,2.007,0,0,0,100.4929,117.6181Z"/><path class="cls-2" d="M82.83,126.2754a3.9091,3.9091,0,1,0,3.9092-3.909A3.909,3.909,0,0,0,82.83,126.2754Z"/><circle class="cls-2" cx="111.6464" cy="94.9653" r="5.094"/><circle class="cls-1" cx="63.1705" cy="65.9468" r="1.4026"/><path class="cls-1" d="M59.1656,127.8762a4.4192,4.4192,0,1,0,4.4195-4.4194A4.4192,4.4192,0,0,0,59.1656,127.8762Z"/><path class="cls-1" d="M68.004,57.9187a4.5948,4.5948,0,1,0-4.5945-4.595A4.5948,4.5948,0,0,0,68.004,57.9187Z"/><path class="cls-1" d="M47.2074,117.6181a6.292,6.292,0,1,0-6.292-6.2922A6.2917,6.2917,0,0,0,47.2074,117.6181Z"/><path class="cls-1" d="M73.7574,88.8281a5.174,5.174,0,1,0-5.174,5.1741A5.1739,5.1739,0,0,0,73.7574,88.8281Z"/><path class="cls-1" d="M33.5146,94.083A2.0227,2.0227,0,1,0,35.5373,92.06,2.0231,2.0231,0,0,0,33.5146,94.083Z"/><path class="cls-1" d="M48.7579,68.0808a8.8847,8.8847,0,1,0-8.8846,8.8845A8.8847,8.8847,0,0,0,48.7579,68.0808Z"/><path class="cls-1" d="M181.53,74.2789a11.213,11.213,0,0,1-3.97.6167,9.8281,9.8281,0,0,1-6.3319-1.8779,8.9157,8.9157,0,0,1-3.3537-7.2971c0-5.312,3.8636-8.9874,9.39-8.9874a9.2307,9.2307,0,0,1,4.0781.8044l-.2145,2.4142a6.7485,6.7485,0,0,0-3.729-1.0457,6.4859,6.4859,0,0,0-6.7877,6.7608,6.7256,6.7256,0,0,0,6.8949,6.9486,10.0387,10.0387,0,0,0,3.8363-.8054Z"/><path class="cls-1" d="M187.2209,56.8673h9.9532V59.04H189.77v5.2852h6.8681v2.1729H189.77v6.0905h7.6194v2.1729H187.2209Z"/><path class="cls-1" d="M203.2581,56.8673h3.4877l6.09,10.5435a29.9565,29.9565,0,0,1,2.4414,5.1243c-.1613-1.5562-.2686-4.159-.2686-7.0558v-8.612h2.5488V74.7616h-3.3l-5.661-9.7124a28.5887,28.5887,0,0,1-3.0051-6.1431c.1346,1.5293.215,4.3993.215,6.734v9.1215h-2.5487Z"/><path class="cls-1" d="M228.2876,59.04h-5.7147V56.8673h13.87V59.04h-5.6069V74.7616h-2.5488Z"/><path class="cls-1" d="M241.1492,56.8673h9.9532V59.04H243.698v5.2852h6.8681v2.1729H243.698v6.0905h7.6194v2.1729H241.1492Z"/><path class="cls-1" d="M256.9637,56.8673h4.3194a10.9438,10.9438,0,0,1,4.024.4558,4.3843,4.3843,0,0,1,2.9782,4.2653,4.231,4.231,0,0,1-1.4757,3.2732,4.5757,4.5757,0,0,1-2.3343.9394,3.9783,3.9783,0,0,1,2.227,2.441l3.0319,6.52h-2.9514l-2.3075-5.3656c-.9657-2.2265-1.4484-2.6029-3.4877-2.6029h-1.4752v7.9685h-2.5487Zm4.1317,7.7261a8.7489,8.7489,0,0,0,2.79-.3217,2.619,2.619,0,0,0,.0536-4.9366,7.7354,7.7354,0,0,0-2.5756-.295h-1.8511v5.5533Z"/><path class="cls-1" d="M180.9451,102.1066a10.7347,10.7347,0,0,1-3.8008.59,9.4094,9.4094,0,0,1-6.06-1.7969,8.535,8.535,0,0,1-3.21-6.9853c0-5.085,3.6978-8.6026,8.9878-8.6026a8.8358,8.8358,0,0,1,3.9038.77l-.2055,2.3115a6.4614,6.4614,0,0,0-3.57-1.001,6.2081,6.2081,0,0,0-6.4971,6.4707,6.4375,6.4375,0,0,0,6.6,6.6514,9.61,9.61,0,0,0,3.6723-.77Z"/><path class="cls-1" d="M190.9568,85.44h2.5679l7.4219,17.1289h-2.7481l-1.7978-4.34h-8.32l-1.772,4.34h-2.645Zm4.5967,10.709-1.9775-4.7764a24.9213,24.9213,0,0,1-1.3867-3.8272,36.9015,36.9015,0,0,1-1.438,3.878l-1.9,4.7256Z"/><path class="cls-1" d="M203.5638,85.44h3.3384l5.83,10.0927a28.644,28.644,0,0,1,2.3369,4.9043c-.1538-1.4892-.2569-3.98-.2569-6.7539V85.44h2.44v17.1289h-3.1592l-5.4185-9.2959a27.3956,27.3956,0,0,1-2.8759-5.8809c.1284,1.4629.205,4.211.205,6.4453v8.7315h-2.4394Z"/><path class="cls-1" d="M236.0438,102.1066a10.7355,10.7355,0,0,1-3.8008.59,9.41,9.41,0,0,1-6.0606-1.7969,8.5352,8.5352,0,0,1-3.21-6.9853c0-5.085,3.6977-8.6026,8.9878-8.6026a8.8361,8.8361,0,0,1,3.9038.77l-.2056,2.3115a6.4614,6.4614,0,0,0-3.57-1.001,6.2081,6.2081,0,0,0-6.4971,6.4707,6.4375,6.4375,0,0,0,6.6,6.6514,9.6106,9.6106,0,0,0,3.6724-.77Z"/><path class="cls-1" d="M241.1492,85.44h9.5274v2.08h-7.0879v5.06h6.5742v2.08h-6.5742v5.8291h7.2934v2.08h-9.7329Z"/><path class="cls-1" d="M256.9637,85.44h4.1348a10.4746,10.4746,0,0,1,3.852.4365,4.1978,4.1978,0,0,1,2.8506,4.083,4.0491,4.0491,0,0,1-1.4126,3.1328,4.3876,4.3876,0,0,1-2.2344.8994,3.81,3.81,0,0,1,2.1319,2.3369l2.9018,6.24h-2.8252l-2.2085-5.1358c-.9243-2.1318-1.3867-2.4912-3.3384-2.4912h-1.4126v7.627h-2.4394Zm3.9551,7.3955a8.3832,8.3832,0,0,0,2.67-.3076,2.5071,2.5071,0,0,0,.0512-4.7256,7.4059,7.4059,0,0,0-2.4653-.2823h-1.772v5.3155Z"/><path class="cls-1" d="M282.92,85.44h3.544a16.716,16.716,0,0,1,4.5713.4111,8.3494,8.3494,0,0,1,6.1631,8.2178,8.1135,8.1135,0,0,1-5.7525,7.9345,14.6593,14.6593,0,0,1-4.5967.5655H282.92Zm3.7237,15.0488a10.0477,10.0477,0,0,0,4.3144-.6162,6.1507,6.1507,0,0,0,3.6211-5.8809,6.3258,6.3258,0,0,0-4.0576-6.0351,11.8461,11.8461,0,0,0-3.852-.4366h-1.31v12.9688Z"/><path class="cls-1" d="M307.3113,85.44h2.5679l7.4219,17.1289H314.553l-1.7978-4.34h-8.32l-1.772,4.34h-2.645Zm4.5967,10.709-1.9775-4.7764a24.9213,24.9213,0,0,1-1.3867-3.8272,36.9015,36.9015,0,0,1-1.438,3.878l-1.9,4.7256Z"/><path class="cls-1" d="M323.6649,87.52h-5.47V85.44H331.472v2.08h-5.3677v15.0489h-2.4394Z"/><path class="cls-1" d="M339.7371,85.44h2.5679l7.4219,17.1289h-2.7481l-1.7978-4.34h-8.32l-1.772,4.34h-2.645Zm4.5967,10.709-1.9775-4.7764A24.9372,24.9372,0,0,1,340.97,87.545a36.8913,36.8913,0,0,1-1.4379,3.878l-1.9,4.7256Z"/><path class="cls-1" d="M294.5242,60.4484a.8819.8819,0,0,1-.7339.3369.9226.9226,0,0,1-.6738-.26.832.832,0,0,1-.2646-.6113,2.7954,2.7954,0,0,1,.2285-.835.35.35,0,0,0-.1563-.2783.5148.5148,0,0,0-.33-.1084q-.9031,0-1.5113,1.94a31.9822,31.9822,0,0,0-.7641,3.7735h2.6821l-.1685.8056h-2.7368L287.7943,73.07a16.2461,16.2461,0,0,1-1.9585,5.0391,3.64,3.64,0,0,1-3.1441,1.9228,2.1673,2.1673,0,0,1-1.4394-.47,1.3527,1.3527,0,0,1-.5621-1.0459,1.1,1.1,0,0,1,.2344-.6738.8231.8231,0,0,1,.7041-.3125.9608.9608,0,0,1,.6914.27.8874.8874,0,0,1,.1563,1.1064.8115.8115,0,0,0-.126.3067.21.21,0,0,0,.1382.1806.77.77,0,0,0,.3555.0723q1.0239,0,1.7348-1.6123a12.1651,12.1651,0,0,0,.6865-2.3213l2.8584-10.3213h-2.2255l.1684-.8056h2.33a14.9081,14.9081,0,0,1,1.4766-4.15,3.5134,3.5134,0,0,1,3.0073-2.0694,2.0118,2.0118,0,0,1,1.3637.47,1.3865,1.3865,0,0,1,.5445,1.07A1.1477,1.1477,0,0,1,294.5242,60.4484Z"/><path class="cls-1" d="M304.0784,65.0616a4.0454,4.0454,0,0,1,.83,2.544,7.4238,7.4238,0,0,1-2.25,5.0049,6.7067,6.7067,0,0,1-4.9561,2.55,3.6685,3.6685,0,0,1-2.6586-.9619,3.5843,3.5843,0,0,1-.9986-2.7071,7.3532,7.3532,0,0,1,2.2378-5.04,6.6978,6.6978,0,0,1,4.9439-2.4668A3.3887,3.3887,0,0,1,304.0784,65.0616Zm-7.4521,8.9014a1.7224,1.7224,0,0,0,1.4614.6563q1.9606,0,3.4766-2.96a10.4334,10.4334,0,0,0,1.2871-4.667,4.0685,4.0685,0,0,0-.2163-1.4551,1.5355,1.5355,0,0,0-1.54-1.0469q-1.8405,0-3.4521,2.7549a9.938,9.938,0,0,0-1.5161,5.0645A2.6488,2.6488,0,0,0,296.6263,73.963Z"/><path class="cls-1" d="M313.0843,64.0148a.2794.2794,0,0,1,.042.15c-.0073.082-.0147.1435-.0225.1835l-1.2256,4.6924.2784-.5566a16.8543,16.8543,0,0,1,2.0258-3.0977,3.1133,3.1133,0,0,1,2.2061-1.4023,1.0668,1.0668,0,0,1,.8716.373,1.4036,1.4036,0,0,1,0,1.751,1.0593,1.0593,0,0,1-.8462.3545.9274.9274,0,0,1-.5645-.1445,1.0712,1.0712,0,0,1-.3-.3369l-.144-.2647a.3983.3983,0,0,0-.1143-.1142.3011.3011,0,0,0-.1621-.042q-.47,0-1.355,1.3115a19.736,19.736,0,0,0-1.5835,2.8389q-.421.9271-.9389,2.4541-.3274.9624-.8731,2.73h-1.8467l2.0054-7.2412q.1685-.6255.271-1.1191a4.1675,4.1675,0,0,0,.1021-.8057.7793.7793,0,0,0-.18-.5537.837.837,0,0,0-.626-.1924,3.245,3.245,0,0,0-.3608.0244c-.1441.0157-.3169.0352-.5171.06V64.671l.4814-.0967q.939-.1918,2.0518-.4091t1.1738-.2159A.1643.1643,0,0,1,313.0843,64.0148Z"/><path class="cls-1" d="M167.8738,111.6417h2.44v7.19h8.2949v-7.19h2.44v17.1289h-2.44v-7.8584h-8.2949v7.8584h-2.44Z"/><path class="cls-1" d="M190.9568,111.6417h2.5679l7.4219,17.1289h-2.7481l-1.7978-4.34h-8.32l-1.772,4.34h-2.645Zm4.5967,10.709-1.9775-4.7764a24.9176,24.9176,0,0,1-1.3867-3.8271,36.9032,36.9032,0,0,1-1.438,3.8779l-1.9,4.7256Z"/><path class="cls-1" d="M204.2957,111.6417h4.4858a12.273,12.273,0,0,1,4.179.4365,4.2318,4.2318,0,0,1,3.0925,4.083,3.922,3.922,0,0,1-1.5325,3.1329,4.9855,4.9855,0,0,1-2.424.8994,3.9567,3.9567,0,0,1,2.3128,2.3369l3.1482,6.24h-3.065l-2.396-5.1357c-1.0028-2.1319-1.5044-2.4912-3.6218-2.4912h-1.5325v7.6269h-2.6465Zm4.2908,7.3955a9.82,9.82,0,0,0,2.8971-.3076,2.4471,2.4471,0,0,0,.0556-4.7256,8.679,8.679,0,0,0-2.6746-.2822h-1.9224v5.3154Z"/><path class="cls-1" d="M221.7342,111.6417h3.9043l2.5488,8.6026,1.1283,3.8779a2.4894,2.4894,0,0,0,.1026.3259l1.2-4.2546,2.4711-8.5518h3.808v17.1289h-2.2646v-9.7842c0-1.5927.0584-4.3916.0584-5.8554v-.3594l-.1169.4365-.3111,1.336c-.1557.667-.1753.7441-.8563,3.1836l-.3888,1.4638c-.1365.5137-.2727.9248-.37,1.2588l-2.4318,8.32h-1.79l-2.4511-8.32c-1.4982-5.11-1.4786-5.11-1.9847-7.2168,0-.0508-.0584-.2305-.1165-.4619v.3848c.0969,1.413.0969,1.413.1165,2.3379,0,.4619.02,1.1552.0389,1.9765.02.77.0388,1.336.0388,1.6953v9.6045h-2.3335Z"/><path class="cls-1" d="M239.3533,119.91a11.1948,11.1948,0,0,1,2.0323-6.7276,6.0842,6.0842,0,0,1,5.0375-2.209c4.1723,0,6.8746,3.4932,6.8746,8.9112a11.25,11.25,0,0,1-1.7294,6.3174,6.1147,6.1147,0,0,1-5.21,2.5683,6.1812,6.1812,0,0,1-5.0807-2.414A11.0307,11.0307,0,0,1,239.3533,119.91Zm6.9831,6.9345c2.789,0,4.7564-2.8505,4.7564-6.9082,0-4.16-1.9242-7.0371-4.6915-7.0371-2.94,0-4.8426,2.7227-4.8426,6.96C241.5587,123.9679,243.526,126.8448,246.3364,126.8448Z"/><path class="cls-1" d="M345.7547,119.91a11.1948,11.1948,0,0,1,2.0323-6.7276,6.0842,6.0842,0,0,1,5.0375-2.209c4.1722,0,6.8745,3.4932,6.8745,8.9112a11.25,11.25,0,0,1-1.7293,6.3174,6.1147,6.1147,0,0,1-5.21,2.5683,6.181,6.181,0,0,1-5.0806-2.414A11.0307,11.0307,0,0,1,345.7547,119.91Zm6.9831,6.9345c2.789,0,4.7563-2.8505,4.7563-6.9082,0-4.16-1.9241-7.0371-4.6914-7.0371-2.94,0-4.8427,2.7227-4.8427,6.96C347.96,123.9679,349.9274,126.8448,352.7378,126.8448Z"/><path class="cls-1" d="M256.2318,111.6417H259.57l5.83,10.0928a28.6328,28.6328,0,0,1,2.3369,4.9043c-.1543-1.4893-.2568-3.9805-.2568-6.7539v-8.2432h2.44v17.1289H266.761l-5.4189-9.2959a27.4045,27.4045,0,0,1-2.876-5.8808c.1284,1.4629.2051,4.2109.2051,6.4453v8.7314h-2.4394Z"/><path class="cls-1" d="M276.1562,111.6417h2.44v17.1289h-2.44Z"/><path class="cls-1" d="M283.6786,126.6905l6.9595-10.0927a29.2687,29.2687,0,0,1,2.1826-2.9278c-1.2583.0518-1.2583.0518-2.3882.0518h-6.4458v-2.08h11.479v2.26l-7.3442,10.5547c-.18.2822-.3853.539-.5654.7959a7.7675,7.7675,0,0,0-.4619.6425l-.334.4366a4.2329,4.2329,0,0,0-.2823.4365,13.0841,13.0841,0,0,1,1.9-.0772H295.62v2.08H283.6786Z"/><path class="cls-1" d="M307.3113,111.6417h2.5679l7.4219,17.1289H314.553l-1.7978-4.34h-8.32l-1.772,4.34h-2.645Zm4.5967,10.709-1.9775-4.7764a24.9176,24.9176,0,0,1-1.3867-3.8271,36.9032,36.9032,0,0,1-1.438,3.8779l-1.9,4.7256Z"/><path class="cls-1" d="M323.6649,113.7218h-5.47v-2.08H331.472v2.08h-5.3677v15.0488h-2.4394Z"/><path class="cls-1" d="M336.95,111.6417h2.44v17.1289h-2.44Z"/><path class="cls-1" d="M363.4247,111.6417h3.3384l5.83,10.0928a28.64,28.64,0,0,1,2.3369,4.9043c-.1538-1.4893-.2568-3.9805-.2568-6.7539v-8.2432h2.44v17.1289h-3.1592l-5.4184-9.2959a27.3946,27.3946,0,0,1-2.876-5.8808c.1284,1.4629.2051,4.2109.2051,6.4453v8.7314h-2.44Z"/></svg>