<svg id="Layer_1" data-name="Layer 1" xmlns="http://www.w3.org/2000/svg" viewBox="0 0 532.09 217.17"><defs><style>.cls-1,.cls-3{fill:#fff;}.cls-1{opacity:0.51;}.cls-2{opacity:0.71;}</style></defs><title>TISC logo</title><path class="cls-1" d="M133,144.74a102.58,102.58,0,0,0-6.48-16.1H92.45A104,104,0,0,0,84.3,151.1a27,27,0,0,0-.82,6.64,3.76,3.76,0,0,0,2.09,3.5,15,15,0,0,0,5.12,1.5,3.59,3.59,0,0,0,1,0v.09h35.71v-.06a2.77,2.77,0,0,0,.85,0,13.45,13.45,0,0,0,5.5-1.71,3.67,3.67,0,0,0,1.87-3,18.42,18.42,0,0,0-.15-3A71.78,71.78,0,0,0,133,144.74Z"/><circle class="cls-1" cx="109.05" cy="143.44" r="8.27"/><g class="cls-2"><circle class="cls-3" cx="109.2" cy="143.22" r="4.28"/><path class="cls-3" d="M109.2,154.73a11.51,11.51,0,1,1,11.51-11.51A11.52,11.52,0,0,1,109.2,154.73Zm0-19.47a8,8,0,1,0,8,8A8,8,0,0,0,109.2,135.26Z"/><path class="cls-3" d="M203,71.48a22.6,22.6,0,0,0-9.59-2.61,3.06,3.06,0,0,1-2.07-.79,8.55,8.55,0,0,0-3.94-2.34h-1.63l-.9.29a5.9,5.9,0,0,0-4.49,6.57A6.07,6.07,0,0,0,190,76.9a5,5,0,0,0,.79-.66A3.45,3.45,0,0,1,194,75.16a17.53,17.53,0,0,1,6,1.76A4.36,4.36,0,0,1,202.43,81a31.13,31.13,0,0,1-1,7.74,128,128,0,0,1-12,31c-.28.52-.61,1-.94,1.5a1.35,1.35,0,0,1-1.16.61,1.84,1.84,0,0,0-1.11.8c-1.07,1.5-2,3.09-3.12,4.57a31.25,31.25,0,0,1-7.15,7.41c-3,2.09-4.95,2.07-8,0a30.14,30.14,0,0,1-6.68-6.94c-1.2-1.59-2.27-3.28-3.39-4.93-.37-.55-.7-1.06-1.51-.89-.2,0-.5-.18-.66-.36a5.55,5.55,0,0,1-.68-1,131.38,131.38,0,0,1-10.42-24.34,83.09,83.09,0,0,1-2.84-12,21.07,21.07,0,0,1-.18-3.46,4.3,4.3,0,0,1,2.18-3.49c1.93-1.31,4.17-1.61,6.41-2a3.4,3.4,0,0,1,3.28,1.19,5.59,5.59,0,0,0,6.49,1.36A6.67,6.67,0,0,0,164,71.55a6.23,6.23,0,0,0-4.92-5.65,2.66,2.66,0,0,1-.39-.16h-1.78a1.77,1.77,0,0,1-.31.15A6.81,6.81,0,0,0,153,68a2.58,2.58,0,0,1-1.93.9,26.13,26.13,0,0,0-6.73,1.19c-3.58,1.24-6.49,3.26-8.07,6.85a13.94,13.94,0,0,0-.61,7.77,88.1,88.1,0,0,0,3.15,13.4A140,140,0,0,0,149,122.21c.43.83.82,1.67,1.17,2.54.11.28.15.79,0,.94-.45.42-.3.79-.06,1.17,1,1.52,1.9,3,2.94,4.52,3.8,5.42,8.11,10.28,14.35,13a1,1,0,0,1,.39.75q-.06,13.76-.16,27.5h8.85q.08-13.68.12-27.35a1.06,1.06,0,0,1,.75-1.13,25.86,25.86,0,0,0,3.12-1.66,31,31,0,0,0,7.5-7c2.1-2.69,4-5.54,6-8.33.36-.51.65-1,.08-1.67-.16-.16-.09-.61,0-.89a6.54,6.54,0,0,1,.55-1.13A138.07,138.07,0,0,0,206.8,93.32,43.69,43.69,0,0,0,208.66,81,10.34,10.34,0,0,0,203,71.48Z"/><path class="cls-3" d="M141,202.65c-19,0-34.54-16.33-34.54-36.4h5.75c0,16.9,12.91,30.65,28.79,30.65s28.79-13.75,28.79-30.65h5.74C175.51,186.32,160,202.65,141,202.65Z"/></g><rect class="cls-3" x="106.44" y="152.96" width="5.74" height="13.29"/><path class="cls-3" d="M146.33,156.91a89.27,89.27,0,0,0-3.14-13.4,139.33,139.33,0,0,0-9.74-23.33s-4.67-9.74-7-14.63a9.85,9.85,0,0,1-.93-4c-.08-7.84,0-15.69,0-23.53V76.73h3.1a3.35,3.35,0,1,0,0-6.7c-2,0-3.9,0-5.85,0-2.49,0-3.77,1.32-3.77,3.89,0,9.22,0,18.43,0,27.64a15.27,15.27,0,0,0,1.58,6.86c1.87,3.82,6.21,12.36,6.39,12.68a131.73,131.73,0,0,1,10.41,24.34,81.2,81.2,0,0,1,2.84,12,21.07,21.07,0,0,1,.19,3.46,4.34,4.34,0,0,1-2.19,3.49c-1.93,1.3-4.17,1.61-6.41,2a3.76,3.76,0,0,1-1,.05v.06H89.12v-.1a4,4,0,0,1-1.14,0,17.56,17.56,0,0,1-6-1.75,4.36,4.36,0,0,1-2.43-4.08,31.5,31.5,0,0,1,1-7.74,127.05,127.05,0,0,1,12-31c.27-.53,5-9.57,6.85-13.4a13.8,13.8,0,0,0,1.55-6q0-14.4,0-28.79A3.32,3.32,0,0,0,97.44,70q-3,0-6,0a3.36,3.36,0,1,0,0,6.7h3v1.41c0,7.78,0,15.55,0,23.32a9,9,0,0,1-1,4.13q-3.49,7.14-6.95,14.3h0a138.13,138.13,0,0,0-11.28,28.37,43.68,43.68,0,0,0-1.87,12.35A10.35,10.35,0,0,0,79,170.1a22.48,22.48,0,0,0,9.59,2.6,4.78,4.78,0,0,1,1,.17h40.53a3.35,3.35,0,0,1,.79-.15,26.56,26.56,0,0,0,6.74-1.19c3.57-1.24,6.48-3.26,8.06-6.86C146.84,162.15,146.7,159.53,146.33,156.91Z"/><circle class="cls-3" cx="106.62" cy="119.2" r="5.38"/><path class="cls-3" d="M178,104.58a5.38,5.38,0,0,1-10.76,0c0-3,5.38-11.31,5.38-11.31S178,101.61,178,104.58Z"/><circle class="cls-3" cx="112.3" cy="102.53" r="3.98"/><circle class="cls-3" cx="106.99" cy="86.13" r="2.66"/><circle class="cls-3" cx="113.48" cy="74.2" r="2.66"/><circle class="cls-3" cx="109.5" cy="64.46" r="2.66"/><path class="cls-3" d="M175.51,56.17h-5.74c0-16.9-12.92-30.65-28.79-30.65s-28.79,13.75-28.79,30.65h-5.75c0-20.07,15.49-36.4,34.54-36.4S175.51,36.1,175.51,56.17Z"/><rect class="cls-3" x="169.77" y="56" width="5.74" height="32.99"/><path class="cls-3" d="M220.88,57.41V33.24h-7V27.07h21v6.17h-7.08V57.41Zm20.43-23.33.19,2.83a6.6,6.6,0,0,1,5.82-3.19,9.28,9.28,0,0,1,1.15.08v2a10.86,10.86,0,0,0-1.27-.08c-3.27,0-5.7,2.07-5.7,6V57.41h-1.95V34.08Zm23.05,23.33-.08-2.91a7.07,7.07,0,0,1-6.45,3.39c-3.86,0-6.49-2-6.49-6.49S254,44.59,260,44.59a31.23,31.23,0,0,1,4.22.36v-3.9c0-4-1.52-5.7-5.06-5.7-3.3,0-5.29,1.28-5.29,5.54H252.1c0-4.9,2.14-7.29,7.12-7.29,4.46,0,6.93,2.11,6.93,7.45V57.41Zm-.12-10.79a34.12,34.12,0,0,0-4.34-.36c-4.82,0-6.53,1.71-6.53,5.06,0,3.14,1.55,4.85,4.82,4.85s6.05-2,6.05-6.21ZM274,34.08l.16,2.31a7,7,0,0,1,6.05-2.79c5.38,0,6.85,3.07,6.85,8.36V57.41h-1.95V42.08c0-4.62-1.19-6.69-5.37-6.69-3.23,0-5.54,1.91-5.54,5.5V57.41H272.2V34.08Zm32.65,17c0,4.22-2.35,6.81-7.44,6.81s-7.45-2.07-7.45-6.65h1.87c0,3.06,1.48,4.93,5.58,4.93,3.62,0,5.53-1.63,5.53-5,0-3.82-2.59-4.54-6.09-5.22s-6.25-1.75-6.25-6.33c0-3.54,2.15-6,7-6s7,2.27,7,6.21h-1.87c-.12-2.94-1.43-4.5-5.13-4.5s-5.1,1.64-5.1,4.26c0,3.35,1.79,4.06,5,4.7C302.94,45,306.6,46,306.6,51.08Zm10.91,6.41c-5,.52-5.81-1.44-5.81-6.57V26.67h1.95V51.08c0,4.26.56,4.78,3.86,4.74Zm16.56-.08L334,54.5a7,7,0,0,1-6.44,3.39c-3.87,0-6.49-2-6.49-6.49s2.62-6.81,8.68-6.81A31,31,0,0,1,334,45v-3.9c0-4-1.51-5.7-5.05-5.7-3.31,0-5.3,1.28-5.3,5.54h-1.79c0-4.9,2.15-7.29,7.13-7.29,4.46,0,6.93,2.11,6.93,7.45V57.41ZM334,46.62a33.83,33.83,0,0,0-4.33-.36c-4.82,0-6.53,1.71-6.53,5.06,0,3.14,1.55,4.85,4.81,4.85S334,54.14,334,50Zm15.49,9.2v1.79a10,10,0,0,1-2.34.28c-4.22,0-5.58-2.15-5.58-6.73V29h2v5.54h5.89v1.75h-5.89V51.16c0,4,1.16,4.89,3.9,4.89A10.44,10.44,0,0,0,349.44,55.82Zm7.09-27h-2V26.24h2Zm0,28.55h-1.95V34.08h1.95Zm20.67-15v6.69c0,6.77-2.31,8.8-7.45,8.8s-7.48-2-7.48-8.8V42.4c0-6.77,2.3-8.8,7.48-8.8S377.16,35.63,377.16,42.4ZM364.22,49c0,5.53,1.31,7.12,5.49,7.12s5.45-1.59,5.45-7.12V42.48c0-5.49-1.31-7.09-5.45-7.09s-5.49,1.6-5.49,7.09Zm20.42-14.93.16,2.31c1.11-1.67,3.19-2.79,6.05-2.79,5.38,0,6.85,3.07,6.85,8.36V57.41h-1.95V42.08c0-4.62-1.2-6.69-5.38-6.69-3.22,0-5.53,1.91-5.53,5.5V57.41h-1.95V34.08ZM416,57.41l-.08-2.91a7,7,0,0,1-6.44,3.39c-3.87,0-6.49-2-6.49-6.49s2.62-6.81,8.67-6.81a31,31,0,0,1,4.22.36v-3.9c0-4-1.51-5.7-5.05-5.7-3.31,0-5.3,1.28-5.3,5.54h-1.79c0-4.9,2.15-7.29,7.13-7.29,4.46,0,6.93,2.11,6.93,7.45V57.41Zm-.12-10.79a33.83,33.83,0,0,0-4.33-.36c-4.82,0-6.53,1.71-6.53,5.06,0,3.14,1.55,4.85,4.81,4.85s6.05-2,6.05-6.21Zm13.62,10.87c-5,.52-5.81-1.44-5.81-6.57V26.67h1.95V51.08c0,4.26.56,4.78,3.86,4.74Zm30.34-15.33V51c0,4,1.08,5,3.7,5a7.73,7.73,0,0,0,1.83-.19v1.79a8.83,8.83,0,0,1-2.07.24c-3.1,0-4.41-1.16-4.89-3.31-.92,1.87-3.19,3.39-6.73,3.39-5.41,0-8.2-3.35-8.2-8.52,0-4.86,2.63-7.21,5.45-8-3.34-1-4.77-3.74-4.77-7.12,0-5.22,3.38-7.69,8.08-7.69,4.42,0,7.76,2.23,8.12,7.17h-2c-.32-4.06-3.15-5.49-6.13-5.49s-6.13,1.51-6.13,6.05c0,3.22,1.75,6.21,6.41,6.21h11.9v1.63Zm-1.91,0h-5.17c-3.43,0-7.33,1.43-7.33,7.13,0,3.86,1.91,6.8,6.41,6.8s6.09-2.62,6.09-6.68ZM246.14,111.9h-6.92V81.56h6.92Zm7.45-23.33.16,2.31c1.11-1.68,3.18-2.79,6.05-2.79,5.37,0,6.85,3.06,6.85,8.36V111.9H264.7V96.57c0-4.62-1.2-6.69-5.38-6.69-3.22,0-5.53,1.91-5.53,5.49V111.9h-1.95V88.57Zm29.66,21.73v1.79a10.11,10.11,0,0,1-2.35.28c-4.22,0-5.57-2.15-5.57-6.72V83.51h2V89h5.89V90.8h-5.89v14.85c0,4,1.15,4.89,3.9,4.89A9.75,9.75,0,0,0,283.25,110.3Zm21.58-4.46c0,4.38-2.15,6.53-6.89,6.53-5.17,0-7.48-2.35-7.48-8.68V96.93c0-6.37,2.43-8.84,7.36-8.84S305,90.76,305,96.61v3.9H292.41v3.22c0,4.78,1.35,6.89,5.49,6.89,3.71,0,5-1.59,5.06-4.78Zm-12.42-9v2h10.71V96.61c0-4.58-1.12-6.77-5.3-6.77S292.41,91.75,292.41,96.81Zm33.36,14.09v-1.59c-1.19,1.87-3.26,2.74-6,2.74-4.78,0-6.93-3.14-6.93-8.83V96.81c0-6.49,3.19-8.72,7.21-8.72a6.53,6.53,0,0,1,5.73,2.75l.12-2.27h1.83V110.7c0,7.13-2.46,9.28-7.6,9.28-4.5,0-6.53-1.79-6.73-5.74h1.87c.16,2.51,1.4,4,4.9,4C324.54,118.27,325.77,116.23,325.77,110.9Zm-10.91-7.6c0,4.61,1.6,7,5.38,7,3.26,0,5.53-2,5.53-5.53V96c0-4.58-2.39-6.13-5.41-6.13-3.31,0-5.5,1.79-5.5,7.09ZM339,88.57l.2,2.82A6.61,6.61,0,0,1,345,88.21a9.28,9.28,0,0,1,1.15.08v2a10.86,10.86,0,0,0-1.27-.08c-3.27,0-5.7,2.07-5.7,6V111.9H337.2V88.57Zm26,23.33-.08-2.91a7,7,0,0,1-6.45,3.38c-3.86,0-6.49-2-6.49-6.49s2.63-6.8,8.68-6.8a31,31,0,0,1,4.22.36V95.53c0-4-1.51-5.69-5.05-5.69-3.31,0-5.3,1.27-5.3,5.53h-1.79c0-4.89,2.15-7.28,7.13-7.28,4.46,0,6.92,2.11,6.92,7.44V111.9Zm-.12-10.79a33.83,33.83,0,0,0-4.34-.36c-4.81,0-6.53,1.71-6.53,5,0,3.15,1.56,4.86,4.82,4.86s6.05-2,6.05-6.21Zm18.44,9.19v1.79a10.18,10.18,0,0,1-2.35.28c-4.22,0-5.57-2.15-5.57-6.72V83.51h2V89h5.89V90.8h-5.89v14.85c0,4,1.15,4.89,3.9,4.89A9.83,9.83,0,0,0,383.27,110.3Zm10-26.95h-2V80.72h2Zm0,28.55h-1.95V88.57h1.95Zm9.24-23.33,6,21,6.09-21h2.19l-7,23.33H407.2l-7-23.33Zm34.8,17.27c0,4.38-2.15,6.53-6.89,6.53-5.18,0-7.49-2.35-7.49-8.68V96.93c0-6.37,2.43-8.84,7.37-8.84s7.2,2.67,7.2,8.52v3.9H424.87v3.22c0,4.78,1.36,6.89,5.5,6.89,3.7,0,5-1.59,5.05-4.78Zm-12.43-9v2h10.71V96.61c0-4.58-1.11-6.77-5.29-6.77S424.87,91.75,424.87,96.81Zm-210.62,48.1c0-5.69,3.43-8.8,9.84-8.8,6.25,0,10.15,2.39,10.66,9.16h-6.84c-.28-2.27-1.28-3.18-3.86-3.18-2.23,0-3,1-3,2.58,0,2,1.11,3,4.26,3.67,4.58,1.11,10.07,2.46,10.07,9.71,0,5.69-2.9,9.35-11,9.35S213.7,163,213.7,158.13h6.84c.08,2,1.08,3.3,4.14,3.3,2.59,0,3.74-1.07,3.74-3.18s-1.31-3.11-5.57-4.1S214.25,151.76,214.25,144.91ZM254.31,160v.24c0,4.66-2,7.12-7.24,7.12-5.06,0-7.37-2.3-7.37-8.79v-6.77c0-6.49,2.51-8.72,7.53-8.72s7,2.43,7,6.93v.24h-1.91v-.24c0-3.15-1.11-5.14-5.13-5.14s-5.5,1.91-5.5,6.93v6.69c0,4.85,1.16,7.12,5.42,7.12s5.33-2.19,5.33-5.37V160Zm6.3-21.66h-2v-2.62h2Zm0,28.55h-2V143.6h2Zm19-6.05c0,4.38-2.15,6.52-6.89,6.52-5.18,0-7.48-2.34-7.48-8.67V152c0-6.37,2.42-8.84,7.36-8.84s7.21,2.67,7.21,8.52v3.9H267.18v3.23c0,4.77,1.35,6.88,5.49,6.88,3.7,0,5-1.59,5.06-4.77Zm-12.42-9v2h10.7v-2.23c0-4.58-1.11-6.77-5.29-6.77S267.18,146.78,267.18,151.84Zm18.95-8.24.16,2.31c1.11-1.67,3.18-2.79,6-2.79,5.37,0,6.85,3.07,6.85,8.36v15.45h-1.95V151.6c0-4.62-1.2-6.69-5.38-6.69-3.22,0-5.53,1.91-5.53,5.5v16.52h-1.95V143.6Zm32,16.44v.24c0,4.66-2,7.12-7.25,7.12-5.05,0-7.36-2.3-7.36-8.79v-6.77c0-6.49,2.51-8.72,7.52-8.72s7,2.43,7,6.93v.24h-1.91v-.24c0-3.15-1.12-5.14-5.14-5.14s-5.49,1.91-5.49,6.93v6.69c0,4.85,1.15,7.12,5.41,7.12s5.34-2.19,5.34-5.37V160Zm17.91.84c0,4.38-2.15,6.52-6.88,6.52-5.18,0-7.49-2.34-7.49-8.67V152c0-6.37,2.43-8.84,7.37-8.84s7.2,2.67,7.2,8.52v3.9H323.59v3.23c0,4.77,1.36,6.88,5.5,6.88,3.7,0,5-1.59,5.05-4.77Zm-12.42-9v2H334.3v-2.23c0-4.58-1.11-6.77-5.29-6.77S323.59,146.78,323.59,151.84Zm30.66,8.76c0,4.22-2.35,6.8-7.44,6.8s-7.45-2.06-7.45-6.64h1.87c0,3.06,1.47,4.93,5.58,4.93,3.62,0,5.53-1.63,5.53-5,0-3.82-2.59-4.54-6.09-5.22s-6.25-1.75-6.25-6.33c0-3.54,2.15-6,7-6s7,2.27,7,6.21H352.1c-.12-2.94-1.43-4.5-5.14-4.5s-5.09,1.64-5.09,4.26c0,3.35,1.79,4.06,5,4.7C350.59,154.55,354.25,155.5,354.25,160.6ZM386.33,156v.84c0,6.8-3.62,10.54-10.95,10.54-7.48,0-11-3.9-11-10.94V147.1c0-7.08,3.5-11,11-11,7.25,0,10.91,3.71,10.91,10.55v.52h-7.36v-.64c0-2.74-1.32-4-3.55-4-2.7,0-3.74,1.48-3.74,4.9v8.72c0,3.34,1,4.78,3.74,4.78,2.31,0,3.51-1.16,3.59-4v-1Zm19.32,4.86c0,4.38-2.15,6.52-6.89,6.52-5.17,0-7.48-2.34-7.48-8.67V152c0-6.37,2.43-8.84,7.36-8.84s7.21,2.67,7.21,8.52v3.9H393.23v3.23c0,4.77,1.35,6.88,5.49,6.88,3.71,0,5-1.59,5.06-4.77Zm-12.42-9v2h10.71v-2.23c0-4.58-1.12-6.77-5.3-6.77S393.23,146.78,393.23,151.84Zm18.95-8.24.16,2.31a7,7,0,0,1,6.05-2.79c5.38,0,6.85,3.07,6.85,8.36v15.45h-1.95V151.6c0-4.62-1.19-6.69-5.38-6.69-3.22,0-5.53,1.91-5.53,5.5v16.52h-1.95V143.6Zm25.64,21.74v1.79a10.14,10.14,0,0,1-2.35.27c-4.22,0-5.57-2.14-5.57-6.72V138.54h2v5.54h5.89v1.75h-5.89v14.85c0,4,1.16,4.89,3.9,4.89A10.44,10.44,0,0,0,437.82,165.34Zm17.56-4.46c0,4.38-2.15,6.52-6.89,6.52-5.17,0-7.48-2.34-7.48-8.67V152c0-6.37,2.43-8.84,7.36-8.84s7.21,2.67,7.21,8.52v3.9H443v3.23c0,4.77,1.35,6.88,5.49,6.88,3.71,0,5-1.59,5.06-4.77Zm-12.42-9v2h10.71v-2.23c0-4.58-1.12-6.77-5.3-6.77S443,146.78,443,151.84Zm19-8.24.2,2.83a6.59,6.59,0,0,1,5.81-3.19,9.31,9.31,0,0,1,1.16.08v2a10.9,10.9,0,0,0-1.28-.08c-3.26,0-5.69,2.07-5.69,6v15.69h-1.95V143.6Z"/></svg>