<svg id="Layer_1" data-name="Layer 1" xmlns="http://www.w3.org/2000/svg" viewBox="0 0 532.09 217.17"><defs><style>.cls-1{fill:#231f20;opacity:0.21;}.cls-2{fill:#fff;}.cls-3{fill:#a4a3a4;}.cls-4{fill:#666766;}</style></defs><title>TISC logo</title><path class="cls-1" d="M126.82,143a101.62,101.62,0,0,0-6.48-16.1H86.26a104.1,104.1,0,0,0-8.15,22.45,27.52,27.52,0,0,0-.82,6.65,3.73,3.73,0,0,0,2.09,3.49A14.83,14.83,0,0,0,84.5,161a3.59,3.59,0,0,0,1,0v.08h35.71v0a3.58,3.58,0,0,0,.85,0,13.45,13.45,0,0,0,5.5-1.71,3.69,3.69,0,0,0,1.87-3,18.42,18.42,0,0,0-.15-3A71.65,71.65,0,0,0,126.82,143Z"/><circle class="cls-2" cx="102.86" cy="141.74" r="8.27"/><circle class="cls-3" cx="103.02" cy="141.52" r="4.28"/><path class="cls-3" d="M103,153a11.51,11.51,0,1,1,11.5-11.51A11.52,11.52,0,0,1,103,153Zm0-19.47a8,8,0,1,0,8,8A8,8,0,0,0,103,133.56Z"/><path class="cls-3" d="M196.78,69.77a22.59,22.59,0,0,0-9.59-2.6,3,3,0,0,1-2.07-.8A8.54,8.54,0,0,0,181.18,64h-1.63l-.9.29a5.9,5.9,0,0,0-4.49,6.57,5.65,5.65,0,0,0,3.72,5,5.58,5.58,0,0,0,6-.74,5.7,5.7,0,0,0,.79-.67,3.45,3.45,0,0,1,3.21-1.07,17.42,17.42,0,0,1,6,1.76,4.37,4.37,0,0,1,2.43,4.07,31.5,31.5,0,0,1-1,7.74,127.68,127.68,0,0,1-12,31.05,15.66,15.66,0,0,1-.94,1.5,1.34,1.34,0,0,1-1.16.6,1.89,1.89,0,0,0-1.11.81c-1.07,1.5-2,3.08-3.12,4.57a31.25,31.25,0,0,1-7.15,7.41c-3,2.09-4.95,2.06-8,0A29.94,29.94,0,0,1,155.2,126c-1.2-1.59-2.27-3.27-3.38-4.92-.38-.55-.71-1.06-1.52-.89a1,1,0,0,1-.66-.37,6,6,0,0,1-.68-1,131.67,131.67,0,0,1-10.42-24.34,83.09,83.09,0,0,1-2.84-12,21.07,21.07,0,0,1-.18-3.46,4.3,4.3,0,0,1,2.18-3.49c1.94-1.31,4.17-1.62,6.41-2a3.43,3.43,0,0,1,3.28,1.2A5.6,5.6,0,0,0,153.88,76a6.71,6.71,0,0,0,3.94-6.18,6.26,6.26,0,0,0-4.93-5.65,2.62,2.62,0,0,1-.39-.15h-1.77a2.3,2.3,0,0,1-.32.15,6.86,6.86,0,0,0-3.58,2.06,2.59,2.59,0,0,1-1.93.91,25.71,25.71,0,0,0-6.73,1.19c-3.58,1.23-6.48,3.26-8.07,6.85a13.93,13.93,0,0,0-.61,7.77,88,88,0,0,0,3.15,13.39,140.91,140.91,0,0,0,10.15,24.15,27.87,27.87,0,0,1,1.17,2.54c.11.28.15.79,0,.94-.45.42-.3.79-.05,1.17,1,1.51,1.9,3.05,2.93,4.52,3.8,5.41,8.11,10.28,14.35,13a1,1,0,0,1,.39.75q-.06,13.74-.16,27.5h8.85q.08-13.68.12-27.35a1.06,1.06,0,0,1,.75-1.13,24.59,24.59,0,0,0,3.12-1.67,30.81,30.81,0,0,0,7.5-6.95c2.11-2.68,4-5.54,6-8.33.36-.5.65-1,.08-1.66-.16-.16-.09-.61,0-.89a5.33,5.33,0,0,1,.54-1.13,138.27,138.27,0,0,0,12.28-30.23,43.74,43.74,0,0,0,1.86-12.36A10.36,10.36,0,0,0,196.78,69.77Z"/><path class="cls-3" d="M134.79,200.94c-19,0-34.54-16.32-34.54-36.39H106c0,16.9,12.91,30.65,28.79,30.65s28.79-13.75,28.79-30.65h5.74C169.32,184.62,153.83,200.94,134.79,200.94Z"/><rect class="cls-3" x="100.25" y="151.26" width="5.74" height="13.29"/><path class="cls-4" d="M140.15,155.2A90.71,90.71,0,0,0,137,141.81a138.94,138.94,0,0,0-9.74-23.34s-4.67-9.74-7-14.62a9.68,9.68,0,0,1-.92-4c-.09-7.85,0-15.69,0-23.54V75c1.13,0,2.11,0,3.1,0a3.35,3.35,0,1,0,0-6.69c-2,0-3.9,0-5.85,0-2.49,0-3.77,1.32-3.77,3.89,0,9.21,0,18.42,0,27.63a15.41,15.41,0,0,0,1.58,6.87c1.87,3.82,6.22,12.35,6.39,12.67a131.63,131.63,0,0,1,10.41,24.34,81.79,81.79,0,0,1,2.84,12,21.07,21.07,0,0,1,.19,3.46,4.33,4.33,0,0,1-2.18,3.49c-1.94,1.31-4.18,1.62-6.42,2a4.24,4.24,0,0,1-1,0v.06H82.93v-.1a4.36,4.36,0,0,1-1.14,0,17.36,17.36,0,0,1-6-1.76,4.34,4.34,0,0,1-2.43-4.07,31.5,31.5,0,0,1,1-7.74,127.28,127.28,0,0,1,12-31c.27-.52,5-9.56,6.85-13.39a13.8,13.8,0,0,0,1.55-6q0-14.39,0-28.78a3.31,3.31,0,0,0-3.46-3.56c-2,0-4,0-6,0a3.36,3.36,0,1,0,0,6.7h3v1.41c0,7.77,0,15.55,0,23.32a9,9,0,0,1-1,4.13q-3.49,7.14-7,14.3h0A138.27,138.27,0,0,0,69,146.55a44.17,44.17,0,0,0-1.87,12.36,10.36,10.36,0,0,0,5.69,9.49,22.63,22.63,0,0,0,9.6,2.6,4.19,4.19,0,0,1,1,.17h40.53a3.36,3.36,0,0,1,.79-.16,25.71,25.71,0,0,0,6.74-1.19c3.57-1.23,6.48-3.26,8.06-6.85C140.65,160.45,140.51,157.82,140.15,155.2Z"/><circle class="cls-4" cx="100.43" cy="117.5" r="5.38"/><path class="cls-4" d="M171.83,102.88a5.38,5.38,0,0,1-10.76,0c0-3,5.38-11.31,5.38-11.31S171.83,99.91,171.83,102.88Z"/><circle class="cls-4" cx="106.11" cy="100.82" r="3.98"/><circle class="cls-4" cx="100.8" cy="84.43" r="2.66"/><circle class="cls-4" cx="107.3" cy="72.5" r="2.66"/><circle class="cls-4" cx="103.31" cy="62.76" r="2.66"/><path class="cls-4" d="M169.32,54.47h-5.74c0-16.9-12.92-30.65-28.79-30.65S106,37.57,106,54.47h-5.75c0-20.07,15.5-36.4,34.54-36.4S169.32,34.4,169.32,54.47Z"/><rect class="cls-4" x="163.58" y="54.3" width="5.74" height="32.99"/><path class="cls-4" d="M211,53.91V29.75h-7V23.58h21v6.17h-7.09V53.91Zm20.43-23.33.2,2.83a6.6,6.6,0,0,1,5.81-3.18,9.5,9.5,0,0,1,1.16.07v2a10.9,10.9,0,0,0-1.28-.08c-3.26,0-5.69,2.07-5.69,6V53.91h-2V30.58Zm23.05,23.33-.08-2.9a7,7,0,0,1-6.45,3.38c-3.86,0-6.49-2-6.49-6.49s2.63-6.81,8.68-6.81a31,31,0,0,1,4.22.36v-3.9c0-4-1.51-5.69-5-5.69-3.31,0-5.3,1.27-5.3,5.53h-1.79c0-4.9,2.15-7.28,7.13-7.28,4.45,0,6.92,2.11,6.92,7.44V53.91Zm-.12-10.79a33.75,33.75,0,0,0-4.34-.35c-4.81,0-6.53,1.71-6.53,5,0,3.15,1.56,4.86,4.82,4.86s6-2,6-6.21ZM264,30.58l.16,2.31c1.11-1.67,3.18-2.78,6.05-2.78,5.37,0,6.85,3.06,6.85,8.36V53.91h-2V38.59c0-4.62-1.2-6.69-5.38-6.69-3.22,0-5.53,1.91-5.53,5.49V53.91h-1.95V30.58Zm32.65,17c0,4.22-2.35,6.81-7.45,6.81-4.94,0-7.44-2.07-7.44-6.65h1.87c0,3.07,1.47,4.94,5.57,4.94,3.62,0,5.53-1.63,5.53-5,0-3.82-2.58-4.54-6.09-5.21s-6.25-1.75-6.25-6.33c0-3.55,2.15-6,7-6s7,2.27,7,6.21h-1.87c-.12-3-1.44-4.5-5.14-4.5s-5.1,1.63-5.1,4.26c0,3.34,1.8,4.06,5,4.7C293,41.53,296.69,42.49,296.69,47.58ZM307.6,54c-5,.52-5.82-1.43-5.82-6.57V23.18h2v24.4c0,4.26.56,4.78,3.87,4.74Zm16.56-.08-.08-2.9a7.05,7.05,0,0,1-6.45,3.38c-3.86,0-6.49-2-6.49-6.49s2.63-6.81,8.68-6.81a31.09,31.09,0,0,1,4.22.36v-3.9c0-4-1.51-5.69-5.06-5.69-3.3,0-5.29,1.27-5.29,5.53H311.9c0-4.9,2.15-7.28,7.12-7.28,4.46,0,6.93,2.11,6.93,7.44V53.91ZM324,43.12a33.89,33.89,0,0,0-4.34-.35c-4.82,0-6.53,1.71-6.53,5,0,3.15,1.55,4.86,4.82,4.86s6.05-2,6.05-6.21Zm15.49,9.2v1.79a10.18,10.18,0,0,1-2.35.28c-4.22,0-5.57-2.15-5.57-6.73V25.53h2v5.53h5.89v1.75H333.6V47.66c0,4,1.15,4.9,3.9,4.9A9.83,9.83,0,0,0,339.53,52.32Zm7.09-26.95h-2V22.74h2Zm0,28.54h-2V30.58h2Zm20.66-15v6.69c0,6.77-2.31,8.8-7.45,8.8s-7.48-2-7.48-8.8V38.9c0-6.76,2.31-8.79,7.48-8.79S367.24,32.14,367.24,38.9ZM354.3,45.51c0,5.54,1.31,7.13,5.49,7.13s5.46-1.59,5.46-7.13V39c0-5.49-1.32-7.08-5.46-7.08S354.3,33.49,354.3,39Zm20.43-14.93.15,2.31c1.12-1.67,3.19-2.78,6.06-2.78,5.37,0,6.84,3.06,6.84,8.36V53.91h-1.95V38.59c0-4.62-1.19-6.69-5.37-6.69-3.23,0-5.54,1.91-5.54,5.49V53.91H373V30.58ZM406.1,53.91,406,51a7.05,7.05,0,0,1-6.45,3.38c-3.86,0-6.49-2-6.49-6.49s2.63-6.81,8.68-6.81a31.09,31.09,0,0,1,4.22.36v-3.9c0-4-1.51-5.69-5.06-5.69-3.3,0-5.29,1.27-5.29,5.53h-1.79c0-4.9,2.15-7.28,7.12-7.28,4.46,0,6.93,2.11,6.93,7.44V53.91ZM406,43.12a33.89,33.89,0,0,0-4.34-.35c-4.82,0-6.53,1.71-6.53,5,0,3.15,1.55,4.86,4.82,4.86s6.05-2,6.05-6.21ZM419.6,54c-5,.52-5.82-1.43-5.82-6.57V23.18h2v24.4c0,4.26.55,4.78,3.86,4.74Zm30.34-15.32V47.5c0,4,1.07,5,3.7,5a7.8,7.8,0,0,0,1.83-.2v1.79a8.9,8.9,0,0,1-2.07.24c-3.11,0-4.42-1.15-4.9-3.3-.91,1.87-3.18,3.38-6.73,3.38-5.41,0-8.2-3.34-8.2-8.52,0-4.86,2.63-7.2,5.46-8-3.35-1-4.78-3.74-4.78-7.13,0-5.21,3.38-7.68,8.08-7.68,4.42,0,7.76,2.23,8.12,7.16h-2c-.32-4.06-3.14-5.49-6.13-5.49s-6.13,1.51-6.13,6.05c0,3.23,1.75,6.21,6.41,6.21h11.9v1.64Zm-1.92,0h-5.17c-3.42,0-7.33,1.43-7.33,7.12,0,3.86,1.91,6.81,6.41,6.81S448,50,448,45.91ZM236.23,108.4H229.3V78.06h6.93Zm7.44-23.33.16,2.31a7,7,0,0,1,6-2.79c5.38,0,6.85,3.07,6.85,8.36V108.4h-2V93.07c0-4.61-1.19-6.69-5.37-6.69-3.23,0-5.54,1.92-5.54,5.5V108.4h-2V85.07Zm29.66,21.74v1.79a10,10,0,0,1-2.34.28c-4.22,0-5.58-2.15-5.58-6.73V80h2v5.54h5.89V87.3H267.4v14.85c0,4,1.16,4.9,3.9,4.9A9.66,9.66,0,0,0,273.33,106.81Zm21.58-4.46c0,4.38-2.15,6.53-6.88,6.53-5.18,0-7.49-2.35-7.49-8.68V93.43c0-6.37,2.43-8.84,7.37-8.84s7.2,2.67,7.2,8.52V97H282.49v3.23c0,4.78,1.36,6.89,5.5,6.89,3.7,0,5-1.6,5.05-4.78Zm-12.42-9v2H293.2V93.11c0-4.58-1.11-6.77-5.29-6.77S282.49,88.26,282.49,93.31Zm33.37,14.09v-1.59c-1.2,1.87-3.27,2.75-6,2.75-4.78,0-6.93-3.15-6.93-8.84V93.31c0-6.49,3.18-8.72,7.2-8.72a6.58,6.58,0,0,1,5.74,2.75l.12-2.27h1.83v22.14c0,7.12-2.47,9.27-7.61,9.27-4.49,0-6.53-1.79-6.72-5.73h1.87c.16,2.51,1.39,4,4.89,4C314.62,114.77,315.86,112.74,315.86,107.4ZM305,99.8c0,4.62,1.59,7,5.37,7,3.27,0,5.54-2,5.54-5.54V92.52c0-4.58-2.39-6.14-5.42-6.14-3.3,0-5.49,1.8-5.49,7.09ZM329,85.07l.2,2.83a6.57,6.57,0,0,1,5.81-3.19,9.14,9.14,0,0,1,1.15.08v2a10.57,10.57,0,0,0-1.27-.08c-3.26,0-5.69,2.07-5.69,6V108.4h-1.95V85.07Zm26,23.33-.08-2.91a7.07,7.07,0,0,1-6.45,3.39c-3.86,0-6.49-2-6.49-6.49s2.63-6.81,8.68-6.81a31.23,31.23,0,0,1,4.22.36V92c0-4-1.52-5.7-5.06-5.7-3.3,0-5.29,1.28-5.29,5.54h-1.8c0-4.9,2.15-7.29,7.13-7.29,4.46,0,6.93,2.11,6.93,7.45V108.4Zm-.12-10.79a34.12,34.12,0,0,0-4.34-.36c-4.82,0-6.53,1.72-6.53,5.06,0,3.14,1.55,4.86,4.82,4.86s6.05-2,6.05-6.21Zm18.43,9.2v1.79a10.11,10.11,0,0,1-2.35.28c-4.22,0-5.57-2.15-5.57-6.73V80h2v5.54h5.89V87.3h-5.89v14.85c0,4,1.15,4.9,3.9,4.9A9.75,9.75,0,0,0,373.35,106.81Zm10-26.95h-2V77.23h2Zm0,28.54h-2V85.07h2Zm9.23-23.33,6,21,6.1-21h2.18l-7,23.33h-2.59l-7-23.33Zm34.8,17.28c0,4.38-2.15,6.53-6.89,6.53-5.17,0-7.48-2.35-7.48-8.68V93.43c0-6.37,2.43-8.84,7.36-8.84s7.21,2.67,7.21,8.52V97H415v3.23c0,4.78,1.35,6.89,5.49,6.89,3.71,0,5-1.6,5.06-4.78Zm-12.42-9v2h10.71V93.11c0-4.58-1.12-6.77-5.3-6.77S415,88.26,415,93.31ZM204.34,141.42c0-5.7,3.42-8.8,9.83-8.8,6.25,0,10.15,2.39,10.67,9.16H218c-.28-2.27-1.27-3.19-3.86-3.19-2.23,0-3,1-3,2.59,0,2,1.12,2.94,4.26,3.66,4.58,1.12,10.08,2.47,10.08,9.71,0,5.7-2.91,9.36-11,9.36s-10.67-4.42-10.67-9.28h6.85c.08,2,1.07,3.31,4.14,3.31,2.58,0,3.74-1.08,3.74-3.19s-1.31-3.1-5.57-4.1S204.34,148.26,204.34,141.42Zm40.06,15.13v.23c0,4.66-2,7.13-7.25,7.13-5.05,0-7.36-2.31-7.36-8.8v-6.77c0-6.49,2.51-8.71,7.52-8.71s7,2.42,7,6.92v.24h-1.91v-.24c0-3.14-1.12-5.13-5.14-5.13s-5.49,1.91-5.49,6.92V155c0,4.86,1.15,7.13,5.41,7.13s5.34-2.19,5.34-5.38v-.23Zm6.29-21.66h-2v-2.63h2Zm0,28.54h-2V140.1h2Zm19-6.05c0,4.38-2.15,6.53-6.89,6.53-5.17,0-7.48-2.35-7.48-8.68v-6.77c0-6.37,2.43-8.83,7.36-8.83s7.21,2.66,7.21,8.51v3.91H257.26v3.22c0,4.78,1.35,6.89,5.49,6.89,3.71,0,5-1.59,5.06-4.78Zm-12.42-9v2H268v-2.23c0-4.57-1.12-6.76-5.3-6.76S257.26,143.29,257.26,148.34Zm18.95-8.24.16,2.31c1.12-1.67,3.19-2.78,6.05-2.78,5.38,0,6.85,3.06,6.85,8.36v15.44h-1.95V148.1c0-4.61-1.2-6.68-5.38-6.68-3.22,0-5.53,1.91-5.53,5.49v16.52h-2V140.1Zm32,16.45v.23c0,4.66-2,7.13-7.24,7.13s-7.37-2.31-7.37-8.8v-6.77c0-6.49,2.51-8.71,7.53-8.71s7,2.42,7,6.92v.24h-1.91v-.24c0-3.14-1.11-5.13-5.13-5.13s-5.5,1.91-5.5,6.92V155c0,4.86,1.16,7.13,5.42,7.13s5.33-2.19,5.33-5.38v-.23Zm17.92.83c0,4.38-2.15,6.53-6.89,6.53-5.17,0-7.48-2.35-7.48-8.68v-6.77c0-6.37,2.43-8.83,7.36-8.83s7.21,2.66,7.21,8.51v3.91H313.68v3.22c0,4.78,1.35,6.89,5.49,6.89,3.7,0,5-1.59,5.06-4.78Zm-12.42-9v2h10.71v-2.23c0-4.57-1.12-6.76-5.3-6.76S313.68,143.29,313.68,148.34Zm30.65,8.76c0,4.22-2.34,6.81-7.44,6.81-4.94,0-7.44-2.07-7.44-6.65h1.87c0,3.07,1.47,4.94,5.57,4.94,3.62,0,5.53-1.63,5.53-5,0-3.82-2.58-4.54-6.09-5.21s-6.25-1.75-6.25-6.33c0-3.55,2.15-6.05,7-6.05s7,2.26,7,6.21h-1.88c-.12-3-1.43-4.5-5.13-4.5S332,143,332,145.6c0,3.34,1.79,4.06,5,4.7C340.67,151.05,344.33,152,344.33,157.1Zm32.09-4.58v.84c-.05,6.81-3.63,10.55-10.95,10.55-7.49,0-11-3.9-11-10.95v-9.35c0-7.09,3.5-11,11-11,7.24,0,10.9,3.7,10.9,10.55v.52H369v-.64c0-2.75-1.31-4-3.54-4-2.71,0-3.74,1.47-3.74,4.9v8.71c0,3.35,1,4.78,3.74,4.78,2.31,0,3.5-1.15,3.58-4v-1Zm19.32,4.86c0,4.38-2.15,6.53-6.89,6.53-5.18,0-7.49-2.35-7.49-8.68v-6.77c0-6.37,2.43-8.83,7.37-8.83s7.2,2.66,7.2,8.51v3.91H383.31v3.22c0,4.78,1.36,6.89,5.5,6.89,3.7,0,5-1.59,5.05-4.78Zm-12.43-9v2H394v-2.23c0-4.57-1.11-6.76-5.29-6.76S383.31,143.29,383.31,148.34Zm19-8.24.16,2.31c1.11-1.67,3.18-2.78,6.05-2.78,5.37,0,6.84,3.06,6.84,8.36v15.44h-1.95V148.1c0-4.61-1.19-6.68-5.37-6.68-3.23,0-5.53,1.91-5.53,5.49v16.52h-2V140.1Zm25.64,21.74v1.79a10.18,10.18,0,0,1-2.35.28c-4.22,0-5.57-2.15-5.57-6.73V135.05h2v5.53h5.89v1.75H422v14.85c0,4,1.15,4.9,3.9,4.9A9.83,9.83,0,0,0,427.91,161.84Zm17.55-4.46c0,4.38-2.14,6.53-6.88,6.53-5.18,0-7.49-2.35-7.49-8.68v-6.77c0-6.37,2.43-8.83,7.37-8.83s7.2,2.66,7.2,8.51v3.91H433v3.22c0,4.78,1.36,6.89,5.5,6.89,3.7,0,5-1.59,5-4.78Zm-12.42-9v2h10.71v-2.23c0-4.57-1.11-6.76-5.29-6.76S433,143.29,433,148.34Zm19-8.24.2,2.83a6.58,6.58,0,0,1,5.81-3.18,9.33,9.33,0,0,1,1.15.07v2c-.36,0-.75-.07-1.27-.07-3.27,0-5.69,2.07-5.69,6v15.68h-2V140.1Z"/></svg>