<svg id="Layer_1" data-name="Layer 1" xmlns="http://www.w3.org/2000/svg" viewBox="0 0 331.87 326.14"><defs><style>.cls-1,.cls-3{fill:#fff;}.cls-1{opacity:0.51;}.cls-2{opacity:0.71;}</style></defs><title>TISC logo</title><path class="cls-1" d="M185.11,197.84a102.11,102.11,0,0,0-6.48-16.11H144.55a103.82,103.82,0,0,0-8.14,22.46,27,27,0,0,0-.83,6.64,3.74,3.74,0,0,0,2.09,3.5,15.05,15.05,0,0,0,5.12,1.51,3.59,3.59,0,0,0,1,0v.08h35.71v-.05a3.58,3.58,0,0,0,.85,0,13.45,13.45,0,0,0,5.5-1.71,3.74,3.74,0,0,0,1.88-3,18.43,18.43,0,0,0-.16-3A71.65,71.65,0,0,0,185.11,197.84Z"/><circle class="cls-1" cx="161.15" cy="196.54" r="8.27"/><g class="cls-2"><circle class="cls-3" cx="161.31" cy="196.32" r="4.28"/><path class="cls-3" d="M161.31,207.83a11.51,11.51,0,1,1,11.5-11.51A11.53,11.53,0,0,1,161.31,207.83Zm0-19.48a8,8,0,1,0,8,8A8,8,0,0,0,161.31,188.35Z"/><path class="cls-3" d="M255.08,124.57a22.67,22.67,0,0,0-9.6-2.6,3.07,3.07,0,0,1-2.07-.8,8.54,8.54,0,0,0-3.94-2.33h-1.63l-.9.28a5.91,5.91,0,0,0-4.49,6.57,5.65,5.65,0,0,0,3.72,5.05,5.58,5.58,0,0,0,6-.74,5.7,5.7,0,0,0,.79-.67,3.43,3.43,0,0,1,3.21-1.07,17.56,17.56,0,0,1,6,1.75,4.38,4.38,0,0,1,2.43,4.08,31.5,31.5,0,0,1-1,7.74,127.68,127.68,0,0,1-12,31,15.66,15.66,0,0,1-.94,1.5,1.33,1.33,0,0,1-1.16.6,1.85,1.85,0,0,0-1.11.81c-1.07,1.5-2,3.08-3.12,4.57a31.06,31.06,0,0,1-7.15,7.41c-3,2.09-4.95,2.06-8,0a30.14,30.14,0,0,1-6.68-6.94c-1.19-1.59-2.27-3.27-3.38-4.92-.37-.55-.71-1.06-1.52-.9-.19,0-.5-.18-.66-.36a5.73,5.73,0,0,1-.68-1.05,131.09,131.09,0,0,1-10.42-24.34,82.47,82.47,0,0,1-2.84-12,21,21,0,0,1-.18-3.46,4.33,4.33,0,0,1,2.18-3.49c1.94-1.3,4.17-1.61,6.41-2a3.43,3.43,0,0,1,3.28,1.2,5.61,5.61,0,0,0,6.49,1.35,6.68,6.68,0,0,0,3.94-6.17,6.24,6.24,0,0,0-4.93-5.65,3.12,3.12,0,0,1-.39-.15H209a2.3,2.3,0,0,1-.32.15,6.79,6.79,0,0,0-3.58,2.06,2.57,2.57,0,0,1-1.93.91,26.12,26.12,0,0,0-6.73,1.18c-3.58,1.24-6.48,3.27-8.07,6.86a13.92,13.92,0,0,0-.61,7.77,88.25,88.25,0,0,0,3.15,13.39,140.81,140.81,0,0,0,10.15,24.14c.43.83.82,1.68,1.17,2.54.11.28.15.79,0,.95-.46.42-.31.78-.06,1.17,1,1.51,1.9,3,2.93,4.52,3.8,5.41,8.11,10.28,14.35,13a.94.94,0,0,1,.39.74q-.06,13.75-.16,27.5h8.85q.08-13.67.12-27.34a1.09,1.09,0,0,1,.75-1.14,23.31,23.31,0,0,0,3.12-1.66,30.81,30.81,0,0,0,7.5-7c2.11-2.68,4-5.54,6-8.33.36-.51.65-1,.08-1.66-.15-.17-.09-.61,0-.9a6.07,6.07,0,0,1,.54-1.12,138.15,138.15,0,0,0,12.28-30.24,43.67,43.67,0,0,0,1.86-12.35A10.34,10.34,0,0,0,255.08,124.57Z"/><path class="cls-3" d="M193.08,255.74c-19,0-34.53-16.33-34.53-36.4h5.74c0,16.9,12.92,30.66,28.79,30.66s28.79-13.76,28.79-30.66h5.74C227.61,239.41,212.12,255.74,193.08,255.74Z"/></g><rect class="cls-3" x="158.55" y="206.05" width="5.74" height="13.29"/><path class="cls-3" d="M198.44,210a88,88,0,0,0-3.15-13.39,138.94,138.94,0,0,0-9.74-23.34s-4.67-9.74-7-14.62a9.69,9.69,0,0,1-.92-4c-.09-7.84,0-15.68,0-23.53v-1.29c1.13,0,2.11,0,3.1,0a3.35,3.35,0,1,0,0-6.69c-1.95,0-3.9,0-5.85,0-2.49,0-3.76,1.31-3.77,3.89,0,9.21,0,18.42,0,27.63a15.34,15.34,0,0,0,1.58,6.86c1.88,3.82,6.22,12.36,6.39,12.68a132.06,132.06,0,0,1,10.42,24.34,83.05,83.05,0,0,1,2.83,12,20,20,0,0,1,.19,3.46,4.3,4.3,0,0,1-2.18,3.49c-1.94,1.31-4.17,1.61-6.42,2a3.67,3.67,0,0,1-1,0v.07H141.22v-.1a4.85,4.85,0,0,1-1.14,0,17.58,17.58,0,0,1-6-1.76,4.37,4.37,0,0,1-2.43-4.07,31.5,31.5,0,0,1,1-7.74,127.12,127.12,0,0,1,12-31.05c.27-.52,5-9.57,6.85-13.39a13.67,13.67,0,0,0,1.55-6q0-14.39,0-28.78a3.31,3.31,0,0,0-3.46-3.56c-2,0-4,0-6,0a3.35,3.35,0,1,0,0,6.69c1,0,1.94,0,3,0v1.42c0,7.77,0,15.54,0,23.32a9.06,9.06,0,0,1-.94,4.13q-3.49,7.14-7,14.3h0a138,138,0,0,0-11.28,28.36,44.06,44.06,0,0,0-1.87,12.36,10.34,10.34,0,0,0,5.69,9.48,22.68,22.68,0,0,0,9.6,2.61,4.19,4.19,0,0,1,1,.17h40.53a4,4,0,0,1,.79-.15,25.71,25.71,0,0,0,6.74-1.19c3.57-1.24,6.48-3.26,8.07-6.85A13.94,13.94,0,0,0,198.44,210Z"/><circle class="cls-3" cx="158.72" cy="172.3" r="5.38"/><path class="cls-3" d="M230.12,157.68a5.38,5.38,0,0,1-10.76,0c0-3,5.38-11.32,5.38-11.32S230.12,154.71,230.12,157.68Z"/><circle class="cls-3" cx="164.4" cy="155.62" r="3.98"/><circle class="cls-3" cx="159.09" cy="139.23" r="2.66"/><circle class="cls-3" cx="165.59" cy="127.3" r="2.66"/><circle class="cls-3" cx="161.61" cy="117.56" r="2.66"/><path class="cls-3" d="M227.61,109.27h-5.74c0-16.9-12.92-30.66-28.79-30.66s-28.79,13.76-28.79,30.66h-5.74c0-20.07,15.49-36.4,34.53-36.4S227.61,89.2,227.61,109.27Z"/><rect class="cls-3" x="221.87" y="109.1" width="5.74" height="32.99"/><polygon class="cls-3" points="78.58 208.11 72.41 208.11 72.41 239.81 78.58 239.81 78.58 227.44 118.74 227.44 118.74 220.48 78.58 220.48 78.58 208.11"/><rect class="cls-3" x="72.41" y="189.56" width="46.33" height="6.89"/><path class="cls-3" d="M105.91,145.8c-7.31,0-11.55,4.38-14.18,14.62-1.57,6-3,8.55-7.5,8.55-5.6,0-6.38-3.87-6.38-8,0-6.46,3.07-8.08,5.64-8.31l1.61-.14v-6.82l-1.91.15c-7.28.58-11.45,6.09-11.45,15.12,0,9.58,4.45,14.86,12.55,14.86,3.79,0,6.68-1.19,8.84-3.65,1.82-2.08,3.19-5.11,4.43-9.83,1.84-6.78,3.41-9.61,8.41-9.61,5.48,0,7.33,2.21,7.33,8.76,0,5.48-2,8.34-6,8.49l-1.7.07v6.71l1.79,0c7.42-.07,12-5.9,12-15.19C119.42,151.09,114.87,145.8,105.91,145.8Z"/><path class="cls-3" d="M88.72,134H102.6c8.73,0,16.82-1.95,16.82-16.11,0-10.14-4.19-14.8-13.56-15.13h-2.28v6.89h2.16c5.25.34,7.44,1.57,7.44,8.24,0,8.27-3.09,9.09-10.7,9.09h-14C81.07,127,78,125.72,78,117.9c0-5.71,2.09-8,7.22-8h2.16v-7H85.24c-9,0-13.5,5-13.5,15C71.74,132.06,79.9,134,88.72,134Z"/></svg>