<svg id="Layer_1" data-name="Layer 1" xmlns="http://www.w3.org/2000/svg" viewBox="0 0 532.09 217.17"><defs><style>.cls-1{fill:#0f6577;opacity:0.51;}.cls-2{fill:#fff;}.cls-3{fill:#fba91d;}.cls-4,.cls-5{fill:#036b95;}.cls-5{stroke:#036b95;stroke-miterlimit:10;stroke-width:0.5px;}</style></defs><title>TISC logo</title><path class="cls-1" d="M96,145.75a103.55,103.55,0,0,0-6.48-16.1H55.47a104.6,104.6,0,0,0-8.14,22.45,27.1,27.1,0,0,0-.82,6.65,3.73,3.73,0,0,0,2.09,3.49,14.83,14.83,0,0,0,5.12,1.51,3.58,3.58,0,0,0,1,0v.09H90.41v-.06a3.12,3.12,0,0,0,.85,0,13.45,13.45,0,0,0,5.5-1.71,3.71,3.71,0,0,0,1.87-3,17.4,17.4,0,0,0-.16-3A70.31,70.31,0,0,0,96,145.75Z"/><circle class="cls-2" cx="72.08" cy="144.45" r="8.27"/><circle class="cls-3" cx="72.23" cy="144.23" r="4.28"/><path class="cls-3" d="M72.23,155.74a11.51,11.51,0,1,1,11.51-11.51A11.53,11.53,0,0,1,72.23,155.74Zm0-19.47a8,8,0,1,0,8,8A8,8,0,0,0,72.23,136.27Z"/><path class="cls-3" d="M166,72.49a22.45,22.45,0,0,0-9.59-2.61,3,3,0,0,1-2.07-.8,8.54,8.54,0,0,0-3.94-2.33h-1.63l-.9.29a5.92,5.92,0,0,0-4.5,6.57,5.65,5.65,0,0,0,3.73,5,5.59,5.59,0,0,0,6-.74,5.09,5.09,0,0,0,.79-.67,3.44,3.44,0,0,1,3.2-1.07,17.51,17.51,0,0,1,6,1.76A4.34,4.34,0,0,1,165.46,82a31.49,31.49,0,0,1-1,7.74,127.93,127.93,0,0,1-12,31.05c-.28.52-.61,1-.94,1.5a1.35,1.35,0,0,1-1.16.61,1.84,1.84,0,0,0-1.11.8c-1.07,1.5-2,3.08-3.12,4.57a31.45,31.45,0,0,1-7.15,7.41c-3,2.09-4.95,2.07-8,0a29.94,29.94,0,0,1-6.68-6.94c-1.2-1.59-2.27-3.27-3.39-4.92-.37-.55-.71-1.06-1.52-.89-.19,0-.49-.18-.65-.37a5.47,5.47,0,0,1-.68-1,131.67,131.67,0,0,1-10.42-24.34,83.09,83.09,0,0,1-2.84-12,20,20,0,0,1-.18-3.46,4.28,4.28,0,0,1,2.18-3.49c1.93-1.31,4.17-1.61,6.41-2a3.44,3.44,0,0,1,3.28,1.2,5.59,5.59,0,0,0,6.49,1.36A6.7,6.7,0,0,0,127,72.55a6.25,6.25,0,0,0-4.92-5.65,2.62,2.62,0,0,1-.39-.15h-1.78a1.77,1.77,0,0,1-.31.15A6.88,6.88,0,0,0,116,69a2.58,2.58,0,0,1-1.92.9,25.71,25.71,0,0,0-6.73,1.19c-3.58,1.23-6.49,3.26-8.07,6.85a13.93,13.93,0,0,0-.61,7.77,89.15,89.15,0,0,0,3.14,13.39A141,141,0,0,0,112,123.22a27.87,27.87,0,0,1,1.17,2.54c.11.28.15.79,0,.94-.46.42-.3.79-.06,1.17,1,1.51,1.9,3,2.93,4.52,3.81,5.41,8.12,10.28,14.36,13a1,1,0,0,1,.39.75q-.06,13.74-.16,27.5h8.85q.08-13.68.12-27.35a1.06,1.06,0,0,1,.75-1.13,23.8,23.8,0,0,0,3.11-1.67,30.68,30.68,0,0,0,7.51-7c2.1-2.68,4-5.53,6-8.33.36-.5.64-1,.07-1.66-.15-.16-.08-.61,0-.89a6.16,6.16,0,0,1,.54-1.13,137.29,137.29,0,0,0,12.28-30.23A43.75,43.75,0,0,0,171.69,82,10.34,10.34,0,0,0,166,72.49Z"/><path class="cls-3" d="M104,203.65c-19.05,0-34.54-16.32-34.54-36.39h5.75c0,16.9,12.91,30.65,28.79,30.65s28.78-13.75,28.78-30.65h5.75C138.54,187.33,123.05,203.65,104,203.65Z"/><rect class="cls-3" x="69.47" y="153.97" width="5.74" height="13.29"/><path class="cls-4" d="M109.36,157.91a89.44,89.44,0,0,0-3.14-13.39,139.33,139.33,0,0,0-9.74-23.33s-4.67-9.75-7-14.63a9.85,9.85,0,0,1-.93-4c-.08-7.85,0-15.69,0-23.54V77.74c1.12,0,2.11,0,3.1,0a3.35,3.35,0,1,0,0-6.7c-2,0-3.9,0-5.85,0-2.5,0-3.77,1.32-3.77,3.89q0,13.81,0,27.63a15.28,15.28,0,0,0,1.58,6.87c1.87,3.82,6.21,12.35,6.38,12.68a131.29,131.29,0,0,1,10.42,24.33,81.62,81.62,0,0,1,2.84,12,21,21,0,0,1,.19,3.45,4.35,4.35,0,0,1-2.19,3.5c-1.93,1.3-4.17,1.61-6.41,2a4.27,4.27,0,0,1-1,.05v.06H52.15v-.1a4,4,0,0,1-1.14,0,17.36,17.36,0,0,1-6-1.76,4.34,4.34,0,0,1-2.43-4.07,31.5,31.5,0,0,1,1-7.74,127.66,127.66,0,0,1,12-31c.28-.52,5-9.56,6.86-13.39a13.8,13.8,0,0,0,1.55-6q0-14.38,0-28.78A3.31,3.31,0,0,0,60.47,71q-3,0-6,0a3.36,3.36,0,1,0,0,6.7h3v1.41c0,7.77,0,15.55,0,23.32a9,9,0,0,1-.95,4.13q-3.5,7.14-7,14.3h0a137.57,137.57,0,0,0-11.28,28.37,43.68,43.68,0,0,0-1.87,12.35,10.36,10.36,0,0,0,5.69,9.49,22.62,22.62,0,0,0,9.59,2.6,4.18,4.18,0,0,1,1,.17H93.16a3.36,3.36,0,0,1,.79-.16,25.57,25.57,0,0,0,6.73-1.19c3.58-1.23,6.49-3.26,8.07-6.85A13.92,13.92,0,0,0,109.36,157.91Z"/><circle class="cls-4" cx="69.65" cy="120.21" r="5.38"/><path class="cls-4" d="M141.05,105.59a5.38,5.38,0,1,1-10.76,0c0-3,5.38-11.31,5.38-11.31S141.05,102.62,141.05,105.59Z"/><circle class="cls-4" cx="75.33" cy="103.53" r="3.98"/><circle class="cls-4" cx="70.02" cy="87.14" r="2.66"/><circle class="cls-4" cx="76.51" cy="75.21" r="2.66"/><circle class="cls-4" cx="72.53" cy="65.47" r="2.66"/><path class="cls-4" d="M138.54,57.18h-5.75c0-16.9-12.91-30.65-28.78-30.65S75.22,40.28,75.22,57.18H69.47c0-20.07,15.49-36.4,34.54-36.4S138.54,37.11,138.54,57.18Z"/><rect class="cls-4" x="132.79" y="57.01" width="5.74" height="32.99"/><polygon class="cls-4" points="174.23 57.41 174.23 33.24 167.18 33.24 167.18 27.07 188.2 27.07 188.2 33.24 181.12 33.24 181.12 57.41 174.23 57.41"/><path class="cls-4" d="M194.66,34.08l.2,2.83a6.57,6.57,0,0,1,5.81-3.19,9.14,9.14,0,0,1,1.15.08v2a10.72,10.72,0,0,0-1.27-.08c-3.27,0-5.69,2.07-5.69,6V57.41h-2V34.08Z"/><path class="cls-4" d="M212.57,33.6c-5,0-7.12,2.39-7.12,7.29h1.79c0-4.26,2-5.54,5.29-5.54,3.55,0,5.06,1.72,5.06,5.7V45a31.23,31.23,0,0,0-4.22-.36c-6.05,0-8.68,2.31-8.68,6.81s2.63,6.49,6.49,6.49a7.07,7.07,0,0,0,6.45-3.39l.08,2.91h1.79V41.05C219.5,35.71,217,33.6,212.57,33.6Zm5,16.36c0,4.18-2.79,6.21-6.05,6.21s-4.82-1.71-4.82-4.85c0-3.35,1.71-5.06,6.53-5.06a34.12,34.12,0,0,1,4.34.36Z"/><path class="cls-4" d="M227.3,34.08l.16,2.31a7,7,0,0,1,6-2.79c5.38,0,6.85,3.07,6.85,8.36V57.41h-2V42.08c0-4.62-1.19-6.69-5.37-6.69-3.23,0-5.54,1.91-5.54,5.5V57.41h-1.95V34.08Z"/><path class="cls-4" d="M260,51.08c0,4.22-2.35,6.81-7.44,6.81-4.94,0-7.45-2.07-7.45-6.65h1.87c0,3.06,1.48,4.93,5.58,4.93,3.62,0,5.53-1.63,5.53-5,0-3.82-2.59-4.54-6.09-5.22s-6.25-1.75-6.25-6.33c0-3.54,2.15-6,7-6s7,2.27,7,6.21H257.8c-.12-2.94-1.43-4.5-5.13-4.5s-5.1,1.64-5.1,4.26c0,3.35,1.79,4.06,5,4.7C256.29,45,260,46,260,51.08Z"/><path class="cls-4" d="M270.86,57.49c-5,.52-5.81-1.44-5.81-6.57V26.67H267V51.08c0,4.26.56,4.78,3.86,4.74Z"/><path class="cls-4" d="M282.29,33.6c-5,0-7.13,2.39-7.13,7.29H277c0-4.26,2-5.54,5.3-5.54,3.54,0,5.06,1.72,5.06,5.7V45a31.23,31.23,0,0,0-4.22-.36c-6,0-8.68,2.31-8.68,6.81s2.63,6.49,6.49,6.49a7.07,7.07,0,0,0,6.45-3.39l.08,2.91h1.79V41.05C289.22,35.71,286.75,33.6,282.29,33.6Zm5,16.36c0,4.18-2.79,6.21-6.06,6.21s-4.81-1.71-4.81-4.85c0-3.35,1.71-5.06,6.53-5.06a34.12,34.12,0,0,1,4.34.36Z"/><path class="cls-4" d="M302.79,55.82v1.79a10,10,0,0,1-2.34.28c-4.22,0-5.58-2.15-5.58-6.73V29h2v5.54h5.89v1.75h-5.89V51.16c0,4,1.16,4.89,3.9,4.89A10.44,10.44,0,0,0,302.79,55.82Z"/><rect class="cls-4" x="307.85" y="26.24" width="2.03" height="2.63"/><rect class="cls-4" x="307.89" y="34.08" width="1.95" height="23.33"/><path class="cls-4" d="M323.06,33.6c-5.17,0-7.48,2-7.48,8.8v6.69c0,6.77,2.31,8.8,7.48,8.8s7.45-2,7.45-8.8V42.4C330.51,35.63,328.2,33.6,323.06,33.6ZM328.52,49c0,5.53-1.32,7.12-5.46,7.12s-5.49-1.59-5.49-7.12V42.48c0-5.49,1.31-7.09,5.49-7.09s5.46,1.6,5.46,7.09Z"/><path class="cls-4" d="M338,34.08l.16,2.31a7,7,0,0,1,6.05-2.79c5.38,0,6.85,3.07,6.85,8.36V57.41H349.1V42.08c0-4.62-1.19-6.69-5.38-6.69-3.22,0-5.53,1.91-5.53,5.5V57.41h-1.95V34.08Z"/><path class="cls-4" d="M364.23,33.6c-5,0-7.13,2.39-7.13,7.29h1.79c0-4.26,2-5.54,5.3-5.54,3.54,0,5.05,1.72,5.05,5.7V45a31,31,0,0,0-4.21-.36c-6.06,0-8.68,2.31-8.68,6.81s2.62,6.49,6.49,6.49a7.07,7.07,0,0,0,6.45-3.39l.08,2.91h1.79V41.05C371.16,35.71,368.69,33.6,364.23,33.6Zm5,16.36c0,4.18-2.78,6.21-6.05,6.21s-4.81-1.71-4.81-4.85c0-3.35,1.71-5.06,6.53-5.06a33.83,33.83,0,0,1,4.33.36Z"/><path class="cls-4" d="M382.86,57.49c-5,.52-5.81-1.44-5.81-6.57V26.67H379V51.08c0,4.26.56,4.78,3.86,4.74Z"/><path class="cls-5" d="M416.9,56c-2.62,0-3.7-.95-3.7-5V42.16h4.54V40.53h-11.9c-4.66,0-6.41-3-6.41-6.21,0-4.54,3-6.05,6.13-6.05s5.81,1.43,6.13,5.49h2c-.36-4.94-3.7-7.17-8.12-7.17-4.7,0-8.08,2.47-8.08,7.69,0,3.38,1.43,6.09,4.77,7.12-2.82.76-5.45,3.11-5.45,8,0,5.17,2.79,8.52,8.2,8.52,3.54,0,5.81-1.52,6.73-3.39.48,2.15,1.79,3.31,4.89,3.31a9,9,0,0,0,2.08-.24V55.78A7.88,7.88,0,0,1,416.9,56Zm-5.61-6.56c0,4.06-1.59,6.68-6.09,6.68s-6.41-2.94-6.41-6.8c0-5.7,3.9-7.13,7.33-7.13h5.17Z"/><rect class="cls-4" x="192.57" y="81.56" width="6.93" height="30.33"/><path class="cls-4" d="M206.94,88.57l.16,2.31c1.11-1.68,3.18-2.79,6.05-2.79,5.38,0,6.85,3.06,6.85,8.36V111.9h-1.95V96.57c0-4.62-1.2-6.69-5.38-6.69-3.22,0-5.53,1.91-5.53,5.49V111.9h-1.95V88.57Z"/><path class="cls-4" d="M236.6,110.3v1.79a10.11,10.11,0,0,1-2.35.28c-4.22,0-5.57-2.15-5.57-6.72V83.51h2V89h5.89V90.8h-5.89v14.85c0,4,1.15,4.89,3.9,4.89A9.75,9.75,0,0,0,236.6,110.3Z"/><path class="cls-4" d="M258.38,100.51v-3.9c0-5.85-2.15-8.52-7.21-8.52s-7.36,2.47-7.36,8.84v6.76c0,6.33,2.31,8.68,7.48,8.68,4.74,0,6.85-2.15,6.89-6.53h-1.87c-.08,3.19-1.35,4.78-5.06,4.78-4.14,0-5.49-2.11-5.49-6.89v-3.22Zm-12.62-3.7c0-5.06,1.35-7,5.41-7s5.3,2.19,5.3,6.77v2.23H245.76Z"/><path class="cls-4" d="M279.28,88.57l-.12,2.27a6.53,6.53,0,0,0-5.73-2.75c-4,0-7.2,2.23-7.2,8.72v6.41c0,5.69,2.14,8.83,6.92,8.83,2.71,0,4.78-.87,6-2.74v1.59c0,5.33-1.23,7.37-5.57,7.37-3.5,0-4.74-1.52-4.9-4h-1.87c.2,4,2.23,5.74,6.73,5.74,5.14,0,7.6-2.15,7.6-9.28V88.57Zm-.16,16.2c0,3.58-2.27,5.53-5.53,5.53-3.78,0-5.37-2.39-5.37-7V97c0-5.3,2.19-7.09,5.49-7.09,3,0,5.41,1.55,5.41,6.13Z"/><path class="cls-4" d="M292.3,88.57l.2,2.82a6.61,6.61,0,0,1,5.82-3.18,9.28,9.28,0,0,1,1.15.08v2a10.86,10.86,0,0,0-1.27-.08c-3.27,0-5.7,2.07-5.7,6V111.9h-1.95V88.57Z"/><path class="cls-4" d="M313.17,88.09c-5,0-7.13,2.39-7.13,7.28h1.79c0-4.26,2-5.53,5.3-5.53,3.54,0,5.05,1.71,5.05,5.69v3.91a31,31,0,0,0-4.22-.36c-6,0-8.68,2.31-8.68,6.8s2.63,6.49,6.49,6.49a7,7,0,0,0,6.45-3.38l.08,2.91h1.79V95.53C320.09,90.2,317.63,88.09,313.17,88.09Zm5,16.36c0,4.18-2.78,6.21-6.05,6.21s-4.82-1.71-4.82-4.86c0-3.34,1.72-5,6.53-5a33.83,33.83,0,0,1,4.34.36Z"/><path class="cls-4" d="M336.62,110.3v1.79a10.18,10.18,0,0,1-2.35.28c-4.22,0-5.57-2.15-5.57-6.72V83.51h2V89h5.89V90.8h-5.89v14.85c0,4,1.15,4.89,3.9,4.89A9.83,9.83,0,0,0,336.62,110.3Z"/><rect class="cls-4" x="344.62" y="80.72" width="2.03" height="2.63"/><rect class="cls-4" x="344.66" y="88.57" width="1.95" height="23.33"/><polygon class="cls-4" points="355.85 88.57 361.86 109.59 367.95 88.57 370.14 88.57 363.14 111.89 360.55 111.89 353.58 88.57 355.85 88.57"/><path class="cls-4" d="M390.85,100.51v-3.9c0-5.85-2.15-8.52-7.21-8.52s-7.36,2.47-7.36,8.84v6.76c0,6.33,2.3,8.68,7.48,8.68,4.74,0,6.85-2.15,6.89-6.53h-1.87c-.08,3.19-1.36,4.78-5.06,4.78-4.14,0-5.49-2.11-5.49-6.89v-3.22Zm-12.62-3.7c0-5.06,1.35-7,5.41-7s5.29,2.19,5.29,6.77v2.23h-10.7Z"/><path class="cls-4" d="M167.6,144.91c0-5.69,3.43-8.8,9.84-8.8,6.25,0,10.15,2.39,10.67,9.16h-6.85c-.28-2.27-1.28-3.18-3.86-3.18-2.23,0-3,1-3,2.58,0,2,1.12,3,4.26,3.67,4.58,1.11,10.07,2.46,10.07,9.71,0,5.69-2.9,9.35-11,9.35s-10.66-4.41-10.66-9.27h6.84c.08,2,1.08,3.3,4.14,3.3,2.59,0,3.75-1.07,3.75-3.18s-1.32-3.11-5.58-4.1S167.6,151.76,167.6,144.91Z"/><path class="cls-4" d="M207.66,160v.24c0,4.66-2,7.12-7.24,7.12-5.06,0-7.37-2.3-7.37-8.79v-6.77c0-6.49,2.51-8.72,7.53-8.72s7,2.43,7,6.93v.24h-1.91v-.24c0-3.15-1.11-5.14-5.13-5.14s-5.5,1.91-5.5,6.93v6.69c0,4.85,1.16,7.12,5.42,7.12s5.33-2.19,5.33-5.37V160Z"/><rect class="cls-4" x="211.93" y="135.76" width="2.03" height="2.63"/><rect class="cls-4" x="211.97" y="143.6" width="1.95" height="23.33"/><path class="cls-4" d="M233.15,155.54v-3.9c0-5.85-2.15-8.52-7.21-8.52s-7.36,2.47-7.36,8.84v6.77c0,6.33,2.3,8.67,7.48,8.67,4.74,0,6.85-2.14,6.89-6.52h-1.87c-.08,3.18-1.36,4.77-5.06,4.77-4.14,0-5.49-2.11-5.49-6.88v-3.23Zm-12.62-3.7c0-5.06,1.35-7,5.41-7s5.3,2.19,5.3,6.77v2.23H220.53Z"/><path class="cls-4" d="M239.48,143.6l.16,2.31c1.11-1.67,3.18-2.79,6.05-2.79,5.37,0,6.85,3.07,6.85,8.36v15.45h-1.95V151.6c0-4.62-1.2-6.69-5.38-6.69-3.22,0-5.53,1.91-5.53,5.5v16.52h-2V143.6Z"/><path class="cls-4" d="M271.45,160v.24c0,4.66-2,7.12-7.25,7.12-5.05,0-7.36-2.3-7.36-8.79v-6.77c0-6.49,2.51-8.72,7.52-8.72s7,2.43,7,6.93v.24h-1.91v-.24c0-3.15-1.12-5.14-5.14-5.14s-5.49,1.91-5.49,6.93v6.69c0,4.85,1.15,7.12,5.41,7.12s5.34-2.19,5.34-5.37V160Z"/><path class="cls-4" d="M289.56,155.54v-3.9c0-5.85-2.15-8.52-7.2-8.52S275,145.59,275,152v6.77c0,6.33,2.31,8.67,7.49,8.67,4.74,0,6.85-2.14,6.89-6.52h-1.88c-.08,3.18-1.35,4.77-5.05,4.77-4.14,0-5.5-2.11-5.5-6.88v-3.23Zm-12.62-3.7c0-5.06,1.36-7,5.42-7s5.29,2.19,5.29,6.77v2.23H276.94Z"/><path class="cls-4" d="M307.6,160.6c0,4.22-2.35,6.8-7.44,6.8s-7.45-2.06-7.45-6.64h1.87c0,3.06,1.48,4.93,5.58,4.93,3.62,0,5.53-1.63,5.53-5,0-3.82-2.59-4.54-6.09-5.22s-6.25-1.75-6.25-6.33c0-3.54,2.15-6,7-6s7,2.27,7,6.21h-1.87c-.12-2.94-1.43-4.5-5.13-4.5s-5.1,1.64-5.1,4.26c0,3.35,1.79,4.06,5,4.7C303.94,154.55,307.6,155.5,307.6,160.6Z"/><path class="cls-4" d="M339.68,156v.84c0,6.8-3.62,10.54-10.95,10.54-7.48,0-11-3.9-11-10.94V147.1c0-7.08,3.5-11,11-11,7.25,0,10.91,3.71,10.91,10.55v.52h-7.36v-.64c0-2.74-1.32-4-3.55-4-2.7,0-3.74,1.48-3.74,4.9v8.72c0,3.34,1,4.78,3.74,4.78,2.31,0,3.51-1.16,3.59-4v-1Z"/><path class="cls-4" d="M359.2,155.54v-3.9c0-5.85-2.15-8.52-7.21-8.52s-7.36,2.47-7.36,8.84v6.77c0,6.33,2.31,8.67,7.49,8.67,4.73,0,6.84-2.14,6.88-6.52h-1.87c-.08,3.18-1.35,4.77-5.05,4.77-4.15,0-5.5-2.11-5.5-6.88v-3.23Zm-12.62-3.7c0-5.06,1.35-7,5.41-7s5.3,2.19,5.3,6.77v2.23H346.58Z"/><path class="cls-4" d="M365.53,143.6l.16,2.31a7,7,0,0,1,6.05-2.79c5.38,0,6.85,3.07,6.85,8.36v15.45h-1.95V151.6c0-4.62-1.19-6.69-5.37-6.69-3.23,0-5.54,1.91-5.54,5.5v16.52h-2V143.6Z"/><path class="cls-4" d="M391.17,165.34v1.79a10.11,10.11,0,0,1-2.34.27c-4.22,0-5.58-2.14-5.58-6.72V138.54h2v5.54h5.89v1.75h-5.89v14.85c0,4,1.16,4.89,3.9,4.89A10.44,10.44,0,0,0,391.17,165.34Z"/><path class="cls-4" d="M408.93,155.54v-3.9c0-5.85-2.15-8.52-7.21-8.52s-7.36,2.47-7.36,8.84v6.77c0,6.33,2.31,8.67,7.48,8.67,4.74,0,6.85-2.14,6.89-6.52h-1.87c-.08,3.18-1.35,4.77-5.06,4.77-4.14,0-5.49-2.11-5.49-6.88v-3.23Zm-12.62-3.7c0-5.06,1.35-7,5.41-7s5.3,2.19,5.3,6.77v2.23H396.31Z"/><path class="cls-4" d="M415.26,143.6l.2,2.83a6.59,6.59,0,0,1,5.81-3.19,9.31,9.31,0,0,1,1.16.08v2a10.9,10.9,0,0,0-1.28-.08c-3.26,0-5.69,2.07-5.69,6v15.69h-1.95V143.6Z"/></svg>