<svg id="Layer_1" data-name="Layer 1" xmlns="http://www.w3.org/2000/svg" viewBox="0 0 331.87 326.14"><defs><style>.cls-1{fill:#231f20;opacity:0.21;}.cls-2{fill:#fff;}.cls-3{fill:#a4a3a4;}.cls-4{fill:#666766;}.cls-5{fill:#727172;}</style></defs><title>TISC logo</title><path class="cls-1" d="M192.31,199.75a102.54,102.54,0,0,0-6.47-16.1H151.75a104.07,104.07,0,0,0-8.14,22.45,26.62,26.62,0,0,0-.82,6.65,3.75,3.75,0,0,0,2.08,3.5,15,15,0,0,0,5.13,1.5,3.51,3.51,0,0,0,1,0v.09h35.71v-.06a2.77,2.77,0,0,0,.85,0A13.45,13.45,0,0,0,193,216a3.71,3.71,0,0,0,1.87-3,17.23,17.23,0,0,0-.16-3A69.21,69.21,0,0,0,192.31,199.75Z"/><circle class="cls-2" cx="168.36" cy="198.45" r="8.27"/><circle class="cls-3" cx="168.51" cy="198.23" r="4.28"/><path class="cls-3" d="M168.51,209.74A11.51,11.51,0,1,1,180,198.23,11.52,11.52,0,0,1,168.51,209.74Zm0-19.47a8,8,0,1,0,8,8A8,8,0,0,0,168.51,190.27Z"/><path class="cls-3" d="M262.28,126.49a22.64,22.64,0,0,0-9.59-2.61,3,3,0,0,1-2.08-.8,8.62,8.62,0,0,0-3.94-2.33h-1.62l-.9.29a5.92,5.92,0,0,0-4.5,6.57,6.08,6.08,0,0,0,9.7,4.3,7.08,7.08,0,0,0,.79-.66,3.44,3.44,0,0,1,3.2-1.08,17.58,17.58,0,0,1,6,1.76,4.36,4.36,0,0,1,2.43,4.08,31.62,31.62,0,0,1-1,7.74,127.21,127.21,0,0,1-12,31,15.56,15.56,0,0,1-.93,1.5,1.36,1.36,0,0,1-1.17.61,1.82,1.82,0,0,0-1.1.8c-1.08,1.5-2,3.09-3.13,4.57a31.21,31.21,0,0,1-7.14,7.41c-3,2.09-5,2.07-8,0a30,30,0,0,1-6.68-6.95c-1.2-1.58-2.28-3.27-3.39-4.92-.37-.55-.71-1.06-1.52-.89-.19,0-.5-.18-.65-.36a6.14,6.14,0,0,1-.69-1A131.34,131.34,0,0,1,204,151.15a81.79,81.79,0,0,1-2.84-12,21.07,21.07,0,0,1-.19-3.46,4.34,4.34,0,0,1,2.18-3.49c1.94-1.31,4.18-1.61,6.42-2a3.45,3.45,0,0,1,3.28,1.2,5.59,5.59,0,0,0,6.49,1.36,6.68,6.68,0,0,0,3.93-6.17,6.24,6.24,0,0,0-4.93-5.65,3.2,3.2,0,0,1-.39-.16h-1.77a1.77,1.77,0,0,1-.31.15,6.88,6.88,0,0,0-3.59,2.07,2.54,2.54,0,0,1-1.92.9,26.13,26.13,0,0,0-6.74,1.19c-3.57,1.24-6.48,3.26-8.06,6.85-1.12,2.53-1,5.15-.62,7.77a90.12,90.12,0,0,0,3.15,13.39,140.57,140.57,0,0,0,10.15,24.15,25.41,25.41,0,0,1,1.17,2.54c.12.28.15.79,0,.94-.46.42-.31.79-.06,1.17,1,1.52,1.9,3,2.93,4.52,3.81,5.42,8.12,10.28,14.36,13a1,1,0,0,1,.39.75q-.08,13.76-.16,27.5h8.85q.06-13.68.12-27.35a1,1,0,0,1,.75-1.13,25.73,25.73,0,0,0,3.11-1.66,30.65,30.65,0,0,0,7.5-6.95c2.11-2.69,4-5.54,6-8.33.35-.51.64-1.05.07-1.67-.15-.16-.09-.61,0-.89a6.16,6.16,0,0,1,.54-1.13,137.58,137.58,0,0,0,12.28-30.23A44.06,44.06,0,0,0,268,136,10.34,10.34,0,0,0,262.28,126.49Z"/><path class="cls-3" d="M200.28,257.65c-19,0-34.53-16.32-34.53-36.39h5.74c0,16.9,12.92,30.65,28.79,30.65s28.79-13.75,28.79-30.65h5.75C234.82,241.33,219.32,257.65,200.28,257.65Z"/><rect class="cls-3" x="165.75" y="207.97" width="5.74" height="13.29"/><path class="cls-4" d="M205.64,211.91a88.25,88.25,0,0,0-3.15-13.39,139.28,139.28,0,0,0-9.73-23.33s-4.68-9.75-7-14.63a9.69,9.69,0,0,1-.93-4c-.09-7.84,0-15.69,0-23.53v-1.29h3.09a3.35,3.35,0,1,0,0-6.7c-2,0-3.89,0-5.84,0-2.5,0-3.77,1.32-3.77,3.89q0,13.81,0,27.63a15.15,15.15,0,0,0,1.58,6.87c1.87,3.82,6.21,12.36,6.38,12.68a131.09,131.09,0,0,1,10.42,24.34,82.47,82.47,0,0,1,2.84,12,21,21,0,0,1,.18,3.46,4.33,4.33,0,0,1-2.18,3.49c-1.93,1.3-4.17,1.61-6.41,2a3.78,3.78,0,0,1-1,.05v.06H148.42v-.1a4,4,0,0,1-1.14,0,17.63,17.63,0,0,1-6-1.75,4.37,4.37,0,0,1-2.42-4.08,31,31,0,0,1,1-7.74,128.09,128.09,0,0,1,12-31c.28-.52,5-9.56,6.86-13.39a13.65,13.65,0,0,0,1.54-6q0-14.4,0-28.79a3.32,3.32,0,0,0-3.46-3.56q-3,0-6,0a3.36,3.36,0,1,0,0,6.7h3v1.41c0,7.77,0,15.55,0,23.32a9,9,0,0,1-.94,4.13q-3.5,7.14-7,14.3h0a137.6,137.6,0,0,0-11.29,28.37,43.67,43.67,0,0,0-1.86,12.35,10.35,10.35,0,0,0,5.69,9.49,22.59,22.59,0,0,0,9.59,2.6,5,5,0,0,1,1,.17h40.53a3.17,3.17,0,0,1,.79-.15,26.56,26.56,0,0,0,6.73-1.19c3.58-1.24,6.48-3.26,8.07-6.86A13.92,13.92,0,0,0,205.64,211.91Z"/><circle class="cls-4" cx="165.92" cy="174.21" r="5.38"/><path class="cls-4" d="M237.32,159.59a5.38,5.38,0,0,1-10.76,0c0-3,5.38-11.31,5.38-11.31S237.32,156.62,237.32,159.59Z"/><circle class="cls-4" cx="171.6" cy="157.54" r="3.98"/><circle class="cls-4" cx="166.3" cy="141.14" r="2.66"/><circle class="cls-4" cx="172.79" cy="129.21" r="2.66"/><circle class="cls-4" cx="168.81" cy="119.47" r="2.66"/><path class="cls-4" d="M234.82,111.18h-5.75c0-16.9-12.91-30.65-28.79-30.65s-28.79,13.75-28.79,30.65h-5.74c0-20.07,15.49-36.4,34.53-36.4S234.82,91.11,234.82,111.18Z"/><rect class="cls-4" x="229.07" y="111.01" width="5.74" height="32.99"/><polygon class="cls-5" points="85.79 210.03 79.61 210.03 79.61 241.73 85.79 241.73 85.79 229.36 125.94 229.36 125.94 222.4 85.79 222.4 85.79 210.03"/><rect class="cls-5" x="79.61" y="191.47" width="46.33" height="6.89"/><path class="cls-5" d="M113.11,147.72c-7.31,0-11.55,4.37-14.18,14.61-1.57,6-3,8.55-7.5,8.55-5.6,0-6.37-3.86-6.37-8,0-6.46,3.06-8.08,5.63-8.3l1.61-.14v-6.83l-1.9.15c-7.29.58-11.46,6.09-11.46,15.12,0,9.59,4.46,14.87,12.55,14.87a11.06,11.06,0,0,0,8.84-3.66c1.82-2.07,3.19-5.11,4.44-9.82,1.83-6.78,3.4-9.62,8.4-9.62,5.48,0,7.33,2.21,7.33,8.76,0,5.49-2,8.35-6,8.5l-1.69.06v6.72l1.78,0c7.42-.08,12-5.9,12-15.19C126.62,153,122.07,147.72,113.11,147.72Z"/><path class="cls-3" d="M95.93,135.92H109.8c8.73,0,16.82-1.95,16.82-16.11,0-10.14-4.18-14.8-13.56-15.12h-2.28v6.89h2.16c5.25.34,7.45,1.57,7.45,8.23,0,8.27-3.1,9.09-10.7,9.09h-14c-7.43,0-10.53-1.26-10.53-9.09,0-5.71,2.09-8,7.22-8h2.16v-7H92.44c-9,0-13.5,5-13.5,15C78.94,134,87.1,135.92,95.93,135.92Z"/></svg>