<svg id="Layer_1" data-name="Layer 1" xmlns="http://www.w3.org/2000/svg" viewBox="0 0 331.87 326.14"><defs><style>.cls-1,.cls-4{fill:#231f20;}.cls-1{opacity:0.21;}.cls-2{fill:#fff;}.cls-3{fill:#727172;}</style></defs><title>TISC logo</title><path class="cls-1" d="M180.11,205.92a102.58,102.58,0,0,0-6.48-16.1H139.55a104.1,104.1,0,0,0-8.15,22.45,27.1,27.1,0,0,0-.82,6.65,3.76,3.76,0,0,0,2.09,3.5,15,15,0,0,0,5.12,1.5,3.59,3.59,0,0,0,1,0V224h35.71V224a2.77,2.77,0,0,0,.85,0,13.45,13.45,0,0,0,5.5-1.71,3.67,3.67,0,0,0,1.87-3,18.36,18.36,0,0,0-.15-3A71.78,71.78,0,0,0,180.11,205.92Z"/><circle class="cls-2" cx="156.15" cy="204.62" r="8.27"/><circle class="cls-3" cx="156.3" cy="204.4" r="4.28"/><path class="cls-3" d="M156.3,215.91a11.51,11.51,0,1,1,11.51-11.51A11.52,11.52,0,0,1,156.3,215.91Zm0-19.47a8,8,0,1,0,8,8A8,8,0,0,0,156.3,196.44Z"/><path class="cls-3" d="M250.07,132.66a22.6,22.6,0,0,0-9.59-2.61,3.06,3.06,0,0,1-2.07-.79,8.55,8.55,0,0,0-3.94-2.34h-1.63l-.9.29a5.9,5.9,0,0,0-4.49,6.57,6.07,6.07,0,0,0,9.69,4.3,5,5,0,0,0,.79-.66,3.45,3.45,0,0,1,3.21-1.08,17.53,17.53,0,0,1,6,1.76,4.36,4.36,0,0,1,2.43,4.08,31.13,31.13,0,0,1-.95,7.74,128,128,0,0,1-12,31c-.28.52-.61,1-.94,1.5a1.35,1.35,0,0,1-1.16.61,1.84,1.84,0,0,0-1.11.8c-1.07,1.5-2,3.09-3.12,4.57a31.45,31.45,0,0,1-7.15,7.41c-3,2.09-4.95,2.07-8,0a30.14,30.14,0,0,1-6.68-6.94c-1.2-1.59-2.27-3.28-3.39-4.93-.37-.55-.7-1.06-1.51-.89-.2,0-.5-.18-.66-.36a5.55,5.55,0,0,1-.68-1.05,131.38,131.38,0,0,1-10.42-24.34,83.09,83.09,0,0,1-2.84-12,21.07,21.07,0,0,1-.18-3.46,4.3,4.3,0,0,1,2.18-3.49c1.93-1.31,4.17-1.61,6.41-2a3.43,3.43,0,0,1,3.28,1.2,5.59,5.59,0,0,0,6.49,1.36,6.67,6.67,0,0,0,3.93-6.17,6.23,6.23,0,0,0-4.92-5.65,2.66,2.66,0,0,1-.39-.16H204a1.77,1.77,0,0,1-.31.15,6.88,6.88,0,0,0-3.59,2.07,2.54,2.54,0,0,1-1.92.9,26.13,26.13,0,0,0-6.73,1.19c-3.58,1.24-6.49,3.26-8.07,6.85a13.94,13.94,0,0,0-.61,7.77,88.1,88.1,0,0,0,3.15,13.4,140,140,0,0,0,10.15,24.14c.43.83.82,1.67,1.17,2.54.11.28.15.79,0,.94-.45.42-.3.79-.06,1.17,1,1.52,1.9,3.05,2.94,4.52,3.8,5.42,8.11,10.28,14.35,13a1,1,0,0,1,.39.75q-.06,13.75-.16,27.5h8.85q.08-13.68.12-27.35a1.06,1.06,0,0,1,.75-1.13,25.86,25.86,0,0,0,3.12-1.66,31,31,0,0,0,7.5-6.95c2.1-2.69,4-5.54,6-8.33.36-.51.65-1,.08-1.67-.16-.16-.09-.61,0-.89a6.54,6.54,0,0,1,.55-1.13A138.07,138.07,0,0,0,253.9,154.5a43.69,43.69,0,0,0,1.86-12.36A10.34,10.34,0,0,0,250.07,132.66Z"/><path class="cls-3" d="M188.08,263.83c-19.05,0-34.54-16.33-34.54-36.4h5.75c0,16.9,12.91,30.65,28.79,30.65s28.79-13.75,28.79-30.65h5.74C222.61,247.5,207.12,263.83,188.08,263.83Z"/><rect class="cls-3" x="153.54" y="214.14" width="5.74" height="13.29"/><path class="cls-4" d="M193.43,218.09a89.27,89.27,0,0,0-3.14-13.4,139.33,139.33,0,0,0-9.74-23.33s-4.67-9.74-7-14.63a9.85,9.85,0,0,1-.93-4c-.08-7.84,0-15.69,0-23.53v-1.29h3.1a3.35,3.35,0,1,0,0-6.7c-1.95,0-3.9,0-5.85,0-2.49,0-3.77,1.32-3.77,3.89,0,9.21,0,18.43,0,27.64a15.27,15.27,0,0,0,1.58,6.86c1.87,3.82,6.21,12.36,6.39,12.68a131.73,131.73,0,0,1,10.41,24.34,81.2,81.2,0,0,1,2.84,12,21.07,21.07,0,0,1,.19,3.46,4.34,4.34,0,0,1-2.19,3.49c-1.93,1.3-4.17,1.61-6.41,2a3.78,3.78,0,0,1-1,0v.06h-41.6v-.1a4,4,0,0,1-1.14,0,17.56,17.56,0,0,1-6-1.75,4.36,4.36,0,0,1-2.43-4.08,31.5,31.5,0,0,1,1-7.74,127.05,127.05,0,0,1,12-31c.27-.53,5-9.57,6.85-13.4a13.8,13.8,0,0,0,1.55-6q0-14.4,0-28.79a3.32,3.32,0,0,0-3.46-3.56q-3,0-6,0a3.36,3.36,0,1,0,0,6.7h3v1.41c0,7.78,0,15.55,0,23.32a9,9,0,0,1-.95,4.13q-3.5,7.14-6.95,14.3h0a138.13,138.13,0,0,0-11.28,28.37,43.68,43.68,0,0,0-1.87,12.35,10.35,10.35,0,0,0,5.69,9.49,22.62,22.62,0,0,0,9.59,2.6,4.78,4.78,0,0,1,1,.17h40.53a3.35,3.35,0,0,1,.79-.15,26.56,26.56,0,0,0,6.74-1.19c3.57-1.24,6.48-3.26,8.06-6.86C193.94,223.33,193.8,220.71,193.43,218.09Z"/><circle class="cls-4" cx="153.72" cy="180.38" r="5.38"/><path class="cls-4" d="M225.12,165.76a5.38,5.38,0,0,1-10.76,0c0-3,5.38-11.31,5.38-11.31S225.12,162.79,225.12,165.76Z"/><circle class="cls-4" cx="159.4" cy="163.71" r="3.98"/><circle class="cls-4" cx="154.09" cy="147.31" r="2.66"/><circle class="cls-4" cx="160.58" cy="135.38" r="2.66"/><circle class="cls-4" cx="156.6" cy="125.64" r="2.66"/><path class="cls-4" d="M222.61,117.35h-5.74c0-16.9-12.92-30.65-28.79-30.65s-28.79,13.75-28.79,30.65h-5.75C153.54,97.28,169,81,188.08,81S222.61,97.28,222.61,117.35Z"/><rect class="cls-4" x="216.87" y="117.18" width="5.74" height="32.99"/><polygon class="cls-4" points="73.58 216.2 67.41 216.2 67.41 247.9 73.58 247.9 73.58 235.53 113.74 235.53 113.74 228.57 73.58 228.57 73.58 216.2"/><rect class="cls-4" x="67.41" y="197.65" width="46.33" height="6.89"/><path class="cls-4" d="M100.91,153.89c-7.31,0-11.55,4.37-14.18,14.61-1.57,6-3,8.55-7.5,8.55-5.61,0-6.38-3.86-6.38-8,0-6.45,3.06-8.08,5.63-8.3l1.62-.14v-6.83l-1.91.16c-7.28.57-11.46,6.08-11.46,15.11,0,9.59,4.46,14.87,12.55,14.87,3.8,0,6.69-1.2,8.84-3.66,1.83-2.07,3.2-5.11,4.44-9.82,1.84-6.78,3.41-9.62,8.4-9.62,5.48,0,7.33,2.21,7.33,8.76,0,5.49-2,8.35-6,8.5l-1.7.06v6.72l1.79,0c7.41-.08,12-5.9,12-15.19C114.41,159.18,109.87,153.89,100.91,153.89Z"/><path class="cls-3" d="M83.72,142.1H97.59c8.74,0,16.82-2,16.82-16.12,0-10.14-4.18-14.8-13.55-15.12H98.58v6.89h2.16c5.25.34,7.44,1.57,7.44,8.23,0,8.27-3.1,9.09-10.7,9.09h-14C76.07,135.07,73,133.81,73,126c0-5.7,2.1-8,7.22-8h2.16v-7h-2.1c-9,0-13.51,5-13.51,15C66.73,140.14,74.9,142.1,83.72,142.1Z"/></svg>