<svg id="Layer_1" data-name="Layer 1" xmlns="http://www.w3.org/2000/svg" viewBox="0 0 204 330.07"><defs><style>.cls-1{fill:#fff;stroke:#f4f4f4;stroke-miterlimit:10;}</style></defs><title>upheno-logo</title><path class="cls-1" d="M29.56,252.15l-.2-3.5c-1.6,2.4-4.6,4-8.9,4-8.3,0-10.9-3.4-10.9-11.7v-20.8h3V241c0,7.2,1.8,9.3,8.1,9.3s8.5-4,8.5-7.7v-22.4h3v32Z"/><path class="cls-1" d="M64.42,230.86v10.4c0,7.6-4.2,10.8-11.2,10.8-3.7,0-6.2-.8-8.2-2.9v15.7l-3,2.7v-48.2h2.7l.3,3.5c1.7-2.3,4.4-3.7,8.8-3.7C61.22,219.26,64.42,222.46,64.42,230.86Zm-11-9c-6.2.1-8.4,3.1-8.4,8.4v10.6c-.1,6.1,1.6,8.7,8.2,8.7s8.2-2.9,8.2-8.3V231C61.42,223.66,58.82,221.86,53.42,221.86Z"/><path class="cls-1" d="M93.53,252.65v-20.5c0-6.8-1.4-9.4-7.9-9.4-5.5,0-8,2.3-8,8.1v20.8l-3,1v-44.4l3,1.9v13.3c1.5-2.4,5.2-3.4,7.9-3.4,7.9,0,11,3.3,11,12.2v20.4Z"/><path class="cls-1" d="M128.59,243.75c0,5.8-3.3,8.9-10.5,8.9-7.6,0-11.2-3.2-11.2-12V232c0-8.8,3.6-12.2,11.2-12.2,8.2,0,10.9,3.7,10.9,12.2v4.8h-19.2v3.6c0,6.6,1.7,9.7,8.3,9.7s7.8-2.6,7.8-6.5h2.7Zm-2.3-9.4v-2.2c0-6.2-1.2-9.9-8.3-9.9-6.6,0-8.3,3-8.3,9.8v2.4h16.6Z"/><path class="cls-1" d="M141.61,220.65l.2,3.4c1.6-2.4,4.5-4,8.9-4,8.3,0,10.9,3.4,10.9,11.7v19.9l-3,1v-20.9c0-7.2-1.8-9.3-8.1-9.3s-8.5,4-8.5,7.7v22.5h-3v-32Z"/><path class="cls-1" d="M171.47,240.45v-8.8c0-9.1,3.6-12,11.2-12s11.2,2.7,11.2,12.2v8.7c0,8.9-3.6,12.1-11.2,12.1S171.47,249.85,171.47,240.45Zm19.5-.1v-8.5c0-6.9-1.2-9.6-8.2-9.6-6.6,0-8.2,2.7-8.2,9.5v8.5c0,6.9,1.2,9.8,8.2,9.8C189.27,250.05,191,247.15,191,240.35Z"/><path class="cls-1" d="M9.56,290.22v-8.8c0-9.1,3.6-12,11.2-12s11.2,2.7,11.2,12.2v8.7c0,8.9-3.6,12.1-11.2,12.1S9.56,299.62,9.56,290.22Zm19.4-.1v-8.5c0-6.9-1.2-9.6-8.2-9.6-6.6,0-8.2,2.7-8.2,9.5V290c0,6.9,1.2,9.8,8.2,9.8C27.36,299.82,29,296.92,29,290.12Z"/><path class="cls-1" d="M39.12,269.92l.2,3.4c1.6-2.4,4.5-4,8.9-4,8.3,0,10.9,3.4,10.9,11.7v20.9h-3V281c0-7.2-1.8-9.3-8.1-9.3s-8.5,4-8.5,7.7v22.5h-3v-32Z"/><path class="cls-1" d="M64.17,255.12l3,2.6v11.6h7.3v2.6h-7.3v20.8c0,6,2,7.2,7.8,6.8v2.4c-8.1.7-10.8-2-10.8-9.2Z"/><path class="cls-1" d="M78.67,290.22v-8.8c0-9.1,3.6-12,11.2-12s11.2,2.7,11.2,12.2v8.7c0,8.9-3.6,12.1-11.2,12.1S78.67,299.62,78.67,290.22Zm19.4-.1v-8.5c0-6.9-1.2-9.6-8.2-9.6-6.6,0-8.2,2.7-8.2,9.5V290c0,6.9,1.2,9.8,8.2,9.8C96.37,299.82,98.07,296.92,98.07,290.12Z"/><path class="cls-1" d="M114.38,302c-7.4.4-8.7-1.9-8.7-9.1v-37.6l3-1V293c0,5.7.7,6.5,5.7,6.5Z"/><path class="cls-1" d="M118.25,290.22v-8.8c0-9.1,3.6-12,11.2-12s11.2,2.7,11.2,12.2v8.7c0,8.9-3.6,12.1-11.2,12.1S118.25,299.62,118.25,290.22Zm19.4-.1v-8.5c0-6.9-1.2-9.6-8.2-9.6-6.6,0-8.2,2.7-8.2,9.5V290c0,6.9,1.2,9.8,8.2,9.8C136.05,299.82,137.65,296.92,137.65,290.12Z"/><path class="cls-1" d="M147.76,306.32c.2,3.4,1.6,5.5,7.4,5.5,6.7,0,8.5-2.8,8.5-9.4v-4.1c-1.8,3-4.9,3.9-8.9,3.9-7.2,0-10.9-2.9-10.9-11.1v-10c0-8.7,3.6-11.4,11.4-11.5,4.2,0,7,1.2,8.6,4V270h2.7v32.5c0,8.8-3.8,12-11.5,12-6.7,0-9.9-2.4-10.3-8h3v-.2Zm15.8-24.4c0-6.2-1.8-9.9-8.2-9.9s-8.4,2.2-8.4,9v10c.1,6.6,2.6,8.3,8.1,8.3,6.1,0,8.4-2.9,8.4-8.3l.1-9.1Z"/><path class="cls-1" d="M170.92,311.22c4.3,1.4,7.1.3,8.5-3.5L181,302l-9.4-32.2,3.3-2,2.9,15,4.8,14.9h.1l4.1-14.9,3.9-13,3.7-1.3-12,39.5c-1.8,5.7-5.2,7.4-11.5,5.6Z"/><path class="cls-1" d="M170.68,116.09A68.31,68.31,0,0,1,161.9,145,69,69,0,1,1,79.19,45.83,59.12,59.12,0,0,1,95.48,25.34a85.55,85.55,0,0,0-68.07,43c-23.3,41.19-8.9,93.66,32.12,117A85.69,85.69,0,0,0,186.25,95.21,59,59,0,0,1,170.68,116.09Z"/><path class="cls-1" d="M151.89,52.65,153.2,54a8.3,8.3,0,0,1,.72.85,25.19,25.19,0,0,1-17.86,39.94,8.51,8.51,0,0,1-1,0l-4.53-.11a8,8,0,0,0-2.13.22A9,9,0,0,0,124.55,97a8.37,8.37,0,0,0-.29,11.82,8.54,8.54,0,0,0,5.93,2.66h0l5.78.06a7,7,0,0,0,.79,0,41.94,41.94,0,0,0,30.47-67.38l.17-.17-3.05-3.2A42,42,0,0,0,105,39.42l-.09.09A42.09,42.09,0,0,0,92.17,66.58l0,.52L91,134.84a8.37,8.37,0,0,0,8.25,8.51h0a8.38,8.38,0,0,0,8.48-8.18l1.48-67.11c0-.24,0-.49,0-.73a24.72,24.72,0,0,1,42.68-14.68Z"/><path class="cls-1" d="M133.67,53.49a16.3,16.3,0,0,0-16.3,16.3v63.56c0,12.32-6.76,20-17.68,20.13C88.45,153.37,82,146,82,133.35V72.42a7.38,7.38,0,1,0-14.75,0v60.93c0,20.68,12.9,34.63,32.16,34.88H100c19-.26,32.17-14.53,32.17-34.88V86c.51,0,1,.08,1.55.08a16.31,16.31,0,1,0,0-32.61Zm-.27,21.43a5.13,5.13,0,1,1,5.13-5.13A5.13,5.13,0,0,1,133.4,74.92Z"/></svg>