<svg id="Layer_1" data-name="Layer 1" xmlns="http://www.w3.org/2000/svg" viewBox="0 0 343.95 139.34"><defs><style>.cls-1{fill:#fff;stroke:#f4f4f4;stroke-miterlimit:10;}</style></defs><title>upheno-logo</title><path class="cls-1" d="M179.08,61.43l-.2-3.5c-1.6,2.4-4.6,4-8.9,4-8.3,0-10.9-3.4-10.9-11.7V29.43h3v20.8c0,7.2,1.8,9.3,8.1,9.3s8.5-4,8.5-7.7V29.43h3v32Z"/><path class="cls-1" d="M214,40.13v10.4c0,7.6-4.2,10.8-11.2,10.8-3.7,0-6.2-.8-8.2-2.9v15.7l-3,2.7V28.63h2.7l.3,3.5c1.7-2.3,4.4-3.7,8.8-3.7C210.75,28.53,214,31.73,214,40.13Zm-11-9c-6.2.1-8.4,3.1-8.4,8.4v10.6c-.1,6.1,1.6,8.7,8.2,8.7s8.2-2.9,8.2-8.3V40.23C211,32.93,208.35,31.13,203,31.13Z"/><path class="cls-1" d="M243.06,61.93V41.43c0-6.8-1.4-9.4-7.9-9.4-5.5,0-8,2.3-8,8.1v20.8l-3,1V17.53l3,1.9v13.3c1.5-2.4,5.2-3.4,7.9-3.4,7.9,0,11,3.3,11,12.2v20.4Z"/><path class="cls-1" d="M278.12,53c0,5.8-3.3,8.9-10.5,8.9-7.6,0-11.2-3.2-11.2-12v-8.7c0-8.8,3.6-12.2,11.2-12.2,8.2,0,10.9,3.7,10.9,12.2V46h-19.2v3.6c0,6.6,1.7,9.7,8.3,9.7s7.8-2.6,7.8-6.5h2.7Zm-2.3-9.4v-2.2c0-6.2-1.2-9.9-8.3-9.9-6.6,0-8.3,3-8.3,9.8v2.4h16.6Z"/><path class="cls-1" d="M291.13,29.93l.2,3.4c1.6-2.4,4.5-4,8.9-4,8.3,0,10.9,3.4,10.9,11.7v19.9l-3,1V41c0-7.2-1.8-9.3-8.1-9.3s-8.5,4-8.5,7.7v22.5h-3v-32Z"/><path class="cls-1" d="M321,49.73v-8.8c0-9.1,3.6-12,11.2-12s11.2,2.7,11.2,12.2v8.7c0,8.9-3.6,12.1-11.2,12.1S321,59.13,321,49.73Zm19.5-.1v-8.5c0-6.9-1.2-9.6-8.2-9.6-6.6,0-8.2,2.7-8.2,9.5v8.5c0,6.9,1.2,9.8,8.2,9.8C338.8,59.33,340.5,56.43,340.5,49.63Z"/><path class="cls-1" d="M159.08,99.49v-8.8c0-9.1,3.6-12,11.2-12s11.2,2.7,11.2,12.2v8.7c0,8.9-3.6,12.1-11.2,12.1S159.08,108.89,159.08,99.49Zm19.4-.1v-8.5c0-6.9-1.2-9.6-8.2-9.6-6.6,0-8.2,2.7-8.2,9.5v8.5c0,6.9,1.2,9.8,8.2,9.8C176.88,109.09,178.48,106.19,178.48,99.39Z"/><path class="cls-1" d="M188.65,79.19l.2,3.4c1.6-2.4,4.5-4,8.9-4,8.3,0,10.9,3.4,10.9,11.7v20.9h-3V90.29c0-7.2-1.8-9.3-8.1-9.3s-8.5,4-8.5,7.7v22.5h-3v-32Z"/><path class="cls-1" d="M213.7,64.39l3,2.6v11.6H224v2.6h-7.3V102c0,6,2,7.2,7.8,6.8v2.4c-8.1.7-10.8-2-10.8-9.2Z"/><path class="cls-1" d="M228.19,99.49v-8.8c0-9.1,3.6-12,11.2-12s11.2,2.7,11.2,12.2v8.7c0,8.9-3.6,12.1-11.2,12.1S228.19,108.89,228.19,99.49Zm19.4-.1v-8.5c0-6.9-1.2-9.6-8.2-9.6-6.6,0-8.2,2.7-8.2,9.5v8.5c0,6.9,1.2,9.8,8.2,9.8C245.89,109.09,247.59,106.19,247.59,99.39Z"/><path class="cls-1" d="M263.91,111.29c-7.4.4-8.7-1.9-8.7-9.1V64.59l3-1v38.7c0,5.7.7,6.5,5.7,6.5Z"/><path class="cls-1" d="M267.78,99.49v-8.8c0-9.1,3.6-12,11.2-12s11.2,2.7,11.2,12.2v8.7c0,8.9-3.6,12.1-11.2,12.1S267.78,108.89,267.78,99.49Zm19.4-.1v-8.5c0-6.9-1.2-9.6-8.2-9.6-6.6,0-8.2,2.7-8.2,9.5v8.5c0,6.9,1.2,9.8,8.2,9.8C285.58,109.09,287.18,106.19,287.18,99.39Z"/><path class="cls-1" d="M297.29,115.59c.2,3.4,1.6,5.5,7.4,5.5,6.7,0,8.5-2.8,8.5-9.4v-4.1c-1.8,3-4.9,3.9-8.9,3.9-7.2,0-10.9-2.9-10.9-11.1v-10c0-8.7,3.6-11.4,11.4-11.5,4.2,0,7,1.2,8.6,4v-3.6h2.7v32.5c0,8.8-3.8,12-11.5,12-6.7,0-9.9-2.4-10.3-8h3v-.2Zm15.8-24.4c0-6.2-1.8-9.9-8.2-9.9s-8.4,2.2-8.4,9v10c.1,6.6,2.6,8.3,8.1,8.3,6.1,0,8.4-2.9,8.4-8.3l.1-9.1Z"/><path class="cls-1" d="M320.45,120.49c4.3,1.4,7.1.3,8.5-3.5l1.6-5.7-9.4-32.2,3.3-2,2.9,15,4.8,14.9h.1l4.1-14.9,3.9-13,3.7-1.3-12,39.5c-1.8,5.7-5.2,7.4-11.5,5.6Z"/><path class="cls-1" d="M125.63,73.83A56.1,56.1,0,1,1,51.2,16.67,48,48,0,0,1,64.45,0,69.83,69.83,0,1,0,138.3,56.85,48,48,0,0,1,125.63,73.83Z"/><path class="cls-1" d="M110.34,22.22l1.07,1.12a6.62,6.62,0,0,1,.59.7A20.49,20.49,0,0,1,97.47,56.52a7.68,7.68,0,0,1-.83,0L93,56.46a6.35,6.35,0,0,0-1.74.17,7.36,7.36,0,0,0-3.12,1.69,6.8,6.8,0,0,0-.24,9.61,7,7,0,0,0,4.83,2.17h0l4.7.05c.22,0,.43,0,.64,0a34.12,34.12,0,0,0,24.79-54.82l.14-.14-2.48-2.6A34.15,34.15,0,0,0,72.2,11.46l-.07.07a34.19,34.19,0,0,0-10.37,22V34l-1,55.1A6.81,6.81,0,0,0,67.48,96h0a6.8,6.8,0,0,0,6.9-6.65l1.21-54.6,0-.6a20.18,20.18,0,0,1,6.17-12.78A20,20,0,0,1,110.34,22.22Z"/><path class="cls-1" d="M95.52,22.9A13.27,13.27,0,0,0,82.26,36.17v2.12h0V87.87c0,10-5.51,16.29-14.39,16.38-9.14-.09-14.37-6-14.37-16.38V38.3a6,6,0,0,0-12,0V87.87c0,16.83,10.5,28.18,26.17,28.38h.42c15.43-.21,26.17-11.82,26.17-28.38V49.37q.61.06,1.26.06a13.27,13.27,0,1,0,0-26.53ZM95.3,40.34a4.17,4.17,0,1,1,4.17-4.17A4.17,4.17,0,0,1,95.3,40.34Z"/></svg>