<svg id="Layer_1" data-name="Layer 1" xmlns="http://www.w3.org/2000/svg" viewBox="0 0 115.83 83.37"><defs><style>.cls-1{fill:#6d6d6d;}.cls-2{fill:#cccccb;}.cls-3{fill:#989998;}.cls-4,.cls-5{fill:#f7f1da;}.cls-4{opacity:0.78;}.cls-5{opacity:0.37;}.cls-6{font-size:17.39px;fill:#231f20;font-family:Kelson-Light, Kelson;font-weight:300;}.cls-7{letter-spacing:-0.01em;}.cls-8{letter-spacing:0em;}</style></defs><title>phenopackets-logo</title><polygon class="cls-1" points="77.66 17.27 77.6 46.72 52.27 61.19 52.17 31.91 77.66 17.27"/><polygon class="cls-2" points="52.17 31.91 26.72 17.2 52.28 2.54 77.66 17.27 52.17 31.91"/><polygon class="cls-3" points="52.27 61.19 52.17 31.91 26.72 17.2 26.72 46.58 52.27 61.19"/><path class="cls-4" d="M52.23,50.84,39.78,43.61,39.7,54.9l-4.44-2.56V21.92l17.07-9.83L69.4,21.92V41ZM39.9,38.32l12.34,7.15L64.82,38.3l.07-13.6L52.31,17.62,39.9,24.76Z"/><polygon class="cls-5" points="52.31 17.62 39.86 24.77 39.92 38.28 52.24 45.47 64.81 38.3 64.85 24.71 52.31 17.62"/><text class="cls-6" transform="translate(8.14 77.15)">phenopac<tspan class="cls-7" x="70.22" y="0">k</tspan><tspan class="cls-8" x="78.74" y="0">ets</tspan></text></svg>