<svg id="Layer_1" data-name="Layer 1" xmlns="http://www.w3.org/2000/svg" viewBox="0 0 1280 640"><defs><style>.cls-1{fill:#4d4d4d;}.cls-2{font-size:36.19px;}.cls-13,.cls-2,.cls-9{fill:#fff;}.cls-2,.cls-9{font-family:Kelson-Light, Kelson;font-weight:300;}.cls-3{letter-spacing:-0.05em;}.cls-4{letter-spacing:0.01em;}.cls-5{letter-spacing:-0.02em;}.cls-6{letter-spacing:-0.02em;}.cls-7{letter-spacing:-0.03em;}.cls-8{letter-spacing:-0.08em;}.cls-9{font-size:109.43px;stroke:#fff;stroke-miterlimit:10;stroke-width:2px;}.cls-10{letter-spacing:-0.01em;}.cls-11{fill:#dddbdb;}.cls-12{fill:#9f9c9d;}.cls-14{fill:#d8d8d8;}.cls-15{fill:#efefef;}</style></defs><title>phenopackets-logo</title><rect class="cls-1" width="1280" height="640"/><text class="cls-2" transform="translate(506.47 409.84)">PHEN<tspan class="cls-3" x="78.86" y="0">O</tspan><tspan class="cls-4" x="98.58" y="0">T</tspan><tspan x="117.15" y="0">YPE D</tspan><tspan class="cls-5" x="202.45" y="0">E</tspan><tspan x="219.97" y="0">SCRI</tspan><tspan class="cls-6" x="284.97" y="0">P</tspan><tspan x="302.27" y="0">TIONS MADE PO</tspan><tspan class="cls-7" x="530.81" y="0">R</tspan><tspan class="cls-8" x="548.36" y="0">T</tspan><tspan x="563.42" y="0">ABLE</tspan></text><text class="cls-9" transform="translate(503.34 327.13) scale(1.02 1)">phenopac<tspan class="cls-10" x="441.97" y="0">k</tspan><tspan x="495.59" y="0">ets</tspan></text><polygon class="cls-11" points="297.34 400.07 297.5 400.16 369.29 359.21 369.71 281.54 369.23 281.27 297.08 322.68 297.34 400.07"/><polygon class="cls-12" points="395.46 266.21 395.46 374.65 297.45 430.8 297.45 430.8 297.65 489.9 442.32 407.28 442.65 239.12 395.46 266.21"/><polygon class="cls-13" points="200.49 265.64 297.98 209.53 395.46 265.64 395.46 266.21 442.65 239.12 297.7 154.96 151.73 238.72 200.49 266.89 200.49 265.64"/><polygon class="cls-13" points="226.98 281.88 226.98 282.19 297.08 322.68 369.23 281.27 297.87 241.11 226.98 281.88"/><polygon class="cls-14" points="200.49 266.89 151.73 238.72 151.73 406.48 200.49 434.36 200.49 266.89"/><polygon class="cls-15" points="297.08 322.68 226.98 282.19 226.98 359.33 297.34 400.07 297.08 322.68"/><polygon class="cls-14" points="226.33 389.52 225.92 448.89 297.65 489.9 297.45 430.8 226.33 389.52"/></svg>