<svg id="Layer_1" data-name="Layer 1" xmlns="http://www.w3.org/2000/svg" viewBox="0 0 115.83 83.37"><defs><style>.cls-1{fill:#81aa40;}.cls-2{fill:#c3dc81;}.cls-3{fill:#9bbf54;}.cls-4,.cls-5{fill:#f7f1da;}.cls-4{opacity:0.78;}.cls-5{opacity:0.37;}.cls-6{font-size:17.39px;fill:#231f20;font-family:Kelson-Light, Kelson;font-weight:300;}.cls-7{letter-spacing:-0.01em;}.cls-8{letter-spacing:0em;}</style></defs><title>phenopackets-logo</title><polygon class="cls-1" points="77.66 16.95 77.6 46.39 52.27 60.86 52.17 31.58 77.66 16.95"/><polygon class="cls-2" points="52.17 31.58 26.72 16.88 52.28 2.21 77.66 16.95 52.17 31.58"/><polygon class="cls-3" points="52.27 60.86 52.17 31.58 26.72 16.88 26.72 46.25 52.27 60.86"/><path class="cls-4" d="M52.23,50.51,39.78,43.28,39.7,54.57,35.26,52V21.59l17.07-9.83L69.4,21.59V40.68ZM39.9,38l12.34,7.15L64.82,38l.07-13.6L52.31,17.29,39.9,24.43Z"/><polygon class="cls-5" points="52.31 17.29 39.86 24.45 39.92 37.95 52.24 45.15 64.81 37.97 64.85 24.39 52.31 17.29"/><text class="cls-6" transform="translate(8.14 76.82)">phenopac<tspan class="cls-7" x="70.22" y="0">k</tspan><tspan class="cls-8" x="78.74" y="0">ets</tspan></text></svg>