<svg id="Layer_1" data-name="Layer 1" xmlns="http://www.w3.org/2000/svg" viewBox="0 0 115.83 83.37"><defs><style>.cls-1,.cls-6{fill:#231f20;}.cls-2{fill:#a9a8a9;}.cls-3{fill:#40403f;}.cls-4,.cls-5{fill:#f7f1da;}.cls-4{opacity:0.78;}.cls-5{opacity:0.37;}.cls-6{font-size:17.39px;font-family:Kelson-Light, Kelson;font-weight:300;}.cls-7{letter-spacing:-0.01em;}.cls-8{letter-spacing:0em;}</style></defs><title>phenopackets-logo</title><polygon class="cls-1" points="77.66 15.22 77.6 44.67 52.27 59.14 52.17 29.86 77.66 15.22"/><polygon class="cls-2" points="52.17 29.86 26.72 15.15 52.28 0.49 77.66 15.22 52.17 29.86"/><polygon class="cls-3" points="52.27 59.14 52.17 29.86 26.72 15.15 26.72 44.53 52.27 59.14"/><path class="cls-4" d="M52.23,48.79,39.78,41.56,39.7,52.85l-4.44-2.56V19.87L52.33,10,69.4,19.87V39ZM39.9,36.27l12.34,7.15,12.58-7.17.07-13.6L52.31,15.57,39.9,22.71Z"/><polygon class="cls-5" points="52.31 15.57 39.86 22.72 39.92 36.23 52.24 43.42 64.81 36.25 64.85 22.66 52.31 15.57"/><text class="cls-6" transform="translate(8.14 75.1)">phenopac<tspan class="cls-7" x="70.22" y="0">k</tspan><tspan class="cls-8" x="78.74" y="0">ets</tspan></text></svg>