<svg id="Layer_1" data-name="Layer 1" xmlns="http://www.w3.org/2000/svg" viewBox="0 0 198.61 83.37"><defs><style>.cls-1{font-size:20.97px;font-family:Kelson-Light, Kelson;font-weight:300;}.cls-1,.cls-6{fill:#fff;}.cls-2{letter-spacing:-0.01em;}.cls-3{letter-spacing:0em;}.cls-4{fill:#dddbdb;}.cls-5{fill:#9f9c9d;}.cls-7{fill:#d8d8d8;}.cls-8{fill:#efefef;}</style></defs><title>phenopackets-logo</title><text class="cls-1" transform="translate(73.01 46.27)">phenopac<tspan class="cls-2" x="84.68" y="0">k</tspan><tspan class="cls-3" x="94.95" y="0">ets</tspan></text><polygon class="cls-4" points="38.55 57.6 38.58 57.62 53.74 48.98 53.83 32.58 53.72 32.52 38.49 41.26 38.55 57.6"/><polygon class="cls-5" points="59.26 29.34 59.26 52.23 38.57 64.09 38.57 64.09 38.61 76.57 69.16 59.13 69.23 23.62 59.26 29.34"/><polygon class="cls-6" points="18.09 29.22 38.68 17.37 59.26 29.22 59.26 29.34 69.23 23.62 38.62 5.85 7.8 23.53 18.09 29.48 18.09 29.22"/><polygon class="cls-6" points="23.69 32.65 23.69 32.71 38.49 41.26 53.72 32.52 38.66 24.04 23.69 32.65"/><polygon class="cls-7" points="18.09 29.48 7.8 23.53 7.8 58.96 18.09 64.84 18.09 29.48"/><polygon class="cls-8" points="38.49 41.26 23.69 32.71 23.69 49 38.55 57.6 38.49 41.26"/><polygon class="cls-7" points="23.55 55.38 23.46 67.91 38.61 76.57 38.57 64.09 23.55 55.38"/></svg>