<svg id="Layer_1" data-name="Layer 1" xmlns="http://www.w3.org/2000/svg" viewBox="0 0 96.99 83.37"><defs><style>.cls-1{fill:#81aa40;}.cls-2{fill:#c3dc81;}.cls-3{fill:#9bbf54;}.cls-4,.cls-5{fill:#f7f1da;}.cls-4{opacity:0.78;}.cls-5{opacity:0.37;}</style></defs><title>phenopackets-logo</title><polygon class="cls-1" points="75.77 23.62 75.7 59.13 45.15 76.57 45.03 41.26 75.77 23.62"/><polygon class="cls-2" points="45.03 41.26 14.34 23.53 45.16 5.85 75.77 23.62 45.03 41.26"/><polygon class="cls-3" points="45.15 76.57 45.03 41.26 14.34 23.53 14.34 58.96 45.15 76.57"/><path class="cls-4" d="M45.11,64.09l-15-8.71L30,69l-5.36-3.08V29.22L45.22,17.37,65.8,29.22v23ZM30.23,49l14.89,8.62L60.28,49l.09-16.41L45.2,24l-15,8.61Z"/><polygon class="cls-5" points="45.2 24.04 30.18 32.66 30.25 48.95 45.12 57.62 60.28 48.98 60.32 32.59 45.2 24.04"/></svg>