<svg id="Layer_1" data-name="Layer 1" xmlns="http://www.w3.org/2000/svg" viewBox="0 0 115.83 83.37"><defs><style>.cls-1{font-size:17.39px;font-family:Kelson-Light, Kelson;font-weight:300;}.cls-1,.cls-6{fill:#fff;}.cls-2{letter-spacing:-0.01em;}.cls-3{letter-spacing:0em;}.cls-4{fill:#dddbdb;}.cls-5{fill:#9f9c9d;}.cls-7{fill:#d8d8d8;}.cls-8{fill:#efefef;}</style></defs><title>phenopackets-logo</title><text class="cls-1" transform="translate(8.14 78.17)">phenopac<tspan class="cls-2" x="70.22" y="0">k</tspan><tspan class="cls-3" x="78.74" y="0">ets</tspan></text><polygon class="cls-4" points="52.22 46.48 52.24 46.5 64.81 39.33 64.89 25.73 64.8 25.68 52.17 32.93 52.22 46.48"/><polygon class="cls-5" points="69.4 23.04 69.4 42.03 52.23 51.86 52.23 51.86 52.27 62.21 77.6 47.74 77.66 18.3 69.4 23.04"/><polygon class="cls-6" points="35.26 22.94 52.33 13.12 69.4 22.94 69.4 23.04 77.66 18.3 52.28 3.56 26.72 18.23 35.26 23.16 35.26 22.94"/><polygon class="cls-6" points="39.9 25.79 39.9 25.84 52.17 32.93 64.8 25.68 52.31 18.65 39.9 25.79"/><polygon class="cls-7" points="35.26 23.16 26.72 18.23 26.72 47.6 35.26 52.49 35.26 23.16"/><polygon class="cls-8" points="52.17 32.93 39.9 25.84 39.9 39.35 52.22 46.48 52.17 32.93"/><polygon class="cls-7" points="39.78 44.63 39.71 55.03 52.27 62.21 52.23 51.86 39.78 44.63"/></svg>