<svg id="Layer_1" data-name="Layer 1" xmlns="http://www.w3.org/2000/svg" viewBox="0 0 97.94 84.18"><defs><style>.cls-1{fill:#6d6d6d;}.cls-2{fill:#cccccb;}.cls-3{fill:#989998;}.cls-4,.cls-5{fill:#f7f1da;}.cls-4{opacity:0.78;}.cls-5{opacity:0.37;}</style></defs><title>phenopackets-logo</title><polygon class="cls-1" points="76.72 23.62 76.65 59.13 46.1 76.57 45.98 41.26 76.72 23.62"/><polygon class="cls-2" points="45.98 41.26 15.29 23.53 46.11 5.85 76.72 23.62 45.98 41.26"/><polygon class="cls-3" points="46.1 76.57 45.98 41.26 15.29 23.53 15.29 58.96 46.1 76.57"/><path class="cls-4" d="M46.06,64.09,31,55.38,31,69l-5.37-3.08V29.22L46.17,17.37,66.75,29.22v23ZM31.18,49l14.89,8.62L61.23,49l.09-16.41L46.15,24l-15,8.61Z"/><polygon class="cls-5" points="46.15 24.04 31.13 32.66 31.2 48.95 46.07 57.62 61.23 48.98 61.27 32.59 46.15 24.04"/></svg>