<svg id="Layer_1" data-name="Layer 1" xmlns="http://www.w3.org/2000/svg" viewBox="0 0 470.62 255.11"><defs><style>.cls-1{fill:#878787;}</style></defs><title>linkml-logo</title><path class="cls-1" d="M432.94,186.91a28.33,28.33,0,0,0-7.59,1l-39.09-31V63.59l-29.71,35v72.69l48.63,38.59a28.94,28.94,0,0,0-.5,5.3,28.26,28.26,0,1,0,28.26-28.26Z"/><polygon points="385.41 9.59 355.7 44.59 355.7 80.76 385.41 45.76 385.41 9.59"/><polygon points="302.93 101.08 302.93 137.26 343.39 91.79 343.39 55.62 302.93 101.08"/><polygon points="221.44 11.34 220.83 10.62 220.83 222.58 250.58 185.23 250.55 78.93 302.93 137.26 302.93 101.08 221.44 10.34 221.44 11.34"/><path class="cls-1" d="M62.23,25c0,9.45-15.3,10.11-15.3,0C46.93,15.32,62.23,14.92,62.23,25Zm-14.1,95.65V43.39l12.64,8.72v68.57Z"/><path class="cls-1" d="M77.1,41.13l11.82,8.72.28,1.26c4.66-7.59,12.37-9.18,20-9.18,17.16,0,25.8,7.31,25.8,28.07v59.16l-12.77-8.48V70.13c0-11-6-16.63-15.16-16.63C97.45,53.5,89.87,59,89.87,70v50.68H77.1Z"/><path class="cls-1" d="M190.18,120.68,169,87.81h-5.72v32.87H150.65V11.09l12.64,10.46V75.84h5.06l22.35-33L203.51,54,179.39,81.16l27.68,39.52Z"/><path class="cls-1" d="M24.22,108.17c-5.58,0-8-1.59-8-7.84V19.4L3.87,11.09v89.37c0,16.36,5.19,20.22,20.35,20.22h12.3V108.17Z"/></svg>