<svg id="Layer_1" data-name="Layer 1" xmlns="http://www.w3.org/2000/svg" viewBox="0 0 372 381.52"><defs><style>.cls-1{fill:#878787;}</style></defs><title>linkml-logo</title><path d="M272.25,329.87A167.82,167.82,0,0,1,66.75,67.61,167.86,167.86,0,0,1,341.57,247.77,55.41,55.41,0,0,1,353.24,255a181.28,181.28,0,1,0-71.89,85.12A55.74,55.74,0,0,1,272.25,329.87Z"/><path class="cls-1" d="M319.39,267.41a29,29,0,0,0-7.9,1.09l-40.74-32.33V138.91L239.8,175.38v75.74l50.67,40.22a29.45,29.45,0,1,0,28.92-23.93Z"/><polygon points="269.87 82.64 238.91 119.11 238.91 156.8 269.87 120.33 269.87 82.64"/><polygon points="183.93 177.98 183.92 215.67 226.09 168.29 226.09 130.6 183.93 177.98"/><polygon points="99.01 84.47 98.38 83.71 98.38 304.57 129.38 265.65 129.34 154.89 183.92 215.67 183.92 177.98 99.01 83.42 99.01 84.47"/></svg>