<svg id="Layer_1" data-name="Layer 1" xmlns="http://www.w3.org/2000/svg" viewBox="0 0 372 381.52"><defs><style>.cls-1{fill:#6d6d6d;}.cls-2{fill:#b5b5b5;}</style></defs><title>linkml-logo</title><path class="cls-1" d="M270.84,329.87A167.82,167.82,0,0,1,65.34,67.61,167.86,167.86,0,0,1,340.16,247.77,55.74,55.74,0,0,1,351.84,255a181.3,181.3,0,1,0-71.9,85.12A55.74,55.74,0,0,1,270.84,329.87Z"/><path class="cls-2" d="M318,267.41a29,29,0,0,0-7.9,1.09l-40.73-32.33V138.91l-31,36.47v75.74l50.67,40.22a30.38,30.38,0,0,0-.52,5.52A29.45,29.45,0,1,0,318,267.41Z"/><polygon class="cls-1" points="268.46 82.64 237.51 119.11 237.51 156.8 268.46 120.33 268.46 82.64"/><polygon class="cls-1" points="182.52 177.98 182.51 215.67 224.68 168.29 224.68 130.6 182.52 177.98"/><polygon class="cls-1" points="97.6 84.47 96.97 83.71 96.97 304.57 127.97 265.65 127.93 154.89 182.51 215.67 182.51 177.98 97.6 83.42 97.6 84.47"/></svg>