<svg id="Layer_1" data-name="Layer 1" xmlns="http://www.w3.org/2000/svg" viewBox="0 0 372 381.52"><defs><style>.cls-1{fill:#077d86;}.cls-2{fill:#9da839;}</style></defs><title>linkml-logo</title><path class="cls-1" d="M272.26,329.87A167.82,167.82,0,0,1,66.76,67.61,167.87,167.87,0,0,1,341.59,247.77,55.67,55.67,0,0,1,353.26,255a181.3,181.3,0,1,0-71.9,85.12A55.74,55.74,0,0,1,272.26,329.87Z"/><path class="cls-2" d="M319.41,267.41a29.11,29.11,0,0,0-7.91,1.09l-40.73-32.33V138.91l-31,36.47v75.74l50.68,40.22a29.44,29.44,0,1,0,28.92-23.93Z"/><polygon class="cls-1" points="269.88 82.64 238.93 119.11 238.93 156.8 269.88 120.33 269.88 82.64"/><polygon class="cls-1" points="183.94 177.98 183.94 215.67 226.1 168.29 226.1 130.6 183.94 177.98"/><polygon class="cls-1" points="99.03 84.47 98.39 83.71 98.39 304.57 129.39 265.65 129.35 154.89 183.94 215.67 183.94 177.98 99.03 83.42 99.03 84.47"/></svg>