<svg id="Layer_1" data-name="Layer 1" xmlns="http://www.w3.org/2000/svg" viewBox="0 0 476.62 263.83"><defs><style>.cls-1{fill:#9da839;}.cls-2{fill:#077d86;}</style></defs><title>linkml-logo</title><path class="cls-1" d="M439,197.81a28.33,28.33,0,0,0-7.59,1l-39.09-31V74.49l-29.71,35v72.69l48.63,38.59a28.94,28.94,0,0,0-.5,5.3A28.26,28.26,0,1,0,439,197.81Z"/><polygon class="cls-2" points="391.42 20.48 361.71 55.48 361.71 91.66 391.42 56.66 391.42 20.48"/><polygon class="cls-2" points="308.94 111.98 308.94 148.16 349.4 102.69 349.4 66.51 308.94 111.98"/><polygon class="cls-2" points="227.45 22.24 226.84 21.52 226.84 233.47 256.59 196.12 256.56 89.83 308.94 148.16 308.94 111.98 227.45 21.24 227.45 22.24"/><path class="cls-1" d="M68.24,35.93c0,9.44-15.3,10.11-15.3,0C52.94,26.22,68.24,25.82,68.24,35.93Zm-14.1,95.65V54.29L66.78,63v68.58Z"/><path class="cls-1" d="M83.1,52l11.83,8.71L95.21,62c4.66-7.58,12.37-9.18,20-9.18,17.17,0,25.81,7.32,25.81,28.07v59.17l-12.77-8.48V81c0-11-6-16.63-15.16-16.63-9.58,0-17.17,5.45-17.17,16.49v50.69H83.1Z"/><path class="cls-1" d="M196.19,131.58,175,98.71H169.3v32.87H156.66V22L169.3,32.45V86.74h5.06l22.35-33,12.81,11.1L185.4,92.06l27.68,39.52Z"/><path class="cls-1" d="M30.23,119.07c-5.59,0-8-1.59-8-7.85V30.3L9.88,22v89.37c0,16.36,5.19,20.22,20.35,20.22h12.3V119.07Z"/></svg>