<svg id="Layer_1" data-name="Layer 1" xmlns="http://www.w3.org/2000/svg" viewBox="0 0 288 144"><title>poet-logo</title><path d="M40.46,71.3A47.76,47.76,0,0,1,64.64,29.83l2.06-13c0-.28.1-.6.17-.95a59.36,59.36,0,0,0-8.72,106.63,33.17,33.17,0,0,1,6.55-9.7A47.89,47.89,0,0,1,40.46,71.3Z"/><path d="M109.53,15.9c0,.27.09.51.13.73l2.1,13.22a47.66,47.66,0,0,1-.1,83,33.17,33.17,0,0,1,6.55,9.7A59.37,59.37,0,0,0,109.53,15.9Z"/><circle cx="88.18" cy="123.54" r="8.34"/><path d="M111.86,64.15c-2.41-15.13-4.81-33.26-7.22-48.38v0A2.23,2.23,0,0,0,103,14a58.75,58.75,0,0,0-14.92-1.8A58.75,58.75,0,0,0,73.17,14a2.23,2.23,0,0,0-1.63,1.78v0C69.13,30.89,66.73,49,64.32,64.15a6,6,0,0,0,0,3,6.66,6.66,0,0,0,2,2.38c6.16,5.54,9.81,13.27,13.31,20.79,2.35,5.06,4.75,10.35,4.64,15.93a6.14,6.14,0,0,0,.23,2.42,3.26,3.26,0,0,0,2.27,1.8V69.09a8.33,8.33,0,0,1-7-8.75,8.43,8.43,0,0,1,8.09-7.82,1,1,0,0,1,.25,0h0a1.13,1.13,0,0,1,.26,0,8.42,8.42,0,0,1,8.08,7.82,8.33,8.33,0,0,1-7,8.75v41.36a3.26,3.26,0,0,0,2.27-1.8,6,6,0,0,0,.23-2.42c-.11-5.58,2.29-10.87,4.64-15.93,3.5-7.52,7.15-15.25,13.31-20.79a6.66,6.66,0,0,0,2-2.38A6,6,0,0,0,111.86,64.15Z"/><path d="M164.24,86.68v15.61l-3.09,4.25V53.06h2.78l.25,3.66c1.83-2.84,5.06-4.42,9.42-4.42,7.52,0,11.18,5,11.18,14.09V77c0,10.37-5,13.84-11.31,13.84C169.17,90.85,165.76,89.14,164.24,86.68Zm0-8.41c0,7.27,3.86,9.8,8.85,9.8,5.31,0,8.53-2.91,8.53-11.31V66.27c0-7.4-2.52-11.13-8.53-11.13-5.24,0-8.85,3-8.85,8.73Z"/><path d="M216.19,66.27V76.88c0,10.75-3.67,14-11.82,14s-11.88-3.22-11.88-14V66.27c0-10.75,3.67-14,11.88-14S216.19,55.52,216.19,66.27ZM195.65,76.76c0,8.78,2.09,11.31,8.72,11.31S213,85.54,213,76.76V66.39c0-8.72-2.09-11.25-8.66-11.25s-8.72,2.53-8.72,11.25Z"/><path d="M246.71,80.49c-.06,7-3.41,10.36-10.93,10.36-8.22,0-11.88-3.73-11.88-13.78V66.33c0-10.11,3.85-14,11.69-14,8,0,11.44,4.24,11.44,13.52V72H227v5.12c0,7.58,2.15,10.93,8.73,10.93,5.87,0,7.89-2.53,8-7.58ZM227,66.14v3.22h17V65.82c0-7.26-1.77-10.74-8.4-10.74C229.14,55.08,227,58.11,227,66.14Z"/><path d="M267.75,87.56v2.85a16.08,16.08,0,0,1-3.73.44c-6.7,0-8.84-3.41-8.84-10.68V45l3.16-3.4V53.82h9.35V56.6h-9.35V80.17c0,6.32,1.83,7.77,6.19,7.77A15.46,15.46,0,0,0,267.75,87.56Z"/></svg>