<svg id="Layer_1" data-name="Layer 1" xmlns="http://www.w3.org/2000/svg" viewBox="0 0 136.8 212.65"><defs><style>.cls-1{fill:#727373;}</style></defs><title>poet-logo</title><path class="cls-1" d="M18.54,184.76v15.61l-3.09,4.26V151.14h2.78l.25,3.67c1.83-2.84,5.05-4.42,9.42-4.42,7.52,0,11.18,5,11.18,14.09V175.1c0,10.36-5,13.84-11.31,13.84C23.47,188.94,20.06,187.23,18.54,184.76Zm0-8.4c0,7.27,3.86,9.79,8.85,9.79,5.31,0,8.53-2.9,8.53-11.31V164.35c0-7.39-2.53-11.12-8.53-11.12-5.25,0-8.85,3-8.85,8.72Z"/><path class="cls-1" d="M70.49,164.35V175c0,10.74-3.67,14-11.82,14s-11.88-3.23-11.88-14V164.35c0-10.74,3.66-14,11.88-14S70.49,153.61,70.49,164.35ZM50,174.84c0,8.79,2.08,11.31,8.72,11.31s8.66-2.52,8.66-11.31V164.48c0-8.72-2.09-11.25-8.66-11.25S50,155.76,50,164.48Z"/><path class="cls-1" d="M101,178.57c-.06,7-3.41,10.37-10.93,10.37-8.22,0-11.88-3.73-11.88-13.78V164.42c0-10.12,3.85-14,11.69-14,8,0,11.44,4.23,11.44,13.52v6.19h-20v5.12c0,7.59,2.15,10.93,8.72,10.93,5.88,0,7.9-2.52,8-7.58ZM81.29,164.23v3.22h17v-3.54c0-7.27-1.77-10.74-8.4-10.74C83.44,153.17,81.29,156.2,81.29,164.23Z"/><path class="cls-1" d="M122.05,185.65v2.84a16,16,0,0,1-3.73.45c-6.7,0-8.85-3.42-8.85-10.68V143.12l3.16-3.41V151.9H122v2.78h-9.36v23.58c0,6.32,1.84,7.77,6.2,7.77A15.46,15.46,0,0,0,122.05,185.65Z"/><path class="cls-1" d="M21,70.49A47.79,47.79,0,0,1,45.21,29l2.06-13c0-.28.1-.61.17-1a59.37,59.37,0,0,0-8.72,106.64,33,33,0,0,1,6.55-9.7A47.92,47.92,0,0,1,21,70.49Z"/><path class="cls-1" d="M90.1,15.09c.05.26.09.51.13.72L92.33,29a47.67,47.67,0,0,1-.11,83,32.88,32.88,0,0,1,6.56,9.7A59.37,59.37,0,0,0,90.1,15.09Z"/><circle class="cls-1" cx="68.75" cy="122.72" r="8.34"/><path class="cls-1" d="M92.42,63.33C90,48.2,87.61,30.08,85.21,15h0a2.2,2.2,0,0,0-1.64-1.78,59.13,59.13,0,0,0-14.91-1.81,59.21,59.21,0,0,0-14.92,1.81,2.18,2.18,0,0,0-1.63,1.78h0C49.7,30.08,47.3,48.2,44.89,63.33a5.93,5.93,0,0,0,0,3,6.63,6.63,0,0,0,2,2.37c6.16,5.55,9.81,13.28,13.3,20.79,2.36,5.06,4.76,10.35,4.65,15.93a6.13,6.13,0,0,0,.22,2.42,3.32,3.32,0,0,0,2.28,1.81V68.27a8.33,8.33,0,0,1-7-8.75A8.42,8.42,0,0,1,68.4,51.7h.51A8.43,8.43,0,0,1,77,59.52a8.33,8.33,0,0,1-7,8.75v41.37a3.3,3.3,0,0,0,2.28-1.81,6.14,6.14,0,0,0,.23-2.42c-.11-5.58,2.29-10.87,4.64-15.93C80.6,82,84.25,74.24,90.4,68.69a6.43,6.43,0,0,0,2-2.37A5.93,5.93,0,0,0,92.42,63.33Z"/></svg>