<svg id="Layer_1" data-name="Layer 1" xmlns="http://www.w3.org/2000/svg" viewBox="0 0 288 144"><defs><style>.cls-1{fill:#fff;}</style></defs><title>poet-logo</title><path class="cls-1" d="M41.27,71.3A47.77,47.77,0,0,1,65.46,29.83l2.06-13c0-.28.1-.6.17-.95A59.36,59.36,0,0,0,59,122.52a33.17,33.17,0,0,1,6.55-9.7A47.9,47.9,0,0,1,41.27,71.3Z"/><path class="cls-1" d="M110.35,15.9c.05.27.09.51.13.73l2.1,13.22a47.67,47.67,0,0,1-.1,83,33.17,33.17,0,0,1,6.55,9.7A59.37,59.37,0,0,0,110.35,15.9Z"/><circle class="cls-1" cx="89" cy="123.54" r="8.34"/><path class="cls-1" d="M112.67,64.15c-2.4-15.13-4.81-33.26-7.21-48.38v0A2.22,2.22,0,0,0,103.82,14a58.67,58.67,0,0,0-14.91-1.8A58.75,58.75,0,0,0,74,14a2.21,2.21,0,0,0-1.63,1.78v0C70,30.89,67.55,49,65.14,64.15a5.89,5.89,0,0,0,0,3,6.66,6.66,0,0,0,2,2.38C73.32,75.05,77,82.78,80.46,90.3c2.36,5.06,4.76,10.35,4.65,15.93a6,6,0,0,0,.23,2.42,3.24,3.24,0,0,0,2.27,1.8V69.09a8.33,8.33,0,0,1-7-8.75,8.42,8.42,0,0,1,8.08-7.82,1.13,1.13,0,0,1,.26,0h0a1,1,0,0,1,.25,0,8.43,8.43,0,0,1,8.09,7.82,8.33,8.33,0,0,1-7,8.75v41.36a3.26,3.26,0,0,0,2.28-1.8,6.14,6.14,0,0,0,.23-2.42C92.6,100.65,95,95.36,97.35,90.3c3.5-7.52,7.15-15.25,13.3-20.79a6.46,6.46,0,0,0,2-2.38A5.89,5.89,0,0,0,112.67,64.15Z"/><path class="cls-1" d="M162.24,86.68v15.61l-3.1,4.25V53.06h2.78l.26,3.66c1.83-2.84,5-4.42,9.41-4.42,7.52,0,11.19,5,11.19,14.09V77c0,10.37-5,13.84-11.31,13.84C167.17,90.85,163.76,89.14,162.24,86.68Zm0-8.41c0,7.27,3.86,9.8,8.85,9.8,5.31,0,8.53-2.91,8.53-11.31V66.27c0-7.4-2.53-11.13-8.53-11.13-5.25,0-8.85,3-8.85,8.73Z"/><path class="cls-1" d="M214.19,66.27V76.88c0,10.75-3.67,14-11.82,14s-11.88-3.22-11.88-14V66.27c0-10.75,3.66-14,11.88-14S214.19,55.52,214.19,66.27ZM193.65,76.76c0,8.78,2.08,11.31,8.72,11.31S211,85.54,211,76.76V66.39c0-8.72-2.09-11.25-8.66-11.25s-8.72,2.53-8.72,11.25Z"/><path class="cls-1" d="M244.71,80.49c-.07,7-3.41,10.36-10.93,10.36-8.22,0-11.89-3.73-11.89-13.78V66.33c0-10.11,3.86-14,11.69-14,8,0,11.44,4.24,11.44,13.52V72H225v5.12c0,7.58,2.15,10.93,8.72,10.93,5.88,0,7.9-2.53,8-7.58ZM225,66.14v3.22h17V65.82c0-7.26-1.77-10.74-8.41-10.74C227.14,55.08,225,58.11,225,66.14Z"/><path class="cls-1" d="M265.75,87.56v2.85a16.16,16.16,0,0,1-3.73.44c-6.7,0-8.85-3.41-8.85-10.68V45l3.16-3.4V53.82h9.36V56.6h-9.36V80.17c0,6.32,1.83,7.77,6.2,7.77A15.55,15.55,0,0,0,265.75,87.56Z"/></svg>