<svg id="Layer_1" data-name="Layer 1" xmlns="http://www.w3.org/2000/svg" viewBox="0 0 136.8 145.63"><defs><style>.cls-1{fill:#fff;}</style></defs><title>poet-logo</title><path class="cls-1" d="M21,70.49A47.79,47.79,0,0,1,45.21,29l2.06-13c0-.28.1-.61.17-1a59.37,59.37,0,0,0-8.72,106.64,33,33,0,0,1,6.55-9.7A47.92,47.92,0,0,1,21,70.49Z"/><path class="cls-1" d="M90.1,15.09c.05.26.09.51.13.72L92.33,29a47.67,47.67,0,0,1-.11,83,32.88,32.88,0,0,1,6.56,9.7A59.37,59.37,0,0,0,90.1,15.09Z"/><circle class="cls-1" cx="68.75" cy="122.72" r="8.34"/><path class="cls-1" d="M92.42,63.33C90,48.2,87.61,30.08,85.21,15h0a2.2,2.2,0,0,0-1.64-1.78,59.13,59.13,0,0,0-14.91-1.81,59.21,59.21,0,0,0-14.92,1.81,2.18,2.18,0,0,0-1.63,1.78h0C49.7,30.08,47.3,48.2,44.89,63.33a5.93,5.93,0,0,0,0,3,6.63,6.63,0,0,0,2,2.37c6.16,5.55,9.81,13.28,13.3,20.79,2.36,5.06,4.76,10.35,4.65,15.93a6.13,6.13,0,0,0,.22,2.42,3.32,3.32,0,0,0,2.28,1.81V68.27a8.33,8.33,0,0,1-7-8.75A8.42,8.42,0,0,1,68.4,51.7h.51A8.43,8.43,0,0,1,77,59.52a8.33,8.33,0,0,1-7,8.75v41.37a3.3,3.3,0,0,0,2.28-1.81,6.14,6.14,0,0,0,.23-2.42c-.11-5.58,2.29-10.87,4.64-15.93C80.6,82,84.25,74.24,90.4,68.69a6.43,6.43,0,0,0,2-2.37A5.93,5.93,0,0,0,92.42,63.33Z"/></svg>