<?xml version="1.0" encoding="utf-8"?>
<!-- Generator: Adobe Illustrator 19.1.0, SVG Export Plug-In . SVG Version: 6.00 Build 0)  -->
<svg version="1.1" id="Layer_1" xmlns="http://www.w3.org/2000/svg" xmlns:xlink="http://www.w3.org/1999/xlink" x="0px" y="0px"
	 viewBox="0 0 307.6 357.6" style="enable-background:new 0 0 307.6 357.6;" xml:space="preserve">
<style type="text/css">
	.st0{fill:url(#SVGID_1_);}
	.st1{fill:url(#SVGID_2_);}
</style>
<path d="M24.3,255.9c0-5-0.9-7.2-6.9-7.2c-6.3,0-7,2.6-7,9.1V272c0,6.5,0.9,9.1,7,9.1s7-1.6,7-8.1h4.3c0,8-0.7,12.9-11.3,12.9
	s-11.5-4.9-11.5-14v-14c0-9.1,1.9-13.9,11.5-13.9c9.4,0,11.2,4,11.3,12H24.3z M57,244.3v4.5H43.3v12.4h12.5v4.8H43.3v14.9h14.9v4.8
	H38.8v-41.4H57z M85.4,275.9l-0.7-14v-17.6h4.4v41.3H85l-11.9-29.7l0.3,13.6v16.1H69v-41.3h4.2L85.4,275.9z M110.5,249.2v36.4h-4.4
	v-36.4h-7.5v-4.7H118v4.7H110.5z M144.7,244.3v4.5h-13.8v12.4h12.5v4.8h-12.5v14.9h14.9v4.8h-19.4v-41.4H144.7z M166.8,270l7.8,15.6
	h-5.2l-7.3-15.3h-4.1v15.3h-4.4v-41.4l9.7-0.1c6.3,0,10.3,3,10.3,11.3v2.9C173.6,265,171.8,268.9,166.8,270z M158.1,249.1v16.4h5.2
	c4,0,5.8-1.4,5.8-7.1v-2.9c0-5.7-1.8-6.2-5.8-6.4H158.1z M222.6,249v12.6h13v4.8h-13v19.2h-4.4v-41.4h19.4v4.7H222.6z M268,272.1
	c0,9.1-1.8,13.9-11.7,13.9c-9.9,0-11.7-4.9-11.7-13.9v-14.4c0-9.1,1.8-13.9,11.7-13.9c9.9,0,11.7,4.9,11.7,13.9V272.1z M263.5,257.6
	c0-6.5-0.5-9.2-7.2-9.2c-6.7,0-7.2,2.7-7.2,9.2v14.5c0,6.5,0.5,9.1,7.2,9.1c6.7,0,7.2-2.6,7.2-9.1V257.6z M290.2,270l7.8,15.6h-5.2
	l-7.3-15.3h-4.1v15.3H277v-41.4l9.7-0.1c6.3,0,10.3,3,10.3,11.3v2.9C296.9,265,295.2,268.9,290.2,270z M281.5,249.1v16.4h5.2
	c4,0,5.8-1.4,5.8-7.1v-2.9c0-5.7-1.8-6.2-5.8-6.4H281.5z M6.6,337.9v-45.1h12c10.5,0,12.4,5.3,12.4,15.1v14.9
	c0,9.8-1.9,15.3-12.8,15.2H6.6z M18.2,332.6c7.4,0,7.9-2.6,7.9-9.8v-15c0-7.1-0.5-9.8-7.9-9.8h-6.8v34.5H18.2z M53.1,337.9l-2-8.4
	H39.3l-2,8.4h-5.1l10.5-45h5l10.4,45H53.1z M45.2,300.2l-2.7,14.7l-2,9.4h9.3l-2-9.6L45.2,300.2z M68.4,298.2v39.7h-4.9v-39.7h-8.2
	v-5.2h21.2v5.2H68.4z M94.6,337.9l-2-8.4H80.8l-2,8.4h-5.1l10.5-45h5l10.4,45H94.6z M86.7,300.2L84,314.9l-2,9.4h9.3l-2-9.6
	L86.7,300.2z M113.2,329c0-19.1,16.7-14.3,16.7-25.1c0-4.4-1.8-6.6-6-6.6c-3.8,0-5.9,2.3-5.9,7.5h-4.9c0-8.8,4.3-12.6,10.9-12.6
	c6.5,0,10.7,3.6,10.7,11.6c0,16.3-16.6,9.1-16.6,25.1v3.5h16.3v5.5h-21.3V329z M170.8,337.9V319h-13.2v19h-5v-45.1h5v20.8h13.2
	v-20.8h4.9v45H170.8z M202.3,292.8v4.9h-15v13.6h13.6v5.2h-13.6v16.3h16.3v5.2h-21.2v-45.2H202.3z M226.5,337.9l-2-8.4h-11.8l-2,8.4
	h-5.1l10.5-45h5l10.4,45H226.5z M218.5,300.2l-2.7,14.7l-2,9.4h9.3l-2-9.6L218.5,300.2z M235.2,337.9v-45.1h4.9v40h15.4v5.2H235.2z
	 M264.8,298.2v39.7H260v-39.7h-8.2v-5.2H273v5.2H264.8z M294.8,337.9V319h-13.2v19h-5v-45.1h5v20.8h13.2v-20.8h4.9v45H294.8z"/>
<g>
	<linearGradient id="SVGID_1_" gradientUnits="userSpaceOnUse" x1="154.2844" y1="161.4102" x2="154.2844" y2="71.0032">
		<stop  offset="0" style="stop-color:#941A1D"/>
		<stop  offset="6.032908e-02" style="stop-color:#9D1E20"/>
		<stop  offset="0.2846" style="stop-color:#BB2B2A"/>
		<stop  offset="0.5138" style="stop-color:#D23532"/>
		<stop  offset="0.7492" style="stop-color:#E23C37"/>
		<stop  offset="1" style="stop-color:#E93E3A"/>
	</linearGradient>
	<polygon class="st0" points="135.8,134.7 109.1,134.7 109.1,97.7 135.8,97.7 135.8,71 172.7,71 172.7,97.7 199.5,97.7 199.5,134.7 
		172.7,134.7 172.7,161.4 135.8,161.4 	"/>
	<linearGradient id="SVGID_2_" gradientUnits="userSpaceOnUse" x1="6.5418" y1="123.749" x2="302.0269" y2="123.749">
		<stop  offset="0" style="stop-color:#395B94"/>
		<stop  offset="0.289" style="stop-color:#547A85"/>
		<stop  offset="0.6328" style="stop-color:#74A069"/>
		<stop  offset="0.8785" style="stop-color:#8ABB4B"/>
		<stop  offset="1" style="stop-color:#92C83E"/>
	</linearGradient>
	<path class="st1" d="M175.2,33.3c0-5.6-4.5-10.1-10.1-10.1h-20.7c-5.6,0-10.1,4.5-10.1,10.1v12.8h41V33.3z M245.9,12.9h-48.7
		c3.8,5.9,6,12.9,6,20.4v12.8h33.7c17.6,0,32,14.4,32,32v91.2c0,17.6-14.4,32-32,32h-64.1v-18.5h-36.9v7.1h0v44.7h110
		c30.9,0,56.2-25.3,56.2-56.2V69C302,38.2,276.8,12.9,245.9,12.9z M62.7,12.9C31.8,12.9,6.5,38.2,6.5,69v109.4
		c0,30.9,25.3,56.2,56.2,56.2h40v-33.3h-31c-17.6,0-32-14.4-32-32V78.2c0-17.6,14.4-32,32-32h34.4V33.3c0-7.5,2.2-14.5,6-20.4H62.7z
		"/>
</g>
</svg>
