<?xml version="1.0" encoding="utf-8"?>
<!-- Generator: Adobe Illustrator 19.1.0, SVG Export Plug-In . SVG Version: 6.00 Build 0)  -->
<svg version="1.1" id="Layer_1" xmlns="http://www.w3.org/2000/svg" xmlns:xlink="http://www.w3.org/1999/xlink" x="0px" y="0px"
	 viewBox="0 0 345 258" style="enable-background:new 0 0 345 258;" xml:space="preserve">
<style type="text/css">
	.st0{fill:#B0B0B1;}
</style>
<polygon class="st0" points="154,141.8 127.3,141.8 127.3,104.8 154,104.8 154,78.1 190.9,78.1 190.9,104.8 217.7,104.8 
	217.7,141.8 190.9,141.8 190.9,168.5 154,168.5 "/>
<path class="st0" d="M136.6,258h-42C42.6,258,0,215.4,0,163.4V94.6C0,42.6,42.6,0,94.6,0H157c-13.6,2.3-24,14.1-24,28.3v21.8H93.4
	c-19.7,0-35.9,16.2-35.9,35.9v86c0,19.7,16.2,35.9,35.9,35.9h43.2V258z M154,28.3v21.8h0.1v11.6h36.9V50.1h0.1V28.3
	c0-4.3-3.5-7.7-7.7-7.7h-21.5C157.5,20.6,154,24.1,154,28.3z M250.4,0H188c13.6,2.3,24,14.1,24,28.3v21.8h39.5
	c19.7,0,35.9,16.2,35.9,35.9v86c0,19.7-16.2,35.9-35.9,35.9h-60.6v-22.1h-36.9v22.1h0V258h96.3c52,0,94.6-42.6,94.6-94.6V94.6
	C345,42.6,302.4,0,250.4,0z"/>
</svg>
