<?xml version="1.0" encoding="utf-8"?>
<!-- Generator: Adobe Illustrator 19.1.0, SVG Export Plug-In . SVG Version: 6.00 Build 0)  -->
<svg version="1.1" id="Layer_1" xmlns="http://www.w3.org/2000/svg" xmlns:xlink="http://www.w3.org/1999/xlink" x="0px" y="0px"
	 viewBox="-81 -56 376 400" style="enable-background:new -81 -56 376 400;" xml:space="preserve">
<style type="text/css">
	.st0{fill:#010101;}
	.st1{fill:url(#SVGID_1_);}
	.st2{fill:url(#SVGID_2_);}
</style>
<path class="st0" d="M-19.1,247.3c0-5-0.9-7.2-6.9-7.2c-6.3,0-7,2.6-7,9.1v14.2c0,6.5,0.9,9.1,7,9.1s7-1.6,7-8.1h4.3
	c0,8-0.7,12.9-11.3,12.9s-11.5-4.9-11.5-14v-14c0-9.1,1.9-13.9,11.5-13.9c9.4,0,11.2,4,11.3,12h-4.4V247.3z M13.6,235.7v4.5H-0.1
	v12.4h12.5v4.8H-0.1v14.9h14.9v4.8H-4.6v-41.4L13.6,235.7L13.6,235.7z M42,267.3l-0.7-14v-17.6h4.4V277h-4.1l-11.9-29.7l0.3,13.6
	V277h-4.4v-41.3h4.2L42,267.3z M67.1,240.6V277h-4.4v-36.4h-7.5v-4.7h19.4v4.7H67.1L67.1,240.6z M101.3,235.7v4.5H87.5v12.4H100v4.8
	H87.5v14.9h14.9v4.8H83v-41.4L101.3,235.7L101.3,235.7z M123.4,261.4l7.8,15.6H126l-7.3-15.3h-4.1V277h-4.4v-41.4l9.7-0.1
	c6.3,0,10.3,3,10.3,11.3v2.9C130.2,256.4,128.4,260.3,123.4,261.4z M114.7,240.5v16.4h5.2c4,0,5.8-1.4,5.8-7.1v-2.9
	c0-5.7-1.8-6.2-5.8-6.4H114.7z M179.2,240.4V253h13v4.8h-13V277h-4.4v-41.4h19.4v4.7L179.2,240.4L179.2,240.4z M224.6,263.5
	c0,9.1-1.8,13.9-11.7,13.9c-9.9,0-11.7-4.9-11.7-13.9v-14.4c0-9.1,1.8-13.9,11.7-13.9s11.7,4.9,11.7,13.9V263.5z M220.1,249
	c0-6.5-0.5-9.2-7.2-9.2s-7.2,2.7-7.2,9.2v14.5c0,6.5,0.5,9.1,7.2,9.1s7.2-2.6,7.2-9.1V249z M246.8,261.4l7.8,15.6h-5.2l-7.3-15.3
	H238V277h-4.4v-41.4l9.7-0.1c6.3,0,10.3,3,10.3,11.3v2.9C253.5,256.4,251.8,260.3,246.8,261.4z M238.1,240.5v16.4h5.2
	c4,0,5.8-1.4,5.8-7.1v-2.9c0-5.7-1.8-6.2-5.8-6.4H238.1z M-36.8,329.3v-45.1h12c10.5,0,12.4,5.3,12.4,15.1v14.9
	c0,9.8-1.9,15.3-12.8,15.2h-11.6V329.3z M-25.2,324c7.4,0,7.9-2.6,7.9-9.8v-15c0-7.1-0.5-9.8-7.9-9.8H-32v34.5L-25.2,324L-25.2,324z
	 M9.7,329.3l-2-8.4H-4.1l-2,8.4h-5.1l10.5-45h5l10.4,45H9.7z M1.8,291.6l-2.7,14.7l-2,9.4h9.3l-2-9.6L1.8,291.6z M25,289.6v39.7
	h-4.9v-39.7h-8.2v-5.2h21.2v5.2H25z M51.2,329.3l-2-8.4H37.4l-2,8.4h-5.1l10.5-45h5l10.4,45H51.2z M43.3,291.6l-2.7,14.7l-2,9.4h9.3
	l-2-9.6L43.3,291.6z M69.8,320.4c0-19.1,16.7-14.3,16.7-25.1c0-4.4-1.8-6.6-6-6.6c-3.8,0-5.9,2.3-5.9,7.5h-4.9
	c0-8.8,4.3-12.6,10.9-12.6c6.5,0,10.7,3.6,10.7,11.6c0,16.3-16.6,9.1-16.6,25.1v3.5H91v5.5H69.7v-8.9H69.8z M127.4,329.3v-18.9
	h-13.2v19h-5v-45.1h5v20.8h13.2v-20.8h4.9v45H127.4z M158.9,284.2v4.9h-15v13.6h13.6v5.2h-13.6v16.3h16.3v5.2H139v-45.2H158.9z
	 M183.1,329.3l-2-8.4h-11.8l-2,8.4h-5.1l10.5-45h5l10.4,45H183.1z M175.1,291.6l-2.7,14.7l-2,9.4h9.3l-2-9.6L175.1,291.6z
	 M191.8,329.3v-45.1h4.9v40h15.4v5.2h-20.3V329.3z M221.4,289.6v39.7h-4.8v-39.7h-8.2v-5.2h21.2v5.2H221.4z M251.4,329.3v-18.9
	h-13.2v19h-5v-45.1h5v20.8h13.2v-20.8h4.9v45H251.4z"/>
<linearGradient id="SVGID_1_" gradientUnits="userSpaceOnUse" x1="107.7" y1="12.4" x2="107.7" y2="-78" gradientTransform="matrix(1 0 0 1 0 116)">
	<stop  offset="0" style="stop-color:#951B1F"/>
	<stop  offset="6.032908e-02" style="stop-color:#9D2022"/>
	<stop  offset="0.2846" style="stop-color:#BC2E2A"/>
	<stop  offset="0.5138" style="stop-color:#D23632"/>
	<stop  offset="0.7492" style="stop-color:#E23E37"/>
	<stop  offset="1" style="stop-color:#E93F3A"/>
</linearGradient>
<polygon class="st1" points="89.2,101.7 62.5,101.7 62.5,64.7 89.2,64.7 89.2,38 126.1,38 126.1,64.7 152.9,64.7 152.9,101.7 
	126.1,101.7 126.1,128.4 89.2,128.4 "/>
<linearGradient id="SVGID_2_" gradientUnits="userSpaceOnUse" x1="-64.8" y1="199.1" x2="280.1002" y2="199.1" gradientTransform="matrix(1 0 0 -1 0 288)">
	<stop  offset="0" style="stop-color:#186791"/>
	<stop  offset="0.289" style="stop-color:#567B86"/>
	<stop  offset="0.3385" style="stop-color:#5C8381"/>
	<stop  offset="0.4271" style="stop-color:#669079"/>
	<stop  offset="0.5156" style="stop-color:#6E9971"/>
	<stop  offset="0.6032" style="stop-color:#739F6C"/>
	<stop  offset="0.6889" style="stop-color:#75A16A"/>
	<stop  offset="0.8785" style="stop-color:#8BBB4A"/>
	<stop  offset="1" style="stop-color:#93C840"/>
</linearGradient>
<path class="st2" d="M71.8,217.9h-42c-52,0-94.6-42.6-94.6-94.6V54.5c0-52,42.6-94.6,94.6-94.6h62.4c-13.6,2.3-24,14.1-24,28.3V10
	H28.7C9,10-7.2,26.2-7.2,45.9v86c0,19.7,16.2,35.9,35.9,35.9h43.2v50.1H71.8z M89.2-11.8V10h0.1v11.6h36.9V10h0.1v-21.8
	c0-4.3-3.5-7.7-7.7-7.7H97.1C92.7-19.5,89.2-16,89.2-11.8z M185.6-40.1h-62.4c13.6,2.3,24,14.1,24,28.3V10h39.5
	c19.7,0,35.9,16.2,35.9,35.9v86c0,19.7-16.2,35.9-35.9,35.9h-60.6v-22.1H89.2v22.1l0,0v50.1h96.3c52,0,94.6-42.6,94.6-94.6V54.5
	C280.2,2.5,237.6-40.1,185.6-40.1z"/>
</svg>
