<?xml version="1.0" encoding="utf-8"?>
<!-- Generator: Adobe Illustrator 19.1.0, SVG Export Plug-In . SVG Version: 6.00 Build 0)  -->
<svg version="1.1" id="Layer_1" xmlns="http://www.w3.org/2000/svg" xmlns:xlink="http://www.w3.org/1999/xlink" x="0px" y="0px"
	 viewBox="0 0 376 400" style="enable-background:new 0 0 376 400;" xml:space="preserve">
<style type="text/css">
	.st0{fill:#010101;}
</style>
<path class="st0" d="M61.9,303.3c0-5-0.9-7.2-6.9-7.2c-6.3,0-7,2.6-7,9.1v14.2c0,6.5,0.9,9.1,7,9.1s7-1.6,7-8.1h4.3
	c0,8-0.7,12.9-11.3,12.9s-11.5-4.9-11.5-14v-14c0-9.1,1.9-13.9,11.5-13.9c9.4,0,11.2,4,11.3,12h-4.4V303.3z M94.6,291.7v4.5H80.9
	v12.4h12.5v4.8H80.9v14.9h14.9v4.8H76.4v-41.4L94.6,291.7L94.6,291.7z M123,323.3l-0.7-14v-17.6h4.4V333h-4.1l-11.9-29.7l0.3,13.6
	V333h-4.4v-41.3h4.2L123,323.3z M148.1,296.6V333h-4.4v-36.4h-7.5v-4.7h19.4v4.7H148.1L148.1,296.6z M182.3,291.7v4.5h-13.8v12.4
	H181v4.8h-12.5v14.9h14.9v4.8H164v-41.4L182.3,291.7L182.3,291.7z M204.4,317.4l7.8,15.6H207l-7.3-15.3h-4.1V333h-4.4v-41.4l9.7-0.1
	c6.3,0,10.3,3,10.3,11.3v2.9C211.2,312.4,209.4,316.3,204.4,317.4z M195.7,296.5v16.4h5.2c4,0,5.8-1.4,5.8-7.1v-2.9
	c0-5.7-1.8-6.2-5.8-6.4H195.7z M260.2,296.4V309h13v4.8h-13V333h-4.4v-41.4h19.4v4.7L260.2,296.4L260.2,296.4z M305.6,319.5
	c0,9.1-1.8,13.9-11.7,13.9c-9.9,0-11.7-4.9-11.7-13.9v-14.4c0-9.1,1.8-13.9,11.7-13.9s11.7,4.9,11.7,13.9V319.5z M301.1,305
	c0-6.5-0.5-9.2-7.2-9.2c-6.7,0-7.2,2.7-7.2,9.2v14.5c0,6.5,0.5,9.1,7.2,9.1c6.7,0,7.2-2.6,7.2-9.1V305z M327.8,317.4l7.8,15.6h-5.2
	l-7.3-15.3H319V333h-4.4v-41.4l9.7-0.1c6.3,0,10.3,3,10.3,11.3v2.9C334.5,312.4,332.8,316.3,327.8,317.4z M319.1,296.5v16.4h5.2
	c4,0,5.8-1.4,5.8-7.1v-2.9c0-5.7-1.8-6.2-5.8-6.4H319.1z M44.2,385.3v-45.1h12c10.5,0,12.4,5.3,12.4,15.1v14.9
	c0,9.8-1.9,15.3-12.8,15.2H44.2V385.3z M55.8,380c7.4,0,7.9-2.6,7.9-9.8v-15c0-7.1-0.5-9.8-7.9-9.8H49v34.5L55.8,380L55.8,380z
	 M90.7,385.3l-2-8.4H76.9l-2,8.4h-5.1l10.5-45h5l10.4,45H90.7z M82.8,347.6l-2.7,14.7l-2,9.4h9.3l-2-9.6L82.8,347.6z M106,345.6
	v39.7h-4.9v-39.7h-8.2v-5.2h21.2v5.2H106z M132.2,385.3l-2-8.4h-11.8l-2,8.4h-5.1l10.5-45h5l10.4,45H132.2z M124.3,347.6l-2.7,14.7
	l-2,9.4h9.3l-2-9.6L124.3,347.6z M150.8,376.4c0-19.1,16.7-14.3,16.7-25.1c0-4.4-1.8-6.6-6-6.6c-3.8,0-5.9,2.3-5.9,7.5h-4.9
	c0-8.8,4.3-12.6,10.9-12.6c6.5,0,10.7,3.6,10.7,11.6c0,16.3-16.6,9.1-16.6,25.1v3.5H172v5.5h-21.3v-8.9H150.8z M208.4,385.3v-18.9
	h-13.2v19h-5v-45.1h5v20.8h13.2v-20.8h4.9v45H208.4z M239.9,340.2v4.9h-15v13.6h13.6v5.2h-13.6v16.3h16.3v5.2H220v-45.2H239.9z
	 M264.1,385.3l-2-8.4h-11.8l-2,8.4h-5.1l10.5-45h5l10.4,45H264.1z M256.1,347.6l-2.7,14.7l-2,9.4h9.3l-2-9.6L256.1,347.6z
	 M272.8,385.3v-45.1h4.9v40h15.4v5.2h-20.3V385.3z M302.4,345.6v39.7h-4.8v-39.7h-8.2v-5.2h21.2v5.2H302.4z M332.4,385.3v-18.9
	h-13.2v19h-5v-45.1h5v20.8h13.2v-20.8h4.9v45H332.4z"/>
<polygon points="170.2,157.7 143.5,157.7 143.5,120.7 170.2,120.7 170.2,94 207.1,94 207.1,120.7 233.9,120.7 233.9,157.7 
	207.1,157.7 207.1,184.4 170.2,184.4 "/>
<path d="M152.8,273.9h-42c-52,0-94.6-42.6-94.6-94.6v-68.8c0-52,42.6-94.6,94.6-94.6h62.4c-13.6,2.3-24,14.1-24,28.3V66h-39.5
	c-19.7,0-35.9,16.2-35.9,35.9v86c0,19.7,16.2,35.9,35.9,35.9h43.2V273.9z M170.2,44.2V66h0.1v11.6h36.9V66h0.1V44.2
	c0-4.3-3.5-7.7-7.7-7.7h-21.5C173.7,36.5,170.2,40,170.2,44.2z M266.6,15.9h-62.4c13.6,2.3,24,14.1,24,28.3V66h39.5
	c19.7,0,35.9,16.2,35.9,35.9v86c0,19.7-16.2,35.9-35.9,35.9h-60.6v-22.1h-36.9v22.1h0v50.1h96.3c52,0,94.6-42.6,94.6-94.6v-68.8
	C361.2,58.5,318.6,15.9,266.6,15.9z"/>
</svg>
