<svg id="Layer_1" data-name="Layer 1" xmlns="http://www.w3.org/2000/svg" xmlns:xlink="http://www.w3.org/1999/xlink" viewBox="0 0 672.06 216"><defs><style>.cls-1{fill:url(#linear-gradient);}.cls-2{fill:#212121;}.cls-3{fill:url(#linear-gradient-2);}.cls-4{fill:#757575;}.cls-5{fill:#020202;}</style><linearGradient id="linear-gradient" x1="-779.42" y1="88.78" x2="-744.94" y2="88.78" gradientTransform="matrix(-0.99, -0.17, -0.17, 0.99, -610.27, -92.84)" gradientUnits="userSpaceOnUse"><stop offset="0" stop-color="#d1d3d4"/><stop offset="0.65" stop-color="#414042"/><stop offset="1" stop-color="#414042"/></linearGradient><linearGradient id="linear-gradient-2" x1="-1368.32" y1="-267.57" x2="-1530.92" y2="-52.89" gradientTransform="matrix(-0.88, -0.47, -0.47, 0.88, -1256.47, -383.97)" xlink:href="#linear-gradient"/></defs><title>TEHR-logo</title><path class="cls-1" d="M114.44,139.73c.39-1.09,2.2-4.87,2.77-5.94.89-1.67,1.76-3.36,2.77-5a41,41,0,0,1,7.39-8.95,23,23,0,0,1,4-2.83,40.49,40.49,0,0,1,8.8-3.5c1.63-.48,3.26-1,5-1.51-.15-.08-.19-.12-.23-.12-2.79-.12-5.57.06-8.35.19a34,34,0,0,0-20.1,7.94c-1.26,1-2.5,2-3.68,3.15-.9.86-1.75,2.42-3.17,1.66a5.62,5.62,0,0,0-1.57-.82,10,10,0,0,0,.77,3.38c1.48,4,2.6,10.37,4.85,13.94,0,.08.11.17.2.17s.22-.18.23-.33A5.76,5.76,0,0,1,114.44,139.73Z"/><path class="cls-2" d="M108.78,97.42a8.64,8.64,0,1,1,.59,12.27A8.64,8.64,0,0,1,108.78,97.42Z"/><path class="cls-3" d="M86.42,28.67A39.5,39.5,0,0,0,95,40.28c6.76,6.74,14.88,12.24,20.35,20.07a39.3,39.3,0,0,1,5.48,32.9,48.56,48.56,0,0,0-13-35.67c-9.77-10.38-24.4-16.77-30.1-29.83-7.13,3.78-11.65,6.48-18.39,15.6C50.24,55.69,48,69.33,52.89,87.7c5.28,20,39.35,43.7,53.35,69.17,3.57-17.1-3.83-34.87-14.71-48.54-4.77-6-10.24-11.45-14.4-17.87s-7-14.17-5.65-21.71c.62,8.46,6,15.85,12.06,21.77S96.61,101.45,102,108c9,10.89,13.45,25.41,13,39.51s-5.46,27.84-11.48,40.6c2-10.81-.77-22.12-6-31.78s-12.8-17.87-20.79-25.42c-10-9.39-20-17.89-26.64-29.82-8.56-15.24-9.93-34.82-3-50.87A64.53,64.53,0,0,1,61.93,29.15c5.79-5.51,14-12.1,21.9-14.07A32.21,32.21,0,0,0,86.42,28.67Z"/><path class="cls-4" d="M153.71,52.88V23h7.76q4.08,0,5.91,2.1t1.83,6.15a7.85,7.85,0,0,1-2,5.68,7.64,7.64,0,0,1-5.75,2h-3.42V52.88ZM158.07,36h2c1.92,0,3.23-.33,3.95-1s1.08-1.89,1.08-3.73q0-1.14-.06-1.86a6,6,0,0,0-.26-1.38,2.6,2.6,0,0,0-.51-1,2.67,2.67,0,0,0-.9-.6,4.69,4.69,0,0,0-1.34-.35,16.78,16.78,0,0,0-1.9-.09h-2Z"/><path class="cls-4" d="M172.16,52.88,178.84,23h4.22l6.68,29.88h-4.15l-1.44-7.53h-6.37l-1.49,7.53Zm6.19-10.51h5.23L181,28.88Z"/><path class="cls-4" d="M203.79,53.2a10.72,10.72,0,0,1-3.42-.5,6.24,6.24,0,0,1-3.94-3.53,10.38,10.38,0,0,1-.82-2.71,20.57,20.57,0,0,1-.22-3.19V32.71a21.33,21.33,0,0,1,.23-3.37,10.7,10.7,0,0,1,.82-2.75A6.18,6.18,0,0,1,198,24.48a6.76,6.76,0,0,1,2.41-1.3,11.29,11.29,0,0,1,3.41-.47q4.23,0,6.06,2.18t1.84,6.42v2.38h-4.14V31.58c0-.46,0-.81,0-1.07s0-.58,0-1a5.67,5.67,0,0,0-.1-.9c-.05-.21-.12-.47-.2-.75a2.06,2.06,0,0,0-.31-.68,5.25,5.25,0,0,0-.47-.52,1.82,1.82,0,0,0-.65-.42,5,5,0,0,0-.85-.22,6,6,0,0,0-1.09-.09,5.82,5.82,0,0,0-1.59.19,2.57,2.57,0,0,0-1.11.59,3.71,3.71,0,0,0-.71.89,4.14,4.14,0,0,0-.41,1.26c-.09.51-.14,1-.18,1.47s0,1.06,0,1.76V43.94c0,2.25.29,3.81.88,4.68a3.54,3.54,0,0,0,3.16,1.32,5.5,5.5,0,0,0,1.5-.18,2.29,2.29,0,0,0,1-.6,3.68,3.68,0,0,0,.65-.86,3.94,3.94,0,0,0,.36-1.22,12.9,12.9,0,0,0,.14-1.41c0-.43,0-1,0-1.69v-2.2h4.14V44a18.83,18.83,0,0,1-.23,3.07,10.05,10.05,0,0,1-.77,2.53,5.87,5.87,0,0,1-1.44,1.95A6.37,6.37,0,0,1,207,52.76,10.6,10.6,0,0,1,203.79,53.2Z"/><path class="cls-4" d="M219.14,52.88V23h4.29V52.88Z"/><path class="cls-4" d="M231.57,52.88V23h12.09v3h-7.73v9.93h6v3h-6v14Z"/><path class="cls-4" d="M249.94,52.88V23h4.29V52.88Z"/><path class="cls-4" d="M270.19,53.2a10.72,10.72,0,0,1-3.42-.5,6.83,6.83,0,0,1-2.41-1.37,6.9,6.9,0,0,1-1.53-2.16,10,10,0,0,1-.82-2.71,20.5,20.5,0,0,1-.23-3.19V32.71a21.25,21.25,0,0,1,.24-3.37,10.7,10.7,0,0,1,.82-2.75,6.18,6.18,0,0,1,1.53-2.11,6.68,6.68,0,0,1,2.41-1.3,11.24,11.24,0,0,1,3.41-.47q4.23,0,6.06,2.18t1.83,6.42v2.38H274V31.58c0-.46,0-.81,0-1.07s0-.58,0-1a5.67,5.67,0,0,0-.1-.9c-.05-.21-.12-.47-.2-.75a2.06,2.06,0,0,0-.31-.68,5.46,5.46,0,0,0-.48-.52,1.78,1.78,0,0,0-.64-.42,5,5,0,0,0-.85-.22,6.08,6.08,0,0,0-1.09-.09,5.77,5.77,0,0,0-1.59.19,2.61,2.61,0,0,0-1.12.59,3.66,3.66,0,0,0-.7.89,3.89,3.89,0,0,0-.41,1.26,13.37,13.37,0,0,0-.18,1.47c0,.48-.05,1.06-.05,1.76V43.94c0,2.25.3,3.81.89,4.68a3.53,3.53,0,0,0,3.16,1.32,5.5,5.5,0,0,0,1.5-.18,2.29,2.29,0,0,0,1-.6,3.28,3.28,0,0,0,1-2.08c.07-.51.12-1,.14-1.41s0-1,0-1.69v-2.2h4.13V44a18.91,18.91,0,0,1-.22,3.07,9.67,9.67,0,0,1-.78,2.53,5.71,5.71,0,0,1-1.43,1.95,6.37,6.37,0,0,1-2.27,1.22A10.6,10.6,0,0,1,270.19,53.2Z"/><path class="cls-4" d="M299.56,53V22.87h3l9,20v-20h3.68V53h-2.82l-9.12-20.6V53Z"/><path class="cls-4" d="M328.21,53.34a11,11,0,0,1-4.06-.67,6.08,6.08,0,0,1-2.67-2,8.53,8.53,0,0,1-1.45-3,15.89,15.89,0,0,1-.46-4.07V32.14q0-4.71,2-7.14t6.63-2.42q4.59,0,6.61,2.44c1.35,1.63,2,4,2,7.12V43.58q0,4.71-2,7.23C333.46,52.5,331.25,53.34,328.21,53.34Zm-2.15-3.67a6.24,6.24,0,0,0,4.29,0,2.77,2.77,0,0,0,1.29-1.17,5.4,5.4,0,0,0,.6-1.72,14.72,14.72,0,0,0,.16-2.31V31.27a14.31,14.31,0,0,0-.16-2.28,5.29,5.29,0,0,0-.6-1.67,2.56,2.56,0,0,0-1.29-1.11,6.57,6.57,0,0,0-4.29,0,2.6,2.6,0,0,0-1.29,1.11,5.29,5.29,0,0,0-.6,1.67,14.31,14.31,0,0,0-.16,2.28v13.2a14.72,14.72,0,0,0,.16,2.31,5.4,5.4,0,0,0,.6,1.72A2.82,2.82,0,0,0,326.06,49.67Z"/><path class="cls-4" d="M341.2,53V22.87h6.35q4.8,0,7,1.87c1.5,1.25,2.24,3.29,2.24,6.11,0,3.88-1.3,6.22-3.91,7L357.44,53h-4.27L349,38.87h-3.41V53Zm4.41-17.16h1.65a6.21,6.21,0,0,0,4.11-1.08c.82-.72,1.23-2,1.23-3.92s-.35-3.12-1.06-3.85-2-1.11-4-1.11h-1.94Z"/><path class="cls-4" d="M364.7,53V26h-5.77V22.87h15.74V26h-5.56V53Z"/><path class="cls-4" d="M377.09,53V22.87h4.41v13h8.12v-13H394V53h-4.4V38.89H381.5V53Z"/><path class="cls-4" d="M403.05,53l-5.16-30.14h3.69L405,44.54,409.23,23h3.12l4.29,21.67,3.3-21.76h3.6L418.47,53h-3.2l-4.4-22.32L406.41,53Z"/><path class="cls-4" d="M427.43,53V22.87h12.24V26h-7.84v10h6.37v3h-6.37V50h7.93v3Z"/><path class="cls-4" d="M450.76,53.34A7.67,7.67,0,0,1,444.69,51a10.31,10.31,0,0,1-2.34-6.41l3.93-1Q446.7,50,450.76,50a3.46,3.46,0,0,0,2.58-.9,3.62,3.62,0,0,0,.89-2.64,6.16,6.16,0,0,0-.24-1.77,4.88,4.88,0,0,0-.78-1.52,10.51,10.51,0,0,0-1-1.21c-.33-.33-.79-.75-1.38-1.28l-5.3-4.5a9,9,0,0,1-2.34-2.92,8.62,8.62,0,0,1-.73-3.75,6.57,6.57,0,0,1,2-5.1,7.84,7.84,0,0,1,5.44-1.86q3.79-.06,5.68,1.86t2.27,5.94l-3.72,1c0-.65-.12-1.24-.21-1.75a7.31,7.31,0,0,0-.43-1.53,4.2,4.2,0,0,0-.75-1.26,3,3,0,0,0-1.16-.76,3.88,3.88,0,0,0-1.68-.23c-2.32.16-3.49,1.26-3.49,3.31a4.67,4.67,0,0,0,.48,2.22,7,7,0,0,0,1.6,1.87l5.34,4.49a16,16,0,0,1,3.31,3.82,8.77,8.77,0,0,1,1.23,4.62,6.78,6.78,0,0,1-2.1,5.24A7.75,7.75,0,0,1,450.76,53.34Z"/><path class="cls-4" d="M465,53V26h-5.77V22.87H475V26h-5.56V53Z"/><path class="cls-4" d="M504.43,53.07a10.52,10.52,0,0,1-3.39-.5,6.21,6.21,0,0,1-3.91-3.5,10.26,10.26,0,0,1-.81-2.68,20.26,20.26,0,0,1-.22-3.16V32.76a20.93,20.93,0,0,1,.23-3.34,10.43,10.43,0,0,1,.81-2.73,6.2,6.2,0,0,1,1.52-2.09,6.57,6.57,0,0,1,2.39-1.29,11.05,11.05,0,0,1,3.38-.46c2.79,0,4.8.72,6,2.16s1.81,3.56,1.81,6.36v2.36h-4.1v-2.1c0-.45,0-.8,0-1.06s0-.57,0-.95a5.49,5.49,0,0,0-.11-.9c-.05-.21-.11-.46-.19-.75a2.2,2.2,0,0,0-.31-.67,5.23,5.23,0,0,0-.47-.51,1.92,1.92,0,0,0-.64-.42,5.94,5.94,0,0,0-.84-.22,6,6,0,0,0-1.09-.09,6.08,6.08,0,0,0-1.57.19,2.48,2.48,0,0,0-1.1.59,3.92,3.92,0,0,0-.71.88,4.08,4.08,0,0,0-.4,1.25c-.09.5-.14,1-.18,1.46s0,1.05,0,1.74V43.89c0,2.22.29,3.77.88,4.64a3.48,3.48,0,0,0,3.12,1.3,5.07,5.07,0,0,0,1.49-.18,2.22,2.22,0,0,0,1-.58,3.89,3.89,0,0,0,.65-.86A3.64,3.64,0,0,0,508,47a12.65,12.65,0,0,0,.15-1.4c0-.43,0-1,0-1.68V41.74h4.1v2.2a18.61,18.61,0,0,1-.22,3,9.9,9.9,0,0,1-.77,2.51,5.73,5.73,0,0,1-1.42,1.93,6.19,6.19,0,0,1-2.25,1.21A10.4,10.4,0,0,1,504.43,53.07Z"/><path class="cls-4" d="M520.82,52.75V23.13h12v3.06h-7.7V36h6.26v3h-6.26V49.78h7.79v3Z"/><path class="cls-4" d="M540.84,52.75V23.13h2.94L552.6,42.8V23.13h3.62V52.75h-2.77l-9-20.24V52.75Z"/><path class="cls-4" d="M568.68,52.75V26.19H563V23.13h15.47v3.06H573V52.75Z"/><path class="cls-4" d="M585.26,52.75V23.13h12v3.06h-7.7V36h6.26v3h-6.26V49.78h7.79v3Z"/><path class="cls-4" d="M605.28,52.75V23.13h6.24c3.14,0,5.45.62,6.92,1.84s2.2,3.23,2.2,6q0,5.72-3.84,6.92l4.43,14.86H617L613,38.85h-3.35v13.9Zm4.33-16.86h1.63a6.06,6.06,0,0,0,4-1.07c.81-.71,1.21-2,1.21-3.85a5.44,5.44,0,0,0-1-3.78c-.69-.73-2-1.09-3.92-1.09h-1.91Z"/><path class="cls-5" d="M185.15,116.61h-7.47v20.27h-6V116.61h-7.34V112h20.82Z"/><path class="cls-5" d="M197.51,123.59l-1.9-.14c-1.82,0-3,.57-3.49,1.71v11.72h-5.77V118.37h5.41l.19,2.38A4.45,4.45,0,0,1,196,118a5.9,5.9,0,0,1,1.61.2Z"/><path class="cls-5" d="M209.5,136.88a6.3,6.3,0,0,1-.54-1.66,5.37,5.37,0,0,1-4.45,2,6.54,6.54,0,0,1-4.45-1.59,5,5,0,0,1-1.83-4,5.2,5.2,0,0,1,2.22-4.56,11.38,11.38,0,0,1,6.47-1.54h1.78v-1c0-1.71-.74-2.56-2.21-2.56a1.8,1.8,0,0,0-2.05,2h-5.77A5.16,5.16,0,0,1,201,119.7a9.62,9.62,0,0,1,5.82-1.67,8.39,8.39,0,0,1,5.6,1.73,6,6,0,0,1,2.1,4.74v8.19a8.37,8.37,0,0,0,.79,3.9v.29Zm-3.61-3.76a3.28,3.28,0,0,0,1.79-.46,3,3,0,0,0,1-1v-3H207c-2,0-3,.91-3,2.71a1.65,1.65,0,0,0,.53,1.27A1.9,1.9,0,0,0,205.89,133.12Z"/><path class="cls-5" d="M223,118.37l.19,2.17a6.28,6.28,0,0,1,5.28-2.51,5.25,5.25,0,0,1,4.32,1.73,8.14,8.14,0,0,1,1.48,5.2v11.92h-5.78V125.2a3.2,3.2,0,0,0-.56-2.07,2.66,2.66,0,0,0-2.06-.65,2.73,2.73,0,0,0-2.51,1.33v13.07h-5.77V118.37Z"/><path class="cls-5" d="M247.13,131.68a1.34,1.34,0,0,0-.77-1.18,12.18,12.18,0,0,0-2.93-.92,13.36,13.36,0,0,1-3.56-1.26,6,6,0,0,1-2.14-1.89,4.51,4.51,0,0,1-.73-2.55,5.12,5.12,0,0,1,2.1-4.2,8.69,8.69,0,0,1,5.51-1.65,9.61,9.61,0,0,1,5.89,1.66,5.18,5.18,0,0,1,2.22,4.36h-5.78c0-1.48-.78-2.22-2.35-2.22a2.3,2.3,0,0,0-1.52.5,1.57,1.57,0,0,0-.61,1.26,1.44,1.44,0,0,0,.75,1.25,7,7,0,0,0,2.4.78,22.13,22.13,0,0,1,2.9.74q4.19,1.44,4.18,5.15a4.84,4.84,0,0,1-2.25,4.12,9.87,9.87,0,0,1-5.83,1.6,10.07,10.07,0,0,1-4.24-.86,7.16,7.16,0,0,1-2.91-2.33,5.22,5.22,0,0,1-1-3.09h5.39a2.21,2.21,0,0,0,.85,1.87,3.56,3.56,0,0,0,2.11.59,2.79,2.79,0,0,0,1.77-.48A1.55,1.55,0,0,0,247.13,131.68Z"/><path class="cls-5" d="M261.47,136.88h-5.79V110.6h5.79Z"/><path class="cls-5" d="M275.45,136.88a6.25,6.25,0,0,1-.55-1.66,5.36,5.36,0,0,1-4.45,2,6.54,6.54,0,0,1-4.45-1.59,5,5,0,0,1-1.83-4,5.2,5.2,0,0,1,2.22-4.56,11.41,11.41,0,0,1,6.47-1.54h1.78v-1c0-1.71-.73-2.56-2.21-2.56a1.8,1.8,0,0,0-2.05,2h-5.77a5.19,5.19,0,0,1,2.29-4.36,9.62,9.62,0,0,1,5.82-1.67,8.38,8.38,0,0,1,5.6,1.73,6,6,0,0,1,2.1,4.74v8.19a8.5,8.5,0,0,0,.79,3.9v.29Zm-3.62-3.76a3.28,3.28,0,0,0,1.79-.46,2.82,2.82,0,0,0,1-1v-3H273c-2,0-3,.91-3,2.71a1.65,1.65,0,0,0,.53,1.27A1.92,1.92,0,0,0,271.83,133.12Z"/><path class="cls-5" d="M290.33,113.77v4.6h3.05v4h-3.05v8.47a2.19,2.19,0,0,0,.38,1.46,2,2,0,0,0,1.49.41,9.3,9.3,0,0,0,1.43-.1v4.12a10.62,10.62,0,0,1-3.25.5,6,6,0,0,1-4.4-1.41,5.76,5.76,0,0,1-1.42-4.26v-9.19H282.2v-4h2.36v-4.6Z"/><path class="cls-5" d="M295.6,113.6a2.57,2.57,0,0,1,.89-2,3.77,3.77,0,0,1,4.62,0,2.57,2.57,0,0,1,.89,2,2.6,2.6,0,0,1-.89,2,3.81,3.81,0,0,1-4.62,0A2.6,2.6,0,0,1,295.6,113.6Zm6.13,23.28h-5.79V118.37h5.79Z"/><path class="cls-5" d="M304.55,127.46a10.91,10.91,0,0,1,1.08-4.94,7.78,7.78,0,0,1,3.09-3.33,9.41,9.41,0,0,1,4.74-1.16A8.54,8.54,0,0,1,320,120.6a9.91,9.91,0,0,1,2.39,7v.21a9.58,9.58,0,0,1-2.4,6.86,8.51,8.51,0,0,1-6.51,2.55,8.63,8.63,0,0,1-6.35-2.37,9.25,9.25,0,0,1-2.58-6.43Zm5.77.36a6.85,6.85,0,0,0,.8,3.76,2.68,2.68,0,0,0,2.38,1.2q3.08,0,3.15-4.74v-.58q0-5-3.19-5c-1.92,0-3,1.43-3.13,4.29Z"/><path class="cls-5" d="M330.25,118.37l.19,2.17a6.28,6.28,0,0,1,5.28-2.51,5.25,5.25,0,0,1,4.32,1.73,8.14,8.14,0,0,1,1.48,5.2v11.92h-5.78V125.2a3.2,3.2,0,0,0-.56-2.07,2.66,2.66,0,0,0-2.06-.65,2.74,2.74,0,0,0-2.51,1.33v13.07h-5.77V118.37Z"/><path class="cls-5" d="M355.14,136.88a6.69,6.69,0,0,1-.54-1.66,5.36,5.36,0,0,1-4.45,2,6.54,6.54,0,0,1-4.45-1.59,5,5,0,0,1-1.83-4,5.2,5.2,0,0,1,2.22-4.56,11.41,11.41,0,0,1,6.47-1.54h1.78v-1c0-1.71-.74-2.56-2.21-2.56a1.8,1.8,0,0,0-2.05,2h-5.77a5.16,5.16,0,0,1,2.29-4.36,9.62,9.62,0,0,1,5.82-1.67,8.39,8.39,0,0,1,5.6,1.73,6,6,0,0,1,2.1,4.74v8.19a8.5,8.5,0,0,0,.79,3.9v.29Zm-3.61-3.76a3.28,3.28,0,0,0,1.79-.46,2.9,2.9,0,0,0,1-1v-3h-1.68c-2,0-3,.91-3,2.71a1.65,1.65,0,0,0,.53,1.27A1.92,1.92,0,0,0,351.53,133.12Z"/><path class="cls-5" d="M369.4,136.88h-5.79V110.6h5.79Z"/><path class="cls-5" d="M401.39,126.62h-9.45v5.95H403.1v4.62H385.94V112.28h17.19v4.64H391.94v5.25h9.45Z"/><path class="cls-5" d="M410.57,118.68l.19,2.17a6.3,6.3,0,0,1,5.29-2.51,5.25,5.25,0,0,1,4.32,1.73,8.26,8.26,0,0,1,1.48,5.2v11.92h-5.78V125.51a3.09,3.09,0,0,0-.57-2.06,2.61,2.61,0,0,0-2.05-.66,2.76,2.76,0,0,0-2.52,1.33v13.07h-5.76V118.68Z"/><path class="cls-5" d="M432.42,130.33l2.93-11.65h6.07l-6,18.51H429.5l-6-18.51h6.09Z"/><path class="cls-5" d="M443.1,113.91a2.57,2.57,0,0,1,.89-2,3.77,3.77,0,0,1,4.62,0,2.57,2.57,0,0,1,.89,2,2.6,2.6,0,0,1-.89,2,3.81,3.81,0,0,1-4.62,0A2.6,2.6,0,0,1,443.1,113.91Zm6.13,23.28h-5.79V118.68h5.79Z"/><path class="cls-5" d="M464,123.9l-1.89-.14c-1.82,0-3,.57-3.5,1.71v11.72h-5.76V118.68h5.41l.18,2.38a4.48,4.48,0,0,1,4.06-2.72,5.9,5.9,0,0,1,1.61.2Z"/><path class="cls-5" d="M464.71,127.77a10.91,10.91,0,0,1,1.08-4.94,7.75,7.75,0,0,1,3.1-3.33,9.35,9.35,0,0,1,4.74-1.16,8.53,8.53,0,0,1,6.55,2.57,9.89,9.89,0,0,1,2.39,7v.21a9.58,9.58,0,0,1-2.4,6.86,8.51,8.51,0,0,1-6.51,2.55,8.63,8.63,0,0,1-6.35-2.37,9.25,9.25,0,0,1-2.58-6.43Zm5.77.36a6.85,6.85,0,0,0,.8,3.76,2.68,2.68,0,0,0,2.38,1.2q3.07,0,3.15-4.74v-.58q0-5-3.18-5-2.89,0-3.14,4.29Z"/><path class="cls-5" d="M490.41,118.68l.19,2.17a6.29,6.29,0,0,1,5.28-2.51,5.29,5.29,0,0,1,4.33,1.73,8.26,8.26,0,0,1,1.48,5.2v11.92H495.9V125.51a3.15,3.15,0,0,0-.56-2.06,2.62,2.62,0,0,0-2.06-.66,2.74,2.74,0,0,0-2.51,1.33v13.07H485V118.68Z"/><path class="cls-5" d="M510.33,118.68l.18,2.17a6.4,6.4,0,0,1,5.29-2.51q3.51,0,4.74,2.79a6.17,6.17,0,0,1,5.44-2.79c3.76,0,5.68,2.27,5.79,6.81v12H526V125.51a3.51,3.51,0,0,0-.48-2.07,2,2,0,0,0-1.74-.65,2.74,2.74,0,0,0-2.55,1.52l0,.24v12.64h-5.79V125.54a3.67,3.67,0,0,0-.46-2.1,2,2,0,0,0-1.76-.65,2.76,2.76,0,0,0-2.53,1.52v12.88h-5.77V118.68Z"/><path class="cls-5" d="M544,137.54a9.51,9.51,0,0,1-6.9-2.55,8.74,8.74,0,0,1-2.63-6.61v-.48a11.39,11.39,0,0,1,1-5,7.64,7.64,0,0,1,3.07-3.36,9.3,9.3,0,0,1,4.79-1.19,8,8,0,0,1,6.16,2.42,9.48,9.48,0,0,1,2.26,6.75v2.24H540.35a4.19,4.19,0,0,0,1.36,2.45,4,4,0,0,0,2.7.89,5.19,5.19,0,0,0,4.28-1.92l2.63,3.11a7.32,7.32,0,0,1-3.05,2.38A10.47,10.47,0,0,1,544,137.54Zm-.65-14.75q-2.54,0-3,3.35h5.82v-.44a2.87,2.87,0,0,0-.7-2.15A2.77,2.77,0,0,0,543.37,122.79Z"/><path class="cls-5" d="M559.43,118.68l.19,2.17a6.3,6.3,0,0,1,5.29-2.51,5.28,5.28,0,0,1,4.32,1.73,8.26,8.26,0,0,1,1.48,5.2v11.92h-5.79V125.51a3.09,3.09,0,0,0-.56-2.06,2.61,2.61,0,0,0-2.05-.66,2.76,2.76,0,0,0-2.52,1.33v13.07H554V118.68Z"/><path class="cls-5" d="M580.61,114.08v4.6h3v4h-3v8.46a2.19,2.19,0,0,0,.38,1.46,2,2,0,0,0,1.49.41,9.54,9.54,0,0,0,1.44-.1V137a10.72,10.72,0,0,1-3.25.5,6,6,0,0,1-4.4-1.41,5.72,5.72,0,0,1-1.42-4.26v-9.18h-2.36v-4h2.36v-4.6Z"/><path class="cls-5" d="M596.36,137.19a6.25,6.25,0,0,1-.55-1.66,5.36,5.36,0,0,1-4.45,2,6.54,6.54,0,0,1-4.45-1.59,5,5,0,0,1-1.83-4,5.2,5.2,0,0,1,2.22-4.56,11.41,11.41,0,0,1,6.47-1.54h1.78v-1c0-1.7-.73-2.56-2.21-2.56a1.81,1.81,0,0,0-2.05,2h-5.76a5.18,5.18,0,0,1,2.28-4.36,9.63,9.63,0,0,1,5.83-1.67,8.36,8.36,0,0,1,5.59,1.73,6,6,0,0,1,2.11,4.74V133a8.38,8.38,0,0,0,.78,3.9v.29Zm-3.61-3.76a3.27,3.27,0,0,0,1.78-.46,2.82,2.82,0,0,0,1-1.05v-3h-1.68c-2,0-3,.91-3,2.71a1.65,1.65,0,0,0,.53,1.27A1.93,1.93,0,0,0,592.75,133.43Z"/><path class="cls-5" d="M610.61,137.19h-5.78V110.91h5.78Z"/><path class="cls-5" d="M279.51,179.21l-6,0,.07-10.41-8.84-.06-.08,10.4-6,0,.17-24.91,6,0-.07,9.89,8.84.06.07-9.89,6,.05Z"/><path class="cls-5" d="M292,179.64a9.5,9.5,0,0,1-6.88-2.59,8.8,8.8,0,0,1-2.59-6.63v-.48a11.4,11.4,0,0,1,1.08-5,7.77,7.77,0,0,1,3.1-3.34,9.23,9.23,0,0,1,4.8-1.15,8,8,0,0,1,6.14,2.46,9.55,9.55,0,0,1,2.21,6.77l0,2.24-11.46-.08a4.09,4.09,0,0,0,1.34,2.45,4,4,0,0,0,2.69.91,5.14,5.14,0,0,0,4.29-1.88l2.62,3.13a7.4,7.4,0,0,1-3.07,2.35A10.53,10.53,0,0,1,292,179.64Zm-.55-14.75q-2.54,0-3,3.33l5.81,0v-.45a2.84,2.84,0,0,0-.69-2.15A2.78,2.78,0,0,0,291.45,164.89Z"/><path class="cls-5" d="M312.55,179.44a6.84,6.84,0,0,1-.54-1.66,5.39,5.39,0,0,1-4.46,2,6.56,6.56,0,0,1-4.44-1.62,5,5,0,0,1-1.8-4,5.16,5.16,0,0,1,2.26-4.53,11.29,11.29,0,0,1,6.47-1.5l1.78,0v-1q0-2.57-2.19-2.58a1.8,1.8,0,0,0-2.07,2l-5.76,0a5.16,5.16,0,0,1,2.31-4.34,9.56,9.56,0,0,1,5.84-1.63,8.38,8.38,0,0,1,5.58,1.76,6.07,6.07,0,0,1,2.08,4.76l-.06,8.19a8.33,8.33,0,0,0,.76,3.91v.29ZM309,175.65a3.16,3.16,0,0,0,1.79-.45,2.94,2.94,0,0,0,1-1l0-3h-1.67c-2,0-3,.88-3,2.68a1.62,1.62,0,0,0,.52,1.28A1.89,1.89,0,0,0,309,175.65Z"/><path class="cls-5" d="M326.8,179.54l-5.78,0,.18-26.28,5.79,0Z"/><path class="cls-5" d="M337.23,156.5l0,4.6,3,0,0,4-3,0-.06,8.46a2.2,2.2,0,0,0,.36,1.46,2,2,0,0,0,1.49.42,8.5,8.5,0,0,0,1.44-.09l0,4.12a10.72,10.72,0,0,1-3.26.48,6.06,6.06,0,0,1-4.38-1.44,5.71,5.71,0,0,1-1.39-4.27l.06-9.19H329l0-4,2.36,0,0-4.6Z"/><path class="cls-5" d="M348.13,163.16a6.34,6.34,0,0,1,9.35-.45,8.13,8.13,0,0,1,1.55,5.37L359,179.77l-5.78,0,.08-11.55a3.27,3.27,0,0,0-.59-2.17,2.55,2.55,0,0,0-2-.71,2.79,2.79,0,0,0-2.52,1.11L348,179.69l-5.77,0,.19-26.28,5.76,0Z"/><path class="cls-5" d="M380.47,171.11l-3.25,0-.06,8.82-6-.05.18-24.91,9.8.07a10.87,10.87,0,0,1,6.91,2,6.64,6.64,0,0,1,2.46,5.57,8.08,8.08,0,0,1-1.08,4.3,7.44,7.44,0,0,1-3.31,2.74l5.13,10.1V180L384.8,180Zm-3.22-4.64,3.8,0a3.38,3.38,0,0,0,2.58-.88,4.1,4.1,0,0,0,0-5,3.37,3.37,0,0,0-2.56-.94l-3.8,0Z"/><path class="cls-5" d="M402.7,180.42a9.5,9.5,0,0,1-6.88-2.59,8.76,8.76,0,0,1-2.59-6.63v-.48a11.54,11.54,0,0,1,1.09-5,7.71,7.71,0,0,1,3.1-3.34,9.23,9.23,0,0,1,4.8-1.15,8,8,0,0,1,6.14,2.46,9.55,9.55,0,0,1,2.21,6.77l0,2.24-11.46-.08a4.13,4.13,0,0,0,1.33,2.45,4,4,0,0,0,2.7.91,5.14,5.14,0,0,0,4.29-1.88l2.62,3.13a7.37,7.37,0,0,1-3.08,2.35A10.28,10.28,0,0,1,402.7,180.42Zm-.55-14.75q-2.53,0-3,3.33l5.81,0v-.45a2.84,2.84,0,0,0-.69-2.15A2.78,2.78,0,0,0,402.15,165.67Z"/><path class="cls-5" d="M422.55,175a1.34,1.34,0,0,0-.76-1.18,11.75,11.75,0,0,0-2.92-1,12.8,12.8,0,0,1-3.55-1.28,6,6,0,0,1-2.13-1.9,4.64,4.64,0,0,1-.72-2.56,5.13,5.13,0,0,1,2.14-4.18,8.71,8.71,0,0,1,5.52-1.62A9.65,9.65,0,0,1,426,163a5.2,5.2,0,0,1,2.2,4.38l-5.79,0c0-1.48-.76-2.23-2.32-2.24a2.31,2.31,0,0,0-1.53.5,1.59,1.59,0,0,0-.63,1.25,1.44,1.44,0,0,0,.75,1.25,6.89,6.89,0,0,0,2.4.81,20.41,20.41,0,0,1,2.89.75q4.17,1.47,4.14,5.18a4.84,4.84,0,0,1-2.28,4.11,9.85,9.85,0,0,1-5.84,1.55,10,10,0,0,1-4.23-.89,7,7,0,0,1-2.89-2.34,5.34,5.34,0,0,1-1-3.11l5.39,0a2.23,2.23,0,0,0,.85,1.88,3.5,3.5,0,0,0,2.09.61,2.8,2.8,0,0,0,1.78-.47A1.54,1.54,0,0,0,422.55,175Z"/><path class="cls-5" d="M439.72,180.68a9.52,9.52,0,0,1-6.88-2.59,8.79,8.79,0,0,1-2.58-6.63V171a11.4,11.4,0,0,1,1.09-5,7.74,7.74,0,0,1,3.09-3.34,9.33,9.33,0,0,1,4.8-1.15,8,8,0,0,1,6.14,2.46,9.46,9.46,0,0,1,2.21,6.77V173l-11.46-.08a4.08,4.08,0,0,0,1.33,2.45,4,4,0,0,0,2.7.91,5.17,5.17,0,0,0,4.29-1.88l2.61,3.13a7.33,7.33,0,0,1-3.07,2.35A10.3,10.3,0,0,1,439.72,180.68Zm-.54-14.75c-1.69,0-2.7,1.1-3,3.33l5.82,0v-.44a2.85,2.85,0,0,0-.69-2.16A2.74,2.74,0,0,0,439.18,165.93Z"/><path class="cls-5" d="M460.27,180.48a6.48,6.48,0,0,1-.53-1.66,5.37,5.37,0,0,1-4.47,2,6.52,6.52,0,0,1-4.43-1.62,5,5,0,0,1-1.81-4,5.2,5.2,0,0,1,2.26-4.54c1.49-1,3.65-1.51,6.48-1.49h1.78v-1q0-2.56-2.19-2.58a1.8,1.8,0,0,0-2.07,2l-5.77,0a5.21,5.21,0,0,1,2.32-4.34,9.6,9.6,0,0,1,5.84-1.63,8.38,8.38,0,0,1,5.58,1.77,6,6,0,0,1,2.07,4.75l-.06,8.2a8.41,8.41,0,0,0,.76,3.9v.29Zm-3.58-3.79a3.14,3.14,0,0,0,1.79-.45,2.89,2.89,0,0,0,1-1l0-3-1.68,0c-2,0-3,.89-3,2.69a1.68,1.68,0,0,0,.52,1.28A1.93,1.93,0,0,0,456.69,176.69Z"/><path class="cls-5" d="M479.74,167.32l-1.9-.15c-1.82,0-3,.55-3.51,1.69l-.08,11.72-5.76,0,.13-18.51,5.4,0,.17,2.39a4.48,4.48,0,0,1,4.08-2.7,5.91,5.91,0,0,1,1.61.22Z"/><path class="cls-5" d="M489.25,176.58a2.54,2.54,0,0,0,1.89-.65,2.37,2.37,0,0,0,.66-1.83l5.41,0a6.4,6.4,0,0,1-2.22,5,8.08,8.08,0,0,1-5.63,1.91,8.23,8.23,0,0,1-6.35-2.58,10,10,0,0,1-2.28-7v-.24a11.13,11.13,0,0,1,1.07-5,7.58,7.58,0,0,1,3-3.28,9,9,0,0,1,4.63-1.12,8.05,8.05,0,0,1,5.72,2,7.11,7.11,0,0,1,2.08,5.44l-5.4,0a3.23,3.23,0,0,0-.69-2.21,2.45,2.45,0,0,0-1.88-.78c-1.49,0-2.37.94-2.63,2.84a19.27,19.27,0,0,0-.14,2.49,8,8,0,0,0,.64,3.88A2.31,2.31,0,0,0,489.25,176.58Z"/><path class="cls-5" d="M505.35,164.27a6.34,6.34,0,0,1,9.35-.45,8.13,8.13,0,0,1,1.55,5.37l-.08,11.69-5.78,0,.08-11.55a3.27,3.27,0,0,0-.58-2.17,2.59,2.59,0,0,0-2-.71,2.77,2.77,0,0,0-2.52,1.11l-.09,13.28-5.77,0,.19-26.28,5.76,0Z"/><path class="cls-4" d="M377,82.3h-1.87l.13-.65h1.89l1.79-8.37a24,24,0,0,1,.94-3.31A9.18,9.18,0,0,1,381,67.83a4.92,4.92,0,0,1,4.08-2.19,4.31,4.31,0,0,1,1.51.26l-.69,1.74A2.31,2.31,0,0,0,384,66.57a1.77,1.77,0,0,0-1.46.7,5.92,5.92,0,0,0-1,2.29l-2.92,12.09h3.07l-.14.65h-3.08l-2.62,10.83a18.5,18.5,0,0,1-1,3.24,7.44,7.44,0,0,1-1.32,2A4.52,4.52,0,0,1,370.2,100a3.71,3.71,0,0,1-1.56-.31l.93-1.37a2.75,2.75,0,0,0,1.74.65,2.26,2.26,0,0,0,2.11-1.49,19.21,19.21,0,0,0,1.09-3.66Z"/><path class="cls-4" d="M380.88,88.82a7.14,7.14,0,0,1,.92-3.42,8.31,8.31,0,0,1,2.39-2.78,5.06,5.06,0,0,1,3-1.06,3.37,3.37,0,0,1,2.58,1,3.9,3.9,0,0,1,1,2.74,7.51,7.51,0,0,1-.9,3.54,8.31,8.31,0,0,1-2.39,2.82,5,5,0,0,1-3,1.09,3.35,3.35,0,0,1-2.61-1.09A4.17,4.17,0,0,1,380.88,88.82Zm8.16-4.2a3,3,0,0,0-.57-1.88A1.71,1.71,0,0,0,387,82a2.59,2.59,0,0,0-1.53.52,4.84,4.84,0,0,0-1.34,1.5A11.66,11.66,0,0,0,383,86.68a9.73,9.73,0,0,0-.45,2.71,3.64,3.64,0,0,0,.56,2.17,1.83,1.83,0,0,0,1.58.77c1.1,0,2.08-.77,2.92-2.31a11.89,11.89,0,0,0,1-2.65A11.13,11.13,0,0,0,389,84.62Z"/><path class="cls-4" d="M392.32,87.06a11.64,11.64,0,0,0,2.19-3.69A2.71,2.71,0,0,1,393,80.91a2,2,0,0,1,.37-1.24,1.09,1.09,0,0,1,1.84,0,2.28,2.28,0,0,1,.37,1.36,4.74,4.74,0,0,1-.21,1.31,3.69,3.69,0,0,0,.93.14,2.8,2.8,0,0,0,1.95-.69h.91l-.13.27a34.84,34.84,0,0,0-2.26,5,11.9,11.9,0,0,0-.89,3.63,1.18,1.18,0,0,0,.23.73.67.67,0,0,0,.55.29q.78,0,2.52-1.65l.3.34a13.67,13.67,0,0,1-1.65,1.47,3.18,3.18,0,0,1-1.89.8,1.45,1.45,0,0,1-1.17-.5,2,2,0,0,1-.43-1.35,8.61,8.61,0,0,1,1.1-3.62c.27-.55.61-1.17,1-1.87s.95-1.53,1.58-2.5l.2-.27a4.14,4.14,0,0,1-1.22.82,3.58,3.58,0,0,1-1.32.23,3.08,3.08,0,0,1-.72-.09,11.8,11.8,0,0,1-2.29,3.85Zm2.61-4.84a5.19,5.19,0,0,0,.07-.8,2.1,2.1,0,0,0-.22-1,.64.64,0,0,0-.56-.38.4.4,0,0,0-.33.18.68.68,0,0,0-.15.45C393.74,81.22,394.14,81.75,394.93,82.22Z"/><path class="cls-4" d="M367.76,84.27H318.14a1.5,1.5,0,0,1,0-3h49.62a1.5,1.5,0,0,1,0,3Z"/><path class="cls-4" d="M456.8,84.27H406.25a1.5,1.5,0,0,1,0-3H456.8a1.5,1.5,0,1,1,0,3Z"/></svg>