<svg id="Layer_1" data-name="Layer 1" xmlns="http://www.w3.org/2000/svg" xmlns:xlink="http://www.w3.org/1999/xlink" viewBox="0 0 114.65 181.67"><defs><style>.cls-1{fill:url(#New_Gradient_Swatch_10);}.cls-2{fill:#12435e;}.cls-3{fill:url(#linear-gradient);}</style><linearGradient id="New_Gradient_Swatch_10" x1="-2093.6" y1="-32.66" x2="-2059.11" y2="-32.66" gradientTransform="matrix(-0.99, -0.17, -0.17, 0.99, -1963.49, -210.33)" gradientUnits="userSpaceOnUse"><stop offset="0" stop-color="#82b941"/><stop offset="0.55" stop-color="#098747"/><stop offset="1" stop-color="#106c38"/></linearGradient><linearGradient id="linear-gradient" x1="-2536.52" y1="-563.46" x2="-2699.11" y2="-348.78" gradientTransform="matrix(-0.88, -0.47, -0.47, 0.88, -2462.97, -688.44)" gradientUnits="userSpaceOnUse"><stop offset="0" stop-color="#c8db4f"/><stop offset="0.55" stop-color="#098747"/><stop offset="1" stop-color="#025c2f"/></linearGradient></defs><title>TEHR-logo</title><path class="cls-1" d="M76.65,129.11c.4-1.1,2.21-4.87,2.78-5.94.89-1.68,1.76-3.37,2.77-5a40.53,40.53,0,0,1,7.38-9,23.8,23.8,0,0,1,4-2.83,41.39,41.39,0,0,1,8.81-3.5c1.63-.48,3.25-1,5-1.5-.16-.08-.19-.12-.23-.12-2.79-.12-5.57.06-8.35.18a34.06,34.06,0,0,0-20.1,8c-1.26,1-2.51,2-3.68,3.15-.9.86-1.75,2.42-3.17,1.65a6,6,0,0,0-1.58-.82,10,10,0,0,0,.77,3.39c1.49,4,2.6,10.36,4.86,13.94,0,.07.11.16.2.17s.21-.19.23-.34A6.25,6.25,0,0,1,76.65,129.11Z"/><path class="cls-2" d="M71,86.79a8.64,8.64,0,1,1,.59,12.28A8.64,8.64,0,0,1,71,86.79Z"/><path class="cls-3" d="M48.63,18.05a39.81,39.81,0,0,0,8.57,11.6C64,36.39,72.09,41.9,77.56,49.73A39.37,39.37,0,0,1,83,82.63,48.61,48.61,0,0,0,70.08,47C60.3,36.57,45.68,30.19,40,17.12c-7.13,3.79-11.65,6.48-18.39,15.6-9.12,12.34-11.33,26-6.48,44.35,5.29,20,39.36,43.7,53.36,69.18,3.56-17.1-3.83-34.88-14.72-48.54-4.77-6-10.23-11.45-14.4-17.88s-7-14.16-5.65-21.7c.63,8.46,6,15.84,12.06,21.77S58.83,90.82,64.23,97.37c9,10.88,13.45,25.41,13,39.51s-5.47,27.84-11.49,40.59c2-10.81-.77-22.11-6-31.78S47,127.83,39,120.28C29,110.88,19,102.38,12.33,90.45c-8.55-15.23-9.93-34.82-3-50.86A64.57,64.57,0,0,1,24.14,18.53C29.94,13,38.13,6.42,46,4.45A32.45,32.45,0,0,0,48.63,18.05Z"/></svg>