<svg id="Layer_1" data-name="Layer 1" xmlns="http://www.w3.org/2000/svg" xmlns:xlink="http://www.w3.org/1999/xlink" viewBox="0 0 216 216"><defs><style>.cls-1{fill:url(#New_Gradient_Swatch_10);}.cls-2{fill:#12435e;}.cls-3{fill:url(#linear-gradient);}.cls-4{fill:#7ba33f;}.cls-5{fill:none;stroke:#69a14c;stroke-linecap:round;stroke-miterlimit:10;stroke-width:3px;}</style><linearGradient id="New_Gradient_Swatch_10" x1="-2476.84" y1="-63.22" x2="-2442.36" y2="-63.22" gradientTransform="matrix(-0.99, -0.17, -0.17, 0.99, -2245.78, -234.84)" gradientUnits="userSpaceOnUse"><stop offset="0" stop-color="#82b941"/><stop offset="0.55" stop-color="#098747"/><stop offset="1" stop-color="#106c38"/></linearGradient><linearGradient id="linear-gradient" x1="-2894.23" y1="-667.65" x2="-3056.82" y2="-452.97" gradientTransform="matrix(-0.88, -0.47, -0.47, 0.88, -2726.8, -755.02)" gradientUnits="userSpaceOnUse"><stop offset="0" stop-color="#c8db4f"/><stop offset="0.55" stop-color="#098747"/><stop offset="1" stop-color="#025c2f"/></linearGradient></defs><title>TEHR-logo</title><path class="cls-1" d="M177.14,140.55c.39-1.1,2.2-4.87,2.77-5.94.89-1.68,1.76-3.36,2.77-5a41.33,41.33,0,0,1,7.39-9,23.51,23.51,0,0,1,4-2.82,41,41,0,0,1,8.8-3.51c1.63-.48,3.26-1,5-1.5-.15-.08-.19-.12-.23-.12-2.79-.12-5.57.06-8.35.18a34.08,34.08,0,0,0-20.1,8c-1.26,1-2.51,2-3.68,3.15-.9.86-1.75,2.42-3.17,1.66a5.37,5.37,0,0,0-1.57-.82,10,10,0,0,0,.77,3.38c1.48,4,2.6,10.36,4.85,13.94,0,.08.11.16.2.17s.22-.19.23-.33A5.76,5.76,0,0,1,177.14,140.55Z"/><path class="cls-2" d="M171.48,98.24a8.64,8.64,0,1,1,.59,12.27A8.63,8.63,0,0,1,171.48,98.24Z"/><path class="cls-3" d="M149.12,29.49a39.45,39.45,0,0,0,8.57,11.6c6.76,6.75,14.88,12.25,20.35,20.08a39.29,39.29,0,0,1,5.48,32.9,48.54,48.54,0,0,0-13-35.67c-9.77-10.38-24.4-16.77-30.1-29.84-7.13,3.79-11.65,6.48-18.39,15.6-9.13,12.35-11.33,26-6.48,44.36,5.28,20,39.35,43.69,53.35,69.17,3.57-17.1-3.83-34.88-14.71-48.54-4.77-6-10.24-11.45-14.4-17.88s-7-14.16-5.65-21.7c.62,8.46,6,15.85,12.06,21.77s13.07,10.92,18.47,17.47c9,10.88,13.45,25.41,13,39.51s-5.46,27.84-11.48,40.59c2-10.8-.77-22.11-6-31.77s-12.8-17.87-20.79-25.42c-10-9.4-20-17.89-26.64-29.83-8.56-15.23-9.93-34.81-3-50.86A64.42,64.42,0,0,1,124.63,30c5.79-5.51,14-12.1,21.9-14.08A32.25,32.25,0,0,0,149.12,29.49Z"/><path class="cls-4" d="M17.18,61.22V46.69h3.6a3.39,3.39,0,0,1,2.75,1,4.61,4.61,0,0,1,.85,3,3.91,3.91,0,0,1-.92,2.76,3.46,3.46,0,0,1-2.67,1H19.21v6.77Zm2-8.22h.92A2.72,2.72,0,0,0,22,52.53a2.52,2.52,0,0,0,.5-1.82q0-.55,0-.9a3.71,3.71,0,0,0-.12-.68,1.27,1.27,0,0,0-.24-.48,1.16,1.16,0,0,0-.41-.29,1.94,1.94,0,0,0-.63-.17,7,7,0,0,0-.88,0h-.94Z"/><path class="cls-4" d="M25.74,61.22l3.1-14.53h2l3.1,14.53H32l-.67-3.66H28.35l-.69,3.66Zm2.88-5.11H31l-1.22-6.56Z"/><path class="cls-4" d="M40.42,61.37a4.75,4.75,0,0,1-1.59-.24,3,3,0,0,1-1.12-.67,3.42,3.42,0,0,1-.71-1,5.41,5.41,0,0,1-.38-1.32,10.44,10.44,0,0,1-.1-1.55V51.41a10.16,10.16,0,0,1,.11-1.64A5.43,5.43,0,0,1,37,48.43a2.92,2.92,0,0,1,.71-1,3,3,0,0,1,1.11-.63,5.08,5.08,0,0,1,1.59-.23,3.4,3.4,0,0,1,2.81,1.06,5,5,0,0,1,.85,3.12v1.16H42.16v-1c0-.22,0-.39,0-.52s0-.28,0-.47a3.39,3.39,0,0,0,0-.44c0-.1-.06-.23-.09-.37a1.06,1.06,0,0,0-.15-.32,2.35,2.35,0,0,0-.22-.26.79.79,0,0,0-.3-.2,2.87,2.87,0,0,0-1.63-.06,1.2,1.2,0,0,0-.52.29,2,2,0,0,0-.33.43,2.09,2.09,0,0,0-.19.61,6.34,6.34,0,0,0-.08.72c0,.23,0,.52,0,.85v5.75A4.47,4.47,0,0,0,39,59.15a1.59,1.59,0,0,0,1.46.64,2.43,2.43,0,0,0,.7-.09,1,1,0,0,0,.48-.29,1.48,1.48,0,0,0,.3-.42,1.81,1.81,0,0,0,.17-.59c0-.25.06-.48.07-.69s0-.48,0-.82V55.82h1.92V56.9A9.54,9.54,0,0,1,44,58.39a4.87,4.87,0,0,1-.36,1.23,2.88,2.88,0,0,1-.66,1,3,3,0,0,1-1.05.59A4.76,4.76,0,0,1,40.42,61.37Z"/><path class="cls-4" d="M47.54,61.22V46.69h2V61.22Z"/><path class="cls-4" d="M53.3,61.22V46.69h5.61v1.45H55.32V53H58.1v1.45H55.32v6.8Z"/><path class="cls-4" d="M61.82,61.22V46.69h2V61.22Z"/><path class="cls-4" d="M71.21,61.37a4.73,4.73,0,0,1-1.58-.24,3,3,0,0,1-1.12-.67,3.25,3.25,0,0,1-.71-1,5.41,5.41,0,0,1-.38-1.32,10.36,10.36,0,0,1-.11-1.55V51.41a11.44,11.44,0,0,1,.11-1.64,5.91,5.91,0,0,1,.38-1.34,3.2,3.2,0,0,1,.71-1,3.12,3.12,0,0,1,1.12-.63,5,5,0,0,1,1.58-.23A3.41,3.41,0,0,1,74,47.61a5,5,0,0,1,.85,3.12v1.16H73v-1c0-.22,0-.39,0-.52s0-.28,0-.47a2.36,2.36,0,0,0,0-.44c0-.1-.06-.23-.1-.37a.86.86,0,0,0-.14-.32,2.35,2.35,0,0,0-.22-.26,1,1,0,0,0-.3-.2,2.34,2.34,0,0,0-.9-.15,2.73,2.73,0,0,0-.74.09,1.16,1.16,0,0,0-.51.29,1.5,1.5,0,0,0-.33.43,1.83,1.83,0,0,0-.19.61,6.34,6.34,0,0,0-.08.72c0,.23,0,.52,0,.85v5.75a4.47,4.47,0,0,0,.41,2.28,1.59,1.59,0,0,0,1.46.64,2.43,2.43,0,0,0,.7-.09,1.07,1.07,0,0,0,.48-.29,1.71,1.71,0,0,0,.3-.42,1.81,1.81,0,0,0,.17-.59q0-.37.06-.69c0-.21,0-.48,0-.82V55.82h1.92V56.9a9.54,9.54,0,0,1-.11,1.49,4.87,4.87,0,0,1-.36,1.23,2.76,2.76,0,0,1-.67,1,2.8,2.8,0,0,1-1,.59A4.72,4.72,0,0,1,71.21,61.37Z"/><path class="cls-4" d="M17.18,79.21V68.75h1l3,7v-7h1.22V79.21h-.93l-3-7.15v7.15Z"/><path class="cls-4" d="M26.66,79.32a3.42,3.42,0,0,1-1.34-.23,2,2,0,0,1-.88-.69A2.94,2.94,0,0,1,24,77.34a5.86,5.86,0,0,1-.15-1.41V72a4,4,0,0,1,.66-2.48,2.65,2.65,0,0,1,2.19-.84,2.6,2.6,0,0,1,2.19.85A3.89,3.89,0,0,1,29.52,72v4a4.05,4.05,0,0,1-.67,2.51A2.6,2.6,0,0,1,26.66,79.32ZM26,78.05a1.67,1.67,0,0,0,.71.13,1.61,1.61,0,0,0,.71-.13.93.93,0,0,0,.43-.4,1.93,1.93,0,0,0,.2-.6,5.88,5.88,0,0,0,.05-.8V71.67a5.61,5.61,0,0,0-.05-.79,1.81,1.81,0,0,0-.2-.58.86.86,0,0,0-.43-.39,1.78,1.78,0,0,0-.71-.12,1.85,1.85,0,0,0-.71.12.88.88,0,0,0-.42.39,1.81,1.81,0,0,0-.2.58,4.42,4.42,0,0,0,0,.79v4.58a4.61,4.61,0,0,0,0,.8,1.93,1.93,0,0,0,.2.6A1,1,0,0,0,26,78.05Z"/><path class="cls-4" d="M31,79.21V68.75h2.1a3.5,3.5,0,0,1,2.33.65,2.7,2.7,0,0,1,.74,2.12c0,1.35-.43,2.16-1.29,2.44l1.49,5.25H34.93L33.55,74.3H32.42v4.91Zm1.45-5.95H33a2,2,0,0,0,1.36-.38,1.81,1.81,0,0,0,.41-1.36,2,2,0,0,0-.35-1.34,1.78,1.78,0,0,0-1.32-.38h-.65Z"/><path class="cls-4" d="M38.75,79.21V69.83H36.83V68.75H42v1.08H40.2v9.38Z"/><path class="cls-4" d="M42.85,79.21V68.75H44.3v4.52H47V68.75h1.46V79.21H47v-4.9H44.3v4.9Z"/><path class="cls-4" d="M51.44,79.21,49.73,68.75H51l1.12,7.52,1.41-7.49h1l1.42,7.52L57,68.75h1.19L56.54,79.21H55.48L54,71.46l-1.48,7.75Z"/><path class="cls-4" d="M59.51,79.21V68.75h4.05v1.08H61v3.46h2.11v1H61v3.83h2.63v1Z"/><path class="cls-4" d="M67.23,79.32a2.49,2.49,0,0,1-2-.81,3.63,3.63,0,0,1-.77-2.23l1.3-.35c.09,1.5.58,2.25,1.48,2.25a1.1,1.1,0,0,0,.85-.32,1.25,1.25,0,0,0,.3-.91,2.39,2.39,0,0,0-.08-.62A1.74,1.74,0,0,0,68,75.8c-.12-.16-.23-.3-.34-.42s-.26-.26-.46-.44l-1.75-1.56a3.06,3.06,0,0,1-.77-1,3,3,0,0,1-.25-1.3,2.33,2.33,0,0,1,.66-1.77,2.51,2.51,0,0,1,1.8-.65,2.38,2.38,0,0,1,1.88.65,3.34,3.34,0,0,1,.75,2.06l-1.23.34a4.9,4.9,0,0,0-.07-.61,2.6,2.6,0,0,0-.14-.53,1.41,1.41,0,0,0-.25-.44.89.89,0,0,0-.38-.26,1.25,1.25,0,0,0-.56-.08c-.77,0-1.15.44-1.15,1.15a1.65,1.65,0,0,0,.16.77,2.4,2.4,0,0,0,.53.65l1.76,1.56a5.37,5.37,0,0,1,1.1,1.32,3.17,3.17,0,0,1,.4,1.6A2.42,2.42,0,0,1,69,78.65,2.49,2.49,0,0,1,67.23,79.32Z"/><path class="cls-4" d="M72,79.21V69.83H70V68.75h5.21v1.08H73.41v9.38Z"/><path class="cls-4" d="M21.05,100.33a4.67,4.67,0,0,1-1.57-.24,3,3,0,0,1-1.11-.66,3.3,3.3,0,0,1-.71-1,5.24,5.24,0,0,1-.37-1.3,10.22,10.22,0,0,1-.11-1.54V90.46a11.3,11.3,0,0,1,.11-1.63,5.16,5.16,0,0,1,.38-1.32,3,3,0,0,1,.7-1,3,3,0,0,1,1.11-.62,4.68,4.68,0,0,1,1.57-.23,3.4,3.4,0,0,1,2.79,1,4.86,4.86,0,0,1,.84,3.09v1.15h-1.9v-1c0-.22,0-.39,0-.51s0-.28,0-.47a2.24,2.24,0,0,0,0-.43c0-.11-.06-.23-.09-.37a.87.87,0,0,0-.15-.32,2.35,2.35,0,0,0-.22-.26.84.84,0,0,0-.29-.2,2.74,2.74,0,0,0-.39-.1,2.79,2.79,0,0,0-1.23,0,1.26,1.26,0,0,0-.52.29,1.66,1.66,0,0,0-.32.43,1.84,1.84,0,0,0-.19.6,6.34,6.34,0,0,0-.08.72c0,.22,0,.51,0,.84v5.7a4.53,4.53,0,0,0,.4,2.26,1.61,1.61,0,0,0,1.45.63,2.43,2.43,0,0,0,.7-.09,1,1,0,0,0,.47-.28,1.48,1.48,0,0,0,.3-.42,1.82,1.82,0,0,0,.17-.58q0-.37.06-.69c0-.21,0-.48,0-.81V94.83h1.9V95.9a9.18,9.18,0,0,1-.11,1.47,4.79,4.79,0,0,1-.35,1.22,2.74,2.74,0,0,1-.66.94,2.83,2.83,0,0,1-1,.59A4.74,4.74,0,0,1,21.05,100.33Z"/><path class="cls-4" d="M28.65,100.18V85.78h5.58v1.48H30.66V92h2.9v1.44h-2.9v5.28h3.61v1.44Z"/><path class="cls-4" d="M37.94,100.18V85.78H39.3l4.09,9.56V85.78h1.68v14.4H43.78l-4.15-9.84v9.84Z"/><path class="cls-4" d="M50.85,100.18V87.26H48.22V85.78h7.17v1.48H52.86v12.92Z"/><path class="cls-4" d="M58.54,100.18V85.78h5.58v1.48H60.55V92h2.9v1.44h-2.9v5.28h3.61v1.44Z"/><path class="cls-4" d="M67.83,100.18V85.78h2.89a4.83,4.83,0,0,1,3.21.89,3.71,3.71,0,0,1,1,2.92c0,1.85-.59,3-1.78,3.36l2.06,7.23h-2l-1.89-6.76H69.84v6.76Zm2-8.2h.75a2.68,2.68,0,0,0,1.87-.52A2.46,2.46,0,0,0,73,89.59a2.75,2.75,0,0,0-.48-1.84,2.44,2.44,0,0,0-1.82-.53h-.88Z"/><path class="cls-2" d="M27.24,136.88H23.45v10.29H20.4V136.88H16.67v-2.35H27.24Z"/><path class="cls-2" d="M33.51,140.43l-1-.07a1.74,1.74,0,0,0-1.77.86v5.95H27.85v-9.39H30.6l.09,1.2a2.27,2.27,0,0,1,2.06-1.38,2.91,2.91,0,0,1,.82.11Z"/><path class="cls-2" d="M39.6,147.17a3.87,3.87,0,0,1-.28-.84,2.7,2.7,0,0,1-2.25,1,3.32,3.32,0,0,1-2.26-.81,2.53,2.53,0,0,1-.93-2A2.66,2.66,0,0,1,35,142.21a5.74,5.74,0,0,1,3.28-.78h.9v-.49c0-.87-.37-1.3-1.12-1.3a.91.91,0,0,0-1,1H34.1a2.64,2.64,0,0,1,1.16-2.21,4.94,4.94,0,0,1,3-.85,4.29,4.29,0,0,1,2.84.88,3.06,3.06,0,0,1,1.07,2.41v4.16a4.19,4.19,0,0,0,.4,2v.14Zm-1.83-1.91a1.71,1.71,0,0,0,.91-.23,1.42,1.42,0,0,0,.51-.53V143h-.85c-1,0-1.53.45-1.53,1.37a.86.86,0,0,0,.27.65A1,1,0,0,0,37.77,145.26Z"/><path class="cls-2" d="M46.44,137.78l.09,1.1a3.21,3.21,0,0,1,2.69-1.28,2.7,2.7,0,0,1,2.19.88,4.24,4.24,0,0,1,.75,2.64v6H49.22v-5.93a1.58,1.58,0,0,0-.28-1,1.3,1.3,0,0,0-1-.34,1.4,1.4,0,0,0-1.28.68v6.63H43.69v-9.39Z"/><path class="cls-2" d="M58.7,144.53a.68.68,0,0,0-.39-.6,6,6,0,0,0-1.49-.46,7.06,7.06,0,0,1-1.8-.64,3.13,3.13,0,0,1-1.09-1,2.3,2.3,0,0,1-.37-1.3,2.58,2.58,0,0,1,1.07-2.13,4.37,4.37,0,0,1,2.79-.84,4.82,4.82,0,0,1,3,.85,2.63,2.63,0,0,1,1.13,2.21H58.6c0-.75-.39-1.13-1.19-1.13a1.19,1.19,0,0,0-.77.26.78.78,0,0,0-.31.64.73.73,0,0,0,.38.63,3.59,3.59,0,0,0,1.22.4,10.47,10.47,0,0,1,1.47.37,2.67,2.67,0,0,1,2.12,2.62,2.47,2.47,0,0,1-1.14,2.09,5,5,0,0,1-3,.81,5.1,5.1,0,0,1-2.15-.44,3.65,3.65,0,0,1-1.48-1.18,2.7,2.7,0,0,1-.53-1.57H56a1.15,1.15,0,0,0,.43,1,1.8,1.8,0,0,0,1.07.3,1.42,1.42,0,0,0,.9-.24A.79.79,0,0,0,58.7,144.53Z"/><path class="cls-2" d="M66,147.17H63V133.83H66Z"/><path class="cls-2" d="M73.07,147.17a3.45,3.45,0,0,1-.27-.84,2.73,2.73,0,0,1-2.26,1,3.32,3.32,0,0,1-2.26-.81,2.53,2.53,0,0,1-.93-2,2.66,2.66,0,0,1,1.13-2.32,5.76,5.76,0,0,1,3.28-.78h.91v-.49c0-.87-.38-1.3-1.13-1.3a.91.91,0,0,0-1,1H67.58a2.62,2.62,0,0,1,1.16-2.21,4.89,4.89,0,0,1,3-.85,4.29,4.29,0,0,1,2.84.88,3.06,3.06,0,0,1,1.07,2.41v4.16a4.32,4.32,0,0,0,.4,2v.14Zm-1.83-1.91a1.68,1.68,0,0,0,.91-.23,1.54,1.54,0,0,0,.52-.53V143h-.86c-1,0-1.52.45-1.52,1.37a.86.86,0,0,0,.27.65A1,1,0,0,0,71.24,145.26Z"/><path class="cls-2" d="M80.63,135.44v2.34h1.55v2H80.63v4.3a1.1,1.1,0,0,0,.19.74,1,1,0,0,0,.76.2,3.85,3.85,0,0,0,.73-.05v2.1a5.68,5.68,0,0,1-1.65.25,3.1,3.1,0,0,1-2.24-.71,2.94,2.94,0,0,1-.72-2.17v-4.66H76.5v-2h1.2v-2.34Z"/><path class="cls-2" d="M83.3,135.35a1.29,1.29,0,0,1,.46-1,1.91,1.91,0,0,1,2.34,0,1.39,1.39,0,0,1,0,2,1.91,1.91,0,0,1-2.34,0A1.3,1.3,0,0,1,83.3,135.35Zm3.11,11.82H83.48v-9.39h2.93Z"/><path class="cls-2" d="M87.85,142.39a5.64,5.64,0,0,1,.54-2.51A4,4,0,0,1,90,138.19a4.74,4.74,0,0,1,2.4-.59,4.33,4.33,0,0,1,3.33,1.31,5,5,0,0,1,1.21,3.56v.1a4.84,4.84,0,0,1-1.22,3.49,4.88,4.88,0,0,1-6.52.08,4.67,4.67,0,0,1-1.31-3.26Zm2.92.18a3.5,3.5,0,0,0,.41,1.91,1.36,1.36,0,0,0,1.21.61c1,0,1.57-.8,1.6-2.41v-.29c0-1.69-.54-2.53-1.62-2.53s-1.51.73-1.59,2.18Z"/><path class="cls-2" d="M100.89,137.78l.1,1.1a3.18,3.18,0,0,1,2.68-1.28,2.68,2.68,0,0,1,2.19.88,4.11,4.11,0,0,1,.75,2.64v6h-2.93v-5.93a1.57,1.57,0,0,0-.29-1,1.3,1.3,0,0,0-1-.34,1.41,1.41,0,0,0-1.28.68v6.63H98.15v-9.39Z"/><path class="cls-2" d="M113.53,147.17a3,3,0,0,1-.28-.84,2.72,2.72,0,0,1-2.26,1,3.33,3.33,0,0,1-2.26-.81,2.53,2.53,0,0,1-.93-2,2.66,2.66,0,0,1,1.13-2.32,5.79,5.79,0,0,1,3.29-.78h.9v-.49c0-.87-.37-1.3-1.12-1.3a.91.91,0,0,0-1,1H108a2.64,2.64,0,0,1,1.16-2.21,4.92,4.92,0,0,1,3-.85,4.31,4.31,0,0,1,2.84.88,3.09,3.09,0,0,1,1.07,2.41v4.16a4.33,4.33,0,0,0,.39,2v.14Zm-1.83-1.91a1.67,1.67,0,0,0,.9-.23,1.54,1.54,0,0,0,.52-.53V143h-.85c-1,0-1.53.45-1.53,1.37a.86.86,0,0,0,.27.65A1,1,0,0,0,111.7,145.26Z"/><path class="cls-2" d="M120.76,147.17h-2.93V133.83h2.93Z"/><path class="cls-2" d="M25.16,162.48H20.37v3H26v2.35H17.32V155.2h8.73v2.36H20.37v2.66h4.79Z"/><path class="cls-2" d="M29.82,158.45l.1,1.1a3.18,3.18,0,0,1,2.68-1.27,2.71,2.71,0,0,1,2.2.87,4.24,4.24,0,0,1,.75,2.64v6.06H32.61v-5.93a1.53,1.53,0,0,0-.29-1,1.32,1.32,0,0,0-1-.34,1.39,1.39,0,0,0-1.27.68v6.64H27.08v-9.4Z"/><path class="cls-2" d="M40.91,164.37l1.49-5.92h3.08l-3.06,9.4h-3l-3.07-9.4h3.09Z"/><path class="cls-2" d="M46.33,156a1.32,1.32,0,0,1,.45-1,1.77,1.77,0,0,1,1.18-.4,1.73,1.73,0,0,1,1.17.4,1.32,1.32,0,0,1,.45,1,1.3,1.3,0,0,1-.45,1,1.68,1.68,0,0,1-1.17.4,1.72,1.72,0,0,1-1.18-.4A1.3,1.3,0,0,1,46.33,156Zm3.11,11.82H46.51v-9.4h2.93Z"/><path class="cls-2" d="M56.93,161.1,56,161a1.73,1.73,0,0,0-1.77.87v5.95H51.27v-9.4H54l.1,1.21a2.25,2.25,0,0,1,2-1.38,2.83,2.83,0,0,1,.82.1Z"/><path class="cls-2" d="M57.3,163.06a5.44,5.44,0,0,1,.55-2.5,3.84,3.84,0,0,1,1.57-1.69,4.68,4.68,0,0,1,2.41-.59,4.32,4.32,0,0,1,3.32,1.3,5,5,0,0,1,1.22,3.56v.1a4.88,4.88,0,0,1-1.22,3.49A4.34,4.34,0,0,1,61.84,168a4.39,4.39,0,0,1-3.22-1.2,4.69,4.69,0,0,1-1.31-3.26Zm2.93.18a3.47,3.47,0,0,0,.41,1.92,1.35,1.35,0,0,0,1.2.6c1,0,1.58-.8,1.6-2.4v-.3c0-1.68-.54-2.53-1.61-2.53s-1.51.73-1.59,2.18Z"/><path class="cls-2" d="M70.35,158.45l.09,1.1a3.19,3.19,0,0,1,2.69-1.27,2.71,2.71,0,0,1,2.19.87,4.24,4.24,0,0,1,.75,2.64v6.06H73.13v-5.93a1.59,1.59,0,0,0-.28-1,1.34,1.34,0,0,0-1-.34,1.4,1.4,0,0,0-1.28.68v6.64H67.6v-9.4Z"/><path class="cls-2" d="M80.46,158.45l.09,1.1a3.24,3.24,0,0,1,2.69-1.27,2.38,2.38,0,0,1,2.4,1.41,3.14,3.14,0,0,1,2.76-1.41q2.86,0,2.94,3.45v6.12H88.4v-5.93a1.79,1.79,0,0,0-.24-1,1,1,0,0,0-.89-.34,1.37,1.37,0,0,0-1.29.78v6.54H83.05v-5.92a1.89,1.89,0,0,0-.23-1.06,1.05,1.05,0,0,0-.9-.34,1.39,1.39,0,0,0-1.28.78v6.54H77.71v-9.4Z"/><path class="cls-2" d="M97.56,168a4.81,4.81,0,0,1-3.5-1.29,4.43,4.43,0,0,1-1.34-3.36v-.24a5.82,5.82,0,0,1,.53-2.54,3.92,3.92,0,0,1,1.56-1.71,4.73,4.73,0,0,1,2.43-.6,4.07,4.07,0,0,1,3.13,1.23,4.83,4.83,0,0,1,1.15,3.42v1.14H95.7a1.95,1.95,0,0,0,2.06,1.69,2.63,2.63,0,0,0,2.17-1l1.33,1.58a3.66,3.66,0,0,1-1.55,1.2A5.14,5.14,0,0,1,97.56,168Zm-.33-7.49q-1.29,0-1.53,1.71h3V162a1.46,1.46,0,0,0-.36-1.09A1.38,1.38,0,0,0,97.23,160.53Z"/><path class="cls-2" d="M105.38,158.45l.1,1.1a3.17,3.17,0,0,1,2.68-1.27,2.68,2.68,0,0,1,2.19.87,4.11,4.11,0,0,1,.75,2.64v6.06h-2.93v-5.93a1.59,1.59,0,0,0-.29-1,1.34,1.34,0,0,0-1-.34,1.41,1.41,0,0,0-1.28.68v6.64h-2.92v-9.4Z"/><path class="cls-2" d="M116.13,156.11v2.34h1.55v2h-1.55v4.3a1.15,1.15,0,0,0,.19.74,1,1,0,0,0,.76.21,4.91,4.91,0,0,0,.73,0v2.09a5.37,5.37,0,0,1-1.65.25,3.08,3.08,0,0,1-2.23-.71,2.93,2.93,0,0,1-.72-2.16v-4.67H112v-2h1.2v-2.34Z"/><path class="cls-2" d="M124.12,167.85a3.4,3.4,0,0,1-.27-.85,2.73,2.73,0,0,1-2.26,1,3.36,3.36,0,0,1-2.26-.8,2.56,2.56,0,0,1-.93-2,2.63,2.63,0,0,1,1.13-2.31,5.76,5.76,0,0,1,3.28-.78h.9v-.5c0-.87-.37-1.3-1.12-1.3a.91.91,0,0,0-1,1h-2.92a2.61,2.61,0,0,1,1.15-2.21,4.87,4.87,0,0,1,3-.85,4.28,4.28,0,0,1,2.84.87,3.06,3.06,0,0,1,1.07,2.41v4.16a4.19,4.19,0,0,0,.4,2v.15Zm-1.83-1.91a1.6,1.6,0,0,0,.91-.24,1.35,1.35,0,0,0,.51-.53v-1.5h-.85c-1,0-1.53.46-1.53,1.37a.85.85,0,0,0,.27.65A1,1,0,0,0,122.29,165.94Z"/><path class="cls-2" d="M131.36,167.85h-2.94V154.51h2.94Z"/><path class="cls-2" d="M27.89,189h-3v-5.28H20.37V189H17.32V176.31h3.05v5h4.49v-5h3Z"/><path class="cls-2" d="M34.23,189.13a4.81,4.81,0,0,1-3.5-1.29,4.42,4.42,0,0,1-1.34-3.35v-.25a5.82,5.82,0,0,1,.53-2.54A3.92,3.92,0,0,1,31.48,180a4.76,4.76,0,0,1,2.43-.6A4.07,4.07,0,0,1,37,180.62,4.84,4.84,0,0,1,38.19,184v1.14H32.37a1.95,1.95,0,0,0,2.06,1.69,2.63,2.63,0,0,0,2.17-1l1.33,1.58a3.68,3.68,0,0,1-1.55,1.21A5.3,5.3,0,0,1,34.23,189.13Zm-.33-7.48c-.86,0-1.37.56-1.53,1.7h3v-.23A1.46,1.46,0,0,0,35,182,1.41,1.41,0,0,0,33.9,181.65Z"/><path class="cls-2" d="M44.66,189a3,3,0,0,1-.28-.84,2.74,2.74,0,0,1-2.26,1,3.33,3.33,0,0,1-2.26-.8,2.56,2.56,0,0,1-.93-2A2.63,2.63,0,0,1,40.06,184a5.79,5.79,0,0,1,3.29-.78h.9v-.5c0-.87-.37-1.3-1.12-1.3a.91.91,0,0,0-1,1H39.16a2.62,2.62,0,0,1,1.16-2.21,4.85,4.85,0,0,1,3-.85,4.27,4.27,0,0,1,2.84.88,3,3,0,0,1,1.06,2.4v4.16a4.45,4.45,0,0,0,.4,2V189Zm-1.84-1.91a1.6,1.6,0,0,0,.91-.24,1.46,1.46,0,0,0,.52-.53v-1.5H43.4c-1,0-1.53.46-1.53,1.37a.83.83,0,0,0,.27.65A1,1,0,0,0,42.82,187.05Z"/><path class="cls-2" d="M51.89,189H49V175.62h2.93Z"/><path class="cls-2" d="M57.1,177.23v2.33h1.55v2H57.1v4.3a1.14,1.14,0,0,0,.19.74,1,1,0,0,0,.76.21,4.91,4.91,0,0,0,.73-.05v2.09a5.37,5.37,0,0,1-1.65.25,3,3,0,0,1-2.23-.71,2.92,2.92,0,0,1-.72-2.16v-4.67H53v-2h1.2v-2.33Z"/><path class="cls-2" d="M62.66,180.57a3.21,3.21,0,0,1,4.74-.26,4.11,4.11,0,0,1,.81,2.72V189H65.27V183.1A1.66,1.66,0,0,0,65,182a1.28,1.28,0,0,0-1-.35,1.41,1.41,0,0,0-1.28.57V189H59.73V175.62h2.93Z"/><path class="cls-2" d="M79.1,184.49H77.45V189h-3V176.31h5a5.6,5.6,0,0,1,3.52,1,3.4,3.4,0,0,1,1.26,2.82,4.09,4.09,0,0,1-.53,2.19,3.79,3.79,0,0,1-1.67,1.4l2.64,5.11V189H81.33Zm-1.65-2.35h1.93a1.73,1.73,0,0,0,1.31-.46,1.76,1.76,0,0,0,.43-1.27,1.79,1.79,0,0,0-.44-1.29,1.7,1.7,0,0,0-1.3-.46H77.45Z"/><path class="cls-2" d="M90.42,189.13a4.83,4.83,0,0,1-3.5-1.29,4.46,4.46,0,0,1-1.34-3.35v-.25a5.82,5.82,0,0,1,.53-2.54A3.92,3.92,0,0,1,87.67,180a4.76,4.76,0,0,1,2.43-.6,4.07,4.07,0,0,1,3.13,1.23A4.84,4.84,0,0,1,94.38,184v1.14H88.56a1.95,1.95,0,0,0,2.06,1.69,2.63,2.63,0,0,0,2.17-1l1.34,1.58a3.81,3.81,0,0,1-1.55,1.21A5.38,5.38,0,0,1,90.42,189.13Zm-.33-7.48c-.86,0-1.37.56-1.53,1.7h3v-.23a1.49,1.49,0,0,0-.35-1.09A1.46,1.46,0,0,0,90.09,181.65Z"/><path class="cls-2" d="M100.47,186.32a.68.68,0,0,0-.39-.6,5.8,5.8,0,0,0-1.48-.47,6.56,6.56,0,0,1-1.81-.64,2.91,2.91,0,0,1-1.08-1,2.28,2.28,0,0,1-.38-1.29,2.59,2.59,0,0,1,1.07-2.13,4.38,4.38,0,0,1,2.8-.84,4.85,4.85,0,0,1,3,.84,2.62,2.62,0,0,1,1.13,2.22h-2.93c0-.76-.4-1.13-1.19-1.13a1.15,1.15,0,0,0-.77.25.8.8,0,0,0-.32.64.72.72,0,0,0,.39.63,3.32,3.32,0,0,0,1.22.4,11.16,11.16,0,0,1,1.47.38,2.67,2.67,0,0,1,2.12,2.61,2.43,2.43,0,0,1-1.15,2.09,5,5,0,0,1-3,.81A5.11,5.11,0,0,1,97,188.7a3.55,3.55,0,0,1-1.47-1.18A2.65,2.65,0,0,1,95,186h2.73a1.13,1.13,0,0,0,.44,1,1.78,1.78,0,0,0,1.07.3,1.33,1.33,0,0,0,.89-.25A.77.77,0,0,0,100.47,186.32Z"/><path class="cls-2" d="M109.21,189.13a4.83,4.83,0,0,1-3.5-1.29,4.46,4.46,0,0,1-1.34-3.35v-.25a5.68,5.68,0,0,1,.54-2.54,3.81,3.81,0,0,1,1.56-1.71,4.71,4.71,0,0,1,2.43-.6,4,4,0,0,1,3.12,1.23,4.8,4.8,0,0,1,1.15,3.42v1.14h-5.82a2.09,2.09,0,0,0,.69,1.24,2,2,0,0,0,1.37.45,2.62,2.62,0,0,0,2.17-1l1.34,1.58a3.74,3.74,0,0,1-1.55,1.21A5.38,5.38,0,0,1,109.21,189.13Zm-.33-7.48c-.86,0-1.37.56-1.53,1.7h3v-.23a1.3,1.3,0,0,0-1.43-1.47Z"/><path class="cls-2" d="M119.64,189a3.39,3.39,0,0,1-.28-.84,2.72,2.72,0,0,1-2.25,1,3.31,3.31,0,0,1-2.26-.8,2.56,2.56,0,0,1-.93-2,2.61,2.61,0,0,1,1.13-2.31,5.74,5.74,0,0,1,3.28-.78h.9v-.5c0-.87-.37-1.3-1.12-1.3a.91.91,0,0,0-1,1h-2.93a2.62,2.62,0,0,1,1.16-2.21,4.87,4.87,0,0,1,3-.85,4.23,4.23,0,0,1,2.84.88,3,3,0,0,1,1.07,2.4v4.16a4.19,4.19,0,0,0,.4,2V189Zm-1.83-1.91a1.62,1.62,0,0,0,.91-.24,1.35,1.35,0,0,0,.51-.53v-1.5h-.85c-1,0-1.53.46-1.53,1.37a.83.83,0,0,0,.27.65A1,1,0,0,0,117.81,187.05Z"/><path class="cls-2" d="M129.47,182.21l-1-.07a1.73,1.73,0,0,0-1.77.87v6h-2.93v-9.4h2.74l.1,1.21a2.27,2.27,0,0,1,2.06-1.38,2.8,2.8,0,0,1,.81.1Z"/><path class="cls-2" d="M134.34,186.87a1.29,1.29,0,0,0,.95-.33,1.18,1.18,0,0,0,.33-.93h2.75a3.23,3.23,0,0,1-1.11,2.53,4.12,4.12,0,0,1-2.85,1,4.17,4.17,0,0,1-3.23-1.28,5.07,5.07,0,0,1-1.19-3.56v-.13a5.75,5.75,0,0,1,.53-2.51A3.85,3.85,0,0,1,132,180a4.58,4.58,0,0,1,2.35-.58,4.1,4.1,0,0,1,2.91,1,3.62,3.62,0,0,1,1.08,2.76h-2.75a1.63,1.63,0,0,0-.35-1.12,1.24,1.24,0,0,0-1-.39c-.76,0-1.2.48-1.33,1.45a10.24,10.24,0,0,0-.06,1.26,4,4,0,0,0,.34,2A1.18,1.18,0,0,0,134.34,186.87Z"/><path class="cls-2" d="M142.46,180.57a3.22,3.22,0,0,1,4.75-.26A4.16,4.16,0,0,1,148,183V189h-2.93V183.1a1.66,1.66,0,0,0-.3-1.1,1.31,1.31,0,0,0-1-.35,1.42,1.42,0,0,0-1.28.57V189h-2.92V175.62h2.92Z"/><path class="cls-4" d="M42.76,115.75h-1l.07-.37h1.07l1-4.73a14.94,14.94,0,0,1,.53-1.88,5.32,5.32,0,0,1,.65-1.21,2.81,2.81,0,0,1,2.31-1.24,2.34,2.34,0,0,1,.85.15l-.39,1a1.29,1.29,0,0,0-1.1-.61,1,1,0,0,0-.82.4,3.27,3.27,0,0,0-.55,1.3l-1.65,6.83h1.74l-.08.37H43.6l-1.47,6.13a11.3,11.3,0,0,1-.57,1.83,3.93,3.93,0,0,1-.75,1.12,2.51,2.51,0,0,1-1.89.94,2.23,2.23,0,0,1-.88-.17l.53-.78a1.5,1.5,0,0,0,1,.37,1.29,1.29,0,0,0,1.2-.84,12.14,12.14,0,0,0,.61-2.07Z"/><path class="cls-4" d="M45,119.44a4.05,4.05,0,0,1,.53-1.94,4.79,4.79,0,0,1,1.35-1.57,2.86,2.86,0,0,1,1.69-.6,1.92,1.92,0,0,1,1.47.6,2.18,2.18,0,0,1,.55,1.55,4.22,4.22,0,0,1-.51,2,4.55,4.55,0,0,1-1.35,1.59,2.8,2.8,0,0,1-1.69.63,1.9,1.9,0,0,1-1.48-.63A2.34,2.34,0,0,1,45,119.44Zm4.62-2.37a1.74,1.74,0,0,0-.32-1.07,1,1,0,0,0-.81-.42,1.54,1.54,0,0,0-.87.29,2.77,2.77,0,0,0-.76.85,6.53,6.53,0,0,0-.64,1.51,5.56,5.56,0,0,0-.26,1.53,2,2,0,0,0,.32,1.23,1,1,0,0,0,.89.44c.63,0,1.18-.44,1.65-1.31a6.24,6.24,0,0,0,.58-1.5A5.91,5.91,0,0,0,49.58,117.07Z"/><path class="cls-4" d="M51.44,118.45a6.83,6.83,0,0,0,1.24-2.09,1.53,1.53,0,0,1-.88-1.4,1.12,1.12,0,0,1,.21-.7.62.62,0,0,1,.52-.27.6.6,0,0,1,.52.3,1.3,1.3,0,0,1,.21.77,2.77,2.77,0,0,1-.12.75,2.09,2.09,0,0,0,.53.07,1.59,1.59,0,0,0,1.1-.39h.52l-.08.15a21.49,21.49,0,0,0-1.28,2.8,6.86,6.86,0,0,0-.5,2.06.63.63,0,0,0,.13.41.4.4,0,0,0,.31.17c.3,0,.77-.31,1.43-.94l.17.2a7.36,7.36,0,0,1-.94.83,1.78,1.78,0,0,1-1.07.45.81.81,0,0,1-.66-.28,1.15,1.15,0,0,1-.24-.77,4.92,4.92,0,0,1,.62-2c.15-.31.35-.66.59-1s.53-.87.89-1.42l.11-.15a2.36,2.36,0,0,1-.69.46,2,2,0,0,1-.75.14,1.56,1.56,0,0,1-.41-.06,6.63,6.63,0,0,1-1.29,2.18Zm1.47-2.74a2.92,2.92,0,0,0,.05-.45,1.24,1.24,0,0,0-.13-.6.36.36,0,0,0-.32-.21.21.21,0,0,0-.18.1.37.37,0,0,0-.09.25C52.24,115.14,52.47,115.44,52.91,115.71Z"/><line class="cls-5" x1="17.38" y1="116.02" x2="37.54" y2="116.02"/><line class="cls-5" x1="59.32" y1="116.02" x2="79.48" y2="116.02"/></svg>