<svg id="Layer_1" data-name="Layer 1" xmlns="http://www.w3.org/2000/svg" xmlns:xlink="http://www.w3.org/1999/xlink" viewBox="0 0 216 216"><defs><style>.cls-1{fill:url(#linear-gradient);}.cls-2{fill:#fff;}.cls-3{fill:url(#linear-gradient-2);}.cls-4{fill:#a2a2a1;}</style><linearGradient id="linear-gradient" x1="-2575.48" y1="-72.15" x2="-2541" y2="-72.15" gradientTransform="matrix(-0.99, -0.17, -0.17, 0.99, -2340.35, -243.05)" gradientUnits="userSpaceOnUse"><stop offset="0.49" stop-color="#cacccd"/><stop offset="1" stop-color="#808285"/></linearGradient><linearGradient id="linear-gradient-2" x1="-3143.58" y1="-731.61" x2="-3306.17" y2="-516.93" gradientTransform="matrix(-0.88, -0.47, -0.47, 0.88, -2972.51, -817.03)" gradientUnits="userSpaceOnUse"><stop offset="0" stop-color="#fff"/><stop offset="0.8" stop-color="#6d6e71"/></linearGradient></defs><title>TEHR-logo</title><path class="cls-1" d="M181.27,140.55c.39-1.1,2.2-4.87,2.78-5.94.89-1.68,1.76-3.36,2.77-5a41,41,0,0,1,7.38-9,23.51,23.51,0,0,1,4-2.82,40.91,40.91,0,0,1,8.81-3.51c1.63-.48,3.25-1,5-1.5-.15-.08-.19-.12-.23-.12-2.78-.12-5.56.06-8.34.18a34.11,34.11,0,0,0-20.11,8c-1.26,1-2.5,2-3.67,3.15-.91.86-1.76,2.42-3.17,1.66a5.54,5.54,0,0,0-1.58-.82,10,10,0,0,0,.77,3.38c1.48,4,2.6,10.36,4.85,13.94a.3.3,0,0,0,.21.17c.15,0,.21-.19.22-.33A5.76,5.76,0,0,1,181.27,140.55Z"/><path class="cls-2" d="M175.61,98.24a8.64,8.64,0,1,1,.59,12.27A8.63,8.63,0,0,1,175.61,98.24Z"/><path class="cls-3" d="M153.25,29.49a39.45,39.45,0,0,0,8.57,11.6c6.77,6.75,14.88,12.25,20.35,20.08a39.29,39.29,0,0,1,5.48,32.9,48.54,48.54,0,0,0-13-35.67c-9.77-10.38-24.4-16.77-30.1-29.84-7.13,3.79-11.65,6.48-18.39,15.6-9.13,12.35-11.33,26-6.48,44.36,5.29,20,39.35,43.69,53.35,69.17,3.57-17.1-3.82-34.88-14.71-48.54-4.77-6-10.24-11.45-14.4-17.88s-7-14.16-5.65-21.7c.62,8.46,6,15.85,12.06,21.77s13.07,10.92,18.47,17.47c9,10.88,13.46,25.41,13,39.51s-5.47,27.84-11.49,40.59c2-10.8-.77-22.11-6-31.77s-12.8-17.87-20.79-25.42c-10-9.4-19.94-17.89-26.64-29.83-8.56-15.23-9.93-34.81-3-50.86A64.42,64.42,0,0,1,128.76,30c5.79-5.51,14-12.1,21.9-14.08A32.25,32.25,0,0,0,153.25,29.49Z"/><path class="cls-4" d="M21.31,61.22V46.69h3.61a3.38,3.38,0,0,1,2.74,1,4.61,4.61,0,0,1,.85,3,3.91,3.91,0,0,1-.92,2.76,3.46,3.46,0,0,1-2.67,1H23.34v6.77Zm2-8.22h.92a2.7,2.7,0,0,0,1.83-.47,2.52,2.52,0,0,0,.5-1.82q0-.55,0-.9a2.55,2.55,0,0,0-.12-.68,1.27,1.27,0,0,0-.24-.48,1.08,1.08,0,0,0-.41-.29,2,2,0,0,0-.62-.17,7.1,7.1,0,0,0-.88,0h-.95Z"/><path class="cls-4" d="M29.87,61.22,33,46.69h2L38,61.22H36.1l-.66-3.66h-3l-.69,3.66Zm2.88-5.11h2.42L34,49.55Z"/><path class="cls-4" d="M44.55,61.37A4.79,4.79,0,0,1,43,61.13a3.1,3.1,0,0,1-1.12-.67,3.42,3.42,0,0,1-.71-1,5.41,5.41,0,0,1-.38-1.32,10.44,10.44,0,0,1-.1-1.55V51.41a10.16,10.16,0,0,1,.11-1.64,5.43,5.43,0,0,1,.38-1.34,3.05,3.05,0,0,1,.71-1A3,3,0,0,1,43,46.78a5,5,0,0,1,1.58-.23,3.39,3.39,0,0,1,2.81,1.06,4.9,4.9,0,0,1,.85,3.12v1.16H46.29V50.34c0-.13,0-.28,0-.47a3.39,3.39,0,0,0-.05-.44c0-.1,0-.23-.09-.37a1.06,1.06,0,0,0-.15-.32,1.6,1.6,0,0,0-.22-.26.84.84,0,0,0-.29-.2,2.83,2.83,0,0,0-.4-.11,3.11,3.11,0,0,0-1.24,0,1.26,1.26,0,0,0-.52.29,2,2,0,0,0-.33.43,2.45,2.45,0,0,0-.19.61c0,.25-.06.49-.08.72s0,.52,0,.85v5.75a4.58,4.58,0,0,0,.41,2.28,1.6,1.6,0,0,0,1.46.64,2.38,2.38,0,0,0,.7-.09,1,1,0,0,0,.48-.29A1.48,1.48,0,0,0,46,59a1.6,1.6,0,0,0,.17-.59,6.2,6.2,0,0,0,.07-.69c0-.21,0-.48,0-.82V55.82h1.92V56.9a9.54,9.54,0,0,1-.11,1.49,4.87,4.87,0,0,1-.36,1.23,2.74,2.74,0,0,1-.66,1,3,3,0,0,1-1,.59A4.76,4.76,0,0,1,44.55,61.37Z"/><path class="cls-4" d="M51.67,61.22V46.69h2V61.22Z"/><path class="cls-4" d="M57.43,61.22V46.69H63v1.45H59.46V53h2.77v1.45H59.46v6.8Z"/><path class="cls-4" d="M66,61.22V46.69h2V61.22Z"/><path class="cls-4" d="M75.34,61.37a4.73,4.73,0,0,1-1.58-.24,3,3,0,0,1-1.12-.67,3.42,3.42,0,0,1-.71-1,5.41,5.41,0,0,1-.38-1.32,10.44,10.44,0,0,1-.1-1.55V51.41a10.16,10.16,0,0,1,.11-1.64,5.43,5.43,0,0,1,.38-1.34,2.92,2.92,0,0,1,.71-1,3,3,0,0,1,1.11-.63,5.06,5.06,0,0,1,1.58-.23,3.41,3.41,0,0,1,2.82,1.06A5,5,0,0,1,79,50.73v1.16H77.09v-1c0-.22,0-.39,0-.52s0-.28,0-.47a3.39,3.39,0,0,0,0-.44c0-.1-.06-.23-.09-.37a1.06,1.06,0,0,0-.15-.32,2.35,2.35,0,0,0-.22-.26.88.88,0,0,0-.3-.2,2.87,2.87,0,0,0-1.63-.06,1.2,1.2,0,0,0-.52.29,1.7,1.7,0,0,0-.33.43,2.09,2.09,0,0,0-.19.61,6.34,6.34,0,0,0-.08.72c0,.23,0,.52,0,.85v5.75a4.47,4.47,0,0,0,.41,2.28,1.59,1.59,0,0,0,1.46.64,2.43,2.43,0,0,0,.7-.09,1,1,0,0,0,.48-.29,1.48,1.48,0,0,0,.3-.42A1.81,1.81,0,0,0,77,58.4c0-.25.06-.48.07-.69s0-.48,0-.82V55.82H79V56.9a9.54,9.54,0,0,1-.11,1.49,4.87,4.87,0,0,1-.36,1.23,2.88,2.88,0,0,1-.66,1,3,3,0,0,1-1,.59A4.78,4.78,0,0,1,75.34,61.37Z"/><path class="cls-4" d="M21.31,79.21V68.75h1l3,7v-7h1.21V79.21h-.93l-3-7.15v7.15Z"/><path class="cls-4" d="M30.8,79.32a3.39,3.39,0,0,1-1.34-.23,1.92,1.92,0,0,1-.89-.69,2.94,2.94,0,0,1-.48-1.06,5.86,5.86,0,0,1-.15-1.41V72a4,4,0,0,1,.66-2.48,2.66,2.66,0,0,1,2.2-.84A2.62,2.62,0,0,1,33,69.5,4,4,0,0,1,33.65,72v4A4.05,4.05,0,0,1,33,78.45,2.58,2.58,0,0,1,30.8,79.32Zm-.71-1.27a1.61,1.61,0,0,0,.71.13,1.67,1.67,0,0,0,.71-.13.91.91,0,0,0,.42-.4,1.93,1.93,0,0,0,.2-.6,4.61,4.61,0,0,0,0-.8V71.67a4.42,4.42,0,0,0,0-.79,1.81,1.81,0,0,0-.2-.58.84.84,0,0,0-.42-.39,1.85,1.85,0,0,0-.71-.12,1.78,1.78,0,0,0-.71.12.86.86,0,0,0-.43.39,1.81,1.81,0,0,0-.2.58,5.61,5.61,0,0,0-.05.79v4.58a5.88,5.88,0,0,0,.05.8,1.93,1.93,0,0,0,.2.6A.93.93,0,0,0,30.09,78.05Z"/><path class="cls-4" d="M35.1,79.21V68.75h2.1a3.49,3.49,0,0,1,2.33.65,2.7,2.7,0,0,1,.74,2.12c0,1.35-.43,2.16-1.29,2.44l1.49,5.25H39.06L37.69,74.3H36.56v4.91Zm1.46-5.95h.54a2,2,0,0,0,1.36-.38,1.77,1.77,0,0,0,.41-1.36,2,2,0,0,0-.35-1.34,1.78,1.78,0,0,0-1.32-.38h-.64Z"/><path class="cls-4" d="M42.88,79.21V69.83H41V68.75h5.21v1.08H44.33v9.38Z"/><path class="cls-4" d="M47,79.21V68.75h1.46v4.52h2.68V68.75h1.46V79.21H51.12v-4.9H48.44v4.9Z"/><path class="cls-4" d="M55.57,79.21,53.86,68.75h1.22l1.12,7.52,1.41-7.49h1l1.42,7.52,1.09-7.55h1.19L60.67,79.21H59.61l-1.45-7.75-1.48,7.75Z"/><path class="cls-4" d="M63.64,79.21V68.75h4v1.08H65.1v3.46h2.1v1H65.1v3.83h2.62v1Z"/><path class="cls-4" d="M71.36,79.32a2.49,2.49,0,0,1-2-.81,3.63,3.63,0,0,1-.77-2.23l1.3-.35c.09,1.5.59,2.25,1.48,2.25a1.12,1.12,0,0,0,.86-.32,1.29,1.29,0,0,0,.29-.91,2.39,2.39,0,0,0-.08-.62,1.74,1.74,0,0,0-.26-.53c-.12-.16-.23-.3-.34-.42s-.26-.26-.46-.44l-1.75-1.56a3.2,3.2,0,0,1-.77-1,3,3,0,0,1-.25-1.3,2.33,2.33,0,0,1,.66-1.77,2.51,2.51,0,0,1,1.8-.65,2.38,2.38,0,0,1,1.88.65,3.4,3.4,0,0,1,.76,2.06l-1.24.34c0-.23,0-.43-.06-.61a2.63,2.63,0,0,0-.15-.53,1.41,1.41,0,0,0-.25-.44.89.89,0,0,0-.38-.26,1.25,1.25,0,0,0-.56-.08c-.77,0-1.15.44-1.15,1.15a1.65,1.65,0,0,0,.16.77,2.4,2.4,0,0,0,.53.65l1.76,1.56a5.37,5.37,0,0,1,1.1,1.32,3.17,3.17,0,0,1,.41,1.6,2.43,2.43,0,0,1-.7,1.82A2.47,2.47,0,0,1,71.36,79.32Z"/><path class="cls-4" d="M76.09,79.21V69.83H74.17V68.75h5.21v1.08H77.54v9.38Z"/><path class="cls-4" d="M25.18,100.33a4.67,4.67,0,0,1-1.57-.24,3,3,0,0,1-1.11-.66,3.12,3.12,0,0,1-.7-1,4.86,4.86,0,0,1-.38-1.3,10.22,10.22,0,0,1-.11-1.54V90.46a11.3,11.3,0,0,1,.11-1.63,5.6,5.6,0,0,1,.38-1.32,3.18,3.18,0,0,1,.7-1,3,3,0,0,1,1.11-.62,4.68,4.68,0,0,1,1.57-.23,3.37,3.37,0,0,1,2.79,1,4.86,4.86,0,0,1,.84,3.09v1.15h-1.9v-1c0-.22,0-.39,0-.51s0-.28,0-.47a3.2,3.2,0,0,0-.05-.43c0-.11-.06-.23-.09-.37a.87.87,0,0,0-.15-.32,2.18,2.18,0,0,0-.21-.26,1,1,0,0,0-.3-.2,2.74,2.74,0,0,0-.39-.1,2.57,2.57,0,0,0-.5,0,2.65,2.65,0,0,0-.73.09,1.26,1.26,0,0,0-.52.29,1.66,1.66,0,0,0-.32.43,2.12,2.12,0,0,0-.19.6,6.34,6.34,0,0,0-.08.72c0,.22,0,.51,0,.84v5.7a4.4,4.4,0,0,0,.41,2.26,1.59,1.59,0,0,0,1.45.63,2.4,2.4,0,0,0,.69-.09,1,1,0,0,0,.47-.28,1.48,1.48,0,0,0,.3-.42,1.82,1.82,0,0,0,.17-.58,6,6,0,0,0,.06-.69c0-.21,0-.48,0-.81V94.83h1.9V95.9a10.62,10.62,0,0,1-.1,1.47,4.8,4.8,0,0,1-.36,1.22,2.74,2.74,0,0,1-.66.94,2.83,2.83,0,0,1-1,.59A4.7,4.7,0,0,1,25.18,100.33Z"/><path class="cls-4" d="M32.78,100.18V85.78h5.58v1.48H34.79V92h2.9v1.44h-2.9v5.28H38.4v1.44Z"/><path class="cls-4" d="M42.07,100.18V85.78h1.37l4.09,9.56V85.78H49.2v14.4H47.92l-4.15-9.84v9.84Z"/><path class="cls-4" d="M55,100.18V87.26H52.35V85.78h7.17v1.48H57v12.92Z"/><path class="cls-4" d="M62.67,100.18V85.78h5.58v1.48H64.68V92h2.9v1.44h-2.9v5.28h3.61v1.44Z"/><path class="cls-4" d="M72,100.18V85.78h2.89a4.83,4.83,0,0,1,3.21.89,3.71,3.71,0,0,1,1,2.92c0,1.85-.59,3-1.78,3.36l2.06,7.23h-2l-1.89-6.76H74v6.76ZM74,92h.75a2.68,2.68,0,0,0,1.87-.52,2.46,2.46,0,0,0,.56-1.87,2.75,2.75,0,0,0-.48-1.84,2.44,2.44,0,0,0-1.82-.53H74Z"/><path class="cls-2" d="M31.38,136.88h-3.8v10.29h-3V136.88H20.81v-2.35H31.38Z"/><path class="cls-2" d="M37.65,140.43l-1-.07a1.74,1.74,0,0,0-1.77.86v5.95H32v-9.39h2.75l.09,1.2a2.28,2.28,0,0,1,2.06-1.38,2.86,2.86,0,0,1,.82.11Z"/><path class="cls-2" d="M43.73,147.17a3.45,3.45,0,0,1-.27-.84,2.73,2.73,0,0,1-2.26,1,3.32,3.32,0,0,1-2.26-.81,2.53,2.53,0,0,1-.93-2,2.66,2.66,0,0,1,1.13-2.32,5.76,5.76,0,0,1,3.28-.78h.91v-.49c0-.87-.38-1.3-1.12-1.3a.92.92,0,0,0-1.05,1H38.24a2.62,2.62,0,0,1,1.16-2.21,4.89,4.89,0,0,1,3-.85,4.29,4.29,0,0,1,2.84.88,3.06,3.06,0,0,1,1.07,2.41v4.16a4.32,4.32,0,0,0,.4,2v.14Zm-1.83-1.91a1.68,1.68,0,0,0,.91-.23,1.54,1.54,0,0,0,.52-.53V143h-.86c-1,0-1.52.45-1.52,1.37a.86.86,0,0,0,.27.65A1,1,0,0,0,41.9,145.26Z"/><path class="cls-2" d="M50.57,137.78l.09,1.1a3.21,3.21,0,0,1,2.69-1.28,2.68,2.68,0,0,1,2.19.88,4.24,4.24,0,0,1,.75,2.64v6H53.36v-5.93a1.57,1.57,0,0,0-.29-1,1.3,1.3,0,0,0-1-.34,1.4,1.4,0,0,0-1.28.68v6.63H47.82v-9.39Z"/><path class="cls-2" d="M62.83,144.53a.68.68,0,0,0-.39-.6,5.89,5.89,0,0,0-1.48-.46,7.14,7.14,0,0,1-1.81-.64,3.13,3.13,0,0,1-1.09-1,2.3,2.3,0,0,1-.37-1.3,2.61,2.61,0,0,1,1.07-2.13,4.37,4.37,0,0,1,2.79-.84,4.82,4.82,0,0,1,3,.85,2.6,2.6,0,0,1,1.13,2.21H62.74c0-.75-.4-1.13-1.19-1.13a1.2,1.2,0,0,0-.78.26.81.81,0,0,0-.31.64.73.73,0,0,0,.38.63,3.59,3.59,0,0,0,1.22.4,11,11,0,0,1,1.48.37,2.67,2.67,0,0,1,2.11,2.62,2.47,2.47,0,0,1-1.14,2.09,5,5,0,0,1-3,.81,5.1,5.1,0,0,1-2.15-.44,3.55,3.55,0,0,1-1.47-1.18,2.63,2.63,0,0,1-.53-1.57h2.73a1.13,1.13,0,0,0,.44,1,1.75,1.75,0,0,0,1.06.3,1.42,1.42,0,0,0,.9-.24A.79.79,0,0,0,62.83,144.53Z"/><path class="cls-2" d="M70.11,147.17H67.17V133.83h2.94Z"/><path class="cls-2" d="M77.21,147.17a3,3,0,0,1-.28-.84,2.72,2.72,0,0,1-2.26,1,3.32,3.32,0,0,1-2.26-.81,2.53,2.53,0,0,1-.93-2,2.66,2.66,0,0,1,1.13-2.32,5.76,5.76,0,0,1,3.28-.78h.91v-.49c0-.87-.38-1.3-1.12-1.3a.92.92,0,0,0-1.05,1H71.71a2.62,2.62,0,0,1,1.16-2.21,4.91,4.91,0,0,1,2.95-.85,4.29,4.29,0,0,1,2.84.88,3,3,0,0,1,1.07,2.41v4.16a4.32,4.32,0,0,0,.4,2v.14Zm-1.84-1.91a1.68,1.68,0,0,0,.91-.23,1.54,1.54,0,0,0,.52-.53V143H76c-1,0-1.53.45-1.53,1.37a.86.86,0,0,0,.27.65A1,1,0,0,0,75.37,145.26Z"/><path class="cls-2" d="M84.76,135.44v2.34h1.55v2H84.76v4.3a1.1,1.1,0,0,0,.19.74,1,1,0,0,0,.76.2,3.85,3.85,0,0,0,.73-.05v2.1a5.68,5.68,0,0,1-1.65.25,3.12,3.12,0,0,1-2.24-.71,2.94,2.94,0,0,1-.72-2.17v-4.66H80.64v-2h1.19v-2.34Z"/><path class="cls-2" d="M87.44,135.35a1.31,1.31,0,0,1,.45-1,1.91,1.91,0,0,1,2.34,0,1.39,1.39,0,0,1,0,2,1.91,1.91,0,0,1-2.34,0A1.32,1.32,0,0,1,87.44,135.35Zm3.11,11.82H87.61v-9.39h2.94Z"/><path class="cls-2" d="M92,142.39a5.51,5.51,0,0,1,.55-2.51,3.89,3.89,0,0,1,1.57-1.69,4.74,4.74,0,0,1,2.4-.59,4.33,4.33,0,0,1,3.33,1.31,5,5,0,0,1,1.22,3.56v.1a4.84,4.84,0,0,1-1.23,3.49,4.88,4.88,0,0,1-6.52.08A4.67,4.67,0,0,1,92,142.88Zm2.93.18a3.51,3.51,0,0,0,.4,1.91,1.37,1.37,0,0,0,1.21.61c1,0,1.57-.8,1.6-2.41v-.29c0-1.69-.54-2.53-1.62-2.53s-1.51.73-1.59,2.18Z"/><path class="cls-2" d="M105,137.78l.1,1.1a3.19,3.19,0,0,1,2.68-1.28,2.68,2.68,0,0,1,2.19.88,4.17,4.17,0,0,1,.76,2.64v6h-2.94v-5.93a1.52,1.52,0,0,0-.29-1,1.29,1.29,0,0,0-1-.34,1.41,1.41,0,0,0-1.28.68v6.63h-2.92v-9.39Z"/><path class="cls-2" d="M117.66,147.17a3,3,0,0,1-.28-.84,2.72,2.72,0,0,1-2.26,1,3.29,3.29,0,0,1-2.25-.81,2.53,2.53,0,0,1-.93-2,2.64,2.64,0,0,1,1.13-2.32,5.74,5.74,0,0,1,3.28-.78h.9v-.49c0-.87-.37-1.3-1.12-1.3a.91.91,0,0,0-1,1h-2.93a2.64,2.64,0,0,1,1.16-2.21,4.92,4.92,0,0,1,3-.85,4.31,4.31,0,0,1,2.84.88,3.09,3.09,0,0,1,1.07,2.41v4.16a4.19,4.19,0,0,0,.4,2v.14Zm-1.83-1.91a1.67,1.67,0,0,0,.9-.23,1.45,1.45,0,0,0,.52-.53V143h-.85c-1,0-1.53.45-1.53,1.37a.86.86,0,0,0,.27.65A1,1,0,0,0,115.83,145.26Z"/><path class="cls-2" d="M124.89,147.17H122V133.83h2.93Z"/><path class="cls-2" d="M29.29,162.48H24.5v3h5.66v2.35H21.45V155.2h8.73v2.36H24.5v2.66h4.79Z"/><path class="cls-2" d="M34,158.45l.1,1.1a3.18,3.18,0,0,1,2.68-1.27,2.71,2.71,0,0,1,2.2.87,4.24,4.24,0,0,1,.75,2.64v6.06H36.74v-5.93a1.59,1.59,0,0,0-.28-1,1.36,1.36,0,0,0-1.05-.34,1.39,1.39,0,0,0-1.27.68v6.64H31.21v-9.4Z"/><path class="cls-2" d="M45.05,164.37l1.48-5.92h3.08l-3.06,9.4h-3l-3.07-9.4h3.1Z"/><path class="cls-2" d="M50.46,156a1.33,1.33,0,0,1,.46-1,1.91,1.91,0,0,1,2.34,0,1.32,1.32,0,0,1,.45,1,1.3,1.3,0,0,1-.45,1,1.91,1.91,0,0,1-2.34,0A1.31,1.31,0,0,1,50.46,156Zm3.11,11.82H50.64v-9.4h2.93Z"/><path class="cls-2" d="M61.06,161.1l-1-.07a1.75,1.75,0,0,0-1.78.87v5.95H55.4v-9.4h2.74l.1,1.21a2.27,2.27,0,0,1,2.06-1.38,2.8,2.8,0,0,1,.81.1Z"/><path class="cls-2" d="M61.43,163.06a5.57,5.57,0,0,1,.55-2.5,3.9,3.9,0,0,1,1.57-1.69,4.71,4.71,0,0,1,2.41-.59,4.3,4.3,0,0,1,3.32,1.3,5,5,0,0,1,1.22,3.56v.1a4.88,4.88,0,0,1-1.22,3.49A4.32,4.32,0,0,1,66,168a4.4,4.4,0,0,1-3.23-1.2,4.73,4.73,0,0,1-1.31-3.26Zm2.93.18a3.56,3.56,0,0,0,.41,1.92,1.36,1.36,0,0,0,1.21.6q1.56,0,1.59-2.4v-.3c0-1.68-.53-2.53-1.61-2.53s-1.51.73-1.59,2.18Z"/><path class="cls-2" d="M74.48,158.45l.09,1.1a3.2,3.2,0,0,1,2.69-1.27,2.68,2.68,0,0,1,2.19.87,4.24,4.24,0,0,1,.75,2.64v6.06H77.27v-5.93a1.59,1.59,0,0,0-.29-1,1.34,1.34,0,0,0-1-.34,1.4,1.4,0,0,0-1.28.68v6.64H71.73v-9.4Z"/><path class="cls-2" d="M84.59,158.45l.09,1.1a3.24,3.24,0,0,1,2.69-1.27,2.37,2.37,0,0,1,2.4,1.41,3.14,3.14,0,0,1,2.76-1.41q2.86,0,2.94,3.45v6.12H92.53v-5.93a1.79,1.79,0,0,0-.24-1,1,1,0,0,0-.88-.34,1.39,1.39,0,0,0-1.3.78v6.54H87.18v-5.92a1.81,1.81,0,0,0-.23-1.06,1,1,0,0,0-.89-.34,1.4,1.4,0,0,0-1.29.78v6.54H81.84v-9.4Z"/><path class="cls-2" d="M101.69,168a4.83,4.83,0,0,1-3.5-1.29,4.47,4.47,0,0,1-1.34-3.36v-.24a5.82,5.82,0,0,1,.53-2.54,3.92,3.92,0,0,1,1.56-1.71,4.77,4.77,0,0,1,2.44-.6,4,4,0,0,1,3.12,1.23,4.78,4.78,0,0,1,1.15,3.42v1.14H99.83a2,2,0,0,0,2.06,1.69,2.63,2.63,0,0,0,2.17-1l1.34,1.58a3.79,3.79,0,0,1-1.55,1.2A5.22,5.22,0,0,1,101.69,168Zm-.33-7.49q-1.29,0-1.53,1.71h3V162a1.45,1.45,0,0,0-.35-1.09A1.42,1.42,0,0,0,101.36,160.53Z"/><path class="cls-2" d="M109.51,158.45l.1,1.1a3.18,3.18,0,0,1,2.68-1.27,2.71,2.71,0,0,1,2.2.87,4.24,4.24,0,0,1,.75,2.64v6.06H112.3v-5.93a1.53,1.53,0,0,0-.29-1,1.32,1.32,0,0,0-1-.34,1.39,1.39,0,0,0-1.27.68v6.64h-2.93v-9.4Z"/><path class="cls-2" d="M120.26,156.11v2.34h1.55v2h-1.55v4.3a1.09,1.09,0,0,0,.2.74,1,1,0,0,0,.75.21,4.91,4.91,0,0,0,.73,0v2.09a5.37,5.37,0,0,1-1.65.25,3.08,3.08,0,0,1-2.23-.71,2.93,2.93,0,0,1-.72-2.16v-4.67h-1.2v-2h1.2v-2.34Z"/><path class="cls-2" d="M128.25,167.85A3.4,3.4,0,0,1,128,167a2.72,2.72,0,0,1-2.26,1,3.36,3.36,0,0,1-2.26-.8,2.56,2.56,0,0,1-.93-2,2.63,2.63,0,0,1,1.13-2.31,5.76,5.76,0,0,1,3.28-.78h.91v-.5c0-.87-.38-1.3-1.12-1.3a.92.92,0,0,0-1,1h-2.92a2.59,2.59,0,0,1,1.16-2.21,4.84,4.84,0,0,1,3-.85,4.28,4.28,0,0,1,2.84.87,3.06,3.06,0,0,1,1.07,2.41v4.16a4.32,4.32,0,0,0,.4,2v.15Zm-1.83-1.91a1.6,1.6,0,0,0,.91-.24,1.46,1.46,0,0,0,.52-.53v-1.5H127c-1,0-1.53.46-1.53,1.37a.85.85,0,0,0,.27.65A1,1,0,0,0,126.42,165.94Z"/><path class="cls-2" d="M135.49,167.85h-2.94V154.51h2.94Z"/><path class="cls-2" d="M32,189H29v-5.28H24.5V189H21.45V176.31H24.5v5H29v-5h3Z"/><path class="cls-2" d="M38.36,189.13a4.83,4.83,0,0,1-3.5-1.29,4.46,4.46,0,0,1-1.34-3.35v-.25a5.82,5.82,0,0,1,.53-2.54A3.92,3.92,0,0,1,35.61,180a4.77,4.77,0,0,1,2.44-.6,4,4,0,0,1,3.12,1.23A4.8,4.8,0,0,1,42.32,184v1.14H36.5a2,2,0,0,0,2.06,1.69,2.63,2.63,0,0,0,2.17-1l1.34,1.58a3.74,3.74,0,0,1-1.55,1.21A5.38,5.38,0,0,1,38.36,189.13ZM38,181.65c-.86,0-1.37.56-1.53,1.7h3v-.23A1.29,1.29,0,0,0,38,181.65Z"/><path class="cls-2" d="M48.79,189a3,3,0,0,1-.28-.84,2.74,2.74,0,0,1-2.26,1,3.33,3.33,0,0,1-2.26-.8,2.59,2.59,0,0,1-.92-2A2.62,2.62,0,0,1,44.19,184a5.79,5.79,0,0,1,3.29-.78h.9v-.5c0-.87-.37-1.3-1.12-1.3a.91.91,0,0,0-1,1H43.29a2.62,2.62,0,0,1,1.16-2.21,4.85,4.85,0,0,1,3-.85,4.25,4.25,0,0,1,2.84.88,3.05,3.05,0,0,1,1.07,2.4v4.16a4.19,4.19,0,0,0,.4,2V189ZM47,187.05a1.59,1.59,0,0,0,.9-.24,1.38,1.38,0,0,0,.52-.53v-1.5h-.85c-1,0-1.53.46-1.53,1.37a.83.83,0,0,0,.27.65A1,1,0,0,0,47,187.05Z"/><path class="cls-2" d="M56,189H53.09V175.62H56Z"/><path class="cls-2" d="M61.23,177.23v2.33h1.55v2H61.23v4.3a1.14,1.14,0,0,0,.19.74,1,1,0,0,0,.76.21,4.91,4.91,0,0,0,.73-.05v2.09a5.37,5.37,0,0,1-1.65.25,3,3,0,0,1-2.23-.71,2.92,2.92,0,0,1-.72-2.16v-4.67h-1.2v-2h1.2v-2.33Z"/><path class="cls-2" d="M66.79,180.57a3.21,3.21,0,0,1,4.74-.26,4.11,4.11,0,0,1,.81,2.72V189H69.41V183.1a1.66,1.66,0,0,0-.31-1.1,1.28,1.28,0,0,0-1-.35,1.42,1.42,0,0,0-1.28.57V189H63.86V175.62h2.93Z"/><path class="cls-2" d="M83.23,184.49H81.58V189h-3V176.31h5a5.6,5.6,0,0,1,3.52,1,3.41,3.41,0,0,1,1.27,2.82,4.09,4.09,0,0,1-.54,2.19,3.73,3.73,0,0,1-1.67,1.4l2.64,5.11V189H85.46Zm-1.65-2.35h1.93a1.71,1.71,0,0,0,1.31-.46,1.77,1.77,0,0,0,.44-1.27,1.79,1.79,0,0,0-.45-1.29,1.7,1.7,0,0,0-1.3-.46H81.58Z"/><path class="cls-2" d="M94.55,189.13a4.83,4.83,0,0,1-3.5-1.29,4.46,4.46,0,0,1-1.34-3.35v-.25a5.68,5.68,0,0,1,.54-2.54A3.84,3.84,0,0,1,91.8,180a4.77,4.77,0,0,1,2.44-.6,4,4,0,0,1,3.12,1.23A4.8,4.8,0,0,1,98.51,184v1.14H92.69a2,2,0,0,0,2.06,1.69,2.63,2.63,0,0,0,2.17-1l1.34,1.58a3.74,3.74,0,0,1-1.55,1.21A5.38,5.38,0,0,1,94.55,189.13Zm-.33-7.48c-.86,0-1.37.56-1.53,1.7h3v-.23a1.29,1.29,0,0,0-1.42-1.47Z"/><path class="cls-2" d="M104.61,186.32a.67.67,0,0,0-.4-.6,5.8,5.8,0,0,0-1.48-.47,6.56,6.56,0,0,1-1.81-.64,3,3,0,0,1-1.08-1,2.28,2.28,0,0,1-.38-1.29,2.59,2.59,0,0,1,1.07-2.13,4.4,4.4,0,0,1,2.8-.84,4.91,4.91,0,0,1,3,.84,2.64,2.64,0,0,1,1.13,2.22h-2.94c0-.76-.4-1.13-1.19-1.13a1.17,1.17,0,0,0-.77.25.8.8,0,0,0-.32.64.72.72,0,0,0,.39.63,3.32,3.32,0,0,0,1.22.4,10.39,10.39,0,0,1,1.47.38,2.67,2.67,0,0,1,2.12,2.61,2.44,2.44,0,0,1-1.14,2.09,5.72,5.72,0,0,1-5.11.38,3.52,3.52,0,0,1-1.48-1.18,2.72,2.72,0,0,1-.53-1.57h2.73a1.16,1.16,0,0,0,.44,1,1.78,1.78,0,0,0,1.07.3,1.36,1.36,0,0,0,.9-.25A.77.77,0,0,0,104.61,186.32Z"/><path class="cls-2" d="M113.34,189.13a4.83,4.83,0,0,1-3.5-1.29,4.45,4.45,0,0,1-1.33-3.35v-.25a5.68,5.68,0,0,1,.53-2.54A3.86,3.86,0,0,1,110.6,180a4.71,4.71,0,0,1,2.43-.6,4.08,4.08,0,0,1,3.13,1.23A4.84,4.84,0,0,1,117.3,184v1.14h-5.82a2.14,2.14,0,0,0,.69,1.24,2,2,0,0,0,1.37.45,2.62,2.62,0,0,0,2.17-1l1.34,1.58a3.68,3.68,0,0,1-1.55,1.21A5.38,5.38,0,0,1,113.34,189.13Zm-.33-7.48c-.85,0-1.36.56-1.53,1.7h3v-.23a1.46,1.46,0,0,0-.36-1.09A1.44,1.44,0,0,0,113,181.65Z"/><path class="cls-2" d="M123.77,189a3.45,3.45,0,0,1-.27-.84,2.75,2.75,0,0,1-2.26,1,3.31,3.31,0,0,1-2.26-.8,2.56,2.56,0,0,1-.93-2,2.63,2.63,0,0,1,1.13-2.31,5.76,5.76,0,0,1,3.28-.78h.9v-.5c0-.87-.37-1.3-1.12-1.3a.91.91,0,0,0-1,1h-2.92a2.61,2.61,0,0,1,1.15-2.21,4.87,4.87,0,0,1,3-.85,4.23,4.23,0,0,1,2.84.88,3,3,0,0,1,1.07,2.4v4.16a4.32,4.32,0,0,0,.4,2V189Zm-1.83-1.91a1.6,1.6,0,0,0,.91-.24,1.35,1.35,0,0,0,.51-.53v-1.5h-.85c-1,0-1.52.46-1.52,1.37a.82.82,0,0,0,.26.65A1,1,0,0,0,121.94,187.05Z"/><path class="cls-2" d="M133.6,182.21l-1-.07a1.73,1.73,0,0,0-1.77.87v6h-2.93v-9.4h2.75l.09,1.21a2.27,2.27,0,0,1,2.06-1.38,2.92,2.92,0,0,1,.82.1Z"/><path class="cls-2" d="M138.47,186.87a1.29,1.29,0,0,0,.95-.33,1.18,1.18,0,0,0,.33-.93h2.75a3.23,3.23,0,0,1-1.11,2.53,4.12,4.12,0,0,1-2.85,1,4.17,4.17,0,0,1-3.23-1.28,5.07,5.07,0,0,1-1.18-3.56v-.13a5.75,5.75,0,0,1,.52-2.51,3.88,3.88,0,0,1,1.52-1.68,4.51,4.51,0,0,1,2.34-.58,4.1,4.1,0,0,1,2.91,1,3.62,3.62,0,0,1,1.08,2.76h-2.75a1.63,1.63,0,0,0-.35-1.12,1.24,1.24,0,0,0-1-.39c-.76,0-1.2.48-1.33,1.45a10.24,10.24,0,0,0-.06,1.26,4.12,4.12,0,0,0,.34,2A1.19,1.19,0,0,0,138.47,186.87Z"/><path class="cls-2" d="M146.6,180.57a2.9,2.9,0,0,1,2.39-1.18,2.94,2.94,0,0,1,2.35.92,4.16,4.16,0,0,1,.81,2.72V189h-2.94V183.1a1.66,1.66,0,0,0-.3-1.1,1.31,1.31,0,0,0-1-.35,1.4,1.4,0,0,0-1.27.57V189h-2.93V175.62h2.93Z"/><path class="cls-4" d="M46.89,115.75h-1l.07-.37H47l1-4.73a14.94,14.94,0,0,1,.53-1.88,5.32,5.32,0,0,1,.65-1.21,2.81,2.81,0,0,1,2.31-1.24,2.34,2.34,0,0,1,.85.15l-.39,1a1.28,1.28,0,0,0-1.1-.61,1,1,0,0,0-.82.4,3.42,3.42,0,0,0-.55,1.3l-1.65,6.83h1.74l-.08.37H47.74l-1.48,6.13a10.37,10.37,0,0,1-.57,1.83,3.93,3.93,0,0,1-.75,1.12,2.51,2.51,0,0,1-1.89.94,2.23,2.23,0,0,1-.88-.17l.53-.78a1.5,1.5,0,0,0,1,.37,1.29,1.29,0,0,0,1.2-.84,11.27,11.27,0,0,0,.61-2.07Z"/><path class="cls-4" d="M49.1,119.44a4,4,0,0,1,.52-1.94A4.79,4.79,0,0,1,51,115.93a2.89,2.89,0,0,1,1.7-.6,1.9,1.9,0,0,1,1.46.6,2.18,2.18,0,0,1,.55,1.55,4.22,4.22,0,0,1-.51,2,4.55,4.55,0,0,1-1.35,1.59,2.8,2.8,0,0,1-1.69.63,1.86,1.86,0,0,1-1.47-.63A2.29,2.29,0,0,1,49.1,119.44Zm4.61-2.37a1.68,1.68,0,0,0-.32-1.07,1,1,0,0,0-.81-.42,1.54,1.54,0,0,0-.87.29,2.77,2.77,0,0,0-.76.85,6.53,6.53,0,0,0-.64,1.51,5.51,5.51,0,0,0-.25,1.53,2,2,0,0,0,.31,1.23,1,1,0,0,0,.89.44c.63,0,1.18-.44,1.65-1.31a6.7,6.7,0,0,0,.59-1.5A6.32,6.32,0,0,0,53.71,117.07Z"/><path class="cls-4" d="M55.57,118.45a6.64,6.64,0,0,0,1.24-2.09,1.54,1.54,0,0,1-.88-1.4,1.12,1.12,0,0,1,.21-.7.63.63,0,0,1,1,0,1.37,1.37,0,0,1,.2.77,2.77,2.77,0,0,1-.12.75,2.15,2.15,0,0,0,.53.07,1.57,1.57,0,0,0,1.1-.39h.52l-.08.15a21.49,21.49,0,0,0-1.28,2.8,6.86,6.86,0,0,0-.5,2.06.69.69,0,0,0,.13.41.4.4,0,0,0,.32.17c.29,0,.76-.31,1.42-.94l.17.2a7.36,7.36,0,0,1-.94.83,1.75,1.75,0,0,1-1.06.45.82.82,0,0,1-.67-.28,1.15,1.15,0,0,1-.24-.77,4.92,4.92,0,0,1,.62-2c.16-.31.35-.66.59-1s.53-.87.89-1.42l.11-.15a2.47,2.47,0,0,1-.68.46,2,2,0,0,1-.75.14,1.51,1.51,0,0,1-.41-.06,6.68,6.68,0,0,1-1.3,2.18Zm1.48-2.74c0-.18,0-.33,0-.45a1.14,1.14,0,0,0-.13-.6.35.35,0,0,0-.31-.21.22.22,0,0,0-.19.1.36.36,0,0,0-.08.25C56.38,115.14,56.6,115.44,57.05,115.71Z"/></svg>