<svg id="Layer_1" data-name="Layer 1" xmlns="http://www.w3.org/2000/svg" xmlns:xlink="http://www.w3.org/1999/xlink" viewBox="0 0 114.65 181.67"><defs><style>.cls-1{fill:url(#linear-gradient);}.cls-2{fill:#fff;}.cls-3{fill:url(#linear-gradient-2);}</style><linearGradient id="linear-gradient" x1="-2182.53" y1="-40.79" x2="-2148.05" y2="-40.79" gradientTransform="matrix(-0.99, -0.17, -0.17, 0.99, -2049.98, -217.84)" gradientUnits="userSpaceOnUse"><stop offset="0.49" stop-color="#cacccd"/><stop offset="1" stop-color="#808285"/></linearGradient><linearGradient id="linear-gradient-2" x1="-2776.76" y1="-624.9" x2="-2939.35" y2="-410.22" gradientTransform="matrix(-0.88, -0.47, -0.47, 0.88, -2701.08, -748.53)" gradientUnits="userSpaceOnUse"><stop offset="0" stop-color="#fff"/><stop offset="0.8" stop-color="#6d6e71"/></linearGradient></defs><title>TEHR-logo</title><path class="cls-1" d="M79.16,128.92c.4-1.09,2.21-4.86,2.78-5.94.89-1.67,1.76-3.36,2.77-5a40.75,40.75,0,0,1,7.39-9,23.32,23.32,0,0,1,4-2.83,41.6,41.6,0,0,1,8.81-3.5c1.63-.48,3.26-1,5-1.51-.15-.08-.19-.12-.23-.12-2.79-.12-5.57.07-8.35.19-7.61.33-14.22,3.25-20.1,7.95-1.26,1-2.51,2-3.68,3.15-.9.86-1.75,2.42-3.17,1.65a5.8,5.8,0,0,0-1.58-.82,10.27,10.27,0,0,0,.78,3.39c1.48,4,2.6,10.36,4.85,13.94,0,.07.11.16.2.16s.22-.18.23-.33A6.22,6.22,0,0,1,79.16,128.92Z"/><path class="cls-2" d="M73.51,86.61a8.64,8.64,0,1,1,.59,12.27A8.63,8.63,0,0,1,73.51,86.61Z"/><path class="cls-3" d="M51.15,17.87a39.58,39.58,0,0,0,8.57,11.6c6.76,6.74,14.88,12.25,20.35,20.07a39.39,39.39,0,0,1,5.48,32.91,48.57,48.57,0,0,0-13-35.68C62.82,36.39,48.19,30,42.48,16.94c-7.12,3.79-11.64,6.48-18.38,15.6-9.13,12.34-11.33,26-6.49,44.35C22.9,96.93,57,120.59,71,146.07c3.57-17.11-3.83-34.88-14.71-48.55-4.78-6-10.24-11.44-14.4-17.87s-7-14.17-5.66-21.71c.63,8.47,6,15.85,12.07,21.77S61.34,90.64,66.74,97.19c9,10.88,13.45,25.41,13,39.51s-5.46,27.83-11.49,40.59c2-10.81-.76-22.12-6-31.78s-12.8-17.87-20.79-25.41c-10-9.4-20-17.9-26.65-29.83C6.29,75,4.92,55.45,11.83,39.41A64.32,64.32,0,0,1,26.66,18.35c5.79-5.51,14-12.11,21.9-14.08A32.27,32.27,0,0,0,51.15,17.87Z"/></svg>