<svg id="Layer_1" data-name="Layer 1" xmlns="http://www.w3.org/2000/svg" xmlns:xlink="http://www.w3.org/1999/xlink" viewBox="0 0 114.65 181.67"><defs><style>.cls-1{fill:url(#linear-gradient);}.cls-2{fill:#212121;}.cls-3{fill:url(#linear-gradient-2);}</style><linearGradient id="linear-gradient" x1="-2138.75" y1="-34.28" x2="-2104.27" y2="-34.28" gradientTransform="matrix(-0.99, -0.17, -0.17, 0.99, -2006.59, -214.07)" gradientUnits="userSpaceOnUse"><stop offset="0" stop-color="#d1d3d4"/><stop offset="0.65" stop-color="#414042"/><stop offset="1" stop-color="#414042"/></linearGradient><linearGradient id="linear-gradient-2" x1="-2657.81" y1="-592.03" x2="-2820.4" y2="-377.35" gradientTransform="matrix(-0.88, -0.47, -0.47, 0.88, -2581.64, -718.39)" xlink:href="#linear-gradient"/></defs><title>TEHR-logo</title><path class="cls-1" d="M78.3,131.56c.4-1.1,2.21-4.87,2.78-5.94.89-1.68,1.76-3.37,2.77-5a40.76,40.76,0,0,1,7.38-9,24.33,24.33,0,0,1,4-2.82,41.11,41.11,0,0,1,8.81-3.51c1.63-.48,3.26-1,5-1.5-.15-.08-.19-.12-.23-.12-2.79-.12-5.57.06-8.35.18a34.08,34.08,0,0,0-20.1,8c-1.26,1-2.51,2-3.68,3.15-.9.86-1.75,2.42-3.17,1.66a5.57,5.57,0,0,0-1.58-.83,10.21,10.21,0,0,0,.78,3.39c1.48,4,2.6,10.36,4.85,13.94,0,.08.11.16.2.17s.22-.19.23-.34A6.25,6.25,0,0,1,78.3,131.56Z"/><path class="cls-2" d="M72.65,89.25a8.64,8.64,0,1,1,.58,12.27A8.63,8.63,0,0,1,72.65,89.25Z"/><path class="cls-3" d="M50.29,20.5a39.45,39.45,0,0,0,8.57,11.6c6.76,6.74,14.88,12.25,20.35,20.08a39.37,39.37,0,0,1,5.48,32.9,48.54,48.54,0,0,0-13-35.67C62,39,47.33,32.64,41.62,19.57,34.5,23.36,30,26.05,23.24,35.17c-9.13,12.34-11.33,26-6.49,44.35,5.29,20,39.36,43.7,53.36,69.18,3.56-17.1-3.83-34.88-14.71-48.54-4.78-6-10.24-11.45-14.4-17.88s-7-14.16-5.66-21.7c.63,8.46,6,15.85,12.07,21.77S60.48,93.27,65.88,99.82c9,10.88,13.45,25.41,13,39.51s-5.46,27.84-11.49,40.59c2-10.8-.76-22.11-6-31.78s-12.8-17.86-20.79-25.41c-10-9.4-20-17.89-26.65-29.83C5.43,77.67,4.06,58.09,11,42A64.42,64.42,0,0,1,25.8,21c5.79-5.51,14-12.11,21.9-14.08A32.25,32.25,0,0,0,50.29,20.5Z"/></svg>