<svg id="Layer_1" data-name="Layer 1" xmlns="http://www.w3.org/2000/svg" viewBox="0 0 151.0818 179.7188"><defs><style>.cls-1,.cls-4{fill:#231f20;}.cls-2,.cls-3{fill:#8e8e8e;}.cls-3,.cls-4{font-size:39.501px;font-family:KelsonSans-Light, Kelson Sans;font-weight:300;}</style></defs><title>SciGraph-logo</title><path class="cls-1" d="M81.0864,131.9736c-4.1417-12.9184-19.6583-20.8245-35.8315-18.5346V84.084a5,5,0,0,0-10,0v41.7754a5,5,0,0,0,10,0v-2.2937c.0087-.0016.0171-.0006.0258-.0022,11.5547-2.1856,23.5918,3.0664,26.2832,11.4629a11.0339,11.0339,0,0,1-1.1513,9.1875c-2.6455,4.4463-7.878,7.6992-14.3555,8.9238-11.5493,2.1855-23.59-3.0654-26.2832-11.4629a11.2985,11.2985,0,0,1,2.1167-10.6064,5,5,0,1,0-7.9189-6.1055,21.3558,21.3558,0,0,0-3.72,19.7646c3.6636,11.4258,16.2207,18.9317,30.2666,18.9307a39.9074,39.9074,0,0,0,7.3965-.6943c9.293-1.7578,16.9805-6.7276,21.0918-13.6358A20.9946,20.9946,0,0,0,81.0864,131.9736Z"/><path class="cls-2" d="M49.7807,96.4219C27.4736,96.4219,10,82.6089,10,64.9756c0-17.3443,18.2441-31.4551,40.6694-31.4551s40.668,14.1108,40.668,31.4551a26.098,26.098,0,0,1-5.4063,15.6308,5,5,0,1,0,8.0156,5.9786,36.02,36.02,0,0,0,7.3907-21.6094c0-22.8584-22.7295-41.4551-50.668-41.4551S0,42.1172,0,64.9756c0,23.2407,21.8662,41.4463,49.7807,41.4463,22.5264,0,41.5567,14.4619,41.5567,31.58,0,17.4882-18.2432,31.7168-40.668,31.7168S10,155.49,10,138.002A26.7886,26.7886,0,0,1,16.6274,120.69a5,5,0,1,0-7.6562-6.4336A36.6592,36.6592,0,0,0,0,138.002c0,23.0029,22.73,41.7168,50.6694,41.7168s50.668-18.7139,50.668-41.7168C101.3374,115.0742,78.2094,96.4219,49.7807,96.4219Z"/><path class="cls-1" d="M95.2046,0A16.3117,16.3117,0,0,0,81.0641,24.4918a5.0156,5.0156,0,0,0-.7609.6894L64.42,42.88a36.253,36.253,0,0,0-14.6388-3.0178c-16.84,0-30.54,11.0405-30.54,24.6113s13.7,24.61,30.5405,24.61,30.541-11.04,30.541-24.61a21.9717,21.9717,0,0,0-7.43-16.0617L87.7466,31.86a4.9947,4.9947,0,0,0,.5388-.738A16.3322,16.3322,0,1,0,95.2046,0ZM49.7807,79.084c-11.1342,0-20.54-6.6909-20.54-14.61s9.4063-14.6113,20.5405-14.6113,20.541,6.6909,20.541,14.6113S60.9155,79.084,49.7807,79.084ZM95.2046,22.6807a6.34,6.34,0,1,1,6.3418-6.34A6.3471,6.3471,0,0,1,95.2046,22.6807Z"/><text class="cls-3" transform="translate(140.958 173.3672) rotate(-90) scale(0.9022 1)">sci</text><text class="cls-4" transform="translate(140.9531 125.8677) rotate(-90) scale(0.8244 1)">graph</text></svg>