<svg id="Layer_1" data-name="Layer 1" xmlns="http://www.w3.org/2000/svg" viewBox="0 0 151.0818 179.7188"><defs><style>.cls-1,.cls-4{fill:#cecece;}.cls-2,.cls-3{fill:#fff;}.cls-3,.cls-4{font-size:39.501px;font-family:KelsonSans-Light, Kelson Sans;font-weight:300;}</style></defs><title>SciGraph-logo</title><path class="cls-1" d="M86.1483,131.9736C82.0066,119.0552,66.49,111.1491,50.3168,113.439V84.084a5,5,0,0,0-10,0v41.7754a5,5,0,0,0,10,0v-2.2937c.0087-.0016.0172-.0006.0259-.0022,11.5547-2.1856,23.5918,3.0664,26.2832,11.4629a11.0338,11.0338,0,0,1-1.1514,9.1875c-2.6455,4.4463-7.8779,7.6992-14.3555,8.9238-11.5493,2.1855-23.59-3.0654-26.2832-11.4629a11.2988,11.2988,0,0,1,2.1167-10.6064,5,5,0,1,0-7.9189-6.1055,21.356,21.356,0,0,0-3.72,19.7646c3.6636,11.4258,16.2207,18.9317,30.2666,18.9307a39.9074,39.9074,0,0,0,7.3965-.6943c9.2929-1.7578,16.98-6.7276,21.0918-13.6358A20.9942,20.9942,0,0,0,86.1483,131.9736Z"/><path class="cls-2" d="M54.8427,96.4219c-22.3071,0-39.7808-13.813-39.7808-31.4463,0-17.3443,18.2442-31.4551,40.67-31.4551S96.3993,47.6313,96.3993,64.9756a26.0979,26.0979,0,0,1-5.4062,15.6308,5,5,0,1,0,8.0156,5.9786,36.02,36.02,0,0,0,7.3906-21.6094c0-22.8584-22.7295-41.4551-50.6679-41.4551S5.0619,42.1172,5.0619,64.9756c0,23.2407,21.8662,41.4463,49.7808,41.4463,22.5263,0,41.5566,14.4619,41.5566,31.58,0,17.4882-18.2431,31.7168-40.6679,31.7168S15.0619,155.49,15.0619,138.002A26.7882,26.7882,0,0,1,21.6894,120.69a5,5,0,1,0-7.6563-6.4336A36.66,36.66,0,0,0,5.0619,138.002c0,23.0029,22.73,41.7168,50.67,41.7168s50.6679-18.7139,50.6679-41.7168C106.3993,115.0742,83.2714,96.4219,54.8427,96.4219Z"/><path class="cls-1" d="M100.2665,0a16.3117,16.3117,0,0,0-14.14,24.4918,5.0162,5.0162,0,0,0-.761.6894L69.4814,42.88a36.2529,36.2529,0,0,0-14.6387-3.0178c-16.84,0-30.54,11.0405-30.54,24.6113s13.7,24.61,30.5405,24.61,30.541-11.04,30.541-24.61a21.9718,21.9718,0,0,0-7.43-16.0617L92.8085,31.86a5.0026,5.0026,0,0,0,.5389-.738A16.3322,16.3322,0,1,0,100.2665,0ZM54.8427,79.084c-11.1343,0-20.54-6.6909-20.54-14.61s9.4062-14.6113,20.5405-14.6113,20.541,6.6909,20.541,14.6113S65.9774,79.084,54.8427,79.084Zm45.4238-56.4033a6.34,6.34,0,1,1,6.3418-6.34A6.347,6.347,0,0,1,100.2665,22.6807Z"/><text class="cls-3" transform="translate(136.02 173.3672) rotate(-90) scale(0.9022 1)">sci</text><text class="cls-4" transform="translate(136.0151 125.8618) rotate(-90) scale(0.8244 1)">graph</text></svg>