<?xml version="1.0" encoding="utf-8"?>
<!-- Generator: Adobe Illustrator 19.1.0, SVG Export Plug-In . SVG Version: 6.00 Build 0)  -->
<svg version="1.1" id="Layer_1" xmlns="http://www.w3.org/2000/svg" xmlns:xlink="http://www.w3.org/1999/xlink" x="0px" y="0px"
	 viewBox="-67 68.2 403.7 152.8" style="enable-background:new -67 68.2 403.7 152.8;" xml:space="preserve">
<style type="text/css">
	.st0{fill:#231F20;}
</style>
<g>
	<path class="st0" d="M5.1,105.2c21.3,0,38.5,17.3,38.5,38.5c0,17.6-11.8,32.5-28,37.1c-0.1-0.1-0.1-0.3-0.2-0.4
		c-1.2-2.9-0.8-6.3,0.1-9.3c0.4-1.5,1.4-3.7,3.3-3.7c1.4,0,2.8,0.1,4.2,0.1c1.6,0,3.2-0.4,4.5-1.4c0.7-0.5,1.1-1.2,1.2-2
		c0.1-0.4,0-0.8-0.2-1.2c-0.3-0.8-0.3-1.5-0.1-2.3c0.1-0.5,0.5-1,0.9-1.3c0.3-0.2,0.3-0.5,0.2-0.8c-0.1-0.5-0.4-0.9-0.9-1.2
		c0,0-0.1,0-0.1-0.1c0,0,0,0,0-0.1c0.4-0.2,0.8-0.4,1-0.8c0.1-0.2,0.1-0.4,0.1-0.6c-0.1-0.2-0.2-0.3-0.2-0.5c-0.4-0.6-0.5-1.3-0.2-2
		c0.1-0.2,0.2-0.4,0.4-0.5c1-0.4,2.2-0.7,2-2.1c-0.1-0.8-0.5-1.6-0.9-2.3c-0.6-1.1-1.3-2.3-1.9-3.4c-0.3-0.5-0.5-1-0.7-1.5
		s-0.2-0.9-0.3-1.3c-1-11.7-10.8-20.9-22.7-20.9c-9.9,0-18.3,6.3-21.3,15.2c-0.9,2.4-1.4,5-1.4,7.8c0,5,1.7,10,4.8,13.9
		c1.4,1.8,3.5,3.1,4.8,5c1.3,1.9,1.5,4.2,1.6,6.4c0.2,3.9,0.3,7.8-0.8,11.5c-0.2-0.9-2.8-1.8-3.6-2.1c-1.5-0.7-3-1.5-4.5-2.4
		c-2.9-1.8-5.5-3.9-7.8-6.4c-4.7-5-8-11.1-9.5-17.7c-0.6-2.8-1-5.7-1-8.6C-33.4,122.5-16.2,105.2,5.1,105.2z"/>
	<path class="st0" d="M5.1,74c-38.5,0-69.8,31.3-69.8,69.8c0,25.6,13.9,48,34.5,60.2c1.9-4.3,4.5-8.1,7.7-11.4
		c-17-9.7-28.5-28-28.5-48.8c0-30.9,25.2-56.1,56.1-56.1s56.1,25.2,56.1,56.1c0,20.9-11.5,39.1-28.4,48.7c3.2,3.3,5.8,7.1,7.7,11.4
		c20.6-12.1,34.4-34.5,34.4-60.1C74.8,105.3,43.5,74,5.1,74z"/>
	<path class="st0" d="M8.4,197.3l0.2-42.5c3.9-1.4,6.7-5.2,6.7-9.6c0-5.6-4.6-10.2-10.2-10.2s-10.2,4.6-10.2,10.2
		c0,4.5,2.9,8.3,6.9,9.7l-0.2,42.6c-3.9,1.4-6.7,5.2-6.7,9.6c0,5.6,4.6,10.2,10.2,10.2s10.2-4.6,10.2-10.2
		C15.3,202.4,12.4,198.6,8.4,197.3z"/>
</g>
<g>
	<path class="st0" d="M106,113.6V93.1c0-6.8-1.4-9.4-7.9-9.4c-5.5,0-8,2.3-8,8.1v21.8h-3V71h3v13.3c1.5-2.4,5.2-3.4,7.9-3.4
		c7.9,0,11,3.3,11,12.2v20.4L106,113.6L106,113.6z"/>
	<path class="st0" d="M138.4,113.6l-0.2-3.5c-1.6,2.4-4.6,4-8.9,4c-8.3,0-10.9-3.4-10.9-11.7V81.6h3v20.8c0,7.2,1.8,9.3,8.1,9.3
		c6.4,0,8.5-4,8.5-7.7V81.6h3v32H138.4z"/>
	<path class="st0" d="M152.8,81.6h2.8l0.3,2.6c1.9-2.3,4.9-3.2,8.7-3.2c5.2,0,8.3,2,9.5,4.7c2.9-4,6.3-4.7,10.2-4.7
		c8.7,0,10.9,4.2,10.9,11.8v20.8h-3V92.7c0-6.8-1.5-9.2-8.1-9.2s-8.6,3.7-8.6,8.4v21.7h-3V92.7c0-6-1.5-9.2-8.1-9.2
		s-8.5,2.8-8.5,7.3v22.8h-3L152.8,81.6L152.8,81.6z"/>
	<path class="st0" d="M223.8,113.3l-0.1-4.3c-2.4,3.6-5.7,4.6-10.4,4.6c-5.8,0-9.9-2.4-9.9-8.5c0-8,7.6-9.6,20-8.8v-4.6
		c0.1-5.7-2.1-8.2-7.7-8.2c-5,0-7.7,1.4-7.7,7.6h-2.9c0-6.8,3-10,10.6-10c7.2,0,10.6,3.1,10.6,10.6v21.7L223.8,113.3L223.8,113.3z
		 M223.4,98.9c-11.6-1-17,0.6-17,6.2c0,4.1,2.6,5.9,7.9,5.9c6.7,0,9-4.6,9-7.9v-4.2H223.4z"/>
	<path class="st0" d="M239.2,81.6l0.2,3.4c1.6-2.4,4.6-4,8.9-4c8.3,0,10.9,3.4,10.9,11.7v20.9h-3V92.7c0-7.2-1.8-9.3-8.1-9.3
		s-8.5,4-8.5,7.7v21.5l-3,1v-32C236.6,81.6,239.2,81.6,239.2,81.6z"/>
	<path class="st0" d="M110.2,139.6V150c0,7.6-4.2,10.8-11.2,10.8c-3.7,0-6.2-0.8-8.2-2.9v15.7l-3,2.7v-48.2h2.7l0.3,3.5
		c1.7-2.3,4.4-3.7,8.8-3.7C107,128,110.2,131.2,110.2,139.6z M99.2,130.6c-6.2,0.1-8.4,3.1-8.4,8.4v10.6c-0.1,6.1,1.6,8.7,8.2,8.7
		s8.2-2.9,8.2-8.3v-10.3C107.2,132.4,104.6,130.6,99.2,130.6z"/>
	<path class="st0" d="M136.2,160.6v-20.5c0-6.8-1.4-9.4-7.9-9.4c-5.5,0-8,2.3-8,8.1v21.8h-3v-44.4l3,1.9v13.3
		c1.5-2.4,5.2-3.4,7.9-3.4c7.9,0,11,3.3,11,12.2v20.4H136.2z"/>
	<path class="st0" d="M168.8,151.8c0,5.8-3.3,8.9-10.5,8.9c-7.6,0-11.2-3.2-11.2-12V140c0-8.8,3.6-12.2,11.2-12.2
		c8.2,0,10.9,3.7,10.9,12.2v4.8H150v3.6c0,6.6,1.7,9.7,8.3,9.7c6.5,0,7.8-2.6,7.8-6.5h2.7V151.8z M166.5,142.4v-2.2
		c0-6.2-1.2-9.9-8.3-9.9c-6.6,0-8.3,3-8.3,9.8v2.4h16.6V142.4z"/>
	<path class="st0" d="M178.6,128.6l0.2,3.4c1.6-2.4,4.5-4,8.9-4c8.3,0,10.9,3.4,10.9,11.7v19.9l-3,1v-20.9c0-7.2-1.8-9.3-8.1-9.3
		c-6.4,0-8.5,4-8.5,7.7v22.5h-3v-32H178.6z"/>
	<path class="st0" d="M205.8,148.9v-8.8c0-9.1,3.6-12,11.2-12s11.2,2.7,11.2,12.2v8.7c0,8.9-3.6,12.1-11.2,12.1
		C209.4,161,205.8,158.3,205.8,148.9z M225.3,148.8v-8.5c0-6.9-1.2-9.6-8.2-9.6c-6.6,0-8.2,2.7-8.2,9.5v8.5c0,6.9,1.2,9.8,8.2,9.8
		C223.6,158.5,225.3,155.6,225.3,148.8z"/>
	<path class="st0" d="M236.5,116.7l3-1.2v12.6h7.3v2.6h-7.3v20.8c0,6,2,7.2,7.8,6.8v2.4c-8.1,0.7-10.8-2-10.8-9.2V116.7z"/>
	<path class="st0" d="M255.4,169.9c4.3,1.4,6.1,0.3,7.5-3.5l1.6-5.7l-7.4-32.2h3.3l1.9,13l3.8,14.9h0.1l4.1-14.9l3.9-13h3.3
		l-11.6,38.2c-1.8,5.7-5.2,7.4-11.5,5.6L255.4,169.9z"/>
	<path class="st0" d="M303.7,139.6V150c0,7.6-4.2,10.8-11.2,10.8c-3.7,0-6.2-0.8-8.2-2.9v14.2l-3,1v-45h2.7l0.3,3.5
		c1.7-2.3,4.4-3.7,8.8-3.7C300.5,128,303.7,131.2,303.7,139.6z M292.7,130.6c-6.2,0.1-8.4,3.1-8.4,8.4v10.6
		c-0.1,6.1,1.6,8.7,8.2,8.7s8.2-2.9,8.2-8.3v-10.3C300.6,132.4,298,130.6,292.7,130.6z"/>
	<path class="st0" d="M332.3,151.8c0,5.8-3.3,8.9-10.5,8.9c-7.6,0-11.2-3.2-11.2-12V140c0-8.8,3.6-12.2,11.2-12.2
		c8.2,0,10.9,3.7,10.9,12.2v4.8h-19.2v3.6c0,6.6,1.7,9.7,8.3,9.7c6.5,0,7.8-2.6,7.8-6.5h2.7V151.8z M330.1,142.4v-2.2
		c0-6.2-1.2-9.9-8.3-9.9c-6.6,0-8.3,3-8.3,9.8v2.4h16.6V142.4z"/>
	<path class="st0" d="M86.8,195.9v-8.8c0-9.1,3.6-12,11.2-12c7.6,0,11.2,2.7,11.2,12.2v8.7c0,8.9-3.6,12.1-11.2,12.1
		C90.4,208,86.8,205.3,86.8,195.9z M106.2,195.8v-8.5c0-6.9-1.2-9.6-8.2-9.6c-6.6,0-8.2,2.7-8.2,9.5v8.5c0,6.9,1.2,9.8,8.2,9.8
		C104.6,205.5,106.2,202.6,106.2,195.8z"/>
	<path class="st0" d="M119.8,175.6l0.2,3.4c1.6-2.4,4.5-4,8.9-4c8.3,0,10.9,3.4,10.9,11.7v20.9h-3v-20.9c0-7.2-1.8-9.3-8.1-9.3
		c-6.4,0-8.5,4-8.5,7.7v22.5h-3v-32C117.2,175.6,119.8,175.6,119.8,175.6z"/>
	<path class="st0" d="M147.1,160.8l3,2.6V175h7.3v2.6h-7.3v20.8c0,6,2,7.2,7.8,6.8v2.4c-8.1,0.7-10.8-2-10.8-9.2V160.8z"/>
	<path class="st0" d="M162.8,195.9v-8.8c0-9.1,3.6-12,11.2-12c7.6,0,11.2,2.7,11.2,12.2v8.7c0,8.9-3.6,12.1-11.2,12.1
		C166.3,208,162.8,205.3,162.8,195.9z M182.2,195.8v-8.5c0-6.9-1.2-9.6-8.2-9.6c-6.6,0-8.2,2.7-8.2,9.5v8.5c0,6.9,1.2,9.8,8.2,9.8
		C180.5,205.5,182.2,202.6,182.2,195.8z"/>
	<path class="st0" d="M204.2,207.7c-7.4,0.4-8.7-1.9-8.7-9.1V164l3-1v35.7c0,5.7,0.7,6.5,5.7,6.5V207.7z"/>
	<path class="st0" d="M206.1,195.9v-8.8c0-9.1,3.6-12,11.2-12s11.2,2.7,11.2,12.2v8.7c0,8.9-3.6,12.1-11.2,12.1
		C209.7,208,206.1,205.3,206.1,195.9z M225.5,195.8v-8.5c0-6.9-1.2-9.6-8.2-9.6c-6.6,0-8.2,2.7-8.2,9.5v8.5c0,6.9,1.2,9.8,8.2,9.8
		C223.9,205.5,225.5,202.6,225.5,195.8z"/>
	<path class="st0" d="M238.4,212c0.2,3.4,1.6,5.5,7.4,5.5c6.7,0,8.5-2.8,8.5-9.4V204c-1.8,3-4.9,3.9-8.9,3.9
		c-7.2,0-10.9-2.9-10.9-11.1v-10c0-8.7,3.6-11.4,11.4-11.5c4.2,0,7,1.2,8.6,4v-3.6h2.7v32.5c0,8.8-3.8,12-11.5,12
		c-6.7,0-9.9-2.4-10.3-8h3V212z M254.2,187.6c0-6.2-1.8-9.9-8.2-9.9c-6.4,0.1-8.4,2.2-8.4,9v10c0.1,6.6,2.6,8.3,8.1,8.3
		c6.1,0,8.4-2.9,8.4-8.3v-9.1H254.2z"/>
	<path class="st0" d="M261.8,216.9c4.3,1.4,6.1,0.3,7.5-3.5l1.6-5.7l-10.4-32.2l3.3-2l3.9,15l4.8,14.9h0.1l4.1-14.9l3.9-13l3.7-1.3
		l-12,39.5c-1.8,5.7-5.2,7.4-11.5,5.6L261.8,216.9z"/>
</g>
</svg>
