<?xml version="1.0" encoding="utf-8"?>
<!-- Generator: Adobe Illustrator 19.1.0, SVG Export Plug-In . SVG Version: 6.00 Build 0)  -->
<svg version="1.1" id="Layer_1" xmlns="http://www.w3.org/2000/svg" xmlns:xlink="http://www.w3.org/1999/xlink" x="0px" y="0px"
	 viewBox="0 0 110.4 163.7" style="enable-background:new 0 0 110.4 163.7;" xml:space="preserve">
<g>
	<path d="M33,151.6v-20.5c0-6.8-1.4-9.4-7.9-9.4c-5.5,0-8,2.3-8,8.1v21.8h-3v-42.6h3v13.3c1.5-2.4,5.2-3.4,7.9-3.4
		c7.9,0,11,3.3,11,12.2v20.4H33z"/>
	<path d="M65.8,130.6v10.4c0,7.6-4.2,10.8-11.2,10.8c-3.7,0-6.2-0.8-8.2-2.9v12.7h-3v-42.5h2.7l0.3,3.5c1.7-2.3,4.4-3.7,8.8-3.7
		C62.6,119,65.8,122.2,65.8,130.6z M54.9,121.6c-6.2,0.1-8.4,3.1-8.4,8.4v10.6c-0.1,6.1,1.6,8.7,8.2,8.7c6.6,0,8.2-2.9,8.2-8.3
		v-10.3C62.8,123.5,60.2,121.6,54.9,121.6z"/>
	<path d="M72.6,139.9v-8.8c0-9.1,3.6-12,11.2-12c7.6,0,11.2,2.7,11.2,12.2v8.7c0,8.9-3.6,12.1-11.2,12.1
		C76.2,152,72.6,149.3,72.6,139.9z M92,139.8v-8.5c0-6.9-1.2-9.6-8.2-9.6c-6.6,0-8.2,2.7-8.2,9.5v8.5c0,6.9,1.2,9.8,8.2,9.8
		C90.4,149.5,92,146.6,92,139.8z"/>
</g>
<path d="M54.5,25.4c15.4,0,27.9,12.5,27.9,27.9c0,12.7-8.5,23.5-20.2,26.8c-0.1-0.1-0.1-0.2-0.2-0.3c-0.9-2.1-0.6-4.6,0.1-6.7
	c0.3-1.1,1-2.7,2.4-2.7c1,0,2,0.1,3,0.1c1.2,0,2.3-0.3,3.2-1c0.5-0.4,0.8-0.9,0.9-1.5c0-0.3,0-0.6-0.1-0.8c-0.2-0.5-0.2-1.1-0.1-1.7
	c0.1-0.4,0.3-0.7,0.6-0.9c0.2-0.2,0.2-0.3,0.2-0.6c-0.1-0.4-0.3-0.7-0.6-0.9c0,0-0.1,0-0.1-0.1c0,0,0,0,0,0c0.3-0.1,0.6-0.3,0.7-0.6
	c0.1-0.1,0.1-0.3,0-0.4c-0.1-0.1-0.1-0.2-0.2-0.4c-0.3-0.5-0.4-0.9-0.2-1.5c0.1-0.2,0.2-0.3,0.3-0.4c0.7-0.3,1.6-0.5,1.5-1.5
	c-0.1-0.6-0.4-1.1-0.7-1.7c-0.5-0.8-0.9-1.7-1.4-2.5c-0.2-0.4-0.4-0.7-0.5-1.1c-0.1-0.3-0.2-0.7-0.2-1C70.2,43.6,63.2,37,54.5,37
	c-7.1,0-13.2,4.6-15.4,11c-0.6,1.7-1,3.6-1,5.6c0,3.6,1.2,7.2,3.5,10.1c1.4,1.8,3.2,3,4,5.2c1,2.7,1,5.6,0.9,8.5
	c-0.1,3.3-0.9,2.5-3.4,1.4c-1.1-0.5-2.2-1.1-3.2-1.7c-2.1-1.3-4-2.8-5.6-4.6c-3.4-3.6-5.8-8-6.8-12.8c-0.5-2-0.7-4.1-0.7-6.2
	C26.7,37.9,39.2,25.4,54.5,25.4z"/>
<path d="M54.5,2.8C26.7,2.8,4.1,25.5,4.1,53.3c0,18.5,10,34.7,24.9,43.5c1.3-3.1,3.2-5.9,5.6-8.3C22.3,81.6,14,68.4,14,53.3
	c0-22.4,18.2-40.5,40.5-40.5s40.5,18.2,40.5,40.5c0,15.1-8.3,28.2-20.5,35.2c2.3,2.4,4.2,5.2,5.6,8.2C95,88,105,71.8,105,53.3
	C105,25.5,82.3,2.8,54.5,2.8z"/>
<path d="M57.3,88.5l0.2-26.1c3.3-1.2,5.7-4.4,5.7-8.2c0-4.8-3.9-8.7-8.7-8.7s-8.7,3.9-8.7,8.7c0,3.8,2.5,7.1,5.9,8.3l-0.2,26.1
	c-3.3,1.2-5.7,4.4-5.7,8.2c0,4.8,3.9,8.7,8.7,8.7s8.7-3.9,8.7-8.7C63.2,92.9,60.8,89.7,57.3,88.5z"/>
</svg>
