<?xml version="1.0" encoding="utf-8"?>
<!-- Generator: Adobe Illustrator 19.1.0, SVG Export Plug-In . SVG Version: 6.00 Build 0)  -->
<svg version="1.1" id="Layer_1" xmlns="http://www.w3.org/2000/svg" xmlns:xlink="http://www.w3.org/1999/xlink" x="0px" y="0px"
	 viewBox="0 0 403.7 152.8" style="enable-background:new 0 0 403.7 152.8;" xml:space="preserve">
<style type="text/css">
	.st0{fill:#FFFFFF;}
</style>
<g>
	<path class="st0" d="M72.1,37c21.3,0,38.5,17.3,38.5,38.5c0,17.6-11.8,32.5-28,37.1c-0.1-0.1-0.1-0.3-0.2-0.4
		c-1.2-2.9-0.8-6.3,0.1-9.3c0.4-1.5,1.4-3.7,3.3-3.7c1.4,0,2.8,0.1,4.2,0.1c1.6,0,3.2-0.4,4.5-1.4c0.7-0.5,1.1-1.2,1.2-2
		c0.1-0.4,0-0.8-0.2-1.2c-0.3-0.8-0.3-1.5-0.1-2.3c0.1-0.5,0.5-1,0.9-1.3c0.3-0.2,0.3-0.5,0.2-0.8c-0.1-0.5-0.4-0.9-0.9-1.2
		c0,0-0.1,0-0.1-0.1c0,0,0,0,0-0.1c0.4-0.2,0.8-0.4,1-0.8c0.1-0.2,0.1-0.4,0.1-0.6c-0.1-0.2-0.2-0.3-0.2-0.5c-0.4-0.6-0.5-1.3-0.2-2
		c0.1-0.2,0.2-0.4,0.4-0.5c1-0.4,2.2-0.7,2-2.1c-0.1-0.8-0.5-1.6-0.9-2.3c-0.6-1.1-1.3-2.3-1.9-3.4c-0.3-0.5-0.5-1-0.7-1.5
		c-0.2-0.5-0.2-0.9-0.3-1.3C93.8,62.2,84,53,72.1,53c-9.9,0-18.3,6.3-21.3,15.2c-0.9,2.4-1.4,5-1.4,7.8c0,5,1.7,10,4.8,13.9
		c1.4,1.8,3.5,3.1,4.8,5c1.3,1.9,1.5,4.2,1.6,6.4c0.2,3.9,0.3,7.8-0.8,11.5c-0.2-0.9-2.8-1.8-3.6-2.1c-1.5-0.7-3-1.5-4.5-2.4
		c-2.9-1.8-5.5-3.9-7.8-6.4c-4.7-5-8-11.1-9.5-17.7c-0.6-2.8-1-5.7-1-8.6C33.6,54.3,50.8,37,72.1,37z"/>
	<path class="st0" d="M72.1,5.8C33.6,5.8,2.3,37.1,2.3,75.6c0,25.6,13.9,48,34.5,60.2c1.9-4.3,4.5-8.1,7.7-11.4
		C27.5,114.7,16,96.4,16,75.6c0-30.9,25.2-56.1,56.1-56.1s56.1,25.2,56.1,56.1c0,20.9-11.5,39.1-28.4,48.7c3.2,3.3,5.8,7.1,7.7,11.4
		c20.6-12.1,34.4-34.5,34.4-60.1C141.8,37.1,110.5,5.8,72.1,5.8z"/>
	<path class="st0" d="M75.4,129.1l0.2-42.5c3.9-1.4,6.7-5.2,6.7-9.6c0-5.6-4.6-10.2-10.2-10.2s-10.2,4.6-10.2,10.2
		c0,4.5,2.9,8.3,6.9,9.7l-0.2,42.6c-3.9,1.4-6.7,5.2-6.7,9.6c0,5.6,4.6,10.2,10.2,10.2s10.2-4.6,10.2-10.2
		C82.3,134.2,79.4,130.4,75.4,129.1z"/>
</g>
<g>
	<path class="st0" d="M173,45.4V24.9c0-6.8-1.4-9.4-7.9-9.4c-5.5,0-8,2.3-8,8.1v21.8h-3V2.8h3v13.3c1.5-2.4,5.2-3.4,7.9-3.4
		c7.9,0,11,3.3,11,12.2v20.4H173z"/>
	<path class="st0" d="M205.4,45.4l-0.2-3.5c-1.6,2.4-4.6,4-8.9,4c-8.3,0-10.9-3.4-10.9-11.7V13.4h3v20.8c0,7.2,1.8,9.3,8.1,9.3
		c6.4,0,8.5-4,8.5-7.7V13.4h3v32H205.4z"/>
	<path class="st0" d="M219.8,13.4h2.8l0.3,2.6c1.9-2.3,4.9-3.2,8.7-3.2c5.2,0,8.3,2,9.5,4.7c2.9-4,6.3-4.7,10.2-4.7
		c8.7,0,10.9,4.2,10.9,11.8v20.8h-3V24.5c0-6.8-1.5-9.2-8.1-9.2c-6.6,0-8.6,3.7-8.6,8.4v21.7h-3V24.5c0-6-1.5-9.2-8.1-9.2
		c-6.6,0-8.5,2.8-8.5,7.3v22.8h-3V13.4z"/>
	<path class="st0" d="M290.8,45.1l-0.1-4.3c-2.4,3.6-5.7,4.6-10.4,4.6c-5.8,0-9.9-2.4-9.9-8.5c0-8,7.6-9.6,20-8.8v-4.6
		c0.1-5.7-2.1-8.2-7.7-8.2c-5,0-7.7,1.4-7.7,7.6h-2.9c0-6.8,3-10,10.6-10c7.2,0,10.6,3.1,10.6,10.6v21.7H290.8z M290.4,30.7
		c-11.6-1-17,0.6-17,6.2c0,4.1,2.6,5.9,7.9,5.9c6.7,0,9-4.6,9-7.9V30.7z"/>
	<path class="st0" d="M306.2,13.4l0.2,3.4c1.6-2.4,4.6-4,8.9-4c8.3,0,10.9,3.4,10.9,11.7v20.9h-3V24.5c0-7.2-1.8-9.3-8.1-9.3
		s-8.5,4-8.5,7.7v21.5l-3,1v-32H306.2z"/>
	<path class="st0" d="M177.2,71.4v10.4c0,7.6-4.2,10.8-11.2,10.8c-3.7,0-6.2-0.8-8.2-2.9v15.7l-3,2.7V59.9h2.7l0.3,3.5
		c1.7-2.3,4.4-3.7,8.8-3.7C174,59.8,177.2,63,177.2,71.4z M166.2,62.4c-6.2,0.1-8.4,3.1-8.4,8.4v10.6c-0.1,6.1,1.6,8.7,8.2,8.7
		s8.2-2.9,8.2-8.3V71.5C174.2,64.2,171.6,62.4,166.2,62.4z"/>
	<path class="st0" d="M203.2,92.4V71.9c0-6.8-1.4-9.4-7.9-9.4c-5.5,0-8,2.3-8,8.1v21.8h-3V48l3,1.9v13.3c1.5-2.4,5.2-3.4,7.9-3.4
		c7.9,0,11,3.3,11,12.2v20.4H203.2z"/>
	<path class="st0" d="M235.8,83.6c0,5.8-3.3,8.9-10.5,8.9c-7.6,0-11.2-3.2-11.2-12v-8.7c0-8.8,3.6-12.2,11.2-12.2
		c8.2,0,10.9,3.7,10.9,12.2v4.8H217v3.6c0,6.6,1.7,9.7,8.3,9.7c6.5,0,7.8-2.6,7.8-6.5H235.8z M233.5,74.2V72c0-6.2-1.2-9.9-8.3-9.9
		c-6.6,0-8.3,3-8.3,9.8v2.4H233.5z"/>
	<path class="st0" d="M245.6,60.4l0.2,3.4c1.6-2.4,4.5-4,8.9-4c8.3,0,10.9,3.4,10.9,11.7v19.9l-3,1V71.5c0-7.2-1.8-9.3-8.1-9.3
		c-6.4,0-8.5,4-8.5,7.7v22.5h-3v-32H245.6z"/>
	<path class="st0" d="M272.8,80.7v-8.8c0-9.1,3.6-12,11.2-12c7.6,0,11.2,2.7,11.2,12.2v8.7c0,8.9-3.6,12.1-11.2,12.1
		C276.4,92.8,272.8,90.1,272.8,80.7z M292.3,80.6v-8.5c0-6.9-1.2-9.6-8.2-9.6c-6.6,0-8.2,2.7-8.2,9.5v8.5c0,6.9,1.2,9.8,8.2,9.8
		C290.6,90.3,292.3,87.4,292.3,80.6z"/>
	<path class="st0" d="M303.5,48.5l3-1.2v12.6h7.3v2.6h-7.3v20.8c0,6,2,7.2,7.8,6.8v2.4c-8.1,0.7-10.8-2-10.8-9.2V48.5z"/>
	<path class="st0" d="M322.4,101.7c4.3,1.4,6.1,0.3,7.5-3.5l1.6-5.7l-7.4-32.2h3.3l1.9,13l3.8,14.9h0.1l4.1-14.9l3.9-13h3.3
		l-11.6,38.2c-1.8,5.7-5.2,7.4-11.5,5.6L322.4,101.7z"/>
	<path class="st0" d="M370.7,71.4v10.4c0,7.6-4.2,10.8-11.2,10.8c-3.7,0-6.2-0.8-8.2-2.9v14.2l-3,1V59.9h2.7l0.3,3.5
		c1.7-2.3,4.4-3.7,8.8-3.7C367.5,59.8,370.7,63,370.7,71.4z M359.7,62.4c-6.2,0.1-8.4,3.1-8.4,8.4v10.6c-0.1,6.1,1.6,8.7,8.2,8.7
		s8.2-2.9,8.2-8.3V71.5C367.6,64.2,365,62.4,359.7,62.4z"/>
	<path class="st0" d="M399.3,83.6c0,5.8-3.3,8.9-10.5,8.9c-7.6,0-11.2-3.2-11.2-12v-8.7c0-8.8,3.6-12.2,11.2-12.2
		c8.2,0,10.9,3.7,10.9,12.2v4.8h-19.2v3.6c0,6.6,1.7,9.7,8.3,9.7c6.5,0,7.8-2.6,7.8-6.5H399.3z M397.1,74.2V72
		c0-6.2-1.2-9.9-8.3-9.9c-6.6,0-8.3,3-8.3,9.8v2.4H397.1z"/>
	<path class="st0" d="M153.8,127.7v-8.8c0-9.1,3.6-12,11.2-12c7.6,0,11.2,2.7,11.2,12.2v8.7c0,8.9-3.6,12.1-11.2,12.1
		C157.4,139.8,153.8,137.1,153.8,127.7z M173.2,127.6v-8.5c0-6.9-1.2-9.6-8.2-9.6c-6.6,0-8.2,2.7-8.2,9.5v8.5c0,6.9,1.2,9.8,8.2,9.8
		C171.6,137.3,173.2,134.4,173.2,127.6z"/>
	<path class="st0" d="M186.8,107.4l0.2,3.4c1.6-2.4,4.5-4,8.9-4c8.3,0,10.9,3.4,10.9,11.7v20.9h-3v-20.9c0-7.2-1.8-9.3-8.1-9.3
		c-6.4,0-8.5,4-8.5,7.7v22.5h-3v-32H186.8z"/>
	<path class="st0" d="M214.1,92.6l3,2.6v11.6h7.3v2.6h-7.3v20.8c0,6,2,7.2,7.8,6.8v2.4c-8.1,0.7-10.8-2-10.8-9.2V92.6z"/>
	<path class="st0" d="M229.8,127.7v-8.8c0-9.1,3.6-12,11.2-12c7.6,0,11.2,2.7,11.2,12.2v8.7c0,8.9-3.6,12.1-11.2,12.1
		C233.3,139.8,229.8,137.1,229.8,127.7z M249.2,127.6v-8.5c0-6.9-1.2-9.6-8.2-9.6c-6.6,0-8.2,2.7-8.2,9.5v8.5c0,6.9,1.2,9.8,8.2,9.8
		C247.5,137.3,249.2,134.4,249.2,127.6z"/>
	<path class="st0" d="M271.2,139.5c-7.4,0.4-8.7-1.9-8.7-9.1V95.8l3-1v35.7c0,5.7,0.7,6.5,5.7,6.5V139.5z"/>
	<path class="st0" d="M273.1,127.7v-8.8c0-9.1,3.6-12,11.2-12c7.6,0,11.2,2.7,11.2,12.2v8.7c0,8.9-3.6,12.1-11.2,12.1
		C276.7,139.8,273.1,137.1,273.1,127.7z M292.5,127.6v-8.5c0-6.9-1.2-9.6-8.2-9.6c-6.6,0-8.2,2.7-8.2,9.5v8.5c0,6.9,1.2,9.8,8.2,9.8
		C290.9,137.3,292.5,134.4,292.5,127.6z"/>
	<path class="st0" d="M305.4,143.8c0.2,3.4,1.6,5.5,7.4,5.5c6.7,0,8.5-2.8,8.5-9.4v-4.1c-1.8,3-4.9,3.9-8.9,3.9
		c-7.2,0-10.9-2.9-10.9-11.1v-10c0-8.7,3.6-11.4,11.4-11.5c4.2,0,7,1.2,8.6,4v-3.6h2.7v32.5c0,8.8-3.8,12-11.5,12
		c-6.7,0-9.9-2.4-10.3-8H305.4z M321.2,119.4c0-6.2-1.8-9.9-8.2-9.9c-6.4,0.1-8.4,2.2-8.4,9v10c0.1,6.6,2.6,8.3,8.1,8.3
		c6.1,0,8.4-2.9,8.4-8.3V119.4z"/>
	<path class="st0" d="M328.8,148.7c4.3,1.4,6.1,0.3,7.5-3.5l1.6-5.7l-10.4-32.2l3.3-2l3.9,15l4.8,14.9h0.1l4.1-14.9l3.9-13l3.7-1.3
		l-12,39.5c-1.8,5.7-5.2,7.4-11.5,5.6L328.8,148.7z"/>
</g>
</svg>
