<?xml version="1.0" encoding="utf-8"?>
<!-- Generator: Adobe Illustrator 19.1.0, SVG Export Plug-In . SVG Version: 6.00 Build 0)  -->
<svg version="1.1" id="Layer_1" xmlns="http://www.w3.org/2000/svg" xmlns:xlink="http://www.w3.org/1999/xlink" x="0px" y="0px"
	 viewBox="0 0 113.7 163.7" style="enable-background:new 0 0 113.7 163.7;" xml:space="preserve">
<style type="text/css">
	.st0{fill:#FFFFFF;}
</style>
<g>
	<path class="st0" d="M34,153.6v-20.5c0-6.8-1.4-9.4-7.9-9.4c-5.5,0-8,2.3-8,8.1v21.8h-3v-42.6h3v13.3c1.5-2.4,5.2-3.4,7.9-3.4
		c7.9,0,11,3.3,11,12.2v20.4H34z"/>
	<path class="st0" d="M66.8,132.6v10.4c0,7.6-4.2,10.8-11.2,10.8c-3.7,0-6.2-0.8-8.2-2.9v12.7h-3v-42.5h2.7l0.3,3.5
		c1.7-2.3,4.4-3.7,8.8-3.7C63.6,121,66.8,124.2,66.8,132.6z M55.9,123.6c-6.2,0.1-8.4,3.1-8.4,8.4v10.6c-0.1,6.1,1.6,8.7,8.2,8.7
		c6.6,0,8.2-2.9,8.2-8.3v-10.3C63.8,125.5,61.2,123.6,55.9,123.6z"/>
	<path class="st0" d="M73.6,141.9v-8.8c0-9.1,3.6-12,11.2-12c7.6,0,11.2,2.7,11.2,12.2v8.7c0,8.9-3.6,12.1-11.2,12.1
		C77.2,154,73.6,151.3,73.6,141.9z M93,141.8v-8.5c0-6.9-1.2-9.6-8.2-9.6c-6.6,0-8.2,2.7-8.2,9.5v8.5c0,6.9,1.2,9.8,8.2,9.8
		C91.4,151.5,93,148.6,93,141.8z"/>
</g>
<path class="st0" d="M55.5,27.4c15.4,0,27.9,12.5,27.9,27.9c0,12.7-8.5,23.5-20.2,26.8c-0.1-0.1-0.1-0.2-0.2-0.3
	c-0.9-2.1-0.6-4.6,0.1-6.7c0.3-1.1,1-2.7,2.4-2.7c1,0,2,0.1,3,0.1c1.2,0,2.3-0.3,3.2-1c0.5-0.4,0.8-0.9,0.9-1.5c0-0.3,0-0.6-0.1-0.8
	c-0.2-0.5-0.2-1.1-0.1-1.7c0.1-0.4,0.3-0.7,0.6-0.9c0.2-0.2,0.2-0.3,0.2-0.6c-0.1-0.4-0.3-0.7-0.6-0.9c0,0-0.1,0-0.1-0.1
	c0,0,0,0,0,0c0.3-0.1,0.6-0.3,0.7-0.6c0.1-0.1,0.1-0.3,0-0.4c-0.1-0.1-0.1-0.2-0.2-0.4c-0.3-0.5-0.4-0.9-0.2-1.5
	c0.1-0.2,0.2-0.3,0.3-0.4c0.7-0.3,1.6-0.5,1.5-1.5c-0.1-0.6-0.4-1.1-0.7-1.7c-0.5-0.8-0.9-1.7-1.4-2.5c-0.2-0.4-0.4-0.7-0.5-1.1
	c-0.1-0.3-0.2-0.7-0.2-1C71.2,45.6,64.2,39,55.5,39c-7.1,0-13.2,4.6-15.4,11c-0.6,1.7-1,3.6-1,5.6c0,3.6,1.2,7.2,3.5,10.1
	c1.4,1.8,3.2,3,4,5.2c1,2.7,1,5.6,0.9,8.5c-0.1,3.3-0.9,2.5-3.4,1.4c-1.1-0.5-2.2-1.1-3.2-1.7c-2.1-1.3-4-2.8-5.6-4.6
	c-3.4-3.6-5.8-8-6.8-12.8c-0.5-2-0.7-4.1-0.7-6.2C27.7,39.9,40.2,27.4,55.5,27.4z"/>
<path class="st0" d="M55.5,4.8C27.7,4.8,5.1,27.5,5.1,55.3c0,18.5,10,34.7,24.9,43.5c1.3-3.1,3.2-5.9,5.6-8.3
	C23.3,83.6,15,70.4,15,55.3c0-22.4,18.2-40.5,40.5-40.5s40.5,18.2,40.5,40.5c0,15.1-8.3,28.2-20.5,35.2c2.3,2.4,4.2,5.2,5.6,8.2
	C96,90,106,73.8,106,55.3C106,27.5,83.3,4.8,55.5,4.8z"/>
<path class="st0" d="M58.3,90.5l0.2-26.1c3.3-1.2,5.7-4.4,5.7-8.2c0-4.8-3.9-8.7-8.7-8.7s-8.7,3.9-8.7,8.7c0,3.8,2.5,7.1,5.9,8.3
	l-0.2,26.1c-3.3,1.2-5.7,4.4-5.7,8.2c0,4.8,3.9,8.7,8.7,8.7s8.7-3.9,8.7-8.7C64.2,94.9,61.8,91.7,58.3,90.5z"/>
</svg>
