<?xml version="1.0" encoding="utf-8"?>
<!-- Generator: Adobe Illustrator 19.1.0, SVG Export Plug-In . SVG Version: 6.00 Build 0)  -->
<svg version="1.1" id="Layer_1" xmlns="http://www.w3.org/2000/svg" xmlns:xlink="http://www.w3.org/1999/xlink" x="0px" y="0px"
	 viewBox="-203.1 203.4 395.3 151" style="enable-background:new -203.1 203.4 395.3 151;" xml:space="preserve">
<style type="text/css">
	.st0{fill:#231F20;}
</style>
<g>
	<g>
		<path class="st0" d="M-133.3,239.4c21.3,0,38.5,17.3,38.5,38.5c0,17.6-11.8,32.5-28,37.1c-0.1-0.1-0.1-0.3-0.2-0.4
			c-1.2-2.9-0.8-6.3,0.1-9.3c0.4-1.5,1.4-3.7,3.3-3.7c1.4,0,2.8,0.1,4.2,0.1c1.6,0,3.2-0.4,4.5-1.4c0.7-0.5,1.1-1.2,1.2-2
			c0.1-0.4,0-0.8-0.2-1.2c-0.3-0.8-0.3-1.5-0.1-2.3c0.1-0.5,0.5-1,0.9-1.3c0.3-0.2,0.3-0.5,0.2-0.8c-0.1-0.5-0.4-0.9-0.9-1.2
			c0,0-0.1,0-0.1-0.1c0,0,0,0,0-0.1c0.4-0.2,0.8-0.4,1-0.8c0.1-0.2,0.1-0.4,0.1-0.6c-0.1-0.2-0.2-0.3-0.2-0.5
			c-0.4-0.6-0.5-1.3-0.2-2c0.1-0.2,0.2-0.4,0.4-0.5c1-0.4,2.2-0.7,2-2.1c-0.1-0.8-0.5-1.6-0.9-2.3c-0.6-1.1-1.3-2.3-1.9-3.4
			c-0.3-0.5-0.5-1-0.7-1.5c-0.2-0.5-0.2-0.9-0.3-1.3c-1-11.7-10.8-20.9-22.7-20.9c-9.9,0-18.3,6.3-21.3,15.2c-0.9,2.4-1.4,5-1.4,7.8
			c0,5,1.7,10,4.8,13.9c1.4,1.8,3.5,3.1,4.8,5c1.3,1.9,1.5,4.2,1.6,6.4c0.2,3.9,0.3,7.8-0.8,11.5c-0.2-0.9-2.8-1.8-3.6-2.1
			c-1.5-0.7-3-1.5-4.5-2.4c-2.9-1.8-5.5-3.9-7.8-6.4c-4.7-5-8-11.1-9.5-17.7c-0.6-2.8-1-5.7-1-8.6
			C-171.8,256.7-154.6,239.4-133.3,239.4z"/>
		<path class="st0" d="M-133.3,208.2c-38.5,0-69.8,31.3-69.8,69.8c0,25.6,13.9,48,34.5,60.2c1.9-4.3,4.5-8.1,7.7-11.4
			c-17-9.7-28.5-28-28.5-48.8c0-30.9,25.2-56.1,56.1-56.1s56.1,25.2,56.1,56.1c0,20.9-11.5,39.1-28.4,48.7c3.2,3.3,5.8,7.1,7.7,11.4
			c20.6-12.1,34.4-34.5,34.4-60.1C-63.6,239.5-94.9,208.2-133.3,208.2z"/>
		<path class="st0" d="M-130,331.5l0.2-42.5c3.9-1.4,6.7-5.2,6.7-9.6c0-5.6-4.6-10.2-10.2-10.2c-5.6,0-10.2,4.6-10.2,10.2
			c0,4.5,2.9,8.3,6.9,9.7l-0.2,42.6c-3.9,1.4-6.7,5.2-6.7,9.6c0,5.6,4.6,10.2,10.2,10.2c5.6,0,10.2-4.6,10.2-10.2
			C-123.1,336.6-126,332.8-130,331.5z"/>
	</g>
	<g>
		<path class="st0" d="M-32.4,247.8v-20.5c0-6.8-1.4-9.4-7.9-9.4c-5.5,0-8,2.3-8,8.1v21.8h-3v-44.4l3,1.8v13.3
			c1.5-2.4,5.2-3.4,7.9-3.4c7.9,0,11,3.3,11,12.2v20.4L-32.4,247.8L-32.4,247.8z"/>
		<path class="st0" d="M0,247.8l-0.2-3.5c-1.6,2.4-4.6,4-8.9,4c-8.3,0-10.9-3.4-10.9-11.7v-20.8h3v20.8c0,7.2,1.8,9.3,8.1,9.3
			c6.4,0,8.5-4,8.5-7.7v-22.4h3v32H0z"/>
		<path class="st0" d="M14.4,215.8h2.8l0.3,2.6c1.9-2.3,4.9-3.2,8.7-3.2c5.2,0,8.3,2,9.5,4.7c2.9-4,6.3-4.7,10.2-4.7
			c8.7,0,10.9,4.2,10.9,11.8v20.8h-3v-20.9c0-6.8-1.5-9.2-8.1-9.2s-8.6,3.7-8.6,8.4v21.7h-3v-20.9c0-6-1.5-9.2-8.1-9.2
			s-8.5,2.8-8.5,7.3v22.8h-3L14.4,215.8L14.4,215.8z"/>
		<path class="st0" d="M85.4,247.5l-0.1-4.3c-2.4,3.6-5.7,4.6-10.4,4.6c-5.8,0-9.9-2.4-9.9-8.5c0-8,7.6-9.6,20-8.8v-4.6
			c0.1-5.7-2.1-8.2-7.7-8.2c-5,0-7.7,1.4-7.7,7.6h-2.9c0-6.8,3-10,10.6-10c7.2,0,10.6,3.1,10.6,10.6v21.7L85.4,247.5L85.4,247.5z
			 M85,233.1c-11.6-1-17,0.6-17,6.2c0,4.1,2.6,5.9,7.9,5.9c6.7,0,9-4.6,9-7.9v-4.2H85z"/>
		<path class="st0" d="M100.8,215.8l0.2,3.4c1.6-2.4,4.6-4,8.9-4c8.3,0,10.9,3.4,10.9,11.7v20.9h-3v-20.9c0-7.2-1.8-9.3-8.1-9.3
			s-8.5,4-8.5,7.7v21.5l-3,1v-32C98.2,215.8,100.8,215.8,100.8,215.8z"/>
		<path class="st0" d="M-28.2,273.8v10.4c0,7.6-4.2,10.8-11.2,10.8c-3.7,0-6.2-0.8-8.2-2.9v15.7l-3,2.7v-48.2h2.7l0.3,3.5
			c1.7-2.3,4.4-3.7,8.8-3.7C-31.4,262.2-28.2,265.4-28.2,273.8z M-39.2,264.8c-6.2,0.1-8.4,3.1-8.4,8.4v10.6
			c-0.1,6.1,1.6,8.7,8.2,8.7s8.2-2.9,8.2-8.3v-10.3C-31.2,266.6-33.8,264.8-39.2,264.8z"/>
		<path class="st0" d="M-2.2,294.8v-20.5c0-6.8-1.4-9.4-7.9-9.4c-5.5,0-8,2.3-8,8.1v21.8h-3v-44.4l3,1.9v13.3
			c1.5-2.4,5.2-3.4,7.9-3.4c7.9,0,11,3.3,11,12.2v20.4L-2.2,294.8L-2.2,294.8z"/>
		<path class="st0" d="M30.4,286c0,5.8-3.3,8.9-10.5,8.9c-7.6,0-11.2-3.2-11.2-12v-8.7c0-8.8,3.6-12.2,11.2-12.2
			c8.2,0,10.9,3.7,10.9,12.2v4.8H11.6v3.6c0,6.6,1.7,9.7,8.3,9.7c6.5,0,7.8-2.6,7.8-6.5h2.7V286z M28.1,276.6v-2.2
			c0-6.2-1.2-9.9-8.3-9.9c-6.6,0-8.3,3-8.3,9.8v2.4h16.6V276.6z"/>
		<path class="st0" d="M40.2,262.8l0.2,3.4c1.6-2.4,4.5-4,8.9-4c8.3,0,10.9,3.4,10.9,11.7v19.9l-3,1v-20.9c0-7.2-1.8-9.3-8.1-9.3
			c-6.4,0-8.5,4-8.5,7.7v22.5h-3v-32H40.2L40.2,262.8z"/>
		<path class="st0" d="M67.4,283.1v-8.8c0-9.1,3.6-12,11.2-12s11.2,2.7,11.2,12.2v8.7c0,8.9-3.6,12.1-11.2,12.1
			C71,295.2,67.4,292.5,67.4,283.1z M86.9,283v-8.5c0-6.9-1.2-9.6-8.2-9.6c-6.6,0-8.2,2.7-8.2,9.5v8.5c0,6.9,1.2,9.8,8.2,9.8
			C85.2,292.7,86.9,289.8,86.9,283z"/>
		<path class="st0" d="M98.1,250.9l3-1.2v12.6h7.3v2.6h-7.3v20.8c0,6,2,7.2,7.8,6.8v2.4c-8.1,0.7-10.8-2-10.8-9.2V250.9z"/>
		<path class="st0" d="M115.9,306.1c4.3,1.4,5.1-1.7,6.5-5.5l1.6-5.7l-7.4-32.2h3.3l1.9,13l3.8,14.9h0.1l4.1-14.9l3.9-13h3.3
			l-11.6,38.2c-1.5,4.6-3.1,9-9.5,7.6L115.9,306.1L115.9,306.1z"/>
		<path class="st0" d="M165.3,273.8v10.4c0,7.6-4.2,10.8-11.2,10.8c-3.7,0-6.2-0.8-8.2-2.9v14.2l-3,1v-45h2.7l0.3,3.5
			c1.7-2.3,4.4-3.7,8.8-3.7C162.1,262.2,165.3,265.4,165.3,273.8z M154.3,264.8c-6.2,0.1-8.4,3.1-8.4,8.4v10.6
			c-0.1,6.1,1.6,8.7,8.2,8.7s8.2-2.9,8.2-8.3v-10.3C162.2,266.6,159.6,264.8,154.3,264.8z"/>
		<path class="st0" d="M191.8,286c0,5.8-3.3,8.9-10.5,8.9c-7.6,0-11.2-3.2-11.2-12v-8.7c0-8.8,3.6-12.2,11.2-12.2
			c8.2,0,10.9,3.7,10.9,12.2v4.8H173v3.6c0,6.6,1.7,9.7,8.3,9.7c6.5,0,7.8-2.6,7.8-6.5h2.7L191.8,286L191.8,286z M189.6,276.6v-2.2
			c0-6.2-1.2-9.9-8.3-9.9c-6.6,0-8.3,3-8.3,9.8v2.4h16.6L189.6,276.6L189.6,276.6z"/>
		<path class="st0" d="M-51.6,330.1v-8.8c0-9.1,3.6-12,11.2-12s11.2,2.7,11.2,12.2v8.7c0,8.9-3.6,12.1-11.2,12.1
			C-48,342.2-51.6,339.5-51.6,330.1z M-32.2,330v-8.5c0-6.9-1.2-9.6-8.2-9.6c-6.6,0-8.2,2.7-8.2,9.5v8.5c0,6.9,1.2,9.8,8.2,9.8
			C-33.8,339.7-32.2,336.8-32.2,330z"/>
		<path class="st0" d="M-18.6,309.8l0.2,3.4c1.6-2.4,4.5-4,8.9-4c8.3,0,10.9,3.4,10.9,11.7v20.9h-3v-20.9c0-7.2-1.8-9.3-8.1-9.3
			c-6.4,0-8.5,4-8.5,7.7v22.5h-3v-32C-21.2,309.8-18.6,309.8-18.6,309.8z"/>
		<path class="st0" d="M8.7,295l3,2.6v11.6H19v2.6h-7.3v20.8c0,6,2,7.2,7.8,6.8v2.4c-8.1,0.7-10.8-2-10.8-9.2V295z"/>
		<path class="st0" d="M24.4,330.1v-8.8c0-9.1,3.6-12,11.2-12c7.6,0,11.2,2.7,11.2,12.2v8.7c0,8.9-3.6,12.1-11.2,12.1
			C27.9,342.2,24.4,339.5,24.4,330.1z M43.8,330v-8.5c0-6.9-1.2-9.6-8.2-9.6c-6.6,0-8.2,2.7-8.2,9.5v8.5c0,6.9,1.2,9.8,8.2,9.8
			C42.1,339.7,43.8,336.8,43.8,330z"/>
		<path class="st0" d="M65.8,341.9c-7.4,0.4-8.7-1.9-8.7-9.1v-34.6l3-1v35.7c0,5.7,0.7,6.5,5.7,6.5V341.9z"/>
		<path class="st0" d="M67.7,330.1v-8.8c0-9.1,3.6-12,11.2-12s11.2,2.7,11.2,12.2v8.7c0,8.9-3.6,12.1-11.2,12.1
			C71.3,342.2,67.7,339.5,67.7,330.1z M87.1,330v-8.5c0-6.9-1.2-9.6-8.2-9.6c-6.6,0-8.2,2.7-8.2,9.5v8.5c0,6.9,1.2,9.8,8.2,9.8
			C85.5,339.7,87.1,336.8,87.1,330z"/>
		<path class="st0" d="M100,346.2c0.2,3.4,1.6,5.5,7.4,5.5c6.7,0,8.5-2.8,8.5-9.4v-4.1c-1.8,3-4.9,3.9-8.9,3.9
			c-7.2,0-10.9-2.9-10.9-11.1v-10c0-8.7,3.6-11.4,11.4-11.5c4.2,0,7,1.2,8.6,4v-3.6h2.7v32.5c0,8.8-3.8,12-11.5,12
			c-6.7,0-9.9-2.4-10.3-8h3V346.2L100,346.2z M115.8,321.8c0-6.2-1.8-9.9-8.2-9.9c-6.4,0.1-8.4,2.2-8.4,9v10
			c0.1,6.6,2.6,8.3,8.1,8.3c6.1,0,8.4-2.9,8.4-8.3L115.8,321.8L115.8,321.8z"/>
		<path class="st0" d="M122.4,351.1c4.3,1.4,7.1,0.3,8.5-3.5l1.6-5.7l-9.4-32.2l3.3-2l2.9,15l4.8,14.9h0.1l4.1-14.9l3.9-13l3.7-1.3
			l-12,39.5c-1.8,5.7-5.2,7.4-11.5,5.6V351.1z"/>
	</g>
</g>
</svg>
