<svg id="logos" xmlns="http://www.w3.org/2000/svg" viewBox="0 0 162 162"><defs><style>.cls-1{fill:#fff;}.cls-2{fill:#666;}</style></defs><title>maxo_logo</title><path d="M81,162a81,81,0,1,1,81-81A81.092,81.092,0,0,1,81,162ZM81,16a65,65,0,1,0,65,65A65.0737,65.0737,0,0,0,81,16Z"/><g id="oFuDpS.tif"><path class="cls-1" d="M93.2271,74.1445c-.0955.0889-.1846.1669-.2681.2505q-7.6437,7.6568-15.2863,15.3144-11.4956,11.5191-22.99,23.0393a7.3242,7.3242,0,0,0-2.11,7.1536,7.4384,7.4384,0,0,0,8.5337,5.6566A7.67,7.67,0,0,0,65.312,123.32q16.497-16.513,33.0062-33.0136c.1793-.1794.36-.3583.5277-.5482a7.6728,7.6728,0,0,0,2.0055-4.7046,6.6635,6.6635,0,0,0-2.0281-5.3073q-2.7007-2.7067-5.3946-5.42C93.3705,74.2671,93.3059,74.215,93.2271,74.1445Zm-23.6007,21.34a4.0393,4.0393,0,0,1,.2911-.3765q5.3235-5.36,10.6526-10.715,6.4242-6.4377,12.8642-12.86,5.4844-5.4827,10.967-10.9671c1.3664-1.3668,2.7579-2.71,4.0907-4.1087A7.5259,7.5259,0,0,0,97.6126,46.0583q-6.961,6.953-13.9151,13.9126-9.6606,9.66-19.32,19.3208a7.681,7.681,0,0,0-.6661,10.1714,30.277,30.277,0,0,0,2.3811,2.4812C67.2378,93.1034,68.3944,94.2516,69.6264,95.4847Zm12.995,12.9791c.0674.0711.14.1509.2155.2269q7.3672,7.368,14.7355,14.7349.2178.2176.4483.4224A7.5282,7.5282,0,0,0,108.2314,112.79q-7.374-7.3869-14.76-14.762c-.0757-.0757-.1547-.1479-.2122-.2028ZM69.5259,71.6024,80.119,61.0085c-.0026-.0028-.0412-.048-.0831-.09q-7.3917-7.3911-14.7856-14.78a7.3044,7.3044,0,0,0-7.0326-2.0942,7.493,7.493,0,0,0-3.5524,12.7168q7.3107,7.2927,14.6061,14.6008C69.3721,71.4629,69.4785,71.5578,69.5259,71.6024Zm28.47,21.4018h.5076q9.0395,0,18.079-.006a10.5986,10.5986,0,0,0,1.6548-.1382,8.3651,8.3651,0,0,0-1.5781-16.5973q-9.257-.0066-18.5137-.0012h-.3766c.1322.1419.2094.2292.2913.3119.68.6864,1.3752,1.3582,2.0384,2.06a8.3863,8.3863,0,0,1,2.321,7.4147,9.5169,9.5169,0,0,1-2.7128,5.2493C99.1682,91.8486,98.6163,92.3859,97.9954,93.0042ZM64.0829,77.2433l-.0543-.092h-.3132q-9.0756,0-18.1513.0039a8.4105,8.4105,0,0,0-1.1888.0832,7.4912,7.4912,0,0,0,1.2319,14.8864c5.9658-.025,11.9318-.0063,17.8976-.0072.1009,0,.2018-.0143.3887-.0284a9.356,9.356,0,0,1-3.4586-7.4924A9.5018,9.5018,0,0,1,64.0829,77.2433Z"/><path class="cls-2" d="M93.2271,74.1445c.0788.0705.1434.1226.2016.181q2.6976,2.71,5.3946,5.42a6.6635,6.6635,0,0,1,2.0281,5.3073,7.6728,7.6728,0,0,1-2.0055,4.7046c-.1677.19-.3484.3688-.5277.5482Q81.814,106.8117,65.312,123.32a7.67,7.67,0,0,1-4.2061,2.2393,7.4384,7.4384,0,0,1-8.5337-5.6566,7.3242,7.3242,0,0,1,2.11-7.1536q11.495-11.52,22.99-23.0393Q85.3149,82.0513,92.959,74.395C93.0425,74.3114,93.1316,74.2334,93.2271,74.1445Z"/><path d="M69.6264,95.4847c-1.232-1.2331-2.3886-2.3813-3.5343-3.54a30.277,30.277,0,0,1-2.3811-2.4812,7.681,7.681,0,0,1,.6661-10.1714q9.6579-9.6629,19.32-19.3208,6.957-6.9567,13.9151-13.9126A7.5259,7.5259,0,0,1,108.492,56.4577c-1.3328,1.3988-2.7243,2.7419-4.0907,4.1087q-5.4827,5.4843-10.967,10.9671-6.432,6.43-12.8642,12.86-5.3364,5.3475-10.6526,10.715A4.0393,4.0393,0,0,0,69.6264,95.4847Z"/><path d="M82.6214,108.4638,93.2592,97.8254c.0575.0549.1365.1271.2122.2028q7.3809,7.38,14.76,14.762A7.5282,7.5282,0,0,1,98.0207,123.848q-.23-.2043-.4483-.4224-7.3686-7.3665-14.7355-14.7349C82.7609,108.6147,82.6888,108.5349,82.6214,108.4638Z"/><path class="cls-2" d="M69.5259,71.6024c-.0474-.0446-.1538-.1395-.2545-.24q-7.3023-7.3013-14.6061-14.6008a7.493,7.493,0,0,1,3.5524-12.7168A7.3044,7.3044,0,0,1,65.25,46.1389q7.4005,7.3821,14.7856,14.78c.0419.0419.0805.0871.0831.09Z"/><path d="M97.9954,93.0042c.6209-.6183,1.1728-1.1556,1.7109-1.7065a9.5169,9.5169,0,0,0,2.7128-5.2493,8.3863,8.3863,0,0,0-2.321-7.4147c-.6632-.7021-1.3585-1.3739-2.0384-2.06-.0819-.0827-.1591-.17-.2913-.3119h.3766q9.2568,0,18.5137.0012A8.3651,8.3651,0,0,1,118.2368,92.86a10.5986,10.5986,0,0,1-1.6548.1382q-9.0394.0144-18.079.006Z"/><path class="cls-2" d="M64.0829,77.2433a9.5018,9.5018,0,0,0-3.648,7.3535,9.356,9.356,0,0,0,3.4586,7.4924c-.1869.0141-.2878.0284-.3887.0284-5.9658.0009-11.9318-.0178-17.8976.0072a7.4912,7.4912,0,0,1-1.2319-14.8864,8.4105,8.4105,0,0,1,1.1888-.0832q9.0756-.0078,18.1513-.0039h.3132Z"/></g></svg>