<svg id="logos" xmlns="http://www.w3.org/2000/svg" viewBox="0 0 162 162"><defs><style>.cls-1{fill:#fff;}.cls-2{fill:#b6b6b6;}</style></defs><title>maxo_logo</title><path class="cls-1" d="M81,162a81,81,0,1,1,81-81A81.092,81.092,0,0,1,81,162ZM81,16a65,65,0,1,0,65,65A65.0737,65.0737,0,0,0,81,16Z"/><g id="oFuDpS.tif"><path class="cls-1" d="M92.6212,74.1445c-.0954.0889-.1846.1669-.2681.2505Q84.71,82.0518,77.0668,89.7094q-11.4954,11.5191-22.99,23.0393a7.3242,7.3242,0,0,0-2.1106,7.1536A7.4385,7.4385,0,0,0,60.5,125.5589a7.6707,7.6707,0,0,0,4.2061-2.2393Q81.203,106.8066,97.7123,90.306c.1794-.1794.36-.3583.5278-.5482a7.6728,7.6728,0,0,0,2.0055-4.7046,6.6639,6.6639,0,0,0-2.0281-5.3073q-2.7007-2.7067-5.3947-5.42C92.7647,74.2671,92.7,74.215,92.6212,74.1445Zm-23.6006,21.34a4.0393,4.0393,0,0,1,.2911-.3765q5.3234-5.36,10.6525-10.715,6.4244-6.4377,12.8643-12.86,5.4844-5.4827,10.967-10.9671c1.3664-1.3668,2.7578-2.71,4.0906-4.1087A7.5259,7.5259,0,0,0,97.0067,46.0583q-6.9609,6.953-13.9151,13.9126-9.66,9.66-19.32,19.3208a7.681,7.681,0,0,0-.6661,10.1714,30.26,30.26,0,0,0,2.3811,2.4812C66.6319,93.1034,67.7885,94.2516,69.0206,95.4847Zm12.9949,12.9791c.0674.0711.14.1509.2155.2269q7.3673,7.368,14.7356,14.7349.2176.2176.4482.4224A7.5283,7.5283,0,0,0,107.6256,112.79q-7.3741-7.3869-14.76-14.762c-.0756-.0757-.1547-.1479-.2122-.2028ZM68.92,71.6024,79.5131,61.0085c-.0025-.0028-.0412-.048-.0831-.09q-7.3915-7.3911-14.7855-14.78a7.3046,7.3046,0,0,0-7.0326-2.0942A7.4929,7.4929,0,0,0,54.06,56.7615Q61.37,64.0542,68.6656,71.3623C68.7662,71.4629,68.8726,71.5578,68.92,71.6024ZM97.39,93.0042h.5076q9.0395,0,18.0789-.006a10.6,10.6,0,0,0,1.6549-.1382,8.3651,8.3651,0,0,0-1.5782-16.5973q-9.2568-.0066-18.5137-.0012h-.3765c.1321.1419.2093.2292.2913.3119.68.6864,1.3751,1.3582,2.0384,2.06a8.3863,8.3863,0,0,1,2.321,7.4147,9.5169,9.5169,0,0,1-2.7128,5.2493C98.5624,91.8486,98.01,92.3859,97.39,93.0042ZM63.477,77.2433l-.0543-.092H63.11q-9.0756,0-18.1512.0039a8.41,8.41,0,0,0-1.1888.0832,7.4912,7.4912,0,0,0,1.2319,14.8864c5.9657-.025,11.9317-.0063,17.8976-.0072.1009,0,.2017-.0143.3886-.0284a9.3563,9.3563,0,0,1-3.4586-7.4924A9.5021,9.5021,0,0,1,63.477,77.2433Z"/><path class="cls-2" d="M92.6212,74.1445c.0789.0705.1435.1226.2016.181q2.6976,2.71,5.3947,5.42a6.6639,6.6639,0,0,1,2.0281,5.3073A7.6728,7.6728,0,0,1,98.24,89.7578c-.1678.19-.3484.3688-.5278.5482Q81.2081,106.8117,64.7062,123.32A7.6707,7.6707,0,0,1,60.5,125.5589a7.4385,7.4385,0,0,1-8.5338-5.6566,7.3242,7.3242,0,0,1,2.1106-7.1536q11.4949-11.52,22.99-23.0393,7.6423-7.6581,15.2863-15.3144C92.4366,74.3114,92.5258,74.2334,92.6212,74.1445Z"/><path class="cls-1" d="M69.0206,95.4847c-1.2321-1.2331-2.3887-2.3813-3.5343-3.54a30.26,30.26,0,0,1-2.3811-2.4812,7.681,7.681,0,0,1,.6661-10.1714q9.6578-9.6629,19.32-19.3208,6.9571-6.9567,13.9151-13.9126a7.5259,7.5259,0,0,1,10.8794,10.3994c-1.3328,1.3988-2.7242,2.7419-4.0906,4.1087q-5.4828,5.4843-10.967,10.9671-6.4321,6.43-12.8643,12.86-5.3363,5.3475-10.6525,10.715A4.0393,4.0393,0,0,0,69.0206,95.4847Z"/><path class="cls-1" d="M82.0155,108.4638,92.6533,97.8254c.0575.0549.1366.1271.2122.2028q7.3809,7.38,14.76,14.762A7.5283,7.5283,0,0,1,97.4148,123.848q-.23-.2043-.4482-.4224-7.3686-7.3665-14.7356-14.7349C82.1551,108.6147,82.0829,108.5349,82.0155,108.4638Z"/><path class="cls-2" d="M68.92,71.6024c-.0474-.0446-.1538-.1395-.2544-.24Q61.3633,64.0611,54.06,56.7615a7.4929,7.4929,0,0,1,3.5524-12.7168,7.3046,7.3046,0,0,1,7.0326,2.0942q7.4,7.3821,14.7855,14.78c.0419.0419.0806.0871.0831.09Z"/><path class="cls-1" d="M97.39,93.0042c.6208-.6183,1.1728-1.1556,1.7109-1.7065a9.5169,9.5169,0,0,0,2.7128-5.2493,8.3863,8.3863,0,0,0-2.321-7.4147c-.6633-.7021-1.3586-1.3739-2.0384-2.06-.082-.0827-.1592-.17-.2913-.3119h.3765q9.257,0,18.5137.0012A8.3651,8.3651,0,0,1,117.631,92.86a10.6,10.6,0,0,1-1.6549.1382q-9.0395.0144-18.0789.006Z"/><path class="cls-2" d="M63.477,77.2433a9.5021,9.5021,0,0,0-3.648,7.3535,9.3563,9.3563,0,0,0,3.4586,7.4924c-.1869.0141-.2877.0284-.3886.0284-5.9659.0009-11.9319-.0178-17.8976.0072A7.4912,7.4912,0,0,1,43.77,77.2384a8.41,8.41,0,0,1,1.1888-.0832q9.0756-.0078,18.1512-.0039h.3132Z"/></g></svg>