<svg id="logos" xmlns="http://www.w3.org/2000/svg" viewBox="0 0 291.1275 322.4839"><defs><style>.cls-1{font-size:12.5787px;font-family:AppleSDGothicNeo-UltraLight-KSCpc-EUC-H, Apple SD Gothic Neo;letter-spacing:-0.021em;}.cls-1,.cls-3,.cls-4{fill:#fff;}.cls-2{letter-spacing:-0.042em;}.cls-3{font-size:71.3736px;font-family:KelsonSans-Light, Kelson Sans;letter-spacing:0.072em;}.cls-5{fill:#b6b6b6;}</style></defs><title>maxo_logo</title><text class="cls-1" transform="translate(52.8693 294.7666) scale(1.25 1)">MEDICAL <tspan class="cls-2" x="49.2695" y="0">A</tspan><tspan x="56.1883" y="0">CTION ONTOLOGY</tspan></text><text class="cls-3" transform="translate(52.5543 267.4258) scale(1.0591 1)">maxo</text><path class="cls-4" d="M144.3379,203.27a81,81,0,1,1,81-81A81.092,81.092,0,0,1,144.3379,203.27Zm0-146a65,65,0,1,0,65,65A65.0737,65.0737,0,0,0,144.3379,57.27Z"/><g id="oFuDpS.tif"><path class="cls-4" d="M155.9591,115.4145c-.0954.0889-.1846.1669-.2681.2506q-7.6435,7.6566-15.2863,15.3143-11.4955,11.5191-22.99,23.0393a7.324,7.324,0,0,0-2.1106,7.1536,7.4384,7.4384,0,0,0,8.5337,5.6566,7.6709,7.6709,0,0,0,4.2062-2.2393q16.4969-16.513,33.0061-33.0136c.1793-.1794.36-.3583.5278-.5482a7.6731,7.6731,0,0,0,2.0055-4.7046,6.6639,6.6639,0,0,0-2.0281-5.3073q-2.7007-2.7068-5.3947-5.42C156.1025,115.5371,156.038,115.485,155.9591,115.4145Zm-23.6006,21.34a4.0223,4.0223,0,0,1,.2911-.3765q5.3234-5.36,10.6525-10.715,6.4242-6.4377,12.8642-12.86,5.4844-5.4827,10.9671-10.9671c1.3664-1.3668,2.7578-2.71,4.0906-4.1087a7.5259,7.5259,0,0,0-10.8794-10.3994q-6.961,6.953-13.9151,13.9126-9.66,9.66-19.32,19.3208a7.6809,7.6809,0,0,0-.6661,10.1714,30.2436,30.2436,0,0,0,2.3811,2.4812C129.97,134.3734,131.1264,135.5216,132.3585,136.7547Zm12.9949,12.9791c.0674.0711.1395.1509.2155.2269q7.3672,7.368,14.7356,14.735.2177.2175.4482.4223A7.5283,7.5283,0,0,0,170.9635,154.06q-7.3741-7.3869-14.76-14.762c-.0757-.0757-.1547-.1479-.2122-.2028Zm-13.0955-36.8614,10.5931-10.5939c-.0026-.0028-.0412-.048-.0831-.09q-7.3915-7.3911-14.7856-14.78a7.3043,7.3043,0,0,0-7.0325-2.0942,7.4929,7.4929,0,0,0-3.5525,12.7168q7.3107,7.2927,14.6061,14.6008C132.1041,112.7329,132.2105,112.8278,132.2579,112.8724Zm28.47,21.4018h.5075q9.04,0,18.079-.006a10.6,10.6,0,0,0,1.6549-.1382,8.3651,8.3651,0,0,0-1.5782-16.5973q-9.2568-.0066-18.5137-.0012H160.5c.1322.1419.2094.2292.2913.312.68.6863,1.3752,1.3581,2.0384,2.06a8.3861,8.3861,0,0,1,2.3211,7.4147,9.5176,9.5176,0,0,1-2.7128,5.2493C161.9,133.1186,161.3483,133.6559,160.7275,134.2742Zm-33.9126-15.7609-.0543-.092h-.3132q-9.0756,0-18.1513.0039a8.4116,8.4116,0,0,0-1.1888.0832,7.4912,7.4912,0,0,0,1.2319,14.8864c5.9658-.025,11.9318-.0063,17.8977-.0072.1008,0,.2017-.0143.3886-.0284a9.356,9.356,0,0,1-3.4586-7.4924A9.5018,9.5018,0,0,1,126.8149,118.5133Z"/><path class="cls-5" d="M155.9591,115.4145c.0789.07.1434.1226.2016.181q2.6976,2.71,5.3947,5.42a6.6639,6.6639,0,0,1,2.0281,5.3073,7.6731,7.6731,0,0,1-2.0055,4.7046c-.1678.19-.3485.3688-.5278.5482Q144.546,148.0817,128.0441,164.59a7.6709,7.6709,0,0,1-4.2062,2.2393,7.4384,7.4384,0,0,1-8.5337-5.6566,7.324,7.324,0,0,1,2.1106-7.1536q11.4948-11.52,22.99-23.0393,7.6422-7.6581,15.2863-15.3143C155.7745,115.5814,155.8637,115.5034,155.9591,115.4145Z"/><path class="cls-4" d="M132.3585,136.7547c-1.2321-1.2331-2.3887-2.3813-3.5343-3.54a30.2436,30.2436,0,0,1-2.3811-2.4812,7.6809,7.6809,0,0,1,.6661-10.1714q9.6577-9.6629,19.32-19.3208,6.9572-6.9567,13.9151-13.9126A7.5259,7.5259,0,0,1,171.224,97.7277c-1.3328,1.3988-2.7242,2.7419-4.0906,4.1087q-5.4828,5.4843-10.9671,10.9671-6.432,6.43-12.8642,12.86-5.3364,5.3475-10.6525,10.715A4.0223,4.0223,0,0,0,132.3585,136.7547Z"/><path class="cls-4" d="M145.3534,149.7338l10.6378-10.6384c.0575.0549.1365.1271.2122.2028q7.3809,7.38,14.76,14.762a7.5283,7.5283,0,0,1-10.2108,11.0578q-.23-.2043-.4482-.4223-7.3686-7.3666-14.7356-14.735C145.4929,149.8847,145.4208,149.8049,145.3534,149.7338Z"/><path class="cls-5" d="M132.2579,112.8724c-.0474-.0446-.1538-.1395-.2545-.24q-7.3021-7.3013-14.6061-14.6008A7.4929,7.4929,0,0,1,120.95,85.3147a7.3043,7.3043,0,0,1,7.0325,2.0942q7.4005,7.3821,14.7856,14.78c.0419.0419.0805.0871.0831.09Z"/><path class="cls-4" d="M160.7275,134.2742c.6208-.6183,1.1728-1.1556,1.7109-1.7065a9.5176,9.5176,0,0,0,2.7128-5.2493,8.3861,8.3861,0,0,0-2.3211-7.4147c-.6632-.7021-1.3585-1.3739-2.0384-2.06-.0819-.0828-.1591-.17-.2913-.312h.3766q9.2568,0,18.5137.0012a8.3651,8.3651,0,0,1,1.5782,16.5973,10.6,10.6,0,0,1-1.6549.1382q-9.0394.0144-18.079.006Z"/><path class="cls-5" d="M126.8149,118.5133a9.5018,9.5018,0,0,0-3.648,7.3535,9.356,9.356,0,0,0,3.4586,7.4924c-.1869.0141-.2878.0284-.3886.0284-5.9659.0009-11.9319-.0178-17.8977.0072a7.4912,7.4912,0,0,1-1.2319-14.8864,8.4116,8.4116,0,0,1,1.1888-.0832q9.0758-.0078,18.1513-.0039h.3132Z"/></g></svg>