<svg id="logos" xmlns="http://www.w3.org/2000/svg" viewBox="0 0 291.1275 322.4839"><defs><style>.cls-1{font-size:12.5787px;font-family:AppleSDGothicNeo-UltraLight-KSCpc-EUC-H, Apple SD Gothic Neo;letter-spacing:-0.021em;}.cls-1,.cls-3{fill:#231f20;}.cls-2{letter-spacing:-0.042em;}.cls-3{font-size:71.3736px;font-family:KelsonSans-Light, Kelson Sans;letter-spacing:0.072em;}.cls-4{fill:#fff;}.cls-5{fill:#666;}</style></defs><title>maxo_logo</title><text class="cls-1" transform="translate(52.8693 294.7667) scale(1.25 1)">MEDICAL <tspan class="cls-2" x="49.2695" y="0">A</tspan><tspan x="56.1883" y="0">CTION ONTOLOGY</tspan></text><text class="cls-3" transform="translate(52.5543 267.4259) scale(1.0591 1)">maxo</text><path d="M144.3379,203.27a81,81,0,1,1,81-81A81.092,81.092,0,0,1,144.3379,203.27Zm0-146a65,65,0,1,0,65,65A65.0737,65.0737,0,0,0,144.3379,57.27Z"/><g id="oFuDpS.tif"><path class="cls-4" d="M156.5649,115.4145c-.0954.0889-.1845.1669-.268.2506q-7.6437,7.6566-15.2864,15.3143-11.4954,11.5191-22.99,23.0393a7.3242,7.3242,0,0,0-2.1106,7.1536,7.4386,7.4386,0,0,0,8.5338,5.6566A7.67,7.67,0,0,0,128.65,164.59q16.4968-16.513,33.0061-33.0136c.1794-.1794.36-.3583.5278-.5482a7.6725,7.6725,0,0,0,2.0055-4.7046,6.6639,6.6639,0,0,0-2.0281-5.3073q-2.7007-2.7068-5.3946-5.42C156.7084,115.5371,156.6438,115.485,156.5649,115.4145Zm-23.6006,21.34a4.0393,4.0393,0,0,1,.2911-.3765q5.3235-5.36,10.6525-10.715,6.4243-6.4377,12.8643-12.86,5.4845-5.4827,10.967-10.9671c1.3664-1.3668,2.7579-2.71,4.0906-4.1087A7.5259,7.5259,0,0,0,160.95,87.3283q-6.9609,6.953-13.9151,13.9126-9.66,9.66-19.32,19.3208a7.681,7.681,0,0,0-.6661,10.1714,30.26,30.26,0,0,0,2.3811,2.4812C130.5756,134.3734,131.7322,135.5216,132.9643,136.7547Zm12.995,12.9791c.0674.0711.1395.1509.2154.2269q7.3672,7.368,14.7356,14.735.2178.2175.4483.4223A7.5282,7.5282,0,0,0,171.5693,154.06q-7.374-7.3869-14.76-14.762c-.0756-.0757-.1546-.1479-.2121-.2028Zm-13.0956-36.8614,10.5932-10.5939c-.0026-.0028-.0412-.048-.0832-.09q-7.3916-7.3911-14.7855-14.78a7.3044,7.3044,0,0,0-7.0326-2.0942,7.4929,7.4929,0,0,0-3.5524,12.7168q7.3107,7.2927,14.6061,14.6008C132.71,112.7329,132.8164,112.8278,132.8637,112.8724Zm28.47,21.4018h.5076q9.0394,0,18.079-.006a10.6,10.6,0,0,0,1.6548-.1382,8.3651,8.3651,0,0,0-1.5781-16.5973q-9.257-.0066-18.5138-.0012h-.3765c.1321.1419.2094.2292.2913.312.68.6863,1.3751,1.3581,2.0384,2.06a8.3863,8.3863,0,0,1,2.321,7.4147,9.5169,9.5169,0,0,1-2.7128,5.2493C162.5061,133.1186,161.9541,133.6559,161.3333,134.2742Zm-33.9126-15.7609-.0542-.092h-.3132q-9.0757,0-18.1513.0039a8.4105,8.4105,0,0,0-1.1888.0832,7.4912,7.4912,0,0,0,1.2319,14.8864c5.9658-.025,11.9317-.0063,17.8976-.0072.1009,0,.2018-.0143.3886-.0284a9.3562,9.3562,0,0,1-3.4585-7.4924A9.502,9.502,0,0,1,127.4207,118.5133Z"/><path class="cls-5" d="M156.5649,115.4145c.0789.07.1435.1226.2017.181q2.6976,2.71,5.3946,5.42a6.6639,6.6639,0,0,1,2.0281,5.3073,7.6725,7.6725,0,0,1-2.0055,4.7046c-.1677.19-.3484.3688-.5278.5482Q145.152,148.0817,128.65,164.59a7.67,7.67,0,0,1-4.2061,2.2393,7.4386,7.4386,0,0,1-8.5338-5.6566,7.3242,7.3242,0,0,1,2.1106-7.1536q11.4949-11.52,22.99-23.0393,7.6423-7.6581,15.2864-15.3143C156.38,115.5814,156.47,115.5034,156.5649,115.4145Z"/><path d="M132.9643,136.7547c-1.2321-1.2331-2.3887-2.3813-3.5343-3.54a30.26,30.26,0,0,1-2.3811-2.4812,7.681,7.681,0,0,1,.6661-10.1714q9.6579-9.6629,19.32-19.3208,6.9571-6.9567,13.9151-13.9126A7.5259,7.5259,0,0,1,171.83,97.7277c-1.3327,1.3988-2.7242,2.7419-4.0906,4.1087q-5.4828,5.4843-10.967,10.9671-6.4321,6.43-12.8643,12.86-5.3363,5.3475-10.6525,10.715A4.0393,4.0393,0,0,0,132.9643,136.7547Z"/><path d="M145.9593,149.7338l10.6378-10.6384c.0575.0549.1365.1271.2121.2028q7.3809,7.38,14.76,14.762a7.5282,7.5282,0,0,1-10.2107,11.0578q-.23-.2043-.4483-.4223-7.3686-7.3666-14.7356-14.735C146.0988,149.8847,146.0267,149.8049,145.9593,149.7338Z"/><path class="cls-5" d="M132.8637,112.8724c-.0473-.0446-.1537-.1395-.2544-.24q-7.3023-7.3013-14.6061-14.6008a7.4929,7.4929,0,0,1,3.5524-12.7168,7.3044,7.3044,0,0,1,7.0326,2.0942q7.4,7.3821,14.7855,14.78c.042.0419.0806.0871.0832.09Z"/><path d="M161.3333,134.2742c.6208-.6183,1.1728-1.1556,1.7109-1.7065a9.5169,9.5169,0,0,0,2.7128-5.2493,8.3863,8.3863,0,0,0-2.321-7.4147c-.6633-.7021-1.3585-1.3739-2.0384-2.06-.0819-.0828-.1592-.17-.2913-.312h.3765q9.257,0,18.5138.0012a8.3651,8.3651,0,0,1,1.5781,16.5973,10.6,10.6,0,0,1-1.6548.1382q-9.04.0144-18.079.006Z"/><path class="cls-5" d="M127.4207,118.5133a9.502,9.502,0,0,0-3.6479,7.3535,9.3562,9.3562,0,0,0,3.4585,7.4924c-.1868.0141-.2877.0284-.3886.0284-5.9659.0009-11.9318-.0178-17.8976.0072a7.4912,7.4912,0,0,1-1.2319-14.8864,8.4105,8.4105,0,0,1,1.1888-.0832q9.0756-.0078,18.1513-.0039h.3132Z"/></g></svg>