<svg id="logos" xmlns="http://www.w3.org/2000/svg" viewBox="0 0 446.8258 162.2036"><defs><style>.cls-1,.cls-2,.cls-4{fill:#fff;}.cls-2{font-size:18.9423px;font-family:AppleSDGothicNeo-UltraLight-KSCpc-EUC-H, Apple SD Gothic Neo;letter-spacing:-0.021em;}.cls-3{letter-spacing:-0.042em;}.cls-4{font-size:107.4816px;font-family:KelsonSans-Light, Kelson Sans;letter-spacing:0.072em;}.cls-5{fill:#b6b6b6;}</style></defs><title>maxo_logo</title><path class="cls-1" d="M81.3751,162.2036a81,81,0,1,1,81-81A81.0921,81.0921,0,0,1,81.3751,162.2036Zm0-146a65,65,0,1,0,65,65A65.0737,65.0737,0,0,0,81.3751,16.2036Z"/><text class="cls-2" transform="translate(178.5089 133.8097) scale(1.1787 1)">MEDICAL <tspan class="cls-3" x="74.1957" y="0">A</tspan><tspan x="84.6137" y="0">CTION ONTOLOGY</tspan></text><text class="cls-4" transform="translate(174.5093 92.638) scale(1.0591 1)">maxo</text><g id="oFuDpS.tif"><path class="cls-1" d="M92.9964,74.3481c-.0955.0889-.1846.1669-.2681.2506Q85.0846,82.2553,77.4419,89.913q-11.4954,11.5193-22.99,23.0394a7.3239,7.3239,0,0,0-2.11,7.1535,7.4384,7.4384,0,0,0,8.5337,5.6566,7.6708,7.6708,0,0,0,4.2061-2.2392Q81.5781,107.01,98.0875,90.51c.1793-.1794.36-.3582.5277-.5482a7.6725,7.6725,0,0,0,2.0055-4.7046A6.6635,6.6635,0,0,0,98.5926,79.95q-2.7007-2.7067-5.3946-5.42C93.14,74.4707,93.0752,74.4186,92.9964,74.3481Zm-23.6007,21.34a4.0367,4.0367,0,0,1,.2911-.3764q5.3235-5.36,10.6526-10.7151,6.4242-6.4377,12.8642-12.86,5.4845-5.4825,10.967-10.9671c1.3664-1.3668,2.7579-2.71,4.0906-4.1087A7.5258,7.5258,0,0,0,97.3819,46.2619q-6.961,6.953-13.9151,13.9127-9.6606,9.66-19.32,19.3207A7.681,7.681,0,0,0,63.48,89.6667a30.2943,30.2943,0,0,0,2.3811,2.4813C67.0071,93.307,68.1636,94.4552,69.3957,95.6883Zm12.995,12.9791c.0674.0711.1395.1509.2155.2269q7.3671,7.368,14.7355,14.735.2178.2176.4483.4224a7.5282,7.5282,0,0,0,10.2107-11.0578q-7.374-7.3871-14.76-14.7621c-.0757-.0756-.1547-.1479-.2122-.2028ZM69.2952,71.806,79.8883,61.2121c-.0026-.0028-.0412-.048-.0832-.09q-7.3916-7.391-14.7855-14.78a7.3044,7.3044,0,0,0-7.0326-2.0942,7.493,7.493,0,0,0-3.5524,12.7168q7.3107,7.2927,14.6061,14.6008C69.1414,71.6665,69.2478,71.7614,69.2952,71.806Zm28.47,21.4018h.5076q9.0394,0,18.079-.0061a10.5986,10.5986,0,0,0,1.6548-.1382,8.365,8.365,0,0,0-1.5781-16.5972q-9.257-.0067-18.5137-.0012h-.3766c.1322.1418.2094.2292.2913.3119.68.6864,1.3752,1.3582,2.0384,2.06a8.3862,8.3862,0,0,1,2.321,7.4147,9.5176,9.5176,0,0,1-2.7128,5.2493C98.9375,92.0522,98.3856,92.59,97.7647,93.2078ZM63.8521,77.447l-.0542-.0921h-.3132q-9.0756,0-18.1513.004a8.3956,8.3956,0,0,0-1.1888.0831,7.4912,7.4912,0,0,0,1.2319,14.8864c5.9658-.025,11.9317-.0063,17.8976-.0072.1009,0,.2018-.0143.3887-.0284A9.356,9.356,0,0,1,60.2042,84.8,9.5017,9.5017,0,0,1,63.8521,77.447Z"/><path class="cls-5" d="M92.9964,74.3481c.0788.07.1434.1226.2016.181q2.6976,2.71,5.3946,5.42a6.6635,6.6635,0,0,1,2.0281,5.3073,7.6725,7.6725,0,0,1-2.0055,4.7046c-.1677.19-.3484.3688-.5277.5482q-16.5042,16.5057-33.0062,33.0137a7.6708,7.6708,0,0,1-4.2061,2.2392,7.4384,7.4384,0,0,1-8.5337-5.6566,7.3239,7.3239,0,0,1,2.11-7.1535q11.495-11.52,22.99-23.0394,7.6423-7.6581,15.2864-15.3143C92.8118,74.515,92.9009,74.437,92.9964,74.3481Z"/><path class="cls-1" d="M69.3957,95.6883c-1.2321-1.2331-2.3886-2.3813-3.5343-3.54A30.2943,30.2943,0,0,1,63.48,89.6667a7.681,7.681,0,0,1,.6661-10.1714q9.6579-9.6627,19.32-19.3207,6.957-6.9568,13.9151-13.9127a7.5258,7.5258,0,0,1,10.8793,10.3994c-1.3327,1.3989-2.7242,2.7419-4.0906,4.1087q-5.4826,5.4843-10.967,10.9671-6.432,6.43-12.8642,12.86Q75.003,89.9443,69.6868,95.3119A4.0367,4.0367,0,0,0,69.3957,95.6883Z"/><path class="cls-1" d="M82.3907,108.6674,93.0285,98.029c.0575.0549.1365.1272.2122.2028q7.3809,7.38,14.76,14.7621A7.5282,7.5282,0,0,1,97.79,124.0517q-.23-.2044-.4483-.4224-7.3686-7.3667-14.7355-14.735C82.53,108.8183,82.4581,108.7385,82.3907,108.6674Z"/><path class="cls-5" d="M69.2952,71.806c-.0474-.0446-.1538-.1395-.2545-.24q-7.3023-7.3012-14.6061-14.6008A7.493,7.493,0,0,1,57.987,44.2483,7.3044,7.3044,0,0,1,65.02,46.3425q7.4,7.3821,14.7855,14.78c.042.0419.0806.0871.0832.09Z"/><path class="cls-1" d="M97.7647,93.2078c.6209-.6183,1.1728-1.1556,1.7109-1.7064a9.5176,9.5176,0,0,0,2.7128-5.2493,8.3862,8.3862,0,0,0-2.321-7.4147c-.6632-.7021-1.3585-1.3739-2.0384-2.06-.0819-.0827-.1591-.17-.2913-.3119h.3766q9.2568,0,18.5137.0012a8.365,8.365,0,0,1,1.5781,16.5972,10.5986,10.5986,0,0,1-1.6548.1382q-9.0394.0144-18.079.0061Z"/><path class="cls-5" d="M63.8521,77.447A9.5017,9.5017,0,0,0,60.2042,84.8a9.356,9.356,0,0,0,3.4586,7.4924c-.1869.0141-.2878.0284-.3887.0284-5.9659.0009-11.9318-.0178-17.8976.0072A7.4912,7.4912,0,0,1,44.1446,77.442a8.3956,8.3956,0,0,1,1.1888-.0831q9.0756-.008,18.1513-.004h.3132Z"/></g></svg>