<?xml version="1.0" encoding="utf-8"?>
<!-- Generator: Adobe Illustrator 25.4.1, SVG Export Plug-In . SVG Version: 6.00 Build 0)  -->
<svg version="1.1" id="logos" xmlns="http://www.w3.org/2000/svg" xmlns:xlink="http://www.w3.org/1999/xlink" x="0px" y="0px"
	 viewBox="0 0 467.5 176" style="enable-background:new 0 0 467.5 176;" xml:space="preserve">
<style type="text/css">
	.st0{fill:#FFFFFF;}
	.st1{font-family:'AppleSDGothicNeo-UltraLight-KSCpc-EUC-H';}
	.st2{font-size:18.9423px;}
	.st3{font-family:'KelsonSans-Light';}
	.st4{font-size:107.4816px;}
	.st5{letter-spacing:7.6;}
	.st6{fill:#B6B6B6;}
</style>
<path class="st0" d="M92.8,168.2c-44.7,0-81-36.3-81-81s36.3-81,81-81s81,36.3,81,81v0C173.7,131.9,137.5,168.2,92.8,168.2z
	 M92.8,22.2c-35.9,0-65,29.1-65,65s29.1,65,65,65s65-29.1,65-65l0,0C157.7,51.3,128.6,22.2,92.8,22.2z"/>
<text transform="matrix(1.1787 0 0 1 189.8834 139.8096)" class="st0 st1 st2">MEDICAL </text>
<text transform="matrix(1.1787 0 0 1 277.338 139.8096)" class="st0 st1 st2">A</text>
<text transform="matrix(1.1787 0 0 1 289.6178 139.8096)" class="st0 st1 st2">CTION ONTOLOGY</text>
<text transform="matrix(1.0591 0 0 1 185.8839 98.6382)" class="st0 st3 st4 st5">maxo</text>
<g id="oFuDpS.tif">
	<path class="st0" d="M104.4,80.3c-0.1,0.1-0.2,0.2-0.3,0.3C99,85.7,93.9,90.8,88.8,95.9c-7.7,7.7-15.3,15.4-23,23
		c-2,1.8-2.8,4.6-2.1,7.2c0.9,3.9,4.6,6.3,8.5,5.7c1.6-0.3,3.1-1.1,4.2-2.2c11-11,22-22,33-33c0.2-0.2,0.4-0.4,0.5-0.5
		c1.2-1.3,1.9-3,2-4.7c0.1-2-0.6-3.9-2-5.3c-1.8-1.8-3.6-3.6-5.4-5.4C104.5,80.5,104.5,80.4,104.4,80.3z M80.8,101.7
		c0.1-0.1,0.2-0.3,0.3-0.4c3.5-3.6,7.1-7.1,10.7-10.7c4.3-4.3,8.6-8.6,12.9-12.9c3.7-3.7,7.3-7.3,11-11c1.4-1.4,2.8-2.7,4.1-4.1
		c2.8-3,2.6-7.8-0.4-10.6c-3-2.8-7.6-2.7-10.5,0.2c-4.6,4.6-9.3,9.3-13.9,13.9C88.4,72.6,82,79.1,75.5,85.5
		c-2.8,2.7-3.1,7.1-0.7,10.2c0.7,0.9,1.5,1.7,2.4,2.5C78.4,99.3,79.5,100.5,80.8,101.7L80.8,101.7z M93.8,114.7
		c0.1,0.1,0.1,0.2,0.2,0.2c4.9,4.9,9.8,9.8,14.7,14.7c0.1,0.1,0.3,0.3,0.4,0.4c3.1,2.7,7.9,2.4,10.6-0.7c2.6-3,2.5-7.6-0.4-10.4
		c-4.9-4.9-9.8-9.8-14.8-14.8c-0.1-0.1-0.2-0.1-0.2-0.2L93.8,114.7z M80.7,77.8l10.6-10.6c0,0,0,0-0.1-0.1
		c-4.9-4.9-9.9-9.9-14.8-14.8c-1.8-1.9-4.5-2.7-7-2.1c-4,0.9-6.6,4.9-5.7,8.9c0.3,1.4,1.1,2.7,2.1,3.8c4.9,4.9,9.7,9.7,14.6,14.6
		C80.5,77.7,80.6,77.8,80.7,77.8z M109.1,99.2h0.5c6,0,12.1,0,18.1,0c0.6,0,1.1,0,1.7-0.1c4.5-0.8,7.6-5.2,6.8-9.7
		c-0.7-4-4.2-6.9-8.3-6.9c-6.2,0-12.3,0-18.5,0h-0.4c0.1,0.1,0.2,0.2,0.3,0.3c0.7,0.7,1.4,1.4,2,2.1c1.9,1.9,2.8,4.7,2.3,7.4
		c-0.3,2-1.3,3.8-2.7,5.2C110.3,98.1,109.8,98.6,109.1,99.2L109.1,99.2z M75.2,83.4L75.2,83.4l-0.4-0.1c-6.1,0-12.1,0-18.2,0
		c-0.4,0-0.8,0-1.2,0.1c-4.1,0.7-6.9,4.5-6.2,8.6c0.6,3.6,3.7,6.3,7.4,6.3c6,0,11.9,0,17.9,0c0.1,0,0.2,0,0.4,0
		c-2.3-1.8-3.5-4.6-3.5-7.5C71.6,87.9,73,85.2,75.2,83.4z"/>
	<path class="st6" d="M104.4,80.3c0.1,0.1,0.1,0.1,0.2,0.2c1.8,1.8,3.6,3.6,5.4,5.4c1.4,1.4,2.2,3.3,2,5.3c-0.1,1.8-0.8,3.4-2,4.7
		c-0.2,0.2-0.3,0.4-0.5,0.5c-11,11-22,22-33,33c-1.1,1.2-2.6,2-4.2,2.2c-3.9,0.7-7.6-1.8-8.5-5.7c-0.7-2.6,0.2-5.3,2.1-7.2
		c7.7-7.7,15.3-15.4,23-23c5.1-5.1,10.2-10.2,15.3-15.3C104.2,80.5,104.3,80.4,104.4,80.3z"/>
	<path class="st0" d="M80.8,101.7c-1.2-1.2-2.4-2.4-3.5-3.5c-0.8-0.8-1.6-1.6-2.4-2.5c-2.4-3.1-2.1-7.4,0.7-10.2
		c6.4-6.4,12.9-12.9,19.3-19.3c4.6-4.6,9.3-9.3,13.9-13.9c2.9-3,7.7-3,10.6-0.1c2.9,2.9,3,7.5,0.2,10.5c-1.3,1.4-2.7,2.7-4.1,4.1
		c-3.7,3.7-7.3,7.3-11,11c-4.3,4.3-8.6,8.6-12.9,12.9c-3.6,3.6-7.1,7.1-10.7,10.7C81,101.4,80.9,101.6,80.8,101.7z"/>
	<path class="st0" d="M93.8,114.7l10.6-10.6c0.1,0.1,0.1,0.1,0.2,0.2c4.9,4.9,9.8,9.8,14.8,14.8c3,2.9,3,7.7,0.1,10.6
		c-2.8,2.9-7.3,3-10.4,0.4c-0.2-0.1-0.3-0.3-0.4-0.4c-4.9-4.9-9.8-9.8-14.7-14.7C93.9,114.8,93.8,114.7,93.8,114.7z"/>
	<path class="st6" d="M80.7,77.8c0,0-0.2-0.1-0.3-0.2c-4.9-4.9-9.7-9.7-14.6-14.6c-3-2.9-3.1-7.6-0.2-10.6c1-1.1,2.3-1.8,3.8-2.1
		c2.6-0.6,5.2,0.2,7,2.1c4.9,4.9,9.9,9.8,14.8,14.8c0,0,0.1,0.1,0.1,0.1L80.7,77.8z"/>
	<path class="st0" d="M109.1,99.2c0.6-0.6,1.2-1.2,1.7-1.7c1.4-1.4,2.4-3.3,2.7-5.2c0.5-2.7-0.4-5.5-2.3-7.4c-0.7-0.7-1.4-1.4-2-2.1
		c-0.1-0.1-0.2-0.2-0.3-0.3h0.4c6.2,0,12.3,0,18.5,0c4.6-0.1,8.4,3.6,8.5,8.3c0,4.1-2.9,7.6-6.9,8.3c-0.5,0.1-1.1,0.1-1.7,0.1
		c-6,0-12.1,0-18.1,0L109.1,99.2z"/>
	<path class="st6" d="M75.2,83.4c-2.3,1.8-3.6,4.5-3.6,7.4c-0.1,2.9,1.2,5.7,3.5,7.5c-0.2,0-0.3,0-0.4,0c-6,0-11.9,0-17.9,0
		c-4.1,0-7.5-3.3-7.5-7.5c0-3.7,2.7-6.8,6.3-7.4c0.4-0.1,0.8-0.1,1.2-0.1c6.1,0,12.1,0,18.2,0L75.2,83.4L75.2,83.4z"/>
</g>
</svg>
