<svg id="logos" xmlns="http://www.w3.org/2000/svg" viewBox="0 0 447.149 162.2549"><defs><style>.cls-1{font-size:18.9423px;font-family:AppleSDGothicNeo-UltraLight-KSCpc-EUC-H, Apple SD Gothic Neo;letter-spacing:-0.021em;}.cls-1,.cls-4{fill:#231f20;}.cls-2{letter-spacing:-0.042em;}.cls-3{letter-spacing:-0.021em;}.cls-4{font-size:107.4816px;font-family:KelsonSans-Light, Kelson Sans;letter-spacing:0.072em;}.cls-5{fill:#fff;}.cls-6{fill:#666;}</style></defs><title>maxo_logo</title><text class="cls-1" transform="translate(178.8325 133.9303) scale(1.1703 1)">MEDICAL <tspan class="cls-2" x="74.1953" y="0">A</tspan><tspan class="cls-3" x="84.6136" y="0">CTION ONTOLOGY</tspan></text><text class="cls-4" transform="translate(174.8325 92.7588) scale(1.0591 1)">maxo</text><path d="M81.3232,162.1208a81,81,0,1,1,81-81A81.092,81.092,0,0,1,81.3232,162.1208Zm0-146a65,65,0,1,0,65,65A65.0736,65.0736,0,0,0,81.3232,16.1208Z"/><g id="oFuDpS.tif"><path class="cls-5" d="M93.55,74.2653c-.0954.0889-.1845.1669-.268.2505Q85.6385,82.1726,77.9958,89.83,66.5,101.3494,55.0059,112.87a7.3242,7.3242,0,0,0-2.1106,7.1536,7.4386,7.4386,0,0,0,8.5338,5.6566,7.67,7.67,0,0,0,4.2061-2.2393q16.4968-16.513,33.0061-33.0137c.1794-.1793.36-.3582.5278-.5482a7.6725,7.6725,0,0,0,2.0055-4.7046,6.6637,6.6637,0,0,0-2.0281-5.3072q-2.7007-2.7067-5.3946-5.42C93.6937,74.3878,93.6291,74.3358,93.55,74.2653ZM69.95,95.6055a4.0393,4.0393,0,0,1,.2911-.3765q5.3235-5.36,10.6525-10.715,6.4244-6.4377,12.8643-12.86,5.4845-5.4827,10.967-10.9672c1.3664-1.3667,2.7579-2.71,4.0906-4.1087A7.5258,7.5258,0,0,0,97.9357,46.1791q-6.9609,6.9528-13.915,13.9126Q74.36,69.7517,64.7,79.4124a7.6812,7.6812,0,0,0-.6661,10.1715,30.2924,30.2924,0,0,0,2.3811,2.4812C67.5609,93.2242,68.7175,94.3724,69.95,95.6055Zm12.995,12.979c.0674.0712.14.151.2155.227q7.3671,7.368,14.7355,14.7349.2178.2176.4483.4224a7.5282,7.5282,0,0,0,10.2107-11.0578q-7.374-7.3871-14.76-14.7621c-.0756-.0756-.1546-.1479-.2121-.2027ZM69.849,71.7232,80.4422,61.1293c-.0026-.0028-.0412-.048-.0832-.09q-7.3916-7.3911-14.7855-14.78a7.3046,7.3046,0,0,0-7.0326-2.0941,7.4929,7.4929,0,0,0-3.5524,12.7168Q62.2992,64.175,69.5946,71.483C69.6953,71.5837,69.8017,71.6786,69.849,71.7232Zm28.47,21.4018h.5076q9.0395,0,18.079-.006a10.6,10.6,0,0,0,1.6548-.1382,8.3651,8.3651,0,0,0-1.5781-16.5973q-9.257-.0067-18.5138-.0012h-.3765c.1322.1418.2094.2292.2913.3119.68.6864,1.3752,1.3582,2.0384,2.06a8.3863,8.3863,0,0,1,2.321,7.4147,9.5176,9.5176,0,0,1-2.7128,5.2493C99.4914,91.9693,98.9394,92.5066,98.3186,93.125ZM64.406,77.3641l-.0542-.092h-.3132q-9.0757,0-18.1513.0039a8.3957,8.3957,0,0,0-1.1888.0832A7.4912,7.4912,0,0,0,45.93,92.2456c5.9658-.025,11.9317-.0064,17.8976-.0072.1009,0,.2018-.0143.3886-.0285a9.3558,9.3558,0,0,1-3.4585-7.4923A9.502,9.502,0,0,1,64.406,77.3641Z"/><path class="cls-6" d="M93.55,74.2653c.0789.0705.1435.1225.2017.181q2.6976,2.71,5.3946,5.42a6.6637,6.6637,0,0,1,2.0281,5.3072,7.6725,7.6725,0,0,1-2.0055,4.7046c-.1677.19-.3484.3689-.5278.5482Q82.1373,106.9324,65.6352,123.44a7.67,7.67,0,0,1-4.2061,2.2393,7.4386,7.4386,0,0,1-8.5338-5.6566,7.3242,7.3242,0,0,1,2.1106-7.1536q11.495-11.52,22.99-23.0394,7.6423-7.6579,15.2864-15.3143C93.3657,74.4322,93.4548,74.3542,93.55,74.2653Z"/><path d="M69.95,95.6055c-1.2321-1.2331-2.3887-2.3813-3.5343-3.54a30.2924,30.2924,0,0,1-2.3811-2.4812A7.6812,7.6812,0,0,1,64.7,79.4124q9.6579-9.6627,19.32-19.3207,6.957-6.9567,13.915-13.9126a7.5258,7.5258,0,0,1,10.8794,10.3993c-1.3327,1.3989-2.7242,2.742-4.0906,4.1087q-5.4828,5.4844-10.967,10.9672-6.4322,6.43-12.8643,12.86Q75.557,89.8614,70.2407,95.229A4.0393,4.0393,0,0,0,69.95,95.6055Z"/><path d="M82.9446,108.5845,93.5824,97.9462c.0575.0548.1365.1271.2121.2027q7.381,7.38,14.76,14.7621a7.5282,7.5282,0,0,1-10.2107,11.0578q-.23-.2045-.4483-.4224Q90.527,116.18,83.16,108.8115C83.0841,108.7355,83.012,108.6557,82.9446,108.5845Z"/><path class="cls-6" d="M69.849,71.7232c-.0473-.0446-.1537-.14-.2544-.24q-7.3023-7.3011-14.6061-14.6007a7.4929,7.4929,0,0,1,3.5524-12.7168A7.3046,7.3046,0,0,1,65.5735,46.26q7.4,7.3823,14.7855,14.78c.042.0419.0806.0871.0832.09Z"/><path d="M98.3186,93.125c.6208-.6184,1.1728-1.1557,1.7109-1.7065a9.5176,9.5176,0,0,0,2.7128-5.2493,8.3863,8.3863,0,0,0-2.321-7.4147c-.6632-.7021-1.3585-1.3739-2.0384-2.06-.0819-.0827-.1591-.17-.2913-.3119h.3765q9.2569,0,18.5138.0012A8.3651,8.3651,0,0,1,118.56,92.9808a10.6,10.6,0,0,1-1.6548.1382q-9.04.0144-18.079.006Z"/><path class="cls-6" d="M64.406,77.3641a9.502,9.502,0,0,0-3.6479,7.3535A9.3558,9.3558,0,0,0,64.2166,92.21c-.1868.0142-.2877.0284-.3886.0285-5.9659.0008-11.9318-.0178-17.8976.0072a7.4912,7.4912,0,0,1-1.2319-14.8864,8.3957,8.3957,0,0,1,1.1888-.0832q9.0756-.0078,18.1513-.0039h.3132Z"/></g></svg>