<svg id="Layer_1" data-name="Layer 1" xmlns="http://www.w3.org/2000/svg" viewBox="0 0 373.6667 155"><defs><style>.cls-1{font-size:88.8947px;font-family:KelsonSans-Light, Kelson Sans;font-weight:300;letter-spacing:0.052em;}.cls-1,.cls-3,.cls-4{fill:#797979;}.cls-2{font-size:12.5787px;fill:#828385;font-family:AppleSDGothicNeo-UltraLight-KSCpc-EUC-H, Apple SD Gothic Neo;letter-spacing:-0.021em;}.cls-4{opacity:0.53;}</style></defs><title>sepio_logo</title><text class="cls-1" transform="translate(156.0908 99.5759)">sepio</text><text class="cls-2" transform="translate(159.4979 115.4355) scale(0.947 1)">SCIENTIFIC<tspan x="0" y="12">EVIDENCE &amp; PROVENANCE ONTOLOGY</tspan></text><path class="cls-3" d="M82.3127,146.5877a8.7146,8.7146,0,0,1-.5595-17.4106A52.72,52.72,0,1,0,34.7805,106.38a8.7143,8.7143,0,1,1-14.3711,9.86,70.1293,70.1293,0,1,1,62.48,30.3282C82.6965,146.5814,82.5036,146.5877,82.3127,146.5877Z"/><path class="cls-3" d="M49.3305,80.0363l.0356-.0038c.0562-.0229.1129-.0446.17-.0665Z"/><path class="cls-3" d="M49.3305,79.8892a1.7382,1.7382,0,0,0-.6541.224Z"/><path class="cls-3" d="M112.2819,67.5146c-2.8,0-5.6271,1.1514-8.8973,3.6234-1.6064,1.2143-3.1642,2.62-4.7514,4.0745-.138.1265-.3.2907-.4717.4646-.7766.787-1.6568,1.6789-2.724,1.6789a1.873,1.873,0,0,1-1.6-.9242c-1.0417-1.6023-.8178-4.4844-.5063-6.8163.3715-2.7816,1.1241-6.1415,3.6674-7.4444a18.6517,18.6517,0,0,1,8.4234-1.77h0c.24,0,.4844.0034.7266.01a29.9094,29.9094,0,0,1,5.095.606,17.41,17.41,0,0,0-10.0443-9.4613c-6.0933-2.2227-13.0218-.96-18.8218,1.9435-7.4228,3.7156-12.57,10.36-19.7143,14.3432-1.5471.8627-3.203,1.5122-4.74,2.3939-2.4351,1.3969-5.3007,2.4272-5.3027,5.7684a1.5774,1.5774,0,0,0,.4639,1.2777,1.6348,1.6348,0,0,0,.6573.2664,10.905,10.905,0,0,0,4.3533-.0646c1.0026-.18,2.0035-.4246,2.9932-.6312a12.0611,12.0611,0,0,1,5.271-.18c1.6525.405,3.0548,1.5721,4.6077,2.2593a14.683,14.683,0,0,0,4.4479,1.3876c1.778.15,3.3982-.1625,5.1153.572,2.5852,1.1058,4.1359,3.7849,5.0466,6.4451a9.1578,9.1578,0,0,1,.5651,2.583c.1188,3-1.6182,6.3716-3.332,8.7248-.2995.4112-.6156.8105-.9006,1.2319a9.12,9.12,0,0,0-1.6175,4.226c1.3922.3084,4.1706-1.9521,5.4717-2.554a58.9226,58.9226,0,0,1,6.7492-2.6319c1.803-.578,3.6373-1.07,5.39-1.7874A22.7287,22.7287,0,0,0,110.068,85.1241a41.08,41.08,0,0,0,2.2279-7.9565,37.8426,37.8426,0,0,0,.8275-5.6374A24.7126,24.7126,0,0,0,113,67.5423C112.761,67.5257,112.5218,67.5146,112.2819,67.5146Z"/><path class="cls-3" d="M102.7062,69.3987c4.2925-3.2447,9.07-5.2826,14.8365-2.6331,1.0585.4863,2.07,1.0847,2.3153-.2686a3.55,3.55,0,0,0-1.45-2.8371,7.09,7.09,0,0,0-2.1948-1.0061,36.592,36.592,0,0,0-10.0965-1.962,18.1522,18.1522,0,0,0-8.607,1.6367c-2.1359,1.0941-2.7657,4.3456-3.0659,6.593-.2061,1.543-.5666,4.6687.3346,6.055.7985,1.2282,2.1762-.594,3.0944-1.4354C99.43,72.1144,101.0313,70.6647,102.7062,69.3987Z"/><path class="cls-3" d="M62.1452,54.4524c-3.5266-1.3159-6.989-3.2088-10.7531-3.1918,1.5979,1.4575,3.2859,3.0716,3.6768,5.1988a17.5309,17.5309,0,0,1-.09,3.8893,11.7678,11.7678,0,0,0,2.18,7.29,2.3113,2.3113,0,0,0,1.19.993,2.5078,2.5078,0,0,0,1.7535-.4274,66.5581,66.5581,0,0,0,6.8381-4.2892c1.1423-.8066,2.2655-1.64,3.3787-2.4863.8677-.66,2.4838-1.4841,3.0562-2.406,1.5272-2.46-2.0555-2.419-3.5159-2.6222A36.4718,36.4718,0,0,1,62.1452,54.4524Z"/><path class="cls-4" d="M50.9017,79.1618l.9052-.31C51.4994,78.94,51.1988,79.0469,50.9017,79.1618Z"/><path class="cls-3" d="M79.8081,100.15c1.8956-3.0073,3.2068-6.56,2.74-10.0837S79.47,83.16,75.955,82.6282c-2.1207-.3207-4.4311.3568-6.3522-.5968-1.18-.5859-2.0135-1.7066-3.153-2.3683-1.8692-1.0855-4.2132-.7691-6.3194-.2835s-4.3049,1.1083-6.3893.5362a8.6671,8.6671,0,0,0-3.0212-.6827,12.8329,12.8329,0,0,0-6.6737,6.5961,17.0392,17.0392,0,0,0-.919,10.5483,3.38,3.38,0,0,0,.8256,1.7514,3.7,3.7,0,0,0-.2638.2633,7.82,7.82,0,0,0-1.4026,2.5445,29.1178,29.1178,0,0,0-1.4161,13.58c.7888,6.1846,4.7409,12.2028,4.6572,18.4407a3.97,3.97,0,0,1-.577,2.1854,2.0709,2.0709,0,0,1-1.95.9558,1.6269,1.6269,0,0,1-.3669-3.1095c-1.3208-.7624-3.138-1.1674-4.2689-.1443a2.9132,2.9132,0,0,0-.1914,3.6857,6.36,6.36,0,0,0,3.2883,2.2011,7.08,7.08,0,0,0,2.7415.488,3.3325,3.3325,0,0,0,2.4493-1.18,4.9489,4.9489,0,0,0,.77-1.919c1.676-7.0477-.7707-14.4237-.8642-21.5568a16.4269,16.4269,0,0,1,.33-5.2806,10.6206,10.6206,0,0,1,2.13-4.06,4.584,4.584,0,0,1,2.2945-1.3905c-.5713.1262-1.4215,1.6112-1.638,2.1043-.3681.8384-.74,1.7248-1.04,2.6a17.1894,17.1894,0,0,0-.92,5.887c.0606,3.104,1.0628,6.0793,1.47,9.1437.5132,3.8621,1.8366,7.3665,1.6626,11.3958-.0472,1.0929.82,8.8608-1.6979,7.9977a.6092.6092,0,0,1-.2109-.9669c-.75-.052-1.7413.5876-1.5691,1.45a1.3441,1.3441,0,0,0,.3972.6476,3.0068,3.0068,0,0,0,1.6574.9092c2.279.3477,4.0236-4.0983,4.7422-5.7864,1.2276-2.8836,1.2878-6.432,1.1283-9.5267-.1891-3.6695-1.14-7.2417-1.7557-10.85a27.2349,27.2349,0,0,1-.3327-8.27,6.9676,6.9676,0,0,1,.9168-3.1071c.6377-.94,1.63-1.37,2.3763-2.1578-2.3662,2.4967-2.1869,5.5345-2.0707,8.7246a43.2251,43.2251,0,0,0,1.3311,8.1739c.61,2.6226.8237,5.4817,1.18,8.1666a27.1453,27.1453,0,0,1-.5159,9.9c-.2428,1.0086-.7683,2.1967-1.8032,2.27-.5055.0359-1.0858-.4856-.82-.9172a1.9127,1.9127,0,0,0,.5345,2.6677,2.8327,2.8327,0,0,0,2.9109-.044,5.6879,5.6879,0,0,0,2.0226-2.2532,18.38,18.38,0,0,0,1.949-7.2551,41.1362,41.1362,0,0,0,.0784-6.7623,45.3269,45.3269,0,0,0-.3839-5.4019c-.3429-1.7832-.6808-3.5733-.967-5.3741-.538-3.3856-.3128-7.0652,2.3664-9.542-.6581.6084-.8627,2.8133-1.0244,3.6723a24.3526,24.3526,0,0,0-.3986,3.6908,34.24,34.24,0,0,0,.6351,7.3819c.4375,2.3572,1.2078,4.6057,1.7905,6.8971a40.0123,40.0123,0,0,1,.6427,7.82,17.0971,17.0971,0,0,1-.8777,6.644c-.3653,1.0354-2.2737,3.552-3.4841,2.1115a.8341.8341,0,0,1-.15-.55c.0013-.16.0567-.357.19-.4122-1.04.2222-2.4446,1.02-1.8831,2.31a2.5088,2.5088,0,0,0,2.8548,1.3029c1.3939-.202,2.34-1.3978,3.2854-2.3654a14.1681,14.1681,0,0,0,3.8436-7.3065,15.2631,15.2631,0,0,0,.0237-3.2593,35.6283,35.6283,0,0,0-1.3652-8.6862c.1326.5075,1.4183.7007,1.8141.7739,2.6127.4828,5.68.2846,7.258-2.0965a5.9184,5.9184,0,0,0,.91-4.1071A1.5279,1.5279,0,0,1,74.152,122.61a2.4851,2.4851,0,0,1-1.063-2.6063A7.2872,7.2872,0,0,1,74.36,117.305l2.9384-4.5025a8.2032,8.2032,0,0,0,1.2241-2.4285c.5681-2.2826-.2847-4.7663-.5388-7.1808.013-.0282.0243-.0569.0376-.0851A28.41,28.41,0,0,1,79.8081,100.15Zm-5.6837.3788c-2.4035.8309-5.6447.9957-7.8931-.7541a4.5943,4.5943,0,0,1-1.9225-3.5512,8.242,8.242,0,0,1,1.9852-4.7361,15.28,15.28,0,0,1,4.4675-3.5316,9.3554,9.3554,0,0,1,1.9724-.7588,5.049,5.049,0,0,1,4.1136.6045,6.4562,6.4562,0,0,1,2.5771,4.5228C79.9665,96.5811,76.55,99.69,74.1244,100.5285Z"/><path class="cls-3" d="M71.4905,94.3811A1.2649,1.2649,0,0,1,70.4136,93.5a1.8328,1.8328,0,0,0-1.4081,1.6519,3.3711,3.3711,0,0,0,2.2805,3.2046,1.8457,1.8457,0,0,0,1.755-.4012,4.5238,4.5238,0,0,0,.7825-1.57c.2272-.5438.6578-1.1,1.2472-1.1065,1.7856-.0187.5422-2.2507-.56-2.5293a3.3848,3.3848,0,0,0-1.8665.2687C72.1214,93.3719,72.33,94.3876,71.4905,94.3811Z"/><path class="cls-3" d="M49.3305,79.9243l.0356-.0038c.0562-.0229.1129-.0446.17-.0665Z"/><path class="cls-3" d="M49.3305,79.7771a1.74,1.74,0,0,0-.6541.2241Z"/></svg>