<svg id="Layer_1" data-name="Layer 1" xmlns="http://www.w3.org/2000/svg" viewBox="0 0 373.6667 155"><defs><style>.cls-1{font-size:88.8947px;font-family:KelsonSans-Light, Kelson Sans;font-weight:300;letter-spacing:0.052em;}.cls-1,.cls-2,.cls-3,.cls-4{fill:#231f20;}.cls-2{font-size:12.5787px;font-family:AppleSDGothicNeo-UltraLight-KSCpc-EUC-H, Apple SD Gothic Neo;letter-spacing:-0.021em;}.cls-4{opacity:0.53;}</style></defs><title>sepio_logo</title><text class="cls-1" transform="translate(156.0903 95.0313)">sepio</text><text class="cls-2" transform="translate(159.4979 113.2662) scale(0.947 1)">SCIENTIFIC<tspan x="0" y="12">EVIDENCE &amp; PROVENANCE ONTOLOGY</tspan></text><path class="cls-3" d="M82.3127,146.9385a8.7146,8.7146,0,0,1-.5595-17.4106A52.72,52.72,0,1,0,34.7805,106.731a8.7143,8.7143,0,0,1-14.3711,9.86A70.1294,70.1294,0,1,1,82.89,146.92C82.6965,146.9322,82.5036,146.9385,82.3127,146.9385Z"/><path class="cls-3" d="M49.3305,80.3871l.0356-.0038c.0562-.0229.1129-.0445.17-.0664Z"/><path class="cls-3" d="M49.3305,80.24a1.74,1.74,0,0,0-.6541.224Z"/><path class="cls-3" d="M112.2819,67.8654c-2.8,0-5.6271,1.1515-8.8973,3.6234-1.6064,1.2143-3.1642,2.62-4.7514,4.0745-.138.1265-.3.2908-.4717.4647-.7766.7869-1.6568,1.6788-2.724,1.6788a1.873,1.873,0,0,1-1.6-.9242c-1.0417-1.6023-.8178-4.4844-.5063-6.8162.3715-2.7816,1.1241-6.1416,3.6674-7.4445a18.653,18.653,0,0,1,8.4234-1.77h0c.24,0,.4844.0034.7266.01a29.92,29.92,0,0,1,5.095.606,17.41,17.41,0,0,0-10.0443-9.4612c-6.0933-2.2227-13.0218-.96-18.8218,1.9434-7.4228,3.7156-12.57,10.36-19.7143,14.3433-1.5471.8626-3.203,1.5121-4.74,2.3938-2.4351,1.3969-5.3007,2.4272-5.3027,5.7685a1.5773,1.5773,0,0,0,.4639,1.2776,1.632,1.632,0,0,0,.6573.2664,10.905,10.905,0,0,0,4.3533-.0646c1.0026-.18,2.0035-.4246,2.9932-.6311a12.06,12.06,0,0,1,5.271-.18c1.6525.4051,3.0548,1.5721,4.6077,2.2593a14.683,14.683,0,0,0,4.4479,1.3876c1.778.15,3.3982-.1625,5.1153.572,2.5852,1.1059,4.1359,3.7849,5.0466,6.4451a9.1577,9.1577,0,0,1,.5651,2.5831c.1188,2.9995-1.6182,6.3716-3.332,8.7248-.2995.4112-.6156.81-.9006,1.2318a9.1211,9.1211,0,0,0-1.6175,4.226c1.3922.3084,4.1706-1.9521,5.4717-2.5539a58.9232,58.9232,0,0,1,6.7492-2.632c1.803-.578,3.6373-1.07,5.39-1.7874A22.7287,22.7287,0,0,0,110.068,85.4749a41.0814,41.0814,0,0,0,2.2279-7.9564,37.8464,37.8464,0,0,0,.8275-5.6374A24.7135,24.7135,0,0,0,113,67.8931C112.761,67.8765,112.5218,67.8654,112.2819,67.8654Z"/><path class="cls-3" d="M102.7062,69.75c4.2925-3.2448,9.07-5.2827,14.8365-2.6332,1.0585.4864,2.07,1.0847,2.3153-.2685a3.5507,3.5507,0,0,0-1.45-2.8372,7.09,7.09,0,0,0-2.1948-1.0061,36.5957,36.5957,0,0,0-10.0965-1.962,18.1522,18.1522,0,0,0-8.607,1.6367c-2.1359,1.0942-2.7657,4.3456-3.0659,6.593-.2061,1.543-.5666,4.6687.3346,6.055.7985,1.2282,2.1762-.594,3.0944-1.4353C99.43,72.4653,101.0313,71.0155,102.7062,69.75Z"/><path class="cls-3" d="M62.1452,54.8033c-3.5266-1.316-6.989-3.2088-10.7531-3.1919C52.99,53.069,54.678,54.683,55.0689,56.81a17.5318,17.5318,0,0,1-.09,3.8894,11.7675,11.7675,0,0,0,2.18,7.29,2.31,2.31,0,0,0,1.19.993,2.5077,2.5077,0,0,0,1.7535-.4273A66.5762,66.5762,0,0,0,66.941,64.266c1.1423-.8066,2.2655-1.64,3.3787-2.4862.8677-.66,2.4838-1.4841,3.0562-2.4061,1.5272-2.46-2.0555-2.4189-3.5159-2.6222A36.4655,36.4655,0,0,1,62.1452,54.8033Z"/><path class="cls-4" d="M50.9017,79.5126l.9052-.31C51.4994,79.291,51.1988,79.3977,50.9017,79.5126Z"/><path class="cls-3" d="M79.8081,100.5005c1.8956-3.0073,3.2068-6.56,2.74-10.0836S79.47,83.5105,75.955,82.979c-2.1207-.3207-4.4311.3569-6.3522-.5968-1.18-.5859-2.0135-1.7066-3.153-2.3683-1.8692-1.0855-4.2132-.7691-6.3194-.2835s-4.3049,1.1083-6.3893.5362a8.6694,8.6694,0,0,0-3.0212-.6827A12.8336,12.8336,0,0,0,44.0462,86.18a17.0392,17.0392,0,0,0-.919,10.5483,3.379,3.379,0,0,0,.8256,1.7514,3.721,3.721,0,0,0-.2638.2633,7.8213,7.8213,0,0,0-1.4026,2.5445,29.1178,29.1178,0,0,0-1.4161,13.58c.7888,6.1846,4.7409,12.2028,4.6572,18.4407a3.97,3.97,0,0,1-.577,2.1855,2.0713,2.0713,0,0,1-1.95.9558,1.6269,1.6269,0,0,1-.3669-3.1095c-1.3208-.7625-3.138-1.1675-4.2689-.1444a2.9133,2.9133,0,0,0-.1914,3.6858,6.36,6.36,0,0,0,3.2883,2.201,7.0783,7.0783,0,0,0,2.7415.488,3.3321,3.3321,0,0,0,2.4493-1.18,4.9489,4.9489,0,0,0,.77-1.919c1.676-7.0476-.7707-14.4236-.8642-21.5567a16.4275,16.4275,0,0,1,.33-5.2807,10.6206,10.6206,0,0,1,2.13-4.06,4.5838,4.5838,0,0,1,2.2945-1.39c-.5713.1261-1.4215,1.6111-1.638,2.1042-.3681.8384-.74,1.7248-1.04,2.6a17.19,17.19,0,0,0-.92,5.8871c.0606,3.104,1.0628,6.0792,1.47,9.1437.5132,3.8621,1.8366,7.3664,1.6626,11.3957-.0472,1.0929.82,8.8609-1.6979,7.9977a.6092.6092,0,0,1-.2109-.9669c-.75-.052-1.7413.5876-1.5691,1.45a1.3444,1.3444,0,0,0,.3972.6477,3.0072,3.0072,0,0,0,1.6574.9091c2.279.3477,4.0236-4.0983,4.7422-5.7864,1.2276-2.8836,1.2878-6.4319,1.1283-9.5267-.1891-3.67-1.14-7.2417-1.7557-10.85a27.2344,27.2344,0,0,1-.3327-8.27,6.9676,6.9676,0,0,1,.9168-3.1072c.6377-.94,1.63-1.37,2.3763-2.1577-2.3662,2.4966-2.1869,5.5344-2.0707,8.7246a43.2228,43.2228,0,0,0,1.3311,8.1738c.61,2.6226.8237,5.4817,1.18,8.1666a27.1452,27.1452,0,0,1-.5159,9.9c-.2428,1.0087-.7683,2.1967-1.8032,2.27-.5055.036-1.0858-.4855-.82-.9171a1.9126,1.9126,0,0,0,.5345,2.6676,2.8327,2.8327,0,0,0,2.9109-.0439,5.6888,5.6888,0,0,0,2.0226-2.2533,18.38,18.38,0,0,0,1.949-7.2551,41.1361,41.1361,0,0,0,.0784-6.7623,45.3252,45.3252,0,0,0-.3839-5.4018c-.3429-1.7833-.6808-3.5733-.967-5.3742-.538-3.3856-.3128-7.0652,2.3664-9.5419-.6581.6083-.8627,2.8132-1.0244,3.6723a24.35,24.35,0,0,0-.3986,3.6907,34.2408,34.2408,0,0,0,.6351,7.382c.4375,2.3572,1.2078,4.6056,1.7905,6.897a40.0136,40.0136,0,0,1,.6427,7.8205,17.0978,17.0978,0,0,1-.8777,6.6441c-.3653,1.0353-2.2737,3.5519-3.4841,2.1115a.8345.8345,0,0,1-.15-.55c.0013-.16.0567-.3569.19-.4122-1.04.2222-2.4446,1.02-1.8831,2.31a2.509,2.509,0,0,0,2.8548,1.303c1.3939-.2021,2.34-1.3979,3.2854-2.3655a14.1677,14.1677,0,0,0,3.8436-7.3065,15.2622,15.2622,0,0,0,.0237-3.2592,35.63,35.63,0,0,0-1.3652-8.6863c.1326.5076,1.4183.7008,1.8141.7739,2.6127.4829,5.68.2847,7.258-2.0965a5.9184,5.9184,0,0,0,.91-4.1071,1.528,1.528,0,0,1-2.2233,1.1324,2.4853,2.4853,0,0,1-1.063-2.6064,7.286,7.286,0,0,1,1.2712-2.6987l2.9384-4.5025a8.2049,8.2049,0,0,0,1.2241-2.4286c.5681-2.2826-.2847-4.7663-.5388-7.1808.013-.0282.0243-.0569.0376-.085A28.4217,28.4217,0,0,1,79.8081,100.5005Zm-5.6837.3788c-2.4035.8309-5.6447.9957-7.8931-.7541a4.5943,4.5943,0,0,1-1.9225-3.5512,8.2422,8.2422,0,0,1,1.9852-4.7361,15.2784,15.2784,0,0,1,4.4675-3.5315,9.3557,9.3557,0,0,1,1.9724-.7589,5.0494,5.0494,0,0,1,4.1136.6045,6.4564,6.4564,0,0,1,2.5771,4.5228C79.9665,96.9319,76.55,100.0406,74.1244,100.8793Z"/><path class="cls-3" d="M71.4905,94.732a1.2652,1.2652,0,0,1-1.0769-.8809,1.8329,1.8329,0,0,0-1.4081,1.652,3.3708,3.3708,0,0,0,2.2805,3.2045,1.8457,1.8457,0,0,0,1.755-.4012,4.5242,4.5242,0,0,0,.7825-1.57c.2272-.5439.6578-1.1,1.2472-1.1066,1.7856-.0186.5422-2.2507-.56-2.5293a3.3849,3.3849,0,0,0-1.8665.2688C72.1214,93.7227,72.33,94.7384,71.4905,94.732Z"/><path class="cls-3" d="M49.3305,80.2751l.0356-.0038c.0562-.0229.1129-.0446.17-.0665Z"/><path class="cls-3" d="M49.3305,80.128a1.74,1.74,0,0,0-.6541.224Z"/></svg>