<svg id="Layer_1" data-name="Layer 1" xmlns="http://www.w3.org/2000/svg" viewBox="0 0 220.474 241"><defs><style>.cls-1,.cls-2,.cls-3,.cls-4{fill:#231f20;}.cls-2{opacity:0.53;}.cls-3{font-size:80px;font-family:KelsonSans-Light, Kelson Sans;font-weight:300;letter-spacing:0.052em;}.cls-4{font-size:12.5787px;font-family:AppleSDGothicNeo-UltraLight-KSCpc-EUC-H, Apple SD Gothic Neo;letter-spacing:-0.021em;}</style></defs><title>sepio_logo</title><path class="cls-1" d="M112.5786,142.472a8.7146,8.7146,0,0,1-.56-17.4106,52.72,52.72,0,1,0-46.9726-22.7969,8.7143,8.7143,0,0,1-14.3711,9.86,70.1293,70.1293,0,1,1,62.4805,30.3282C112.9624,142.4656,112.77,142.472,112.5786,142.472Z"/><path class="cls-2" d="M79.5964,75.9206l.0356-.0038c.0562-.0229.1129-.0446.17-.0665Z"/><path class="cls-2" d="M79.5964,75.7734a1.7412,1.7412,0,0,0-.6542.2241Z"/><path class="cls-1" d="M142.5478,63.3989c-2.8,0-5.6271,1.1514-8.8973,3.6234-1.6064,1.2143-3.1642,2.62-4.7514,4.0745-.138.1264-.3.2907-.4718.4646-.7765.7869-1.6567,1.6789-2.7239,1.6789a1.873,1.873,0,0,1-1.6-.9242c-1.0417-1.6023-.8178-4.4844-.5064-6.8163.3716-2.7816,1.1242-6.1415,3.6675-7.4444a18.65,18.65,0,0,1,8.4234-1.77h0c.24,0,.4844.0034.7266.01a29.9071,29.9071,0,0,1,5.0949.606A17.41,17.41,0,0,0,131.4652,47.44c-6.0934-2.2227-13.0218-.96-18.8218,1.9434-7.4228,3.7157-12.57,10.36-19.7143,14.3433-1.5471.8627-3.203,1.5122-4.74,2.3939-2.4351,1.3969-5.3007,2.4272-5.3028,5.7684a1.5776,1.5776,0,0,0,.464,1.2777,1.6348,1.6348,0,0,0,.6573.2664,10.905,10.905,0,0,0,4.3533-.0647c1.0025-.18,2.0035-.4246,2.9932-.6311a12.0581,12.0581,0,0,1,5.271-.18c1.6525.405,3.0548,1.5721,4.6077,2.2593a14.68,14.68,0,0,0,4.4479,1.3875c1.778.15,3.3982-.1624,5.1153.5721,2.5852,1.1058,4.1358,3.7849,5.0466,6.4451a9.1571,9.1571,0,0,1,.5651,2.583c.1188,2.9995-1.6182,6.3716-3.332,8.7248-.2995.4112-.6156.81-.9006,1.2319a9.12,9.12,0,0,0-1.6175,4.226c1.3922.3084,4.1706-1.9521,5.4716-2.554a58.937,58.937,0,0,1,6.7492-2.6319c1.8031-.578,3.6374-1.07,5.39-1.7875a22.7285,22.7285,0,0,0,12.1657-12.0058,41.0894,41.0894,0,0,0,2.2279-7.9565,37.8426,37.8426,0,0,0,.8275-5.6374,24.7237,24.7237,0,0,0-.1233-3.9879C143.0269,63.41,142.7877,63.3989,142.5478,63.3989Z"/><path class="cls-1" d="M132.972,65.283c4.2926-3.2447,9.07-5.2826,14.8366-2.6331,1.0585.4863,2.07,1.0847,2.3153-.2686a3.5506,3.5506,0,0,0-1.45-2.8371,7.0872,7.0872,0,0,0-2.1948-1.0061,36.592,36.592,0,0,0-10.0965-1.962,18.1534,18.1534,0,0,0-8.607,1.6366c-2.1359,1.0942-2.7657,4.3457-3.0659,6.5931-.2061,1.543-.5667,4.6686.3346,6.0549.7985,1.2283,2.1761-.594,3.0944-1.4353C129.6962,67.9987,131.2972,66.549,132.972,65.283Z"/><path class="cls-1" d="M92.4111,50.3367c-3.5266-1.3159-6.9891-3.2088-10.7531-3.1918,1.5979,1.4575,3.2859,3.0716,3.6768,5.1987a17.5317,17.5317,0,0,1-.09,3.8894,11.7677,11.7677,0,0,0,2.18,7.29,2.3119,2.3119,0,0,0,1.1905.993,2.5083,2.5083,0,0,0,1.7535-.4274,66.5417,66.5417,0,0,0,6.8381-4.2893c1.1423-.8065,2.2655-1.64,3.3787-2.4862.8677-.66,2.4838-1.4841,3.0561-2.406,1.5273-2.46-2.0554-2.419-3.5158-2.6222A36.4718,36.4718,0,0,1,92.4111,50.3367Z"/><path class="cls-2" d="M81.1676,75.0461l.9052-.31C81.7653,74.8245,81.4647,74.9312,81.1676,75.0461Z"/><path class="cls-1" d="M110.074,96.034c1.8956-3.0073,3.2068-6.56,2.74-10.0837s-3.078-6.9064-6.5929-7.4378c-2.1208-.3207-4.4311.3568-6.3522-.5969-1.18-.5858-2.0135-1.7065-3.153-2.3682-1.8692-1.0855-4.2132-.7691-6.3194-.2835s-4.3049,1.1083-6.3893.5362a8.6671,8.6671,0,0,0-3.0213-.6827,12.8331,12.8331,0,0,0-6.6736,6.5961,17.0392,17.0392,0,0,0-.919,10.5483,3.3789,3.3789,0,0,0,.8256,1.7514,3.7,3.7,0,0,0-.2638.2633,7.82,7.82,0,0,0-1.4026,2.5445,29.1165,29.1165,0,0,0-1.4161,13.58c.7888,6.1845,4.7409,12.2028,4.6572,18.4407a3.97,3.97,0,0,1-.577,2.1854,2.0711,2.0711,0,0,1-1.95.9558,1.6269,1.6269,0,0,1-.367-3.1095c-1.3207-.7624-3.1379-1.1674-4.2688-.1443a2.9132,2.9132,0,0,0-.1914,3.6857,6.36,6.36,0,0,0,3.2883,2.2011,7.08,7.08,0,0,0,2.7415.488,3.3325,3.3325,0,0,0,2.4493-1.18,4.9489,4.9489,0,0,0,.77-1.919c1.6759-7.0477-.7707-14.4237-.8643-21.5568a16.43,16.43,0,0,1,.33-5.2806,10.6193,10.6193,0,0,1,2.13-4.06,4.584,4.584,0,0,1,2.2945-1.3905c-.5713.1262-1.4215,1.6112-1.638,2.1042-.3681.8384-.74,1.7249-1.04,2.6a17.188,17.188,0,0,0-.92,5.8871c.0606,3.104,1.0627,6.0792,1.47,9.1437.5131,3.8621,1.8366,7.3664,1.6626,11.3958-.0472,1.0929.82,8.8608-1.6979,7.9977a.6093.6093,0,0,1-.211-.9669c-.75-.052-1.7412.5876-1.5691,1.45a1.345,1.345,0,0,0,.3973.6476,3.007,3.007,0,0,0,1.6574.9092c2.279.3477,4.0236-4.0983,4.7422-5.7864,1.2276-2.8836,1.2878-6.432,1.1283-9.5267-.1891-3.6695-1.14-7.2417-1.7557-10.85a27.2341,27.2341,0,0,1-.3327-8.27,6.968,6.968,0,0,1,.9168-3.1072c.6377-.94,1.63-1.37,2.3763-2.1577-2.3662,2.4967-2.1869,5.5345-2.0707,8.7246a43.2171,43.2171,0,0,0,1.3311,8.1739c.61,2.6226.8237,5.4817,1.18,8.1666a27.1433,27.1433,0,0,1-.516,9.9c-.2427,1.0086-.7682,2.1967-1.8031,2.27-.5055.0359-1.0858-.4856-.82-.9172A1.9127,1.9127,0,0,0,84.6,140.173a2.8329,2.8329,0,0,0,2.9109-.044,5.6869,5.6869,0,0,0,2.0225-2.2532,18.3784,18.3784,0,0,0,1.9491-7.2552,41.1349,41.1349,0,0,0,.0784-6.7622,45.3254,45.3254,0,0,0-.3839-5.4019c-.3429-1.7832-.6808-3.5733-.967-5.3741-.538-3.3856-.3128-7.0652,2.3664-9.542-.6581.6084-.8627,2.8133-1.0244,3.6723a24.3526,24.3526,0,0,0-.3986,3.6908,34.2461,34.2461,0,0,0,.635,7.3819c.4376,2.3572,1.2079,4.6057,1.7906,6.8971a40.02,40.02,0,0,1,.6427,7.82,17.0973,17.0973,0,0,1-.8777,6.644c-.3653,1.0354-2.2737,3.5519-3.4841,2.1115a.8343.8343,0,0,1-.15-.55c.0013-.16.0567-.357.19-.4122-1.04.2221-2.4445,1.02-1.883,2.31a2.5087,2.5087,0,0,0,2.8548,1.303c1.3939-.202,2.34-1.3978,3.2853-2.3655a14.1676,14.1676,0,0,0,3.8437-7.3064,15.2631,15.2631,0,0,0,.0237-3.2593,35.6283,35.6283,0,0,0-1.3652-8.6862c.1326.5075,1.4183.7007,1.8141.7739,2.6127.4828,5.68.2846,7.258-2.0965a5.9185,5.9185,0,0,0,.91-4.1071,1.528,1.528,0,0,1-2.2233,1.1323,2.4852,2.4852,0,0,1-1.063-2.6063,7.2872,7.2872,0,0,1,1.2712-2.6988l2.9384-4.5025a8.2032,8.2032,0,0,0,1.2241-2.4285c.5681-2.2826-.2847-4.7663-.5388-7.1808.013-.0282.0243-.057.0376-.0851A28.41,28.41,0,0,1,110.074,96.034Zm-5.6838.3787c-2.4035.8309-5.6446.9958-7.893-.754a4.5943,4.5943,0,0,1-1.9225-3.5512A8.242,8.242,0,0,1,96.56,87.3714a15.2814,15.2814,0,0,1,4.4674-3.5316A9.3641,9.3641,0,0,1,103,83.0809a5.0494,5.0494,0,0,1,4.1136.6046,6.4562,6.4562,0,0,1,2.5771,4.5228C110.2324,92.4653,106.8161,95.5741,104.39,96.4127Z"/><path class="cls-1" d="M101.7563,90.2654a1.2649,1.2649,0,0,1-1.0768-.8808,1.8328,1.8328,0,0,0-1.4081,1.6519,3.3708,3.3708,0,0,0,2.28,3.2046,1.8461,1.8461,0,0,0,1.7551-.4012,4.5238,4.5238,0,0,0,.7825-1.57c.2272-.5439.6578-1.1,1.2472-1.1065,1.7856-.0187.5421-2.2507-.56-2.5293a3.3847,3.3847,0,0,0-1.8665.2687C102.3872,89.2562,102.596,90.2719,101.7563,90.2654Z"/><text class="cls-3" transform="translate(19.6676 210.0092)">sepio</text><path class="cls-2" d="M79.5964,75.8086l.0356-.0038c.0562-.0229.1129-.0446.17-.0665Z"/><path class="cls-2" d="M79.5964,75.6614a1.74,1.74,0,0,0-.6542.2241Z"/><text class="cls-4" transform="translate(23.0747 225.8687) scale(0.947 1)">SCIENTIFIC<tspan x="0" y="12">EVIDENCE &amp; PROVENANCE ONTOLOGY</tspan></text></svg>