<svg id="Layer_1" data-name="Layer 1" xmlns="http://www.w3.org/2000/svg" viewBox="0 0 373.6667 155"><defs><style>.cls-1{font-size:88.8947px;font-family:KelsonSans-Light, Kelson Sans;font-weight:300;letter-spacing:0.052em;}.cls-1,.cls-2,.cls-3,.cls-4{fill:#fff;}.cls-2{font-size:12.5787px;font-family:AppleSDGothicNeo-UltraLight-KSCpc-EUC-H, Apple SD Gothic Neo;letter-spacing:-0.021em;}.cls-4{opacity:0.53;}</style></defs><title>sepio_logo</title><text class="cls-1" transform="translate(156.0908 96.8624)">sepio</text><text class="cls-2" transform="translate(159.4979 112.7219) scale(0.947 1)">SCIENTIFIC<tspan x="0" y="12">EVIDENCE &amp; PROVENANCE ONTOLOGY</tspan></text><path class="cls-3" d="M82.3127,148.5676a8.7146,8.7146,0,0,1-.5595-17.4107A52.72,52.72,0,1,0,34.7805,108.36a8.7143,8.7143,0,1,1-14.3711,9.86,70.1294,70.1294,0,1,1,62.48,30.3281C82.6965,148.5612,82.5036,148.5676,82.3127,148.5676Z"/><path class="cls-3" d="M49.3305,82.0162l.0356-.0039c.0562-.0229.1129-.0445.17-.0664Z"/><path class="cls-3" d="M49.3305,81.869a1.74,1.74,0,0,0-.6541.224Z"/><path class="cls-3" d="M112.2819,69.4944c-2.8,0-5.6271,1.1515-8.8973,3.6235-1.6064,1.2143-3.1642,2.62-4.7514,4.0745-.138.1264-.3.2907-.4717.4646-.7766.7869-1.6568,1.6788-2.724,1.6788a1.8728,1.8728,0,0,1-1.6-.9242c-1.0417-1.6023-.8178-4.4843-.5063-6.8162.3715-2.7816,1.1241-6.1415,3.6674-7.4444a18.65,18.65,0,0,1,8.4234-1.77h0c.24,0,.4844.0033.7266.01a29.9189,29.9189,0,0,1,5.095.6059,17.41,17.41,0,0,0-10.0443-9.4612c-6.0933-2.2227-13.0218-.96-18.8218,1.9434-7.4228,3.7156-12.57,10.36-19.7143,14.3433-1.5471.8627-3.203,1.5121-4.74,2.3939-2.4351,1.3969-5.3007,2.4271-5.3027,5.7684a1.5776,1.5776,0,0,0,.4639,1.2777,1.6348,1.6348,0,0,0,.6573.2664,10.905,10.905,0,0,0,4.3533-.0647c1.0026-.18,2.0035-.4246,2.9932-.6311a12.0581,12.0581,0,0,1,5.271-.18c1.6525.405,3.0548,1.5721,4.6077,2.2592A14.6774,14.6774,0,0,0,75.4148,82.3c1.778.15,3.3982-.1624,5.1153.5721,2.5852,1.1058,4.1359,3.7849,5.0466,6.445a9.1577,9.1577,0,0,1,.5651,2.5831c.1188,3-1.6182,6.3716-3.332,8.7248-.2995.4112-.6156.8105-.9006,1.2318a9.1211,9.1211,0,0,0-1.6175,4.226c1.3922.3084,4.1706-1.9521,5.4717-2.5539a58.9226,58.9226,0,0,1,6.7492-2.6319c1.803-.578,3.6373-1.07,5.39-1.7875A22.7285,22.7285,0,0,0,110.068,87.104a41.0843,41.0843,0,0,0,2.2279-7.9565,37.8464,37.8464,0,0,0,.8275-5.6374A24.7119,24.7119,0,0,0,113,69.5222C112.761,69.5055,112.5218,69.4944,112.2819,69.4944Z"/><path class="cls-3" d="M102.7062,71.3786c4.2925-3.2448,9.07-5.2826,14.8365-2.6331,1.0585.4863,2.07,1.0846,2.3153-.2686a3.55,3.55,0,0,0-1.45-2.8371,7.0849,7.0849,0,0,0-2.1948-1.0061,36.592,36.592,0,0,0-10.0965-1.962,18.1521,18.1521,0,0,0-8.607,1.6366c-2.1359,1.0942-2.7657,4.3457-3.0659,6.5931-.2061,1.5429-.5666,4.6686.3346,6.0549.7985,1.2282,2.1762-.594,3.0944-1.4353C99.43,74.0943,101.0313,72.6446,102.7062,71.3786Z"/><path class="cls-3" d="M62.1452,56.4323c-3.5266-1.316-6.989-3.2088-10.7531-3.1918,1.5979,1.4575,3.2859,3.0715,3.6768,5.1987a17.5318,17.5318,0,0,1-.09,3.8894,11.768,11.768,0,0,0,2.18,7.29,2.3113,2.3113,0,0,0,1.19.993,2.5083,2.5083,0,0,0,1.7535-.4274A66.5762,66.5762,0,0,0,66.941,65.895c1.1423-.8066,2.2655-1.64,3.3787-2.4862.8677-.66,2.4838-1.4841,3.0562-2.406,1.5272-2.46-2.0555-2.419-3.5159-2.6223A36.4655,36.4655,0,0,1,62.1452,56.4323Z"/><path class="cls-4" d="M50.9017,81.1417l.9052-.31C51.4994,80.92,51.1988,81.0267,50.9017,81.1417Z"/><path class="cls-3" d="M79.8081,102.13c1.8956-3.0073,3.2068-6.56,2.74-10.0837S79.47,85.14,75.955,84.608c-2.1207-.3206-4.4311.3569-6.3522-.5968-1.18-.5859-2.0135-1.7065-3.153-2.3682-1.8692-1.0855-4.2132-.7691-6.3194-.2835s-4.3049,1.1083-6.3893.5361a8.6694,8.6694,0,0,0-3.0212-.6827,12.8336,12.8336,0,0,0-6.6737,6.5961,17.0394,17.0394,0,0,0-.919,10.5484,3.38,3.38,0,0,0,.8256,1.7514,3.6983,3.6983,0,0,0-.2638.2632,7.8217,7.8217,0,0,0-1.4026,2.5446,29.1177,29.1177,0,0,0-1.4161,13.58c.7888,6.1845,4.7409,12.2027,4.6572,18.4406a3.97,3.97,0,0,1-.577,2.1855,2.0711,2.0711,0,0,1-1.95.9558,1.6269,1.6269,0,0,1-.3669-3.1095c-1.3208-.7624-3.138-1.1674-4.2689-.1443a2.9132,2.9132,0,0,0-.1914,3.6857,6.3608,6.3608,0,0,0,3.2883,2.2011,7.08,7.08,0,0,0,2.7415.4879,3.332,3.332,0,0,0,2.4493-1.18,4.9493,4.9493,0,0,0,.77-1.9191c1.676-7.0476-.7707-14.4236-.8642-21.5567a16.4275,16.4275,0,0,1,.33-5.2807,10.62,10.62,0,0,1,2.13-4.06,4.584,4.584,0,0,1,2.2945-1.3905c-.5713.1262-1.4215,1.6112-1.638,2.1042-.3681.8384-.74,1.7248-1.04,2.6a17.19,17.19,0,0,0-.92,5.8871c.0606,3.104,1.0628,6.0792,1.47,9.1437.5132,3.8621,1.8366,7.3664,1.6626,11.3958-.0472,1.0928.82,8.8608-1.6979,7.9977a.6093.6093,0,0,1-.2109-.967c-.75-.0519-1.7413.5877-1.5691,1.45a1.3445,1.3445,0,0,0,.3972.6476,3.0066,3.0066,0,0,0,1.6574.9091c2.279.3477,4.0236-4.0982,4.7422-5.7863,1.2276-2.8837,1.2878-6.432,1.1283-9.5268-.1891-3.6695-1.14-7.2416-1.7557-10.85a27.2344,27.2344,0,0,1-.3327-8.27,6.968,6.968,0,0,1,.9168-3.1072c.6377-.94,1.63-1.37,2.3763-2.1577-2.3662,2.4967-2.1869,5.5345-2.0707,8.7246a43.2251,43.2251,0,0,0,1.3311,8.1739c.61,2.6225.8237,5.4817,1.18,8.1665a27.1452,27.1452,0,0,1-.5159,9.9c-.2428,1.0087-.7683,2.1967-1.8032,2.27-.5055.0359-1.0858-.4856-.82-.9172a1.9126,1.9126,0,0,0,.5345,2.6676,2.8327,2.8327,0,0,0,2.9109-.0439,5.6875,5.6875,0,0,0,2.0226-2.2533,18.379,18.379,0,0,0,1.949-7.2551,41.135,41.135,0,0,0,.0784-6.7622,45.3254,45.3254,0,0,0-.3839-5.4019c-.3429-1.7833-.6808-3.5733-.967-5.3741-.538-3.3856-.3128-7.0652,2.3664-9.542-.6581.6083-.8627,2.8133-1.0244,3.6723a24.3526,24.3526,0,0,0-.3986,3.6908,34.24,34.24,0,0,0,.6351,7.3819c.4375,2.3572,1.2078,4.6057,1.7905,6.897a40.0139,40.0139,0,0,1,.6427,7.8206,17.0973,17.0973,0,0,1-.8777,6.644c-.3653,1.0354-2.2737,3.5519-3.4841,2.1115a.8344.8344,0,0,1-.15-.55c.0013-.16.0567-.3569.19-.4121-1.04.2221-2.4446,1.02-1.8831,2.31a2.5088,2.5088,0,0,0,2.8548,1.303c1.3939-.2021,2.34-1.3978,3.2854-2.3655a14.1674,14.1674,0,0,0,3.8436-7.3065,15.2621,15.2621,0,0,0,.0237-3.2592,35.6283,35.6283,0,0,0-1.3652-8.6862c.1326.5075,1.4183.7007,1.8141.7738,2.6127.4829,5.68.2847,7.258-2.0965a5.9181,5.9181,0,0,0,.91-4.107A1.528,1.528,0,0,1,74.152,124.59a2.4852,2.4852,0,0,1-1.063-2.6063,7.2857,7.2857,0,0,1,1.2712-2.6988l2.9384-4.5025a8.2044,8.2044,0,0,0,1.2241-2.4285c.5681-2.2826-.2847-4.7663-.5388-7.1808.013-.0282.0243-.057.0376-.0851A28.41,28.41,0,0,1,79.8081,102.13Zm-5.6837.3787c-2.4035.8309-5.6447.9957-7.8931-.754a4.5947,4.5947,0,0,1-1.9225-3.5512A8.242,8.242,0,0,1,66.294,93.467a15.28,15.28,0,0,1,4.4675-3.5316,9.3612,9.3612,0,0,1,1.9724-.7589,5.0494,5.0494,0,0,1,4.1136.6046,6.456,6.456,0,0,1,2.5771,4.5228C79.9665,98.5609,76.55,101.67,74.1244,102.5083Z"/><path class="cls-3" d="M71.4905,96.361a1.2649,1.2649,0,0,1-1.0769-.8809,1.833,1.833,0,0,0-1.4081,1.652,3.3711,3.3711,0,0,0,2.2805,3.2046,1.8462,1.8462,0,0,0,1.755-.4012,4.5238,4.5238,0,0,0,.7825-1.57c.2272-.5439.6578-1.1,1.2472-1.1065,1.7856-.0187.5422-2.2507-.56-2.5294a3.3858,3.3858,0,0,0-1.8665.2688C72.1214,95.3517,72.33,96.3675,71.4905,96.361Z"/><path class="cls-3" d="M49.3305,81.9041l.0356-.0038c.0562-.0229.1129-.0445.17-.0664Z"/><path class="cls-3" d="M49.3305,81.757a1.74,1.74,0,0,0-.6541.224Z"/></svg>