<svg id="Layer_1" data-name="Layer 1" xmlns="http://www.w3.org/2000/svg" viewBox="0 0 220.474 241.3333"><defs><style>.cls-1{font-size:80px;font-family:KelsonSans-Light, Kelson Sans;font-weight:300;letter-spacing:0.052em;}.cls-1,.cls-3,.cls-4{fill:#797979;}.cls-2{font-size:12.5787px;fill:#828385;font-family:AppleSDGothicNeo-UltraLight-KSCpc-EUC-H, Apple SD Gothic Neo;letter-spacing:-0.021em;}.cls-4{opacity:0.53;}</style></defs><title>sepio_logo</title><text class="cls-1" transform="translate(19.6676 208.1818)">sepio</text><text class="cls-2" transform="translate(23.0747 224.0413) scale(0.947 1)">SCIENTIFIC<tspan x="0" y="12">EVIDENCE &amp; PROVENANCE ONTOLOGY</tspan></text><path class="cls-3" d="M112.5786,143.9617a8.7146,8.7146,0,0,1-.56-17.4107,52.72,52.72,0,1,0-46.9726-22.7968,8.7143,8.7143,0,1,1-14.3711,9.86,70.1294,70.1294,0,1,1,62.4805,30.3281C112.9624,143.9553,112.77,143.9617,112.5786,143.9617Z"/><path class="cls-3" d="M79.5964,77.41l.0356-.0039c.0562-.0228.1129-.0445.17-.0664Z"/><path class="cls-3" d="M79.5964,77.2631a1.741,1.741,0,0,0-.6542.224Z"/><path class="cls-3" d="M142.5478,64.8885c-2.8,0-5.6271,1.1515-8.8973,3.6235-1.6064,1.2143-3.1642,2.62-4.7514,4.0745-.138.1264-.3.2907-.4718.4646-.7765.7869-1.6567,1.6788-2.7239,1.6788a1.8728,1.8728,0,0,1-1.6-.9241c-1.0417-1.6023-.8178-4.4844-.5064-6.8163.3716-2.7816,1.1242-6.1415,3.6675-7.4444a18.65,18.65,0,0,1,8.4234-1.77h0c.24,0,.4844.0034.7266.01a29.9166,29.9166,0,0,1,5.0949.6059A17.41,17.41,0,0,0,131.4652,48.93c-6.0934-2.2227-13.0218-.96-18.8218,1.9434-7.4228,3.7157-12.57,10.36-19.7143,14.3433-1.5471.8627-3.203,1.5122-4.74,2.3939-2.4351,1.3969-5.3007,2.4271-5.3028,5.7684a1.5776,1.5776,0,0,0,.464,1.2777,1.6348,1.6348,0,0,0,.6573.2664,10.905,10.905,0,0,0,4.3533-.0647c1.0025-.18,2.0035-.4246,2.9932-.6311a12.0581,12.0581,0,0,1,5.271-.18c1.6525.405,3.0548,1.5721,4.6077,2.2593a14.68,14.68,0,0,0,4.4479,1.3875c1.778.15,3.3982-.1624,5.1153.5721,2.5852,1.1058,4.1358,3.7849,5.0466,6.445a9.1577,9.1577,0,0,1,.5651,2.5831c.1188,2.9995-1.6182,6.3716-3.332,8.7248-.2995.4112-.6156.81-.9006,1.2319a9.12,9.12,0,0,0-1.6175,4.2259c1.3922.3085,4.1706-1.952,5.4716-2.5539a58.937,58.937,0,0,1,6.7492-2.6319c1.8031-.578,3.6374-1.07,5.39-1.7875a22.7289,22.7289,0,0,0,12.1657-12.0058,41.0914,41.0914,0,0,0,2.2279-7.9565,37.8445,37.8445,0,0,0,.8275-5.6374,24.7237,24.7237,0,0,0-.1233-3.9879C143.0269,64.9,142.7877,64.8885,142.5478,64.8885Z"/><path class="cls-3" d="M132.972,66.7727c4.2926-3.2447,9.07-5.2826,14.8366-2.6331,1.0585.4863,2.07,1.0846,2.3153-.2686a3.5506,3.5506,0,0,0-1.45-2.8371,7.0849,7.0849,0,0,0-2.1948-1.0061,36.592,36.592,0,0,0-10.0965-1.962,18.1521,18.1521,0,0,0-8.607,1.6366c-2.1359,1.0942-2.7657,4.3457-3.0659,6.5931-.2061,1.5429-.5667,4.6686.3346,6.0549.7985,1.2283,2.1761-.594,3.0944-1.4353C129.6962,69.4884,131.2972,68.0387,132.972,66.7727Z"/><path class="cls-3" d="M92.4111,51.8264c-3.5266-1.3159-6.9891-3.2088-10.7531-3.1918,1.5979,1.4575,3.2859,3.0715,3.6768,5.1987a17.5318,17.5318,0,0,1-.09,3.8894,11.7679,11.7679,0,0,0,2.18,7.29,2.3119,2.3119,0,0,0,1.1905.993,2.5083,2.5083,0,0,0,1.7535-.4274,66.5589,66.5589,0,0,0,6.8381-4.2893c1.1423-.8066,2.2655-1.64,3.3787-2.4862.8677-.66,2.4838-1.4841,3.0561-2.406,1.5273-2.46-2.0554-2.419-3.5158-2.6223A36.4655,36.4655,0,0,1,92.4111,51.8264Z"/><path class="cls-4" d="M81.1676,76.5358l.9052-.31C81.7653,76.3141,81.4647,76.4208,81.1676,76.5358Z"/><path class="cls-3" d="M110.074,97.5237c1.8956-3.0073,3.2068-6.56,2.74-10.0837s-3.078-6.9064-6.5929-7.4379c-2.1208-.3206-4.4311.3569-6.3522-.5968-1.18-.5858-2.0135-1.7065-3.153-2.3682-1.8692-1.0855-4.2132-.7691-6.3194-.2835s-4.3049,1.1083-6.3893.5361a8.6694,8.6694,0,0,0-3.0213-.6827,12.8338,12.8338,0,0,0-6.6736,6.5961,17.04,17.04,0,0,0-.919,10.5484,3.3789,3.3789,0,0,0,.8256,1.7514,3.6983,3.6983,0,0,0-.2638.2632,7.8217,7.8217,0,0,0-1.4026,2.5446,29.1164,29.1164,0,0,0-1.4161,13.58c.7888,6.1845,4.7409,12.2027,4.6572,18.4406a3.97,3.97,0,0,1-.577,2.1855,2.0711,2.0711,0,0,1-1.95.9558,1.6269,1.6269,0,0,1-.367-3.1095c-1.3207-.7624-3.1379-1.1674-4.2688-.1443a2.9132,2.9132,0,0,0-.1914,3.6857,6.3608,6.3608,0,0,0,3.2883,2.2011,7.08,7.08,0,0,0,2.7415.4879,3.332,3.332,0,0,0,2.4493-1.18,4.9493,4.9493,0,0,0,.77-1.9191c1.6759-7.0476-.7707-14.4236-.8643-21.5567a16.43,16.43,0,0,1,.33-5.2806,10.6178,10.6178,0,0,1,2.13-4.06,4.584,4.584,0,0,1,2.2945-1.3905c-.5713.1262-1.4215,1.6112-1.638,2.1042-.3681.8384-.74,1.7249-1.04,2.6a17.188,17.188,0,0,0-.92,5.8871c.0606,3.104,1.0627,6.0792,1.47,9.1437.5131,3.8621,1.8366,7.3664,1.6626,11.3958-.0472,1.0929.82,8.8608-1.6979,7.9977a.6093.6093,0,0,1-.211-.967c-.75-.0519-1.7412.5877-1.5691,1.45a1.3455,1.3455,0,0,0,.3973.6476,3.007,3.007,0,0,0,1.6574.9092c2.279.3476,4.0236-4.0983,4.7422-5.7864,1.2276-2.8837,1.2878-6.432,1.1283-9.5268-.1891-3.6695-1.14-7.2416-1.7557-10.85a27.2342,27.2342,0,0,1-.3327-8.27,6.968,6.968,0,0,1,.9168-3.1072c.6377-.94,1.63-1.37,2.3763-2.1577-2.3662,2.4967-2.1869,5.5345-2.0707,8.7246a43.2171,43.2171,0,0,0,1.3311,8.1739c.61,2.6225.8237,5.4817,1.18,8.1665a27.1437,27.1437,0,0,1-.516,9.9c-.2427,1.0086-.7682,2.1967-1.8031,2.27-.5055.0359-1.0858-.4856-.82-.9172a1.9127,1.9127,0,0,0,.5345,2.6677,2.8329,2.8329,0,0,0,2.9109-.044,5.6865,5.6865,0,0,0,2.0225-2.2533,18.3775,18.3775,0,0,0,1.9491-7.2551,41.135,41.135,0,0,0,.0784-6.7622,45.3254,45.3254,0,0,0-.3839-5.4019c-.3429-1.7833-.6808-3.5733-.967-5.3741-.538-3.3856-.3128-7.0652,2.3664-9.542-.6581.6084-.8627,2.8133-1.0244,3.6723a24.3526,24.3526,0,0,0-.3986,3.6908,34.2461,34.2461,0,0,0,.635,7.3819c.4376,2.3572,1.2079,4.6057,1.7906,6.897a40.0217,40.0217,0,0,1,.6427,7.8206,17.0973,17.0973,0,0,1-.8777,6.644c-.3653,1.0354-2.2737,3.5519-3.4841,2.1115a.8343.8343,0,0,1-.15-.55c.0013-.16.0567-.357.19-.4122-1.04.2221-2.4445,1.02-1.883,2.31a2.5088,2.5088,0,0,0,2.8548,1.303c1.3939-.2021,2.34-1.3978,3.2853-2.3655a14.1675,14.1675,0,0,0,3.8437-7.3065,15.2621,15.2621,0,0,0,.0237-3.2592,35.6283,35.6283,0,0,0-1.3652-8.6862c.1326.5075,1.4183.7007,1.8141.7739,2.6127.4828,5.68.2846,7.258-2.0965a5.9185,5.9185,0,0,0,.91-4.1071,1.528,1.528,0,0,1-2.2233,1.1323,2.4852,2.4852,0,0,1-1.063-2.6063,7.2865,7.2865,0,0,1,1.2712-2.6988l2.9384-4.5025a8.2044,8.2044,0,0,0,1.2241-2.4285c.5681-2.2826-.2847-4.7663-.5388-7.1808.013-.0282.0243-.057.0376-.0851A28.41,28.41,0,0,1,110.074,97.5237Zm-5.6838.3787c-2.4035.8309-5.6446.9957-7.893-.754a4.5945,4.5945,0,0,1-1.9225-3.5512A8.242,8.242,0,0,1,96.56,88.8611a15.2814,15.2814,0,0,1,4.4674-3.5316A9.3641,9.3641,0,0,1,103,84.5706a5.0494,5.0494,0,0,1,4.1136.6046,6.456,6.456,0,0,1,2.5771,4.5228C110.2324,93.955,106.8161,97.0638,104.39,97.9024Z"/><path class="cls-3" d="M101.7563,91.7551a1.2649,1.2649,0,0,1-1.0768-.8809,1.833,1.833,0,0,0-1.4081,1.652,3.3708,3.3708,0,0,0,2.28,3.2046,1.8461,1.8461,0,0,0,1.7551-.4012,4.5238,4.5238,0,0,0,.7825-1.57c.2272-.5439.6578-1.1,1.2472-1.1065,1.7856-.0187.5421-2.2507-.56-2.5294a3.3857,3.3857,0,0,0-1.8665.2688C102.3872,90.7458,102.596,91.7616,101.7563,91.7551Z"/><path class="cls-3" d="M79.5964,77.2983l.0356-.0039c.0562-.0229.1129-.0445.17-.0664Z"/><path class="cls-3" d="M79.5964,77.1511a1.741,1.741,0,0,0-.6542.224Z"/></svg>