<svg id="Layer_1" data-name="Layer 1" xmlns="http://www.w3.org/2000/svg" viewBox="0 0 220.474 241.3333"><defs><style>.cls-1,.cls-2,.cls-3,.cls-4{fill:#fff;}.cls-2{opacity:0.53;}.cls-3{font-size:80px;font-family:KelsonSans-Light, Kelson Sans;font-weight:300;letter-spacing:0.052em;}.cls-4{font-size:12.5787px;font-family:AppleSDGothicNeo-UltraLight-KSCpc-EUC-H, Apple SD Gothic Neo;letter-spacing:-0.021em;}</style></defs><title>sepio_logo</title><path class="cls-1" d="M112.5786,145.2767a8.7146,8.7146,0,0,1-.56-17.4106,52.72,52.72,0,1,0-46.9726-22.7969,8.7143,8.7143,0,0,1-14.3711,9.86,70.1294,70.1294,0,1,1,62.4805,30.3281C112.9624,145.27,112.77,145.2767,112.5786,145.2767Z"/><path class="cls-1" d="M79.5964,78.7253l.0356-.0038c.0562-.0229.1129-.0445.17-.0664Z"/><path class="cls-1" d="M79.5964,78.5782a1.741,1.741,0,0,0-.6542.224Z"/><path class="cls-1" d="M142.5478,66.2036c-2.8,0-5.6271,1.1515-8.8973,3.6234-1.6064,1.2143-3.1642,2.62-4.7514,4.0745-.138.1265-.3.2908-.4718.4647-.7765.7869-1.6567,1.6788-2.7239,1.6788a1.873,1.873,0,0,1-1.6-.9242c-1.0417-1.6023-.8178-4.4844-.5064-6.8162.3716-2.7816,1.1242-6.1416,3.6675-7.4445a18.653,18.653,0,0,1,8.4234-1.77h0c.24,0,.4844.0034.7266.01a29.9172,29.9172,0,0,1,5.0949.606,17.41,17.41,0,0,0-10.0442-9.4612c-6.0934-2.2227-13.0218-.96-18.8218,1.9434-7.4228,3.7156-12.57,10.36-19.7143,14.3433-1.5471.8626-3.203,1.5121-4.74,2.3938-2.4351,1.3969-5.3007,2.4272-5.3028,5.7685a1.5774,1.5774,0,0,0,.464,1.2776,1.632,1.632,0,0,0,.6573.2664,10.905,10.905,0,0,0,4.3533-.0646c1.0025-.18,2.0035-.4246,2.9932-.6311a12.06,12.06,0,0,1,5.271-.18c1.6525.4051,3.0548,1.5721,4.6077,2.2593a14.683,14.683,0,0,0,4.4479,1.3876c1.778.15,3.3982-.1625,5.1153.5721,2.5852,1.1058,4.1358,3.7848,5.0466,6.445a9.1577,9.1577,0,0,1,.5651,2.5831c.1188,2.9995-1.6182,6.3716-3.332,8.7248-.2995.4112-.6156.81-.9006,1.2318a9.1211,9.1211,0,0,0-1.6175,4.226c1.3922.3084,4.1706-1.9521,5.4716-2.5539a58.9376,58.9376,0,0,1,6.7492-2.632c1.8031-.578,3.6374-1.07,5.39-1.7874a22.729,22.729,0,0,0,12.1657-12.0059,41.0885,41.0885,0,0,0,2.2279-7.9564,37.8464,37.8464,0,0,0,.8275-5.6374,24.725,24.725,0,0,0-.1233-3.988C143.0269,66.2147,142.7877,66.2036,142.5478,66.2036Z"/><path class="cls-1" d="M132.972,68.0878c4.2926-3.2448,9.07-5.2827,14.8366-2.6332,1.0585.4864,2.07,1.0847,2.3153-.2685a3.5509,3.5509,0,0,0-1.45-2.8372,7.09,7.09,0,0,0-2.1948-1.0061,36.5957,36.5957,0,0,0-10.0965-1.962,18.1522,18.1522,0,0,0-8.607,1.6367c-2.1359,1.0942-2.7657,4.3456-3.0659,6.593-.2061,1.543-.5667,4.6687.3346,6.055.7985,1.2282,2.1761-.594,3.0944-1.4353C129.6962,70.8035,131.2972,69.3538,132.972,68.0878Z"/><path class="cls-1" d="M92.4111,53.1415c-3.5266-1.316-6.9891-3.2088-10.7531-3.1919,1.5979,1.4576,3.2859,3.0716,3.6768,5.1988a17.5318,17.5318,0,0,1-.09,3.8894,11.7674,11.7674,0,0,0,2.18,7.29,2.311,2.311,0,0,0,1.1905.993,2.5077,2.5077,0,0,0,1.7535-.4273,66.5762,66.5762,0,0,0,6.8381-4.2893c1.1423-.8066,2.2655-1.64,3.3787-2.4862.8677-.66,2.4838-1.4841,3.0561-2.4061,1.5273-2.46-2.0554-2.4189-3.5158-2.6222A36.4655,36.4655,0,0,1,92.4111,53.1415Z"/><path class="cls-2" d="M81.1676,77.8508l.9052-.31C81.7653,77.6292,81.4647,77.7359,81.1676,77.8508Z"/><path class="cls-1" d="M110.074,98.8387c1.8956-3.0073,3.2068-6.56,2.74-10.0836s-3.078-6.9064-6.5929-7.4379c-2.1208-.3207-4.4311.3569-6.3522-.5968-1.18-.5859-2.0135-1.7066-3.153-2.3683-1.8692-1.0855-4.2132-.7691-6.3194-.2835s-4.3049,1.1083-6.3893.5362a8.6694,8.6694,0,0,0-3.0213-.6827,12.8338,12.8338,0,0,0-6.6736,6.5961,17.0392,17.0392,0,0,0-.919,10.5483,3.3782,3.3782,0,0,0,.8256,1.7514,3.721,3.721,0,0,0-.2638.2633,7.8213,7.8213,0,0,0-1.4026,2.5445,29.1165,29.1165,0,0,0-1.4161,13.58c.7888,6.1846,4.7409,12.2028,4.6572,18.4407a3.97,3.97,0,0,1-.577,2.1855,2.0713,2.0713,0,0,1-1.95.9558,1.6269,1.6269,0,0,1-.367-3.1095c-1.3207-.7625-3.1379-1.1675-4.2688-.1444a2.9133,2.9133,0,0,0-.1914,3.6858,6.36,6.36,0,0,0,3.2883,2.201,7.0783,7.0783,0,0,0,2.7415.488,3.3321,3.3321,0,0,0,2.4493-1.18,4.9489,4.9489,0,0,0,.77-1.919c1.6759-7.0476-.7707-14.4236-.8643-21.5567a16.43,16.43,0,0,1,.33-5.2807,10.6193,10.6193,0,0,1,2.13-4.06,4.5838,4.5838,0,0,1,2.2945-1.39c-.5713.1261-1.4215,1.6111-1.638,2.1042-.3681.8384-.74,1.7248-1.04,2.6a17.1876,17.1876,0,0,0-.92,5.8871c.0606,3.104,1.0627,6.0792,1.47,9.1437.5131,3.8621,1.8366,7.3664,1.6626,11.3957-.0472,1.0929.82,8.8609-1.6979,7.9977a.6092.6092,0,0,1-.211-.9669c-.75-.052-1.7412.5876-1.5691,1.45a1.3453,1.3453,0,0,0,.3973.6477,3.0069,3.0069,0,0,0,1.6574.9091c2.279.3477,4.0236-4.0983,4.7422-5.7864,1.2276-2.8836,1.2878-6.4319,1.1283-9.5267-.1891-3.67-1.14-7.2416-1.7557-10.85a27.2344,27.2344,0,0,1-.3327-8.27,6.9676,6.9676,0,0,1,.9168-3.1072c.6377-.94,1.63-1.37,2.3763-2.1577-2.3662,2.4966-2.1869,5.5344-2.0707,8.7246a43.2148,43.2148,0,0,0,1.3311,8.1738c.61,2.6226.8237,5.4817,1.18,8.1666a27.143,27.143,0,0,1-.516,9.9c-.2427,1.0087-.7682,2.1967-1.8031,2.27-.5055.036-1.0858-.4855-.82-.9171a1.9126,1.9126,0,0,0,.5345,2.6676,2.8327,2.8327,0,0,0,2.9109-.0439,5.6878,5.6878,0,0,0,2.0225-2.2533,18.3779,18.3779,0,0,0,1.9491-7.2551,41.1361,41.1361,0,0,0,.0784-6.7623,45.3252,45.3252,0,0,0-.3839-5.4018c-.3429-1.7833-.6808-3.5733-.967-5.3742-.538-3.3856-.3128-7.0652,2.3664-9.5419-.6581.6083-.8627,2.8132-1.0244,3.6723a24.35,24.35,0,0,0-.3986,3.6907,34.247,34.247,0,0,0,.635,7.382c.4376,2.3572,1.2079,4.6056,1.7906,6.897a40.0213,40.0213,0,0,1,.6427,7.8205,17.0978,17.0978,0,0,1-.8777,6.6441c-.3653,1.0353-2.2737,3.5519-3.4841,2.1115a.8345.8345,0,0,1-.15-.55c.0013-.16.0567-.3569.19-.4122-1.04.2222-2.4445,1.02-1.883,2.31a2.509,2.509,0,0,0,2.8548,1.303c1.3939-.2021,2.34-1.3979,3.2853-2.3655a14.1679,14.1679,0,0,0,3.8437-7.3065,15.2622,15.2622,0,0,0,.0237-3.2592,35.63,35.63,0,0,0-1.3652-8.6863c.1326.5076,1.4183.7008,1.8141.7739,2.6127.4829,5.68.2847,7.258-2.0965a5.9184,5.9184,0,0,0,.91-4.1071,1.528,1.528,0,0,1-2.2233,1.1324,2.4853,2.4853,0,0,1-1.063-2.6064,7.286,7.286,0,0,1,1.2712-2.6987l2.9384-4.5025a8.2049,8.2049,0,0,0,1.2241-2.4286c.5681-2.2826-.2847-4.7663-.5388-7.1808.013-.0282.0243-.0569.0376-.085A28.4217,28.4217,0,0,1,110.074,98.8387Zm-5.6838.3788c-2.4035.8309-5.6446.9957-7.893-.7541a4.5943,4.5943,0,0,1-1.9225-3.5512A8.2422,8.2422,0,0,1,96.56,90.1761a15.2793,15.2793,0,0,1,4.4674-3.5315A9.3586,9.3586,0,0,1,103,85.8857a5.0494,5.0494,0,0,1,4.1136.6045,6.4564,6.4564,0,0,1,2.5771,4.5228C110.2324,95.27,106.8161,98.3788,104.39,99.2175Z"/><path class="cls-1" d="M101.7563,93.07a1.2652,1.2652,0,0,1-1.0768-.8809,1.8329,1.8329,0,0,0-1.4081,1.652,3.3706,3.3706,0,0,0,2.28,3.2045,1.8459,1.8459,0,0,0,1.7551-.4012,4.5242,4.5242,0,0,0,.7825-1.57c.2272-.5439.6578-1.1,1.2472-1.1066,1.7856-.0186.5421-2.2507-.56-2.5293a3.3848,3.3848,0,0,0-1.8665.2688C102.3872,92.0609,102.596,93.0767,101.7563,93.07Z"/><path class="cls-1" d="M79.5964,78.6133l.0356-.0038c.0562-.0229.1129-.0445.17-.0665Z"/><path class="cls-1" d="M79.5964,78.4662a1.741,1.741,0,0,0-.6542.224Z"/><text class="cls-3" transform="translate(19.6676 211.0874)">sepio</text><text class="cls-4" transform="translate(23.0747 226.947) scale(0.947 1)">SCIENTIFIC<tspan x="0" y="12">EVIDENCE &amp; PROVENANCE ONTOLOGY</tspan></text></svg>