<svg id="Layer_1" data-name="Layer 1" xmlns="http://www.w3.org/2000/svg" viewBox="0 0 220.47 241.33"><defs><style>.cls-1{fill:#828385;}.cls-2{fill:#c6c6c5;}</style></defs><path class="cls-1" d="M14.54,216.66v-.57a6,6,0,0,0,2.59.56c1.62,0,2.33-.65,2.33-1.71s-.66-1.41-1.85-1.76l-.74-.24c-1.46-.44-2.18-1-2.18-2.29s.94-2.1,2.8-2.1a5.16,5.16,0,0,1,2.26.47v.6a5.29,5.29,0,0,0-2.29-.48c-1.34,0-2,.6-2,1.46s.41,1.35,1.7,1.73l.74.22c1.42.43,2.3.93,2.3,2.34s-.9,2.37-3,2.37A5.7,5.7,0,0,1,14.54,216.66Z"/><path class="cls-1" d="M21.81,208.68h.76v8.44h-.76Z"/><path class="cls-1" d="M24.64,208.68h1.11l3,7.51h.05l3-7.51H33v8.44h-.77v-7.56h0l-3.1,7.56h-.71l-3.08-7.56h0v7.56h-.68Z"/><path class="cls-1" d="M35.08,208.68h2.55c2.21,0,3.11.89,3.11,2.43s-1.1,2.46-2.94,2.46h-2v3.55h-.73ZM37.65,213c1.59,0,2.28-.63,2.28-1.83s-.58-1.9-2.36-1.9H35.81V213Z"/><path class="cls-1" d="M42.09,208.68h.75v7.86h4.48v.58H42.09Z"/><path class="cls-1" d="M48.69,208.68h5.44v.58H49.44v3.23h3.61v.58H49.44v3.47h4.7v.58H48.69Z"/><path class="cls-1" d="M58.47,216.66v-.57a6,6,0,0,0,2.59.56c1.62,0,2.33-.65,2.33-1.71s-.66-1.41-1.85-1.76l-.74-.24c-1.46-.44-2.18-1-2.18-2.29s1-2.1,2.8-2.1a5.13,5.13,0,0,1,2.26.47v.6a5.29,5.29,0,0,0-2.29-.48c-1.34,0-2,.6-2,1.46s.41,1.35,1.7,1.73l.74.22c1.42.43,2.3.93,2.3,2.34s-.9,2.37-3,2.37A5.7,5.7,0,0,1,58.47,216.66Z"/><path class="cls-1" d="M67.91,209.26h-3v-.58h6.8v.58h-3v7.86h-.76Z"/><path class="cls-1" d="M74.63,208.68h.74l3.44,8.44H78l-1.09-2.68H73l-1.08,2.68h-.72Zm-1.44,5.17H76.7L75,209.57Z"/><path class="cls-1" d="M80,208.68h.89l5,7.29h0v-7.29h.69v8.44h-.78l-5.16-7.51h0v7.51H80Z"/><path class="cls-1" d="M88.66,208.68h2.58c2.89,0,4.41,1.29,4.41,4.06v.19c0,2.74-1.38,4.19-4.4,4.19H88.66Zm2.61,7.85c2.46,0,3.58-1.07,3.58-3.51v-.28c0-2.51-1.26-3.47-3.68-3.47H89.41v7.26Z"/><path class="cls-1" d="M99.75,208.68h.73l3.45,8.44h-.79l-1.1-2.68h-4L97,217.12h-.72Zm-1.44,5.17h3.5l-1.75-4.28Z"/><path class="cls-1" d="M105.07,208.68h2.59c2,0,3,.91,3,2.3a2.13,2.13,0,0,1-2,2.23v0l2.61,3.88h-.86l-2.49-3.75h-2.08v3.75h-.75Zm2.56,4.12c1.66,0,2.2-.73,2.2-1.82s-.61-1.72-2.21-1.72h-1.8v3.54Z"/><path class="cls-1" d="M112.52,208.68h2.57c2.89,0,4.42,1.29,4.42,4.06v.19c0,2.74-1.39,4.19-4.4,4.19h-2.59Zm2.6,7.85c2.46,0,3.58-1.07,3.58-3.51v-.28c0-2.51-1.26-3.47-3.68-3.47h-1.76v7.26Z"/><path class="cls-1" d="M124.37,208.68h5.3v.58h-4.55v3.29h3.53v.61h-3.53v4h-.75Z"/><path class="cls-1" d="M130.59,213v-.19c0-2.7,1.53-4.25,4-4.25s4,1.5,4,4.25V213c0,2.68-1.54,4.25-4,4.25S130.59,215.75,130.59,213Zm7.19.1v-.29c0-2.28-1.05-3.66-3.21-3.67s-3.18,1.36-3.18,3.55v.3c0,2.29,1.05,3.68,3.21,3.68S137.78,215.29,137.78,213.09Z"/><path class="cls-1" d="M140.11,208.68h2.59c2,0,3,.91,3,2.3a2.14,2.14,0,0,1-2,2.23v0l2.6,3.88h-.86l-2.49-3.75h-2.08v3.75h-.74Zm2.56,4.12c1.66,0,2.2-.73,2.2-1.82s-.61-1.72-2.22-1.72h-1.8v3.54Z"/><path class="cls-1" d="M150.26,216.66v-.57a6,6,0,0,0,2.59.56c1.62,0,2.33-.65,2.33-1.71s-.66-1.41-1.85-1.76l-.74-.24c-1.46-.44-2.18-1-2.18-2.29s1-2.1,2.8-2.1a5.13,5.13,0,0,1,2.26.47v.6a5.29,5.29,0,0,0-2.29-.48c-1.34,0-2,.6-2,1.46s.41,1.35,1.7,1.73l.74.22c1.42.43,2.3.93,2.3,2.34s-.9,2.37-3,2.37A5.7,5.7,0,0,1,150.26,216.66Z"/><path class="cls-1" d="M157.5,208.68h.73v3.76h5.16v-3.76h.75v8.44h-.75V213h-5.16v4.1h-.73Z"/><path class="cls-1" d="M168.76,208.68h.74l3.44,8.44h-.79l-1.09-2.68h-4L166,217.12h-.72Zm-1.44,5.17h3.5l-1.74-4.28Z"/><path class="cls-1" d="M174.09,208.68h2.59c2,0,3,.91,3,2.3a2.13,2.13,0,0,1-2,2.23v0l2.6,3.88h-.86l-2.49-3.75h-2.07v3.75h-.75Zm2.56,4.12c1.66,0,2.2-.73,2.2-1.82s-.61-1.72-2.22-1.72h-1.79v3.54Z"/><path class="cls-1" d="M181.57,208.68h.76v8.44h-.76Z"/><path class="cls-1" d="M184.41,208.68h.89l5,7.29h0v-7.29h.69v8.44h-.77l-5.16-7.51h0v7.51h-.68Z"/><path class="cls-1" d="M192.57,213v-.19c0-3,1.83-4.29,4.27-4.29a5.26,5.26,0,0,1,2.36.47v.6a5.48,5.48,0,0,0-2.41-.48c-2.38,0-3.41,1.51-3.41,3.61V213c0,2.21.87,3.63,3.44,3.63a6.83,6.83,0,0,0,2-.27v-2.61h-2.11v-.58h2.87v3.61a8.82,8.82,0,0,1-2.74.44C194.12,217.24,192.57,215.85,192.57,213Z"/><path class="cls-1" d="M44.19,226v-.19c0-2.7,1.53-4.25,4-4.25s4,1.5,4,4.25V226c0,2.68-1.54,4.25-4,4.25S44.19,228.75,44.19,226Zm7.19.1v-.29c0-2.28-1.05-3.66-3.21-3.67S45,223.49,45,225.68v.3c0,2.29,1,3.68,3.21,3.68S51.38,228.29,51.38,226.09Z"/><path class="cls-1" d="M53.72,221.68h.89l5,7.29h0v-7.29h.69v8.44h-.77l-5.17-7.51h0v7.51h-.68Z"/><path class="cls-1" d="M64.62,222.26h-3v-.58H68.4v.58h-3v7.86h-.76Z"/><path class="cls-1" d="M69.11,226v-.19c0-2.7,1.53-4.25,4-4.25s4,1.5,4,4.25V226c0,2.68-1.53,4.25-4,4.25S69.11,228.75,69.11,226Zm7.19.1v-.29c0-2.28-1-3.66-3.21-3.67s-3.18,1.36-3.18,3.55v.3c0,2.29,1,3.68,3.21,3.68S76.3,228.29,76.3,226.09Z"/><path class="cls-1" d="M78.62,221.68h.75v7.86h4.49v.58H78.62Z"/><path class="cls-1" d="M84.7,226v-.19c0-2.7,1.54-4.25,4-4.25s4,1.5,4,4.25V226c0,2.68-1.54,4.25-4,4.25S84.7,228.75,84.7,226Zm7.2.1v-.29c0-2.28-1.06-3.66-3.22-3.67s-3.18,1.36-3.18,3.55v.3c0,2.29,1,3.68,3.21,3.68S91.9,228.29,91.9,226.09Z"/><path class="cls-1" d="M93.69,226v-.19c0-3,1.83-4.29,4.27-4.29a5.26,5.26,0,0,1,2.36.47v.6a5.48,5.48,0,0,0-2.41-.48c-2.38,0-3.41,1.51-3.41,3.61V226c0,2.21.87,3.63,3.44,3.63a6.83,6.83,0,0,0,2-.27v-2.61H97.8v-.58h2.87v3.61a8.82,8.82,0,0,1-2.74.44C95.24,230.24,93.69,228.85,93.69,226Z"/><path class="cls-1" d="M104.69,226.67l-3.11-5h.79l2.72,4.35h0l2.69-4.35h.74l-3.11,5v3.45h-.75Z"/><path class="cls-1" d="M113,221.68h1.1l3,7.51h0l3-7.51h1.14v8.44h-.76v-7.56h0l-3.1,7.56h-.7l-3.09-7.56h0v7.56H113Z"/><path class="cls-1" d="M126,221.68h.73l3.45,8.44h-.79l-1.09-2.68h-4l-1.08,2.68h-.72Zm-1.44,5.17h3.5l-1.74-4.28Z"/><path class="cls-1" d="M131.37,221.68h2.56c2.2,0,3.1.89,3.1,2.43s-1.09,2.46-2.93,2.46h-2v3.55h-.73Zm2.57,4.31c1.6,0,2.29-.63,2.29-1.83s-.58-1.9-2.37-1.9H132.1V226Z"/><path class="cls-1" d="M138.4,221.68H141c2.2,0,3.1.89,3.1,2.43s-1.1,2.46-2.94,2.46h-2v3.55h-.73ZM141,226c1.59,0,2.29-.63,2.29-1.83s-.59-1.9-2.37-1.9h-1.76V226Z"/><path class="cls-1" d="M145.46,221.68h.76v8.44h-.76Z"/><path class="cls-1" d="M148.29,221.68h.89l5,7.29h0v-7.29h.69v8.44h-.77L149,222.61h0v7.51h-.68Z"/><path class="cls-1" d="M156.46,226v-.19c0-3,1.82-4.29,4.26-4.29a5.26,5.26,0,0,1,2.36.47v.6a5.43,5.43,0,0,0-2.4-.48c-2.38,0-3.42,1.51-3.42,3.61V226c0,2.21.87,3.63,3.44,3.63a6.83,6.83,0,0,0,2-.27v-2.61h-2.1v-.58h2.86v3.61a8.82,8.82,0,0,1-2.74.44C158,230.24,156.46,228.85,156.46,226Z"/><path class="cls-1" d="M164.62,229.66v-.57a5.93,5.93,0,0,0,2.59.56c1.62,0,2.32-.65,2.32-1.71s-.65-1.41-1.84-1.76l-.75-.24c-1.45-.44-2.17-1-2.17-2.29s.94-2.1,2.8-2.1a5.11,5.11,0,0,1,2.25.47v.6a5.24,5.24,0,0,0-2.28-.48c-1.34,0-2,.6-2,1.46s.42,1.35,1.7,1.73l.75.22c1.41.43,2.3.93,2.3,2.34s-.9,2.37-3,2.37A5.67,5.67,0,0,1,164.62,229.66Z"/><path class="cls-2" d="M149.23,63.77c-2.53.19-5,.4-7.58.69s-5,.67-7.56,1.08c-1.25.22-2.51.46-3.76.7s-2.5.55-3.73.86-2.49.61-3.71,1-2.46.7-3.68,1.11A101.54,101.54,0,0,0,105,75.06a105,105,0,0,0-13.1,8,114.84,114.84,0,0,0-11.78,9.78A133.62,133.62,0,0,0,69.72,104l-2.39,3c-.78,1-1.54,2-2.3,3l-.15.21c.2.2.4.41.58.63l.26-.27c.86-.93,1.69-1.87,2.55-2.79l2.62-2.72c.85-.92,1.77-1.78,2.65-2.68l1.34-1.32c.44-.45.91-.86,1.37-1.29.93-.85,1.82-1.73,2.75-2.57l2.81-2.49a137.49,137.49,0,0,1,11.85-9.15,109,109,0,0,1,12.81-7.63,104.72,104.72,0,0,1,13.71-5.84A127.13,127.13,0,0,1,134.58,68c2.44-.54,4.9-1,7.37-1.46s5-.83,7.45-1.2c2.8-.42,5.6-.79,8.42-1.17a5.12,5.12,0,0,1-.06-.78C154.92,63.47,152.08,63.59,149.23,63.77Z"/><path class="cls-2" d="M107.84,60.23A209.94,209.94,0,0,0,136.1,63.1c7.22.3,14.44.36,21.66.27a5.48,5.48,0,0,1,.05-1,6,6,0,0,1,.28-1.22L157.5,61A57.38,57.38,0,0,1,151,58.1a26.85,26.85,0,0,1-10.21-8.69,19.24,19.24,0,0,1-1.6-2.88c-.25-.49-.42-1-.63-1.53s-.33-1.07-.52-1.59a29.49,29.49,0,0,1-1-6.74c-.08-1.16,0-2.33,0-3.51s.13-2.36.29-3.55c.07-.55.11-1.1.19-1.65a6.74,6.74,0,0,1-1.48-.48c-.21.57-.41,1.15-.58,1.74a37.06,37.06,0,0,0-1,3.62A33.66,33.66,0,0,0,134,36.6a25.74,25.74,0,0,0,.49,7.71c.16.64.3,1.28.51,1.9s.42,1.26.69,1.86a22.63,22.63,0,0,0,1.88,3.5l.57.82c.19.28.41.52.61.78l.63.77.68.72c.45.48.94.92,1.43,1.35A19.61,19.61,0,0,0,143,57.24a27.84,27.84,0,0,0,6.76,3.64,34.14,34.14,0,0,0,4.11,1.27c-5.87-.55-11.75-1-17.6-1.56-9.36-.87-18.67-1.92-27.87-3.54a252.17,252.17,0,0,1-27.32-6.37c-6.89-2-13.7-4.27-20.52-6.61-.1.27-.21.52-.33.77a199.71,199.71,0,0,0,20.09,8.24A174.69,174.69,0,0,0,107.84,60.23Z"/><path class="cls-2" d="M59.91,54.5c.2.73.41,1.46.59,2.2s.36,1.48.52,2.23A105,105,0,0,1,63.2,77.06a138.43,138.43,0,0,1-.52,18.32c-.39,4.3-1,8.58-1.75,12.87a6.46,6.46,0,0,1,1,.22,81.06,81.06,0,0,0,3.21-12.76,89.4,89.4,0,0,0,1.23-18.78,75.44,75.44,0,0,0-3-18.62,50,50,0,0,0-3.5-8.79c-.39-.69-.75-1.39-1.18-2.05-.08-.14-.17-.28-.26-.41a7.13,7.13,0,0,1-1,.65c.36.81.7,1.62,1,2.44C59,51.58,59.51,53,59.91,54.5Z"/><path class="cls-1" d="M156.64,109.94a62.4,62.4,0,0,0,11.25-43.06,5.09,5.09,0,0,1-3.12,1.41c0,.31.07.62.09.93A59.32,59.32,0,0,1,154.12,108a8.46,8.46,0,0,0-2.64-.82,8.22,8.22,0,0,0-5.63,1.3c-.59-1-1.17-2-1.73-3-2.09-3.68-4-7.44-5.81-11.25a112.79,112.79,0,0,1-7.94-23.82l-.57-3.08-.46-3.1L129,61.11,128.76,58a70.21,70.21,0,0,1,.44-12.47l.2-1.55.28-1.54c.16-1,.43-2,.64-3.06.1-.51.27-1,.4-1.51s.26-1,.42-1.51c.34-1,.63-2,1-3a38.22,38.22,0,0,1,2.25-5,8.21,8.21,0,0,0,9.29-.29A58.9,58.9,0,0,1,163,58.42a5,5,0,0,1,1.39-.21,4.87,4.87,0,0,1,.66,0,4.79,4.79,0,0,1,1.35.4,62.13,62.13,0,0,0-20.51-32.88,8.34,8.34,0,0,0,1.16-3.24A8.27,8.27,0,0,0,132,16.88,62.48,62.48,0,0,0,57.18,34.15a8.43,8.43,0,0,0-1.81-.46A8.28,8.28,0,0,0,47.7,46.92a8,8,0,0,0,.91,1,62.5,62.5,0,0,0,5.56,61.45,8.26,8.26,0,0,0,4.62,14.18,8.11,8.11,0,0,0,1.09.08,8.26,8.26,0,0,0,5.43-2c.39.33.79.67,1.19,1a62.54,62.54,0,0,0,7.23,5v.14c.57.34,1.14.67,1.73,1a62.86,62.86,0,0,0,30.13,7.68,62.17,62.17,0,0,0,26.11-5.69v-.06A62.52,62.52,0,0,0,145.46,122a8.15,8.15,0,0,0,3.84,1.57A8.28,8.28,0,0,0,157,110.32C156.86,110.18,156.75,110.06,156.64,109.94ZM133.86,20.78a5,5,0,0,1,5-4.39,5.19,5.19,0,0,1,.68.05,5.05,5.05,0,1,1-5.67,4.34ZM99.11,14.67a61.87,61.87,0,0,1,6.65-.36,58.77,58.77,0,0,1,25,5.57c0,.16-.06.31-.08.47a8.2,8.2,0,0,0,1,5.23,135.37,135.37,0,0,1-12.54,6,142,142,0,0,1-21,6.67,149.16,149.16,0,0,1-21.75,3.43c-4.61.38-9.24.53-13.89.5a8.28,8.28,0,0,0-2.62-6.26A59.2,59.2,0,0,1,99.11,14.67ZM49.27,41.23a5.06,5.06,0,1,1,1,3.73A5,5,0,0,1,49.27,41.23ZM64.88,116a5.09,5.09,0,1,1-4.34-5.66,5,5,0,0,1,3.35,1.93A5,5,0,0,1,64.88,116Zm66.82,11.08V127a58.81,58.81,0,0,1-26.11,6,59.64,59.64,0,0,1-26.69-6.31l-.67-.34-.88-.47-.64-.36c-.87-.48-1.72-1-2.56-1.51a63.34,63.34,0,0,1-5.63-4l-1.24-1a8.06,8.06,0,0,0,.8-2.59,8.27,8.27,0,0,0-11.19-8.81,59.27,59.27,0,0,1-5.51-58,7.8,7.8,0,0,0,1.8.46,8.28,8.28,0,0,0,5.9-1.48c4.47,6.11,9.15,12.07,14.2,17.74,3.4,3.91,7.09,7.57,10.83,11.17.24.23.46.46.7.68l.73.64L87,80.14l2.92,2.58c2,1.65,4,3.29,6,4.92s4.19,3.08,6.3,4.58,4.31,2.91,6.49,4.31l6.68,4c2.26,1.27,4.56,2.47,6.84,3.69a211.49,211.49,0,0,0,20.12,9,8.54,8.54,0,0,0-.21,1,8.2,8.2,0,0,0,1.12,5.36A58.46,58.46,0,0,1,131.7,127.09Zm11-14.81c-6.49-3.29-12.93-6.65-19.22-10.26l-3.3-2c-1.1-.66-2.22-1.28-3.31-2L110.41,94l-6.32-4.32c-2.07-1.5-4.1-3.05-6.15-4.57l-6-4.77c-1.93-1.68-3.88-3.33-5.78-5l-2.83-2.59-1.41-1.3c-.47-.43-.91-.89-1.37-1.33-1.81-1.81-3.68-3.56-5.44-5.42-5.25-5.37-10.29-11-15.33-16.6a8.18,8.18,0,0,0,2.64-4.84,102.3,102.3,0,0,0,14.11.61,110.23,110.23,0,0,0,22.28-2.9A105.63,105.63,0,0,0,120,33.51a89.55,89.55,0,0,0,12.25-7h0a8.1,8.1,0,0,0,1.32,1.36l-.47.7c-.3.45-.6.9-.86,1.37l-.82,1.41c-.26.47-.49,1-.74,1.45a47.06,47.06,0,0,0-4,12.36,67.49,67.49,0,0,0,.5,25.92,92,92,0,0,0,8.84,24.29,109.93,109.93,0,0,0,6.74,11c.68,1,1.38,1.91,2.1,2.86A8.22,8.22,0,0,0,142.71,112.28ZM155.4,116a5,5,0,1,1-8.07-4.67,5,5,0,0,1,3-1,5.19,5.19,0,0,1,.68,0,5,5,0,0,1,3.34,1.93A5,5,0,0,1,155.4,116Z"/><path class="cls-2" d="M165.5,55.05a8.28,8.28,0,1,0-2.18,16.41,8.08,8.08,0,0,0,1.09.07,8.28,8.28,0,0,0,1.09-16.48Zm3.91,8.87a5,5,0,1,1-10-1.33,5,5,0,0,1,1.93-3.34,5,5,0,0,1,8.07,4.67Z"/><path class="cls-1" d="M37.09,182.81c5.64,0,8.45-2.76,8.45-7.45,0-6.64-5.26-6.76-10.39-7.45-4.88-.62-9.7-1.81-9.7-9.58,0-6,3.88-9.76,11.33-9.76,7.76,0,11.08,3.69,11.08,9.7H44.79c-.12-4.51-2.38-6.76-7.95-6.76s-8.07,2.63-8.07,6.76c0,6.32,4.38,6.39,9.07,7,5.32.75,11,1.88,11,10,0,6.38-3.7,10.51-11.71,10.51-7.13,0-11.76-2.81-11.76-10.39h3.12C28.45,179.68,30.65,182.81,37.09,182.81Z"/><path class="cls-1" d="M64.88,182.81c5.63,0,8.45-2.76,8.45-7.45,0-6.64-5.26-6.76-10.39-7.45-4.88-.62-9.7-1.81-9.7-9.58,0-6,3.88-9.76,11.33-9.76,7.76,0,11.08,3.69,11.08,9.7H72.58c-.13-4.51-2.38-6.76-8-6.76s-8.07,2.63-8.07,6.76c0,6.32,4.38,6.39,9.07,7,5.32.75,11,1.88,11,10,0,6.38-3.7,10.51-11.71,10.51-7.13,0-11.77-2.81-11.77-10.39h3.13C56.24,179.68,58.43,182.81,64.88,182.81Z"/><path class="cls-1" d="M92.67,182.81c5.63,0,8.45-2.76,8.45-7.45,0-6.64-5.26-6.76-10.39-7.45-4.88-.62-9.7-1.81-9.7-9.58,0-6,3.88-9.76,11.33-9.76,7.76,0,11.08,3.69,11.08,9.7h-3.07c-.13-4.51-2.38-6.76-8-6.76s-8.08,2.63-8.08,6.76c0,6.32,4.39,6.39,9.08,7,5.32.75,11,1.88,11,10,0,6.38-3.69,10.51-11.7,10.51-7.14,0-11.77-2.81-11.77-10.39H84C84,179.68,86.22,182.81,92.67,182.81Z"/><path class="cls-1" d="M109.44,172.35v-10c0-10.33,3.69-13.64,11.58-13.64s11.58,3.06,11.58,13.83v9.82c0,10.14-3.69,13.71-11.58,13.71S109.44,183,109.44,172.35Zm20-.12v-9.7c0-7.89-1.25-10.89-8.45-10.89-6.76,0-8.45,3.06-8.45,10.76v9.7c0,7.89,1.25,11.08,8.45,11.08C127.78,183.18,129.47,179.93,129.47,172.23Z"/><path class="cls-1" d="M143.24,149.26l.31,2.94c1.94-2.63,5-3.63,9-3.63,5.39,0,8.52,2.25,9.83,5.38,3-4.57,6.51-5.38,10.52-5.38,9,0,11.2,4.76,11.2,13.4v23.65H181V161.9c0-7.76-1.5-10.45-8.39-10.45s-8.82,4.26-8.82,9.51v24.66h-3.13V161.9c0-6.82-1.5-10.45-8.39-10.45s-8.76,3.19-8.76,8.32v25.85h-3.13V149.26Z"/></svg>