<svg id="Layer_1" data-name="Layer 1" xmlns="http://www.w3.org/2000/svg" viewBox="0 0 220.47 241.33"><defs><style>.cls-1{fill:#231f20;}.cls-2{fill:#878787;}</style></defs><path class="cls-1" d="M14.54,211.38v-.58a6,6,0,0,0,2.59.56c1.62,0,2.33-.65,2.33-1.71s-.66-1.4-1.85-1.76l-.74-.24c-1.46-.44-2.18-1-2.18-2.28s.94-2.1,2.8-2.1a5.19,5.19,0,0,1,2.26.46v.6a5.31,5.31,0,0,0-2.29-.47c-1.34,0-2,.59-2,1.46s.41,1.34,1.7,1.72l.74.22c1.42.43,2.3.93,2.3,2.34s-.9,2.37-3,2.37A5.84,5.84,0,0,1,14.54,211.38Z"/><path class="cls-1" d="M21.81,203.39h.76v8.44h-.76Z"/><path class="cls-1" d="M24.64,203.39h1.11l3,7.51h.05l3-7.51H33v8.44h-.77v-7.56h0l-3.1,7.56h-.71l-3.08-7.56h0v7.56h-.68Z"/><path class="cls-1" d="M35.08,203.39h2.55c2.21,0,3.11.89,3.11,2.43s-1.1,2.46-2.94,2.46h-2v3.55h-.73Zm2.57,4.31c1.59,0,2.28-.62,2.28-1.83s-.58-1.9-2.36-1.9H35.81v3.73Z"/><path class="cls-1" d="M42.09,203.39h.75v7.86h4.48v.58H42.09Z"/><path class="cls-1" d="M48.69,203.39h5.44V204H49.44v3.23h3.61v.58H49.44v3.47h4.7v.58H48.69Z"/><path class="cls-1" d="M58.47,211.38v-.58a6,6,0,0,0,2.59.56c1.62,0,2.33-.65,2.33-1.71s-.66-1.4-1.85-1.76l-.74-.24c-1.46-.44-2.18-1-2.18-2.28s1-2.1,2.8-2.1a5.15,5.15,0,0,1,2.26.46v.6a5.31,5.31,0,0,0-2.29-.47c-1.34,0-2,.59-2,1.46s.41,1.34,1.7,1.72l.74.22c1.42.43,2.3.93,2.3,2.34s-.9,2.37-3,2.37A5.84,5.84,0,0,1,58.47,211.38Z"/><path class="cls-1" d="M67.91,204h-3v-.58h6.8V204h-3v7.86h-.76Z"/><path class="cls-1" d="M74.63,203.39h.74l3.44,8.44H78l-1.09-2.68H73l-1.08,2.68h-.72Zm-1.44,5.17H76.7L75,204.28Z"/><path class="cls-1" d="M80,203.39h.89l5,7.29h0v-7.29h.69v8.44h-.78l-5.16-7.51h0v7.51H80Z"/><path class="cls-1" d="M88.66,203.39h2.58c2.89,0,4.41,1.3,4.41,4.06v.19c0,2.74-1.38,4.19-4.4,4.19H88.66Zm2.61,7.85c2.46,0,3.58-1.07,3.58-3.51v-.28c0-2.51-1.26-3.47-3.68-3.47H89.41v7.26Z"/><path class="cls-1" d="M99.75,203.39h.73l3.45,8.44h-.79l-1.1-2.68h-4L97,211.83h-.72Zm-1.44,5.17h3.5l-1.75-4.28Z"/><path class="cls-1" d="M105.07,203.39h2.59c2,0,3,.91,3,2.3a2.13,2.13,0,0,1-2,2.23v0l2.61,3.87h-.86l-2.49-3.75h-2.08v3.75h-.75Zm2.56,4.13c1.66,0,2.2-.73,2.2-1.83s-.61-1.72-2.21-1.72h-1.8v3.55Z"/><path class="cls-1" d="M112.52,203.39h2.57c2.89,0,4.42,1.3,4.42,4.06v.19c0,2.74-1.39,4.19-4.4,4.19h-2.59Zm2.6,7.85c2.46,0,3.58-1.07,3.58-3.51v-.28c0-2.51-1.26-3.47-3.68-3.47h-1.76v7.26Z"/><path class="cls-1" d="M124.37,203.39h5.3V204h-4.55v3.29h3.53v.61h-3.53v4h-.75Z"/><path class="cls-1" d="M130.59,207.7v-.18c0-2.71,1.53-4.25,4-4.25s4,1.49,4,4.25v.18c0,2.68-1.54,4.25-4,4.25S130.59,210.46,130.59,207.7Zm7.19.1v-.28c0-2.29-1.05-3.66-3.21-3.68s-3.18,1.36-3.18,3.55v.3c0,2.29,1.05,3.69,3.21,3.69S137.78,210,137.78,207.8Z"/><path class="cls-1" d="M140.11,203.39h2.59c2,0,3,.91,3,2.3a2.14,2.14,0,0,1-2,2.23v0l2.6,3.87h-.86l-2.49-3.75h-2.08v3.75h-.74Zm2.56,4.13c1.66,0,2.2-.73,2.2-1.83s-.61-1.72-2.22-1.72h-1.8v3.55Z"/><path class="cls-1" d="M150.26,211.38v-.58a6,6,0,0,0,2.59.56c1.62,0,2.33-.65,2.33-1.71s-.66-1.4-1.85-1.76l-.74-.24c-1.46-.44-2.18-1-2.18-2.28s1-2.1,2.8-2.1a5.15,5.15,0,0,1,2.26.46v.6a5.31,5.31,0,0,0-2.29-.47c-1.34,0-2,.59-2,1.46s.41,1.34,1.7,1.72l.74.22c1.42.43,2.3.93,2.3,2.34s-.9,2.37-3,2.37A5.84,5.84,0,0,1,150.26,211.38Z"/><path class="cls-1" d="M157.5,203.39h.73v3.76h5.16v-3.76h.75v8.44h-.75v-4.1h-5.16v4.1h-.73Z"/><path class="cls-1" d="M168.76,203.39h.74l3.44,8.44h-.79l-1.09-2.68h-4L166,211.83h-.72Zm-1.44,5.17h3.5l-1.74-4.28Z"/><path class="cls-1" d="M174.09,203.39h2.59c2,0,3,.91,3,2.3a2.13,2.13,0,0,1-2,2.23v0l2.6,3.87h-.86l-2.49-3.75h-2.07v3.75h-.75Zm2.56,4.13c1.66,0,2.2-.73,2.2-1.83s-.61-1.72-2.22-1.72h-1.79v3.55Z"/><path class="cls-1" d="M181.57,203.39h.76v8.44h-.76Z"/><path class="cls-1" d="M184.41,203.39h.89l5,7.29h0v-7.29h.69v8.44h-.77l-5.16-7.51h0v7.51h-.68Z"/><path class="cls-1" d="M192.57,207.74v-.19c0-3,1.83-4.28,4.27-4.28a5.28,5.28,0,0,1,2.36.46v.6a5.66,5.66,0,0,0-2.41-.47c-2.38,0-3.41,1.51-3.41,3.61v.26c0,2.21.87,3.63,3.44,3.63a6.83,6.83,0,0,0,2-.27v-2.61h-2.11v-.57h2.87v3.6a8.82,8.82,0,0,1-2.74.44C194.12,212,192.57,210.56,192.57,207.74Z"/><path class="cls-1" d="M44.19,220.7v-.18c0-2.71,1.53-4.25,4-4.25s4,1.49,4,4.25v.18c0,2.68-1.54,4.25-4,4.25S44.19,223.46,44.19,220.7Zm7.19.1v-.28c0-2.29-1.05-3.66-3.21-3.68S45,218.2,45,220.39v.3c0,2.29,1,3.69,3.21,3.69S51.38,223,51.38,220.8Z"/><path class="cls-1" d="M53.72,216.39h.89l5,7.29h0v-7.29h.69v8.44h-.77l-5.17-7.51h0v7.51h-.68Z"/><path class="cls-1" d="M64.62,217h-3v-.58H68.4V217h-3v7.86h-.76Z"/><path class="cls-1" d="M69.11,220.7v-.18c0-2.71,1.53-4.25,4-4.25s4,1.49,4,4.25v.18c0,2.68-1.53,4.25-4,4.25S69.11,223.46,69.11,220.7Zm7.19.1v-.28c0-2.29-1-3.66-3.21-3.68s-3.18,1.36-3.18,3.55v.3c0,2.29,1,3.69,3.21,3.69S76.3,223,76.3,220.8Z"/><path class="cls-1" d="M78.62,216.39h.75v7.86h4.49v.58H78.62Z"/><path class="cls-1" d="M84.7,220.7v-.18c0-2.71,1.54-4.25,4-4.25s4,1.49,4,4.25v.18c0,2.68-1.54,4.25-4,4.25S84.7,223.46,84.7,220.7Zm7.2.1v-.28c0-2.29-1.06-3.66-3.22-3.68s-3.18,1.36-3.18,3.55v.3c0,2.29,1,3.69,3.21,3.69S91.9,223,91.9,220.8Z"/><path class="cls-1" d="M93.69,220.74v-.19c0-3,1.83-4.28,4.27-4.28a5.28,5.28,0,0,1,2.36.46v.6a5.66,5.66,0,0,0-2.41-.47c-2.38,0-3.41,1.51-3.41,3.61v.26c0,2.21.87,3.63,3.44,3.63a6.83,6.83,0,0,0,2-.27v-2.61H97.8v-.57h2.87v3.6a8.82,8.82,0,0,1-2.74.44C95.24,225,93.69,223.56,93.69,220.74Z"/><path class="cls-1" d="M104.69,221.38l-3.11-5h.79l2.72,4.35h0l2.69-4.35h.74l-3.11,5v3.45h-.75Z"/><path class="cls-1" d="M113,216.39h1.1l3,7.51h0l3-7.51h1.14v8.44h-.76v-7.56h0l-3.1,7.56h-.7l-3.09-7.56h0v7.56H113Z"/><path class="cls-1" d="M126,216.39h.73l3.45,8.44h-.79l-1.09-2.68h-4l-1.08,2.68h-.72Zm-1.44,5.17h3.5l-1.74-4.28Z"/><path class="cls-1" d="M131.37,216.39h2.56c2.2,0,3.1.89,3.1,2.43s-1.09,2.46-2.93,2.46h-2v3.55h-.73Zm2.57,4.31c1.6,0,2.29-.62,2.29-1.83s-.58-1.9-2.37-1.9H132.1v3.73Z"/><path class="cls-1" d="M138.4,216.39H141c2.2,0,3.1.89,3.1,2.43s-1.1,2.46-2.94,2.46h-2v3.55h-.73ZM141,220.7c1.59,0,2.29-.62,2.29-1.83s-.59-1.9-2.37-1.9h-1.76v3.73Z"/><path class="cls-1" d="M145.46,216.39h.76v8.44h-.76Z"/><path class="cls-1" d="M148.29,216.39h.89l5,7.29h0v-7.29h.69v8.44h-.77L149,217.32h0v7.51h-.68Z"/><path class="cls-1" d="M156.46,220.74v-.19c0-3,1.82-4.28,4.26-4.28a5.28,5.28,0,0,1,2.36.46v.6a5.6,5.6,0,0,0-2.4-.47c-2.38,0-3.42,1.51-3.42,3.61v.26c0,2.21.87,3.63,3.44,3.63a6.83,6.83,0,0,0,2-.27v-2.61h-2.1v-.57h2.86v3.6a8.82,8.82,0,0,1-2.74.44C158,225,156.46,223.56,156.46,220.74Z"/><path class="cls-1" d="M164.62,224.38v-.58a5.93,5.93,0,0,0,2.59.56c1.62,0,2.32-.65,2.32-1.71s-.65-1.4-1.84-1.76l-.75-.24c-1.45-.44-2.17-1-2.17-2.28s.94-2.1,2.8-2.1a5.14,5.14,0,0,1,2.25.46v.6a5.26,5.26,0,0,0-2.28-.47c-1.34,0-2,.59-2,1.46s.42,1.34,1.7,1.72l.75.22c1.41.43,2.3.93,2.3,2.34s-.9,2.37-3,2.37A5.81,5.81,0,0,1,164.62,224.38Z"/><path class="cls-2" d="M149.23,58.48c-2.53.19-5,.4-7.58.69s-5,.67-7.56,1.08c-1.25.22-2.51.47-3.76.7s-2.5.55-3.73.86-2.49.61-3.71,1-2.46.7-3.68,1.1A101.54,101.54,0,0,0,105,69.77a105,105,0,0,0-13.1,8,116.15,116.15,0,0,0-11.78,9.78A133.62,133.62,0,0,0,69.72,98.71l-2.39,3c-.78,1-1.54,2-2.3,3l-.15.21a7.12,7.12,0,0,1,.58.64l.26-.28c.86-.92,1.69-1.87,2.55-2.79l2.62-2.72c.85-.92,1.77-1.78,2.65-2.67l1.34-1.33c.44-.44.91-.86,1.37-1.29.93-.85,1.82-1.73,2.75-2.57l2.81-2.49a137.49,137.49,0,0,1,11.85-9.15,109,109,0,0,1,12.81-7.63,104.72,104.72,0,0,1,13.71-5.84,127.13,127.13,0,0,1,14.4-4.08c2.44-.54,4.9-1,7.37-1.46s5-.83,7.45-1.2c2.8-.42,5.6-.79,8.42-1.17a5.12,5.12,0,0,1-.06-.78C154.92,58.19,152.08,58.31,149.23,58.48Z"/><path class="cls-2" d="M107.84,54.94a211.6,211.6,0,0,0,28.26,2.88c7.22.29,14.44.35,21.66.26a5.48,5.48,0,0,1,.05-1,6.18,6.18,0,0,1,.28-1.22l-.59-.2A55.69,55.69,0,0,1,151,52.81a26.83,26.83,0,0,1-10.21-8.68,19.85,19.85,0,0,1-1.6-2.89c-.25-.49-.42-1-.63-1.53s-.33-1.07-.52-1.59a29.41,29.41,0,0,1-1-6.74c-.08-1.16,0-2.33,0-3.51s.13-2.36.29-3.55c.07-.54.11-1.1.19-1.65a6.25,6.25,0,0,1-1.48-.48c-.21.58-.41,1.15-.58,1.74a36.51,36.51,0,0,0-1,3.63,33.48,33.48,0,0,0-.52,3.75,25.74,25.74,0,0,0,.49,7.71c.16.64.3,1.28.51,1.9s.42,1.26.69,1.86a22.63,22.63,0,0,0,1.88,3.5l.57.82c.19.28.41.52.61.78l.63.77.68.72c.45.49.94.92,1.43,1.36s1,.82,1.53,1.23a28.54,28.54,0,0,0,6.76,3.64,38.17,38.17,0,0,0,4.11,1.27c-5.87-.55-11.75-1-17.6-1.57-9.36-.87-18.67-1.92-27.87-3.54a252.17,252.17,0,0,1-27.32-6.37c-6.89-2-13.7-4.27-20.52-6.61-.1.27-.21.52-.33.77a197.39,197.39,0,0,0,20.09,8.24A174.69,174.69,0,0,0,107.84,54.94Z"/><path class="cls-2" d="M59.91,49.21c.2.73.41,1.47.59,2.21s.36,1.47.52,2.22A105.14,105.14,0,0,1,63.2,71.77a138.43,138.43,0,0,1-.52,18.32c-.39,4.3-1,8.58-1.75,12.87a6.46,6.46,0,0,1,1,.22,81.06,81.06,0,0,0,3.21-12.76,89.35,89.35,0,0,0,1.23-18.77A75.45,75.45,0,0,0,63.4,53a50,50,0,0,0-3.5-8.79c-.39-.69-.75-1.38-1.18-2-.08-.14-.17-.27-.26-.41a7.13,7.13,0,0,1-1,.65c.36.81.7,1.62,1,2.45C59,46.3,59.51,47.74,59.91,49.21Z"/><path class="cls-1" d="M156.64,104.65a62.4,62.4,0,0,0,11.25-43.06A5,5,0,0,1,164.77,63c0,.31.07.62.09.93a59.35,59.35,0,0,1-10.74,38.75,8,8,0,0,0-2.64-.82,8.16,8.16,0,0,0-5.63,1.29c-.59-1-1.17-2-1.73-3q-3.13-5.52-5.81-11.25a112.6,112.6,0,0,1-7.94-23.82L129.8,62l-.46-3.1L129,55.82l-.23-3.12a70.21,70.21,0,0,1,.44-12.47l.2-1.55.28-1.54c.16-1,.43-2,.64-3.06.1-.51.27-1,.4-1.51s.26-1,.42-1.51c.34-1,.63-2,1-3a38.22,38.22,0,0,1,2.25-5,8.23,8.23,0,0,0,9.29-.28A58.84,58.84,0,0,1,163,53.13a5.37,5.37,0,0,1,1.39-.21,4.87,4.87,0,0,1,.66,0,5.14,5.14,0,0,1,1.35.4,62.13,62.13,0,0,0-20.51-32.88A8.27,8.27,0,0,0,132,11.6,62.49,62.49,0,0,0,57.18,28.86a9.06,9.06,0,0,0-1.81-.46A8.28,8.28,0,0,0,47.7,41.64a9.65,9.65,0,0,0,.91,1,62.49,62.49,0,0,0,5.56,61.44,8.26,8.26,0,0,0,4.62,14.18,8.11,8.11,0,0,0,1.09.08,8.26,8.26,0,0,0,5.43-2c.39.33.79.67,1.19,1a63.9,63.9,0,0,0,7.23,5v.13c.57.34,1.14.67,1.73,1a62.87,62.87,0,0,0,30.13,7.69,62,62,0,0,0,26.11-5.7v-.06a62.85,62.85,0,0,0,13.76-8.65A8.28,8.28,0,0,0,157,105ZM133.86,15.49a5,5,0,0,1,5-4.38,5.17,5.17,0,0,1,.68,0,5,5,0,1,1-4.68,8.07A5,5,0,0,1,133.86,15.49ZM99.11,9.39A59.42,59.42,0,0,1,105.76,9a58.77,58.77,0,0,1,25,5.57c0,.16-.06.32-.08.47a8.19,8.19,0,0,0,1,5.23,132.85,132.85,0,0,1-12.54,5.95,142,142,0,0,1-21,6.67,149.16,149.16,0,0,1-21.75,3.43c-4.61.38-9.24.53-13.89.5a8.28,8.28,0,0,0-2.62-6.26A59.15,59.15,0,0,1,99.11,9.39ZM49.27,35.94a5,5,0,0,1,10,1.33,5,5,0,0,1-10-1.33Zm15.61,74.79a5.05,5.05,0,0,1-5.67,4.33,5,5,0,0,1-3.34-1.93,5,5,0,0,1,4.67-8.07A5,5,0,0,1,63.89,107,5.05,5.05,0,0,1,64.88,110.73ZM131.7,121.8v-.08a58.82,58.82,0,0,1-26.11,6,59.52,59.52,0,0,1-26.69-6.32l-.67-.34-.88-.47-.64-.36c-.87-.48-1.72-1-2.56-1.51a63.34,63.34,0,0,1-5.63-4c-.42-.33-.83-.68-1.24-1a8,8,0,0,0,.8-2.59A8.27,8.27,0,0,0,61,101.86a8.11,8.11,0,0,0-4.08.48,59.27,59.27,0,0,1-5.51-58,7.8,7.8,0,0,0,1.8.46,8.28,8.28,0,0,0,5.9-1.48c4.47,6.12,9.15,12.07,14.2,17.74,3.4,3.91,7.09,7.57,10.83,11.17.24.23.46.46.7.68l.73.65L87,74.85l2.92,2.58c2,1.65,4,3.3,6,4.92s4.19,3.08,6.3,4.59,4.31,2.9,6.49,4.31l6.68,4c2.26,1.27,4.56,2.47,6.84,3.69a211.49,211.49,0,0,0,20.12,9,9,9,0,0,0-.21,1,8.2,8.2,0,0,0,1.12,5.36A58.46,58.46,0,0,1,131.7,121.8Zm11-14.81c-6.49-3.29-12.93-6.65-19.22-10.26l-3.3-2c-1.1-.66-2.22-1.28-3.31-2l-6.47-4.13-6.32-4.32c-2.07-1.5-4.1-3-6.15-4.57L92,75c-1.93-1.68-3.88-3.33-5.78-5L83.35,67.4l-1.41-1.29c-.47-.44-.91-.9-1.37-1.34-1.81-1.81-3.68-3.56-5.44-5.42C69.88,54,64.84,48.38,59.8,42.76a8.24,8.24,0,0,0,2.64-4.85,99.26,99.26,0,0,0,14.11.61,110.93,110.93,0,0,0,22.28-2.89A106.28,106.28,0,0,0,120,28.22a88.52,88.52,0,0,0,12.25-7h0a8.43,8.43,0,0,0,1.32,1.35l-.47.7c-.3.45-.6.9-.86,1.37L131.46,26c-.26.48-.49,1-.74,1.45a47.06,47.06,0,0,0-4,12.36,67.49,67.49,0,0,0,.5,25.92A91.83,91.83,0,0,0,136.05,90a109.93,109.93,0,0,0,6.74,11c.68,1,1.38,1.92,2.1,2.86A8.29,8.29,0,0,0,142.71,107Zm12.69,3.74a5,5,0,1,1-8.07-4.68,5,5,0,0,1,3-1,5.19,5.19,0,0,1,.68,0A5,5,0,0,1,154.4,107,5.06,5.06,0,0,1,155.4,110.73Z"/><path class="cls-2" d="M165.5,49.76a8.28,8.28,0,1,0-2.18,16.41,8.08,8.08,0,0,0,1.09.07,8.28,8.28,0,0,0,1.09-16.48Zm3.91,8.87a5,5,0,1,1-10-1.33A5,5,0,0,1,161.34,54a5,5,0,0,1,8.07,4.67Z"/><path class="cls-1" d="M37.09,177.52c5.64,0,8.45-2.75,8.45-7.45,0-6.63-5.26-6.76-10.39-7.45-4.88-.62-9.7-1.81-9.7-9.57,0-6,3.88-9.77,11.33-9.77,7.76,0,11.08,3.69,11.08,9.7H44.79c-.12-4.5-2.38-6.76-7.95-6.76s-8.07,2.63-8.07,6.76c0,6.33,4.38,6.39,9.07,7,5.32.76,11,1.88,11,10,0,6.38-3.7,10.51-11.71,10.51-7.13,0-11.76-2.81-11.76-10.39h3.12C28.45,174.39,30.65,177.52,37.09,177.52Z"/><path class="cls-1" d="M64.88,177.52c5.63,0,8.45-2.75,8.45-7.45,0-6.63-5.26-6.76-10.39-7.45-4.88-.62-9.7-1.81-9.7-9.57,0-6,3.88-9.77,11.33-9.77,7.76,0,11.08,3.69,11.08,9.7H72.58c-.13-4.5-2.38-6.76-8-6.76s-8.07,2.63-8.07,6.76c0,6.33,4.38,6.39,9.07,7,5.32.76,11,1.88,11,10,0,6.38-3.7,10.51-11.71,10.51-7.13,0-11.77-2.81-11.77-10.39h3.13C56.24,174.39,58.43,177.52,64.88,177.52Z"/><path class="cls-1" d="M92.67,177.52c5.63,0,8.45-2.75,8.45-7.45,0-6.63-5.26-6.76-10.39-7.45-4.88-.62-9.7-1.81-9.7-9.57,0-6,3.88-9.77,11.33-9.77,7.76,0,11.08,3.69,11.08,9.7h-3.07c-.13-4.5-2.38-6.76-8-6.76s-8.08,2.63-8.08,6.76c0,6.33,4.39,6.39,9.08,7,5.32.76,11,1.88,11,10,0,6.38-3.69,10.51-11.7,10.51-7.14,0-11.77-2.81-11.77-10.39H84C84,174.39,86.22,177.52,92.67,177.52Z"/><path class="cls-1" d="M109.44,167.07v-10c0-10.33,3.69-13.64,11.58-13.64s11.58,3.06,11.58,13.83v9.83c0,10.14-3.69,13.7-11.58,13.7S109.44,177.71,109.44,167.07Zm20-.13v-9.7c0-7.89-1.25-10.89-8.45-10.89-6.76,0-8.45,3.07-8.45,10.76v9.71c0,7.88,1.25,11.07,8.45,11.07C127.78,177.89,129.47,174.64,129.47,166.94Z"/><path class="cls-1" d="M143.24,144l.31,2.94c1.94-2.63,5-3.63,9-3.63,5.39,0,8.52,2.26,9.83,5.39,3-4.57,6.51-5.39,10.52-5.39,9,0,11.2,4.76,11.2,13.4v23.66H181V156.61c0-7.76-1.5-10.45-8.39-10.45s-8.82,4.26-8.82,9.51v24.67h-3.13V156.61c0-6.82-1.5-10.45-8.39-10.45s-8.76,3.19-8.76,8.33v25.85h-3.13V144Z"/></svg>