<?xml version="1.0" encoding="UTF-8"?>
<svg id="Layer_1" data-name="Layer 1" xmlns="http://www.w3.org/2000/svg" viewBox="0 0 355.11 455.04">
  <defs>
    <style>
      .cls-1 {
        letter-spacing: -.04em;
      }

      .cls-2 {
        letter-spacing: 0em;
      }

      .cls-3 {
        fill: #878787;
      }

      .cls-3, .cls-4 {
        stroke-width: 0px;
      }

      .cls-5 {
        letter-spacing: -.08em;
      }

      .cls-6 {
        letter-spacing: -.03em;
      }

      .cls-7 {
        letter-spacing: -.01em;
      }

      .cls-4, .cls-8 {
        fill: #231f20;
      }

      .cls-8 {
        font-family: MyriadConceptRoman-Regular, 'Myriad Variable Concept';
        font-size: 23.98px;
        font-variation-settings: 'wght' 400, 'wdth' 100;
      }

      .cls-9 {
        letter-spacing: 0em;
      }
    </style>
  </defs>
  <g>
    <path class="cls-3" d="M266.23,112.46c-5.04.38-10.09.79-15.12,1.37-5.04.53-10.06,1.33-15.07,2.16-2.5.44-5,.93-7.5,1.4-2.48.57-4.98,1.09-7.45,1.72-2.47.65-4.95,1.22-7.39,1.96-2.45.7-4.91,1.4-7.33,2.21-9.71,3.18-19.18,7.12-28.32,11.72-9.09,4.7-17.84,10.04-26.13,16.01-8.25,6.02-16.14,12.51-23.5,19.54-7.39,7-14.23,14.53-20.75,22.29l-4.77,5.92c-1.56,1.99-3.08,4.02-4.58,6.06-.11.14-.2.28-.31.42.41.4.8.82,1.16,1.27l.51-.56c1.72-1.84,3.37-3.74,5.09-5.57l5.22-5.43c1.71-1.84,3.53-3.57,5.29-5.35l2.66-2.65c.89-.89,1.82-1.72,2.73-2.58,1.85-1.69,3.62-3.45,5.48-5.13l5.6-4.98c7.61-6.47,15.4-12.7,23.63-18.28,8.18-5.64,16.69-10.8,25.56-15.25,8.81-4.56,17.97-8.42,27.35-11.68,9.36-3.34,18.98-5.93,28.71-8.14,4.87-1.08,9.78-2.04,14.71-2.91,4.92-.92,9.88-1.66,14.85-2.4,5.58-.84,11.18-1.59,16.78-2.34-.07-.51-.11-1.04-.12-1.56-5.66.17-11.33.41-17,.77Z"/>
    <path class="cls-3" d="M183.68,105.39c18.65,3.28,37.53,5.01,56.36,5.74,14.41.6,28.8.7,43.19.53-.01-.65.01-1.32.1-1.98.11-.84.31-1.65.57-2.43-.39-.14-.79-.27-1.17-.41-4.48-1.68-8.82-3.54-12.94-5.71-8.25-4.28-15.51-10-20.36-17.35-1.24-1.81-2.28-3.76-3.2-5.76-.49-.99-.83-2.05-1.26-3.07-.4-1.03-.65-2.12-1.02-3.18-1.23-4.3-1.81-8.84-2.01-13.46-.15-2.31-.03-4.65,0-7.01.19-2.35.25-4.73.58-7.09.13-1.1.21-2.2.37-3.3-1.03-.21-2.02-.53-2.94-.96-.42,1.14-.82,2.3-1.17,3.47-.81,2.36-1.33,4.8-1.91,7.25-.42,2.48-.89,4.96-1.03,7.51-.41,5.07-.17,10.28.97,15.4.33,1.27.61,2.55,1.03,3.8.46,1.24.83,2.51,1.36,3.72,1.06,2.42,2.29,4.79,3.76,6.99l1.13,1.63c.37.55.82,1.04,1.22,1.56l1.25,1.54,1.36,1.43c.89.97,1.88,1.84,2.85,2.71.95.91,2.02,1.65,3.04,2.46,4.17,3.11,8.77,5.47,13.49,7.28,2.7,1.02,5.44,1.85,8.21,2.54-11.72-1.1-23.44-2.05-35.12-3.13-18.66-1.75-37.22-3.84-55.58-7.07-18.37-3.19-36.52-7.53-54.47-12.73-13.73-4-27.33-8.53-40.93-13.22-.18.53-.41,1.04-.65,1.54,13.03,6.2,26.4,11.71,40.07,16.46,17.84,6.25,36.23,11.04,54.88,14.3Z"/>
    <path class="cls-3" d="M88.1,93.93c.4,1.47.82,2.93,1.18,4.41.39,1.47.72,2.96,1.04,4.44,2.54,11.9,3.88,24.05,4.35,36.23.47,12.19.09,24.42-1.04,36.62-.79,8.59-2.02,17.15-3.5,25.72.68.1,1.34.24,1.98.43,2.82-8.29,4.94-16.84,6.39-25.51,2.15-12.35,2.94-24.95,2.46-37.51-.51-12.55-2.27-25.13-5.9-37.22-1.79-6.04-4.07-11.96-6.98-17.57-.77-1.38-1.5-2.77-2.36-4.11-.16-.28-.35-.55-.52-.82-.6.49-1.25.93-1.93,1.31.71,1.61,1.39,3.23,2,4.88,1.05,2.86,2.03,5.74,2.83,8.68Z"/>
  </g>
  <path class="cls-4" d="M281.01,204.72c17.13-24.13,25.89-54.36,22.42-86.04-1.67,1.6-3.84,2.65-6.22,2.82.06.62.14,1.23.19,1.85,2.11,27.52-5.57,54.97-21.42,77.44-1.63-.82-3.4-1.39-5.26-1.64-3.98-.53-7.92.4-11.23,2.59-1.18-1.96-2.33-3.94-3.45-5.93-4.18-7.36-8.04-14.86-11.6-22.49-6.91-15.34-12.49-31.23-15.83-47.61l-1.14-6.15-.91-6.19-.7-6.21-.45-6.23c-.44-8.32-.16-16.67.87-24.93l.41-3.1.55-3.07c.32-2.06.86-4.07,1.29-6.12.2-1.03.52-2.02.78-3.03.28-1,.53-2.02.85-3.01.68-1.97,1.26-3.99,2.06-5.91,1.21-3.43,2.79-6.7,4.48-9.93,2,1.28,4.26,2.13,6.68,2.45.74.1,1.48.15,2.21.15,3.46,0,6.8-1.11,9.63-3.17,19,15.89,32.29,36.91,38.52,60.53.89-.26,1.8-.43,2.76-.43.44,0,.89.03,1.33.09.94.13,1.83.42,2.68.79-6.29-25.65-20.43-48.5-40.89-65.7,1.19-1.95,1.99-4.13,2.3-6.47.58-4.38-.58-8.72-3.25-12.23-2.68-3.51-6.56-5.76-10.93-6.34-4.38-.58-8.71.58-12.21,3.26-1.49,1.14-2.73,2.51-3.73,4.02-20.47-9.55-43.21-13.38-66.23-10.83-33.81,3.75-62.94,20.81-82.91,45.34-1.15-.43-2.35-.75-3.62-.92-9.02-1.21-17.34,5.18-18.54,14.22-.58,4.38.58,8.72,3.25,12.23.55.72,1.17,1.38,1.82,2-8.97,19.79-12.95,42.15-10.39,65.29,2.32,21.01,9.76,40.62,21.47,57.51-2.63,2.51-4.46,5.89-4.98,9.77-.58,4.38.58,8.72,3.25,12.23,2.68,3.51,6.56,5.76,10.93,6.34.73.1,1.46.15,2.19.15,4.07,0,7.89-1.52,10.82-4.07.79.67,1.57,1.34,2.38,1.99,4.61,3.7,9.42,7.03,14.41,10v.28c1.14.67,2.28,1.33,3.44,1.97,18.31,10.05,39.09,15.36,60.1,15.36,18.23,0,35.71-3.86,52.07-11.38v-.12c9.95-4.58,19.15-10.42,27.43-17.29,2.18,1.63,4.79,2.75,7.67,3.13.74.1,1.46.15,2.19.15,8.14,0,15.25-6.06,16.35-14.36.58-4.38-.58-8.72-3.25-12.23-.2-.27-.43-.51-.65-.77ZM235.57,26.54c.35-2.67,1.73-5.04,3.86-6.68,1.77-1.36,3.9-2.08,6.1-2.08.45,0,.9.03,1.35.09,2.67.35,5.03,1.73,6.67,3.87,1.63,2.14,2.34,4.79,1.98,7.46-.35,2.67-1.73,5.04-3.86,6.68-2.13,1.64-4.78,2.34-7.44,1.99-2.67-.35-5.03-1.73-6.67-3.87-1.63-2.14-2.34-4.79-1.98-7.46ZM166.27,14.34c4.44-.49,8.86-.74,13.26-.74,17.36,0,34.28,3.84,49.83,11.15-.06.31-.13.62-.17.94-.49,3.66.26,7.3,2.08,10.44-8.15,4.4-16.49,8.38-25.02,11.88-13.57,5.57-27.58,9.97-41.82,13.33-14.25,3.34-28.75,5.66-43.38,6.86-9.19.76-18.43,1.06-27.7,1,.14-4.84-1.87-9.35-5.21-12.51,18.93-22.92,46.35-38.84,78.12-42.36ZM66.88,67.42c.67-5.06,5.01-8.76,9.97-8.76.44,0,.89.03,1.33.09,5.5.73,9.38,5.81,8.65,11.33-.35,2.67-1.73,5.04-3.86,6.68s-4.78,2.34-7.44,1.99c-2.67-.35-5.03-1.73-6.67-3.87-1.63-2.14-2.34-4.79-1.98-7.46ZM98.01,216.87c-.73,5.51-5.8,9.41-11.3,8.67-2.67-.35-5.03-1.73-6.67-3.87-1.63-2.14-2.34-4.79-1.98-7.46.35-2.67,1.73-5.04,3.86-6.68,1.77-1.36,3.9-2.08,6.1-2.08.45,0,.9.03,1.35.09,2.67.35,5.03,1.73,6.67,3.87,1.63,2.14,2.34,4.79,1.98,7.46ZM231.27,239.01v-.16c-16.28,7.99-33.78,12.07-52.07,12.07s-36.81-4.36-53.23-12.62c-.45-.23-.89-.46-1.33-.69-.59-.3-1.17-.61-1.75-.93-.43-.23-.85-.48-1.28-.72-1.73-.97-3.43-1.98-5.1-3.02-3.86-2.43-7.62-5.09-11.23-7.99-.84-.67-1.66-1.37-2.47-2.07.79-1.59,1.35-3.32,1.59-5.17.58-4.38-.58-8.72-3.25-12.23-2.68-3.51-6.56-5.76-10.93-6.34-2.85-.38-5.62,0-8.13.98-11.19-16.06-18.29-34.74-20.5-54.75-2.39-21.64,1.24-42.56,9.5-61.14,1.15.43,2.36.75,3.61.91.74.1,1.46.15,2.19.15,3.52,0,6.85-1.14,9.58-3.09,8.9,12.21,18.24,24.11,28.32,35.45,6.78,7.81,14.14,15.12,21.6,22.32.47.45.92.91,1.4,1.35l1.45,1.29,2.91,2.58,5.83,5.15c4.01,3.29,8.02,6.58,12.07,9.82,4.19,3.05,8.35,6.16,12.57,9.17,4.32,2.87,8.58,5.81,12.94,8.62l13.32,7.98c4.5,2.54,9.09,4.95,13.64,7.38,13.06,6.73,26.48,12.68,40.12,18-.18.67-.33,1.36-.42,2.06-.51,3.87.37,7.61,2.24,10.72-7.14,5.89-14.9,10.89-23.16,14.93ZM253.23,209.4c-12.96-6.57-25.8-13.29-38.35-20.5l-6.58-3.93c-2.19-1.32-4.42-2.56-6.59-3.9l-12.9-8.25-12.61-8.65c-4.12-3-8.17-6.09-12.26-9.13l-11.94-9.54c-3.84-3.35-7.73-6.64-11.52-10.05l-5.63-5.17-2.82-2.59c-.93-.87-1.82-1.79-2.74-2.68-3.61-3.61-7.33-7.11-10.86-10.82-10.46-10.73-20.51-21.93-30.56-33.17,2.72-2.45,4.65-5.81,5.26-9.69,9.32,1.07,18.74,1.47,28.15,1.22,14.93-.41,29.85-2.33,44.42-5.78,14.57-3.43,28.8-8.37,42.3-14.79,8.5-4.05,16.69-8.75,24.43-14.07,0,0,0,0,0,0,.78,1.02,1.66,1.91,2.63,2.71-.31.46-.62.93-.93,1.4-.6.9-1.2,1.8-1.72,2.74l-1.63,2.81c-.51.95-.98,1.93-1.48,2.89-3.85,7.78-6.41,16.17-8,24.72-3.24,17.12-2.44,34.83.99,51.79,3.48,16.99,9.65,33.32,17.65,48.54,4.03,7.61,8.57,14.91,13.43,21.96,1.36,1.93,2.77,3.83,4.19,5.72-1.93,1.72-3.4,3.83-4.34,6.2ZM278.53,216.87c-.73,5.51-5.8,9.41-11.3,8.67-5.5-.73-9.38-5.81-8.65-11.33.35-2.67,1.73-5.04,3.86-6.68,1.77-1.36,3.9-2.08,6.1-2.08.45,0,.9.03,1.35.09,2.67.35,5.03,1.73,6.67,3.87,1.63,2.14,2.34,4.79,1.98,7.46Z"/>
  <path class="cls-3" d="M298.67,95.03c-9.02-1.2-17.34,5.17-18.54,14.22-1.2,9.04,5.17,17.38,14.19,18.58.73.1,1.46.15,2.18.15,8.14,0,15.25-6.06,16.35-14.36,1.2-9.04-5.17-17.37-14.19-18.58ZM306.48,112.76c-.73,5.51-5.8,9.41-11.3,8.67-5.5-.73-9.38-5.81-8.65-11.33.35-2.67,1.73-5.04,3.86-6.68,1.77-1.36,3.9-2.08,6.1-2.08.45,0,.9.03,1.35.09,2.67.35,5.03,1.73,6.67,3.87,1.63,2.14,2.34,4.79,1.98,7.46Z"/>
  <g>
    <path class="cls-4" d="M42.59,350.35c11.23,0,16.85-5.5,16.85-14.89,0-13.26-10.49-13.51-20.72-14.89-9.74-1.25-19.35-3.63-19.35-19.14,0-12.01,7.74-19.51,22.59-19.51s22.1,7.38,22.1,19.39h-6.12c-.25-9.01-4.74-13.51-15.85-13.51s-16.1,5.25-16.1,13.51c0,12.63,8.74,12.76,18.1,14.01,10.61,1.5,21.84,3.75,21.84,20.01,0,12.76-7.36,21.01-23.34,21.01-14.23,0-23.47-5.63-23.47-20.76h6.24c0,8.51,4.37,14.76,17.23,14.76Z"/>
    <path class="cls-4" d="M98.01,350.35c11.23,0,16.85-5.5,16.85-14.89,0-13.26-10.49-13.51-20.72-14.89-9.74-1.25-19.35-3.63-19.35-19.14,0-12.01,7.74-19.51,22.59-19.51s22.1,7.38,22.1,19.39h-6.12c-.25-9.01-4.74-13.51-15.85-13.51s-16.1,5.25-16.1,13.51c0,12.63,8.74,12.76,18.1,14.01,10.61,1.5,21.84,3.75,21.84,20.01,0,12.76-7.36,21.01-23.34,21.01-14.23,0-23.47-5.63-23.47-20.76h6.24c0,8.51,4.37,14.76,17.23,14.76Z"/>
    <path class="cls-4" d="M153.43,350.35c11.23,0,16.85-5.5,16.85-14.89,0-13.26-10.49-13.51-20.72-14.89-9.74-1.25-19.35-3.63-19.35-19.14,0-12.01,7.74-19.51,22.59-19.51s22.1,7.38,22.1,19.39h-6.12c-.25-9.01-4.74-13.51-15.85-13.51s-16.1,5.25-16.1,13.51c0,12.63,8.74,12.76,18.1,14.01,10.61,1.5,21.84,3.75,21.84,20.01,0,12.76-7.36,21.01-23.34,21.01-14.23,0-23.47-5.63-23.47-20.76h6.24c0,8.51,4.37,14.76,17.23,14.76Z"/>
    <path class="cls-4" d="M186.88,329.46v-20.01c0-20.64,7.36-27.27,23.09-27.27s23.09,6.13,23.09,27.64v19.64c0,20.26-7.36,27.39-23.09,27.39s-23.09-6.13-23.09-27.39ZM226.82,329.21v-19.39c0-15.76-2.5-21.76-16.85-21.76-13.48,0-16.85,6.13-16.85,21.51v19.39c0,15.76,2.5,22.14,16.85,22.14,13.48,0,16.85-6.5,16.85-21.89Z"/>
    <path class="cls-4" d="M254.28,283.31l.62,5.88c3.87-5.25,9.99-7.25,17.98-7.25,10.74,0,16.98,4.5,19.6,10.76,5.99-9.13,12.98-10.76,20.97-10.76,17.85,0,22.34,9.51,22.34,26.77v47.28h-6.24v-47.41c0-15.51-3-20.89-16.73-20.89s-17.6,8.51-17.6,19.01v49.28h-6.24v-47.41c0-13.63-3-20.89-16.73-20.89s-17.48,6.38-17.48,16.64v51.66h-6.24v-72.67h5.74Z"/>
  </g>
  <text class="cls-8" transform="translate(10.5 412.39)"><tspan x="0" y="0">SIMPLE S</tspan><tspan class="cls-5" x="89.62" y="0">T</tspan><tspan x="99.74" y="0">AN</tspan><tspan class="cls-7" x="130.19" y="0">D</tspan><tspan x="145.83" y="0">ARD FOR SHARING</tspan><tspan x="35.66" y="28.78">ON</tspan><tspan class="cls-6" x="67.96" y="28.78">T</tspan><tspan x="79.23" y="28.78">O</tspan><tspan class="cls-1" x="95.76" y="28.78">L</tspan><tspan x="106.14" y="28.78">OGI</tspan><tspan class="cls-2" x="143.89" y="28.78">C</tspan><tspan x="157.89" y="28.78">AL </tspan><tspan class="cls-9" x="188.97" y="28.78">M</tspan><tspan x="208.01" y="28.78">APPINGS</tspan></text>
</svg>