<?xml version="1.0" encoding="UTF-8"?>
<svg id="Layer_1" data-name="Layer 1" xmlns="http://www.w3.org/2000/svg" viewBox="0 0 720.62 282.59">
  <defs>
    <style>
      .cls-1 {
        letter-spacing: -.04em;
      }

      .cls-2 {
        letter-spacing: 0em;
      }

      .cls-3 {
        letter-spacing: -.07em;
      }

      .cls-4 {
        letter-spacing: -.03em;
      }

      .cls-5 {
        letter-spacing: -.01em;
      }

      .cls-6 {
        font-family: MyriadConceptRoman-Regular, 'Myriad Variable Concept';
        font-size: 27.93px;
        font-variation-settings: 'wght' 400, 'wdth' 100;
      }

      .cls-6, .cls-7 {
        fill: #fff;
      }

      .cls-8 {
        letter-spacing: -.01em;
      }

      .cls-7, .cls-9 {
        stroke-width: 0px;
      }

      .cls-9 {
        fill: #c6c6c5;
      }
    </style>
  </defs>
  <g>
    <path class="cls-9" d="M235.85,125.5c-5.08.37-10.16.79-15.23,1.37-5.08.53-10.13,1.33-15.18,2.16-2.52.44-5.04.92-7.56,1.4-2.5.56-5.01,1.08-7.5,1.71-2.48.65-4.99,1.22-7.45,1.96-2.47.7-4.95,1.4-7.38,2.21-9.78,3.17-19.32,7.11-28.52,11.7-9.15,4.69-17.97,10.02-26.32,15.98-8.31,6.01-16.26,12.48-23.67,19.51-7.45,6.99-14.34,14.51-20.9,22.25l-4.8,5.91c-1.57,1.99-3.1,4.02-4.62,6.04-.11.14-.21.28-.31.42.41.4.8.82,1.17,1.26l.52-.56c1.73-1.84,3.4-3.73,5.13-5.56l5.26-5.43c1.72-1.84,3.56-3.56,5.33-5.34l2.68-2.65c.89-.88,1.84-1.71,2.75-2.57,1.86-1.69,3.65-3.45,5.52-5.12l5.64-4.97c7.66-6.46,15.51-12.67,23.8-18.25,8.24-5.63,16.81-10.78,25.74-15.22,8.88-4.55,18.1-8.4,27.55-11.66,9.42-3.33,19.11-5.92,28.92-8.13,4.91-1.08,9.85-2.04,14.81-2.91,4.96-.92,9.96-1.66,14.96-2.4,5.62-.84,11.26-1.58,16.91-2.33-.07-.51-.11-1.03-.12-1.56-5.71.17-11.41.41-17.12.76Z"/>
    <path class="cls-9" d="M152.7,118.44c18.79,3.27,37.8,5,56.77,5.73,14.51.59,29,.7,43.5.53-.01-.65.01-1.31.1-1.98.11-.84.31-1.65.57-2.43-.39-.14-.79-.27-1.18-.41-4.51-1.67-8.89-3.53-13.03-5.7-8.31-4.27-15.62-9.98-20.51-17.32-1.25-1.81-2.3-3.75-3.22-5.75-.5-.98-.84-2.04-1.27-3.06-.4-1.03-.66-2.12-1.03-3.17-1.24-4.29-1.83-8.82-2.02-13.44-.15-2.31-.03-4.64,0-6.99.19-2.34.25-4.72.58-7.08.13-1.09.21-2.2.37-3.3-1.04-.21-2.03-.53-2.96-.96-.43,1.14-.82,2.3-1.18,3.47-.81,2.35-1.34,4.79-1.92,7.23-.42,2.47-.9,4.96-1.04,7.5-.41,5.06-.17,10.27.98,15.38.33,1.27.62,2.55,1.04,3.8.46,1.23.83,2.5,1.37,3.71,1.07,2.42,2.3,4.78,3.79,6.98l1.14,1.63c.37.55.82,1.04,1.23,1.56l1.26,1.53,1.37,1.43c.9.97,1.89,1.83,2.87,2.71.96.9,2.03,1.65,3.06,2.45,4.2,3.11,8.83,5.46,13.58,7.26,2.72,1.02,5.48,1.85,8.26,2.53-11.8-1.1-23.61-2.05-35.37-3.12-18.79-1.74-37.49-3.83-55.98-7.06-18.5-3.18-36.78-7.51-54.87-12.71-13.83-4-27.53-8.52-41.23-13.19-.18.53-.41,1.04-.66,1.54,13.12,6.19,26.59,11.69,40.36,16.43,17.97,6.23,36.49,11.02,55.28,14.28Z"/>
    <path class="cls-9" d="M56.43,107c.4,1.47.83,2.92,1.18,4.4.39,1.47.73,2.95,1.05,4.44,2.56,11.88,3.9,24.01,4.38,36.17.48,12.16.09,24.37-1.05,36.55-.79,8.58-2.03,17.12-3.52,25.68.68.1,1.35.24,2,.43,2.84-8.27,4.98-16.81,6.44-25.46,2.17-12.32,2.96-24.91,2.48-37.45-.52-12.53-2.29-25.08-5.94-37.15-1.8-6.03-4.1-11.94-7.03-17.54-.78-1.38-1.51-2.77-2.37-4.1-.17-.28-.35-.55-.52-.82-.61.49-1.26.93-1.95,1.31.72,1.61,1.4,3.23,2.02,4.88,1.06,2.85,2.04,5.73,2.85,8.67Z"/>
  </g>
  <path class="cls-7" d="M250.74,217.59c17.26-24.09,26.07-54.27,22.58-85.89-1.68,1.59-3.86,2.64-6.27,2.81.06.62.14,1.23.19,1.85,2.13,27.47-5.61,54.88-21.58,77.3-1.64-.82-3.42-1.39-5.3-1.64-4.01-.53-7.97.4-11.31,2.58-1.18-1.96-2.35-3.93-3.48-5.92-4.21-7.35-8.1-14.84-11.68-22.45-6.96-15.31-12.59-31.18-15.94-47.52l-1.15-6.14-.92-6.18-.7-6.2-.46-6.22c-.45-8.3-.16-16.64.87-24.89l.41-3.09.56-3.07c.32-2.06.87-4.06,1.3-6.1.2-1.03.52-2.01.79-3.02.29-1,.53-2.02.85-3.01.68-1.97,1.26-3.98,2.07-5.9,1.21-3.42,2.81-6.69,4.51-9.91,2.02,1.28,4.29,2.13,6.73,2.45.74.1,1.49.15,2.22.15,3.48,0,6.85-1.11,9.7-3.17,19.14,15.87,32.53,36.84,38.8,60.42.89-.26,1.82-.43,2.78-.43.44,0,.89.03,1.34.09.95.13,1.84.42,2.7.79-6.33-25.61-20.58-48.41-41.18-65.59,1.2-1.94,2-4.13,2.31-6.45.58-4.37-.58-8.71-3.28-12.21-2.7-3.5-6.61-5.75-11.01-6.33-4.41-.58-8.77.58-12.3,3.26-1.5,1.14-2.75,2.5-3.76,4.02-20.62-9.53-43.52-13.36-66.71-10.81-34.05,3.74-63.4,20.77-83.51,45.26-1.15-.43-2.37-.75-3.64-.92-9.08-1.2-17.46,5.17-18.67,14.19-.58,4.37.58,8.71,3.28,12.21.56.72,1.18,1.38,1.83,1.99-9.04,19.76-13.04,42.08-10.47,65.17,2.34,20.97,9.83,40.55,21.62,57.41-2.65,2.51-4.49,5.88-5.01,9.75-.58,4.37.58,8.71,3.28,12.21,2.7,3.5,6.61,5.75,11.01,6.33.74.1,1.47.14,2.2.14,4.1,0,7.95-1.51,10.9-4.07.79.67,1.58,1.34,2.4,1.99,4.64,3.69,9.49,7.01,14.51,9.98v.28c1.14.67,2.3,1.33,3.47,1.96,18.44,10.03,39.37,15.33,60.53,15.33,18.36,0,35.97-3.85,52.45-11.36v-.12c10.02-4.57,19.29-10.41,27.63-17.26,2.2,1.63,4.82,2.75,7.73,3.13.74.1,1.47.14,2.2.14,8.2,0,15.36-6.05,16.47-14.34.58-4.37-.58-8.71-3.28-12.21-.21-.27-.43-.51-.65-.76ZM204.97,39.73c.36-2.67,1.74-5.03,3.89-6.67,1.79-1.36,3.93-2.07,6.14-2.07.45,0,.9.03,1.36.09,2.68.35,5.07,1.73,6.72,3.86,1.65,2.14,2.36,4.78,2,7.45-.36,2.67-1.74,5.03-3.89,6.67-2.15,1.63-4.82,2.34-7.5,1.98-2.68-.35-5.07-1.73-6.72-3.86-1.65-2.14-2.36-4.78-2-7.45ZM135.16,27.55c4.47-.49,8.92-.73,13.36-.73,17.48,0,34.53,3.84,50.19,11.13-.06.31-.13.62-.17.94-.49,3.66.26,7.28,2.1,10.42-8.21,4.4-16.61,8.37-25.2,11.86-13.67,5.56-27.78,9.95-42.12,13.31-14.35,3.33-28.96,5.65-43.69,6.85-9.26.76-18.56,1.06-27.9,1,.14-4.83-1.88-9.33-5.25-12.49,19.06-22.88,46.69-38.77,78.69-42.29ZM35.05,80.53c.68-5.06,5.04-8.74,10.04-8.74.44,0,.89.03,1.34.09,5.54.73,9.45,5.8,8.71,11.31-.36,2.67-1.74,5.03-3.89,6.67s-4.81,2.34-7.5,1.98c-2.68-.35-5.07-1.73-6.71-3.86-1.65-2.13-2.36-4.78-2-7.45ZM66.41,229.72c-.74,5.5-5.85,9.39-11.39,8.65-2.68-.35-5.07-1.73-6.71-3.86-1.65-2.13-2.36-4.78-2-7.45.36-2.67,1.74-5.03,3.89-6.67,1.79-1.36,3.93-2.07,6.14-2.07.45,0,.9.03,1.36.09,2.68.35,5.07,1.73,6.71,3.86,1.65,2.14,2.36,4.78,2,7.45ZM200.63,251.82v-.16c-16.39,7.98-34.03,12.05-52.45,12.05s-37.08-4.35-53.61-12.6c-.45-.23-.89-.45-1.34-.69-.59-.3-1.18-.61-1.77-.93-.43-.23-.86-.48-1.29-.72-1.74-.96-3.45-1.97-5.13-3.02-3.89-2.43-7.67-5.08-11.31-7.97-.85-.67-1.67-1.37-2.49-2.06.79-1.58,1.36-3.31,1.61-5.17.58-4.37-.58-8.71-3.28-12.21-2.7-3.5-6.61-5.75-11.01-6.33-2.87-.38-5.66,0-8.19.97-11.27-16.03-18.42-34.68-20.65-54.65-2.41-21.6,1.25-42.49,9.57-61.04,1.16.43,2.37.75,3.63.91.74.1,1.47.14,2.2.14,3.55,0,6.9-1.13,9.65-3.09,8.96,12.19,18.37,24.07,28.52,35.39,6.83,7.8,14.24,15.1,21.75,22.29.47.45.93.91,1.41,1.35l1.46,1.29,2.93,2.57,5.87,5.15c4.03,3.29,8.08,6.57,12.15,9.81,4.22,3.05,8.41,6.15,12.66,9.15,4.35,2.86,8.65,5.8,13.03,8.6l13.42,7.96c4.54,2.54,9.15,4.94,13.74,7.37,13.16,6.72,26.67,12.66,40.41,17.97-.18.67-.33,1.36-.42,2.06-.52,3.87.37,7.6,2.26,10.7-7.19,5.88-15.01,10.87-23.33,14.91ZM222.76,222.26c-13.06-6.56-25.99-13.27-38.63-20.47l-6.63-3.93c-2.2-1.32-4.45-2.56-6.64-3.89l-12.99-8.23-12.71-8.63c-4.15-2.99-8.23-6.08-12.35-9.11l-12.03-9.52c-3.86-3.35-7.78-6.63-11.6-10.03l-5.67-5.17-2.84-2.58c-.94-.87-1.84-1.78-2.76-2.67-3.64-3.6-7.39-7.1-10.93-10.8-10.54-10.71-20.65-21.9-30.78-33.11,2.74-2.45,4.68-5.8,5.3-9.67,9.39,1.07,18.88,1.47,28.35,1.22,15.04-.41,30.07-2.33,44.74-5.77,14.67-3.42,29-8.35,42.61-14.77,8.56-4.04,16.82-8.73,24.61-14.05,0,0,0,0,0,0,.78,1.01,1.68,1.91,2.64,2.7-.31.46-.62.93-.94,1.39-.6.9-1.21,1.8-1.73,2.74l-1.64,2.81c-.52.95-.99,1.92-1.49,2.89-3.87,7.77-6.46,16.14-8.06,24.67-3.27,17.09-2.46,34.77,1,51.7,3.51,16.97,9.72,33.26,17.78,48.46,4.06,7.59,8.63,14.88,13.53,21.92,1.37,1.93,2.79,3.83,4.22,5.71-1.94,1.71-3.42,3.82-4.37,6.18ZM248.23,229.72c-.74,5.5-5.84,9.39-11.39,8.65-5.54-.73-9.45-5.8-8.71-11.31.36-2.67,1.74-5.03,3.89-6.67,1.79-1.36,3.93-2.07,6.14-2.07.45,0,.9.03,1.36.09,2.68.35,5.07,1.72,6.71,3.86,1.65,2.14,2.36,4.78,2,7.45Z"/>
  <path class="cls-9" d="M268.53,108.1c-9.08-1.2-17.46,5.17-18.67,14.19-1.21,9.03,5.2,17.34,14.29,18.54.74.1,1.47.14,2.2.14,8.2,0,15.36-6.05,16.47-14.34,1.21-9.03-5.2-17.34-14.29-18.54ZM276.39,125.79c-.74,5.5-5.84,9.39-11.39,8.65-5.54-.73-9.45-5.8-8.71-11.31.36-2.67,1.74-5.03,3.89-6.67,1.79-1.36,3.93-2.07,6.14-2.07.45,0,.9.03,1.36.09,2.68.35,5.07,1.73,6.71,3.86,1.65,2.14,2.36,4.78,2,7.45Z"/>
  <g>
    <path class="cls-7" d="M378.27,127.8c11.32,0,16.97-5.49,16.97-14.86,0-13.24-10.56-13.49-20.87-14.86-9.81-1.25-19.49-3.62-19.49-19.1,0-11.99,7.79-19.48,22.76-19.48s22.26,7.37,22.26,19.35h-6.16c-.25-8.99-4.78-13.49-15.97-13.49s-16.22,5.24-16.22,13.49c0,12.61,8.8,12.74,18.23,13.99,10.69,1.5,22,3.74,22,19.98,0,12.74-7.42,20.98-23.51,20.98-14.33,0-23.64-5.62-23.64-20.73h6.29c0,8.49,4.4,14.73,17.35,14.73Z"/>
    <path class="cls-7" d="M434.09,127.8c11.32,0,16.97-5.49,16.97-14.86,0-13.24-10.56-13.49-20.87-14.86-9.81-1.25-19.49-3.62-19.49-19.1,0-11.99,7.8-19.48,22.76-19.48s22.26,7.37,22.26,19.35h-6.16c-.25-8.99-4.78-13.49-15.97-13.49s-16.22,5.24-16.22,13.49c0,12.61,8.8,12.74,18.23,13.99,10.69,1.5,22,3.74,22,19.98,0,12.74-7.42,20.98-23.51,20.98-14.33,0-23.64-5.62-23.64-20.73h6.29c0,8.49,4.4,14.73,17.35,14.73Z"/>
    <path class="cls-7" d="M489.91,127.8c11.32,0,16.97-5.49,16.97-14.86,0-13.24-10.56-13.49-20.87-14.86-9.81-1.25-19.49-3.62-19.49-19.1,0-11.99,7.8-19.48,22.76-19.48s22.26,7.37,22.26,19.35h-6.16c-.25-8.99-4.78-13.49-15.97-13.49s-16.22,5.24-16.22,13.49c0,12.61,8.8,12.74,18.23,13.99,10.69,1.5,22,3.74,22,19.98,0,12.74-7.42,20.98-23.51,20.98-14.33,0-23.64-5.62-23.64-20.73h6.29c0,8.49,4.4,14.73,17.35,14.73Z"/>
    <path class="cls-7" d="M523.61,106.95v-19.98c0-20.6,7.42-27.22,23.26-27.22s23.26,6.12,23.26,27.59v19.6c0,20.23-7.42,27.35-23.26,27.35s-23.26-6.12-23.26-27.35ZM563.84,106.7v-19.36c0-15.73-2.51-21.73-16.97-21.73-13.58,0-16.97,6.12-16.97,21.48v19.36c0,15.73,2.51,22.1,16.97,22.1,13.58,0,16.97-6.49,16.97-21.85Z"/>
    <path class="cls-7" d="M591.5,60.87l.63,5.87c3.9-5.24,10.06-7.24,18.11-7.24,10.81,0,17.1,4.49,19.74,10.74,6.04-9.12,13.08-10.74,21.12-10.74,17.98,0,22.51,9.49,22.51,26.72v47.2h-6.29v-47.33c0-15.48-3.02-20.85-16.85-20.85s-17.73,8.49-17.73,18.98v49.2h-6.29v-47.33c0-13.61-3.02-20.85-16.85-20.85s-17.6,6.37-17.6,16.61v51.57h-6.29V60.87h5.78Z"/>
  </g>
  <text class="cls-6" transform="translate(318.35 192.34)"><tspan x="0" y="0">SIMPLE S</tspan><tspan class="cls-3" x="104.37" y="0">T</tspan><tspan x="116.16" y="0">AN</tspan><tspan class="cls-5" x="151.63" y="0">D</tspan><tspan x="169.84" y="0">ARD FOR SHARING</tspan><tspan x="41.53" y="33.52">ON</tspan><tspan class="cls-4" x="79.15" y="33.52">T</tspan><tspan x="92.28" y="33.52">O</tspan><tspan class="cls-1" x="111.52" y="33.52">L</tspan><tspan x="123.61" y="33.52">OGI</tspan><tspan class="cls-2" x="167.57" y="33.52">C</tspan><tspan x="183.89" y="33.52">AL </tspan><tspan class="cls-8" x="220.08" y="33.52">M</tspan><tspan x="242.26" y="33.52">APPINGS</tspan></text>
</svg>