<svg id="Layer_1" data-name="Layer 1" xmlns="http://www.w3.org/2000/svg" viewBox="0 0 1069 332"><defs><style>.cls-1{fill:#231f20;}.cls-2{fill:#fff;}.cls-3{fill:#c6c6c5;}</style></defs><rect class="cls-1" x="0.25" width="1069" height="332"/><path class="cls-2" d="M522.26,186.55v-.47a4.89,4.89,0,0,0,2.13.46c1.32,0,1.9-.54,1.9-1.4s-.53-1.16-1.51-1.45l-.61-.19c-1.19-.36-1.78-.84-1.78-1.88s.77-1.72,2.29-1.72a4.21,4.21,0,0,1,1.85.38v.49a4.35,4.35,0,0,0-1.87-.39c-1.1,0-1.65.49-1.65,1.2s.34,1.1,1.4,1.41l.61.19c1.16.35,1.89.76,1.89,1.92s-.74,1.94-2.49,1.94A4.72,4.72,0,0,1,522.26,186.55Z"/><path class="cls-2" d="M528.22,180h.63v6.92h-.63Z"/><path class="cls-2" d="M530.55,180h.91l2.5,6.16h0l2.5-6.16h.93v6.92h-.62v-6.2h0l-2.54,6.2h-.58l-2.53-6.2h0v6.2h-.56Z"/><path class="cls-2" d="M539.11,180h2.1c1.81,0,2.54.73,2.54,2s-.89,2-2.4,2h-1.64v2.91h-.6Zm2.11,3.54c1.31,0,1.88-.52,1.88-1.51s-.48-1.55-2-1.55h-1.44v3.06Z"/><path class="cls-2" d="M544.87,180h.61v6.45h3.68v.47h-4.29Z"/><path class="cls-2" d="M550.28,180h4.46v.48h-3.85v2.65h3v.47h-3v2.85h3.87v.47h-4.48Z"/><path class="cls-2" d="M558.31,186.55v-.47a4.81,4.81,0,0,0,2.12.46c1.33,0,1.91-.54,1.91-1.4s-.53-1.16-1.51-1.45l-.61-.19c-1.2-.36-1.79-.84-1.79-1.88s.77-1.72,2.3-1.72a4.21,4.21,0,0,1,1.85.38v.49a4.41,4.41,0,0,0-1.88-.39c-1.1,0-1.64.49-1.64,1.2s.34,1.1,1.39,1.41l.62.19c1.16.35,1.88.76,1.88,1.92s-.74,1.94-2.48,1.94A4.72,4.72,0,0,1,558.31,186.55Z"/><path class="cls-2" d="M566.05,180.48h-2.47V180h5.57v.48h-2.47v6.44h-.63Z"/><path class="cls-2" d="M571.57,180h.6l2.83,6.92h-.65l-.9-2.19h-3.26l-.88,2.19h-.59Zm-1.18,4.24h2.87l-1.43-3.51Z"/><path class="cls-2" d="M576,180h.73l4.14,6h0v-6h.57v6.92h-.63l-4.24-6.16h0v6.16H576Z"/><path class="cls-2" d="M583.08,180h2.11c2.38,0,3.63,1.06,3.63,3.33v.16c0,2.25-1.14,3.43-3.62,3.43h-2.12Zm2.14,6.44c2,0,2.94-.88,2.94-2.88v-.23c0-2.06-1-2.84-3-2.84h-1.45v5.95Z"/><path class="cls-2" d="M592.17,180h.61l2.82,6.92H595l-.9-2.19H590.8l-.89,2.19h-.59ZM591,184.24h2.88l-1.43-3.51Z"/><path class="cls-2" d="M596.54,180h2.13c1.68,0,2.43.74,2.43,1.89a1.74,1.74,0,0,1-1.63,1.82v0l2.14,3.17h-.7l-2-3.07h-1.7v3.07h-.62Zm2.11,3.38c1.36,0,1.8-.59,1.8-1.49s-.5-1.41-1.82-1.41h-1.47v2.9Z"/><path class="cls-2" d="M602.65,180h2.12c2.37,0,3.62,1.06,3.62,3.33v.16c0,2.25-1.14,3.43-3.61,3.43h-2.13Zm2.14,6.44c2,0,2.94-.88,2.94-2.88v-.23c0-2.06-1-2.84-3-2.84h-1.44v5.95Z"/><path class="cls-2" d="M612.38,180h4.35v.48H613v2.7h2.89v.49H613v3.25h-.62Z"/><path class="cls-2" d="M617.48,183.54v-.16c0-2.21,1.26-3.48,3.3-3.48s3.26,1.23,3.26,3.48v.16c0,2.2-1.26,3.49-3.28,3.49S617.48,185.8,617.48,183.54Zm5.9.08v-.24c0-1.87-.86-3-2.63-3s-2.61,1.12-2.61,2.91v.25c0,1.88.86,3,2.63,3S623.38,185.43,623.38,183.62Z"/><path class="cls-2" d="M625.29,180h2.13c1.68,0,2.42.74,2.42,1.89a1.74,1.74,0,0,1-1.62,1.82v0l2.14,3.17h-.71l-2-3.07H625.9v3.07h-.61Zm2.1,3.38c1.37,0,1.81-.59,1.81-1.49s-.5-1.41-1.82-1.41H625.9v2.9Z"/><path class="cls-2" d="M633.62,186.55v-.47a4.89,4.89,0,0,0,2.13.46c1.33,0,1.91-.54,1.91-1.4s-.54-1.16-1.51-1.45l-.62-.19c-1.19-.36-1.78-.84-1.78-1.88s.77-1.72,2.29-1.72a4.14,4.14,0,0,1,1.85.38v.49a4.35,4.35,0,0,0-1.87-.39c-1.1,0-1.65.49-1.65,1.2s.34,1.1,1.4,1.41l.61.19c1.16.35,1.89.76,1.89,1.92s-.74,1.94-2.49,1.94A4.72,4.72,0,0,1,633.62,186.55Z"/><path class="cls-2" d="M639.56,180h.6v3.09h4.24V180H645v6.92h-.61v-3.36h-4.24v3.36h-.6Z"/><path class="cls-2" d="M648.8,180h.61l2.82,6.92h-.64l-.9-2.19h-3.26l-.89,2.19H646Zm-1.18,4.24h2.88l-1.44-3.51Z"/><path class="cls-2" d="M653.17,180h2.13c1.68,0,2.43.74,2.43,1.89a1.74,1.74,0,0,1-1.63,1.82v0l2.14,3.17h-.71l-2-3.07h-1.7v3.07h-.62Zm2.1,3.38c1.37,0,1.81-.59,1.81-1.49s-.5-1.41-1.82-1.41h-1.47v2.9Z"/><path class="cls-2" d="M659.32,180h.62v6.92h-.62Z"/><path class="cls-2" d="M661.64,180h.73l4.15,6h0v-6h.56v6.92h-.63l-4.24-6.16h0v6.16h-.56Z"/><path class="cls-2" d="M668.34,183.57v-.15a3.19,3.19,0,0,1,3.5-3.52,4.32,4.32,0,0,1,1.94.38v.49a4.61,4.61,0,0,0-2-.39c-1.95,0-2.8,1.24-2.8,3v.22c0,1.82.72,3,2.83,3a5.64,5.64,0,0,0,1.61-.22v-2.14h-1.73v-.48h2.36v3a7.51,7.51,0,0,1-2.25.36C669.61,187,668.34,185.88,668.34,183.57Z"/><path class="cls-2" d="M546.59,194.21v-.16c0-2.22,1.26-3.49,3.3-3.49s3.26,1.23,3.26,3.49v.16c0,2.19-1.26,3.48-3.28,3.48S546.59,196.47,546.59,194.21Zm5.9.08v-.24c0-1.88-.86-3-2.63-3s-2.62,1.11-2.62,2.91v.25c0,1.87.87,3,2.64,3S552.49,196.09,552.49,194.29Z"/><path class="cls-2" d="M554.41,190.67h.73l4.14,6h0v-6h.57v6.92h-.64L555,191.43h0v6.16h-.55Z"/><path class="cls-2" d="M563.35,191.14h-2.47v-.47h5.58v.47H564v6.45h-.63Z"/><path class="cls-2" d="M567,194.21v-.16c0-2.22,1.26-3.49,3.31-3.49s3.26,1.23,3.26,3.49v.16c0,2.19-1.26,3.48-3.29,3.48S567,196.47,567,194.21Zm5.91.08v-.24c0-1.88-.87-3-2.64-3s-2.61,1.11-2.61,2.91v.25c0,1.87.86,3,2.64,3S572.94,196.09,572.94,194.29Z"/><path class="cls-2" d="M574.84,190.67h.62v6.45h3.68v.47h-4.3Z"/><path class="cls-2" d="M579.83,194.21v-.16c0-2.22,1.26-3.49,3.3-3.49s3.26,1.23,3.26,3.49v.16c0,2.19-1.26,3.48-3.28,3.48S579.83,196.47,579.83,194.21Zm5.9.08v-.24c0-1.88-.86-3-2.63-3s-2.61,1.11-2.61,2.91v.25c0,1.87.86,3,2.63,3S585.73,196.09,585.73,194.29Z"/><path class="cls-2" d="M587.21,194.24v-.16a3.2,3.2,0,0,1,3.5-3.52,4.33,4.33,0,0,1,1.94.39v.49a4.64,4.64,0,0,0-2-.39c-1.95,0-2.8,1.24-2.8,3v.22c0,1.81.71,3,2.82,3a5.3,5.3,0,0,0,1.62-.23v-2.13h-1.73v-.48h2.35v3a7.11,7.11,0,0,1-2.25.36C588.48,197.69,587.21,196.55,587.21,194.24Z"/><path class="cls-2" d="M596.23,194.76l-2.55-4.09h.65l2.23,3.57h0l2.2-3.57h.61l-2.55,4.09v2.83h-.62Z"/><path class="cls-2" d="M603.08,190.67H604l2.5,6.16h0l2.5-6.16H610v6.92h-.63v-6.2h0l-2.54,6.2h-.58l-2.53-6.2h0v6.2h-.56Z"/><path class="cls-2" d="M613.74,190.67h.6l2.83,6.92h-.65l-.89-2.2h-3.26l-.89,2.2h-.59Zm-1.18,4.24h2.87L614,191.4Z"/><path class="cls-2" d="M618.12,190.67h2.1c1.81,0,2.55.73,2.55,2s-.9,2-2.41,2h-1.64v2.91h-.6Zm2.11,3.54c1.31,0,1.88-.52,1.88-1.51s-.48-1.56-1.94-1.56h-1.45v3.07Z"/><path class="cls-2" d="M623.89,190.67H626c1.81,0,2.54.73,2.54,2s-.89,2-2.4,2h-1.64v2.91h-.6Zm2.11,3.54c1.31,0,1.88-.52,1.88-1.51s-.48-1.56-2-1.56h-1.44v3.07Z"/><path class="cls-2" d="M629.68,190.67h.62v6.92h-.62Z"/><path class="cls-2" d="M632,190.67h.72l4.15,6h0v-6h.57v6.92h-.64l-4.23-6.16h0v6.16H632Z"/><path class="cls-2" d="M638.71,194.24v-.16a3.19,3.19,0,0,1,3.49-3.52,4.29,4.29,0,0,1,1.94.39v.49a4.55,4.55,0,0,0-2-.39c-1.95,0-2.81,1.24-2.81,3v.22c0,1.81.72,3,2.83,3a5.23,5.23,0,0,0,1.61-.23v-2.13h-1.72v-.48h2.35v3a7.11,7.11,0,0,1-2.25.36C640,197.69,638.71,196.55,638.71,194.24Z"/><path class="cls-2" d="M645.4,197.22v-.48a4.89,4.89,0,0,0,2.13.47c1.33,0,1.91-.54,1.91-1.4s-.54-1.16-1.52-1.45l-.61-.19c-1.19-.37-1.78-.84-1.78-1.88s.77-1.73,2.29-1.73a4.15,4.15,0,0,1,1.85.39v.49a4.35,4.35,0,0,0-1.87-.39c-1.1,0-1.65.48-1.65,1.2s.34,1.1,1.4,1.41l.61.19c1.16.35,1.89.76,1.89,1.91s-.74,1.94-2.49,1.94A4.73,4.73,0,0,1,645.4,197.22Z"/><path class="cls-3" d="M482.59,157.82c-2.07.16-4.15.33-6.22.57s-4.14.55-6.2.89c-1,.17-2.06.38-3.09.57s-2.05.45-3.06.71-2,.5-3,.8-2,.58-3,.91a84.48,84.48,0,0,0-11.65,4.81,86.11,86.11,0,0,0-10.75,6.58,93.08,93.08,0,0,0-9.67,8,110.09,110.09,0,0,0-8.54,9.15l-2,2.43c-.65.82-1.27,1.66-1.89,2.49l-.13.17a5.91,5.91,0,0,1,.48.52l.21-.23c.71-.75,1.39-1.53,2.1-2.28l2.15-2.24c.7-.75,1.45-1.46,2.17-2.19l1.1-1.09,1.12-1.06c.77-.69,1.5-1.42,2.26-2.1l2.3-2.05a113.54,113.54,0,0,1,9.73-7.51,89.06,89.06,0,0,1,10.51-6.26,87,87,0,0,1,11.25-4.79,103.57,103.57,0,0,1,11.82-3.35c2-.44,4-.83,6.05-1.19s4.06-.68,6.11-1c2.29-.35,4.6-.65,6.9-1,0-.21,0-.42-.05-.64Q486.09,157.62,482.59,157.82Z"/><path class="cls-3" d="M448.63,154.92a173.9,173.9,0,0,0,23.18,2.36c5.93.24,11.85.29,17.77.21a7.44,7.44,0,0,1,0-.81,5.41,5.41,0,0,1,.24-1l-.49-.17a46.29,46.29,0,0,1-5.32-2.34,22,22,0,0,1-8.38-7.13,15.09,15.09,0,0,1-1.31-2.36c-.21-.41-.35-.84-.52-1.26s-.27-.87-.42-1.31a23.45,23.45,0,0,1-.83-5.52c-.06-1,0-1.91,0-2.88s.1-1.94.23-2.91c.06-.45.09-.91.16-1.36a5.91,5.91,0,0,1-1.21-.39c-.18.47-.34.94-.49,1.42-.33,1-.54,2-.78,3a28.53,28.53,0,0,0-.43,3.08,21.85,21.85,0,0,0,.4,6.33c.14.52.26,1,.43,1.56s.34,1,.56,1.52a18,18,0,0,0,1.55,2.87l.46.68c.15.22.34.42.51.64l.51.63.56.59c.37.4.77.75,1.17,1.11s.83.68,1.25,1a23.31,23.31,0,0,0,5.55,3,29.25,29.25,0,0,0,3.38,1c-4.82-.45-9.65-.85-14.45-1.29-7.68-.71-15.31-1.57-22.87-2.9a208.59,208.59,0,0,1-22.41-5.23c-5.65-1.64-11.25-3.5-16.84-5.42a6,6,0,0,1-.27.63,161.13,161.13,0,0,0,16.49,6.76A143.24,143.24,0,0,0,448.63,154.92Z"/><path class="cls-3" d="M409.3,150.21c.16.61.34,1.21.48,1.82s.3,1.21.43,1.82A86.4,86.4,0,0,1,412,168.73a112.7,112.7,0,0,1-.43,15c-.32,3.53-.83,7-1.44,10.56a5.43,5.43,0,0,1,.82.18A67.12,67.12,0,0,0,413.58,184a73.57,73.57,0,0,0,1-15.41,61.52,61.52,0,0,0-2.43-15.28,40,40,0,0,0-2.87-7.21c-.32-.57-.62-1.14-1-1.68l-.21-.34a6.23,6.23,0,0,1-.8.54c.3.66.58,1.32.83,2C408.57,147.82,409,149,409.3,150.21Z"/><path class="cls-2" d="M488.67,195.7a51.12,51.12,0,0,0,9.22-35.33,4.08,4.08,0,0,1-2.55,1.16c0,.26.05.51.07.76a48.73,48.73,0,0,1-8.81,31.8,6.71,6.71,0,0,0-6.78.38c-.49-.8-1-1.61-1.43-2.43q-2.56-4.53-4.77-9.23a92.94,92.94,0,0,1-6.51-19.55l-.47-2.53-.37-2.54-.29-2.55-.19-2.56a58.29,58.29,0,0,1,.36-10.23l.17-1.28.23-1.26c.13-.84.35-1.67.53-2.51.08-.42.21-.83.32-1.24s.21-.83.35-1.24c.27-.81.51-1.63.84-2.43a31,31,0,0,1,1.85-4.07,6.76,6.76,0,0,0,7.62-.24,48.42,48.42,0,0,1,15.85,24.85,4.23,4.23,0,0,1,1.13-.17l.55,0a4.52,4.52,0,0,1,1.1.33,51,51,0,0,0-16.82-27A6.79,6.79,0,0,0,470,117.7a6.83,6.83,0,0,0-1.53,1.65,51.25,51.25,0,0,0-61.36,14.17A6.79,6.79,0,0,0,399.28,144a6.52,6.52,0,0,0,.75.82,51.25,51.25,0,0,0,4.56,50.42,6.79,6.79,0,0,0,3.79,11.64,6.74,6.74,0,0,0,5.35-1.62c.32.28.65.55,1,.82a51.36,51.36,0,0,0,5.93,4.1v.12l1.41.81a51.71,51.71,0,0,0,24.73,6.3,50.93,50.93,0,0,0,21.42-4.67v-.05a51.2,51.2,0,0,0,11.29-7.1,6.79,6.79,0,0,0,9.45-9.57ZM470,122.55a4.14,4.14,0,0,1,4.1-3.6,3.52,3.52,0,0,1,.56,0,4.14,4.14,0,0,1,2,7.39,4.15,4.15,0,0,1-6.63-3.83Zm-28.51-5a50.22,50.22,0,0,1,5.46-.3,48.18,48.18,0,0,1,20.5,4.57c0,.13-.05.26-.07.39a6.75,6.75,0,0,0,.85,4.29,109.85,109.85,0,0,1-10.29,4.88,115.38,115.38,0,0,1-17.2,5.47,123.48,123.48,0,0,1-17.85,2.82c-3.78.31-7.58.43-11.4.41a6.78,6.78,0,0,0-2.14-5.14A48.5,48.5,0,0,1,441.46,117.54Zm-40.89,21.79a4.15,4.15,0,0,1,4.1-3.6,3.39,3.39,0,0,1,.55,0,4.15,4.15,0,0,1,3.56,4.65,4.14,4.14,0,0,1-8.21-1.09Zm12.81,61.36a4.15,4.15,0,0,1-7.4,2,4.15,4.15,0,0,1,3.28-6.66,3.52,3.52,0,0,1,.56,0,4.09,4.09,0,0,1,2.74,1.59A4.14,4.14,0,0,1,413.38,200.69Zm54.82,9.09v-.06a48.23,48.23,0,0,1-21.42,4.95,48.93,48.93,0,0,1-21.9-5.18l-.55-.28-.72-.38-.53-.3c-.71-.39-1.41-.81-2.09-1.24a50.46,50.46,0,0,1-4.63-3.28c-.34-.28-.68-.56-1-.85A6.8,6.8,0,0,0,416,201a6.8,6.8,0,0,0-5.83-7.63,6.85,6.85,0,0,0-3.35.4,48.66,48.66,0,0,1-4.52-47.58,6.56,6.56,0,0,0,1.48.38,6.79,6.79,0,0,0,.9,0,6.71,6.71,0,0,0,3.94-1.27c3.66,5,7.5,9.9,11.65,14.56,2.79,3.21,5.82,6.21,8.89,9.16l.57.56.6.53,1.2,1.06,2.39,2.11c1.65,1.36,3.3,2.7,5,4s3.43,2.53,5.17,3.76,3.53,2.39,5.32,3.54l5.48,3.27c1.86,1.05,3.74,2,5.62,3A171.28,171.28,0,0,0,477,198.4a8,8,0,0,0-.17.85,6.78,6.78,0,0,0,.92,4.4A48.07,48.07,0,0,1,468.2,209.78Zm9-12.16c-5.33-2.69-10.61-5.45-15.78-8.41l-2.7-1.62c-.9-.54-1.82-1.05-2.72-1.6l-5.3-3.39-5.19-3.55c-1.7-1.23-3.36-2.5-5.05-3.74l-4.91-3.92c-1.58-1.37-3.18-2.73-4.74-4.12l-2.32-2.13-1.15-1.06c-.39-.36-.76-.73-1.13-1.1-1.49-1.48-3-2.92-4.47-4.44-4.3-4.41-8.43-9-12.57-13.62a6.76,6.76,0,0,0,2.16-4,81.47,81.47,0,0,0,11.58.5,90.82,90.82,0,0,0,18.28-2.37,86.93,86.93,0,0,0,17.4-6.08,73.46,73.46,0,0,0,10.05-5.77h0a6.32,6.32,0,0,0,1.08,1.11l-.39.58c-.24.36-.49.73-.7,1.12l-.67,1.16c-.21.39-.41.79-.61,1.18a38.9,38.9,0,0,0-3.29,10.15,55.16,55.16,0,0,0,.41,21.27,75.1,75.1,0,0,0,7.26,19.93,89,89,0,0,0,5.52,9c.56.8,1.14,1.58,1.73,2.35A6.73,6.73,0,0,0,477.24,197.62Zm10.41,3.07a4.14,4.14,0,1,1-8.21-1.09,4.16,4.16,0,0,1,4.09-3.6,3.52,3.52,0,0,1,.56,0,4.09,4.09,0,0,1,2.74,1.59A4.14,4.14,0,0,1,487.65,200.69Z"/><path class="cls-3" d="M495.94,150.67a6.79,6.79,0,1,0,5.84,7.62A6.79,6.79,0,0,0,495.94,150.67Zm3.21,7.28a4.14,4.14,0,0,1-8.21-1.1,4.14,4.14,0,0,1,4.09-3.59,5.25,5.25,0,0,1,.56,0,4.15,4.15,0,0,1,3.56,4.66Z"/><path class="cls-2" d="M540.77,158.77c4.62,0,6.93-2.26,6.93-6.11,0-5.44-4.32-5.55-8.53-6.11-4-.51-8-1.49-8-7.86,0-4.93,3.19-8,9.3-8,6.37,0,9.09,3,9.09,8h-2.52c-.1-3.7-2-5.55-6.52-5.55s-6.63,2.16-6.63,5.55c0,5.19,3.6,5.24,7.45,5.75,4.37.62,9,1.54,9,8.22,0,5.24-3,8.63-9.6,8.63-5.86,0-9.66-2.31-9.66-8.53h2.57C533.68,156.2,535.48,158.77,540.77,158.77Z"/><path class="cls-2" d="M563.57,158.77c4.62,0,6.93-2.26,6.93-6.11,0-5.44-4.31-5.55-8.53-6.11-4-.51-8-1.49-8-7.86,0-4.93,3.19-8,9.3-8,6.37,0,9.09,3,9.09,8h-2.52c-.1-3.7-2-5.55-6.52-5.55s-6.62,2.16-6.62,5.55c0,5.19,3.59,5.24,7.44,5.75,4.37.62,9,1.54,9,8.22,0,5.24-3,8.63-9.6,8.63-5.86,0-9.66-2.31-9.66-8.53h2.57C556.48,156.2,558.28,158.77,563.57,158.77Z"/><path class="cls-2" d="M586.37,158.77c4.62,0,6.93-2.26,6.93-6.11,0-5.44-4.31-5.55-8.52-6.11-4-.51-8-1.49-8-7.86,0-4.93,3.19-8,9.3-8,6.37,0,9.09,3,9.09,8h-2.52c-.1-3.7-1.95-5.55-6.52-5.55s-6.62,2.16-6.62,5.55c0,5.19,3.59,5.24,7.44,5.75,4.37.62,9,1.54,9,8.22,0,5.24-3,8.63-9.6,8.63-5.86,0-9.66-2.31-9.66-8.53h2.57C579.28,156.2,581.08,158.77,586.37,158.77Z"/><path class="cls-2" d="M600.13,150.19V142c0-8.48,3-11.2,9.5-11.2s9.5,2.52,9.5,11.35v8.06c0,8.32-3,11.25-9.5,11.25S600.13,158.93,600.13,150.19Zm16.43-.1v-8c0-6.47-1-8.93-6.93-8.93-5.55,0-6.93,2.51-6.93,8.83v8c0,6.47,1,9.09,6.93,9.09C615.18,159.08,616.56,156.41,616.56,150.09Z"/><path class="cls-2" d="M627.86,131.24l.26,2.42c1.59-2.16,4.11-3,7.39-3,4.42,0,7,1.85,8.07,4.42,2.46-3.75,5.34-4.42,8.63-4.42,7.34,0,9.19,3.9,9.19,11v19.41h-2.57V141.62c0-6.37-1.23-8.58-6.88-8.58s-7.24,3.49-7.24,7.81v20.23h-2.57V141.62c0-5.6-1.23-8.58-6.88-8.58s-7.19,2.62-7.19,6.83v21.21H625.5V131.24Z"/></svg>