<?xml version="1.0" encoding="UTF-8"?>
<svg id="Layer_1" data-name="Layer 1" xmlns="http://www.w3.org/2000/svg" viewBox="0 0 728.87 287.74">
  <defs>
    <style>
      .cls-1 {
        letter-spacing: -.04em;
      }

      .cls-2 {
        letter-spacing: 0em;
      }

      .cls-3 {
        fill: #828385;
      }

      .cls-3, .cls-4 {
        stroke-width: 0px;
      }

      .cls-5 {
        letter-spacing: -.07em;
      }

      .cls-6 {
        letter-spacing: -.03em;
      }

      .cls-7 {
        letter-spacing: -.01em;
      }

      .cls-8 {
        fill: #808285;
        font-family: MyriadConceptRoman-Regular, 'Myriad Variable Concept';
        font-size: 27.93px;
        font-variation-settings: 'wght' 400, 'wdth' 100;
      }

      .cls-9 {
        letter-spacing: 0em;
      }

      .cls-10 {
        letter-spacing: 0em;
      }

      .cls-4 {
        fill: #c6c6c5;
      }
    </style>
  </defs>
  <g>
    <path class="cls-4" d="M234.7,122.33c-5.05.37-10.1.79-15.15,1.37-5.05.53-10.08,1.33-15.1,2.16-2.51.44-5.01.92-7.52,1.4-2.49.56-4.99,1.08-7.46,1.71-2.47.65-4.96,1.22-7.41,1.96-2.46.7-4.92,1.4-7.34,2.21-9.73,3.17-19.22,7.11-28.37,11.7-9.1,4.69-17.88,10.02-26.18,15.98-8.26,6.01-16.17,12.48-23.54,19.51-7.41,6.99-14.26,14.51-20.79,22.25l-4.78,5.91c-1.57,1.99-3.08,4.02-4.59,6.04-.11.14-.2.28-.31.42.41.4.8.82,1.16,1.26l.52-.56c1.73-1.84,3.38-3.73,5.1-5.56l5.23-5.43c1.71-1.84,3.54-3.56,5.3-5.34l2.67-2.65c.89-.88,1.83-1.71,2.74-2.57,1.85-1.69,3.63-3.45,5.49-5.12l5.61-4.97c7.62-6.46,15.43-12.67,23.68-18.25,8.2-5.63,16.72-10.78,25.6-15.22,8.83-4.55,18-8.4,27.4-11.66,9.37-3.33,19.01-5.92,28.76-8.13,4.88-1.08,9.8-2.04,14.74-2.91,4.93-.92,9.9-1.66,14.88-2.4,5.59-.84,11.2-1.58,16.81-2.33-.07-.51-.11-1.03-.12-1.56-5.68.17-11.35.41-17.03.76Z"/>
    <path class="cls-4" d="M151.99,115.27c18.69,3.27,37.6,5,56.46,5.73,14.44.59,28.85.7,43.27.53-.01-.65.01-1.31.1-1.98.11-.84.31-1.65.57-2.43-.39-.14-.79-.27-1.18-.41-4.48-1.67-8.84-3.53-12.96-5.7-8.26-4.27-15.54-9.98-20.4-17.32-1.25-1.81-2.28-3.75-3.2-5.75-.49-.98-.83-2.04-1.26-3.06-.4-1.03-.65-2.12-1.02-3.17-1.23-4.29-1.82-8.82-2.01-13.44-.15-2.31-.03-4.64,0-6.99.19-2.34.25-4.72.58-7.08.13-1.09.21-2.2.37-3.3-1.03-.21-2.02-.53-2.94-.96-.42,1.14-.82,2.3-1.18,3.47-.81,2.35-1.33,4.79-1.91,7.23-.42,2.47-.89,4.96-1.03,7.5-.41,5.06-.17,10.27.97,15.38.33,1.27.61,2.55,1.03,3.8.46,1.23.83,2.5,1.37,3.71,1.06,2.42,2.29,4.78,3.77,6.98l1.13,1.63c.37.55.82,1.04,1.23,1.56l1.25,1.53,1.36,1.43c.89.97,1.88,1.83,2.86,2.71.95.9,2.02,1.65,3.05,2.45,4.18,3.11,8.79,5.46,13.51,7.26,2.7,1.02,5.45,1.85,8.22,2.53-11.74-1.1-23.48-2.05-35.18-3.12-18.69-1.74-37.29-3.83-55.69-7.06-18.4-3.18-36.59-7.51-54.58-12.71-13.76-4-27.38-8.52-41.01-13.19-.18.53-.41,1.04-.65,1.54,13.05,6.19,26.45,11.69,40.14,16.43,17.87,6.23,36.3,11.02,54.98,14.28Z"/>
    <path class="cls-4" d="M56.23,103.84c.4,1.47.82,2.92,1.18,4.4.39,1.47.72,2.95,1.04,4.44,2.55,11.88,3.88,24.01,4.36,36.17.47,12.16.09,24.37-1.04,36.55-.79,8.58-2.02,17.12-3.51,25.68.68.1,1.34.24,1.99.43,2.82-8.27,4.95-16.81,6.4-25.46,2.16-12.32,2.95-24.91,2.46-37.45-.51-12.53-2.28-25.08-5.91-37.15-1.79-6.03-4.08-11.94-6.99-17.54-.78-1.38-1.5-2.77-2.36-4.1-.17-.28-.35-.55-.52-.82-.61.49-1.25.93-1.93,1.31.72,1.61,1.39,3.23,2,4.88,1.06,2.85,2.03,5.73,2.83,8.67Z"/>
  </g>
  <path class="cls-3" d="M249.5,214.43c17.16-24.09,25.94-54.27,22.46-85.89-1.67,1.59-3.84,2.64-6.23,2.81.06.62.14,1.23.19,1.85,2.11,27.47-5.58,54.88-21.46,77.3-1.63-.82-3.4-1.39-5.27-1.64-3.99-.53-7.93.4-11.25,2.58-1.18-1.96-2.34-3.93-3.46-5.92-4.18-7.35-8.05-14.84-11.62-22.45-6.92-15.31-12.52-31.18-15.86-47.52l-1.14-6.14-.91-6.18-.7-6.2-.45-6.22c-.45-8.3-.16-16.64.87-24.89l.41-3.09.56-3.07c.32-2.06.87-4.06,1.29-6.1.2-1.03.52-2.01.78-3.02.29-1,.53-2.02.85-3.01.68-1.97,1.26-3.98,2.06-5.9,1.21-3.42,2.8-6.69,4.49-9.91,2,1.28,4.27,2.13,6.7,2.45.74.1,1.48.15,2.21.15,3.47,0,6.81-1.11,9.65-3.17,19.04,15.87,32.35,36.84,38.59,60.42.89-.26,1.81-.43,2.76-.43.44,0,.89.03,1.34.09.94.13,1.83.42,2.68.79-6.3-25.61-20.47-48.41-40.96-65.59,1.19-1.94,1.99-4.13,2.3-6.45.58-4.37-.58-8.71-3.26-12.21-2.69-3.5-6.58-5.75-10.95-6.33-4.38-.58-8.72.58-12.23,3.26-1.49,1.14-2.73,2.5-3.74,4.02-20.51-9.53-43.29-13.36-66.35-10.81-33.87,3.74-63.06,20.77-83.07,45.26-1.15-.43-2.36-.75-3.62-.92-9.03-1.2-17.37,5.17-18.57,14.19-.58,4.37.58,8.71,3.26,12.21.55.72,1.17,1.38,1.82,1.99-8.99,19.76-12.97,42.08-10.41,65.17,2.33,20.97,9.78,40.55,21.51,57.41-2.63,2.51-4.47,5.88-4.99,9.75-.58,4.37.58,8.71,3.26,12.21,2.68,3.5,6.57,5.75,10.95,6.33.74.1,1.47.14,2.19.14,4.08,0,7.91-1.51,10.84-4.07.79.67,1.57,1.34,2.38,1.99,4.62,3.69,9.44,7.01,14.44,9.98v.28c1.14.67,2.29,1.33,3.45,1.96,18.34,10.03,39.16,15.33,60.21,15.33,18.26,0,35.78-3.85,52.17-11.36v-.12c9.97-4.57,19.18-10.41,27.49-17.26,2.18,1.63,4.8,2.75,7.69,3.13.74.1,1.47.14,2.19.14,8.16,0,15.28-6.05,16.38-14.34.58-4.37-.58-8.71-3.26-12.21-.2-.27-.43-.51-.65-.76ZM203.98,36.57c.35-2.67,1.73-5.03,3.87-6.67,1.78-1.36,3.91-2.07,6.11-2.07.45,0,.9.03,1.35.09,2.67.35,5.04,1.73,6.68,3.86,1.64,2.14,2.34,4.78,1.99,7.45-.35,2.67-1.73,5.03-3.87,6.67-2.14,1.63-4.79,2.34-7.46,1.98-2.67-.35-5.04-1.73-6.68-3.86-1.64-2.14-2.34-4.78-1.99-7.45ZM134.54,24.39c4.45-.49,8.88-.73,13.29-.73,17.39,0,34.35,3.84,49.93,11.13-.06.31-.13.62-.17.94-.49,3.66.26,7.28,2.08,10.42-8.17,4.4-16.52,8.37-25.06,11.86-13.6,5.56-27.63,9.95-41.9,13.31-14.28,3.33-28.8,5.65-43.46,6.85-9.21.76-18.46,1.06-27.75,1,.14-4.83-1.87-9.33-5.22-12.49,18.96-22.88,46.44-38.77,78.27-42.29ZM34.97,77.36c.67-5.06,5.01-8.74,9.99-8.74.44,0,.89.03,1.34.09,5.51.73,9.4,5.8,8.67,11.31-.35,2.67-1.73,5.03-3.87,6.67s-4.79,2.34-7.46,1.98c-2.67-.35-5.04-1.73-6.68-3.86-1.64-2.13-2.34-4.78-1.99-7.45ZM66.16,226.56c-.73,5.5-5.81,9.39-11.33,8.65-2.67-.35-5.04-1.73-6.68-3.86-1.64-2.13-2.34-4.78-1.99-7.45.35-2.67,1.73-5.03,3.87-6.67,1.78-1.36,3.91-2.07,6.11-2.07.45,0,.9.03,1.35.09,2.67.35,5.04,1.73,6.68,3.86,1.64,2.14,2.34,4.78,1.99,7.45ZM199.67,248.66v-.16c-16.31,7.98-33.84,12.05-52.17,12.05s-36.88-4.35-53.33-12.6c-.45-.23-.89-.45-1.33-.69-.59-.3-1.18-.61-1.76-.93-.43-.23-.86-.48-1.28-.72-1.73-.96-3.43-1.97-5.11-3.02-3.87-2.43-7.63-5.08-11.25-7.97-.84-.67-1.66-1.37-2.48-2.06.79-1.58,1.35-3.31,1.6-5.17.58-4.37-.58-8.71-3.26-12.21-2.68-3.5-6.57-5.75-10.95-6.33-2.85-.38-5.63,0-8.14.97-11.21-16.03-18.32-34.68-20.54-54.65-2.39-21.6,1.24-42.49,9.52-61.04,1.16.43,2.36.75,3.61.91.74.1,1.47.14,2.19.14,3.53,0,6.86-1.13,9.6-3.09,8.92,12.19,18.27,24.07,28.37,35.39,6.8,7.8,14.16,15.1,21.64,22.29.47.45.92.91,1.4,1.35l1.46,1.29,2.92,2.57,5.84,5.15c4.01,3.29,8.03,6.57,12.09,9.81,4.2,3.05,8.36,6.15,12.59,9.15,4.32,2.86,8.6,5.8,12.96,8.6l13.35,7.96c4.51,2.54,9.1,4.94,13.67,7.37,13.08,6.72,26.53,12.66,40.2,17.97-.18.67-.33,1.36-.42,2.06-.51,3.87.37,7.6,2.25,10.7-7.15,5.88-14.93,10.87-23.21,14.91ZM221.68,219.1c-12.99-6.56-25.85-13.27-38.42-20.47l-6.59-3.93c-2.19-1.32-4.43-2.56-6.61-3.89l-12.92-8.23-12.64-8.63c-4.13-2.99-8.19-6.08-12.28-9.11l-11.96-9.52c-3.84-3.35-7.74-6.63-11.54-10.03l-5.64-5.17-2.82-2.58c-.93-.87-1.83-1.78-2.74-2.67-3.62-3.6-7.35-7.1-10.88-10.8-10.48-10.71-20.54-21.9-30.62-33.11,2.73-2.45,4.66-5.8,5.27-9.67,9.34,1.07,18.78,1.47,28.2,1.22,14.96-.41,29.91-2.33,44.5-5.77,14.6-3.42,28.85-8.35,42.38-14.77,8.51-4.04,16.73-8.73,24.48-14.05,0,0,0,0,0,0,.78,1.01,1.67,1.91,2.63,2.7-.31.46-.62.93-.93,1.39-.6.9-1.2,1.8-1.72,2.74l-1.63,2.81c-.51.95-.98,1.92-1.48,2.89-3.85,7.77-6.42,16.14-8.02,24.67-3.25,17.09-2.44,34.77.99,51.7,3.49,16.97,9.66,33.26,17.68,48.46,4.03,7.59,8.59,14.88,13.45,21.92,1.37,1.93,2.77,3.83,4.2,5.71-1.93,1.71-3.4,3.82-4.34,6.18ZM247.02,226.56c-.73,5.5-5.81,9.39-11.33,8.65-5.51-.73-9.4-5.8-8.67-11.31.35-2.67,1.73-5.03,3.87-6.67,1.78-1.36,3.91-2.07,6.11-2.07.45,0,.9.03,1.35.09,2.67.35,5.04,1.72,6.68,3.86,1.64,2.14,2.34,4.78,1.99,7.45Z"/>
  <path class="cls-4" d="M267.2,104.94c-9.04-1.2-17.37,5.17-18.57,14.19-1.2,9.03,5.18,17.34,14.22,18.54.74.1,1.47.14,2.19.14,8.16,0,15.28-6.05,16.38-14.34,1.2-9.03-5.18-17.34-14.22-18.54ZM275.02,122.63c-.73,5.5-5.81,9.39-11.33,8.65-5.51-.73-9.4-5.8-8.67-11.31.35-2.67,1.73-5.03,3.87-6.67,1.78-1.36,3.91-2.07,6.11-2.07.45,0,.9.03,1.35.09,2.67.35,5.04,1.73,6.68,3.86,1.64,2.14,2.34,4.78,1.99,7.45Z"/>
  <g>
    <path class="cls-3" d="M376.36,124.64c11.26,0,16.88-5.49,16.88-14.86,0-13.24-10.51-13.49-20.76-14.86-9.76-1.25-19.38-3.62-19.38-19.1,0-11.99,7.75-19.48,22.64-19.48s22.14,7.37,22.14,19.35h-6.13c-.25-8.99-4.75-13.49-15.88-13.49s-16.13,5.24-16.13,13.49c0,12.61,8.76,12.74,18.13,13.99,10.63,1.5,21.88,3.74,21.88,19.98,0,12.74-7.38,20.98-23.39,20.98-14.26,0-23.51-5.62-23.51-20.73h6.25c0,8.49,4.38,14.73,17.26,14.73Z"/>
    <path class="cls-3" d="M431.88,124.64c11.26,0,16.88-5.49,16.88-14.86,0-13.24-10.51-13.49-20.76-14.86-9.76-1.25-19.39-3.62-19.39-19.1,0-11.99,7.75-19.48,22.64-19.48s22.14,7.37,22.14,19.35h-6.13c-.25-8.99-4.75-13.49-15.88-13.49s-16.13,5.24-16.13,13.49c0,12.61,8.76,12.74,18.13,13.99,10.63,1.5,21.88,3.74,21.88,19.98,0,12.74-7.38,20.98-23.39,20.98-14.26,0-23.51-5.62-23.51-20.73h6.25c0,8.49,4.38,14.73,17.26,14.73Z"/>
    <path class="cls-3" d="M487.41,124.64c11.26,0,16.88-5.49,16.88-14.86,0-13.24-10.51-13.49-20.76-14.86-9.76-1.25-19.39-3.62-19.39-19.1,0-11.99,7.75-19.48,22.64-19.48s22.14,7.37,22.14,19.35h-6.13c-.25-8.99-4.75-13.49-15.88-13.49s-16.13,5.24-16.13,13.49c0,12.61,8.76,12.74,18.13,13.99,10.63,1.5,21.88,3.74,21.88,19.98,0,12.74-7.38,20.98-23.39,20.98-14.26,0-23.51-5.62-23.51-20.73h6.25c0,8.49,4.38,14.73,17.26,14.73Z"/>
    <path class="cls-3" d="M520.92,103.79v-19.98c0-20.6,7.38-27.22,23.14-27.22s23.14,6.12,23.14,27.59v19.6c0,20.23-7.38,27.35-23.14,27.35s-23.14-6.12-23.14-27.35ZM560.94,103.54v-19.36c0-15.73-2.5-21.73-16.88-21.73-13.51,0-16.88,6.12-16.88,21.48v19.36c0,15.73,2.5,22.1,16.88,22.1,13.51,0,16.88-6.49,16.88-21.85Z"/>
    <path class="cls-3" d="M588.45,57.71l.63,5.87c3.88-5.24,10-7.24,18.01-7.24,10.76,0,17.01,4.49,19.64,10.74,6-9.12,13.01-10.74,21.01-10.74,17.88,0,22.39,9.49,22.39,26.72v47.2h-6.25v-47.33c0-15.48-3-20.85-16.76-20.85s-17.63,8.49-17.63,18.98v49.2h-6.25v-47.33c0-13.61-3-20.85-16.76-20.85s-17.51,6.37-17.51,16.61v51.57h-6.25V57.71h5.75Z"/>
  </g>
  <text class="cls-8" transform="translate(320.42 191.67)"><tspan x="0" y="0">SIMPLE S</tspan><tspan class="cls-5" x="104.37" y="0">T</tspan><tspan x="116.16" y="0">AN</tspan><tspan class="cls-7" x="151.63" y="0">D</tspan><tspan x="169.84" y="0">ARD FOR SHARING</tspan><tspan x="41.53" y="33.52">ON</tspan><tspan class="cls-6" x="79.15" y="33.52">T</tspan><tspan x="92.28" y="33.52">O</tspan><tspan class="cls-1" x="111.52" y="33.52">L</tspan><tspan x="123.61" y="33.52">OGI</tspan><tspan class="cls-2" x="167.58" y="33.52">C</tspan><tspan x="183.89" y="33.52">AL </tspan><tspan class="cls-10" x="220.08" y="33.52">M</tspan><tspan class="cls-9" x="242.26" y="33.52">APPINGS</tspan></text>
</svg>