<svg id="Layer_1" data-name="Layer 1" xmlns="http://www.w3.org/2000/svg" viewBox="0 0 373.67 155"><defs><style>.cls-1{fill:#828385;}.cls-2{fill:#c6c6c5;}</style></defs><path class="cls-1" d="M171.27,105.1v-.58a5.93,5.93,0,0,0,2.59.56c1.62,0,2.32-.65,2.32-1.71s-.65-1.41-1.84-1.76l-.75-.24c-1.45-.44-2.17-1-2.17-2.28s.94-2.11,2.8-2.11a5.08,5.08,0,0,1,2.25.47v.6a5.22,5.22,0,0,0-2.28-.47c-1.34,0-2,.59-2,1.45s.42,1.35,1.71,1.73l.74.22c1.41.43,2.3.93,2.3,2.34s-.9,2.37-3,2.37A5.84,5.84,0,0,1,171.27,105.1Z"/><path class="cls-1" d="M178.53,97.11h.76v8.44h-.76Z"/><path class="cls-1" d="M181.37,97.11h1.11l3,7.51h0l3.05-7.51h1.13v8.44H189V98h0l-3.1,7.56h-.71L182.08,98h0v7.56h-.68Z"/><path class="cls-1" d="M191.8,97.11h2.56c2.2,0,3.1.89,3.1,2.43s-1.09,2.46-2.93,2.46h-2v3.55h-.74Zm2.58,4.31c1.59,0,2.28-.63,2.28-1.83s-.58-1.9-2.37-1.9h-1.75v3.73Z"/><path class="cls-1" d="M198.82,97.11h.75V105h4.48v.58h-5.23Z"/><path class="cls-1" d="M205.42,97.11h5.44v.58h-4.69v3.23h3.61v.58h-3.61V105h4.7v.58h-5.45Z"/><path class="cls-1" d="M215.2,105.1v-.58a6,6,0,0,0,2.59.56c1.62,0,2.32-.65,2.32-1.71s-.65-1.41-1.84-1.76l-.74-.24c-1.46-.44-2.18-1-2.18-2.28s.94-2.11,2.8-2.11a5.08,5.08,0,0,1,2.25.47v.6a5.22,5.22,0,0,0-2.28-.47c-1.34,0-2,.59-2,1.45s.42,1.35,1.71,1.73l.74.22c1.42.43,2.3.93,2.3,2.34s-.9,2.37-3,2.37A5.84,5.84,0,0,1,215.2,105.1Z"/><path class="cls-1" d="M224.64,97.69h-3v-.58h6.8v.58h-3v7.86h-.76Z"/><path class="cls-1" d="M231.36,97.11h.74l3.44,8.44h-.79l-1.09-2.68h-4l-1.08,2.68h-.72Zm-1.44,5.17h3.5L231.68,98Z"/><path class="cls-1" d="M236.7,97.11h.89l5,7.29h0V97.11h.7v8.44h-.78L237.41,98h0v7.51h-.68Z"/><path class="cls-1" d="M245.39,97.11H248c2.89,0,4.41,1.3,4.41,4.06v.19c0,2.74-1.38,4.19-4.4,4.19h-2.59ZM248,105c2.47,0,3.59-1.07,3.59-3.51v-.28c0-2.51-1.26-3.47-3.68-3.47h-1.76V105Z"/><path class="cls-1" d="M256.47,97.11h.74l3.44,8.44h-.78l-1.1-2.68h-4l-1.08,2.68H253ZM255,102.28h3.5L256.79,98Z"/><path class="cls-1" d="M261.8,97.11h2.59c2.05,0,3,.91,3,2.3a2.13,2.13,0,0,1-2,2.23v0l2.6,3.87h-.85l-2.5-3.75h-2.07v3.75h-.75Zm2.56,4.12c1.66,0,2.2-.72,2.2-1.82s-.61-1.72-2.21-1.72h-1.8v3.54Z"/><path class="cls-1" d="M269.25,97.11h2.57c2.89,0,4.41,1.3,4.41,4.06v.19c0,2.74-1.38,4.19-4.4,4.19h-2.58Zm2.6,7.85c2.46,0,3.58-1.07,3.58-3.51v-.28c0-2.51-1.26-3.47-3.68-3.47H270V105Z"/><path class="cls-1" d="M281.1,97.11h5.3v.58h-4.55V101h3.53v.61h-3.53v4h-.75Z"/><path class="cls-1" d="M287.32,101.42v-.19c0-2.7,1.53-4.25,4-4.25s4,1.5,4,4.25v.19c0,2.68-1.53,4.25-4,4.25S287.32,104.18,287.32,101.42Zm7.19.1v-.29c0-2.28-1.05-3.65-3.21-3.67s-3.18,1.36-3.18,3.55v.3c0,2.29,1.05,3.69,3.21,3.69S294.51,103.72,294.51,101.52Z"/><path class="cls-1" d="M296.83,97.11h2.59c2.05,0,3,.91,3,2.3a2.13,2.13,0,0,1-2,2.23v0l2.6,3.87h-.86l-2.49-3.75h-2.08v3.75h-.75Zm2.57,4.12c1.66,0,2.2-.72,2.2-1.82s-.61-1.72-2.22-1.72h-1.8v3.54Z"/><path class="cls-1" d="M307,105.1v-.58a6,6,0,0,0,2.59.56c1.62,0,2.32-.65,2.32-1.71s-.65-1.41-1.84-1.76l-.74-.24c-1.46-.44-2.18-1-2.18-2.28s.94-2.11,2.8-2.11a5.08,5.08,0,0,1,2.25.47v.6a5.22,5.22,0,0,0-2.28-.47c-1.34,0-2,.59-2,1.45s.42,1.35,1.71,1.73l.74.22c1.42.43,2.3.93,2.3,2.34s-.9,2.37-3,2.37A5.84,5.84,0,0,1,307,105.1Z"/><path class="cls-1" d="M314.23,97.11H315v3.76h5.16V97.11h.75v8.44h-.75v-4.1H315v4.1h-.73Z"/><path class="cls-1" d="M325.49,97.11h.73l3.45,8.44h-.79l-1.09-2.68h-4l-1.08,2.68H322Zm-1.44,5.17h3.5L325.81,98Z"/><path class="cls-1" d="M330.82,97.11h2.59c2,0,3,.91,3,2.3a2.14,2.14,0,0,1-2,2.23v0l2.6,3.87h-.86l-2.49-3.75h-2.08v3.75h-.74Zm2.56,4.12c1.66,0,2.2-.72,2.2-1.82s-.61-1.72-2.22-1.72h-1.8v3.54Z"/><path class="cls-1" d="M338.3,97.11h.76v8.44h-.76Z"/><path class="cls-1" d="M341.14,97.11H342l5.05,7.29h0V97.11h.69v8.44H347L341.84,98h0v7.51h-.68Z"/><path class="cls-1" d="M349.3,101.46v-.19c0-3,1.83-4.29,4.26-4.29a5.31,5.31,0,0,1,2.37.47v.6a5.66,5.66,0,0,0-2.41-.47c-2.38,0-3.42,1.51-3.42,3.61v.26c0,2.21.88,3.63,3.45,3.63a6.89,6.89,0,0,0,2-.27V102.2h-2.11v-.58h2.87v3.61a8.82,8.82,0,0,1-2.74.44C350.85,105.67,349.3,104.28,349.3,101.46Z"/><path class="cls-1" d="M200.91,114.42v-.19c0-2.7,1.54-4.25,4-4.25s4,1.5,4,4.25v.19c0,2.68-1.53,4.25-4,4.25S200.91,117.18,200.91,114.42Zm7.2.1v-.29c0-2.28-1.05-3.65-3.21-3.67s-3.18,1.36-3.18,3.55v.3c0,2.29,1.05,3.69,3.21,3.69S208.11,116.72,208.11,114.52Z"/><path class="cls-1" d="M210.45,110.11h.88l5,7.29h0v-7.29h.69v8.44h-.77L211.15,111h0v7.51h-.68Z"/><path class="cls-1" d="M221.35,110.69h-3v-.58h6.8v.58h-3v7.86h-.76Z"/><path class="cls-1" d="M225.83,114.42v-.19c0-2.7,1.54-4.25,4-4.25s4,1.5,4,4.25v.19c0,2.68-1.53,4.25-4,4.25S225.83,117.18,225.83,114.42Zm7.2.1v-.29c0-2.28-1.05-3.65-3.21-3.67s-3.18,1.36-3.18,3.55v.3c0,2.29,1.05,3.69,3.21,3.69S233,116.72,233,114.52Z"/><path class="cls-1" d="M235.35,110.11h.75V118h4.48v.58h-5.23Z"/><path class="cls-1" d="M241.43,114.42v-.19c0-2.7,1.53-4.25,4-4.25s4,1.5,4,4.25v.19c0,2.68-1.54,4.25-4,4.25S241.43,117.18,241.43,114.42Zm7.19.1v-.29c0-2.28-1.05-3.65-3.21-3.67s-3.18,1.36-3.18,3.55v.3c0,2.29,1.05,3.69,3.21,3.69S248.62,116.72,248.62,114.52Z"/><path class="cls-1" d="M250.42,114.46v-.19c0-3,1.83-4.29,4.26-4.29a5.31,5.31,0,0,1,2.37.47v.6a5.66,5.66,0,0,0-2.41-.47c-2.38,0-3.42,1.51-3.42,3.61v.26c0,2.21.88,3.63,3.45,3.63a6.89,6.89,0,0,0,2-.27V115.2h-2.11v-.58h2.87v3.61a8.82,8.82,0,0,1-2.74.44C252,118.67,250.42,117.28,250.42,114.46Z"/><path class="cls-1" d="M261.42,115.1l-3.11-5h.79l2.72,4.35h0l2.69-4.35h.74l-3.11,5v3.45h-.75Z"/><path class="cls-1" d="M269.76,110.11h1.11l3.05,7.51h0l3-7.51h1.14v8.44h-.76V111h0l-3.1,7.56h-.7L270.47,111h0v7.56h-.68Z"/><path class="cls-1" d="M282.76,110.11h.73l3.45,8.44h-.79l-1.1-2.68h-4L280,118.55h-.72Zm-1.44,5.17h3.5L283.08,111Z"/><path class="cls-1" d="M288.1,110.11h2.56c2.2,0,3.1.89,3.1,2.43s-1.1,2.46-2.94,2.46h-2v3.55h-.73Zm2.57,4.31c1.59,0,2.29-.63,2.29-1.83s-.59-1.9-2.37-1.9h-1.76v3.73Z"/><path class="cls-1" d="M295.13,110.11h2.56c2.2,0,3.1.89,3.1,2.43s-1.1,2.46-2.94,2.46h-2v3.55h-.73Zm2.57,4.31c1.59,0,2.28-.63,2.28-1.83s-.58-1.9-2.36-1.9h-1.76v3.73Z"/><path class="cls-1" d="M302.18,110.11h.76v8.44h-.76Z"/><path class="cls-1" d="M305,110.11h.89l5,7.29h0v-7.29h.69v8.44h-.77L305.73,111h0v7.51H305Z"/><path class="cls-1" d="M313.18,114.46v-.19c0-3,1.83-4.29,4.27-4.29a5.26,5.26,0,0,1,2.36.47v.6a5.66,5.66,0,0,0-2.41-.47c-2.38,0-3.41,1.51-3.41,3.61v.26c0,2.21.87,3.63,3.44,3.63a6.83,6.83,0,0,0,2-.27V115.2h-2.11v-.58h2.87v3.61a8.82,8.82,0,0,1-2.74.44C314.73,118.67,313.18,117.28,313.18,114.46Z"/><path class="cls-1" d="M321.35,118.1v-.58a5.89,5.89,0,0,0,2.58.56c1.62,0,2.33-.65,2.33-1.71s-.65-1.41-1.84-1.76l-.75-.24c-1.45-.44-2.17-1-2.17-2.28s.94-2.11,2.79-2.11a5.13,5.13,0,0,1,2.26.47v.6a5.26,5.26,0,0,0-2.28-.47c-1.35,0-2,.59-2,1.45s.41,1.35,1.7,1.73l.75.22c1.41.43,2.3.93,2.3,2.34s-.9,2.37-3,2.37A5.81,5.81,0,0,1,321.35,118.1Z"/><path class="cls-2" d="M122.92,70.08c-2.53.19-5.06.4-7.58.69s-5,.67-7.56,1.08c-1.26.22-2.51.47-3.76.7s-2.5.55-3.74.86-2.48.61-3.7,1-2.46.7-3.68,1.1a101.54,101.54,0,0,0-14.2,5.87,105,105,0,0,0-13.1,8,114,114,0,0,0-11.78,9.78,133.62,133.62,0,0,0-10.41,11.15l-2.39,3c-.78,1-1.54,2-2.3,3l-.15.21a7.12,7.12,0,0,1,.58.64l.25-.28c.87-.92,1.7-1.87,2.56-2.79l2.62-2.72c.85-.92,1.77-1.78,2.65-2.67l1.34-1.33c.44-.44.91-.86,1.37-1.29.92-.85,1.81-1.73,2.75-2.57l2.8-2.49a140.64,140.64,0,0,1,11.85-9.15,109.09,109.09,0,0,1,12.82-7.63,104.72,104.72,0,0,1,13.71-5.84,126.54,126.54,0,0,1,14.4-4.08c2.44-.54,4.9-1,7.37-1.46s5-.83,7.45-1.2c2.79-.42,5.6-.79,8.41-1.17,0-.25-.05-.52-.06-.78C128.6,69.79,125.76,69.91,122.92,70.08Z"/><path class="cls-2" d="M81.53,66.54a211.6,211.6,0,0,0,28.26,2.88c7.22.29,14.44.35,21.65.26a8.21,8.21,0,0,1,.05-1,7,7,0,0,1,.29-1.22l-.59-.2a55,55,0,0,1-6.49-2.86,26.75,26.75,0,0,1-10.21-8.68,19.85,19.85,0,0,1-1.6-2.89c-.25-.49-.42-1-.64-1.53s-.32-1.07-.51-1.59a28.87,28.87,0,0,1-1-6.74c-.08-1.16,0-2.33,0-3.51s.13-2.36.29-3.55c.06-.54.1-1.1.18-1.65a6.17,6.17,0,0,1-1.47-.48c-.21.58-.41,1.15-.59,1.74-.4,1.18-.66,2.4-1,3.63a33.48,33.48,0,0,0-.52,3.75,25.74,25.74,0,0,0,.48,7.71c.17.64.31,1.28.52,1.9s.42,1.26.69,1.87a22.14,22.14,0,0,0,1.88,3.49l.57.82c.18.28.41.52.61.78l.63.77.68.72c.45.49.94.92,1.43,1.36s1,.82,1.53,1.23a28.35,28.35,0,0,0,6.76,3.64,38.17,38.17,0,0,0,4.11,1.27c-5.87-.55-11.75-1-17.61-1.57C100.6,66,91.29,65,82.08,63.36A252,252,0,0,1,54.77,57c-6.89-2-13.71-4.27-20.53-6.61a6.56,6.56,0,0,1-.32.77A197.39,197.39,0,0,0,54,59.39,174.69,174.69,0,0,0,81.53,66.54Z"/><path class="cls-2" d="M33.6,60.81c.2.73.41,1.47.59,2.21s.36,1.47.52,2.22a105.14,105.14,0,0,1,2.18,18.13,138.43,138.43,0,0,1-.52,18.32c-.39,4.3-1,8.58-1.75,12.88a5.44,5.44,0,0,1,1,.21A82.18,82.18,0,0,0,38.82,102a89.35,89.35,0,0,0,1.23-18.77,75.45,75.45,0,0,0-3-18.63,50,50,0,0,0-3.5-8.79c-.39-.69-.75-1.38-1.18-2-.08-.14-.18-.27-.26-.41a7.13,7.13,0,0,1-1,.65c.36.81.7,1.62,1,2.45C32.71,57.9,33.2,59.34,33.6,60.81Z"/><path class="cls-1" d="M130.33,116.25a62.34,62.34,0,0,0,11.24-43.06,5,5,0,0,1-3.12,1.41c0,.31.08.62.1.93a59.35,59.35,0,0,1-10.74,38.75,8,8,0,0,0-2.64-.82,8.16,8.16,0,0,0-5.63,1.29c-.59-1-1.17-2-1.73-3-2.1-3.68-4-7.43-5.82-11.25a113.14,113.14,0,0,1-7.93-23.82l-.58-3.08-.45-3.1-.35-3.11-.23-3.12a70.21,70.21,0,0,1,.44-12.47l.2-1.55.28-1.54c.16-1,.43-2,.64-3.06.1-.51.26-1,.39-1.51s.27-1,.43-1.51c.34-1,.63-2,1-3a38.22,38.22,0,0,1,2.25-5,8.23,8.23,0,0,0,9.29-.28,58.84,58.84,0,0,1,19.31,30.28,5.36,5.36,0,0,1,1.38-.21,5,5,0,0,1,.67,0,5,5,0,0,1,1.34.4,62.05,62.05,0,0,0-20.5-32.88,8.27,8.27,0,0,0-12.08-10.9,8.14,8.14,0,0,0-1.87,2A62.49,62.49,0,0,0,30.87,40.46,9,9,0,0,0,29.05,40a8.28,8.28,0,0,0-7.66,13.24,9.65,9.65,0,0,0,.91,1,62.49,62.49,0,0,0,5.56,61.44,8.26,8.26,0,0,0,4.62,14.18,8,8,0,0,0,1.09.08,8.28,8.28,0,0,0,5.43-2c.39.33.79.67,1.19,1a63.9,63.9,0,0,0,7.23,5V134c.57.34,1.14.67,1.72,1a62.88,62.88,0,0,0,30.14,7.69,62.06,62.06,0,0,0,26.11-5.7V137a62.55,62.55,0,0,0,13.75-8.65,8.28,8.28,0,0,0,13.15-5.55,8.21,8.21,0,0,0-1.64-6.12C130.55,116.5,130.44,116.37,130.33,116.25ZM107.55,27.09a5,5,0,0,1,1.93-3.34,5,5,0,0,1,3.06-1,5.27,5.27,0,0,1,.68,0,5,5,0,0,1,3.34,1.94,5,5,0,0,1-4.67,8.07,5,5,0,0,1-3.35-1.94A5,5,0,0,1,107.55,27.09ZM72.79,21a59.68,59.68,0,0,1,6.65-.37,58.81,58.81,0,0,1,25,5.57c0,.16-.06.32-.08.47a8.19,8.19,0,0,0,1,5.23,131.85,131.85,0,0,1-12.55,6,141.21,141.21,0,0,1-21,6.67,148.73,148.73,0,0,1-21.75,3.43c-4.6.38-9.24.53-13.88.5a8.28,8.28,0,0,0-2.62-6.26A59.13,59.13,0,0,1,72.79,21ZM23,47.54a5.06,5.06,0,0,1,5-4.38,5.12,5.12,0,0,1,.67,0A5.06,5.06,0,0,1,33,48.87a5,5,0,1,1-10-1.33Zm15.61,74.79a5.05,5.05,0,0,1-5.67,4.33,5,5,0,0,1-3.34-1.93,5,5,0,0,1,4.67-8.07,5,5,0,0,1,3.34,1.93A5,5,0,0,1,38.57,122.33Zm66.82,11.07v-.08a58.82,58.82,0,0,1-26.11,6.05,59.52,59.52,0,0,1-26.69-6.32l-.67-.34-.88-.47-.64-.36c-.87-.48-1.72-1-2.56-1.51a61.91,61.91,0,0,1-5.63-4c-.42-.33-.83-.68-1.24-1a8,8,0,0,0,.8-2.59,8.27,8.27,0,0,0-7.11-9.29,8.11,8.11,0,0,0-4.08.48,59.31,59.31,0,0,1-5.52-58,8,8,0,0,0,1.81.46,8.28,8.28,0,0,0,5.9-1.48C37.23,61.05,41.92,67,47,72.67c3.4,3.91,7.09,7.57,10.83,11.17.23.23.46.46.7.68l.73.65,1.46,1.28L63.61,89c2,1.65,4,3.3,6,4.92S73.85,97,76,98.54s4.31,2.9,6.49,4.31l6.68,4c2.26,1.27,4.56,2.47,6.84,3.69a211.49,211.49,0,0,0,20.12,9,7.23,7.23,0,0,0-.21,1,8.2,8.2,0,0,0,1.12,5.36A58.75,58.75,0,0,1,105.39,133.4Zm11-14.81c-6.5-3.29-12.94-6.65-19.23-10.26l-3.29-2c-1.1-.66-2.22-1.28-3.31-2l-6.47-4.13L77.78,96c-2.07-1.5-4.1-3-6.15-4.57l-6-4.77c-1.92-1.68-3.87-3.33-5.77-5L57,79l-1.41-1.29c-.47-.44-.91-.9-1.37-1.34-1.81-1.81-3.68-3.56-5.45-5.42-5.24-5.37-10.28-11-15.32-16.59a8.24,8.24,0,0,0,2.64-4.85,99.2,99.2,0,0,0,14.11.61,110.74,110.74,0,0,0,22.27-2.89,105.84,105.84,0,0,0,21.21-7.41,87.37,87.37,0,0,0,12.25-7h0a8.81,8.81,0,0,0,1.31,1.35l-.46.7c-.3.45-.61.9-.87,1.37l-.81,1.41c-.26.48-.49,1-.74,1.45a47.06,47.06,0,0,0-4,12.36,67.48,67.48,0,0,0,.49,25.92,92.2,92.2,0,0,0,8.85,24.29,109.93,109.93,0,0,0,6.74,11c.68,1,1.38,1.92,2.1,2.86A8.18,8.18,0,0,0,116.4,118.59Zm12.68,3.74a5,5,0,1,1-5-5.72,5.19,5.19,0,0,1,.68,0,5,5,0,0,1,4.33,5.67Z"/><path class="cls-2" d="M139.19,61.36A8.28,8.28,0,1,0,137,77.77a8.08,8.08,0,0,0,1.09.07,8.28,8.28,0,0,0,1.09-16.48Zm3.91,8.87a5,5,0,1,1-1-3.73A5.05,5.05,0,0,1,143.1,70.23Z"/><path class="cls-1" d="M193.82,71.24c5.63,0,8.45-2.76,8.45-7.45,0-6.63-5.26-6.76-10.39-7.45-4.88-.62-9.7-1.81-9.7-9.57,0-6,3.88-9.77,11.33-9.77,7.76,0,11.08,3.69,11.08,9.7h-3.07c-.13-4.5-2.38-6.76-8-6.76s-8.07,2.63-8.07,6.76c0,6.32,4.38,6.39,9.07,7,5.32.75,11,1.88,11,10,0,6.38-3.7,10.51-11.71,10.51-7.13,0-11.77-2.81-11.77-10.39h3.13C185.18,68.11,187.37,71.24,193.82,71.24Z"/><path class="cls-1" d="M221.61,71.24c5.63,0,8.45-2.76,8.45-7.45,0-6.63-5.26-6.76-10.39-7.45-4.88-.62-9.7-1.81-9.7-9.57,0-6,3.88-9.77,11.33-9.77,7.76,0,11.08,3.69,11.08,9.7h-3.07c-.13-4.5-2.38-6.76-7.95-6.76s-8.08,2.63-8.08,6.76c0,6.32,4.39,6.39,9.08,7,5.32.75,10.95,1.88,10.95,10,0,6.38-3.69,10.51-11.7,10.51-7.14,0-11.77-2.81-11.77-10.39H213C213,68.11,215.16,71.24,221.61,71.24Z"/><path class="cls-1" d="M249.4,71.24c5.63,0,8.45-2.76,8.45-7.45,0-6.63-5.26-6.76-10.39-7.45-4.88-.62-9.7-1.81-9.7-9.57,0-6,3.88-9.77,11.32-9.77,7.77,0,11.08,3.69,11.08,9.7H257.1c-.13-4.5-2.38-6.76-8-6.76s-8.08,2.63-8.08,6.76c0,6.32,4.38,6.39,9.08,7,5.32.75,11,1.88,11,10,0,6.38-3.69,10.51-11.7,10.51-7.14,0-11.77-2.81-11.77-10.39h3.13C240.76,68.11,243,71.24,249.4,71.24Z"/><path class="cls-1" d="M266.17,60.79v-10c0-10.33,3.69-13.64,11.58-13.64S289.33,40.19,289.33,51v9.83c0,10.14-3.69,13.7-11.58,13.7S266.17,71.43,266.17,60.79Zm20-.13V51c0-7.89-1.25-10.89-8.45-10.89-6.76,0-8.45,3.07-8.45,10.76v9.71c0,7.88,1.25,11.07,8.45,11.07C284.51,71.61,286.2,68.36,286.2,60.66Z"/><path class="cls-1" d="M300,37.69l.31,2.94c1.94-2.63,5-3.63,9-3.63,5.39,0,8.52,2.25,9.83,5.38,3-4.56,6.51-5.38,10.52-5.38,8.95,0,11.2,4.76,11.2,13.4V74.06h-3.13V50.33c0-7.76-1.5-10.45-8.39-10.45s-8.82,4.26-8.82,9.51V74.06h-3.13V50.33c0-6.82-1.5-10.45-8.39-10.45s-8.76,3.19-8.76,8.32V74.06h-3.13V37.69Z"/></svg>