<?xml version="1.0" encoding="UTF-8"?>
<svg id="Layer_1" data-name="Layer 1" xmlns="http://www.w3.org/2000/svg" viewBox="0 0 349.46 456.75">
  <defs>
    <style>
      .cls-1 {
        letter-spacing: -.04em;
      }

      .cls-2 {
        letter-spacing: 0em;
      }

      .cls-3 {
        letter-spacing: -.08em;
      }

      .cls-4 {
        letter-spacing: -.03em;
      }

      .cls-5 {
        letter-spacing: -.01em;
      }

      .cls-6 {
        font-family: MyriadConceptRoman-Regular, 'Myriad Variable Concept';
        font-size: 24.51px;
        font-variation-settings: 'wght' 400, 'wdth' 100;
      }

      .cls-6, .cls-7 {
        fill: #fff;
      }

      .cls-8 {
        letter-spacing: 0em;
      }

      .cls-7, .cls-9 {
        stroke-width: 0px;
      }

      .cls-9 {
        fill: #c6c6c5;
      }
    </style>
  </defs>
  <g>
    <path class="cls-9" d="M265.78,117.86c-5.04.38-10.09.81-15.12,1.4-5.04.55-10.06,1.36-15.07,2.21-2.5.45-5,.95-7.5,1.43-2.48.58-4.98,1.11-7.45,1.75-2.47.66-4.95,1.25-7.39,2.01-2.45.72-4.91,1.43-7.33,2.26-9.71,3.25-19.18,7.27-28.32,11.98-9.09,4.8-17.84,10.26-26.13,16.36-8.25,6.15-16.14,12.78-23.5,19.97-7.39,7.15-14.23,14.85-20.75,22.78l-4.77,6.05c-1.56,2.04-3.08,4.11-4.58,6.19-.11.14-.2.29-.31.43.41.41.8.84,1.16,1.29l.51-.57c1.72-1.88,3.37-3.82,5.09-5.69l5.22-5.55c1.71-1.88,3.53-3.65,5.29-5.47l2.66-2.71c.89-.9,1.82-1.76,2.73-2.64,1.85-1.73,3.62-3.53,5.48-5.24l5.6-5.09c7.61-6.61,15.4-12.97,23.63-18.68,8.18-5.76,16.69-11.04,25.56-15.59,8.81-4.66,17.97-8.6,27.35-11.94,9.36-3.41,18.98-6.06,28.71-8.32,4.87-1.1,9.78-2.09,14.71-2.98,4.92-.94,9.88-1.7,14.85-2.46,5.58-.86,11.18-1.62,16.78-2.39-.07-.53-.11-1.06-.12-1.6-5.66.18-11.33.42-17,.78Z"/>
    <path class="cls-9" d="M183.23,110.63c18.65,3.35,37.53,5.12,56.36,5.87,14.41.61,28.8.72,43.19.54-.01-.67.01-1.34.1-2.03.11-.86.31-1.69.57-2.49-.39-.14-.79-.27-1.17-.42-4.48-1.71-8.82-3.61-12.94-5.84-8.25-4.38-15.51-10.22-20.36-17.73-1.24-1.85-2.28-3.84-3.2-5.89-.49-1.01-.83-2.09-1.26-3.13-.4-1.06-.65-2.17-1.02-3.25-1.23-4.39-1.81-9.03-2.01-13.76-.15-2.36-.03-4.75,0-7.16.19-2.4.25-4.83.58-7.25.13-1.12.21-2.25.37-3.37-1.03-.22-2.02-.54-2.94-.98-.42,1.17-.82,2.35-1.17,3.55-.81,2.41-1.33,4.91-1.91,7.41-.42,2.53-.89,5.07-1.03,7.67-.41,5.18-.17,10.51.97,15.74.33,1.3.61,2.61,1.03,3.89.46,1.26.83,2.56,1.36,3.8,1.06,2.48,2.29,4.89,3.76,7.15l1.13,1.67c.37.56.82,1.06,1.22,1.59l1.25,1.57,1.36,1.47c.89,1,1.88,1.88,2.85,2.77.95.93,2.02,1.69,3.04,2.51,4.17,3.18,8.77,5.59,13.49,7.44,2.7,1.05,5.44,1.89,8.21,2.59-11.72-1.12-23.44-2.1-35.12-3.2-18.66-1.79-37.22-3.92-55.58-7.23-18.37-3.26-36.52-7.69-54.47-13.01-13.73-4.09-27.33-8.72-40.93-13.51-.18.55-.41,1.07-.65,1.58,13.03,6.34,26.4,11.97,40.07,16.82,17.84,6.38,36.23,11.28,54.88,14.62Z"/>
    <path class="cls-9" d="M87.65,98.92c.4,1.5.82,2.99,1.18,4.51.39,1.5.72,3.02,1.04,4.54,2.54,12.17,3.88,24.58,4.35,37.03.47,12.45.09,24.95-1.04,37.42-.79,8.78-2.02,17.53-3.5,26.29.68.1,1.34.24,1.98.44,2.82-8.47,4.94-17.21,6.39-26.07,2.15-12.62,2.94-25.5,2.46-38.34-.51-12.83-2.27-25.68-5.9-38.03-1.79-6.18-4.07-12.22-6.98-17.95-.77-1.41-1.5-2.84-2.36-4.2-.16-.29-.35-.56-.52-.84-.6.5-1.25.95-1.93,1.34.71,1.65,1.39,3.31,2,4.99,1.05,2.92,2.03,5.87,2.83,8.87Z"/>
  </g>
  <path class="cls-7" d="M280.56,212.15c17.13-24.66,25.89-55.56,22.42-87.94-1.67,1.63-3.84,2.71-6.22,2.88.06.63.14,1.26.19,1.89,2.11,28.12-5.57,56.18-21.42,79.14-1.63-.84-3.4-1.42-5.26-1.68-3.98-.54-7.92.4-11.23,2.64-1.18-2.01-2.33-4.02-3.45-6.06-4.18-7.52-8.04-15.19-11.6-22.98-6.91-15.67-12.49-31.92-15.83-48.65l-1.14-6.29-.91-6.32-.7-6.35-.45-6.37c-.44-8.5-.16-17.03.87-25.48l.41-3.17.55-3.14c.32-2.11.86-4.16,1.29-6.25.2-1.05.52-2.06.78-3.09.28-1.02.53-2.07.85-3.08.68-2.01,1.26-4.07,2.06-6.04,1.21-3.5,2.79-6.85,4.48-10.15,2,1.31,4.26,2.18,6.68,2.51.74.1,1.48.15,2.21.15,3.46,0,6.8-1.14,9.63-3.24,19,16.24,32.29,37.72,38.52,61.86.89-.26,1.8-.44,2.76-.44.44,0,.89.03,1.33.09.94.13,1.83.43,2.68.81-6.29-26.22-20.43-49.57-40.89-67.15,1.19-1.99,1.99-4.22,2.3-6.61.58-4.48-.58-8.92-3.25-12.5-2.68-3.59-6.56-5.89-10.93-6.48-4.38-.59-8.71.59-12.21,3.33-1.49,1.16-2.73,2.56-3.73,4.11-20.47-9.76-43.21-13.68-66.23-11.07-33.81,3.83-62.94,21.27-82.91,46.34-1.15-.44-2.35-.77-3.62-.94-9.02-1.23-17.34,5.29-18.54,14.53-.58,4.48.58,8.92,3.25,12.5.55.74,1.17,1.41,1.82,2.04-8.97,20.23-12.95,43.08-10.39,66.72,2.32,21.47,9.76,41.52,21.47,58.77-2.63,2.57-4.46,6.02-4.98,9.99-.58,4.48.58,8.92,3.25,12.5,2.68,3.59,6.56,5.89,10.93,6.48.73.1,1.46.15,2.19.15,4.07,0,7.89-1.55,10.82-4.16.79.69,1.57,1.37,2.38,2.03,4.61,3.78,9.42,7.18,14.41,10.22v.28c1.14.69,2.28,1.36,3.44,2.01,18.31,10.27,39.09,15.7,60.1,15.7,18.23,0,35.71-3.94,52.07-11.63v-.13c9.95-4.68,19.15-10.65,27.43-17.68,2.18,1.67,4.79,2.81,7.67,3.2.74.1,1.46.15,2.19.15,8.14,0,15.25-6.19,16.35-14.68.58-4.48-.58-8.92-3.25-12.5-.2-.27-.43-.52-.65-.78ZM235.12,30.05c.35-2.73,1.73-5.15,3.86-6.83,1.77-1.39,3.9-2.12,6.1-2.12.45,0,.9.03,1.35.09,2.67.36,5.03,1.77,6.67,3.95,1.63,2.19,2.34,4.89,1.98,7.62-.35,2.73-1.73,5.15-3.86,6.83-2.13,1.67-4.78,2.4-7.44,2.03-2.67-.36-5.03-1.77-6.67-3.95-1.63-2.19-2.34-4.89-1.98-7.62ZM165.81,17.58c4.44-.5,8.86-.75,13.26-.75,17.36,0,34.28,3.93,49.83,11.39-.06.32-.13.63-.17.96-.49,3.74.26,7.46,2.08,10.67-8.15,4.5-16.49,8.57-25.02,12.15-13.57,5.69-27.58,10.19-41.82,13.62-14.25,3.41-28.75,5.78-43.38,7.01-9.19.77-18.43,1.08-27.7,1.02.14-4.95-1.87-9.55-5.21-12.78,18.93-23.43,46.35-39.69,78.12-43.29ZM66.43,71.82c.67-5.18,5.01-8.95,9.97-8.95.44,0,.89.03,1.33.09,5.5.75,9.38,5.94,8.65,11.58-.35,2.73-1.73,5.15-3.86,6.83s-4.78,2.39-7.44,2.03c-2.67-.36-5.03-1.77-6.67-3.95-1.63-2.19-2.34-4.89-1.98-7.62ZM97.55,224.56c-.73,5.63-5.8,9.61-11.3,8.86-2.67-.36-5.03-1.77-6.67-3.95-1.63-2.19-2.34-4.89-1.98-7.62.35-2.73,1.73-5.15,3.86-6.83,1.77-1.39,3.9-2.12,6.1-2.12.45,0,.9.03,1.35.09,2.67.36,5.03,1.77,6.67,3.95,1.63,2.19,2.34,4.89,1.98,7.62ZM230.81,247.19v-.16c-16.28,8.17-33.78,12.34-52.07,12.34s-36.81-4.45-53.23-12.9c-.45-.23-.89-.47-1.33-.7-.59-.31-1.17-.63-1.75-.95-.43-.24-.85-.49-1.28-.74-1.73-.99-3.43-2.02-5.1-3.09-3.86-2.48-7.62-5.2-11.23-8.16-.84-.69-1.66-1.4-2.47-2.11.79-1.62,1.35-3.39,1.59-5.29.58-4.48-.58-8.92-3.25-12.5-2.68-3.59-6.56-5.89-10.93-6.48-2.85-.39-5.62,0-8.13,1-11.19-16.41-18.29-35.5-20.5-55.95-2.39-22.11,1.24-43.5,9.5-62.49,1.15.44,2.36.76,3.61.93.74.1,1.46.15,2.19.15,3.52,0,6.85-1.16,9.58-3.16,8.9,12.48,18.24,24.64,28.32,36.23,6.78,7.99,14.14,15.46,21.6,22.82.47.46.92.93,1.4,1.38l1.45,1.32,2.91,2.63,5.83,5.27c4.01,3.36,8.02,6.72,12.07,10.04,4.19,3.12,8.35,6.29,12.57,9.37,4.32,2.93,8.58,5.94,12.94,8.81l13.32,8.15c4.5,2.6,9.09,5.05,13.64,7.54,13.06,6.88,26.48,12.96,40.12,18.39-.18.69-.33,1.39-.42,2.11-.51,3.96.37,7.78,2.24,10.95-7.14,6.02-14.9,11.13-23.16,15.26ZM252.78,216.93c-12.96-6.72-25.8-13.58-38.35-20.95l-6.58-4.02c-2.19-1.35-4.42-2.62-6.59-3.98l-12.9-8.43-12.61-8.84c-4.12-3.06-8.17-6.22-12.26-9.33l-11.94-9.75c-3.84-3.43-7.73-6.79-11.52-10.27l-5.63-5.29-2.82-2.65c-.93-.89-1.82-1.82-2.74-2.73-3.61-3.69-7.33-7.27-10.86-11.06-10.46-10.97-20.51-22.42-30.56-33.9,2.72-2.5,4.65-5.94,5.26-9.9,9.32,1.1,18.74,1.51,28.15,1.25,14.93-.42,29.85-2.39,44.42-5.91,14.57-3.5,28.8-8.55,42.3-15.12,8.5-4.14,16.69-8.94,24.43-14.38,0,0,0,0,0,0,.78,1.04,1.66,1.96,2.63,2.77-.31.47-.62.95-.93,1.43-.6.92-1.2,1.84-1.72,2.8l-1.63,2.87c-.51.97-.98,1.97-1.48,2.96-3.85,7.95-6.41,16.53-8,25.26-3.24,17.5-2.44,35.6.99,52.93,3.48,17.37,9.65,34.05,17.65,49.61,4.03,7.77,8.57,15.23,13.43,22.44,1.36,1.97,2.77,3.92,4.19,5.84-1.93,1.76-3.4,3.92-4.34,6.33ZM278.07,224.56c-.73,5.63-5.8,9.61-11.3,8.86-5.5-.75-9.38-5.94-8.65-11.58.35-2.73,1.73-5.15,3.86-6.83,1.77-1.39,3.9-2.12,6.1-2.12.45,0,.9.03,1.35.09,2.67.36,5.03,1.77,6.67,3.95,1.63,2.19,2.34,4.89,1.98,7.62Z"/>
  <path class="cls-9" d="M298.22,100.05c-9.02-1.23-17.34,5.29-18.54,14.53-1.2,9.24,5.17,17.76,14.19,18.99.73.1,1.46.15,2.18.15,8.14,0,15.25-6.19,16.35-14.68,1.2-9.24-5.17-17.76-14.19-18.99ZM306.02,118.16c-.73,5.63-5.8,9.61-11.3,8.86-5.5-.75-9.38-5.94-8.65-11.58.35-2.73,1.73-5.15,3.86-6.83,1.77-1.39,3.9-2.12,6.1-2.12.45,0,.9.03,1.35.09,2.67.36,5.03,1.77,6.67,3.95,1.63,2.19,2.34,4.89,1.98,7.62Z"/>
  <g>
    <path class="cls-7" d="M42.14,360.99c11.23,0,16.85-5.62,16.85-15.21,0-13.55-10.49-13.81-20.72-15.21-9.74-1.28-19.35-3.71-19.35-19.56,0-12.27,7.74-19.94,22.59-19.94s22.1,7.54,22.1,19.81h-6.12c-.25-9.2-4.74-13.81-15.85-13.81s-16.1,5.37-16.1,13.81c0,12.91,8.74,13.04,18.1,14.32,10.61,1.53,21.84,3.83,21.84,20.45,0,13.04-7.36,21.48-23.34,21.48-14.23,0-23.47-5.75-23.47-21.22h6.24c0,8.69,4.37,15.08,17.23,15.08Z"/>
    <path class="cls-7" d="M97.56,360.99c11.23,0,16.85-5.62,16.85-15.21,0-13.55-10.49-13.81-20.72-15.21-9.74-1.28-19.35-3.71-19.35-19.56,0-12.27,7.74-19.94,22.59-19.94s22.1,7.54,22.1,19.81h-6.12c-.25-9.2-4.74-13.81-15.85-13.81s-16.1,5.37-16.1,13.81c0,12.91,8.74,13.04,18.1,14.32,10.61,1.53,21.84,3.83,21.84,20.45,0,13.04-7.36,21.48-23.34,21.48-14.23,0-23.47-5.75-23.47-21.22h6.24c0,8.69,4.37,15.08,17.23,15.08Z"/>
    <path class="cls-7" d="M152.97,360.99c11.23,0,16.85-5.62,16.85-15.21,0-13.55-10.49-13.81-20.72-15.21-9.74-1.28-19.35-3.71-19.35-19.56,0-12.27,7.74-19.94,22.59-19.94s22.1,7.54,22.1,19.81h-6.12c-.25-9.2-4.74-13.81-15.85-13.81s-16.1,5.37-16.1,13.81c0,12.91,8.74,13.04,18.1,14.32,10.61,1.53,21.84,3.83,21.84,20.45,0,13.04-7.36,21.48-23.34,21.48-14.23,0-23.47-5.75-23.47-21.22h6.24c0,8.69,4.37,15.08,17.23,15.08Z"/>
    <path class="cls-7" d="M186.42,339.64v-20.45c0-21.09,7.36-27.87,23.09-27.87s23.09,6.26,23.09,28.25v20.07c0,20.71-7.36,28-23.09,28s-23.09-6.26-23.09-28ZM226.37,339.38v-19.82c0-16.11-2.5-22.24-16.85-22.24-13.48,0-16.85,6.26-16.85,21.99v19.82c0,16.11,2.5,22.63,16.85,22.63,13.48,0,16.85-6.65,16.85-22.37Z"/>
    <path class="cls-7" d="M253.82,292.46l.62,6.01c3.87-5.37,9.99-7.41,17.98-7.41,10.74,0,16.98,4.6,19.6,10.99,5.99-9.33,12.98-10.99,20.97-10.99,17.85,0,22.34,9.72,22.34,27.36v48.32h-6.24v-48.45c0-15.85-3-21.35-16.73-21.35s-17.6,8.69-17.6,19.43v50.37h-6.24v-48.45c0-13.93-3-21.35-16.73-21.35s-17.48,6.52-17.48,17v52.8h-6.24v-74.27h5.74Z"/>
  </g>
  <text class="cls-6" transform="translate(10.85 414.7) scale(.98 1)"><tspan x="0" y="0">SIMPLE S</tspan><tspan class="cls-3" x="91.59" y="0">T</tspan><tspan x="101.93" y="0">AN</tspan><tspan class="cls-5" x="133.06" y="0">D</tspan><tspan x="149.04" y="0">ARD FOR SHARING</tspan><tspan x="36.44" y="29.41">ON</tspan><tspan class="cls-4" x="69.46" y="29.41">T</tspan><tspan x="80.98" y="29.41">O</tspan><tspan class="cls-1" x="97.86" y="29.41">L</tspan><tspan x="108.48" y="29.41">OGI</tspan><tspan class="cls-2" x="147.05" y="29.41">C</tspan><tspan x="161.37" y="29.41">AL </tspan><tspan class="cls-8" x="193.13" y="29.41">M</tspan><tspan x="212.59" y="29.41">APPINGS</tspan></text>
</svg>