<svg id="Layer_1" data-name="Layer 1" xmlns="http://www.w3.org/2000/svg" viewBox="0 0 373.67 155"><defs><style>.cls-1{fill:#fff;}.cls-2{fill:#c6c6c5;}</style></defs><path class="cls-1" d="M171.27,105.9v-.58a5.93,5.93,0,0,0,2.59.57c1.62,0,2.32-.66,2.32-1.71s-.65-1.41-1.84-1.77l-.75-.23c-1.45-.44-2.17-1-2.17-2.29s.94-2.1,2.8-2.1a5.25,5.25,0,0,1,2.25.46v.61a5.07,5.07,0,0,0-2.28-.48c-1.34,0-2,.59-2,1.46s.42,1.34,1.71,1.72l.74.23c1.41.42,2.3.93,2.3,2.33s-.9,2.37-3,2.37A5.84,5.84,0,0,1,171.27,105.9Z"/><path class="cls-1" d="M178.53,97.91h.76v8.44h-.76Z"/><path class="cls-1" d="M181.37,97.91h1.11l3,7.51h0l3.05-7.51h1.13v8.44H189V98.79h0l-3.1,7.56h-.71l-3.08-7.56h0v7.56h-.68Z"/><path class="cls-1" d="M191.8,97.91h2.56c2.2,0,3.1.9,3.1,2.43s-1.09,2.46-2.93,2.46h-2v3.55h-.74Zm2.58,4.32c1.59,0,2.28-.63,2.28-1.84s-.58-1.9-2.37-1.9h-1.75v3.74Z"/><path class="cls-1" d="M198.82,97.91h.75v7.86h4.48v.58h-5.23Z"/><path class="cls-1" d="M205.42,97.91h5.44v.58h-4.69v3.23h3.61v.58h-3.61v3.47h4.7v.58h-5.45Z"/><path class="cls-1" d="M215.2,105.9v-.58a6,6,0,0,0,2.59.57c1.62,0,2.32-.66,2.32-1.71s-.65-1.41-1.84-1.77l-.74-.23c-1.46-.44-2.18-1-2.18-2.29s.94-2.1,2.8-2.1a5.25,5.25,0,0,1,2.25.46v.61a5.07,5.07,0,0,0-2.28-.48c-1.34,0-2,.59-2,1.46s.42,1.34,1.71,1.72l.74.23c1.42.42,2.3.93,2.3,2.33s-.9,2.37-3,2.37A5.84,5.84,0,0,1,215.2,105.9Z"/><path class="cls-1" d="M224.64,98.49h-3v-.58h6.8v.58h-3v7.86h-.76Z"/><path class="cls-1" d="M231.36,97.91h.74l3.44,8.44h-.79l-1.09-2.68h-4l-1.08,2.68h-.72Zm-1.44,5.17h3.5l-1.74-4.27Z"/><path class="cls-1" d="M236.7,97.91h.89l5,7.3h0v-7.3h.7v8.44h-.78l-5.16-7.51h0v7.51h-.68Z"/><path class="cls-1" d="M245.39,97.91H248c2.89,0,4.41,1.3,4.41,4.06v.19c0,2.74-1.38,4.19-4.4,4.19h-2.59Zm2.6,7.85c2.47,0,3.59-1.07,3.59-3.51V102c0-2.51-1.26-3.47-3.68-3.47h-1.76v7.26Z"/><path class="cls-1" d="M256.47,97.91h.74l3.44,8.44h-.78l-1.1-2.68h-4l-1.08,2.68H253ZM255,103.08h3.5l-1.75-4.27Z"/><path class="cls-1" d="M261.8,97.91h2.59c2.05,0,3,.91,3,2.3a2.13,2.13,0,0,1-2,2.23v0l2.6,3.87h-.85l-2.5-3.75h-2.07v3.75h-.75Zm2.56,4.13c1.66,0,2.2-.73,2.2-1.83s-.61-1.72-2.21-1.72h-1.8V102Z"/><path class="cls-1" d="M269.25,97.91h2.57c2.89,0,4.41,1.3,4.41,4.06v.19c0,2.74-1.38,4.19-4.4,4.19h-2.58Zm2.6,7.85c2.46,0,3.58-1.07,3.58-3.51V102c0-2.51-1.26-3.47-3.68-3.47H270v7.26Z"/><path class="cls-1" d="M281.1,97.91h5.3v.58h-4.55v3.3h3.53v.6h-3.53v4h-.75Z"/><path class="cls-1" d="M287.32,102.23V102c0-2.71,1.53-4.25,4-4.25s4,1.49,4,4.25v.19c0,2.67-1.53,4.25-4,4.25S287.32,105,287.32,102.23Zm7.19.1V102c0-2.29-1.05-3.66-3.21-3.67s-3.18,1.35-3.18,3.54v.3c0,2.29,1.05,3.69,3.21,3.69S294.51,104.53,294.51,102.33Z"/><path class="cls-1" d="M296.83,97.91h2.59c2.05,0,3,.91,3,2.3a2.13,2.13,0,0,1-2,2.23v0l2.6,3.87h-.86l-2.49-3.75h-2.08v3.75h-.75ZM299.4,102c1.66,0,2.2-.73,2.2-1.83s-.61-1.72-2.22-1.72h-1.8V102Z"/><path class="cls-1" d="M307,105.9v-.58a6,6,0,0,0,2.59.57c1.62,0,2.32-.66,2.32-1.71s-.65-1.41-1.84-1.77l-.74-.23c-1.46-.44-2.18-1-2.18-2.29s.94-2.1,2.8-2.1a5.25,5.25,0,0,1,2.25.46v.61a5.07,5.07,0,0,0-2.28-.48c-1.34,0-2,.59-2,1.46s.42,1.34,1.71,1.72l.74.23c1.42.42,2.3.93,2.3,2.33s-.9,2.37-3,2.37A5.84,5.84,0,0,1,307,105.9Z"/><path class="cls-1" d="M314.23,97.91H315v3.76h5.16V97.91h.75v8.44h-.75v-4.1H315v4.1h-.73Z"/><path class="cls-1" d="M325.49,97.91h.73l3.45,8.44h-.79l-1.09-2.68h-4l-1.08,2.68H322Zm-1.44,5.17h3.5l-1.74-4.27Z"/><path class="cls-1" d="M330.82,97.91h2.59c2,0,3,.91,3,2.3a2.14,2.14,0,0,1-2,2.23v0l2.6,3.87h-.86l-2.49-3.75h-2.08v3.75h-.74Zm2.56,4.13c1.66,0,2.2-.73,2.2-1.83s-.61-1.72-2.22-1.72h-1.8V102Z"/><path class="cls-1" d="M338.3,97.91h.76v8.44h-.76Z"/><path class="cls-1" d="M341.14,97.91H342l5.05,7.3h0v-7.3h.69v8.44H347l-5.17-7.51h0v7.51h-.68Z"/><path class="cls-1" d="M349.3,102.26v-.18c0-3,1.83-4.29,4.26-4.29a5.48,5.48,0,0,1,2.37.46v.61a5.48,5.48,0,0,0-2.41-.48c-2.38,0-3.42,1.51-3.42,3.61v.26c0,2.21.88,3.64,3.45,3.64a6.86,6.86,0,0,0,2-.28V103h-2.11v-.58h2.87V106a9.13,9.13,0,0,1-2.74.44C350.85,106.48,349.3,105.08,349.3,102.26Z"/><path class="cls-1" d="M200.91,115.23V115c0-2.71,1.54-4.25,4-4.25s4,1.49,4,4.25v.19c0,2.67-1.53,4.25-4,4.25S200.91,118,200.91,115.23Zm7.2.1V115c0-2.29-1.05-3.66-3.21-3.67s-3.18,1.35-3.18,3.54v.3c0,2.29,1.05,3.69,3.21,3.69S208.11,117.53,208.11,115.33Z"/><path class="cls-1" d="M210.45,110.91h.88l5,7.3h0v-7.3h.69v8.44h-.77l-5.17-7.51h0v7.51h-.68Z"/><path class="cls-1" d="M221.35,111.49h-3v-.58h6.8v.58h-3v7.86h-.76Z"/><path class="cls-1" d="M225.83,115.23V115c0-2.71,1.54-4.25,4-4.25s4,1.49,4,4.25v.19c0,2.67-1.53,4.25-4,4.25S225.83,118,225.83,115.23Zm7.2.1V115c0-2.29-1.05-3.66-3.21-3.67s-3.18,1.35-3.18,3.54v.3c0,2.29,1.05,3.69,3.21,3.69S233,117.53,233,115.33Z"/><path class="cls-1" d="M235.35,110.91h.75v7.86h4.48v.58h-5.23Z"/><path class="cls-1" d="M241.43,115.23V115c0-2.71,1.53-4.25,4-4.25s4,1.49,4,4.25v.19c0,2.67-1.54,4.25-4,4.25S241.43,118,241.43,115.23Zm7.19.1V115c0-2.29-1.05-3.66-3.21-3.67s-3.18,1.35-3.18,3.54v.3c0,2.29,1.05,3.69,3.21,3.69S248.62,117.53,248.62,115.33Z"/><path class="cls-1" d="M250.42,115.26v-.18c0-3,1.83-4.29,4.26-4.29a5.48,5.48,0,0,1,2.37.46v.61a5.48,5.48,0,0,0-2.41-.48c-2.38,0-3.42,1.51-3.42,3.61v.26c0,2.21.88,3.64,3.45,3.64a6.86,6.86,0,0,0,2-.28V116h-2.11v-.58h2.87V119a9.13,9.13,0,0,1-2.74.44C252,119.48,250.42,118.08,250.42,115.26Z"/><path class="cls-1" d="M261.42,115.91l-3.11-5h.79l2.72,4.35h0l2.69-4.35h.74l-3.11,5v3.44h-.75Z"/><path class="cls-1" d="M269.76,110.91h1.11l3.05,7.51h0l3-7.51h1.14v8.44h-.76v-7.56h0l-3.1,7.56h-.7l-3.09-7.56h0v7.56h-.68Z"/><path class="cls-1" d="M282.76,110.91h.73l3.45,8.44h-.79l-1.1-2.68h-4L280,119.35h-.72Zm-1.44,5.17h3.5l-1.74-4.27Z"/><path class="cls-1" d="M288.1,110.91h2.56c2.2,0,3.1.9,3.1,2.43s-1.1,2.46-2.94,2.46h-2v3.55h-.73Zm2.57,4.32c1.59,0,2.29-.63,2.29-1.84s-.59-1.9-2.37-1.9h-1.76v3.74Z"/><path class="cls-1" d="M295.13,110.91h2.56c2.2,0,3.1.9,3.1,2.43s-1.1,2.46-2.94,2.46h-2v3.55h-.73Zm2.57,4.32c1.59,0,2.28-.63,2.28-1.84s-.58-1.9-2.36-1.9h-1.76v3.74Z"/><path class="cls-1" d="M302.18,110.91h.76v8.44h-.76Z"/><path class="cls-1" d="M305,110.91h.89l5,7.3h0v-7.3h.69v8.44h-.77l-5.16-7.51h0v7.51H305Z"/><path class="cls-1" d="M313.18,115.26v-.18c0-3,1.83-4.29,4.27-4.29a5.43,5.43,0,0,1,2.36.46v.61a5.48,5.48,0,0,0-2.41-.48c-2.38,0-3.41,1.51-3.41,3.61v.26c0,2.21.87,3.64,3.44,3.64a6.81,6.81,0,0,0,2-.28V116h-2.11v-.58h2.87V119a9.13,9.13,0,0,1-2.74.44C314.73,119.48,313.18,118.08,313.18,115.26Z"/><path class="cls-1" d="M321.35,118.9v-.58a5.88,5.88,0,0,0,2.58.57c1.62,0,2.33-.66,2.33-1.71s-.65-1.41-1.84-1.77l-.75-.23c-1.45-.44-2.17-1-2.17-2.29s.94-2.1,2.79-2.1a5.3,5.3,0,0,1,2.26.46v.61a5.1,5.1,0,0,0-2.28-.48c-1.35,0-2,.59-2,1.46s.41,1.34,1.7,1.72l.75.23c1.41.42,2.3.93,2.3,2.33s-.9,2.37-3,2.37A5.81,5.81,0,0,1,321.35,118.9Z"/><path class="cls-2" d="M122.92,70.89c-2.53.18-5.06.39-7.58.68s-5,.67-7.56,1.08c-1.26.22-2.51.47-3.76.71s-2.5.54-3.74.86-2.48.61-3.7,1-2.46.7-3.68,1.11a102.71,102.71,0,0,0-14.2,5.86,105,105,0,0,0-13.1,8A114,114,0,0,0,53.82,100a133.62,133.62,0,0,0-10.41,11.15l-2.39,3c-.78,1-1.54,2-2.3,3l-.15.2c.2.2.4.42.58.64l.25-.28c.87-.92,1.7-1.87,2.56-2.79l2.62-2.72c.85-.92,1.77-1.78,2.65-2.67l1.34-1.33c.44-.44.91-.86,1.37-1.29.92-.84,1.81-1.73,2.75-2.56l2.8-2.5a140.52,140.52,0,0,1,11.85-9.14A107.81,107.81,0,0,1,80.16,85a104.72,104.72,0,0,1,13.71-5.84,124.48,124.48,0,0,1,14.4-4.07q3.66-.81,7.37-1.46c2.47-.46,5-.83,7.45-1.21,2.79-.42,5.6-.79,8.41-1.17q0-.37-.06-.78C128.6,70.59,125.76,70.71,122.92,70.89Z"/><path class="cls-2" d="M81.53,67.35a211.58,211.58,0,0,0,28.26,2.87c7.22.3,14.44.35,21.65.26a8.42,8.42,0,0,1,.05-1,7,7,0,0,1,.29-1.22l-.59-.2a55,55,0,0,1-6.49-2.86,26.67,26.67,0,0,1-10.21-8.68,19.34,19.34,0,0,1-1.6-2.89c-.25-.49-.42-1-.64-1.53s-.32-1.06-.51-1.59a28.79,28.79,0,0,1-1-6.74c-.08-1.16,0-2.32,0-3.5s.13-2.37.29-3.55c.06-.55.1-1.11.18-1.65a7.23,7.23,0,0,1-1.47-.48c-.21.57-.41,1.15-.59,1.73-.4,1.18-.66,2.41-1,3.63a33.34,33.34,0,0,0-.52,3.76,25.69,25.69,0,0,0,.48,7.7c.17.64.31,1.28.52,1.91s.42,1.25.69,1.86a22.69,22.69,0,0,0,1.88,3.5l.57.81c.18.28.41.52.61.79l.63.76.68.72c.45.49.94.92,1.43,1.36s1,.83,1.53,1.23A27.66,27.66,0,0,0,123.45,68a36,36,0,0,0,4.11,1.27c-5.87-.55-11.75-1-17.61-1.57-9.35-.87-18.66-1.92-27.87-3.53A256.8,256.8,0,0,1,54.77,57.8c-6.89-2-13.71-4.27-20.53-6.62a6.71,6.71,0,0,1-.32.78A197.32,197.32,0,0,0,54,60.19,175.82,175.82,0,0,0,81.53,67.35Z"/><path class="cls-2" d="M33.6,61.61c.2.74.41,1.47.59,2.21s.36,1.48.52,2.22a105.25,105.25,0,0,1,2.18,18.13,138.63,138.63,0,0,1-.52,18.33c-.39,4.3-1,8.58-1.75,12.87a7.9,7.9,0,0,1,1,.21,81.89,81.89,0,0,0,3.21-12.76,89.35,89.35,0,0,0,1.23-18.77,75.44,75.44,0,0,0-3-18.62,49.4,49.4,0,0,0-3.5-8.79c-.39-.69-.75-1.39-1.18-2.06-.08-.14-.18-.27-.26-.41a7.2,7.2,0,0,1-1,.66c.36.8.7,1.61,1,2.44C32.71,58.7,33.2,60.14,33.6,61.61Z"/><path class="cls-1" d="M130.33,117.05A62.33,62.33,0,0,0,141.57,74a5,5,0,0,1-3.12,1.41c0,.31.08.62.1.93a59.35,59.35,0,0,1-10.74,38.75,8.24,8.24,0,0,0-8.27.47c-.59-1-1.17-2-1.73-3-2.1-3.69-4-7.44-5.82-11.26a113,113,0,0,1-7.93-23.82l-.58-3.08-.45-3.1-.35-3.1-.23-3.12a70.33,70.33,0,0,1,.44-12.48l.2-1.55.28-1.54c.16-1,.43-2,.64-3.06.1-.51.26-1,.39-1.51s.27-1,.43-1.51c.34-1,.63-2,1-3a38.84,38.84,0,0,1,2.25-5,8.19,8.19,0,0,0,9.29-.28,58.86,58.86,0,0,1,19.31,30.29,5,5,0,0,1,1.38-.22,5,5,0,0,1,.67.05,4.94,4.94,0,0,1,1.34.39,62.05,62.05,0,0,0-20.5-32.88A8.27,8.27,0,0,0,107.52,22a8.14,8.14,0,0,0-1.87,2A62.49,62.49,0,0,0,30.87,41.26a9,9,0,0,0-1.82-.46A8.28,8.28,0,0,0,21.39,54a9.65,9.65,0,0,0,.91,1,62.48,62.48,0,0,0,5.56,61.44,8.27,8.27,0,0,0,4.62,14.19,8,8,0,0,0,1.09.07,8.28,8.28,0,0,0,5.43-2c.39.34.79.67,1.19,1a63.81,63.81,0,0,0,7.23,5v.14c.57.33,1.14.66,1.72,1a62.88,62.88,0,0,0,30.14,7.69,62.06,62.06,0,0,0,26.11-5.7v-.06a62.18,62.18,0,0,0,13.75-8.65,8.27,8.27,0,0,0,11.51-11.67C130.55,117.3,130.44,117.18,130.33,117.05ZM107.55,27.89a5,5,0,0,1,5-4.38,5.27,5.27,0,0,1,.68,0,5,5,0,0,1,4.33,5.67,5,5,0,0,1-1.93,3.35,5.06,5.06,0,0,1-7.08-.95A5,5,0,0,1,107.55,27.89Zm-34.76-6.1a59.68,59.68,0,0,1,6.65-.37,58.67,58.67,0,0,1,25,5.58c0,.15-.06.31-.08.47a8.17,8.17,0,0,0,1,5.22,129.46,129.46,0,0,1-12.55,6,140,140,0,0,1-21,6.67,148.73,148.73,0,0,1-21.75,3.43c-4.6.38-9.24.53-13.88.5A8.3,8.3,0,0,0,33.62,43,59.13,59.13,0,0,1,72.79,21.79ZM23,48.34A5.06,5.06,0,0,1,28,44a5.16,5.16,0,0,1,.67,0A5,5,0,0,1,31,53,5.07,5.07,0,0,1,24,52.08,5.05,5.05,0,0,1,23,48.34Zm15.61,74.79a5,5,0,1,1-1-3.74A5.05,5.05,0,0,1,38.57,123.13Zm66.82,11.08v-.08a58.81,58.81,0,0,1-26.11,6,59.52,59.52,0,0,1-26.69-6.32l-.67-.34-.88-.46-.64-.37c-.87-.48-1.72-1-2.56-1.51a59.9,59.9,0,0,1-5.63-4c-.42-.34-.83-.69-1.24-1a8,8,0,0,0,.8-2.59,8.27,8.27,0,0,0-11.19-8.8,59.31,59.31,0,0,1-5.52-58,8.56,8.56,0,0,0,1.81.45,8.1,8.1,0,0,0,5.9-1.47C37.23,61.85,41.92,67.8,47,73.48c3.4,3.91,7.09,7.56,10.83,11.17l.7.67.73.65,1.46,1.29,2.92,2.58c2,1.64,4,3.29,6,4.91s4.19,3.08,6.3,4.59,4.31,2.91,6.49,4.31l6.68,4c2.26,1.27,4.56,2.48,6.84,3.69a211.49,211.49,0,0,0,20.12,9,7.23,7.23,0,0,0-.21,1,8.24,8.24,0,0,0,1.12,5.37A59.21,59.21,0,0,1,105.39,134.21Zm11-14.82c-6.5-3.29-12.94-6.65-19.23-10.26l-3.29-2c-1.1-.66-2.22-1.28-3.31-2l-6.47-4.12-6.32-4.33c-2.07-1.5-4.1-3.05-6.15-4.57l-6-4.77c-1.92-1.68-3.87-3.32-5.77-5L57,79.8l-1.41-1.29c-.47-.44-.91-.89-1.37-1.34-1.81-1.8-3.68-3.56-5.45-5.41-5.24-5.37-10.28-11-15.32-16.6a8.24,8.24,0,0,0,2.64-4.85,99.2,99.2,0,0,0,14.11.61A110,110,0,0,0,72.51,48a106.44,106.44,0,0,0,21.21-7.4A88.43,88.43,0,0,0,106,33.58h0a8,8,0,0,0,1.31,1.35c-.15.24-.31.47-.46.7-.3.45-.61.9-.87,1.38l-.81,1.4c-.26.48-.49,1-.74,1.45a47,47,0,0,0-4,12.37,67.44,67.44,0,0,0,.49,25.91,92.07,92.07,0,0,0,8.85,24.29,109.93,109.93,0,0,0,6.74,11c.68,1,1.38,1.92,2.1,2.86A8.18,8.18,0,0,0,116.4,119.39Zm12.68,3.74a5,5,0,1,1-5-5.72,5.19,5.19,0,0,1,.68,0,5,5,0,0,1,4.33,5.67Z"/><path class="cls-2" d="M139.19,62.16A8.28,8.28,0,1,0,137,78.57a8.11,8.11,0,0,0,1.09.08,8.28,8.28,0,0,0,1.09-16.49ZM143.1,71a5.09,5.09,0,1,1-4.34-5.66,5,5,0,0,1,3.35,1.93A5,5,0,0,1,143.1,71Z"/><path class="cls-1" d="M193.82,72c5.63,0,8.45-2.75,8.45-7.45,0-6.63-5.26-6.76-10.39-7.45-4.88-.62-9.7-1.81-9.7-9.57,0-6,3.88-9.77,11.33-9.77,7.76,0,11.08,3.7,11.08,9.71h-3.07c-.13-4.51-2.38-6.76-8-6.76s-8.07,2.62-8.07,6.76c0,6.32,4.38,6.38,9.07,7,5.32.75,11,1.87,11,10,0,6.38-3.7,10.52-11.71,10.52-7.13,0-11.77-2.82-11.77-10.39h3.13C185.18,68.91,187.37,72,193.82,72Z"/><path class="cls-1" d="M221.61,72c5.63,0,8.45-2.75,8.45-7.45,0-6.63-5.26-6.76-10.39-7.45-4.88-.62-9.7-1.81-9.7-9.57,0-6,3.88-9.77,11.33-9.77,7.76,0,11.08,3.7,11.08,9.71h-3.07c-.13-4.51-2.38-6.76-7.95-6.76s-8.08,2.62-8.08,6.76c0,6.32,4.39,6.38,9.08,7,5.32.75,10.95,1.87,10.95,10,0,6.38-3.69,10.52-11.7,10.52-7.14,0-11.77-2.82-11.77-10.39H213C213,68.91,215.16,72,221.61,72Z"/><path class="cls-1" d="M249.4,72c5.63,0,8.45-2.75,8.45-7.45,0-6.63-5.26-6.76-10.39-7.45-4.88-.62-9.7-1.81-9.7-9.57,0-6,3.88-9.77,11.32-9.77,7.77,0,11.08,3.7,11.08,9.71H257.1c-.13-4.51-2.38-6.76-8-6.76s-8.08,2.62-8.08,6.76c0,6.32,4.38,6.38,9.08,7,5.32.75,11,1.87,11,10,0,6.38-3.69,10.52-11.7,10.52-7.14,0-11.77-2.82-11.77-10.39h3.13C240.76,68.91,243,72,249.4,72Z"/><path class="cls-1" d="M266.17,61.59v-10c0-10.32,3.69-13.64,11.58-13.64S289.33,41,289.33,51.76v9.83c0,10.14-3.69,13.71-11.58,13.71S266.17,72.23,266.17,61.59Zm20-.13v-9.7c0-7.88-1.25-10.89-8.45-10.89-6.76,0-8.45,3.07-8.45,10.77v9.7c0,7.88,1.25,11.08,8.45,11.08C284.51,72.42,286.2,69.16,286.2,61.46Z"/><path class="cls-1" d="M300,38.49l.31,2.94c1.94-2.62,5-3.63,9-3.63,5.39,0,8.52,2.26,9.83,5.39,3-4.57,6.51-5.39,10.52-5.39,8.95,0,11.2,4.76,11.2,13.4V74.86h-3.13V51.14c0-7.77-1.5-10.46-8.39-10.46s-8.82,4.26-8.82,9.52V74.86h-3.13V51.14c0-6.83-1.5-10.46-8.39-10.46s-8.76,3.2-8.76,8.33V74.86h-3.13V38.49Z"/></svg>