<?xml version="1.0" encoding="UTF-8"?>
<svg id="Layer_1" data-name="Layer 1" xmlns="http://www.w3.org/2000/svg" viewBox="0 0 357.44 463.82">
  <defs>
    <style>
      .cls-1 {
        letter-spacing: -.04em;
      }

      .cls-2 {
        letter-spacing: 0em;
      }

      .cls-3 {
        fill: #828385;
      }

      .cls-3, .cls-4 {
        stroke-width: 0px;
      }

      .cls-5 {
        letter-spacing: 0em;
      }

      .cls-6 {
        letter-spacing: -.07em;
      }

      .cls-7 {
        letter-spacing: 0em;
      }

      .cls-8 {
        letter-spacing: -.03em;
      }

      .cls-9 {
        fill: #808285;
        font-family: MyriadConceptRoman-Regular, 'Myriad Variable Concept';
        font-size: 24.21px;
        font-variation-settings: 'wght' 400, 'wdth' 100;
      }

      .cls-10 {
        letter-spacing: -.01em;
      }

      .cls-11 {
        letter-spacing: 0em;
      }

      .cls-4 {
        fill: #c6c6c5;
      }
    </style>
  </defs>
  <g>
    <path class="cls-4" d="M267.89,117.35c-5.04.38-10.09.8-15.12,1.39-5.04.54-10.06,1.35-15.07,2.18-2.5.44-5,.93-7.5,1.42-2.48.57-4.98,1.1-7.45,1.73-2.46.65-4.95,1.23-7.39,1.98-2.45.71-4.91,1.41-7.33,2.24-9.71,3.21-19.18,7.19-28.32,11.83-9.09,4.75-17.84,10.13-26.13,16.16-8.25,6.08-16.14,12.63-23.5,19.73-7.39,7.06-14.23,14.67-20.75,22.51l-4.77,5.98c-1.56,2.01-3.08,4.06-4.58,6.11-.11.14-.2.28-.31.42.41.4.8.83,1.16,1.28l.51-.56c1.72-1.86,3.37-3.77,5.09-5.62l5.22-5.49c1.71-1.86,3.53-3.6,5.29-5.4l2.66-2.68c.89-.89,1.82-1.73,2.73-2.6,1.85-1.71,3.62-3.49,5.48-5.18l5.6-5.03c7.61-6.53,15.4-12.82,23.63-18.46,8.18-5.69,16.69-10.9,25.56-15.4,8.81-4.6,17.97-8.5,27.35-11.79,9.36-3.37,18.98-5.99,28.71-8.22,4.87-1.09,9.78-2.06,14.71-2.94,4.92-.93,9.88-1.68,14.85-2.43,5.58-.85,11.18-1.6,16.78-2.36-.07-.52-.11-1.05-.12-1.58-5.66.17-11.33.42-17,.77Z"/>
    <path class="cls-4" d="M185.34,110.21c18.65,3.31,37.53,5.06,56.36,5.8,14.41.6,28.8.71,43.19.53-.01-.66.01-1.33.1-2,.11-.85.31-1.67.57-2.46-.39-.14-.79-.27-1.17-.41-4.48-1.69-8.82-3.57-12.94-5.77-8.25-4.32-15.51-10.1-20.36-17.52-1.24-1.83-2.28-3.8-3.2-5.82-.49-1-.83-2.07-1.26-3.1-.4-1.04-.65-2.14-1.02-3.21-1.23-4.34-1.81-8.92-2.01-13.59-.15-2.34-.03-4.7,0-7.07.19-2.37.25-4.77.58-7.16.13-1.11.21-2.23.37-3.33-1.03-.21-2.02-.53-2.94-.97-.42,1.16-.82,2.32-1.17,3.51-.81,2.38-1.33,4.85-1.91,7.32-.42,2.5-.89,5.01-1.03,7.58-.41,5.12-.17,10.38.97,15.55.33,1.28.61,2.58,1.03,3.84.46,1.25.83,2.53,1.36,3.75,1.06,2.45,2.29,4.83,3.76,7.06l1.13,1.65c.37.56.82,1.05,1.22,1.58l1.25,1.55,1.36,1.45c.89.98,1.88,1.85,2.85,2.74.95.91,2.02,1.67,3.04,2.48,4.17,3.14,8.77,5.52,13.49,7.35,2.7,1.03,5.44,1.87,8.21,2.56-11.72-1.11-23.44-2.07-35.12-3.16-18.66-1.76-37.22-3.88-55.58-7.14-18.37-3.22-36.52-7.6-54.47-12.85-13.73-4.04-27.33-8.61-40.93-13.34-.18.54-.41,1.06-.65,1.56,13.03,6.26,26.4,11.83,40.07,16.61,17.84,6.31,36.23,11.15,54.88,14.44Z"/>
    <path class="cls-4" d="M89.76,98.64c.4,1.48.82,2.96,1.18,4.45.39,1.48.72,2.98,1.04,4.49,2.54,12.02,3.88,24.28,4.35,36.58.47,12.3.09,24.65-1.04,36.97-.79,8.68-2.02,17.31-3.5,25.97.68.1,1.34.24,1.98.43,2.82-8.37,4.94-17,6.39-25.75,2.15-12.47,2.94-25.19,2.46-37.87-.51-12.67-2.27-25.37-5.9-37.57-1.79-6.1-4.07-12.08-6.98-17.74-.77-1.39-1.5-2.8-2.36-4.15-.16-.28-.35-.55-.52-.83-.6.5-1.25.94-1.93,1.32.71,1.63,1.39,3.27,2,4.93,1.05,2.89,2.03,5.8,2.83,8.76Z"/>
  </g>
  <path class="cls-3" d="M282.67,210.5c17.13-24.37,25.89-54.89,22.42-86.87-1.67,1.61-3.84,2.67-6.22,2.84.06.62.14,1.24.19,1.87,2.11,27.78-5.57,55.5-21.42,78.18-1.63-.83-3.4-1.4-5.26-1.66-3.98-.53-7.92.4-11.23,2.61-1.18-1.98-2.33-3.97-3.45-5.99-4.18-7.43-8.04-15.01-11.6-22.71-6.91-15.48-12.49-31.53-15.83-48.06l-1.14-6.21-.91-6.25-.7-6.27-.45-6.29c-.44-8.4-.16-16.83.87-25.17l.41-3.13.55-3.1c.32-2.08.86-4.11,1.29-6.17.2-1.04.52-2.04.78-3.06.28-1.01.53-2.04.85-3.04.68-1.99,1.26-4.02,2.06-5.97,1.21-3.46,2.79-6.76,4.48-10.02,2,1.29,4.26,2.15,6.68,2.48.74.1,1.48.15,2.21.15,3.46,0,6.8-1.12,9.63-3.2,19,16.05,32.29,37.26,38.52,61.11.89-.26,1.8-.43,2.76-.43.44,0,.89.03,1.33.09.94.13,1.83.42,2.68.8-6.29-25.9-20.43-48.97-40.89-66.34,1.19-1.97,1.99-4.17,2.3-6.53.58-4.42-.58-8.81-3.25-12.35-2.68-3.54-6.56-5.82-10.93-6.4-4.38-.59-8.71.58-12.21,3.29-1.49,1.15-2.73,2.53-3.73,4.06-20.47-9.64-43.21-13.51-66.23-10.94-33.81,3.79-62.94,21.01-82.91,45.78-1.15-.43-2.35-.76-3.62-.93-9.02-1.22-17.34,5.23-18.54,14.35-.58,4.42.58,8.81,3.25,12.35.55.73,1.17,1.4,1.82,2.01-8.97,19.98-12.95,42.56-10.39,65.91,2.32,21.21,9.76,41.01,21.47,58.06-2.63,2.53-4.46,5.95-4.98,9.87-.58,4.42.58,8.81,3.25,12.35,2.68,3.54,6.56,5.82,10.93,6.4.73.1,1.46.15,2.19.15,4.07,0,7.89-1.53,10.82-4.11.79.68,1.57,1.35,2.38,2.01,4.61,3.73,9.42,7.09,14.41,10.09v.28c1.14.68,2.28,1.34,3.44,1.99,18.31,10.15,39.09,15.51,60.1,15.51,18.23,0,35.71-3.89,52.07-11.49v-.12c9.95-4.62,19.15-10.52,27.43-17.46,2.18,1.65,4.79,2.78,7.67,3.16.74.1,1.46.15,2.19.15,8.14,0,15.25-6.12,16.35-14.5.58-4.42-.58-8.81-3.25-12.35-.2-.27-.43-.52-.65-.77ZM237.23,30.61c.35-2.7,1.73-5.09,3.86-6.75,1.77-1.37,3.9-2.1,6.1-2.1.45,0,.9.03,1.35.09,2.67.36,5.03,1.75,6.67,3.91,1.63,2.16,2.34,4.83,1.98,7.53-.35,2.7-1.73,5.09-3.86,6.75-2.13,1.65-4.78,2.37-7.44,2.01-2.67-.36-5.03-1.75-6.67-3.91-1.63-2.16-2.34-4.83-1.98-7.53ZM167.93,18.29c4.44-.5,8.86-.74,13.26-.74,17.36,0,34.28,3.88,49.83,11.25-.06.32-.13.63-.17.95-.49,3.7.26,7.37,2.08,10.54-8.15,4.45-16.49,8.46-25.02,12-13.57,5.62-27.58,10.06-41.82,13.46-14.25,3.37-28.75,5.71-43.38,6.93-9.19.76-18.43,1.07-27.7,1.01.14-4.89-1.87-9.44-5.21-12.63,18.93-23.14,46.35-39.21,78.12-42.77ZM68.54,71.87c.67-5.11,5.01-8.84,9.97-8.84.44,0,.89.03,1.33.09,5.5.74,9.38,5.87,8.65,11.44-.35,2.7-1.73,5.09-3.86,6.74s-4.78,2.37-7.44,2.01c-2.67-.36-5.03-1.75-6.67-3.91-1.63-2.16-2.34-4.83-1.98-7.53ZM99.67,222.76c-.73,5.56-5.8,9.5-11.3,8.75-2.67-.36-5.03-1.75-6.67-3.91-1.63-2.16-2.34-4.83-1.98-7.53.35-2.7,1.73-5.09,3.86-6.74,1.77-1.37,3.9-2.1,6.1-2.1.45,0,.9.03,1.35.09,2.67.36,5.03,1.74,6.67,3.9,1.63,2.16,2.34,4.84,1.98,7.53ZM232.93,245.12v-.16c-16.28,8.07-33.78,12.19-52.07,12.19s-36.81-4.4-53.23-12.74c-.45-.23-.89-.46-1.33-.69-.59-.31-1.17-.62-1.75-.94-.43-.24-.85-.49-1.28-.73-1.73-.98-3.43-2-5.1-3.05-3.86-2.45-7.62-5.14-11.23-8.07-.84-.68-1.66-1.38-2.47-2.09.79-1.6,1.35-3.35,1.59-5.22.58-4.42-.58-8.81-3.25-12.35-2.68-3.54-6.56-5.82-10.93-6.4-2.85-.38-5.62,0-8.13.99-11.19-16.21-18.29-35.07-20.5-55.27-2.39-21.84,1.24-42.97,9.5-61.73,1.15.43,2.36.76,3.61.92.74.1,1.46.15,2.19.15,3.52,0,6.85-1.15,9.58-3.12,8.9,12.33,18.24,24.34,28.32,35.79,6.78,7.89,14.14,15.27,21.6,22.54.47.45.92.92,1.4,1.36l1.45,1.3,2.91,2.6,5.83,5.2c4.01,3.32,8.02,6.64,12.07,9.92,4.19,3.08,8.35,6.22,12.57,9.25,4.32,2.9,8.58,5.87,12.94,8.7l13.32,8.06c4.5,2.57,9.09,4.99,13.64,7.45,13.06,6.79,26.48,12.8,40.12,18.17-.18.68-.33,1.37-.42,2.08-.51,3.91.37,7.68,2.24,10.82-7.14,5.95-14.9,11-23.16,15.08ZM254.9,215.22c-12.96-6.64-25.8-13.42-38.35-20.7l-6.58-3.97c-2.19-1.33-4.42-2.59-6.59-3.93l-12.9-8.33-12.61-8.73c-4.12-3.03-8.17-6.15-12.26-9.21l-11.94-9.63c-3.84-3.39-7.73-6.71-11.52-10.15l-5.63-5.22-2.82-2.61c-.93-.88-1.82-1.8-2.74-2.7-3.61-3.64-7.33-7.18-10.86-10.92-10.46-10.84-20.51-22.14-30.56-33.49,2.72-2.47,4.65-5.87,5.26-9.78,9.32,1.08,18.74,1.49,28.15,1.23,14.93-.41,29.85-2.36,44.42-5.84,14.57-3.46,28.8-8.45,42.3-14.94,8.5-4.09,16.69-8.83,24.43-14.21,0,0,0,0,0,0,.78,1.03,1.66,1.93,2.63,2.74-.31.47-.62.94-.93,1.41-.6.91-1.2,1.82-1.72,2.77l-1.63,2.84c-.51.96-.98,1.95-1.48,2.92-3.85,7.86-6.41,16.33-8,24.95-3.24,17.29-2.44,35.16.99,52.29,3.48,17.16,9.65,33.64,17.65,49.01,4.03,7.68,8.57,15.05,13.43,22.17,1.36,1.95,2.77,3.87,4.19,5.77-1.93,1.73-3.4,3.87-4.34,6.25ZM280.19,222.76c-.73,5.57-5.8,9.5-11.3,8.75-5.5-.74-9.38-5.87-8.65-11.44.35-2.7,1.73-5.09,3.86-6.74,1.77-1.37,3.9-2.1,6.1-2.1.45,0,.9.03,1.35.09,2.67.36,5.03,1.74,6.67,3.9,1.63,2.16,2.34,4.84,1.98,7.53Z"/>
  <path class="cls-4" d="M300.34,99.76c-9.02-1.21-17.34,5.22-18.54,14.35-1.2,9.13,5.17,17.54,14.19,18.76.73.1,1.46.15,2.18.15,8.14,0,15.25-6.12,16.35-14.5,1.2-9.13-5.17-17.54-14.19-18.75ZM308.14,117.65c-.73,5.57-5.8,9.5-11.3,8.75-5.5-.74-9.38-5.87-8.65-11.44.35-2.7,1.73-5.09,3.86-6.74,1.77-1.37,3.9-2.1,6.1-2.1.45,0,.9.03,1.35.09,2.67.36,5.03,1.74,6.67,3.9,1.63,2.16,2.34,4.84,1.98,7.53Z"/>
  <g>
    <path class="cls-3" d="M44.25,357.53c11.23,0,16.85-5.56,16.85-15.03,0-13.39-10.49-13.64-20.72-15.03-9.74-1.26-19.35-3.66-19.35-19.32,0-12.12,7.74-19.7,22.59-19.7s22.1,7.45,22.1,19.57h-6.12c-.25-9.09-4.74-13.64-15.85-13.64s-16.1,5.3-16.1,13.64c0,12.76,8.74,12.88,18.1,14.15,10.61,1.52,21.84,3.79,21.84,20.21,0,12.88-7.36,21.22-23.34,21.22-14.23,0-23.47-5.68-23.47-20.96h6.24c0,8.59,4.37,14.9,17.23,14.9Z"/>
    <path class="cls-3" d="M99.67,357.53c11.23,0,16.85-5.56,16.85-15.03,0-13.39-10.49-13.64-20.72-15.03-9.74-1.26-19.35-3.66-19.35-19.32,0-12.12,7.74-19.7,22.59-19.7s22.1,7.45,22.1,19.57h-6.12c-.25-9.09-4.74-13.64-15.85-13.64s-16.1,5.3-16.1,13.64c0,12.76,8.74,12.88,18.1,14.15,10.61,1.52,21.84,3.79,21.84,20.21,0,12.88-7.36,21.22-23.34,21.22-14.23,0-23.47-5.68-23.47-20.96h6.24c0,8.59,4.37,14.9,17.23,14.9Z"/>
    <path class="cls-3" d="M155.09,357.53c11.23,0,16.85-5.56,16.85-15.03,0-13.39-10.49-13.64-20.72-15.03-9.74-1.26-19.35-3.66-19.35-19.32,0-12.12,7.74-19.7,22.59-19.7s22.1,7.45,22.1,19.57h-6.12c-.25-9.09-4.74-13.64-15.85-13.64s-16.1,5.3-16.1,13.64c0,12.76,8.74,12.88,18.1,14.15,10.61,1.52,21.84,3.79,21.84,20.21,0,12.88-7.36,21.22-23.34,21.22-14.23,0-23.47-5.68-23.47-20.96h6.24c0,8.59,4.37,14.9,17.23,14.9Z"/>
    <path class="cls-3" d="M188.54,336.44v-20.21c0-20.84,7.36-27.53,23.09-27.53s23.09,6.19,23.09,27.91v19.83c0,20.46-7.36,27.66-23.09,27.66s-23.09-6.19-23.09-27.66ZM228.48,336.19v-19.58c0-15.91-2.5-21.97-16.85-21.97-13.48,0-16.85,6.19-16.85,21.72v19.58c0,15.91,2.5,22.35,16.85,22.35,13.48,0,16.85-6.57,16.85-22.1Z"/>
    <path class="cls-3" d="M255.94,289.84l.62,5.93c3.87-5.3,9.99-7.32,17.97-7.32,10.74,0,16.98,4.55,19.6,10.86,5.99-9.22,12.98-10.86,20.97-10.86,17.85,0,22.34,9.6,22.34,27.03v47.74h-6.24v-47.86c0-15.66-3-21.09-16.73-21.09s-17.6,8.59-17.6,19.2v49.76h-6.24v-47.86c0-13.77-3-21.09-16.73-21.09s-17.48,6.44-17.48,16.8v52.16h-6.24v-73.37h5.74Z"/>
  </g>
  <text class="cls-9" transform="translate(14.96 415.93) scale(.99 1)"><tspan x="0" y="0">SIMPLE S</tspan><tspan class="cls-6" x="90.48" y="0">T</tspan><tspan class="cls-7" x="100.7" y="0">AN</tspan><tspan class="cls-10" x="131.45" y="0">D</tspan><tspan x="147.23" y="0">ARD FOR SHARING</tspan><tspan x="36" y="29.05">ON</tspan><tspan class="cls-8" x="68.62" y="29.05">T</tspan><tspan x="79.99" y="29.05">O</tspan><tspan class="cls-1" x="96.68" y="29.05">L</tspan><tspan class="cls-5" x="107.16" y="29.05">OGI</tspan><tspan class="cls-2" x="145.27" y="29.05">C</tspan><tspan class="cls-7" x="159.41" y="29.05">AL </tspan><tspan class="cls-11" x="190.79" y="29.05">M</tspan><tspan x="210.01" y="29.05">APPINGS</tspan></text>
</svg>