<svg id="Layer_1" data-name="Layer 1" xmlns="http://www.w3.org/2000/svg" viewBox="0 0 220.47 226.08"><defs><style>.cls-1{fill:#fff;}.cls-2{fill:#c6c6c5;}</style></defs><path class="cls-1" d="M13.89,210v-.58a6,6,0,0,0,2.59.57c1.62,0,2.33-.66,2.33-1.71s-.66-1.41-1.85-1.76l-.74-.24c-1.46-.44-2.18-1-2.18-2.29s1-2.1,2.8-2.1a5.3,5.3,0,0,1,2.26.46V203a5.29,5.29,0,0,0-2.29-.48c-1.34,0-2,.59-2,1.46s.41,1.34,1.7,1.72l.75.23c1.41.42,2.29.93,2.29,2.34s-.9,2.36-3,2.36A5.84,5.84,0,0,1,13.89,210Z"/><path class="cls-1" d="M21.16,202.05h.76v8.44h-.76Z"/><path class="cls-1" d="M24,202.05H25.1l3,7.51h.05l3-7.51h1.14v8.44H31.6v-7.56h0l-3.1,7.56h-.7l-3.09-7.56h0v7.56H24Z"/><path class="cls-1" d="M34.43,202.05H37c2.2,0,3.1.9,3.1,2.43S39,207,37.15,207h-2v3.54h-.73ZM37,206.37c1.59,0,2.28-.63,2.28-1.84s-.58-1.9-2.36-1.9H35.16v3.74Z"/><path class="cls-1" d="M41.44,202.05h.75v7.86h4.48v.58H41.44Z"/><path class="cls-1" d="M48,202.05h5.44v.58H48.79v3.23H52.4v.58H48.79v3.47h4.7v.58H48Z"/><path class="cls-1" d="M57.82,210v-.58a6,6,0,0,0,2.59.57c1.62,0,2.33-.66,2.33-1.71s-.65-1.41-1.84-1.76l-.75-.24c-1.46-.44-2.18-1-2.18-2.29s1-2.1,2.8-2.1a5.3,5.3,0,0,1,2.26.46V203a5.29,5.29,0,0,0-2.29-.48c-1.34,0-2,.59-2,1.46s.41,1.34,1.7,1.72l.75.23c1.41.42,2.29.93,2.29,2.34s-.9,2.36-3,2.36A5.84,5.84,0,0,1,57.82,210Z"/><path class="cls-1" d="M67.26,202.63h-3v-.58H71v.58H68v7.86h-.76Z"/><path class="cls-1" d="M74,202.05h.74l3.44,8.44h-.78l-1.1-2.68h-4l-1.08,2.68h-.72Zm-1.43,5.17h3.5L74.3,203Z"/><path class="cls-1" d="M79.33,202.05h.88l5.05,7.3h0v-7.3H86v8.44h-.78L80,203h0v7.5h-.67Z"/><path class="cls-1" d="M88,202.05h2.58c2.89,0,4.41,1.3,4.41,4.07v.18c0,2.75-1.38,4.19-4.4,4.19H88Zm2.61,7.85c2.46,0,3.58-1.07,3.58-3.51v-.27c0-2.52-1.26-3.47-3.68-3.47H88.76v7.25Z"/><path class="cls-1" d="M99.1,202.05h.73l3.45,8.44h-.79l-1.1-2.68h-4l-1.08,2.68h-.72Zm-1.44,5.17h3.5L99.42,203Z"/><path class="cls-1" d="M104.42,202.05H107c2,0,3,.91,3,2.31a2.13,2.13,0,0,1-2,2.22v0l2.61,3.87h-.86l-2.49-3.75h-2.08v3.75h-.75Zm2.56,4.13c1.66,0,2.2-.73,2.2-1.82s-.6-1.73-2.21-1.73h-1.8v3.55Z"/><path class="cls-1" d="M111.87,202.05h2.57c2.89,0,4.42,1.3,4.42,4.07v.18c0,2.75-1.39,4.19-4.4,4.19h-2.59Zm2.6,7.85c2.46,0,3.58-1.07,3.58-3.51v-.27c0-2.52-1.25-3.47-3.68-3.47h-1.75v7.25Z"/><path class="cls-1" d="M123.72,202.05H129v.58h-4.56v3.3H128v.6h-3.53v4h-.75Z"/><path class="cls-1" d="M129.94,206.37v-.19c0-2.7,1.53-4.25,4-4.25s4,1.5,4,4.25v.19c0,2.68-1.54,4.25-4,4.25S129.94,209.12,129.94,206.37Zm7.19.1v-.29c0-2.29-1-3.66-3.21-3.67s-3.18,1.36-3.18,3.54v.3c0,2.29,1,3.69,3.21,3.69S137.13,208.67,137.13,206.47Z"/><path class="cls-1" d="M139.46,202.05h2.59c2,0,3,.91,3,2.31a2.13,2.13,0,0,1-2,2.22v0l2.6,3.87h-.86l-2.49-3.75h-2.07v3.75h-.75Zm2.56,4.13c1.66,0,2.2-.73,2.2-1.82s-.61-1.73-2.22-1.73h-1.79v3.55Z"/><path class="cls-1" d="M149.61,210v-.58a6,6,0,0,0,2.59.57c1.62,0,2.33-.66,2.33-1.71s-.65-1.41-1.84-1.76l-.75-.24c-1.46-.44-2.18-1-2.18-2.29s1-2.1,2.8-2.1a5.3,5.3,0,0,1,2.26.46V203a5.29,5.29,0,0,0-2.29-.48c-1.34,0-2,.59-2,1.46s.41,1.34,1.7,1.72l.75.23c1.41.42,2.29.93,2.29,2.34s-.9,2.36-3,2.36A5.84,5.84,0,0,1,149.61,210Z"/><path class="cls-1" d="M156.85,202.05h.73v3.76h5.17v-3.76h.74v8.44h-.74v-4.1h-5.17v4.1h-.73Z"/><path class="cls-1" d="M168.11,202.05h.74l3.44,8.44h-.79l-1.09-2.68h-4l-1.08,2.68h-.72Zm-1.44,5.17h3.5L168.43,203Z"/><path class="cls-1" d="M173.44,202.05H176c2.05,0,3,.91,3,2.31a2.13,2.13,0,0,1-2,2.22v0l2.6,3.87h-.86l-2.49-3.75h-2.07v3.75h-.75Zm2.56,4.13c1.66,0,2.2-.73,2.2-1.82s-.61-1.73-2.21-1.73h-1.8v3.55Z"/><path class="cls-1" d="M180.92,202.05h.77v8.44h-.77Z"/><path class="cls-1" d="M183.76,202.05h.89l5,7.3h0v-7.3h.69v8.44h-.77l-5.16-7.5h0v7.5h-.68Z"/><path class="cls-1" d="M191.92,206.41v-.19c0-3,1.83-4.29,4.27-4.29a5.43,5.43,0,0,1,2.36.46V203a5.45,5.45,0,0,0-2.41-.48c-2.38,0-3.41,1.51-3.41,3.61v.26c0,2.22.87,3.64,3.44,3.64a6.81,6.81,0,0,0,2-.28v-2.6H196v-.58h2.87v3.61a8.82,8.82,0,0,1-2.74.44C193.47,210.62,191.92,209.22,191.92,206.41Z"/><path class="cls-1" d="M43.54,219.37v-.19c0-2.7,1.53-4.25,4-4.25s4,1.5,4,4.25v.19c0,2.68-1.54,4.25-4,4.25S43.54,222.12,43.54,219.37Zm7.19.1v-.29c0-2.29-1-3.66-3.21-3.67s-3.18,1.36-3.18,3.54v.3c0,2.29,1,3.69,3.21,3.69S50.73,221.67,50.73,219.47Z"/><path class="cls-1" d="M53.07,215.05H54l5,7.3h0v-7.3h.69v8.44h-.77L53.78,216h0v7.5h-.68Z"/><path class="cls-1" d="M64,215.63H61v-.58h6.79v.58h-3v7.86H64Z"/><path class="cls-1" d="M68.46,219.37v-.19c0-2.7,1.53-4.25,4-4.25s4,1.5,4,4.25v.19c0,2.68-1.54,4.25-4,4.25S68.46,222.12,68.46,219.37Zm7.19.1v-.29c0-2.29-1.05-3.66-3.21-3.67s-3.18,1.36-3.18,3.54v.3c0,2.29,1,3.69,3.21,3.69S75.65,221.67,75.65,219.47Z"/><path class="cls-1" d="M78,215.05h.74v7.86h4.49v.58H78Z"/><path class="cls-1" d="M84.05,219.37v-.19c0-2.7,1.54-4.25,4-4.25s4,1.5,4,4.25v.19c0,2.68-1.54,4.25-4,4.25S84.05,222.12,84.05,219.37Zm7.2.1v-.29c0-2.29-1.06-3.66-3.21-3.67s-3.19,1.36-3.19,3.54v.3c0,2.29,1.05,3.69,3.21,3.69S91.25,221.67,91.25,219.47Z"/><path class="cls-1" d="M93,219.41v-.19c0-3,1.83-4.29,4.27-4.29a5.43,5.43,0,0,1,2.36.46V216a5.45,5.45,0,0,0-2.41-.48c-2.38,0-3.41,1.51-3.41,3.61v.26c0,2.22.87,3.64,3.44,3.64a6.81,6.81,0,0,0,2-.28v-2.6H97.15v-.58H100v3.61a8.82,8.82,0,0,1-2.74.44C94.59,223.62,93,222.22,93,219.41Z"/><path class="cls-1" d="M104,220.05l-3.11-5h.79l2.73,4.36h0l2.69-4.36h.75l-3.12,5v3.44H104Z"/><path class="cls-1" d="M112.39,215.05h1.1l3.05,7.51h0l3-7.51h1.13v8.44H120v-7.56h0l-3.1,7.56h-.7l-3.09-7.56h0v7.56h-.67Z"/><path class="cls-1" d="M125.38,215.05h.73l3.45,8.44h-.79l-1.09-2.68h-4l-1.08,2.68h-.72Zm-1.44,5.17h3.5L125.7,216Z"/><path class="cls-1" d="M130.72,215.05h2.56c2.2,0,3.1.9,3.1,2.43s-1.09,2.47-2.93,2.47h-2v3.54h-.73Zm2.58,4.32c1.59,0,2.28-.63,2.28-1.84s-.58-1.9-2.37-1.9h-1.76v3.74Z"/><path class="cls-1" d="M137.75,215.05h2.56c2.2,0,3.1.9,3.1,2.43s-1.09,2.47-2.94,2.47h-2v3.54h-.73Zm2.57,4.32c1.59,0,2.29-.63,2.29-1.84s-.58-1.9-2.37-1.9h-1.76v3.74Z"/><path class="cls-1" d="M144.81,215.05h.76v8.44h-.76Z"/><path class="cls-1" d="M147.64,215.05h.89l5.05,7.3h0v-7.3h.7v8.44h-.78l-5.16-7.5h0v7.5h-.68Z"/><path class="cls-1" d="M155.81,219.41v-.19c0-3,1.82-4.29,4.26-4.29a5.43,5.43,0,0,1,2.36.46V216a5.43,5.43,0,0,0-2.4-.48c-2.38,0-3.42,1.51-3.42,3.61v.26c0,2.22.87,3.64,3.44,3.64a6.75,6.75,0,0,0,2-.28v-2.6h-2.1v-.58h2.86v3.61a8.82,8.82,0,0,1-2.74.44C157.36,223.62,155.81,222.22,155.81,219.41Z"/><path class="cls-1" d="M164,223v-.58a5.93,5.93,0,0,0,2.59.57c1.62,0,2.32-.66,2.32-1.71s-.65-1.41-1.84-1.76l-.75-.24c-1.45-.44-2.17-1-2.17-2.29s.94-2.1,2.8-2.1a5.28,5.28,0,0,1,2.25.46V216a5.24,5.24,0,0,0-2.28-.48c-1.34,0-2,.59-2,1.46s.42,1.34,1.7,1.72l.75.23c1.41.42,2.3.93,2.3,2.34s-.9,2.36-3,2.36A5.81,5.81,0,0,1,164,223Z"/><path class="cls-2" d="M149.23,57.15c-2.53.18-5,.39-7.58.68s-5,.67-7.56,1.09c-1.25.21-2.51.46-3.76.7s-2.5.54-3.73.86-2.49.61-3.71,1-2.46.7-3.68,1.11A102.71,102.71,0,0,0,105,68.43a106.21,106.21,0,0,0-13.1,8,117.49,117.49,0,0,0-11.78,9.78A132.2,132.2,0,0,0,69.72,97.38l-2.39,3c-.78,1-1.54,2-2.3,3l-.15.21c.2.2.4.41.58.63l.26-.28c.86-.92,1.69-1.87,2.55-2.79l2.62-2.71c.85-.93,1.77-1.79,2.65-2.68l1.34-1.33c.44-.44.91-.86,1.37-1.29.93-.84,1.82-1.73,2.75-2.56l2.81-2.5a137.37,137.37,0,0,1,11.85-9.14,106.29,106.29,0,0,1,12.81-7.63,104.78,104.78,0,0,1,13.71-5.85,125,125,0,0,1,14.4-4.07q3.66-.81,7.37-1.46c2.47-.46,5-.83,7.45-1.2,2.8-.43,5.6-.8,8.42-1.17a5.16,5.16,0,0,1-.06-.79C154.92,56.85,152.08,57,149.23,57.15Z"/><path class="cls-2" d="M107.84,53.61a211.58,211.58,0,0,0,28.26,2.87c7.22.3,14.44.35,21.66.26a5.57,5.57,0,0,1,.05-1,6.18,6.18,0,0,1,.28-1.22l-.59-.2A55.69,55.69,0,0,1,151,51.47a26.74,26.74,0,0,1-10.21-8.68,19.34,19.34,0,0,1-1.6-2.89c-.25-.49-.42-1-.63-1.53s-.33-1.06-.52-1.59a29.33,29.33,0,0,1-1-6.74c-.08-1.15,0-2.32,0-3.5s.13-2.37.29-3.55c.07-.55.11-1.11.19-1.65a7.32,7.32,0,0,1-1.48-.48c-.21.57-.41,1.15-.58,1.73a37.25,37.25,0,0,0-1,3.63A33.34,33.34,0,0,0,134,30a25.78,25.78,0,0,0,.49,7.71c.16.63.3,1.27.51,1.9s.42,1.25.69,1.86a23.58,23.58,0,0,0,1.88,3.5l.57.82c.19.27.41.51.61.78l.63.76L140,48c.45.49.94.92,1.43,1.36s1,.83,1.53,1.23a27.84,27.84,0,0,0,6.76,3.64,36,36,0,0,0,4.11,1.27c-5.87-.55-11.75-1-17.6-1.57-9.36-.87-18.67-1.92-27.87-3.53a257,257,0,0,1-27.32-6.37c-6.89-2-13.7-4.27-20.52-6.62q-.15.41-.33.78a197.32,197.32,0,0,0,20.09,8.23A174.72,174.72,0,0,0,107.84,53.61Z"/><path class="cls-2" d="M59.91,47.87c.2.74.41,1.47.59,2.21s.36,1.48.52,2.22A105.25,105.25,0,0,1,63.2,70.43a138.63,138.63,0,0,1-.52,18.33c-.39,4.3-1,8.58-1.75,12.87a7.9,7.9,0,0,1,1,.21,80.79,80.79,0,0,0,3.21-12.76,89.3,89.3,0,0,0,1.23-18.77,75.44,75.44,0,0,0-3-18.62,49.4,49.4,0,0,0-3.5-8.79c-.39-.69-.75-1.39-1.18-2.06-.08-.14-.17-.27-.26-.41a6.38,6.38,0,0,1-1,.66c.36.8.7,1.61,1,2.44C59,45,59.51,46.4,59.91,47.87Z"/><path class="cls-1" d="M156.64,103.31a62.38,62.38,0,0,0,11.25-43.06,5,5,0,0,1-3.12,1.41c0,.31.07.62.09.93a59.35,59.35,0,0,1-10.74,38.75,8.24,8.24,0,0,0-8.27.47c-.59-1-1.17-2-1.73-3q-3.13-5.53-5.81-11.26a112.41,112.41,0,0,1-7.94-23.82l-.57-3.08-.46-3.1-.35-3.1-.23-3.12a70.33,70.33,0,0,1,.44-12.48l.2-1.55.28-1.53c.16-1,.43-2,.64-3.06.1-.52.27-1,.4-1.52s.26-1,.42-1.51c.34-1,.63-2,1-3a38.1,38.1,0,0,1,2.25-5A8.2,8.2,0,0,0,137.77,23a8.06,8.06,0,0,0,5.94-1.51A58.86,58.86,0,0,1,163,51.8a5,5,0,0,1,1.39-.22,4.89,4.89,0,0,1,.66.05,5.12,5.12,0,0,1,1.35.39,62.17,62.17,0,0,0-20.51-32.88A8.27,8.27,0,0,0,132,10.26,62.48,62.48,0,0,0,57.18,27.53a8.45,8.45,0,0,0-1.81-.47A8.28,8.28,0,0,0,47.7,40.3a9.65,9.65,0,0,0,.91,1,62.48,62.48,0,0,0,5.56,61.44,8.27,8.27,0,0,0,4.62,14.19,8.08,8.08,0,0,0,1.09.07,8.26,8.26,0,0,0,5.43-2c.39.34.79.67,1.19,1a63.81,63.81,0,0,0,7.23,5v.14c.57.33,1.14.66,1.73,1a62.87,62.87,0,0,0,30.13,7.69,62.17,62.17,0,0,0,26.11-5.69V124a62.48,62.48,0,0,0,13.76-8.65A8.16,8.16,0,0,0,150.4,117,8.28,8.28,0,0,0,157,103.69ZM133.86,14.15a5,5,0,0,1,5-4.38,5.17,5.17,0,0,1,.68,0,5.06,5.06,0,1,1-5.67,4.34ZM99.11,8.05a59.42,59.42,0,0,1,6.65-.37,58.63,58.63,0,0,1,25,5.58c0,.15-.06.31-.08.47a8.17,8.17,0,0,0,1,5.22,130.42,130.42,0,0,1-12.54,5.95,139.63,139.63,0,0,1-21,6.67A149.16,149.16,0,0,1,76.44,35c-4.61.38-9.24.53-13.89.5a8.26,8.26,0,0,0-2.62-6.25A59.16,59.16,0,0,1,99.11,8.05ZM49.27,34.6a5,5,0,1,1,8.07,4.68,5.05,5.05,0,0,1-8.07-4.68Zm15.61,74.79a5,5,0,0,1-10-1.33,5,5,0,1,1,10,1.33Zm66.82,11.08v-.08a58.81,58.81,0,0,1-26.11,6,59.52,59.52,0,0,1-26.69-6.32l-.67-.34-.88-.46-.64-.36c-.87-.49-1.72-1-2.56-1.52a61.23,61.23,0,0,1-5.63-4c-.42-.34-.83-.69-1.24-1a8,8,0,0,0,.8-2.59A8.27,8.27,0,0,0,56.89,101a59.28,59.28,0,0,1-5.51-58,8.59,8.59,0,0,0,2.9.53A8.23,8.23,0,0,0,59.08,42c4.47,6.11,9.15,12.06,14.2,17.74,3.4,3.91,7.09,7.56,10.83,11.17l.7.67.73.65L87,73.52l2.92,2.58c2,1.64,4,3.29,6,4.91s4.19,3.08,6.3,4.59,4.31,2.91,6.49,4.31l6.68,4c2.26,1.27,4.56,2.48,6.84,3.7a214,214,0,0,0,20.12,9,9,9,0,0,0-.21,1,8.24,8.24,0,0,0,1.12,5.37A58.91,58.91,0,0,1,131.7,120.47Zm11-14.82c-6.49-3.29-12.93-6.65-19.22-10.26l-3.3-2c-1.1-.66-2.22-1.28-3.31-2l-6.47-4.12L104.09,83c-2.07-1.5-4.1-3-6.15-4.57l-6-4.77c-1.93-1.68-3.88-3.32-5.78-5l-2.83-2.59-1.41-1.29c-.47-.44-.91-.89-1.37-1.34-1.81-1.8-3.68-3.56-5.44-5.41-5.25-5.37-10.29-11-15.33-16.6a8.24,8.24,0,0,0,2.64-4.85,99.26,99.26,0,0,0,14.11.61,110.22,110.22,0,0,0,22.28-2.89A106.88,106.88,0,0,0,120,26.89a89.61,89.61,0,0,0,12.25-7h0a7.68,7.68,0,0,0,1.32,1.35l-.47.7c-.3.45-.6.9-.86,1.38l-.82,1.4c-.26.48-.49,1-.74,1.45a47,47,0,0,0-4,12.37,67.43,67.43,0,0,0,.5,25.91,91.7,91.7,0,0,0,8.84,24.29,109.93,109.93,0,0,0,6.74,11c.68,1,1.38,1.92,2.1,2.86A8.29,8.29,0,0,0,142.71,105.65Zm12.69,3.74a5,5,0,0,1-10-1.33,5,5,0,0,1,1.94-3.34,4.94,4.94,0,0,1,3-1,5.17,5.17,0,0,1,.68,0,5.06,5.06,0,0,1,4.34,5.67Z"/><path class="cls-2" d="M165.5,48.42a8.28,8.28,0,1,0-2.18,16.41,8.11,8.11,0,0,0,1.09.08,8.28,8.28,0,0,0,1.09-16.49Zm3.91,8.87a5,5,0,1,1-10-1.33,5,5,0,1,1,10,1.33Z"/><path class="cls-1" d="M37.09,176.18c5.64,0,8.45-2.75,8.45-7.45,0-6.63-5.26-6.76-10.39-7.44-4.88-.63-9.7-1.82-9.7-9.58,0-6,3.88-9.76,11.33-9.76,7.76,0,11.08,3.69,11.08,9.7H44.79c-.12-4.51-2.38-6.76-7.95-6.76s-8.07,2.63-8.07,6.76c0,6.32,4.38,6.38,9.07,7,5.32.75,11,1.87,11,10,0,6.39-3.7,10.52-11.71,10.52-7.13,0-11.76-2.82-11.76-10.39h3.12C28.45,173.05,30.65,176.18,37.09,176.18Z"/><path class="cls-1" d="M64.88,176.18c5.63,0,8.45-2.75,8.45-7.45,0-6.63-5.26-6.76-10.39-7.44-4.88-.63-9.7-1.82-9.7-9.58,0-6,3.88-9.76,11.33-9.76,7.76,0,11.08,3.69,11.08,9.7H72.58c-.13-4.51-2.38-6.76-8-6.76s-8.07,2.63-8.07,6.76c0,6.32,4.38,6.38,9.07,7,5.32.75,11,1.87,11,10,0,6.39-3.7,10.52-11.71,10.52-7.13,0-11.77-2.82-11.77-10.39h3.13C56.24,173.05,58.43,176.18,64.88,176.18Z"/><path class="cls-1" d="M92.67,176.18c5.63,0,8.45-2.75,8.45-7.45,0-6.63-5.26-6.76-10.39-7.44-4.88-.63-9.7-1.82-9.7-9.58,0-6,3.88-9.76,11.33-9.76,7.76,0,11.08,3.69,11.08,9.7h-3.07c-.13-4.51-2.38-6.76-8-6.76s-8.08,2.63-8.08,6.76c0,6.32,4.39,6.38,9.08,7,5.32.75,11,1.87,11,10,0,6.39-3.69,10.52-11.7,10.52-7.14,0-11.77-2.82-11.77-10.39H84C84,173.05,86.22,176.18,92.67,176.18Z"/><path class="cls-1" d="M109.44,165.73v-10c0-10.32,3.69-13.64,11.58-13.64s11.58,3.07,11.58,13.83v9.83c0,10.14-3.69,13.71-11.58,13.71S109.44,176.37,109.44,165.73Zm20-.13v-9.7c0-7.88-1.25-10.89-8.45-10.89-6.76,0-8.45,3.07-8.45,10.77v9.7c0,7.89,1.25,11.08,8.45,11.08C127.78,176.56,129.47,173.3,129.47,165.6Z"/><path class="cls-1" d="M143.24,142.63l.31,3c1.94-2.63,5-3.63,9-3.63,5.39,0,8.52,2.25,9.83,5.38,3-4.57,6.51-5.38,10.52-5.38,9,0,11.2,4.75,11.2,13.39V179H181V155.28c0-7.76-1.5-10.46-8.39-10.46s-8.82,4.26-8.82,9.52V179h-3.13V155.28c0-6.83-1.5-10.46-8.39-10.46s-8.76,3.2-8.76,8.33V179h-3.13V142.63Z"/></svg>