<svg id="Layer_1" data-name="Layer 1" xmlns="http://www.w3.org/2000/svg" viewBox="0 0 373.67 155"><defs><style>.cls-1{fill:#231f20;}.cls-2{fill:#878787;}</style></defs><path class="cls-1" d="M171.27,104.4v-.57a6.08,6.08,0,0,0,2.59.56c1.62,0,2.32-.65,2.32-1.71s-.65-1.41-1.84-1.76l-.75-.24c-1.45-.44-2.17-1-2.17-2.29s.94-2.1,2.8-2.1a5.08,5.08,0,0,1,2.25.47v.6a5.2,5.2,0,0,0-2.28-.48c-1.34,0-2,.6-2,1.46s.42,1.35,1.71,1.73l.74.22c1.41.43,2.3.93,2.3,2.34s-.9,2.36-3,2.36A5.71,5.71,0,0,1,171.27,104.4Z"/><path class="cls-1" d="M178.53,96.42h.76v8.44h-.76Z"/><path class="cls-1" d="M181.37,96.42h1.11l3,7.51h0l3.05-7.51h1.13v8.44H189V97.3h0l-3.1,7.56h-.71l-3.08-7.56h0v7.56h-.68Z"/><path class="cls-1" d="M191.8,96.42h2.56c2.2,0,3.1.89,3.1,2.43s-1.09,2.46-2.93,2.46h-2v3.55h-.74Zm2.58,4.31c1.59,0,2.28-.63,2.28-1.83s-.58-1.9-2.37-1.9h-1.75v3.73Z"/><path class="cls-1" d="M198.82,96.42h.75v7.86h4.48v.58h-5.23Z"/><path class="cls-1" d="M205.42,96.42h5.44V97h-4.69v3.23h3.61v.58h-3.61v3.47h4.7v.58h-5.45Z"/><path class="cls-1" d="M215.2,104.4v-.57a6.11,6.11,0,0,0,2.59.56c1.62,0,2.32-.65,2.32-1.71s-.65-1.41-1.84-1.76l-.74-.24c-1.46-.44-2.18-1-2.18-2.29s.94-2.1,2.8-2.1a5.08,5.08,0,0,1,2.25.47v.6a5.2,5.2,0,0,0-2.28-.48c-1.34,0-2,.6-2,1.46s.42,1.35,1.71,1.73l.74.22c1.42.43,2.3.93,2.3,2.34s-.9,2.36-3,2.36A5.71,5.71,0,0,1,215.2,104.4Z"/><path class="cls-1" d="M224.64,97h-3v-.58h6.8V97h-3v7.86h-.76Z"/><path class="cls-1" d="M231.36,96.42h.74l3.44,8.44h-.79l-1.09-2.68h-4l-1.08,2.68h-.72Zm-1.44,5.17h3.5l-1.74-4.28Z"/><path class="cls-1" d="M236.7,96.42h.89l5,7.29h0V96.42h.7v8.44h-.78l-5.16-7.51h0v7.51h-.68Z"/><path class="cls-1" d="M245.39,96.42H248c2.89,0,4.41,1.29,4.41,4.06v.19c0,2.74-1.38,4.19-4.4,4.19h-2.59Zm2.6,7.85c2.47,0,3.59-1.07,3.59-3.51v-.28c0-2.51-1.26-3.47-3.68-3.47h-1.76v7.26Z"/><path class="cls-1" d="M256.47,96.42h.74l3.44,8.44h-.78l-1.1-2.68h-4l-1.08,2.68H253ZM255,101.59h3.5l-1.75-4.28Z"/><path class="cls-1" d="M261.8,96.42h2.59c2.05,0,3,.9,3,2.3a2.13,2.13,0,0,1-2,2.23v0l2.6,3.88h-.85l-2.5-3.75h-2.07v3.75h-.75Zm2.56,4.12c1.66,0,2.2-.73,2.2-1.82S266,97,264.35,97h-1.8v3.54Z"/><path class="cls-1" d="M269.25,96.42h2.57c2.89,0,4.41,1.29,4.41,4.06v.19c0,2.74-1.38,4.19-4.4,4.19h-2.58Zm2.6,7.85c2.46,0,3.58-1.07,3.58-3.51v-.28c0-2.51-1.26-3.47-3.68-3.47H270v7.26Z"/><path class="cls-1" d="M281.1,96.42h5.3V97h-4.55v3.29h3.53v.61h-3.53v4h-.75Z"/><path class="cls-1" d="M287.32,100.73v-.19c0-2.7,1.53-4.25,4-4.25s4,1.5,4,4.25v.19c0,2.68-1.53,4.25-4,4.25S287.32,103.49,287.32,100.73Zm7.19.1v-.29c0-2.28-1.05-3.66-3.21-3.67s-3.18,1.36-3.18,3.55v.3c0,2.29,1.05,3.68,3.21,3.68S294.51,103,294.51,100.83Z"/><path class="cls-1" d="M296.83,96.42h2.59c2.05,0,3,.9,3,2.3a2.13,2.13,0,0,1-2,2.23v0l2.6,3.88h-.86l-2.49-3.75h-2.08v3.75h-.75Zm2.57,4.12c1.66,0,2.2-.73,2.2-1.82S301,97,299.38,97h-1.8v3.54Z"/><path class="cls-1" d="M307,104.4v-.57a6.11,6.11,0,0,0,2.59.56c1.62,0,2.32-.65,2.32-1.71s-.65-1.41-1.84-1.76l-.74-.24c-1.46-.44-2.18-1-2.18-2.29s.94-2.1,2.8-2.1a5.08,5.08,0,0,1,2.25.47v.6a5.2,5.2,0,0,0-2.28-.48c-1.34,0-2,.6-2,1.46s.42,1.35,1.71,1.73l.74.22c1.42.43,2.3.93,2.3,2.34s-.9,2.36-3,2.36A5.71,5.71,0,0,1,307,104.4Z"/><path class="cls-1" d="M314.23,96.42H315v3.76h5.16V96.42h.75v8.44h-.75v-4.1H315v4.1h-.73Z"/><path class="cls-1" d="M325.49,96.42h.73l3.45,8.44h-.79l-1.09-2.68h-4l-1.08,2.68H322Zm-1.44,5.17h3.5l-1.74-4.28Z"/><path class="cls-1" d="M330.82,96.42h2.59c2,0,3,.9,3,2.3a2.14,2.14,0,0,1-2,2.23v0l2.6,3.88h-.86l-2.49-3.75h-2.08v3.75h-.74Zm2.56,4.12c1.66,0,2.2-.73,2.2-1.82S335,97,333.36,97h-1.8v3.54Z"/><path class="cls-1" d="M338.3,96.42h.76v8.44h-.76Z"/><path class="cls-1" d="M341.14,96.42H342l5.05,7.29h0V96.42h.69v8.44H347l-5.17-7.51h0v7.51h-.68Z"/><path class="cls-1" d="M349.3,100.77v-.19c0-3,1.83-4.29,4.26-4.29a5.31,5.31,0,0,1,2.37.47v.6a5.48,5.48,0,0,0-2.41-.48c-2.38,0-3.42,1.51-3.42,3.61v.27c0,2.21.88,3.63,3.45,3.63a6.53,6.53,0,0,0,2-.28v-2.6h-2.11v-.58h2.87v3.61a8.82,8.82,0,0,1-2.74.44C350.85,105,349.3,103.59,349.3,100.77Z"/><path class="cls-1" d="M200.91,113.73v-.19c0-2.7,1.54-4.25,4-4.25s4,1.5,4,4.25v.19c0,2.68-1.53,4.25-4,4.25S200.91,116.49,200.91,113.73Zm7.2.1v-.29c0-2.28-1.05-3.66-3.21-3.67s-3.18,1.36-3.18,3.55v.3c0,2.29,1.05,3.68,3.21,3.68S208.11,116,208.11,113.83Z"/><path class="cls-1" d="M210.45,109.42h.88l5,7.29h0v-7.29h.69v8.44h-.77l-5.17-7.51h0v7.51h-.68Z"/><path class="cls-1" d="M221.35,110h-3v-.58h6.8V110h-3v7.86h-.76Z"/><path class="cls-1" d="M225.83,113.73v-.19c0-2.7,1.54-4.25,4-4.25s4,1.5,4,4.25v.19c0,2.68-1.53,4.25-4,4.25S225.83,116.49,225.83,113.73Zm7.2.1v-.29c0-2.28-1.05-3.66-3.21-3.67s-3.18,1.36-3.18,3.55v.3c0,2.29,1.05,3.68,3.21,3.68S233,116,233,113.83Z"/><path class="cls-1" d="M235.35,109.42h.75v7.86h4.48v.58h-5.23Z"/><path class="cls-1" d="M241.43,113.73v-.19c0-2.7,1.53-4.25,4-4.25s4,1.5,4,4.25v.19c0,2.68-1.54,4.25-4,4.25S241.43,116.49,241.43,113.73Zm7.19.1v-.29c0-2.28-1.05-3.66-3.21-3.67s-3.18,1.36-3.18,3.55v.3c0,2.29,1.05,3.68,3.21,3.68S248.62,116,248.62,113.83Z"/><path class="cls-1" d="M250.42,113.77v-.19c0-3,1.83-4.29,4.26-4.29a5.31,5.31,0,0,1,2.37.47v.6a5.48,5.48,0,0,0-2.41-.48c-2.38,0-3.42,1.51-3.42,3.61v.27c0,2.21.88,3.63,3.45,3.63a6.53,6.53,0,0,0,2-.28v-2.6h-2.11v-.58h2.87v3.61a8.82,8.82,0,0,1-2.74.44C252,118,250.42,116.59,250.42,113.77Z"/><path class="cls-1" d="M261.42,114.41l-3.11-5h.79l2.72,4.35h0l2.69-4.35h.74l-3.11,5v3.45h-.75Z"/><path class="cls-1" d="M269.76,109.42h1.11l3.05,7.51h0l3-7.51h1.14v8.44h-.76V110.3h0l-3.1,7.56h-.7l-3.09-7.56h0v7.56h-.68Z"/><path class="cls-1" d="M282.76,109.42h.73l3.45,8.44h-.79l-1.1-2.68h-4L280,117.86h-.72Zm-1.44,5.17h3.5l-1.74-4.28Z"/><path class="cls-1" d="M288.1,109.42h2.56c2.2,0,3.1.89,3.1,2.43s-1.1,2.46-2.94,2.46h-2v3.55h-.73Zm2.57,4.31c1.59,0,2.29-.63,2.29-1.83s-.59-1.9-2.37-1.9h-1.76v3.73Z"/><path class="cls-1" d="M295.13,109.42h2.56c2.2,0,3.1.89,3.1,2.43s-1.1,2.46-2.94,2.46h-2v3.55h-.73Zm2.57,4.31c1.59,0,2.28-.63,2.28-1.83s-.58-1.9-2.36-1.9h-1.76v3.73Z"/><path class="cls-1" d="M302.18,109.42h.76v8.44h-.76Z"/><path class="cls-1" d="M305,109.42h.89l5,7.29h0v-7.29h.69v8.44h-.77l-5.16-7.51h0v7.51H305Z"/><path class="cls-1" d="M313.18,113.77v-.19c0-3,1.83-4.29,4.27-4.29a5.26,5.26,0,0,1,2.36.47v.6a5.48,5.48,0,0,0-2.41-.48c-2.38,0-3.41,1.51-3.41,3.61v.27c0,2.21.87,3.63,3.44,3.63a6.48,6.48,0,0,0,2-.28v-2.6h-2.11v-.58h2.87v3.61a8.82,8.82,0,0,1-2.74.44C314.73,118,313.18,116.59,313.18,113.77Z"/><path class="cls-1" d="M321.35,117.4v-.57a6,6,0,0,0,2.58.56c1.62,0,2.33-.65,2.33-1.71s-.65-1.41-1.84-1.76l-.75-.24c-1.45-.44-2.17-1-2.17-2.29s.94-2.1,2.79-2.1a5.13,5.13,0,0,1,2.26.47v.6a5.24,5.24,0,0,0-2.28-.48c-1.35,0-2,.6-2,1.46s.41,1.35,1.7,1.73l.75.22c1.41.43,2.3.93,2.3,2.34s-.9,2.36-3,2.36A5.68,5.68,0,0,1,321.35,117.4Z"/><path class="cls-2" d="M122.92,69.39c-2.53.19-5.06.4-7.58.69s-5,.67-7.56,1.08c-1.26.22-2.51.46-3.76.7s-2.5.55-3.74.86-2.48.61-3.7,1-2.46.7-3.68,1.11a101.54,101.54,0,0,0-14.2,5.87,105,105,0,0,0-13.1,8,112.73,112.73,0,0,0-11.78,9.78,133.62,133.62,0,0,0-10.41,11.15l-2.39,3c-.78,1-1.54,2-2.3,3l-.15.21c.2.2.4.41.58.63l.25-.27c.87-.92,1.7-1.87,2.56-2.79l2.62-2.72c.85-.92,1.77-1.78,2.65-2.68l1.34-1.32c.44-.45.91-.86,1.37-1.29.92-.85,1.81-1.73,2.75-2.57l2.8-2.49a140.64,140.64,0,0,1,11.85-9.15,109.09,109.09,0,0,1,12.82-7.63A104.72,104.72,0,0,1,93.87,77.7a126.54,126.54,0,0,1,14.4-4.08c2.44-.54,4.9-1,7.37-1.46s5-.83,7.45-1.2c2.79-.42,5.6-.79,8.41-1.17q0-.39-.06-.78C128.6,69.09,125.76,69.21,122.92,69.39Z"/><path class="cls-2" d="M81.53,65.85a211.6,211.6,0,0,0,28.26,2.88c7.22.29,14.44.35,21.65.26a8.21,8.21,0,0,1,.05-1,6.79,6.79,0,0,1,.29-1.22l-.59-.21a54.91,54.91,0,0,1-6.49-2.85A26.78,26.78,0,0,1,114.49,55a19.24,19.24,0,0,1-1.6-2.88c-.25-.49-.42-1-.64-1.53s-.32-1.07-.51-1.59a29,29,0,0,1-1-6.74c-.08-1.16,0-2.33,0-3.51s.13-2.36.29-3.55c.06-.54.1-1.1.18-1.65a6.66,6.66,0,0,1-1.47-.48c-.21.57-.41,1.15-.59,1.74-.4,1.18-.66,2.4-1,3.63a33.17,33.17,0,0,0-.52,3.75,25.74,25.74,0,0,0,.48,7.71c.17.64.31,1.28.52,1.9s.42,1.26.69,1.86a21.81,21.81,0,0,0,1.88,3.5l.57.82c.18.28.41.52.61.78l.63.77.68.72a18.15,18.15,0,0,0,1.43,1.35,17.9,17.9,0,0,0,1.53,1.23,28,28,0,0,0,6.76,3.65,38.17,38.17,0,0,0,4.11,1.27c-5.87-.56-11.75-1-17.61-1.57-9.35-.87-18.66-1.92-27.87-3.54A252,252,0,0,1,54.77,56.3c-6.89-2-13.71-4.27-20.53-6.61a6.56,6.56,0,0,1-.32.77A199.71,199.71,0,0,0,54,58.7,174.69,174.69,0,0,0,81.53,65.85Z"/><path class="cls-2" d="M33.6,60.12c.2.73.41,1.46.59,2.2s.36,1.48.52,2.23a105,105,0,0,1,2.18,18.13A138.43,138.43,0,0,1,36.37,101c-.39,4.3-1,8.58-1.75,12.87a6.46,6.46,0,0,1,1,.22,82.18,82.18,0,0,0,3.21-12.76,89.4,89.4,0,0,0,1.23-18.78,75.44,75.44,0,0,0-3-18.62,50,50,0,0,0-3.5-8.79c-.39-.69-.75-1.39-1.18-2-.08-.14-.18-.28-.26-.41a7.13,7.13,0,0,1-1,.65c.36.81.7,1.62,1,2.44C32.71,57.21,33.2,58.65,33.6,60.12Z"/><path class="cls-1" d="M130.33,115.56A62.34,62.34,0,0,0,141.57,72.5a5,5,0,0,1-3.12,1.41c0,.31.08.62.1.93a59.32,59.32,0,0,1-10.74,38.74,8.46,8.46,0,0,0-2.64-.82,8.22,8.22,0,0,0-5.63,1.3c-.59-1-1.17-2-1.73-3-2.1-3.68-4-7.44-5.82-11.25A113.33,113.33,0,0,1,104.06,76l-.58-3.08-.45-3.1-.35-3.11-.23-3.12a70.21,70.21,0,0,1,.44-12.47l.2-1.55.28-1.54c.16-1,.43-2,.64-3.06.1-.51.26-1,.39-1.51s.27-1,.43-1.51c.34-1,.63-2,1-3a38.22,38.22,0,0,1,2.25-5,8.21,8.21,0,0,0,9.29-.29A58.9,58.9,0,0,1,136.71,64a5,5,0,0,1,1.38-.21,5,5,0,0,1,.67,0,4.63,4.63,0,0,1,1.34.4,62.05,62.05,0,0,0-20.5-32.88,8.27,8.27,0,0,0-12.08-10.9,8.1,8.1,0,0,0-1.87,2A62.48,62.48,0,0,0,30.87,39.77a8.37,8.37,0,0,0-1.82-.46,8.28,8.28,0,0,0-7.66,13.24,8.62,8.62,0,0,0,.91,1A62.5,62.5,0,0,0,27.86,115a8.26,8.26,0,0,0,4.62,14.18,8,8,0,0,0,1.09.08,8.28,8.28,0,0,0,5.43-2c.39.33.79.67,1.19,1a63.9,63.9,0,0,0,7.23,5v.13c.57.34,1.14.67,1.72,1A62.87,62.87,0,0,0,79.28,142a62.2,62.2,0,0,0,26.11-5.69v-.06a62.55,62.55,0,0,0,13.75-8.65,8.28,8.28,0,0,0,13.15-5.55,8.2,8.2,0,0,0-1.64-6.12A4,4,0,0,0,130.33,115.56ZM107.55,26.4a5,5,0,0,1,5-4.38,5.27,5.27,0,0,1,.68,0A5,5,0,0,1,116.56,24a5.05,5.05,0,0,1-.94,7.07,5,5,0,0,1-8.07-4.67ZM72.79,20.29a62.15,62.15,0,0,1,6.65-.36,58.81,58.81,0,0,1,25,5.57c0,.16-.06.31-.08.47a8.2,8.2,0,0,0,1,5.23,134.34,134.34,0,0,1-12.55,5.95,141.21,141.21,0,0,1-21,6.67,148.73,148.73,0,0,1-21.75,3.43c-4.6.38-9.24.53-13.88.5a8.28,8.28,0,0,0-2.62-6.26A59.18,59.18,0,0,1,72.79,20.29ZM23,46.85a5.06,5.06,0,0,1,5-4.38,5.12,5.12,0,0,1,.67,0,5,5,0,0,1,2.4,9A5,5,0,0,1,23,46.85Zm15.61,74.78A5.09,5.09,0,1,1,34.23,116a5,5,0,0,1,4.34,5.66Zm66.82,11.08v-.08a58.81,58.81,0,0,1-26.11,6,59.64,59.64,0,0,1-26.69-6.31l-.67-.34-.88-.47-.64-.36c-.87-.48-1.72-1-2.56-1.51a61.91,61.91,0,0,1-5.63-4l-1.24-1a8.06,8.06,0,0,0,.8-2.59,8.27,8.27,0,0,0-11.19-8.81,59.31,59.31,0,0,1-5.52-58,8,8,0,0,0,1.81.46,8.28,8.28,0,0,0,5.9-1.48C37.23,60.35,41.92,66.31,47,72c3.4,3.91,7.09,7.57,10.83,11.17.23.23.46.46.7.68l.73.64,1.46,1.29,2.92,2.58c2,1.65,4,3.29,6,4.92s4.19,3.08,6.3,4.58,4.31,2.91,6.49,4.32l6.68,4c2.26,1.27,4.56,2.47,6.84,3.69a211.49,211.49,0,0,0,20.12,9,7,7,0,0,0-.21,1,8.2,8.2,0,0,0,1.12,5.36A58.75,58.75,0,0,1,105.39,132.71Zm11-14.81c-6.5-3.29-12.94-6.65-19.23-10.26l-3.29-2c-1.1-.66-2.22-1.28-3.31-2L84.1,99.59l-6.32-4.32c-2.07-1.5-4.1-3-6.15-4.57l-6-4.77c-1.92-1.68-3.87-3.33-5.77-5L57,78.31,55.63,77c-.47-.44-.91-.9-1.37-1.34-1.81-1.81-3.68-3.56-5.45-5.42-5.24-5.37-10.28-11-15.32-16.6a8.18,8.18,0,0,0,2.64-4.84,102.24,102.24,0,0,0,14.11.61,110,110,0,0,0,22.27-2.9,105.19,105.19,0,0,0,21.21-7.4,88.37,88.37,0,0,0,12.25-7h0a8.45,8.45,0,0,0,1.31,1.36l-.46.7c-.3.45-.61.9-.87,1.37l-.81,1.41c-.26.48-.49,1-.74,1.45a47.06,47.06,0,0,0-4,12.36,67.48,67.48,0,0,0,.49,25.92A92.33,92.33,0,0,0,109.74,101a109.93,109.93,0,0,0,6.74,11c.68,1,1.38,1.91,2.1,2.86A8.11,8.11,0,0,0,116.4,117.9Zm12.68,3.73a5,5,0,1,1-5-5.71,5.19,5.19,0,0,1,.68,0,5,5,0,0,1,4.33,5.66Z"/><path class="cls-2" d="M139.19,60.67A8.28,8.28,0,1,0,137,77.08a8.08,8.08,0,0,0,1.09.07,8.28,8.28,0,0,0,1.09-16.48Zm3.91,8.87a5,5,0,1,1-1-3.73A5.05,5.05,0,0,1,143.1,69.54Z"/><path class="cls-1" d="M193.82,70.55c5.63,0,8.45-2.76,8.45-7.45,0-6.64-5.26-6.76-10.39-7.45-4.88-.62-9.7-1.81-9.7-9.58,0-6,3.88-9.76,11.33-9.76,7.76,0,11.08,3.69,11.08,9.7h-3.07c-.13-4.51-2.38-6.76-8-6.76S185.5,41.88,185.5,46c0,6.32,4.38,6.39,9.07,7,5.32.75,11,1.88,11,10,0,6.38-3.7,10.51-11.71,10.51-7.13,0-11.77-2.81-11.77-10.39h3.13C185.18,67.42,187.37,70.55,193.82,70.55Z"/><path class="cls-1" d="M221.61,70.55c5.63,0,8.45-2.76,8.45-7.45,0-6.64-5.26-6.76-10.39-7.45-4.88-.62-9.7-1.81-9.7-9.58,0-6,3.88-9.76,11.33-9.76,7.76,0,11.08,3.69,11.08,9.7h-3.07c-.13-4.51-2.38-6.76-7.95-6.76s-8.08,2.63-8.08,6.76c0,6.32,4.39,6.39,9.08,7,5.32.75,10.95,1.88,10.95,10,0,6.38-3.69,10.51-11.7,10.51-7.14,0-11.77-2.81-11.77-10.39H213C213,67.42,215.16,70.55,221.61,70.55Z"/><path class="cls-1" d="M249.4,70.55c5.63,0,8.45-2.76,8.45-7.45,0-6.64-5.26-6.76-10.39-7.45-4.88-.62-9.7-1.81-9.7-9.58,0-6,3.88-9.76,11.32-9.76,7.77,0,11.08,3.69,11.08,9.7H257.1c-.13-4.51-2.38-6.76-8-6.76s-8.08,2.63-8.08,6.76c0,6.32,4.38,6.39,9.08,7,5.32.75,11,1.88,11,10,0,6.38-3.69,10.51-11.7,10.51-7.14,0-11.77-2.81-11.77-10.39h3.13C240.76,67.42,243,70.55,249.4,70.55Z"/><path class="cls-1" d="M266.17,60.09v-10c0-10.33,3.69-13.64,11.58-13.64s11.58,3.06,11.58,13.83v9.82c0,10.14-3.69,13.71-11.58,13.71S266.17,70.74,266.17,60.09Zm20-.12v-9.7c0-7.89-1.25-10.89-8.45-10.89-6.76,0-8.45,3.06-8.45,10.76v9.7c0,7.89,1.25,11.08,8.45,11.08C284.51,70.92,286.2,67.67,286.2,60Z"/><path class="cls-1" d="M300,37l.31,2.94c1.94-2.63,5-3.63,9-3.63,5.39,0,8.52,2.25,9.83,5.38,3-4.57,6.51-5.38,10.52-5.38,8.95,0,11.2,4.76,11.2,13.39V73.36h-3.13V49.64c0-7.76-1.5-10.45-8.39-10.45s-8.82,4.25-8.82,9.51V73.36h-3.13V49.64c0-6.82-1.5-10.45-8.39-10.45s-8.76,3.19-8.76,8.32V73.36h-3.13V37Z"/></svg>