<svg id="Layer_1" data-name="Layer 1" xmlns="http://www.w3.org/2000/svg" viewBox="0 0 135.54 133.3"><defs><style>.cls-1{fill:#878787;}.cls-2{fill:#231f20;}</style></defs><path class="cls-1" d="M109.15,57.11c-2.53.19-5.06.4-7.59.69s-5,.67-7.55,1.08c-1.26.22-2.51.46-3.76.7s-2.5.55-3.74.86-2.48.61-3.71,1-2.46.7-3.67,1.11a101.54,101.54,0,0,0-14.2,5.87,103.56,103.56,0,0,0-13.1,8A115.18,115.18,0,0,0,40,86.19a135.2,135.2,0,0,0-10.4,11.15l-2.39,3c-.79,1-1.55,2-2.3,3l-.16.21a5.88,5.88,0,0,1,.58.64l.26-.28c.86-.92,1.69-1.87,2.56-2.79l2.61-2.72c.86-.92,1.77-1.78,2.66-2.68l1.33-1.32c.45-.45.92-.86,1.37-1.29.93-.85,1.82-1.73,2.75-2.57L41.72,88a139,139,0,0,1,11.85-9.15,109.09,109.09,0,0,1,12.82-7.63A104.15,104.15,0,0,1,80.1,65.42a126.38,126.38,0,0,1,14.39-4.08c2.45-.54,4.91-1,7.38-1.46s4.95-.83,7.45-1.2c2.79-.42,5.6-.79,8.41-1.17q0-.39-.06-.78C114.83,56.81,112,56.93,109.15,57.11Z"/><path class="cls-1" d="M67.75,53.57A211.77,211.77,0,0,0,96,56.45c7.23.29,14.44.35,21.66.26a8.21,8.21,0,0,1,0-1A7,7,0,0,1,118,54.5l-.59-.21a55.49,55.49,0,0,1-6.48-2.85,26.78,26.78,0,0,1-10.21-8.69,18.44,18.44,0,0,1-1.61-2.88c-.24-.49-.41-1-.63-1.53s-.33-1.07-.51-1.59A28.88,28.88,0,0,1,97,30c-.07-1.16,0-2.33,0-3.51s.12-2.36.29-3.55c.06-.54.1-1.1.18-1.65A6,6,0,0,1,96,20.82c-.21.57-.41,1.15-.59,1.74-.4,1.18-.67,2.4-1,3.63a35.61,35.61,0,0,0-.52,3.75,26.07,26.07,0,0,0,.49,7.71c.17.64.31,1.28.52,1.9s.41,1.26.68,1.86a21.86,21.86,0,0,0,1.89,3.5l.57.82c.18.28.41.52.61.78l.63.77L100,48a16.55,16.55,0,0,0,1.43,1.35,17.76,17.76,0,0,0,1.52,1.23,28.23,28.23,0,0,0,6.76,3.65,38.34,38.34,0,0,0,4.12,1.27c-5.88-.56-11.75-1-17.61-1.57-9.35-.87-18.66-1.92-27.87-3.54A252,252,0,0,1,41,44c-6.89-2-13.71-4.27-20.53-6.61a5.25,5.25,0,0,1-.33.77,197.56,197.56,0,0,0,20.1,8.24A174.57,174.57,0,0,0,67.75,53.57Z"/><path class="cls-1" d="M19.83,47.84c.2.73.41,1.46.59,2.21s.36,1.47.52,2.22A107.14,107.14,0,0,1,23.12,70.4a140.16,140.16,0,0,1-.52,18.32c-.4,4.3-1,8.58-1.76,12.87a6.59,6.59,0,0,1,1,.22A81,81,0,0,0,25,89.05a89.35,89.35,0,0,0,1.24-18.77,75.45,75.45,0,0,0-3-18.63,50.8,50.8,0,0,0-3.5-8.79c-.39-.69-.76-1.39-1.18-2l-.26-.41a7.81,7.81,0,0,1-1,.65c.36.81.7,1.62,1,2.45C18.94,44.93,19.43,46.37,19.83,47.84Z"/><path class="cls-2" d="M50.28,128.48c1,.23,1.57-.13,1.76-.94.26-1.14-.64-1.38-1.49-1.7s-1.6-.71-1.28-2c.24-1,1.06-1.53,2.34-1.22s1.76,1.08,1.52,2.11l-.53-.12c.16-.78-.14-1.26-1.1-1.49s-1.49.13-1.66.84c-.26,1.09.5,1.28,1.28,1.57s1.81.77,1.48,2.17A1.78,1.78,0,0,1,50.16,129c-1.23-.29-1.91-1-1.61-2.27l.54.13C48.92,127.59,49.17,128.22,50.28,128.48Zm6.23,1.15c1,.13,1.55-.28,1.66-1.11.16-1.16-.76-1.31-1.64-1.55s-1.66-.55-1.47-1.91c.14-1,.91-1.62,2.21-1.44s1.86.91,1.71,2l-.53-.07c.08-.79-.26-1.24-1.24-1.37s-1.47.27-1.57,1c-.15,1.11.61,1.22,1.42,1.44s1.88.59,1.68,2c-.15,1.12-.89,1.75-2.3,1.56-1.25-.17-2-.77-1.81-2.1l.55.08C55.07,128.87,55.38,129.47,56.51,129.63Zm6.32.54c1,0,1.51-.42,1.55-1.25,0-1.18-.88-1.23-1.79-1.39s-1.7-.39-1.64-1.76c0-1.06.75-1.7,2.07-1.65s1.93.73,1.89,1.79l-.55,0c0-.79-.37-1.21-1.35-1.25s-1.45.41-1.48,1.14c0,1.12.73,1.16,1.56,1.3s1.92.41,1.86,1.85c0,1.13-.72,1.83-2.14,1.78-1.26-.05-2.06-.58-2-1.92l.56,0C61.33,129.56,61.69,130.13,62.83,130.17Zm4.28-1.78-.1-1.77c-.1-1.82.52-2.45,1.91-2.53s2.07.43,2.18,2.33l.1,1.73c.1,1.79-.51,2.46-1.9,2.54S67.22,130.26,67.11,128.39Zm3.54-.23-.1-1.71c-.08-1.39-.33-1.91-1.6-1.84s-1.46.63-1.39,2l.1,1.71c.08,1.39.34,1.94,1.61,1.87S70.72,129.52,70.65,128.16Zm3-4.33.15.5a1.86,1.86,0,0,1,1.44-.94,1.71,1.71,0,0,1,1.89.61,2,2,0,0,1,1.64-1.29c1.56-.3,2.11.45,2.4,1.94l.8,4.11-.54.11-.8-4.12c-.27-1.35-.62-1.76-1.81-1.53s-1.39,1-1.21,2l.83,4.28-.54.1-.8-4.11c-.23-1.19-.62-1.77-1.81-1.54s-1.42.85-1.24,1.74l.87,4.49-.54.11-1.23-6.31Zm42.91-20.55A62.34,62.34,0,0,0,127.8,60.22a5,5,0,0,1-3.12,1.41c0,.31.07.62.1.93A59.38,59.38,0,0,1,114,101.3a8.55,8.55,0,0,0-2.64-.82,8.2,8.2,0,0,0-5.63,1.3c-.59-1-1.17-2-1.73-3-2.1-3.68-4-7.44-5.82-11.25a113.36,113.36,0,0,1-7.94-23.82l-.57-3.08-.46-3.1-.35-3.11-.22-3.12a70.21,70.21,0,0,1,.43-12.47l.21-1.55.27-1.54c.17-1,.44-2,.65-3.06.1-.51.26-1,.39-1.51s.27-1,.43-1.51c.34-1,.63-2,1-3a38.16,38.16,0,0,1,2.24-5,8.2,8.2,0,0,0,4.46,1.3,8.13,8.13,0,0,0,4.83-1.59,58.92,58.92,0,0,1,19.32,30.29,4.85,4.85,0,0,1,1.38-.21,5.12,5.12,0,0,1,.67,0,5.07,5.07,0,0,1,1.34.4,62.05,62.05,0,0,0-20.5-32.88A8.12,8.12,0,0,0,107,15.87,8.27,8.27,0,0,0,93.75,8.21a8.1,8.1,0,0,0-1.87,2A62.49,62.49,0,0,0,17.09,27.49,8.27,8.27,0,0,0,7.62,40.27a7.13,7.13,0,0,0,.91,1,62.53,62.53,0,0,0,5.55,61.45A8.3,8.3,0,0,0,19.8,117a8.3,8.3,0,0,0,5.43-2c.39.33.78.67,1.19,1A62.37,62.37,0,0,0,42,125.07h0a1.59,1.59,0,0,0,.69.16,1.6,1.6,0,0,0,.66-3.07h0a59.69,59.69,0,0,1-14.87-8.74c-.42-.33-.83-.68-1.24-1a8.59,8.59,0,0,0,.8-2.59A8.27,8.27,0,0,0,16.81,101a59.31,59.31,0,0,1-5.52-58,7.88,7.88,0,0,0,1.81.46,8.13,8.13,0,0,0,1.1.07A8.25,8.25,0,0,0,19,42C23.46,48.07,28.14,54,33.2,59.7c3.4,3.91,7.09,7.57,10.83,11.17.23.23.46.46.7.68l.73.64,1.46,1.29,2.92,2.58c2,1.65,4,3.3,6,4.92s4.18,3.08,6.3,4.58,4.3,2.91,6.49,4.32l6.68,4c2.26,1.27,4.55,2.47,6.84,3.69a210.37,210.37,0,0,0,20.12,9,8.55,8.55,0,0,0-.22,1,8.27,8.27,0,0,0,1.13,5.36,58.61,58.61,0,0,1-15.4,9.16h0a1.63,1.63,0,0,0-1,1.47,1.61,1.61,0,0,0,1.61,1.61,1.52,1.52,0,0,0,.71-.17,62.52,62.52,0,0,0,16.22-9.72,8.23,8.23,0,0,0,3.85,1.56,8.11,8.11,0,0,0,1.09.08,8.28,8.28,0,0,0,6.57-13.31C116.78,103.53,116.67,103.4,116.56,103.28Zm-96.1.41a5,5,0,0,1,3.34,1.93,5,5,0,1,1-7.07-.94,5,5,0,0,1,3.05-1A5.19,5.19,0,0,1,20.46,103.69ZM93.77,14.12a5,5,0,0,1,1.94-3.34,4.94,4.94,0,0,1,3.06-1,5,5,0,1,1-5,4.38ZM59,8a62,62,0,0,1,6.65-.36,58.84,58.84,0,0,1,25,5.57c0,.16-.07.31-.09.47a8.2,8.2,0,0,0,1.05,5.23,134.34,134.34,0,0,1-12.55,5.95,141.58,141.58,0,0,1-21,6.67A148.73,148.73,0,0,1,36.35,35c-4.61.38-9.24.53-13.89.5a8.27,8.27,0,0,0-2.61-6.26A59.18,59.18,0,0,1,59,8ZM13.52,40.24a5,5,0,0,1-3.34-1.94,5,5,0,0,1-1-3.73,5.05,5.05,0,0,1,5-4.38,4.87,4.87,0,0,1,.66,0,5.05,5.05,0,0,1,4.34,5.67,5,5,0,0,1-1.93,3.34A5,5,0,0,1,13.52,40.24ZM83.4,95.36l-3.3-2c-1.1-.66-2.21-1.28-3.3-2l-6.47-4.13L64,83c-2.06-1.5-4.09-3-6.14-4.57l-6-4.77C50,72,48,70.32,46.09,68.62L43.27,66l-1.41-1.29c-.47-.44-.92-.9-1.38-1.34C38.67,61.59,36.81,59.84,35,58c-5.25-5.37-10.28-11-15.32-16.6a8.23,8.23,0,0,0,2.64-4.84,102.17,102.17,0,0,0,14.11.61,110,110,0,0,0,22.27-2.9A105.19,105.19,0,0,0,80,26.85a88.52,88.52,0,0,0,12.25-7h0a8.51,8.51,0,0,0,1.32,1.36l-.47.7c-.3.45-.6.9-.86,1.37l-.81,1.41c-.26.48-.5,1-.75,1.45a47.81,47.81,0,0,0-4,12.36,67.68,67.68,0,0,0,.5,25.92A92.33,92.33,0,0,0,96,88.67a111.73,111.73,0,0,0,6.73,11c.69,1,1.39,1.92,2.1,2.86a8.19,8.19,0,0,0-2.17,3.1C96.13,102.33,89.69,99,83.4,95.36Zm31.91,14a5,5,0,1,1-10-1.33,5,5,0,1,1,10,1.33Z"/><path class="cls-1" d="M125.41,48.39a8.28,8.28,0,1,0,7.12,9.3A8.28,8.28,0,0,0,125.41,48.39Zm3.92,8.87a5,5,0,1,1-8.07-4.67,5,5,0,0,1,3-1,5.17,5.17,0,0,1,.68,0,5.06,5.06,0,0,1,4.34,5.67Z"/></svg>