<svg id="phenopacket" xmlns="http://www.w3.org/2000/svg" viewBox="0 0 124.56 144"><defs><style>.cls-1{fill:#fff;}.cls-2{fill:#231f20;}</style></defs><title>upheno_laptop_stickers_2019-10</title><polygon class="cls-1" points="62.28 144 0 108.002 0 35.998 62.28 0 124.56 35.998 124.56 108.002 62.28 144"/><polygon class="cls-1" points="3.013 106.254 62.28 140.51 121.547 106.254 121.547 37.746 62.28 3.489 3.013 37.746 3.013 106.254"/><path class="cls-2" d="M38.24,99.3124l-.0661-1.158a3.3542,3.3542,0,0,1-2.9447,1.3234c-2.7461,0-3.6064-1.1249-3.6064-3.871V88.7249h.9926v6.8984c0,2.3822.5956,3.077,2.68,3.077a2.4857,2.4857,0,0,0,2.8123-2.5476V88.7415H39.1V99.329Z" transform="translate(0.0791 0)"/><path class="cls-2" d="M49.7739,92.2684v3.441c0,2.5145-1.39,3.5732-3.7057,3.5732a3.4161,3.4161,0,0,1-2.713-.9594v5.1944l-.9926.8934V88.4636h.8933l.0993,1.158a3.3262,3.3262,0,0,1,2.9116-1.2242C48.7151,88.4305,49.7739,89.4892,49.7739,92.2684Zm-3.6395-2.9777c-2.0513.0331-2.7792,1.0257-2.7792,2.7792V95.577c-.0331,2.0183.5294,2.8785,2.713,2.8785s2.7131-.96,2.7131-2.7461V92.3148C48.7813,89.8863,47.9211,89.2907,46.1344,89.2907Z" transform="translate(0.0791 0)"/><path class="cls-2" d="M59.4052,99.4778V92.6952c0-2.25-.4632-3.11-2.6138-3.11-1.82,0-2.6469.7609-2.6469,2.68V99.147l-.9926.3308v-14.69l.9926.6286v4.4a3.2109,3.2109,0,0,1,2.6138-1.1249c2.6138,0,3.6394,1.0918,3.6394,4.0364v6.7495Z" transform="translate(0.0791 0)"/><path class="cls-2" d="M71.0051,96.5332c0,1.919-1.0919,2.9446-3.474,2.9446-2.5146,0-3.7057-1.0587-3.7057-3.97V92.6456c0-2.9115,1.1911-4.0365,3.7057-4.0365,2.713,0,3.6063,1.2242,3.6063,4.0365v1.5881H64.7849v1.1911c0,2.1837.5625,3.2094,2.7462,3.2094s2.5806-.86,2.5806-2.1506h.8934Zm-.761-3.11v-.7279c0-2.0513-.397-3.2755-2.7461-3.2755-2.1837,0-2.7462.9926-2.7462,3.2425v.794h5.4923Z" transform="translate(0.0791 0)"/><path class="cls-2" d="M75.3128,88.89l.0662,1.1249a3.3137,3.3137,0,0,1,2.9447-1.3235c2.7461,0,3.6063,1.125,3.6063,3.8711V99.147l-.9926.3308V92.5629c0-2.3822-.5955-3.077-2.68-3.077a2.4857,2.4857,0,0,0-2.8123,2.5476v7.4443h-.9926V88.89Z" transform="translate(0.0791 0)"/><path class="cls-2" d="M85.1923,95.4414V92.53c0-3.0108,1.1911-3.97,3.7056-3.97s3.7056.8933,3.7056,4.0365v2.8785c0,2.9446-1.1911,4.0033-3.7056,4.0033S85.1923,98.5514,85.1923,95.4414Zm6.4517-.0331V92.596c0-2.2829-.397-3.1763-2.713-3.1763-2.1837,0-2.713.8934-2.713,3.1432v2.8123c0,2.2829.397,3.2424,2.713,3.2424,2.1506,0,2.723-.9595,2.723-3.2093Z" transform="translate(0.0791 0)"/><path class="cls-2" d="M31.623,111.9082v-2.9115c0-3.0109,1.191-3.97,3.7056-3.97s3.7056.8933,3.7056,4.0364v2.8785c0,2.9446-1.1911,4.0034-3.7056,4.0034S31.623,115.0183,31.623,111.9082Zm6.4186-.0331v-2.8123c0-2.2829-.397-3.1762-2.713-3.1762-2.1837,0-2.7131.8933-2.7131,3.1431v2.8057c0,2.2829.3971,3.2424,2.7131,3.2424,2.1836.0067,2.7262-.9528,2.7262-3.2027Z" transform="translate(0.0791 0)"/><path class="cls-2" d="M41.4031,105.1918l.0662,1.1249a3.3137,3.3137,0,0,1,2.9447-1.3234c2.7461,0,3.6063,1.1249,3.6063,3.871v6.915h-.9926v-6.9216c0-2.3822-.5955-3.077-2.68-3.077a2.4857,2.4857,0,0,0-2.8123,2.5476v7.4443h-.9926V105.1852Z" transform="translate(0.0791 0)"/><path class="cls-2" d="M49.6911,100.2951l.9926.86v3.838H53.099v.86H50.6837v6.8819c0,1.9851.6617,2.3821,2.5807,2.25v.7941c-2.68.2316-3.5733-.6618-3.5733-3.044Z" transform="translate(0.0791 0)"/><path class="cls-2" d="M54.4886,111.9082v-2.9115c0-3.0109,1.1911-3.97,3.7056-3.97S61.9,105.92,61.9,109.0628v2.8785c0,2.9446-1.1911,4.0034-3.7056,4.0034S54.4886,115.0183,54.4886,111.9082Zm6.4187-.0331v-2.8123c0-2.2829-.3971-3.1762-2.7131-3.1762-2.1836,0-2.713.8933-2.713,3.1431v2.8057c0,2.2829.397,3.2424,2.713,3.2424C60.3448,115.0845,60.9073,114.125,60.9073,111.8751Z" transform="translate(0.0791 0)"/><path class="cls-2" d="M66.3036,115.8057c-2.4484.1324-2.8785-.6286-2.8785-3.0108v-12.44l.9926-.3308V112.828c0,1.8859.2316,2.1506,1.8859,2.1506Z" transform="translate(0.0791 0)"/><path class="cls-2" d="M67.584,111.9082v-2.9115c0-3.0109,1.1911-3.97,3.7056-3.97s3.7056.8933,3.7056,4.0364v2.8785c0,2.9446-1.1911,4.0034-3.7056,4.0034S67.584,115.0183,67.584,111.9082Zm6.4186-.0331v-2.8123c0-2.2829-.397-3.1762-2.713-3.1762-2.1837,0-2.713.8933-2.713,3.1431v2.8057c0,2.2829.397,3.2424,2.713,3.2424C73.4733,115.0845,74.0026,114.125,74.0026,111.8751Z" transform="translate(0.0791 0)"/><path class="cls-2" d="M77.3476,117.235c.0662,1.125.5294,1.82,2.4484,1.82,2.2167,0,2.8123-.9264,2.8123-3.11v-1.3565a3.0839,3.0839,0,0,1-2.9447,1.29c-2.3821,0-3.6063-.96-3.6063-3.6725v-3.3086c0-2.8785,1.1911-3.7718,3.7718-3.8049a2.9348,2.9348,0,0,1,2.8454,1.3235v-1.1978h.8933v10.753c0,2.9115-1.2573,3.97-3.8049,3.97-2.2168,0-3.2755-.7941-3.4078-2.6469h.9925v-.06Zm5.2276-8.0729c0-2.0513-.5955-3.2755-2.713-3.2755s-2.7793.7279-2.7793,2.9777v3.3086c.0331,2.1837.86,2.7461,2.68,2.7461,2.0182,0,2.7792-.9595,2.7792-2.7461l.0331-3.0108Z" transform="translate(0.0791 0)"/><path class="cls-2" d="M85.01,118.8562c1.4227.4632,2.3491.0993,2.8123-1.158l.5228-1.8925-3.11-10.6536,1.0918-.6617.96,4.9628,1.5882,4.93h.033l1.3566-4.93,1.29-4.3011,1.2242-.43-3.97,13.0689c-.5956,1.8859-1.7205,2.4483-3.8049,1.8528Z" transform="translate(0.0791 0)"/><path class="cls-2" d="M84.9309,54.2958a22.6012,22.6012,0,0,1-2.9049,9.5651A22.8293,22.8293,0,1,1,54.6606,31.05,19.5623,19.5623,0,0,1,60.05,24.27,28.3885,28.3885,0,1,0,90.0824,47.3874,19.5209,19.5209,0,0,1,84.9309,54.2958Z" transform="translate(0.0791 0)"/><path class="cls-2" d="M78.7141,33.3061l.4334.4467a2.7418,2.7418,0,0,1,.2382.2812,8.3344,8.3344,0,0,1-5.9091,13.2145,2.81,2.81,0,0,1-.3309,0l-1.4988-.0364a2.6452,2.6452,0,0,0-.7047.0728,2.9772,2.9772,0,0,0-1.2738.6948,2.7692,2.7692,0,0,0-.0959,3.9107,2.8252,2.8252,0,0,0,1.9619.88h0l1.9124.02a2.326,2.326,0,0,0,.2614,0A13.8762,13.8762,0,0,0,83.7894,30.4971l.0563-.0562-1.0091-1.0588A13.8962,13.8962,0,0,0,63.2,28.9288l-.03.03a13.9258,13.9258,0,0,0-4.2151,8.9564v.172l-.3871,22.4124A2.7694,2.7694,0,0,0,61.29,63.3149h.0073a2.7727,2.7727,0,0,0,2.8057-2.7064l.49-22.204v-.2415a8.1789,8.1789,0,0,1,14.1211-4.857Z" transform="translate(0.0791 0)"/><path class="cls-2" d="M72.6858,33.584a5.393,5.393,0,0,0-5.393,5.393h0V60.0064c0,4.0762-2.2366,6.6172-5.85,6.66-3.7188-.0364-5.8528-2.4748-5.8528-6.66V39.8472a2.4418,2.4418,0,0,0-4.88-.18q-.0033.09,0,.18V60.0064c0,6.8422,4.2681,11.4576,10.64,11.54h.1952c6.2863-.0861,10.6437-4.8074,10.6437-11.54V44.34c.1688,0,.3309.0265.5129.0265A5.3963,5.3963,0,0,0,72.97,33.5774q-.1337-.0033-.2672,0Zm-.0893,7.09a1.6973,1.6973,0,1,1,1.6973-1.6973,1.6973,1.6973,0,0,1-1.6973,1.6973Z" transform="translate(0.0791 0)"/></svg>