<svg id="Layer_1" data-name="Layer 1" xmlns="http://www.w3.org/2000/svg" viewBox="0 0 1280 640"><defs><style>.cls-1{fill:#4d4d4d;}.cls-2{fill:#fff;}.cls-3{fill:#ec9735;}</style></defs><rect class="cls-1" width="1280" height="640"/><path class="cls-2" d="M274.11,321.17q-.41-11.58-.88-23.15,7.18.36,14.28.63c4.73.18,9.5.27,14.28.27s9.52-.09,14.2-.27,9.42-.39,14.2-.63a31.54,31.54,0,0,0,0,10.85q-5.1-.36-9.33-.72l-8.94-.73q-4.69-.36-10.29-.63t-13.4-.27c-.11,3.85-.24,7.54-.4,11s-.24,7.48-.24,11.93q0,7.06.08,13.75t.08,10.13q7,0,12.61-.18t10.21-.45c3.08-.18,5.93-.36,8.53-.54s5.08-.4,7.42-.64a32.14,32.14,0,0,0-.48,5.6,31,31,0,0,0,.48,5.43q-4.14-.54-9.65-.9t-11-.46c-3.67-.06-7.13-.11-10.37-.18s-5.82-.08-7.74-.08c0,1.08,0,2.26-.08,3.52s-.08,2.87-.08,4.79v17.91q0,10.31.08,17t.24,10.13h11.17q6.06,0,11.89-.28t11-.72a64,64,0,0,0,9-1.35,14.51,14.51,0,0,0-.4,2.8c0,1-.08,2-.08,2.8a18.8,18.8,0,0,0,.48,4.7q-7.19-.36-14.28-.36h-29q-7.19,0-14.52.36.48-11.56.88-23.05t.4-23.43v-31.1Q274.51,332.74,274.11,321.17Z"/><path class="cls-2" d="M403.19,323.61q6.3-11.67,13-25.59A19.82,19.82,0,0,0,428,298q-9.09,14.28-17.87,28t-16.91,28.39q9.09,17.55,18.27,34.37t18.75,33.45a28.07,28.07,0,0,0-4.47-.36h-8.94a27.85,27.85,0,0,0-4.46.36q-6.39-13.2-12.69-26.86A302.92,302.92,0,0,0,385.24,368q-8.13,13.74-15.16,27.39t-13.72,26.86a14.08,14.08,0,0,0-3.11-.36h-5.59a14.15,14.15,0,0,0-3.11.36q9.58-15,18.67-30.38t18.19-31.29q-8.3-15.91-16.67-31.29T347.59,298c1.48.24,2.92.45,4.3.63a34.54,34.54,0,0,0,8.62,0c1.38-.18,2.82-.39,4.31-.63q5.26,12.11,11.33,24t13.4,25.59Q396.89,335.27,403.19,323.61Z"/><path class="cls-2" d="M447.23,333a57.85,57.85,0,0,1,12.28-20.34A52,52,0,0,1,478.42,300a69.35,69.35,0,0,1,48.35,0,51.85,51.85,0,0,1,18.9,12.66A57.87,57.87,0,0,1,558,333a87.7,87.7,0,0,1,0,54.8,58,58,0,0,1-12.29,20.35,49.31,49.31,0,0,1-18.9,12.39,73.83,73.83,0,0,1-48.35,0,49.42,49.42,0,0,1-18.91-12.39,58,58,0,0,1-12.28-20.35,87.7,87.7,0,0,1,0-54.8Zm96.13,1.45A51.16,51.16,0,0,0,534,316.37a37.37,37.37,0,0,0-14-10.58,44.14,44.14,0,0,0-17.48-3.43,43.66,43.66,0,0,0-17.31,3.43,37.37,37.37,0,0,0-14,10.58,51.16,51.16,0,0,0-9.33,18.09q-3.36,10.94-3.35,26t3.35,26a51,51,0,0,0,9.33,18.08,37.16,37.16,0,0,0,14,10.58,43.67,43.67,0,0,0,17.31,3.44A44.14,44.14,0,0,0,520,415a37.16,37.16,0,0,0,14-10.58,51,51,0,0,0,9.33-18.08q3.35-11,3.35-26T543.36,334.46Z"/><path class="cls-2" d="M617.16,345.58q11.24,24.24,23.53,49.74,1.59-3.44,4.63-9.86t7-14.74q4-8.31,8.54-18t9.25-19.63q4.7-9.94,9.33-19.53t8.62-17.91h2.07q1.76,17.37,3.27,33.56T696.53,361q1.61,15.65,3.2,30.93t3.51,30.29a20.33,20.33,0,0,0-3.75-.36H692a20.16,20.16,0,0,0-3.75.36q-1.75-24-3.51-46.66t-4.31-46.12h-.32q-11,22.8-21.62,45.31T638.3,421.9h-1.44q-9.57-22.78-20-45.66t-21-46.76h-.31q-1.12,11.22-2.48,24.33t-2.47,25.86q-1.12,12.75-1.92,24.06t-.79,18.53a43.5,43.5,0,0,0-11.17,0q2.07-14.64,4.31-30.92t4.3-32.74q2.07-16.46,3.83-32.46t3-30.48h2.72Q605.91,321.36,617.16,345.58Z"/><path class="cls-3" d="M726.86,321.44q-.4-11.49-.88-23.42,2.07.36,4,.63a27.3,27.3,0,0,0,7.66,0q1.92-.27,4-.63-.48,11.93-.88,23.42t-.4,23.42V376q0,11.94.4,23.52t.88,22.78c-2.45-.24-5-.36-7.82-.36s-5.37.12-7.82.36q.48-11.2.88-22.78t.4-23.52v-31.1Q727.26,332.92,726.86,321.44Z"/><path class="cls-2" d="M770.81,405.35a28.19,28.19,0,0,0,5.26,6.06,26.37,26.37,0,0,0,7.27,4.44,24,24,0,0,0,9.25,1.71,21.16,21.16,0,0,0,9.49-2.08,21.84,21.84,0,0,0,7.18-5.6,25.39,25.39,0,0,0,4.55-8.33,32.16,32.16,0,0,0,1.59-10.21q0-8.32-3.74-13.2a31.82,31.82,0,0,0-9.34-8.14,104,104,0,0,0-12.05-6,59.75,59.75,0,0,1-12-6.78,34.32,34.32,0,0,1-9.34-10.4q-3.75-6.33-3.75-17a38.26,38.26,0,0,1,2.4-13.84,30.1,30.1,0,0,1,6.94-10.76,32.07,32.07,0,0,1,10.93-7.05,38.6,38.6,0,0,1,14.36-2.54A37.85,37.85,0,0,1,813,297.75a31.84,31.84,0,0,1,10.37,6.42,42.17,42.17,0,0,0-2.39,6.5c-.64,2.3-1.28,5.19-1.91,8.69h-1.92a47.8,47.8,0,0,0-2.16-5.52,21.08,21.08,0,0,0-3.66-5.51,20.58,20.58,0,0,0-5.51-4.25,15.9,15.9,0,0,0-7.66-1.72A20.42,20.42,0,0,0,790,304a19.61,19.61,0,0,0-6.55,4.61,20.82,20.82,0,0,0-4.3,7.15,26,26,0,0,0-1.52,9q0,8.5,3.75,13.39a33.11,33.11,0,0,0,9.33,8.23,87.21,87.21,0,0,0,12.05,6,64.21,64.21,0,0,1,12,6.41,32.76,32.76,0,0,1,9.33,9.77q3.75,6,3.75,15.92a46.79,46.79,0,0,1-2.63,15.73,37.63,37.63,0,0,1-7.66,12.93,33.68,33.68,0,0,1-12.29,8.5,43.08,43.08,0,0,1-16.51,3q-9.9,0-16-3a43.12,43.12,0,0,1-10.29-6.78,46.19,46.19,0,0,0,2-7.51c.38-2.23.72-5.09,1-8.59h1.92A36.91,36.91,0,0,0,770.81,405.35Z"/><path class="cls-2" d="M850.27,321.17q-.4-11.58-.88-23.15,7.18.36,14.28.63t14.28.27q7.18,0,14.2-.27t14.2-.63a30.9,30.9,0,0,0,0,10.85c-3.41-.24-6.51-.48-9.33-.72l-8.94-.73q-4.71-.36-10.29-.63c-3.73-.18-8.19-.27-13.41-.27-.1,3.85-.23,7.54-.39,11s-.24,7.48-.24,11.93q0,7.06.08,13.75t.08,10.13q7,0,12.6-.18c3.73-.12,7.13-.27,10.22-.45s5.92-.36,8.53-.54,5.08-.4,7.42-.64a32.14,32.14,0,0,0-.48,5.6,31,31,0,0,0,.48,5.43c-2.77-.36-6-.66-9.65-.9s-7.34-.39-11-.46-7.13-.11-10.37-.18-5.82-.08-7.74-.08c0,1.08,0,2.26-.08,3.52s-.08,2.87-.08,4.79v17.91q0,10.31.08,17t.24,10.13h11.16q6.07,0,11.9-.28c3.87-.18,7.55-.42,11-.72a64,64,0,0,0,9-1.35,13.78,13.78,0,0,0-.4,2.8c0,1-.08,2-.08,2.8a18.8,18.8,0,0,0,.48,4.7q-7.18-.36-14.28-.36h-29q-7.18,0-14.52.36.48-11.56.88-23.05t.39-23.43v-31.1Q850.66,332.74,850.27,321.17Z"/><path class="cls-2" d="M930,321.44q-.4-11.49-.87-23.42,4.62.36,9.09.63t9.1.27a90.7,90.7,0,0,0,9.09-.45,90.7,90.7,0,0,1,9.09-.45,55.16,55.16,0,0,1,12.77,1.44,29.16,29.16,0,0,1,10.61,4.79A23.34,23.34,0,0,1,996.1,313a31,31,0,0,1,2.63,13.56,30.49,30.49,0,0,1-3.43,14.92,35.07,35.07,0,0,1-8.37,10.31,39.88,39.88,0,0,1-10.62,6.33,47.83,47.83,0,0,1-10.29,3c1.28,1.8,3,4.34,5.27,7.59s4.73,6.85,7.5,10.76,5.64,8,8.61,12.3,5.85,8.38,8.62,12.3,5.37,7.5,7.82,10.76,4.41,5.72,5.9,7.41a32,32,0,0,0-4.78-.36h-9.42a28.92,28.92,0,0,0-4.62.36q-2.4-3.79-7.27-11.39t-10.77-16.28q-5.89-8.67-12-17.27t-11.25-14.56h-6.06V376q0,11.94.4,23.52t.87,22.78c-2.45-.24-5-.36-7.82-.36s-5.37.12-7.81.36q.48-11.2.87-22.78t.4-23.52v-31.1Q930.44,332.92,930,321.44Zm18.35,34.45q2.64.18,5.83.18a44.91,44.91,0,0,0,10.29-1.26,27.77,27.77,0,0,0,9.81-4.44,25.05,25.05,0,0,0,7.42-8.5c2-3.55,3-8.05,3-13.47a26,26,0,0,0-2.31-11.66,20.07,20.07,0,0,0-6-7.33,21.25,21.25,0,0,0-8-3.7,37.19,37.19,0,0,0-8.46-1q-5.58,0-9.26.27t-6.22.63q-.32,9.94-.64,19.72t-.31,19.53v10.31A29.07,29.07,0,0,0,948.39,355.89Z"/><rect class="cls-2" x="272.05" y="201.34" width="59.51" height="70.21"/><rect class="cls-2" x="345.55" y="201.34" width="16.82" height="70.21"/><rect class="cls-2" x="413.27" y="201.34" width="16.82" height="70.21"/><rect class="cls-2" x="486.45" y="201.34" width="32.26" height="70.21"/><rect class="cls-2" x="591.04" y="201.34" width="12.3" height="70.21"/><rect class="cls-2" x="676.59" y="201.34" width="13.98" height="70.21"/><rect class="cls-3" x="725.16" y="201.34" width="17.28" height="70.21"/><rect class="cls-2" x="777.54" y="201.34" width="32.26" height="70.21"/><rect class="cls-2" x="850.72" y="201.34" width="63.5" height="70.21"/><rect class="cls-2" x="928.84" y="201.34" width="47.06" height="70.21"/><path class="cls-2" d="M1003,274.35H269.25V198.54H1003Zm-728.1-5.59H997.36V204.13H274.85Z"/></svg>