<svg id="Layer_1" data-name="Layer 1" xmlns="http://www.w3.org/2000/svg" viewBox="0 0 198.61 83.37"><defs><style>.cls-1{fill:#fff;}.cls-2{fill:#ec9735;}</style></defs><path class="cls-1" d="M14.85,44.35c-.06-1.81-.13-3.61-.2-5.42l3.34.15c1.11,0,2.22.06,3.34.06s2.23,0,3.33-.06L28,38.93a7.78,7.78,0,0,0-.11,1.27A7.69,7.69,0,0,0,28,41.47c-.79,0-1.52-.11-2.18-.17l-2.09-.17L21.3,41c-.88,0-1.92-.06-3.14-.06,0,.9-.06,1.77-.09,2.58S18,45.26,18,46.3s0,2.17,0,3.22,0,1.83,0,2.37c1.09,0,2.08,0,2.95,0s1.67-.07,2.39-.11,1.39-.08,2-.13l1.73-.14A8,8,0,0,0,27,52.78a7.88,7.88,0,0,0,.11,1.27c-.64-.09-1.4-.16-2.26-.21s-1.71-.09-2.57-.11l-2.43,0c-.76,0-1.36,0-1.81,0,0,.25,0,.53,0,.82s0,.67,0,1.12v4.2c0,1.61,0,2.93,0,4s0,1.83,0,2.37H20.7c.95,0,1.87,0,2.78-.07s1.77-.09,2.58-.16a16.65,16.65,0,0,0,2.11-.32,3.19,3.19,0,0,0-.09.65c0,.24,0,.46,0,.66a4.67,4.67,0,0,0,.11,1.1c-1.12-.06-2.23-.08-3.34-.08H18.05c-1.12,0-2.26,0-3.4.08.07-1.8.14-3.6.2-5.4S15,59,15,57.14V49.86C15,48,14.91,46.16,14.85,44.35Z"/><path class="cls-1" d="M45.07,44.92c1-1.82,2-3.82,3-6a5.79,5.79,0,0,0,1.38.21,5.65,5.65,0,0,0,1.38-.21q-2.13,3.34-4.18,6.56t-4,6.65q2.13,4.11,4.28,8T51.41,68a6.19,6.19,0,0,0-1-.08H48.27a6.19,6.19,0,0,0-1.05.08c-1-2.06-2-4.15-3-6.29a69.53,69.53,0,0,0-3.38-6.41q-1.9,3.21-3.55,6.41L34.11,68a3.08,3.08,0,0,0-.73-.08H32.07a3.05,3.05,0,0,0-.72.08q2.24-3.51,4.37-7.11T40,53.58Q38,49.86,36.07,46.26c-1.31-2.4-2.64-4.84-4-7.33l1,.15a8.31,8.31,0,0,0,1,.06,8.19,8.19,0,0,0,1-.06l1-.15c.82,1.89,1.71,3.76,2.65,5.61s2,3.85,3.14,6Q43.61,47.65,45.07,44.92Z"/><path class="cls-1" d="M55.38,47.12a13.76,13.76,0,0,1,2.88-4.76,12,12,0,0,1,4.43-3A16.21,16.21,0,0,1,74,39.4a12,12,0,0,1,4.42,3,13.46,13.46,0,0,1,2.88,4.76,18.56,18.56,0,0,1,1,6.42,18.56,18.56,0,0,1-1,6.42,13.46,13.46,0,0,1-2.88,4.76A11.5,11.5,0,0,1,74,67.62a17.34,17.34,0,0,1-11.32,0,11.54,11.54,0,0,1-4.43-2.9A13.76,13.76,0,0,1,55.38,60a18.8,18.8,0,0,1-1-6.42A18.8,18.8,0,0,1,55.38,47.12Zm22.51.34a12,12,0,0,0-2.18-4.23,8.75,8.75,0,0,0-3.29-2.48,10.43,10.43,0,0,0-4.09-.8,10.27,10.27,0,0,0-4,.8A8.67,8.67,0,0,0,61,43.23a12,12,0,0,0-2.19,4.23A21,21,0,0,0,58,53.54a21,21,0,0,0,.78,6.08A12,12,0,0,0,61,63.85a8.67,8.67,0,0,0,3.29,2.48,10.27,10.27,0,0,0,4,.8,10.43,10.43,0,0,0,4.09-.8,8.75,8.75,0,0,0,3.29-2.48,12,12,0,0,0,2.18-4.23,20.67,20.67,0,0,0,.79-6.08A20.67,20.67,0,0,0,77.89,47.46Z"/><path class="cls-1" d="M95.17,50.07q2.64,5.67,5.51,11.64l1.08-2.31c.48-1,1-2.15,1.65-3.45s1.29-2.7,2-4.21l2.16-4.59c.74-1.56,1.47-3.08,2.19-4.58l2-4.19h.48q.4,4.07.77,7.86c.23,2.52.48,5,.72,7.45s.5,4.85.75,7.24.52,4.75.82,7.09a4.4,4.4,0,0,0-.87-.08h-1.76a4.43,4.43,0,0,0-.88.08c-.27-3.75-.55-7.39-.82-10.92s-.61-7.13-1-10.8h-.07q-2.58,5.34-5.06,10.61t-4.73,11h-.34q-2.23-5.34-4.69-10.7T90.18,46.3h-.07q-.27,2.63-.58,5.69c-.21,2-.41,4.07-.58,6.06s-.32,3.87-.45,5.63-.18,3.21-.18,4.34a10.77,10.77,0,0,0-2.62,0q.48-3.43,1-7.24c.35-2.54.68-5.1,1-7.66s.62-5.11.89-7.6.51-4.88.71-7.14H90Q92.54,44.4,95.17,50.07Z"/><path class="cls-2" d="M120.86,44.42q-.1-2.7-.21-5.49l.93.15a6.78,6.78,0,0,0,1.8,0l.93-.15c-.07,1.86-.14,3.69-.2,5.49S124,48,124,49.9v7.28c0,1.86,0,3.7.1,5.51s.13,3.58.2,5.33a21,21,0,0,0-3.66,0c.07-1.75.14-3.53.21-5.33S121,59,121,57.18V49.9C121,48,120.92,46.21,120.86,44.42Z"/><path class="cls-1" d="M131.14,64.06a6.43,6.43,0,0,0,1.24,1.42,6.15,6.15,0,0,0,1.7,1,5.54,5.54,0,0,0,2.16.4,4.91,4.91,0,0,0,2.23-.49,5,5,0,0,0,1.68-1.31,5.91,5.91,0,0,0,1.06-2,7.44,7.44,0,0,0,.38-2.39,5,5,0,0,0-.88-3.09,7.63,7.63,0,0,0-2.19-1.91,24.67,24.67,0,0,0-2.82-1.39,14.42,14.42,0,0,1-2.82-1.59,8,8,0,0,1-2.18-2.44,7.7,7.7,0,0,1-.88-4,9.11,9.11,0,0,1,.56-3.24A7,7,0,0,1,132,40.63,7.6,7.6,0,0,1,134.56,39a9.2,9.2,0,0,1,3.37-.59,8.81,8.81,0,0,1,3.1.49,7.28,7.28,0,0,1,2.42,1.5,10.26,10.26,0,0,0-.56,1.53,20,20,0,0,0-.44,2H142a12.24,12.24,0,0,0-.51-1.29,4.94,4.94,0,0,0-2.15-2.29,3.67,3.67,0,0,0-1.79-.4,4.64,4.64,0,0,0-1.92.38,4.35,4.35,0,0,0-1.53,1.08,4.62,4.62,0,0,0-1,1.67,6.09,6.09,0,0,0-.36,2.12,5.06,5.06,0,0,0,.88,3.13,7.57,7.57,0,0,0,2.19,1.93,20.57,20.57,0,0,0,2.82,1.4,15.84,15.84,0,0,1,2.82,1.5,7.47,7.47,0,0,1,2.18,2.29,6.87,6.87,0,0,1,.88,3.72,11,11,0,0,1-.62,3.69,8.74,8.74,0,0,1-1.79,3,7.75,7.75,0,0,1-2.88,2,10,10,0,0,1-3.86.7,8.58,8.58,0,0,1-3.76-.7,9.7,9.7,0,0,1-2.41-1.59,10.49,10.49,0,0,0,.47-1.75q.14-.78.24-2h.45A9.47,9.47,0,0,0,131.14,64.06Z"/><path class="cls-1" d="M149.75,44.35c-.06-1.81-.13-3.61-.21-5.42l3.35.15c1.1,0,2.22.06,3.34.06s2.23,0,3.32-.06l3.33-.15a6.81,6.81,0,0,0-.11,1.27,6.74,6.74,0,0,0,.11,1.27c-.8,0-1.53-.11-2.19-.17l-2.09-.17L156.19,41c-.87,0-1.92-.06-3.14-.06,0,.9-.05,1.77-.09,2.58s-.06,1.76-.06,2.8,0,2.17,0,3.22,0,1.83,0,2.37c1.1,0,2.08,0,2.95,0s1.67-.07,2.39-.11,1.39-.08,2-.13l1.74-.14a7,7,0,0,0-.11,1.31,6.88,6.88,0,0,0,.11,1.27c-.65-.09-1.4-.16-2.26-.21s-1.72-.09-2.58-.11l-2.43,0c-.76,0-1.36,0-1.81,0,0,.25,0,.53,0,.82s0,.67,0,1.12v4.2c0,1.61,0,2.93,0,4s0,1.83.06,2.37h2.61c.95,0,1.88,0,2.79-.07s1.77-.09,2.58-.16a16.94,16.94,0,0,0,2.11-.32,3.16,3.16,0,0,0-.1.65c0,.24,0,.46,0,.66a4.14,4.14,0,0,0,.12,1.1c-1.13-.06-2.24-.08-3.35-.08h-6.78c-1.12,0-2.25,0-3.4.08q.12-2.7.21-5.4c.06-1.79.09-3.62.09-5.48V49.86C149.84,48,149.81,46.16,149.75,44.35Z"/><path class="cls-1" d="M168.43,44.42c-.07-1.8-.13-3.63-.21-5.49l2.13.15q1.05.06,2.13.06c.72,0,1.43,0,2.13-.1s1.41-.11,2.13-.11a12.69,12.69,0,0,1,3,.34,6.94,6.94,0,0,1,2.48,1.12,5.42,5.42,0,0,1,1.68,2.06,7.22,7.22,0,0,1,.62,3.17,7.13,7.13,0,0,1-.81,3.5,8.07,8.07,0,0,1-2,2.41A9.42,9.42,0,0,1,179.26,53a11.28,11.28,0,0,1-2.41.7c.3.42.71,1,1.23,1.78s1.11,1.6,1.76,2.52,1.32,1.88,2,2.88,1.37,2,2,2.88,1.26,1.75,1.83,2.51,1,1.35,1.39,1.74a7.12,7.12,0,0,0-1.12-.08h-2.21a6.39,6.39,0,0,0-1.08.08L181,65.35q-1.14-1.77-2.52-3.81t-2.82-4q-1.44-2-2.64-3.41h-1.42v3.09c0,1.86,0,3.7.1,5.51s.13,3.58.2,5.33a21,21,0,0,0-3.66,0c.08-1.75.14-3.53.21-5.33s.09-3.65.09-5.51V49.9C168.52,48,168.49,46.21,168.43,44.42Zm4.29,8.06c.41,0,.87,0,1.37,0a10.92,10.92,0,0,0,2.41-.29,6.69,6.69,0,0,0,2.29-1,5.83,5.83,0,0,0,1.74-2,6.44,6.44,0,0,0,.69-3.15,6.1,6.1,0,0,0-.54-2.74,4.68,4.68,0,0,0-1.4-1.71,5.15,5.15,0,0,0-1.87-.87,9.05,9.05,0,0,0-2-.23c-.87,0-1.59,0-2.17.06s-1,.09-1.45.15q-.08,2.32-.15,4.62c0,1.52-.08,3-.08,4.57v2.41A6.5,6.5,0,0,0,172.72,52.48Z"/><rect class="cls-1" x="14.37" y="16.3" width="13.93" height="16.44"/><rect class="cls-1" x="31.58" y="16.3" width="3.94" height="16.44"/><rect class="cls-1" x="47.43" y="16.3" width="3.94" height="16.44"/><rect class="cls-1" x="64.57" y="16.3" width="7.55" height="16.44"/><rect class="cls-1" x="89.05" y="16.3" width="2.88" height="16.44"/><rect class="cls-1" x="109.08" y="16.3" width="3.27" height="16.44"/><rect class="cls-2" x="120.46" y="16.3" width="4.05" height="16.44"/><rect class="cls-1" x="132.72" y="16.3" width="7.55" height="16.44"/><rect class="cls-1" x="149.85" y="16.3" width="14.87" height="16.44"/><rect class="cls-1" x="168.14" y="16.3" width="11.02" height="16.44"/><path class="cls-1" d="M185.5,33.39H13.72V15.64H185.5ZM15,32.08H184.19V17H15Z"/></svg>