<svg id="Layer_1" data-name="Layer 1" xmlns="http://www.w3.org/2000/svg" viewBox="0 0 97.94 84.18"><defs><style>.cls-1{fill:#ec9735;}.cls-2{fill:#787878;}</style></defs><rect class="cls-1" x="22.44" y="57.05" width="6.97" height="4.92"/><path class="cls-2" d="M64.2,75c0-.46,0-1,0-1.53a8.07,8.07,0,0,1,.16-1.34L65,69.65l-2.4.64a27.37,27.37,0,0,1-4.31.74c-1.72.16-3.57.3-5.49.4s-7.21.16-9.45.16H31.17c0-1.15-.05-2.6-.07-4.31q0-3.82,0-9.72V47.32c0-1.09,0-2,0-2.69,0-.19,0-.38,0-.56.69,0,1.49,0,2.39,0l8.64,0c3.62,0,7.18,0,8.07.05,1.86,0,3.7.12,5.48.25s3.44.31,4.76.51l2,.3-.32-2a19.6,19.6,0,0,1-.22-2.87,20.34,20.34,0,0,1,.22-3l.31-1.95-2,.22c-1.12.13-2.33.25-3.69.36s-2.74.21-4.29.31c-1,.06-3.36.12-5.49.17-1.27,0-2.45.06-3.15.09-1.55,0-8.8.09-12.49.09v0h-.27q0-1.73,0-4.29,0-3.81,0-7.85c0-2.52,0-4.8.12-6.76.06-1.56.12-3.19.16-4.88,3.92,0,11.62.07,13.17.15l3.51.14c2,.07,4.26.14,5.16.22l4.5.42,4.73.41,1.9.15L64,12.52a18.15,18.15,0,0,1,0-5.76l.28-1.83L62.45,5q-3.62.21-7.15.36c-2.31.1-8.15.15-10.63.15-2.78,0-12.83,0-15.09-.15S24.81,5.18,22.4,5l-1.65-.1.06,1.65q.24,6.62.44,13.24c.14,4.4.2,8.91.2,13.41V51c0,4.5-.06,9-.2,13.36s-.28,8.78-.44,13.19l-.06,1.64,1.64-.09c2.44-.14,4.87-.2,7.25-.2H55.73c2.35,0,4.74.06,7.12.2l2,.11-.46-2A11.07,11.07,0,0,1,64.2,75Zm-35-57.59v1.27H22.85V17.36Zm-6.32-1.71V13.27h6.32v2.38Zm6.32,8.53v3.58H22.85V24.18Zm0,6.4v6.1H22.85v-6.1Zm0,13.42v1.81H22.85V44Zm0,2.88v6.33H22.85V46.88Zm0,9.15v8.45H22.85V56Zm0,9.92v.92H22.85V66Zm0,2.39V71H22.85V68.34Z"/></svg>