<?xml version="1.0" encoding="UTF-8"?><svg id="Layer_1" xmlns="http://www.w3.org/2000/svg" viewBox="0 0 1069 332"><defs><style>.cls-1{fill:#231f20;}</style></defs><g><path class="cls-1" d="m551.2,143.23c-2.45-1.23-4.28-3.3-5.47-6.21-1.2-2.91-1.79-6.95-1.79-12.1v-15.46c0-5.03.61-9,1.84-11.91,1.23-2.91,3.07-5,5.52-6.26,2.45-1.26,5.67-1.89,9.66-1.89s7.3.61,9.75,1.84c2.45,1.23,4.28,3.31,5.47,6.26,1.2,2.94,1.79,7.02,1.79,12.24v15.18c0,7.3-1.35,12.48-4.05,15.55-2.7,3.07-7.02,4.6-12.97,4.6-4.05,0-7.3-.61-9.75-1.84Zm17.39-4.05c1.78-1.1,3.02-2.81,3.73-5.11.7-2.3,1.06-5.41,1.06-9.34v-15c0-4.11-.31-7.28-.92-9.52-.61-2.24-1.81-3.88-3.59-4.92-1.78-1.04-4.42-1.56-7.91-1.56-3.31,0-5.86.52-7.64,1.56-1.78,1.04-3.02,2.7-3.73,4.97-.71,2.27-1.06,5.37-1.06,9.29v15c0,4.17.31,7.39.92,9.66.61,2.27,1.81,3.94,3.59,5.01,1.78,1.07,4.42,1.61,7.91,1.61,3.31,0,5.86-.55,7.64-1.66Z"/><path class="cls-1" d="m622.31,137.44c-1.78,2.88-3.91,4.88-6.39,5.98-2.48,1.1-5.63,1.66-9.43,1.66-4.66,0-8.33-1.15-10.99-3.45s-4-5.9-4-10.81c0-5.58,1.98-9.61,5.93-12.1,3.96-2.48,9.71-3.73,17.25-3.73,2.21,0,4.6.09,7.18.28v-8.1c0-4.84-.91-8.33-2.71-10.44-1.81-2.12-4.8-3.17-8.97-3.17s-7.01.89-8.88,2.67c-1.87,1.78-2.81,5.09-2.81,9.94h-4.42c0-5.76,1.26-10,3.77-12.7,2.51-2.7,6.62-4.05,12.33-4.05s9.58,1.4,12.19,4.19c2.61,2.79,3.91,7.28,3.91,13.48v37.08h-3.86l-.09-6.72Zm-8.28-18.22c-6.07,0-10.58.97-13.52,2.9-2.94,1.93-4.42,4.86-4.42,8.79,0,3.44.98,5.93,2.94,7.5,1.96,1.56,5,2.35,9.11,2.35,3.19,0,5.81-.69,7.87-2.07,2.05-1.38,3.54-3.08,4.46-5.11.92-2.02,1.38-4.05,1.38-6.07v-7.82c-3.19-.31-5.8-.46-7.82-.46Z"/><path class="cls-1" d="m651.94,117.38h-5.06v26.77h-4.78v-71.02h4.69v39.47h5.06l17.2-22.26h5.52l-18.86,24.66,21.16,29.16h-5.7l-19.23-26.77Z"/></g><g><path class="cls-1" d="m544.35,169.74c0,3.79-1.97,5.81-4.38,5.81s-4.24-2.27-4.24-5.6,1.85-5.79,4.37-5.79,4.25,2.31,4.25,5.59Zm-7.33.17c0,2.36,1.1,4.47,3.02,4.47s3.02-2.08,3.02-4.59c0-2.2-.98-4.49-3.01-4.49s-3.04,2.19-3.04,4.6Z"/><path class="cls-1" d="m546.68,175.37v-11.04h1.34l3.02,5.58c.69,1.29,1.24,2.45,1.68,3.59l.03-.02c-.11-1.47-.13-2.82-.13-4.53v-4.62h1.15v11.04h-1.24l-3-5.59c-.65-1.24-1.29-2.5-1.76-3.69l-.04.02c.07,1.4.09,2.73.09,4.55v4.72h-1.15Z"/><path class="cls-1" d="m558.45,165.54h-2.88v-1.2h6.99v1.2h-2.89v9.83h-1.23v-9.83Z"/><path class="cls-1" d="m572.05,169.74c0,3.79-1.97,5.81-4.38,5.81s-4.24-2.27-4.24-5.6,1.85-5.79,4.37-5.79,4.25,2.31,4.25,5.59Zm-7.33.17c0,2.36,1.1,4.47,3.02,4.47s3.02-2.08,3.02-4.59c0-2.2-.98-4.49-3.01-4.49s-3.04,2.19-3.04,4.6Z"/><path class="cls-1" d="m574.38,164.34h1.23v9.83h4.04v1.2h-5.26v-11.04Z"/><path class="cls-1" d="m589.27,169.74c0,3.79-1.97,5.81-4.38,5.81s-4.24-2.27-4.24-5.6,1.85-5.79,4.37-5.79,4.25,2.31,4.25,5.59Zm-7.33.17c0,2.36,1.1,4.47,3.02,4.47s3.02-2.08,3.02-4.59c0-2.2-.98-4.49-3.01-4.49s-3.04,2.19-3.04,4.6Z"/><path class="cls-1" d="m598.8,174.88c-.55.24-1.63.61-2.9.61-1.43,0-2.61-.42-3.53-1.46-.81-.92-1.31-2.38-1.31-4.1,0-3.29,1.94-5.7,5.1-5.7,1.09,0,1.96.28,2.36.51l-.3,1.16c-.5-.27-1.13-.47-2.09-.47-2.29,0-3.79,1.67-3.79,4.43s1.44,4.45,3.64,4.45c.8,0,1.34-.13,1.62-.3v-3.29h-1.91v-1.14h3.11v5.3Z"/><path class="cls-1" d="m603.51,175.37v-4.68l-2.99-6.36h1.4l1.33,3.05c.36.84.65,1.5.94,2.28h.03c.26-.73.58-1.45.95-2.29l1.36-3.04h1.38l-3.16,6.34v4.7h-1.23Z"/><path class="cls-1" d="m614.99,171.9l-.98,3.47h-1.26l3.21-11.04h1.47l3.22,11.04h-1.3l-1.01-3.47h-3.35Zm3.1-1.11l-.94-3.18c-.2-.72-.35-1.38-.49-2.01h-.03c-.14.65-.28,1.32-.47,1.99l-.93,3.2h2.85Z"/><path class="cls-1" d="m629.17,175.02c-.44.26-1.34.53-2.5.53-2.66,0-4.65-1.97-4.65-5.59s2-5.79,4.93-5.79c1.17,0,1.92.29,2.24.49l-.3,1.16c-.46-.25-1.11-.45-1.9-.45-2.22,0-3.68,1.66-3.68,4.55,0,2.7,1.33,4.42,3.62,4.42.75,0,1.5-.18,2-.45l.24,1.14Z"/><path class="cls-1" d="m637.75,175.02c-.44.26-1.34.53-2.5.53-2.66,0-4.65-1.97-4.65-5.59s2-5.79,4.93-5.79c1.17,0,1.92.29,2.24.49l-.3,1.16c-.46-.25-1.11-.45-1.9-.45-2.22,0-3.68,1.66-3.68,4.55,0,2.7,1.33,4.42,3.62,4.42.75,0,1.5-.18,2-.45l.24,1.14Z"/><path class="cls-1" d="m644.91,170.2h-3.66v3.99h4.09v1.19h-5.32v-11.04h5.1v1.19h-3.88v3.49h3.66v1.18Z"/><path class="cls-1" d="m647.51,173.63c.54.4,1.34.72,2.18.72,1.25,0,1.98-.76,1.98-1.88,0-1.02-.51-1.63-1.79-2.18-1.54-.64-2.5-1.59-2.5-3.13,0-1.72,1.22-2.99,3.06-2.99.96,0,1.67.26,2.08.53l-.34,1.17c-.3-.21-.93-.52-1.78-.52-1.3,0-1.79.9-1.79,1.65,0,1.02.57,1.53,1.88,2.12,1.6.73,2.41,1.63,2.41,3.25s-1.07,3.18-3.3,3.18c-.91,0-1.91-.32-2.41-.72l.32-1.19Z"/><path class="cls-1" d="m655.17,173.63c.54.4,1.34.72,2.18.72,1.25,0,1.98-.76,1.98-1.88,0-1.02-.51-1.63-1.79-2.18-1.54-.64-2.5-1.59-2.5-3.13,0-1.72,1.22-2.99,3.06-2.99.96,0,1.67.26,2.08.53l-.34,1.17c-.3-.21-.93-.52-1.78-.52-1.3,0-1.79.9-1.79,1.65,0,1.02.57,1.53,1.88,2.12,1.6.73,2.41,1.63,2.41,3.25s-1.07,3.18-3.3,3.18c-.91,0-1.91-.32-2.41-.72l.32-1.19Z"/><path class="cls-1" d="m666.71,164.34h1.22v5.32h.04c.25-.43.51-.81.75-1.17l2.88-4.15h1.51l-3.41,4.69,3.68,6.34h-1.45l-3.1-5.41-.91,1.21v4.2h-1.22v-11.04Z"/><path class="cls-1" d="m676.28,164.34v11.04h-1.23v-11.04h1.23Z"/><path class="cls-1" d="m680.96,165.54h-2.88v-1.2h6.99v1.2h-2.89v9.83h-1.23v-9.83Z"/></g><g id="XoIyDF.tif"><path class="cls-1" d="m417.44,224.21c-.12,0-.23,0-.36-.02-.57-.06-1.14-.12-1.71-.18-.9-.09-1.83-.18-2.75-.31-1.73-.24-2.15-1.34-2.2-2.22-.05-.88-.11-1.76-.17-2.64-.09-1.26-.18-2.55-.22-3.84-.03-.88-.29-1.08-.87-1.22-1.28-.3-2.57-.63-3.82-.95l-.94-.24c-.64-.16-.99.05-1.49.9-.78,1.34-1.61,2.67-2.42,3.96-.25.41-.51.81-.76,1.22-.67,1.07-1.72,1.43-2.88.98-1.05-.4-2.11-.84-3.13-1.25l-1.21-.49c-1.04-.42-1.53-1.25-1.35-2.28.08-.47.16-.95.24-1.43.24-1.47.49-2.98.86-4.46.42-1.63.34-1.82-1-2.49-1.01-.51-2.09-1.1-3.3-1.8-1.09-.64-1.11-.65-2.06.31-1.17,1.2-2.39,2.38-3.57,3.52l-.54.52c-1.08,1.04-2.32,1.13-3.5.25-.54-.41-1.11-.81-1.66-1.2-.62-.44-1.25-.89-1.87-1.35-1.1-.84-1.29-1.97-.59-3.46.83-1.76,1.74-3.65,2.71-5.46.33-.61.19-.81-.05-1.05-1.05-1.01-2.12-2.01-3.19-3.01l-.83-.78c-.27-.25-.48-.32-.98-.03-1.34.76-2.71,1.51-4.04,2.22-.67.36-1.35.73-2.02,1.1-.75.41-1.85.64-2.85-.62-1.02-1.28-2.04-2.51-2.83-3.43-.85-1.01-.89-2.09-.1-3.03,1.4-1.67,2.84-3.34,4.07-4.78q.86-1,.12-2.07c-.66-.96-1.28-1.97-1.88-2.95l-.24-.4c-.66-1.08-.79-1.13-1.98-.79-1.14.32-2.29.65-3.43.98l-1.98.57c-1.75.5-2.57.16-3.36-1.38-.74-1.44-1.37-2.95-1.98-4.4-.28-.66-.34-1.64.95-2.59,1.48-1.09,3.2-2.34,5-3.49.82-.53.98-.91.69-1.7-.35-.97-.66-1.97-.96-2.94-.18-.58-.36-1.16-.54-1.74-.14-.44-.39-.7-1.2-.67-1.48.05-2.98.07-4.43.09-.58,0-1.17.01-1.75.02-.02,0-.04,0-.06,0-1.44,0-2.37-.8-2.62-2.25-.11-.63-.23-1.27-.35-1.9-.16-.82-.32-1.66-.45-2.5-.18-1.12.37-2,1.5-2.42.72-.27,1.43-.54,2.15-.81,1.18-.45,2.4-.92,3.62-1.35,1.04-.37,1.1-.45,1.06-1.44-.03-.71-.07-1.41-.1-2.12-.05-.89-.09-1.78-.13-2.67-.02-.64-.25-.81-.69-.91-1.1-.25-2.2-.51-3.29-.78-.56-.14-1.12-.27-1.68-.4-.08-.02-.16-.03-.24-.04-.17-.02-.37-.05-.57-.13l-.43-.16c-1.94-.71-2.18-.91-2.15-2.88v-.41c.01-.66.05-1.31.09-1.95.03-.55.07-1.12.08-1.67.03-1.42.82-2.29,2.22-2.48,1.93-.25,3.83-.49,5.73-.65q1.52-.13,1.8-1.54c.12-.61.23-1.22.33-1.83.14-.81.29-1.65.46-2.47.12-.57-.01-.86-.53-1.13l-.3-.16c-1.69-.89-3.44-1.81-5.15-2.75-1.57-.86-1.95-1.86-1.35-3.57.12-.34.24-.67.36-1.01.34-.95.68-1.92.99-2.89.33-1.06,1.12-1.62,2.16-1.53,1.4.12,2.82.28,4.19.44l1.21.14c.17.02.32.07.43.11.05.02.1.03.14.05,1.64.36,1.82.26,2.47-1.36.43-1.08.98-2.22,1.72-3.6.28-.53.24-.84-.18-1.22-.52-.47-1.05-.94-1.57-1.42-1.03-.93-2.06-1.85-3.08-2.79-1.27-1.17-1.41-2.24-.47-3.71.27-.42.54-.84.81-1.26.45-.7.92-1.42,1.36-2.13.66-1.1,1.66-1.49,2.74-1.09,2.19.82,4.13,1.61,5.93,2.4,1.11.49,1.2.46,1.93-.48.86-1.11,1.83-2.31,2.98-3.65.32-.37.4-.65,0-1.24-1.31-1.94-2.46-3.69-3.5-5.35-.8-1.27-.67-2.24.46-3.34.98-.95,1.97-1.89,2.95-2.79,1.16-1.07,2.11-1.14,3.37-.25,1.53,1.08,3.04,2.23,4.49,3.34l.39.3q.93.71,1.85.04c1.26-.91,2.52-1.83,3.79-2.74.38-.28.68-.63.17-1.93-.52-1.31-1.12-2.85-1.65-4.41-.18-.52-.38-1.31-.33-2.12.04-.58.38-1.38.94-1.72,1.5-.93,3.05-1.79,4.61-2.55.6-.29,1.61-.13,2.05.33.96.99,1.86,2.05,2.73,3.08l.58.69c.21.25.41.51.61.77.36.47.7.92,1.1,1.26.15.13.64.23.89.14.72-.24,1.45-.55,2.15-.84.74-.31,1.51-.64,2.3-.9.76-.25.96-.57.89-1.4-.19-2.17-.34-4.28-.43-6.29-.07-1.56.48-2.28,2.03-2.68.8-.21,1.59-.4,2.39-.59.51-.12,1.02-.25,1.54-.38,1.45-.36,2.58.17,3.18,1.5.24.53.48,1.06.72,1.59.63,1.38,1.29,2.81,1.88,4.25.21.5.42.57.8.52,1.8-.21,3.73-.44,5.68-.73.07-.02.22-.16.25-.23.18-.44.28-.94.38-1.48l.03-.14c.17-.87.32-1.73.48-2.6.19-1.01.37-2.03.57-3.04.21-1.07,1-1.69,2.17-1.69,1.6,0,3.2,0,4.8,0,1.16,0,1.94.63,2.15,1.72.32,1.66.63,3.34.92,4.97l.08.47c.03.18.05.37.07.55.02.17.04.33.07.49.16.8.42,1.06,1.14,1.1,1.18.06,2.35.23,3.49.4.44.06.87.13,1.31.18.66.09.89-.04,1.13-.63.58-1.47,1.26-2.92,1.92-4.32.22-.47.44-.95.66-1.42.59-1.28,1.64-1.81,2.98-1.49,1.38.33,2.94.7,4.46,1.11,1.16.31,1.78,1.19,1.7,2.41-.04.58-.08,1.16-.11,1.74-.1,1.55-.2,3.16-.34,4.74-.07.8.14,1.11.93,1.38,1.21.4,2.4.91,3.54,1.41.31.13.63.27.94.4.39.17.68.13,1.17-.49.4-.51.79-1.03,1.18-1.55.48-.63.97-1.29,1.48-1.91,2.53-3.12,3.07-3.21,6.51-1.14.18.11.36.22.53.33.42.27.81.52,1.22.69,1.16.5,1.65,1.49,1.31,2.65-.55,1.9-1.1,3.76-1.82,5.6-.59,1.5-.54,1.66.63,2.55.45.34.91.68,1.37,1.01.65.47,1.31.96,1.96,1.46.62.48,1.02.46,1.67-.06,1.4-1.14,2.93-2.29,4.96-3.73,1.26-.89,2.17-.81,3.36.29.44.41.88.83,1.32,1.25.56.53,1.12,1.07,1.7,1.59,1,.92,1.15,2.05.43,3.2l-.14.23c-1.08,1.69-2.19,3.44-3.35,5.12-.41.59-.4.91.02,1.4.88,1.01,1.72,2.07,2.54,3.09l.7.87c.35.44.64.5,1.2.23l.1-.05c1.62-.76,3.29-1.54,5-2.18,1.87-.7,3-.98,4.32,1.31.33.57.71,1.14,1.08,1.69.31.46.63.94.92,1.43.67,1.1.53,2.27-.39,3.14-1.22,1.15-2.68,2.5-4.22,3.78-1.24,1.03-1.26,1.12-.63,2.45.24.5.48,1,.73,1.5.42.85.85,1.74,1.25,2.62.17.39.35.54.95.45,1.07-.17,2.15-.33,3.22-.5.75-.11,1.5-.23,2.25-.34,2.33-.36,3.28.2,4.05,2.39.44,1.26.82,2.43,1.16,3.57.36,1.23-.14,2.23-1.49,2.97-2.03,1.12-3.71,2.01-5.28,2.8-.75.38-.92.72-.73,1.49.23.93.39,1.89.54,2.81.08.51.17,1.01.26,1.52.21,1.08.32,1.18,1.48,1.29,2.14.2,3.93.39,5.73.62,1.79.24,2.4.9,2.5,2.75.06,1.17.11,2.34.16,3.51l.03.76c.06,1.46-.78,1.98-1.49,2.16-.95.24-1.89.5-2.84.75-.62.17-1.25.34-1.87.5-.15.04-.29.05-.42.06-.08,0-.16.01-.21.03l-.52.14c-.83.23-1.43.39-1.57.56-.12.13-.13.63-.15,1.32v.53c-.03.71-.08,1.42-.13,2.11-.03.47-.06.94-.09,1.41-.05,1.05,0,1.14,1.09,1.52,1.91.67,3.76,1.37,5.49,2.07,1.63.66,2.01,1.35,1.73,3.07-.15.91-.35,1.81-.55,2.69-.1.46-.21.93-.3,1.39-.26,1.26-1.08,1.96-2.3,1.97-.92,0-1.83,0-2.74,0h-1.84v-.08c-.07,0-.13,0-.2,0-.65,0-1.3,0-1.95,0-.54-.01-.81.19-.97.69-.19.6-.38,1.21-.56,1.81-.31,1.01-.62,2.05-.98,3.07-.22.62-.09.93.59,1.37,1.43.93,2.81,1.87,4.33,2.92.42.29.81.61,1.15.97.78.8.94,1.69.47,2.66-.31.63-.59,1.29-.87,1.94-.26.61-.53,1.23-.82,1.84-.87,1.8-1.68,2.16-3.64,1.6l-1.58-.45c-1.24-.36-2.48-.71-3.73-1.06-1.14-.32-1.26-.28-1.85.65-.3.48-.6.96-.9,1.44-.53.86-1.09,1.76-1.67,2.62-.28.42-.27.65.07,1.03,1.5,1.68,2.71,3.05,3.81,4.31l.09.1c.31.35.69.79.81,1.33.22,1.05.16,1.75-.17,2.23-.72,1.04-1.54,2.01-2.34,2.95-.28.33-.55.65-.82.98-.67.82-1.59,1-2.51.51l-1.24-.66c-1.62-.87-3.3-1.76-4.93-2.7-.57-.33-.81-.24-1.15.07-.49.47-.99.93-1.48,1.4-.82.77-1.64,1.54-2.45,2.33-.26.25-.33.46-.06.96.96,1.8,1.85,3.63,2.67,5.35.86,1.81.63,2.77-.97,3.96-.49.37-1,.72-1.5,1.08-.54.38-1.07.76-1.6,1.16-1.15.86-2.36.78-3.42-.23-1.57-1.51-2.97-2.88-4.27-4.19-.81-.82-.9-.83-1.91-.24l-.29.17c-1.15.67-2.35,1.37-3.58,1.95-.67.31-.83.68-.66,1.44.12.51.24,1.01.37,1.52.18.72.36,1.47.52,2.21.12.56.2,1.13.28,1.68.04.29.08.58.13.87.15.95-.03,2.22-1.79,2.88-.87.33-1.76.69-2.61,1.03l-1.03.41c-1.75.7-2.74-.17-3.25-1.02-.41-.68-.84-1.36-1.26-2.04-.6-.96-1.22-1.96-1.8-2.95-.66-1.12-.75-1.16-1.96-.86-.44.11-.88.22-1.32.33-.92.24-1.88.48-2.83.69-.8.18-1.03.49-1.04,1.41-.02,1.37-.13,2.76-.23,4.1-.06.77-.12,1.53-.16,2.3-.07,1.22-.82,1.99-2.12,2.16-1.15.15-2.31.27-3.44.38-.41.04-.82.08-1.24.12-1.1.11-1.92-.4-2.24-1.41-.15-.47-.3-.93-.46-1.4-.52-1.6-1.07-3.25-1.54-4.9-.22-.78-.52-1.01-1.25-.98-1.57.05-3.16.05-4.73,0-.72-.02-1,.2-1.23,1.01-.4,1.41-.86,2.83-1.3,4.2-.21.64-.41,1.27-.61,1.91-.33,1.04-1.07,1.6-2.11,1.6Zm-13.41-12.95c.21,0,.44.03.68.09l.94.24c1.24.32,2.53.65,3.79.94,1.62.38,1.84,1.56,1.86,2.43.04,1.26.13,2.54.22,3.79.06.89.13,1.78.17,2.67.03.54.22.9,1.09,1.02.89.12,1.81.21,2.7.3.58.06,1.15.11,1.73.18.62.07.92-.12,1.1-.69.2-.64.41-1.28.61-1.92.44-1.36.89-2.76,1.29-4.15.24-.86.77-1.99,2.5-1.94,1.54.05,3.11.05,4.64,0,1.34-.05,2.14.56,2.52,1.91.47,1.63,1,3.27,1.52,4.86.15.47.31.93.46,1.4.12.36.31.59.89.53.41-.04.83-.08,1.24-.12,1.12-.11,2.27-.22,3.39-.37.8-.11.99-.46,1.02-.97.04-.77.1-1.55.16-2.32.1-1.32.21-2.68.22-4.01.02-1.5.67-2.33,2.05-2.64.93-.21,1.88-.45,2.79-.68.44-.11.88-.23,1.33-.34,1.76-.44,2.43-.15,3.37,1.45.58.98,1.19,1.97,1.79,2.92.42.68.85,1.36,1.26,2.05.41.68.88.82,1.68.5l1.02-.41c.86-.35,1.75-.71,2.64-1.04.95-.36,1.08-.85.98-1.48-.05-.3-.09-.6-.13-.9-.08-.55-.15-1.07-.26-1.59-.15-.72-.34-1.46-.51-2.17-.13-.51-.25-1.02-.37-1.54-.31-1.34.15-2.31,1.36-2.88,1.19-.56,2.35-1.24,3.48-1.89l.29-.17c1.52-.88,2.23-.79,3.46.45,1.29,1.3,2.68,2.66,4.24,4.16.6.57,1.12.61,1.76.13.54-.4,1.08-.79,1.62-1.17.49-.35.99-.7,1.48-1.07,1.1-.82,1.18-1.13.58-2.38-.82-1.71-1.7-3.53-2.64-5.3-.51-.96-.41-1.8.3-2.49.81-.79,1.64-1.56,2.46-2.34.49-.46.99-.93,1.48-1.39.79-.75,1.66-.83,2.67-.25,1.61.93,3.28,1.82,4.89,2.68l1.24.66c.38.2.63.15.92-.19.28-.33.55-.66.83-.99.78-.92,1.58-1.87,2.27-2.86.02-.03.17-.28-.03-1.24-.04-.21-.29-.49-.51-.75l-.1-.11c-1.09-1.26-2.3-2.63-3.8-4.3-.73-.82-.79-1.69-.18-2.6.57-.84,1.11-1.72,1.64-2.58.3-.48.6-.97.91-1.45.9-1.41,1.6-1.67,3.28-1.2,1.25.35,2.49.71,3.73,1.06l1.58.45c1.36.39,1.54.31,2.13-.93.28-.58.54-1.2.8-1.79.28-.66.57-1.34.9-2,.23-.47.17-.78-.23-1.2-.29-.29-.61-.56-.96-.81-1.51-1.04-2.88-1.98-4.3-2.9-.74-.48-1.65-1.3-1.1-2.86.35-.99.66-2.02.96-3.02.19-.61.37-1.22.57-1.83.33-1.04,1.13-1.6,2.22-1.58.64.02,1.27.01,1.91,0,.28,0,.56,0,.84,0h.64v.08h.56c.91,0,1.82,0,2.73,0,.61,0,.92-.28,1.06-.95.1-.47.2-.94.31-1.41.19-.86.39-1.75.53-2.62.19-1.13.13-1.24-.95-1.68-1.71-.7-3.54-1.39-5.43-2.05-1.44-.51-2.03-1.01-1.94-2.79.02-.48.06-.96.09-1.44.05-.68.09-1.37.11-2.06v-.52c.06-2.28.36-2.45,2.67-3.09l.52-.14c.16-.04.31-.06.44-.07.07,0,.14,0,.2-.03.62-.16,1.25-.33,1.87-.5.95-.26,1.9-.51,2.85-.75.38-.1.56-.25.53-.87l-.03-.76c-.05-1.16-.09-2.32-.15-3.49-.07-1.23-.21-1.39-1.39-1.55-1.78-.23-3.56-.42-5.69-.62-1.71-.16-2.3-.68-2.61-2.32-.1-.51-.18-1.03-.27-1.55-.15-.9-.3-1.82-.52-2.7-.34-1.36.1-2.3,1.39-2.95,1.56-.78,3.22-1.67,5.24-2.78.94-.52,1.03-.97.88-1.49-.33-1.12-.7-2.27-1.14-3.51-.57-1.62-.92-1.82-2.65-1.55-.75.12-1.5.23-2.25.34-1.07.16-2.14.33-3.21.49-1.1.17-1.88-.22-2.32-1.19-.39-.87-.82-1.74-1.23-2.59-.25-.5-.49-1.01-.73-1.51-.94-1.98-.62-2.67.97-3.99,1.52-1.26,2.95-2.59,4.16-3.73.47-.44.52-.96.17-1.54-.28-.47-.59-.93-.9-1.38-.38-.57-.77-1.15-1.12-1.76-.85-1.46-1.1-1.37-2.77-.75-1.66.62-3.31,1.39-4.91,2.14l-.1.05c-1.09.51-2.01.31-2.74-.59l-.7-.87c-.81-1.01-1.65-2.06-2.51-3.06-.82-.95-.85-1.89-.11-2.97,1.15-1.66,2.25-3.4,3.33-5.08l.14-.23c.39-.62.33-1.07-.21-1.57-.58-.53-1.15-1.07-1.71-1.61-.44-.41-.87-.83-1.31-1.24-.74-.69-.99-.72-1.75-.18-2.01,1.42-3.52,2.56-4.9,3.68-1.1.89-2.17.92-3.25.08-.63-.49-1.3-.97-1.94-1.44-.46-.34-.92-.68-1.38-1.02-1.74-1.31-1.79-2.16-1.06-4.04.7-1.79,1.24-3.62,1.79-5.49.16-.54-.02-.88-.59-1.12-.51-.22-.96-.51-1.41-.79-.17-.11-.33-.21-.5-.32-1.35-.81-2.2-1.31-2.72-1.22-.49.08-1.06.72-2.14,2.06-.5.61-.98,1.26-1.45,1.88-.4.53-.79,1.05-1.2,1.57-.29.37-1.19,1.51-2.68.88-.32-.13-.63-.27-.95-.4-1.12-.48-2.28-.98-3.44-1.37-1.35-.45-1.93-1.31-1.8-2.7.14-1.57.24-3.16.34-4.71.04-.58.07-1.16.11-1.75.04-.6-.19-.94-.75-1.09-1.5-.4-3.05-.77-4.42-1.1-.73-.17-1.19.06-1.52.78-.22.48-.44.95-.66,1.43-.65,1.39-1.32,2.82-1.89,4.26-.6,1.49-1.7,1.53-2.48,1.43-.44-.06-.89-.12-1.33-.19-1.11-.16-2.26-.33-3.38-.39-1.74-.09-2.16-1.26-2.33-2.13-.04-.2-.06-.4-.08-.6-.02-.15-.03-.31-.06-.46l-.08-.47c-.3-1.63-.6-3.31-.92-4.96-.07-.35-.22-.68-.9-.68-1.6,0-3.19,0-4.79,0-.7,0-.86.32-.92.65-.2,1.01-.38,2.02-.56,3.03-.16.87-.32,1.74-.48,2.61l-.03.14c-.11.57-.22,1.16-.45,1.72-.18.43-.69.93-1.25,1.01-1.97.3-3.91.53-5.72.74-1.01.12-1.73-.32-2.13-1.31-.58-1.41-1.23-2.83-1.86-4.2-.24-.53-.49-1.06-.73-1.59-.35-.77-.84-1-1.7-.78-.51.13-1.03.25-1.54.38-.79.19-1.59.38-2.37.59-.96.25-1.11.44-1.07,1.39.09,1.98.23,4.08.43,6.23.13,1.42-.43,2.29-1.76,2.73-.74.25-1.49.56-2.21.86-.72.3-1.47.62-2.24.88-.67.22-1.62.05-2.13-.39-.5-.43-.9-.95-1.28-1.46-.18-.24-.37-.48-.57-.71l-.59-.69c-.86-1.01-1.75-2.06-2.68-3.02-.09-.07-.46-.12-.58-.07-1.51.74-3.02,1.58-4.49,2.49-.12.07-.32.43-.33.71-.03.48.06,1.04.26,1.63.52,1.53,1.12,3.05,1.63,4.35.4,1,.77,2.44-.61,3.44-1.26.91-2.52,1.82-3.78,2.74-1.39,1.01-1.99,1-3.38-.06l-.39-.3c-1.45-1.11-2.94-2.25-4.45-3.31-.76-.53-1.06-.51-1.76.15-.97.89-1.95,1.83-2.92,2.77-.7.68-.75.98-.27,1.74,1.03,1.64,2.17,3.38,3.48,5.31.68,1.01.66,1.92-.08,2.79-1.13,1.33-2.09,2.5-2.94,3.6-1.09,1.41-1.8,1.59-3.45.87-1.78-.78-3.7-1.56-5.87-2.37-.35-.13-.76-.17-1.2.55-.45.74-.92,1.47-1.38,2.17-.27.41-.54.83-.81,1.25-.6.95-.55,1.34.26,2.08,1.02.93,2.04,1.86,3.07,2.78.53.47,1.05.94,1.58,1.42.85.77,1.01,1.73.45,2.77-.71,1.34-1.24,2.44-1.66,3.48-.88,2.18-1.69,2.62-3.93,2.13-.1-.02-.19-.05-.29-.09-.06-.02-.13-.04-.16-.05l-1.22-.14c-1.36-.16-2.77-.32-4.15-.43-.32-.03-.65.03-.83.64-.31.99-.66,1.98-1,2.94-.12.33-.24.67-.35,1-.39,1.12-.26,1.46.76,2.02,1.7.93,3.44,1.85,5.13,2.74l.3.16c1.03.54,1.43,1.4,1.19,2.54-.17.8-.32,1.62-.45,2.42-.11.62-.22,1.24-.34,1.86-.41,2.08-.96,2.4-2.95,2.57-1.88.16-3.76.4-5.68.65-.77.1-1.09.46-1.11,1.24-.01.58-.05,1.16-.08,1.72-.04.62-.08,1.26-.09,1.89v.42c-.02.54-.02,1,.06,1.11.1.13.61.32,1.24.55l.44.16c.07.03.19.04.3.06.12.02.24.03.35.06.56.13,1.12.27,1.68.41,1.09.26,2.18.53,3.27.78,1.08.24,1.65.96,1.69,2.12.03.88.08,1.76.12,2.65.04.71.08,1.42.1,2.13.07,1.72-.5,2.2-1.91,2.7-1.2.43-2.42.89-3.59,1.34-.72.27-1.44.55-2.16.82-.7.26-.74.66-.68,1.02.13.82.29,1.65.44,2.46.12.64.24,1.28.35,1.92.15.86.56,1.21,1.4,1.19.59,0,1.17-.02,1.76-.02,1.44-.02,2.94-.04,4.4-.09,1.29-.03,2.11.48,2.46,1.55.19.58.37,1.17.55,1.76.29.95.59,1.93.93,2.87.65,1.78-.37,2.69-1.2,3.22-1.76,1.13-3.47,2.37-4.93,3.44-.75.55-.61.88-.53,1.06.6,1.43,1.23,2.91,1.94,4.31.51,1,.69,1.07,1.87.73l1.98-.56c1.15-.33,2.29-.66,3.44-.98,1.75-.5,2.45-.22,3.42,1.35l.24.4c.59.96,1.2,1.96,1.84,2.89,1.1,1.6,1.07,2.15-.2,3.63-1.23,1.44-2.67,3.11-4.06,4.77-.32.38-.43.76.1,1.38.79.93,1.82,2.17,2.85,3.46.45.57.79.55,1.24.3.67-.37,1.35-.74,2.03-1.1,1.32-.71,2.69-1.45,4.01-2.21.93-.53,1.77-.46,2.49.21l.83.78c1.07,1,2.14,2,3.2,3.02.74.71.83,1.57.29,2.58-.96,1.78-1.86,3.65-2.68,5.4-.56,1.18-.2,1.58.21,1.89.6.45,1.23.9,1.83,1.33.56.39,1.13.8,1.69,1.22.68.51,1.21.46,1.84-.15l.54-.52c1.17-1.13,2.39-2.31,3.55-3.49,1.35-1.38,1.99-1.47,3.62-.52,1.18.69,2.24,1.27,3.23,1.76,2.02,1.01,2.19,1.91,1.67,3.95-.36,1.42-.61,2.9-.84,4.34-.08.48-.16.96-.24,1.44-.05.31-.02.64.57.87l1.22.49c1.02.41,2.07.84,3.11,1.24.59.23.99.09,1.34-.46.25-.41.51-.81.76-1.22.8-1.28,1.63-2.6,2.39-3.92.29-.5.92-1.59,2.23-1.59Z"/></g><path class="cls-1" d="m500.38,173.18c-.32-.33-.69-.63-1.07-.89-1.44-.99-2.88-1.97-4.35-2.91-.81-.52-1.21-1.1-.85-2.12.57-1.6,1.02-3.25,1.55-4.87.25-.76.77-1.15,1.61-1.13.6.01,2.04.01,2.64,0-19.76-14.1-44.04-22.72-69.51-23.78l1.44,20.8h-.03c0,.07.02.14.02.21,0,2.03-3.03,3.68-6.76,3.68s-6.76-1.65-6.76-3.68c0-.07-.01-.21-.01-.21l1.44-20.79c-25.37,1.07-48.9,9.7-68.65,23.8.53-.01,1.05-.02,1.58-.04.9-.03,1.56.23,1.84,1.11.51,1.55.94,3.13,1.51,4.66.43,1.16.05,1.83-.95,2.46-1.71,1.09-3.37,2.27-5,3.47-.58.42-1.09,1.02-.75,1.82.62,1.47,1.25,2.94,1.98,4.36.68,1.31,1.2,1.46,2.63,1.06,1.82-.51,3.64-1.03,5.46-1.55,1.49-.42,1.91-.24,2.72,1.07.69,1.12,1.38,2.24,2.12,3.32.94,1.35.95,1.57-.16,2.85-1.37,1.59-2.75,3.17-4.1,4.77-.64.75-.52,1.48.1,2.21.97,1.14,1.93,2.28,2.86,3.45.58.72,1.23.91,2.06.46,2.03-1.11,4.09-2.18,6.1-3.32.66-.38,1.2-.39,1.75.12,1.36,1.26,2.72,2.51,4.06,3.79.56.54.56,1.1.17,1.81-.97,1.78-1.85,3.6-2.72,5.43-.58,1.21-.45,2.04.4,2.68,1.17.88,2.39,1.68,3.56,2.55.98.73,1.86.6,2.69-.2,1.39-1.33,2.79-2.66,4.14-4.03,1.15-1.16,1.48-1.22,2.86-.42,1.08.63,2.17,1.23,3.29,1.78,1.68.83,1.82,1.37,1.34,3.22-.5,1.91-.76,3.88-1.1,5.83-.13.77.25,1.29.97,1.58,1.46.58,2.91,1.18,4.37,1.74.89.34,1.62.09,2.13-.72,1.07-1.72,2.17-3.42,3.19-5.16.52-.88,1.09-1.48,2.22-1.2,1.6.4,3.19.82,4.79,1.19,1.01.23,1.35.81,1.38,1.82.07,2.16.28,4.31.4,6.47.06,1.08.74,1.49,1.66,1.62,1.49.2,2.99.31,4.48.48.92.1,1.52-.25,1.8-1.14.64-2.03,1.34-4.04,1.92-6.09.29-1.01.78-1.51,1.88-1.47,1.57.05,3.15.05,4.73,0,1.08-.04,1.61.42,1.9,1.44.61,2.11,1.32,4.19,2,6.28.25.75.8,1.05,1.58.97,1.57-.16,3.13-.3,4.69-.5.88-.12,1.53-.55,1.58-1.57.12-2.12.36-4.24.39-6.36.02-1.17.43-1.78,1.56-2.02,1.4-.31,2.78-.68,4.17-1.02,1.53-.38,1.89-.18,2.69,1.16,1,1.68,2.06,3.32,3.08,4.98.61,1,1.45,1.17,2.49.76,1.23-.49,2.45-.99,3.68-1.45,1.04-.39,1.58-1.04,1.39-2.18-.14-.84-.22-1.69-.4-2.51-.27-1.25-.61-2.48-.9-3.72-.23-.97,0-1.68,1.02-2.16,1.32-.61,2.59-1.36,3.86-2.09,1.28-.74,1.68-.68,2.71.35,1.41,1.41,2.84,2.8,4.29,4.17.8.76,1.67.88,2.61.18,1.03-.76,2.09-1.48,3.13-2.24,1.36-1,1.53-1.63.78-3.17-.86-1.79-1.74-3.58-2.68-5.33-.37-.68-.34-1.22.19-1.72,1.31-1.26,2.65-2.48,3.97-3.73.6-.57,1.17-.59,1.92-.16,2.04,1.17,4.13,2.25,6.2,3.35.66.35,1.25.22,1.73-.35,1.07-1.28,2.2-2.53,3.16-3.89.29-.41.19-1.18.07-1.74-.09-.42-.46-.8-.76-1.14-1.27-1.45-2.55-2.88-3.84-4.31-.53-.58-.59-1.13-.13-1.81.9-1.32,1.72-2.7,2.58-4.04.75-1.17,1.17-1.32,2.59-.93,1.79.5,3.57,1.01,5.35,1.51,1.65.47,2.16.27,2.91-1.27.6-1.24,1.09-2.54,1.7-3.78.38-.78.19-1.38-.35-1.93Z"/><g><path class="cls-1" d="m452.51,105.71c-.31-.09-.56-.11-.77-.06-.54.13-.56.97-.04,1.16,6.34,2.31,13.65.65,17.88-3.9.2-.22.21-.57.03-.81h0c-.19-.27-.54-.3-.77-.09-4.84,4.32-10.27,5.55-16.32,3.69Z"/><path class="cls-1" d="m427.8,111.92c-.38.62.36,1.33.86.81,7.63-7.83,21.03-8.38,24.78-20.23.1-.33-.07-.68-.37-.79h0c-.31-.11-.64.09-.72.43-2.42,10.29-21,13.9-24.54,19.77Z"/><path class="cls-1" d="m463.46,103.9c.23-.13.41-.35.55-.59.67-1.23,1.53-2.28,2.25-3.46.1-.16.15-.37.12-.56-.03-.19-.16-.37-.33-.44-.16-.06-.34-.02-.49.07-.38.23-.63.69-.9,1.05-.33.44-.65.88-.98,1.32-.13.18-.24.38-.36.57-.06.09-.12.18-.18.26-.22.28-.46.53-.58.88-.06.18-.09.38-.08.57,0,.12.03.24.11.32.04.03.08.06.12.07.24.1.52.06.75-.07Z"/><path class="cls-1" d="m442.34,98.57c-.48.52.13,1.37.71.98,3.57-2.35,5.94-5.68,7.41-9.95.11-.33-.05-.7-.35-.81h-.01c-.29-.11-.61.05-.72.37-2.07,6.23-5.79,8.05-7.03,9.41Z"/><path class="cls-1" d="m445.25,87.02l-.15-.05c-.26-.09-.53.06-.63.33-.71,1.89-1.67,3.52-2.95,4.94-.02.03-.05.06-.07.09-.31.52.34,1.11.78.71,1.58-1.41,2.62-3.19,3.35-5.29.1-.3-.05-.64-.33-.73Z"/><path class="cls-1" d="m481.43,120.51c-2.39.7-4.73,1.37-7.05,2.05-.41.12-.63.69-.41,1.12.24.47.61.49,1.18.25,2.16-.88,4.28-1.45,6.53-1.9.34-.07.58-.46.53-.88,0,0,0-.01,0-.02-.06-.45-.41-.74-.77-.64Z"/><path class="cls-1" d="m434.06,131.19c1.26-1.77,2.84-3.36,4.21-5.07,3.02-3.76,5.14-8.34,5.51-13.15.03-.42.01-1.82-.69-1.79s-.68,1.65-.68,2.09c.05,4.69-2.39,9.07-5.45,12.63-1.94,2.26-4.2,4.34-5.43,7.06-1.22,2.7-1.32,5.75-1.26,8.71.11,5.63.69,11.26,1.68,16.8.38,0,.76.01,1.15.02-.29-5.99-1.45-11.92-1.56-17.91-.04-2.11.06-4.27.79-6.25.42-1.13,1.02-2.16,1.71-3.14Z"/><path class="cls-1" d="m480.97,126.79c1.38.05,1.11-1.59.17-1.55l-2.71.7c-.76.2-.56,1.62.21,1.46.74-.16,1.53-.58,2.33-.61Z"/><path class="cls-1" d="m440.65,85.38s0,0,0,0c-.31-.09-.63.13-.71.47-1.16,5.37-1.18,10.65.38,15.98.11.36.48.54.79.38h.03c.27-.15.4-.48.31-.8-1.49-5.1-1.41-10.18-.37-15.27.07-.34-.12-.68-.43-.76Z"/><path class="cls-1" d="m481.06,137.38c.29.04.56-.19.61-.51v-.02c.05-.33-.16-.64-.46-.69-6.97-1.22-13.12-6.2-15.23-13.68-.09-.34-.42-.52-.72-.4h-.01c-.27.11-.42.42-.35.72,1.85,7.64,8.57,13.52,16.16,14.58Z"/><path class="cls-1" d="m482.58,130.68c-5.61-1.04-9.84-3.89-11.73-10.02-.1-.32-.41-.49-.7-.37l-.05.02c-.25.1-.4.4-.33.68,1.53,6.6,7.71,10.57,12.7,10.86.26.02.49-.19.54-.48h0c.06-.34-.14-.64-.44-.7Z"/><path class="cls-1" d="m430.38,127.34c2.55-4.33,7.02-7.29,7.84-12.45.1-.61-.7-.94-.94-.38-.01.03-.03.07-.03.1-.57,2.64-2.18,4.5-3.75,6.44-1.31,1.61-2.47,3.37-3.67,5.08-.16.23-.28.47-.36.72-.21.63.58,1.04.91.48Z"/><path class="cls-1" d="m408.61,92.24c-1.28-1.43-2.24-3.05-2.95-4.94-.1-.27-.38-.42-.63-.33l-.15.05c-.28.1-.43.43-.33.73.73,2.1,1.77,3.88,3.35,5.29.44.39,1.09-.2.78-.71-.02-.03-.04-.06-.07-.09Z"/><path class="cls-1" d="m435.63,83.98c-.32-.07-.63.15-.7.49-1.41,6.68-1.34,13.22.67,19.75.12.37.51.55.83.37h0c.27-.15.39-.49.3-.8-1.94-6.27-2.01-12.61-.64-19.01.08-.36-.13-.72-.46-.8Z"/><path class="cls-1" d="m477.39,115.82c-.18.02-.35.05-.53.08-1.49.26-2.97.79-4.43,1.22-1.4.42-2.82.82-4.21,1.28-2.86.95-5.71,1.96-8.57,2.91-.34.11-.74.21-1.13.32-.4.08-1.03.27-1.31.38-1.78.67-3.61,1.01-5.49,1.06-1.42.03-2.92-.17-4.3-.54-.09-.02-.17-.05-.26-.07-1.23-.35-2.42-.67-3.61-1.05-.85-.27-1.01-.35-1.24.35-.11.34.07.71.39.8,1.31.37,2.62.74,3.93,1.1.1.03.19.04.27.04,1.86.57,3.82.74,5.74.61,1.95-.13,3.88-.56,5.76-1.16.57-.1,1.14-.36,1.7-.54.74-.25,1.47-.49,2.21-.74,1.48-.49,2.95-.98,4.43-1.47,2.96-.99,5.92-1.97,8.88-2.96.54-.19,1.09-.29,1.63-.46.2-.06.41-.13.57-.28.16-.15.25-.41.16-.62-.1-.23-.38-.3-.61-.27Z"/><path class="cls-1" d="m386.67,103.9c.23.13.51.17.75.07.04-.02.09-.04.12-.07.08-.08.11-.2.11-.32.01-.19-.02-.39-.08-.57-.12-.35-.37-.6-.58-.88-.07-.09-.13-.17-.18-.26-.12-.19-.23-.38-.36-.57-.32-.44-.65-.88-.98-1.32-.27-.36-.52-.82-.9-1.05-.15-.09-.33-.14-.49-.07-.17.06-.29.24-.33.44-.03.19.02.4.12.56.72,1.18,1.59,2.23,2.25,3.46.13.24.32.46.55.59Z"/><path class="cls-1" d="m380.36,102.88h0c-.16.26-.13.61.09.81,4.54,4.18,11.94,5.21,18.1,2.37.51-.24.43-1.07-.12-1.16-.22-.03-.47,0-.77.12-5.9,2.37-11.4,1.61-16.53-2.29-.25-.19-.59-.13-.77.15Z"/><path class="cls-1" d="m409,102.2h.03c.31.17.69,0,.79-.37,1.56-5.32,1.54-10.6.38-15.98-.07-.34-.39-.56-.71-.47,0,0,0,0,0,0-.31.09-.5.42-.43.76,1.04,5.09,1.12,10.17-.37,15.27-.09.31.04.65.31.78Z"/><path class="cls-1" d="m397.07,91.71c-.3.11-.47.46-.37.79,1.96,6.19,7,9.57,12.12,12.25,1.32.69,2.64,1.35,3.96,2.03.91.47,1.72,1.16,2.69,1.53.34.13.86.33,1.16.02.06-.06.1-.12.13-.17.35-.64-.87-1.19-1.26-1.4-2.67-1.44-5.39-2.76-8.02-4.3-3.86-2.26-8.51-5.33-9.68-10.32-.08-.35-.41-.54-.72-.43Z"/><path class="cls-1" d="m430.28,94.3c.56-.14.94-1.61,1.14-2.12.35-.89.66-1.81.9-2.74.48-1.86.7-3.79.58-5.72-.02-.27-.22-.48-.46-.49-.26-.02-.49.2-.51.49-.16,1.8-.41,3.6-.83,5.36-.18.74-.44,1.45-.62,2.18-.18.77-.65,1.48-.76,2.26-.03.21-.02.45.11.62.03.04.06.07.09.09.1.08.24.11.36.08Z"/><path class="cls-1" d="m426.96,89.21c.19-.58.35-1.17.47-1.76.26-1.21.38-2.46.36-3.7,0-.31-.24-.56-.53-.56h-.03c-.28,0-.51.24-.52.55-.07,1.26-.26,2.5-.57,3.72-.2.79-1.01,2.29-.26,3,.11.1.24.17.38.15.38-.06.58-1.07.68-1.4Z"/><path class="cls-1" d="m413.7,104.59h0c.32.18.72,0,.83-.37,2.01-6.52,2.08-13.06.67-19.75-.07-.34-.39-.56-.7-.49-.33.07-.54.43-.46.8,1.37,6.41,1.3,12.75-.64,19.01-.1.31.03.65.3.8Z"/><path class="cls-1" d="m422.89,83.19h-.03c-.28,0-.52.25-.52.56-.13,9.05,7.04,14.83,11.13,21.87.15.26.45.34.69.2.26-.16.35-.52.2-.8-4.02-7.26-10.46-12.19-10.95-21.27-.02-.31-.24-.55-.52-.55Z"/><path class="cls-1" d="m400.04,88.78h-.01c-.3.12-.47.49-.35.82,1.46,4.27,3.84,7.6,7.41,9.95.58.38,1.18-.46.71-.98-1.24-1.36-4.96-3.18-7.03-9.41-.11-.32-.43-.48-.72-.37Z"/><path class="cls-1" d="m392.06,113.62c-.44-.08-.79.41-.67.88.27,1.11.24,2.25.47,3.36.06.26.14.52.3.72.14.17.36.29.57.26.03,0,.06-.01.09-.02.22-.08.37-.33.42-.58.05-.25,0-.52-.03-.77-.16-1.07-.43-2.09-.61-3.14-.11-.46-.29-.65-.53-.69Z"/><path class="cls-1" d="m405.17,116.11c-1.58.35-3.15.69-4.75,1.04-.55.12-.62.99-.09,1.16.16.05.37.06.63,0,.73-.37,3.61-.4,4.64-1.12.5-.35.15-1.22-.43-1.09Z"/><path class="cls-1" d="m373.57,110.96h0c-.03.36.19.67.5.73,5.49,1.02,10.57,3.45,15.92,5.1.64.2,1.08-.78.51-1.17-.08-.05-.17-.1-.27-.13-5.36-1.72-10.45-3.96-15.95-5.11-.35-.07-.68.2-.71.59Z"/><path class="cls-1" d="m376.2,105.81c-.2.25-.19.63.03.86,6.68,6.72,17.82,7.68,25.93,3.05.5-.29.34-1.15-.23-1.16-.19,0-.39.04-.63.16-8.62,4.2-16.86,3.4-24.34-2.98-.23-.2-.56-.17-.76.07Z"/><path class="cls-1" d="m372.74,115.82c-.23-.03-.51.04-.61.27-.09.21,0,.47.16.62.16.15.37.22.57.28.54.17,1.1.27,1.63.46,2.96.99,5.92,1.97,8.88,2.96,1.48.49,2.95.98,4.43,1.47.74.25,1.47.49,2.21.74.46.15.94.36,1.42.48.1.05.2.09.3.12,1.97.63,3.99,1.08,6.04,1.2,2.05.12,4.12-.09,6.08-.77.12-.04.24-.09.35-.17,1.07-.3,2.14-.6,3.22-.9.32-.09.5-.46.39-.8-.23-.69-.38-.62-1.24-.35-1.19.38-2.39.7-3.62,1.05-.11.03-.21.1-.28.19-1.29.32-2.67.52-3.98.5-1.88-.03-3.71-.35-5.49-1.01-.29-.11-.96-.31-1.36-.38-.43-.21-.94-.31-1.38-.45-2.86-.96-5.71-1.97-8.57-2.91-1.39-.46-2.81-.86-4.21-1.28-1.46-.44-2.93-.96-4.43-1.22-.18-.03-.35-.06-.53-.08Z"/><path class="cls-1" d="m387.83,95.52h0c-.16.23-.16.54,0,.76,1.24,1.72,2.48,3.41,3.68,5.13.81.76,1.09,2.84,2.1,2.98.43.06.73-.49.51-.9-1.49-2.91-3.29-5.52-5.46-8.02-.23-.27-.63-.24-.83.04Z"/><path class="cls-1" d="m448.47,118.23c.39.05.94.22,1.33.09.53-.18.46-1.04-.09-1.16-1.6-.35-3.16-.69-4.75-1.04-.58-.13-.93.73-.43,1.09.65.46,1.45.47,2.17.66.58.15,1.17.3,1.76.38Z"/><path class="cls-1" d="m384.87,122.07c-.3-.12-.63.06-.72.4-2.11,7.48-8.26,12.47-15.23,13.68-.3.05-.51.36-.46.69v.02c.05.32.32.55.61.51,7.59-1.06,14.3-6.95,16.16-14.58.07-.3-.08-.61-.35-.72h-.01Z"/><path class="cls-1" d="m418.92,133.11c-1.94-4.44-6.01-7.58-8.47-11.75-1.18-2-1.98-4.22-2.34-6.51-.11-.7.03-2.71-.44-3.23-.07-.08-.13-.13-.2-.18-.53-.38-.87.29-.86.99.04,2.9.78,5.79,2.15,8.35,2.46,4.61,6.84,8.07,8.84,12.9,1.3,3.14,1.07,6.61,1.17,10.01.06,2.09-1.61,12.71-1.57,14.8.41,0,.69,0,1.1,0-.43-5.67,2.89-20.18.62-25.39Z"/><path class="cls-1" d="m367.11,131.37h0c.05.3.28.5.54.49,5-.29,11.18-4.26,12.7-10.86.07-.29-.08-.58-.33-.68l-.05-.02c-.28-.12-.6.05-.7.37-1.89,6.12-6.12,8.97-11.73,10.02-.3.06-.5.36-.44.69Z"/><path class="cls-1" d="m368.99,125.24c-.94-.05-1.21,1.6.17,1.55.81.04,1.59.46,2.33.61.77.16.97-1.26.21-1.46l-2.71-.7Z"/><path class="cls-1" d="m367.93,121.15s0,.01,0,.02c-.05.42.18.81.53.88,2.25.45,4.38,1.01,6.53,1.9.56.23.94.22,1.18-.25.22-.43,0-1.01-.41-1.12-2.32-.68-4.66-1.35-7.05-2.05-.36-.1-.72.19-.77.64Z"/><path class="cls-1" d="m396.98,112.91c-.33.09-.52.45-.44.81.29,1.14.24,3.9,1.32,4.6.17.11.43.11.56-.06.14-.18.09-.44.04-.67-.31-1.39-.41-2.82-.76-4.2-.08-.35-.4-.56-.72-.48Z"/><path class="cls-1" d="m475.85,110.37c-5.5,1.15-10.59,3.39-15.95,5.11-.11.04-.2.08-.27.13-.57.39-.13,1.37.51,1.17,5.35-1.65,10.43-4.08,15.92-5.1.31-.06.53-.37.5-.71h0c-.03-.4-.36-.67-.71-.6Z"/><path class="cls-1" d="m473.17,105.74c-7.48,6.38-15.72,7.19-24.34,2.98-.24-.12-.45-.16-.63-.16-.57,0-.73.87-.23,1.16,8.11,4.63,19.24,3.67,25.93-3.05.22-.23.24-.61.03-.86-.2-.24-.53-.27-.76-.07Z"/><path class="cls-1" d="m462.3,95.52c-.21-.29-.6-.31-.83-.04-2.17,2.5-3.97,5.11-5.46,8.02-.21.41.08.96.51.9,1.02-.14,1.29-2.22,2.1-2.98,1.2-1.72,2.44-3.41,3.68-5.13.16-.22.16-.53,0-.75h0Z"/><path class="cls-1" d="m456.67,120.15c.9-.05,1.13-2.08,1.33-2.78.26-.95.51-1.91.75-2.87.12-.47-.24-.96-.67-.88-.24.04-.42.23-.53.69-.27,1.1-.54,2.2-.85,3.29-.13.45-.94,2.23-.27,2.5.07.03.15.04.24.03Z"/><path class="cls-1" d="m452.76,116.79c.29-1.01.56-2.04.82-3.07.09-.36-.11-.72-.44-.81-.32-.08-.64.13-.72.48-.23.98-.48,1.95-.75,2.91-.18.61-.92,1.96-.38,2.51.9.91,1.31-1.5,1.46-2.02Z"/><path class="cls-1" d="m391.92,93.06c-.24.08-.37.36-.3.62,4.79,17.28,22.3,14.92,28.49,26.55.26.49.95.2.84-.35-2.15-10.1-23.93-10.67-28.47-26.48-.07-.26-.32-.41-.56-.33Z"/><path class="cls-1" d="m416.63,121.05c-1.57-1.93-3.18-3.79-3.75-6.44,0-.04-.02-.07-.03-.1-.24-.56-1.04-.23-.94.38.82,5.15,5.29,8.12,7.84,12.45.33.56,1.12.14.91-.48-.08-.25-.2-.49-.36-.72-1.2-1.72-2.36-3.47-3.67-5.08Z"/><path class="cls-1" d="m415.5,102.87c-.23.14-.27.57-.15.87.12.29.34.48.55.66,2.29,1.98,4.03,4.96,5.21,8.23.71,1.96,1.14,3.7,1.4,5.79.27,2.19.21,4.71.34,6.91.02.3.04.59.06.89.02.25.05.52.17.74s.36.38.58.32c.16-.04.21-.99.21-1.22.02-.6-.04-1.21-.04-1.81-.02-1.06-.05-2.12-.11-3.18-.11-2.15-.35-4.29-.84-6.37-.58-2.47-1.41-4.73-2.62-6.78-.24-.41-.49-.8-.76-1.18-.99-1.43-2.13-2.68-3.39-3.69-.19-.15-.42-.3-.62-.18Z"/><path class="cls-1" d="m458.21,93.06c-.24-.08-.49.07-.56.33-4.54,15.81-26.32,16.39-28.47,26.48-.12.55.57.84.84.35,6.2-11.63,23.7-9.27,28.49-26.55.07-.26-.06-.54-.3-.62Z"/><path class="cls-1" d="m417.7,83.22c-.24.01-.44.22-.46.49-.6,9.46,6.92,17.62,11.92,24.88.16.23.45.28.67.11h.02c.21-.17.27-.49.14-.73-5.36-9.71-10.66-11.47-11.76-24.26-.02-.29-.25-.5-.51-.49Z"/><path class="cls-1" d="m416.82,97.13c-.77.24.38,1.23.82,1.64,7.77,7.27,8.9,15.29,9.42,20.16.52,4.87.11,8.57,1.34,7.83.33-.2.17-2.65.06-4.02-.62-7.75-1.67-14.2-6.36-20.67-1.21-1.66-4.4-5.21-5.29-4.93Z"/></g></svg>