<?xml version="1.0" encoding="UTF-8"?><svg id="Layer_1" xmlns="http://www.w3.org/2000/svg" viewBox="0 0 373.67 155"><defs><style>.cls-1{fill:#fff;}</style></defs><g><path class="cls-1" d="m201.11,96.17c-2-1-3.49-2.69-4.47-5.07-.98-2.38-1.46-5.67-1.46-9.88v-12.62c0-4.11.5-7.35,1.5-9.73,1-2.38,2.5-4.08,4.51-5.11,2-1.03,4.63-1.54,7.89-1.54s5.96.5,7.96,1.5c2,1,3.49,2.71,4.47,5.11.98,2.4,1.46,5.74,1.46,9.99v12.4c0,5.96-1.1,10.19-3.31,12.7-2.2,2.5-5.74,3.76-10.59,3.76-3.31,0-5.96-.5-7.96-1.5Zm14.2-3.31c1.45-.9,2.47-2.29,3.04-4.17.57-1.88.86-4.42.86-7.63v-12.25c0-3.36-.25-5.95-.75-7.78-.5-1.83-1.48-3.17-2.93-4.02-1.45-.85-3.61-1.28-6.46-1.28-2.71,0-4.78.43-6.24,1.28-1.45.85-2.47,2.2-3.04,4.06-.58,1.85-.86,4.38-.86,7.59v12.25c0,3.41.25,6.04.75,7.89.5,1.85,1.48,3.22,2.93,4.09,1.45.88,3.61,1.32,6.46,1.32,2.7,0,4.78-.45,6.24-1.35Z"/><path class="cls-1" d="m259.18,91.44c-1.45,2.35-3.19,3.98-5.22,4.88-2.03.9-4.6,1.35-7.7,1.35-3.81,0-6.8-.94-8.98-2.82s-3.27-4.82-3.27-8.83c0-4.56,1.61-7.85,4.85-9.88,3.23-2.03,7.93-3.04,14.09-3.04,1.8,0,3.76.07,5.86.23v-6.61c0-3.96-.74-6.8-2.22-8.53-1.48-1.73-3.92-2.59-7.32-2.59s-5.72.73-7.25,2.18c-1.53,1.45-2.29,4.16-2.29,8.11h-3.61c0-4.71,1.03-8.16,3.08-10.37,2.05-2.2,5.41-3.31,10.07-3.31s7.83,1.14,9.96,3.42c2.13,2.28,3.19,5.95,3.19,11.01v30.28h-3.16l-.07-5.48Zm-6.76-14.88c-4.96,0-8.64.79-11.04,2.37-2.4,1.58-3.61,3.97-3.61,7.17,0,2.81.8,4.85,2.4,6.12,1.6,1.28,4.08,1.92,7.44,1.92,2.6,0,4.74-.56,6.42-1.69,1.68-1.13,2.89-2.52,3.64-4.17.75-1.65,1.13-3.31,1.13-4.96v-6.39c-2.61-.25-4.73-.38-6.39-.38Z"/><path class="cls-1" d="m283.37,75.06h-4.13v21.86h-3.91v-58h3.83v32.23h4.13l14.05-18.18h4.51l-15.4,20.13,17.28,23.82h-4.66l-15.7-21.86Z"/></g><g><path class="cls-1" d="m175.91,121.11c0,4.22-2.2,6.47-4.88,6.47s-4.72-2.52-4.72-6.24,2.06-6.45,4.87-6.45,4.73,2.57,4.73,6.22Zm-8.17.19c0,2.63,1.22,4.98,3.36,4.98s3.37-2.31,3.37-5.11c0-2.45-1.09-5-3.35-5s-3.38,2.44-3.38,5.12Z"/><path class="cls-1" d="m178.5,127.38v-12.29h1.49l3.37,6.21c.77,1.44,1.38,2.73,1.88,4l.03-.02c-.12-1.64-.15-3.14-.15-5.04v-5.15h1.28v12.29h-1.38l-3.34-6.23c-.72-1.38-1.43-2.78-1.95-4.11l-.05.02c.08,1.56.1,3.04.1,5.07v5.25h-1.28Z"/><path class="cls-1" d="m191.61,116.43h-3.2v-1.34h7.78v1.34h-3.22v10.95h-1.37v-10.95Z"/><path class="cls-1" d="m206.76,121.11c0,4.22-2.2,6.47-4.88,6.47s-4.72-2.52-4.72-6.24,2.06-6.45,4.87-6.45,4.74,2.57,4.74,6.22Zm-8.17.19c0,2.63,1.22,4.98,3.36,4.98s3.37-2.31,3.37-5.11c0-2.45-1.09-5-3.35-5s-3.38,2.44-3.38,5.12Z"/><path class="cls-1" d="m209.35,115.09h1.36v10.95h4.49v1.34h-5.86v-12.29Z"/><path class="cls-1" d="m225.93,121.11c0,4.22-2.2,6.47-4.88,6.47s-4.72-2.52-4.72-6.24,2.06-6.45,4.87-6.45,4.73,2.57,4.73,6.22Zm-8.17.19c0,2.63,1.22,4.98,3.36,4.98s3.37-2.31,3.37-5.11c0-2.45-1.09-5-3.35-5s-3.38,2.44-3.38,5.12Z"/><path class="cls-1" d="m236.53,126.82c-.61.27-1.82.68-3.23.68-1.59,0-2.91-.47-3.93-1.62-.91-1.02-1.46-2.65-1.46-4.56,0-3.66,2.16-6.35,5.68-6.35,1.22,0,2.18.31,2.63.56l-.34,1.29c-.56-.3-1.26-.53-2.32-.53-2.55,0-4.22,1.85-4.22,4.93s1.6,4.96,4.06,4.96c.89,0,1.49-.15,1.8-.33v-3.66h-2.13v-1.27h3.46v5.9Z"/><path class="cls-1" d="m241.78,127.38v-5.21l-3.33-7.08h1.55l1.48,3.39c.4.93.72,1.68,1.04,2.54h.03c.29-.81.65-1.61,1.05-2.54l1.52-3.38h1.54l-3.52,7.05v5.23h-1.36Z"/><path class="cls-1" d="m254.56,123.51l-1.09,3.86h-1.41l3.57-12.29h1.63l3.59,12.29h-1.45l-1.13-3.86h-3.73Zm3.45-1.24l-1.04-3.54c-.23-.8-.38-1.54-.54-2.24h-.04c-.15.72-.32,1.47-.52,2.22l-1.04,3.56h3.18Z"/><path class="cls-1" d="m270.35,126.98c-.49.29-1.5.58-2.78.58-2.96,0-5.18-2.19-5.18-6.22s2.22-6.45,5.49-6.45c1.3,0,2.14.32,2.49.54l-.33,1.29c-.51-.28-1.24-.51-2.11-.51-2.47,0-4.1,1.84-4.1,5.07,0,3.01,1.48,4.93,4.03,4.93.84,0,1.68-.2,2.23-.5l.27,1.27Z"/><path class="cls-1" d="m279.9,126.98c-.49.29-1.5.58-2.78.58-2.96,0-5.18-2.19-5.18-6.22s2.22-6.45,5.49-6.45c1.3,0,2.14.32,2.49.54l-.33,1.29c-.51-.28-1.24-.51-2.11-.51-2.47,0-4.1,1.84-4.1,5.07,0,3.01,1.48,4.93,4.03,4.93.84,0,1.68-.2,2.23-.5l.27,1.27Z"/><path class="cls-1" d="m287.88,121.62h-4.08v4.44h4.56v1.32h-5.92v-12.29h5.68v1.32h-4.32v3.89h4.08v1.31Z"/><path class="cls-1" d="m290.77,125.44c.61.44,1.49.8,2.42.8,1.39,0,2.2-.85,2.2-2.09,0-1.14-.57-1.81-1.99-2.43-1.72-.71-2.78-1.77-2.78-3.49,0-1.91,1.36-3.33,3.41-3.33,1.07,0,1.86.29,2.32.59l-.38,1.3c-.33-.23-1.04-.58-1.98-.58-1.44,0-1.99,1-1.99,1.84,0,1.14.64,1.7,2.09,2.36,1.78.82,2.68,1.82,2.68,3.62s-1.19,3.54-3.68,3.54c-1.02,0-2.12-.36-2.69-.8l.36-1.32Z"/><path class="cls-1" d="m299.3,125.44c.61.44,1.49.8,2.42.8,1.39,0,2.2-.85,2.2-2.09,0-1.14-.57-1.81-1.99-2.43-1.72-.71-2.78-1.77-2.78-3.49,0-1.91,1.36-3.33,3.41-3.33,1.07,0,1.86.29,2.32.59l-.38,1.3c-.33-.23-1.04-.58-1.98-.58-1.44,0-1.99,1-1.99,1.84,0,1.14.64,1.7,2.09,2.36,1.78.82,2.68,1.82,2.68,3.62s-1.19,3.54-3.68,3.54c-1.02,0-2.12-.36-2.69-.8l.36-1.32Z"/><path class="cls-1" d="m312.14,115.09h1.36v5.92h.05c.28-.48.57-.91.83-1.31l3.21-4.62h1.68l-3.8,5.22,4.1,7.06h-1.61l-3.45-6.03-1.01,1.35v4.68h-1.36v-12.29Z"/><path class="cls-1" d="m322.8,115.09v12.29h-1.36v-12.29h1.36Z"/><path class="cls-1" d="m328.01,116.43h-3.2v-1.34h7.78v1.34h-3.22v10.95h-1.37v-10.95Z"/></g><g id="XoIyDF.tif"><path class="cls-1" d="m81.09,144.83c-.09,0-.19,0-.28-.02-.45-.05-.9-.1-1.35-.14-.71-.07-1.45-.14-2.18-.24-1.37-.19-1.71-1.06-1.74-1.76-.04-.7-.09-1.4-.14-2.1-.07-1-.15-2.03-.18-3.04-.02-.69-.23-.86-.69-.97-1.02-.24-2.04-.5-3.03-.75l-.75-.19c-.51-.13-.78.04-1.18.71-.62,1.06-1.28,2.12-1.91,3.14-.2.32-.4.64-.6.97-.53.85-1.36,1.13-2.29.78-.83-.32-1.67-.66-2.48-.99l-.96-.39c-.82-.33-1.21-.99-1.07-1.81.06-.38.13-.75.19-1.13.19-1.16.38-2.37.68-3.53.33-1.29.27-1.44-.79-1.97-.8-.4-1.66-.87-2.62-1.43-.86-.51-.88-.52-1.63.25-.93.95-1.9,1.88-2.83,2.79l-.43.42c-.86.83-1.84.9-2.77.2-.43-.32-.88-.64-1.32-.95-.49-.35-.99-.7-1.48-1.07-.87-.66-1.03-1.56-.47-2.74.66-1.4,1.38-2.89,2.15-4.33.26-.49.15-.64-.04-.83-.84-.8-1.68-1.59-2.53-2.38l-.66-.62c-.21-.2-.38-.25-.77-.02-1.06.6-2.15,1.19-3.2,1.76-.53.29-1.07.58-1.6.87-.59.33-1.47.5-2.26-.5-.81-1.01-1.62-1.99-2.24-2.72-.68-.8-.7-1.66-.08-2.4,1.11-1.32,2.25-2.65,3.23-3.79q.68-.79.09-1.64c-.53-.76-1.02-1.56-1.49-2.34l-.19-.32c-.52-.85-.63-.89-1.57-.63-.91.26-1.81.52-2.72.78l-1.57.45c-1.39.4-2.03.13-2.66-1.09-.59-1.14-1.09-2.34-1.57-3.49-.22-.52-.27-1.3.76-2.05,1.17-.86,2.54-1.86,3.96-2.77.65-.42.77-.72.54-1.35-.28-.77-.52-1.56-.76-2.33-.14-.46-.28-.92-.43-1.38-.11-.35-.31-.55-.95-.53-1.17.04-2.36.06-3.51.07-.46,0-.93.01-1.39.02-.02,0-.03,0-.05,0-1.14,0-1.88-.63-2.08-1.79-.09-.5-.18-1-.28-1.5-.12-.65-.25-1.32-.36-1.98-.14-.89.29-1.59,1.19-1.92.57-.21,1.14-.43,1.7-.65.94-.36,1.91-.73,2.87-1.07.82-.29.87-.36.84-1.14-.02-.56-.05-1.12-.08-1.68-.04-.71-.07-1.41-.1-2.12-.02-.51-.2-.64-.55-.72-.87-.2-1.74-.41-2.61-.62-.44-.11-.89-.21-1.33-.32-.06-.01-.12-.02-.19-.03-.14-.02-.29-.04-.45-.1l-.34-.13c-1.53-.56-1.73-.72-1.7-2.28v-.33c.01-.52.04-1.04.08-1.55.03-.44.06-.89.07-1.33.02-1.12.65-1.82,1.76-1.96,1.53-.2,3.03-.39,4.55-.52q1.21-.1,1.43-1.22c.1-.48.18-.97.26-1.45.11-.64.23-1.31.37-1.96.1-.46,0-.68-.42-.9l-.24-.13c-1.34-.71-2.73-1.44-4.08-2.18-1.24-.68-1.54-1.48-1.07-2.83.09-.27.19-.53.28-.8.27-.75.54-1.52.78-2.29.26-.84.89-1.28,1.71-1.21,1.11.09,2.23.22,3.32.35l.96.11c.14.02.25.05.34.09.04.01.08.03.11.04,1.3.28,1.44.2,1.96-1.08.34-.85.78-1.76,1.36-2.86.23-.42.19-.67-.14-.97-.42-.37-.83-.75-1.25-1.12-.82-.73-1.63-1.47-2.44-2.21-1.01-.93-1.12-1.78-.38-2.94.21-.33.43-.67.64-1,.36-.55.73-1.12,1.08-1.69.53-.87,1.32-1.18,2.17-.86,1.74.65,3.27,1.28,4.7,1.9.88.39.95.37,1.53-.38.68-.88,1.45-1.83,2.36-2.89.25-.29.31-.52,0-.99-1.04-1.54-1.95-2.93-2.77-4.24-.63-1.01-.53-1.77.37-2.64.78-.75,1.56-1.5,2.34-2.21.92-.85,1.67-.9,2.67-.2,1.21.85,2.41,1.77,3.56,2.65l.31.23q.74.56,1.47.03c1-.72,2-1.45,3-2.17.3-.22.54-.5.13-1.53-.41-1.04-.89-2.26-1.31-3.49-.14-.41-.3-1.04-.26-1.68.03-.46.3-1.09.74-1.36,1.19-.74,2.42-1.42,3.65-2.02.47-.23,1.28-.1,1.63.26.76.79,1.48,1.63,2.17,2.45l.46.54c.17.2.33.4.48.61.29.37.55.73.87,1,.12.1.51.18.7.11.57-.19,1.15-.43,1.7-.67.59-.25,1.2-.51,1.83-.71.61-.2.76-.45.7-1.11-.15-1.72-.27-3.4-.34-4.98-.06-1.23.38-1.81,1.61-2.13.63-.16,1.26-.32,1.9-.47.41-.1.81-.2,1.22-.3,1.15-.29,2.04.13,2.52,1.19.19.42.38.84.57,1.26.5,1.1,1.02,2.23,1.49,3.37.16.4.33.45.64.42,1.43-.16,2.96-.35,4.5-.58.05-.02.18-.13.2-.18.14-.35.22-.75.3-1.17l.02-.11c.13-.69.26-1.37.38-2.06.15-.8.29-1.61.45-2.41.16-.85.79-1.34,1.72-1.34,1.27,0,2.54,0,3.8,0,.92,0,1.54.5,1.7,1.36.25,1.31.5,2.65.73,3.94l.07.37c.03.14.04.29.06.44.01.13.03.26.05.39.12.64.34.84.91.87.93.05,1.87.19,2.77.32.35.05.69.1,1.04.15.52.07.71-.03.89-.5.46-1.17,1-2.32,1.52-3.43.17-.37.35-.75.52-1.13.46-1.01,1.3-1.43,2.36-1.18,1.09.26,2.33.55,3.53.88.92.25,1.41.95,1.35,1.91-.03.46-.06.92-.09,1.38-.08,1.23-.16,2.51-.27,3.76-.06.64.11.88.74,1.09.96.32,1.9.72,2.81,1.11.25.11.5.21.74.32.31.13.54.11.93-.39.32-.4.63-.81.94-1.23.38-.5.77-1.02,1.17-1.52,2-2.47,2.44-2.55,5.16-.9.14.09.28.18.42.26.33.21.64.41.97.55.92.39,1.31,1.18,1.04,2.1-.44,1.51-.88,2.98-1.44,4.44-.46,1.19-.43,1.32.5,2.02.36.27.72.54,1.09.8.51.37,1.04.76,1.55,1.16.49.38.81.37,1.32-.05,1.11-.9,2.33-1.81,3.94-2.95,1-.71,1.72-.65,2.66.23.35.33.7.66,1.05.99.45.42.89.85,1.34,1.26.8.73.92,1.63.34,2.54l-.11.18c-.85,1.34-1.74,2.73-2.66,4.06-.32.47-.32.72.02,1.11.69.8,1.37,1.64,2.02,2.45l.56.69c.28.35.51.39.95.19l.08-.04c1.28-.6,2.61-1.22,3.97-1.73,1.48-.55,2.37-.77,3.42,1.04.26.45.56.91.86,1.34.24.37.5.75.73,1.13.53.87.42,1.8-.31,2.49-.97.91-2.12,1.98-3.35,3-.98.82-1,.89-.5,1.94.19.4.38.79.58,1.19.33.68.67,1.38.99,2.08.14.31.28.43.75.36.85-.13,1.7-.26,2.55-.39.59-.09,1.19-.18,1.78-.27,1.85-.29,2.6.16,3.21,1.9.35,1,.65,1.93.92,2.83.29.97-.11,1.77-1.18,2.36-1.61.89-2.94,1.59-4.19,2.22-.59.3-.73.57-.58,1.18.19.74.31,1.49.43,2.23.07.4.13.8.21,1.2.16.86.25.93,1.17,1.02,1.7.16,3.12.31,4.54.5,1.42.19,1.9.72,1.98,2.18.05.93.09,1.85.12,2.78l.02.6c.05,1.16-.62,1.57-1.18,1.72-.75.19-1.5.39-2.25.59-.5.13-.99.27-1.49.4-.12.03-.23.04-.33.05-.07,0-.13.01-.16.02l-.41.11c-.66.18-1.13.31-1.25.44-.09.11-.1.5-.12,1.05v.42c-.03.56-.07,1.12-.1,1.67-.03.37-.05.75-.07,1.12-.04.84,0,.9.86,1.2,1.51.53,2.98,1.08,4.35,1.64,1.29.52,1.6,1.07,1.37,2.44-.12.72-.28,1.44-.43,2.13-.08.37-.16.74-.24,1.11-.21,1-.85,1.55-1.82,1.56-.73,0-1.45,0-2.17,0h-1.46v-.06c-.05,0-.1,0-.15,0-.51,0-1.03,0-1.54,0-.43-.01-.64.15-.77.55-.15.48-.3.96-.44,1.44-.24.8-.49,1.63-.78,2.43-.17.49-.07.73.47,1.08,1.14.74,2.23,1.49,3.43,2.32.33.23.64.49.91.77.62.63.75,1.34.37,2.11-.25.5-.47,1.03-.69,1.54-.21.48-.42.98-.65,1.46-.69,1.43-1.33,1.72-2.88,1.27l-1.25-.36c-.98-.28-1.97-.56-2.96-.84-.9-.25-1-.22-1.47.52-.24.38-.48.76-.71,1.14-.42.68-.86,1.39-1.32,2.07-.23.34-.21.51.06.82,1.19,1.33,2.15,2.42,3.02,3.42l.07.08c.25.28.55.63.64,1.05.17.83.13,1.39-.14,1.77-.57.82-1.22,1.59-1.85,2.34-.22.26-.44.52-.65.78-.53.65-1.26.79-1.99.4l-.98-.53c-1.29-.69-2.62-1.4-3.91-2.14-.45-.26-.65-.19-.91.06-.39.37-.78.74-1.17,1.11-.65.61-1.3,1.22-1.94,1.84-.21.2-.26.36-.05.76.76,1.42,1.46,2.88,2.12,4.24.69,1.43.5,2.2-.77,3.14-.39.29-.79.57-1.19.86-.43.3-.85.61-1.27.92-.91.68-1.87.61-2.71-.18-1.25-1.19-2.36-2.28-3.38-3.32-.64-.65-.71-.66-1.51-.19l-.23.13c-.91.53-1.86,1.08-2.84,1.54-.53.25-.66.54-.52,1.14.09.4.19.8.29,1.2.14.57.29,1.16.41,1.75.09.44.16.89.22,1.33.03.23.06.46.1.69.12.75-.03,1.76-1.42,2.29-.69.26-1.39.54-2.07.82l-.81.33c-1.39.56-2.17-.13-2.58-.81-.33-.54-.66-1.08-1-1.62-.47-.76-.96-1.55-1.43-2.34-.52-.89-.6-.92-1.56-.68-.35.09-.7.18-1.04.26-.73.19-1.49.38-2.25.55-.63.14-.82.39-.83,1.12-.01,1.09-.1,2.19-.18,3.25-.05.61-.09,1.21-.13,1.82-.05.97-.65,1.58-1.68,1.72-.91.12-1.83.21-2.72.3-.33.03-.65.06-.98.1-.87.09-1.52-.32-1.78-1.12-.12-.37-.24-.74-.36-1.11-.42-1.27-.84-2.58-1.22-3.89-.18-.62-.41-.8-.99-.78-1.24.04-2.5.04-3.75,0-.57-.02-.79.16-.97.8-.32,1.12-.68,2.24-1.03,3.33-.16.5-.33,1.01-.48,1.51-.26.83-.85,1.27-1.67,1.27Zm-10.63-10.27c.17,0,.35.02.54.07l.75.19c.98.25,2,.52,3.01.75,1.28.3,1.46,1.24,1.48,1.92.03,1,.1,2.02.17,3,.05.71.1,1.41.14,2.12.02.43.17.71.87.81.71.1,1.44.17,2.14.24.46.05.91.09,1.37.14.49.06.73-.09.87-.55.16-.51.32-1.01.49-1.52.35-1.08.71-2.19,1.02-3.29.19-.68.61-1.58,1.98-1.54,1.22.04,2.46.04,3.68,0,1.06-.04,1.7.45,2,1.51.37,1.29.8,2.59,1.21,3.85.12.37.24.74.36,1.11.09.29.25.47.71.42.33-.03.66-.07.99-.1.88-.09,1.8-.18,2.69-.3.64-.08.78-.37.81-.77.03-.61.08-1.23.13-1.84.08-1.05.16-2.13.18-3.18.02-1.19.53-1.85,1.62-2.09.74-.16,1.49-.35,2.21-.54.35-.09.7-.18,1.05-.27,1.4-.35,1.92-.12,2.67,1.15.46.78.95,1.56,1.42,2.32.34.54.67,1.08,1,1.63.33.54.7.65,1.33.39l.81-.33c.68-.28,1.39-.56,2.1-.83.75-.28.85-.67.77-1.17-.04-.24-.07-.47-.1-.71-.06-.44-.12-.85-.21-1.26-.12-.57-.27-1.16-.41-1.72-.1-.41-.2-.81-.3-1.22-.25-1.07.12-1.83,1.08-2.28.94-.44,1.87-.98,2.76-1.5l.23-.13c1.2-.7,1.77-.63,2.74.36,1.02,1.03,2.12,2.11,3.36,3.3.47.45.89.48,1.4.1.42-.32.86-.62,1.29-.93.39-.28.78-.56,1.17-.85.87-.65.94-.9.46-1.89-.65-1.36-1.34-2.8-2.1-4.2-.41-.76-.33-1.42.24-1.97.65-.62,1.3-1.24,1.95-1.85.39-.37.78-.73,1.17-1.1.63-.6,1.32-.66,2.11-.2,1.27.73,2.6,1.44,3.88,2.12l.98.53c.3.16.5.12.73-.15.22-.26.44-.53.66-.79.62-.73,1.25-1.48,1.8-2.26.01-.02.13-.22-.03-.98-.03-.17-.23-.39-.41-.59l-.08-.09c-.87-1-1.82-2.08-3.01-3.41-.58-.65-.63-1.34-.15-2.06.45-.67.88-1.37,1.3-2.04.24-.38.48-.77.72-1.15.71-1.12,1.27-1.33,2.6-.95.99.28,1.97.56,2.96.84l1.25.36c1.08.31,1.22.25,1.69-.74.22-.46.43-.95.63-1.42.22-.52.45-1.06.71-1.58.18-.37.14-.62-.18-.95-.23-.23-.49-.45-.76-.64-1.2-.83-2.28-1.57-3.41-2.3-.58-.38-1.31-1.03-.87-2.27.28-.79.52-1.6.76-2.39.15-.49.29-.97.45-1.45.26-.83.9-1.27,1.76-1.25.5.01,1.01,0,1.51,0,.22,0,.44,0,.67,0h.51v.06h.44c.72,0,1.44,0,2.16,0,.49,0,.73-.22.84-.75.08-.37.16-.75.24-1.12.15-.68.31-1.39.42-2.08.15-.9.1-.98-.75-1.33-1.36-.55-2.8-1.1-4.3-1.62-1.14-.4-1.61-.8-1.54-2.21.02-.38.05-.76.07-1.14.04-.54.07-1.09.09-1.63v-.41c.05-1.81.29-1.94,2.12-2.45l.41-.11c.13-.04.25-.05.35-.06.05,0,.11,0,.16-.02.49-.13.99-.26,1.48-.39.75-.2,1.51-.4,2.26-.6.3-.08.44-.2.42-.69l-.02-.6c-.04-.92-.07-1.84-.12-2.76-.05-.98-.17-1.1-1.1-1.23-1.41-.19-2.82-.33-4.51-.49-1.36-.13-1.82-.54-2.07-1.84-.08-.41-.14-.82-.21-1.23-.12-.71-.24-1.45-.41-2.14-.27-1.08.08-1.82,1.1-2.33,1.23-.62,2.55-1.32,4.15-2.2.75-.41.82-.77.7-1.18-.26-.89-.56-1.8-.9-2.78-.45-1.28-.73-1.44-2.1-1.23-.59.09-1.19.18-1.78.27-.85.13-1.7.26-2.55.39-.87.14-1.49-.18-1.84-.94-.31-.69-.65-1.38-.98-2.05-.2-.4-.39-.8-.58-1.2-.75-1.57-.5-2.11.77-3.16,1.2-1,2.34-2.05,3.3-2.96.37-.35.42-.76.14-1.22-.22-.37-.47-.74-.71-1.1-.3-.45-.61-.91-.89-1.4-.67-1.16-.88-1.08-2.19-.59-1.32.49-2.63,1.1-3.89,1.7l-.08.04c-.87.4-1.6.25-2.17-.47l-.56-.69c-.64-.8-1.31-1.64-1.99-2.42-.65-.75-.68-1.5-.09-2.35.91-1.32,1.79-2.7,2.64-4.03l.11-.18c.31-.49.26-.85-.17-1.24-.46-.42-.91-.85-1.36-1.28-.35-.33-.69-.66-1.04-.98-.59-.55-.78-.57-1.38-.14-1.59,1.13-2.79,2.03-3.88,2.91-.87.71-1.72.73-2.58.06-.5-.39-1.03-.77-1.53-1.14-.37-.27-.73-.54-1.1-.81-1.38-1.04-1.42-1.71-.84-3.2.55-1.42.99-2.87,1.42-4.35.12-.43-.01-.7-.46-.89-.4-.17-.76-.4-1.11-.63-.13-.08-.27-.17-.4-.25-1.07-.64-1.74-1.04-2.15-.96-.39.07-.84.57-1.7,1.64-.39.48-.78,1-1.15,1.49-.31.42-.63.84-.95,1.25-.23.3-.94,1.19-2.12.7-.25-.11-.5-.21-.75-.32-.89-.38-1.81-.78-2.73-1.08-1.07-.36-1.53-1.04-1.43-2.14.11-1.24.19-2.51.27-3.73.03-.46.06-.92.09-1.38.03-.48-.15-.75-.6-.87-1.19-.32-2.42-.61-3.5-.87-.58-.14-.94.05-1.2.62-.17.38-.35.75-.52,1.13-.51,1.1-1.04,2.24-1.5,3.37-.47,1.18-1.35,1.21-1.97,1.13-.35-.05-.7-.1-1.05-.15-.88-.13-1.79-.26-2.68-.31-1.38-.07-1.71-1-1.85-1.69-.03-.16-.05-.32-.07-.48-.01-.12-.03-.24-.05-.37l-.07-.37c-.23-1.29-.48-2.62-.73-3.93-.05-.28-.18-.54-.71-.54-1.26,0-2.53,0-3.79,0-.55,0-.68.25-.73.52-.15.8-.3,1.6-.45,2.4-.13.69-.25,1.38-.38,2.07l-.02.11c-.09.45-.17.92-.36,1.37-.14.34-.55.74-.99.8-1.56.23-3.1.42-4.54.58-.8.09-1.37-.26-1.69-1.04-.46-1.12-.98-2.24-1.48-3.33-.19-.42-.38-.84-.57-1.26-.28-.61-.67-.79-1.35-.62-.41.1-.82.2-1.22.3-.63.15-1.26.3-1.88.47-.76.2-.88.35-.85,1.1.07,1.57.19,3.23.34,4.94.1,1.13-.34,1.82-1.4,2.17-.59.19-1.18.44-1.75.68-.57.24-1.17.49-1.77.7-.53.18-1.29.04-1.69-.31-.4-.34-.71-.76-1.02-1.15-.15-.19-.29-.38-.45-.57l-.46-.55c-.68-.8-1.38-1.63-2.12-2.4-.07-.05-.36-.09-.46-.05-1.2.59-2.4,1.25-3.56,1.97-.09.06-.25.34-.27.57-.02.38.05.83.21,1.29.41,1.21.88,2.42,1.29,3.45.32.79.61,1.94-.48,2.73-1,.72-2,1.45-3,2.17-1.11.8-1.58.79-2.68-.05l-.31-.23c-1.15-.88-2.33-1.78-3.53-2.63-.6-.42-.84-.4-1.4.12-.77.71-1.55,1.45-2.32,2.2-.56.54-.59.77-.22,1.38.82,1.3,1.72,2.68,2.76,4.21.54.8.52,1.53-.07,2.21-.9,1.05-1.66,1.99-2.33,2.86-.87,1.12-1.43,1.26-2.74.69-1.41-.62-2.93-1.23-4.65-1.88-.28-.1-.6-.13-.95.44-.35.58-.73,1.16-1.09,1.72-.21.33-.43.66-.64.99-.48.75-.44,1.06.21,1.65.81.74,1.62,1.47,2.43,2.2.42.37.83.75,1.25,1.12.68.61.8,1.37.36,2.2-.57,1.06-.98,1.94-1.32,2.76-.7,1.73-1.34,2.08-3.12,1.69-.08-.02-.15-.04-.23-.07-.05-.02-.1-.04-.12-.04l-.97-.11c-1.08-.12-2.19-.25-3.29-.34-.26-.02-.51.03-.66.5-.25.79-.52,1.57-.79,2.33-.09.26-.19.53-.28.79-.31.89-.21,1.16.6,1.6,1.35.74,2.73,1.47,4.07,2.17l.24.13c.82.43,1.13,1.11.94,2.01-.14.63-.25,1.29-.36,1.92-.09.49-.17.98-.27,1.47-.33,1.65-.76,1.9-2.34,2.04-1.49.13-2.98.32-4.5.51-.61.08-.86.36-.88.98-.01.46-.04.92-.07,1.37-.03.49-.06,1-.07,1.49v.33c-.01.42-.02.79.05.88.08.11.48.25.98.44l.35.13c.06.02.15.03.24.05.09.01.19.03.28.05.44.11.89.21,1.33.32.86.21,1.73.42,2.6.62.85.19,1.3.76,1.34,1.68.02.7.06,1.4.1,2.1.03.56.06,1.13.08,1.69.06,1.36-.4,1.75-1.51,2.14-.95.34-1.92.71-2.85,1.06-.57.22-1.14.44-1.71.65-.56.21-.59.53-.54.81.1.65.23,1.31.35,1.95.1.51.19,1.01.28,1.52.12.68.44.96,1.11.94.46,0,.93-.01,1.39-.02,1.14-.01,2.33-.03,3.49-.07,1.02-.03,1.67.38,1.95,1.23.15.46.29.93.44,1.4.23.75.47,1.53.74,2.28.52,1.41-.29,2.13-.95,2.55-1.4.89-2.75,1.88-3.91,2.73-.59.44-.48.7-.42.84.48,1.14.97,2.31,1.54,3.42.41.79.55.85,1.48.58l1.57-.45c.91-.26,1.82-.52,2.72-.78,1.39-.39,1.95-.17,2.71,1.07l.19.32c.47.76.95,1.55,1.46,2.29.87,1.27.85,1.7-.16,2.88-.98,1.14-2.11,2.46-3.22,3.78-.25.3-.34.6.08,1.1.62.74,1.45,1.72,2.26,2.75.36.45.62.43.98.24.53-.29,1.07-.58,1.61-.87,1.05-.57,2.13-1.15,3.18-1.75.74-.42,1.4-.37,1.97.17l.66.61c.85.79,1.7,1.59,2.54,2.39.58.56.66,1.25.23,2.04-.76,1.42-1.47,2.89-2.13,4.28-.44.94-.16,1.26.16,1.5.47.36.97.71,1.45,1.05.44.31.9.64,1.34.97.54.4.96.37,1.46-.12l.43-.42c.93-.9,1.89-1.83,2.81-2.77,1.07-1.1,1.58-1.17,2.87-.41.94.55,1.77,1.01,2.56,1.4,1.6.8,1.74,1.51,1.32,3.13-.29,1.12-.48,2.3-.67,3.44-.06.38-.12.76-.19,1.14-.04.25-.02.5.45.69l.97.39c.81.33,1.64.67,2.46.99.47.18.79.07,1.06-.37.2-.32.4-.65.6-.97.63-1.01,1.29-2.06,1.9-3.11.23-.4.73-1.26,1.77-1.26Z"/></g><path class="cls-1" d="m146.85,104.38c-.26-.26-.54-.5-.85-.7-1.14-.78-2.29-1.56-3.45-2.31-.64-.41-.96-.87-.68-1.68.45-1.27.81-2.57,1.23-3.86.19-.6.61-.91,1.28-.9.47.01,1.62,0,2.09,0-15.66-11.18-34.91-18.01-55.11-18.85l1.14,16.49h-.02c0,.06.02.11.02.17,0,1.61-2.4,2.92-5.36,2.92s-5.36-1.31-5.36-2.92c0-.06,0-.17,0-.17l1.14-16.48c-20.12.85-38.77,7.69-54.43,18.87.42,0,.83-.01,1.25-.03.71-.02,1.23.18,1.46.88.41,1.23.75,2.48,1.19,3.69.34.92.04,1.45-.75,1.95-1.36.86-2.67,1.8-3.97,2.75-.46.34-.87.81-.6,1.45.49,1.16.99,2.33,1.57,3.46.54,1.04.95,1.16,2.09.84,1.44-.41,2.88-.82,4.33-1.23,1.18-.33,1.51-.19,2.16.85.55.89,1.09,1.78,1.68,2.63.74,1.07.75,1.24-.13,2.26-1.09,1.26-2.18,2.51-3.25,3.78-.5.59-.41,1.18.08,1.75.77.9,1.53,1.81,2.27,2.73.46.57.98.73,1.64.37,1.61-.88,3.24-1.73,4.84-2.63.53-.3.95-.31,1.38.1,1.08,1,2.16,1.99,3.22,3,.45.43.44.87.14,1.44-.77,1.41-1.47,2.85-2.16,4.3-.46.96-.36,1.61.32,2.12.92.7,1.89,1.33,2.82,2.02.78.58,1.48.47,2.14-.16,1.1-1.06,2.21-2.11,3.28-3.19.91-.92,1.17-.97,2.27-.33.85.5,1.72.98,2.61,1.41,1.33.66,1.45,1.08,1.07,2.55-.39,1.52-.6,3.08-.87,4.62-.11.61.2,1.02.77,1.25,1.15.46,2.3.94,3.47,1.38.7.27,1.29.07,1.69-.57.85-1.36,1.72-2.71,2.53-4.09.41-.7.87-1.18,1.76-.95,1.26.32,2.53.65,3.8.94.8.18,1.07.64,1.09,1.45.05,1.71.23,3.42.31,5.13.04.86.59,1.18,1.31,1.28,1.18.16,2.37.25,3.55.38.73.08,1.2-.2,1.43-.9.51-1.61,1.06-3.2,1.52-4.83.23-.8.62-1.2,1.49-1.17,1.25.04,2.5.04,3.75,0,.86-.03,1.28.34,1.51,1.15.48,1.67,1.05,3.32,1.59,4.98.19.6.64.83,1.25.77,1.24-.13,2.49-.23,3.72-.4.7-.09,1.21-.43,1.26-1.24.1-1.68.29-3.36.31-5.05.01-.93.34-1.41,1.23-1.6,1.11-.24,2.2-.54,3.31-.81,1.21-.3,1.5-.14,2.13.92.79,1.33,1.64,2.63,2.44,3.95.48.79,1.15.93,1.97.6.97-.39,1.94-.78,2.92-1.15.82-.31,1.25-.83,1.1-1.73-.11-.66-.18-1.34-.32-1.99-.21-.99-.48-1.96-.71-2.95-.18-.77,0-1.34.81-1.71,1.05-.49,2.05-1.08,3.06-1.66,1.01-.58,1.33-.54,2.15.27,1.12,1.12,2.26,2.22,3.4,3.31.63.6,1.33.69,2.07.14.82-.6,1.66-1.17,2.48-1.78,1.08-.79,1.21-1.29.62-2.51-.68-1.42-1.38-2.84-2.12-4.22-.29-.54-.27-.97.15-1.37,1.04-1,2.1-1.97,3.15-2.95.48-.45.93-.47,1.53-.13,1.62.92,3.27,1.78,4.92,2.66.52.28.99.18,1.37-.28.85-1.02,1.74-2,2.5-3.09.23-.32.15-.93.06-1.38-.07-.33-.36-.63-.6-.91-1-1.15-2.02-2.28-3.04-3.41-.42-.46-.47-.89-.1-1.44.71-1.05,1.36-2.14,2.04-3.2.6-.93.93-1.05,2.05-.73,1.42.4,2.83.8,4.24,1.2,1.31.37,1.72.22,2.31-1,.48-.99.87-2.02,1.35-3,.3-.62.15-1.09-.28-1.53Z"/><g><path class="cls-1" d="m108.89,50.89c-.25-.07-.45-.09-.61-.04-.43.1-.45.77-.03.92,5.03,1.83,10.82.52,14.18-3.09.16-.17.17-.45.03-.64h0c-.15-.21-.43-.24-.61-.07-3.84,3.43-8.14,4.4-12.94,2.92Z"/><path class="cls-1" d="m89.3,55.82c-.3.5.28,1.05.68.65,6.05-6.21,16.67-6.64,19.64-16.04.08-.26-.05-.54-.29-.63h0c-.25-.09-.51.07-.57.34-1.92,8.15-16.65,11.02-19.46,15.68Z"/><path class="cls-1" d="m117.57,49.46c.18-.1.33-.27.43-.47.53-.98,1.21-1.81,1.79-2.75.08-.13.12-.29.09-.45-.03-.15-.12-.29-.26-.35-.13-.05-.27-.01-.39.06-.3.18-.5.55-.71.83-.26.35-.52.69-.77,1.05-.11.15-.19.3-.29.45-.05.07-.09.14-.15.21-.17.22-.36.42-.46.7-.05.14-.07.3-.06.45,0,.09.03.19.09.25.03.03.06.05.1.06.19.08.41.05.6-.05Z"/><path class="cls-1" d="m100.83,45.23c-.38.42.1,1.08.56.78,2.83-1.86,4.71-4.5,5.87-7.89.09-.26-.04-.55-.28-.64h0c-.23-.09-.49.04-.57.29-1.64,4.94-4.59,6.38-5.57,7.46Z"/><path class="cls-1" d="m103.14,36.07l-.12-.04c-.2-.07-.42.04-.5.26-.56,1.5-1.32,2.79-2.34,3.92-.02.02-.04.05-.05.07-.25.41.27.88.62.57,1.25-1.12,2.07-2.53,2.65-4.19.08-.24-.04-.5-.26-.58Z"/><path class="cls-1" d="m131.82,62.63c-1.9.55-3.75,1.09-5.59,1.63-.32.09-.5.55-.33.89.19.37.49.38.93.2,1.71-.7,3.4-1.15,5.18-1.5.27-.05.46-.36.42-.7,0,0,0,0,0-.01-.04-.35-.33-.59-.61-.5Z"/><path class="cls-1" d="m94.27,71.09c1-1.4,2.25-2.67,3.34-4.02,2.4-2.98,4.08-6.61,4.37-10.43.03-.33.01-1.44-.55-1.42s-.54,1.31-.54,1.66c.04,3.71-1.9,7.19-4.32,10.01-1.54,1.79-3.33,3.44-4.3,5.59-.97,2.14-1.04,4.56-1,6.91.09,4.47.55,8.92,1.34,13.32.3,0,.61.01.91.02-.23-4.75-1.15-9.45-1.23-14.2-.03-1.68.05-3.38.63-4.96.33-.9.81-1.71,1.36-2.49Z"/><path class="cls-1" d="m131.46,67.6c1.09.04.88-1.26.13-1.23l-2.14.56c-.61.16-.45,1.29.16,1.16.59-.12,1.21-.46,1.85-.49Z"/><path class="cls-1" d="m99.49,34.78s0,0,0,0c-.25-.07-.5.1-.56.37-.92,4.26-.93,8.44.3,12.67.08.29.38.43.63.3h.02c.22-.12.32-.38.25-.63-1.18-4.04-1.11-8.07-.29-12.11.05-.27-.09-.54-.34-.6Z"/><path class="cls-1" d="m131.53,76c.23.03.45-.15.48-.4v-.02c.04-.26-.12-.51-.37-.55-5.52-.96-10.4-4.92-12.07-10.85-.07-.27-.33-.41-.57-.32h0c-.21.09-.33.33-.27.57,1.47,6.05,6.79,10.72,12.81,11.56Z"/><path class="cls-1" d="m132.73,70.69c-4.44-.83-7.8-3.08-9.3-7.94-.08-.25-.33-.39-.55-.29l-.04.02c-.2.08-.32.32-.26.54,1.21,5.23,6.11,8.38,10.07,8.61.21.01.39-.15.43-.38h0c.04-.27-.11-.51-.35-.55Z"/><path class="cls-1" d="m91.35,68.04c2.02-3.43,5.57-5.78,6.22-9.87.08-.48-.55-.74-.75-.3-.01.03-.02.05-.03.08-.46,2.1-1.73,3.57-2.97,5.1-1.04,1.28-1.96,2.67-2.91,4.03-.13.18-.22.38-.29.57-.17.5.46.83.72.38Z"/><path class="cls-1" d="m74.09,40.21c-1.01-1.13-1.78-2.42-2.34-3.92-.08-.22-.3-.33-.5-.26l-.12.04c-.22.08-.34.34-.26.58.58,1.67,1.4,3.08,2.65,4.19.35.31.87-.16.62-.57-.02-.03-.03-.05-.05-.07Z"/><path class="cls-1" d="m95.51,33.67c-.25-.06-.5.12-.56.39-1.12,5.3-1.06,10.48.53,15.65.09.3.4.43.66.29h0c.21-.12.31-.39.23-.64-1.54-4.97-1.6-9.99-.51-15.07.06-.29-.1-.57-.37-.63Z"/><path class="cls-1" d="m128.62,58.91c-.14.02-.28.04-.42.06-1.18.21-2.36.62-3.51.97-1.11.33-2.23.65-3.34,1.02-2.27.75-4.53,1.55-6.79,2.31-.27.09-.58.17-.9.25-.31.06-.82.22-1.04.3-1.41.53-2.86.8-4.35.84-1.13.03-2.32-.14-3.41-.43-.07-.02-.14-.04-.21-.05-.97-.27-1.92-.53-2.86-.83-.68-.21-.8-.28-.98.27-.09.27.05.57.31.64,1.04.29,2.08.59,3.12.87.08.02.15.03.22.03,1.48.45,3.02.59,4.55.49,1.55-.1,3.08-.45,4.57-.92.46-.08.91-.28,1.34-.43.58-.19,1.17-.39,1.75-.58,1.17-.39,2.34-.78,3.51-1.17,2.35-.78,4.69-1.56,7.04-2.34.43-.15.87-.23,1.29-.37.16-.05.33-.1.45-.22.13-.12.2-.32.13-.49-.08-.18-.3-.24-.48-.22Z"/><path class="cls-1" d="m56.7,49.46c.18.1.4.13.6.05.04-.01.07-.03.1-.06.06-.06.08-.16.09-.25,0-.15-.01-.31-.06-.45-.1-.27-.29-.48-.46-.7-.05-.07-.1-.14-.15-.21-.1-.15-.18-.3-.29-.45-.26-.35-.51-.7-.77-1.05-.21-.28-.42-.65-.71-.83-.12-.07-.26-.11-.39-.06-.13.05-.23.19-.26.35-.03.15.01.32.09.45.57.94,1.26,1.77,1.79,2.75.11.19.25.36.43.47Z"/><path class="cls-1" d="m51.69,48.65h0c-.13.21-.1.48.07.64,3.6,3.31,9.47,4.13,14.35,1.88.4-.19.34-.85-.1-.92-.17-.03-.37,0-.61.1-4.68,1.88-9.03,1.27-13.1-1.82-.2-.15-.47-.1-.61.12Z"/><path class="cls-1" d="m74.4,48.11h.02c.25.13.55,0,.63-.29,1.24-4.22,1.22-8.41.3-12.67-.06-.27-.31-.44-.56-.37,0,0,0,0,0,0-.24.07-.39.33-.34.6.82,4.03.89,8.06-.29,12.11-.07.25.03.51.25.62Z"/><path class="cls-1" d="m64.94,39.8c-.24.08-.37.37-.29.63,1.55,4.9,5.55,7.59,9.61,9.71,1.04.55,2.1,1.07,3.14,1.61.72.38,1.37.92,2.13,1.21.27.1.68.27.92.02.04-.05.08-.09.1-.14.28-.51-.69-.94-1-1.11-2.12-1.14-4.28-2.19-6.36-3.41-3.06-1.79-6.74-4.23-7.68-8.18-.06-.27-.33-.43-.57-.34Z"/><path class="cls-1" d="m91.27,41.85c.44-.11.74-1.28.9-1.68.28-.71.52-1.43.71-2.17.38-1.47.56-3.01.46-4.54-.01-.21-.17-.38-.37-.39-.21-.01-.39.16-.41.39-.12,1.43-.33,2.86-.66,4.25-.14.58-.35,1.15-.49,1.73-.14.61-.52,1.17-.6,1.79-.02.17-.01.36.09.49.02.03.05.05.07.07.08.06.19.09.29.06Z"/><path class="cls-1" d="m88.64,37.81c.15-.46.27-.92.38-1.4.2-.96.3-1.95.29-2.93,0-.25-.19-.44-.42-.44h-.02c-.22,0-.4.19-.41.44-.05,1-.2,1.99-.45,2.95-.16.63-.8,1.81-.21,2.38.08.08.19.14.3.12.3-.05.46-.84.54-1.11Z"/><path class="cls-1" d="m78.12,50h0c.26.14.57,0,.66-.29,1.6-5.17,1.65-10.36.53-15.65-.06-.27-.31-.45-.56-.39-.26.06-.43.34-.37.63,1.09,5.08,1.03,10.1-.51,15.07-.08.25.02.52.23.63Z"/><path class="cls-1" d="m85.41,33.04h-.02c-.22,0-.41.2-.42.44-.1,7.17,5.58,11.76,8.83,17.34.12.2.36.27.55.16.21-.12.28-.42.16-.64-3.19-5.76-8.29-9.66-8.68-16.87-.01-.24-.19-.44-.41-.44Z"/><path class="cls-1" d="m67.3,37.47h0c-.24.09-.37.39-.28.65,1.16,3.38,3.04,6.03,5.87,7.89.46.3.94-.36.56-.78-.98-1.08-3.93-2.52-5.57-7.46-.08-.25-.34-.38-.57-.3Z"/><path class="cls-1" d="m60.97,57.16c-.35-.06-.63.33-.53.7.22.88.19,1.79.37,2.66.04.21.11.41.24.57.11.14.28.23.45.2.02,0,.05,0,.07-.02.18-.06.29-.26.33-.46.04-.2,0-.41-.02-.61-.13-.85-.34-1.66-.48-2.49-.09-.37-.23-.52-.42-.55Z"/><path class="cls-1" d="m71.36,59.14c-1.26.28-2.5.55-3.76.83-.43.1-.49.78-.07.92.13.04.29.05.5,0,.58-.29,2.86-.31,3.68-.89.4-.28.12-.96-.34-.86Z"/><path class="cls-1" d="m46.31,55.05h0c-.02.28.15.53.4.58,4.36.81,8.38,2.74,12.62,4.04.51.16.86-.62.41-.93-.06-.04-.13-.08-.22-.11-4.25-1.36-8.28-3.14-12.65-4.05-.28-.06-.54.16-.56.47Z"/><path class="cls-1" d="m48.4,50.97c-.16.2-.15.5.03.68,5.3,5.33,14.13,6.09,20.56,2.42.4-.23.27-.91-.18-.92-.15,0-.31.03-.5.13-6.83,3.33-13.36,2.69-19.3-2.37-.18-.16-.45-.13-.6.06Z"/><path class="cls-1" d="m45.65,58.91c-.18-.02-.4.03-.48.22-.07.17,0,.37.13.49.13.12.29.17.45.22.43.13.87.22,1.29.37,2.35.78,4.69,1.56,7.04,2.34,1.17.39,2.34.78,3.51,1.17.58.19,1.17.39,1.75.58.37.12.75.29,1.13.38.08.04.16.07.24.09,1.56.5,3.17.85,4.79.95,1.62.1,3.27-.08,4.82-.61.1-.03.19-.07.27-.14.85-.23,1.7-.47,2.55-.71.25-.07.4-.37.31-.64-.18-.55-.3-.49-.98-.27-.94.3-1.89.56-2.87.83-.09.03-.16.08-.22.15-1.02.26-2.11.41-3.15.39-1.49-.02-2.94-.28-4.36-.8-.23-.08-.76-.24-1.07-.3-.34-.17-.75-.24-1.09-.36-2.27-.76-4.52-1.56-6.79-2.31-1.11-.37-2.22-.69-3.34-1.02-1.16-.35-2.33-.76-3.51-.97-.14-.02-.28-.05-.42-.06Z"/><path class="cls-1" d="m57.62,42.81h0c-.13.18-.13.43,0,.6.99,1.37,1.97,2.7,2.92,4.07.65.61.86,2.25,1.67,2.36.34.05.58-.38.41-.71-1.18-2.3-2.61-4.37-4.33-6.36-.18-.21-.5-.19-.66.04Z"/><path class="cls-1" d="m105.69,60.82c.31.04.75.17,1.05.07.42-.14.36-.83-.07-.92-1.27-.28-2.51-.55-3.76-.83-.46-.1-.74.58-.34.86.51.36,1.15.38,1.72.52.46.12.93.24,1.4.3Z"/><path class="cls-1" d="m55.27,63.87c-.24-.1-.5.05-.57.32-1.67,5.93-6.55,9.88-12.07,10.85-.24.04-.41.29-.37.55v.02c.04.25.25.44.49.4,6.02-.84,11.34-5.51,12.81-11.56.06-.24-.06-.49-.27-.57h0Z"/><path class="cls-1" d="m82.27,72.62c-1.53-3.52-4.76-6.01-6.72-9.31-.94-1.58-1.57-3.34-1.86-5.16-.09-.56.02-2.15-.35-2.56-.05-.06-.11-.11-.16-.14-.42-.3-.69.23-.68.78.03,2.3.62,4.59,1.71,6.62,1.95,3.66,5.42,6.4,7.01,10.22,1.03,2.49.85,5.24.93,7.94.05,1.66-1.28,10.08-1.25,11.73.32,0,.55,0,.87,0-.34-4.49,2.29-16,.49-20.13Z"/><path class="cls-1" d="m41.19,71.23h0c.04.23.22.4.43.39,3.96-.23,8.86-3.37,10.07-8.61.05-.23-.06-.46-.26-.54l-.04-.02c-.22-.09-.47.04-.55.29-1.5,4.86-4.85,7.11-9.3,7.94-.24.04-.39.29-.35.55Z"/><path class="cls-1" d="m42.68,66.38c-.75-.04-.96,1.27.13,1.23.64.03,1.26.36,1.85.49.61.13.77-1,.16-1.16l-2.14-.56Z"/><path class="cls-1" d="m41.84,63.13s0,0,0,.01c-.04.33.15.64.42.7,1.78.35,3.47.8,5.18,1.5.45.18.74.17.93-.2.17-.34,0-.8-.33-.89-1.84-.54-3.7-1.07-5.59-1.63-.28-.08-.57.15-.61.5Z"/><path class="cls-1" d="m64.87,56.6c-.26.07-.42.36-.34.64.23.91.19,3.09,1.04,3.64.14.09.34.09.44-.05.11-.14.07-.35.03-.53-.25-1.1-.33-2.24-.6-3.33-.06-.28-.32-.44-.57-.38Z"/><path class="cls-1" d="m127.4,54.59c-4.36.91-8.4,2.69-12.65,4.05-.08.03-.16.06-.22.11-.45.31-.1,1.09.41.93,4.24-1.31,8.27-3.23,12.62-4.04.25-.05.42-.29.4-.57h0c-.03-.32-.29-.53-.56-.48Z"/><path class="cls-1" d="m125.27,50.92c-5.93,5.06-12.46,5.7-19.3,2.37-.19-.09-.35-.13-.5-.13-.45,0-.58.69-.18.92,6.43,3.67,15.26,2.91,20.56-2.42.18-.18.19-.48.03-.68-.16-.19-.42-.21-.6-.06Z"/><path class="cls-1" d="m116.65,42.81c-.16-.23-.48-.25-.66-.04-1.72,1.98-3.15,4.05-4.33,6.36-.17.33.07.76.41.71.81-.11,1.02-1.76,1.67-2.36.95-1.36,1.93-2.7,2.92-4.07.13-.18.13-.42,0-.6h0Z"/><path class="cls-1" d="m112.19,62.34c.71-.04.9-1.65,1.05-2.2.21-.75.4-1.51.59-2.27.09-.37-.19-.76-.53-.7-.19.03-.33.18-.42.55-.21.87-.43,1.75-.67,2.61-.1.36-.74,1.77-.21,1.99.05.02.12.03.19.03Z"/><path class="cls-1" d="m109.09,59.67c.23-.8.45-1.62.65-2.43.07-.28-.09-.57-.34-.64-.25-.07-.5.1-.57.38-.18.77-.38,1.54-.6,2.3-.14.49-.73,1.55-.3,1.99.72.72,1.04-1.19,1.16-1.6Z"/><path class="cls-1" d="m60.86,40.86c-.19.06-.3.28-.24.49,3.8,13.7,17.68,11.83,22.59,21.04.21.39.76.16.66-.28-1.7-8.01-18.97-8.46-22.57-21-.06-.21-.26-.33-.45-.26Z"/><path class="cls-1" d="m80.45,63.05c-1.25-1.53-2.52-3.01-2.97-5.1,0-.03-.02-.05-.03-.08-.19-.44-.82-.18-.75.3.65,4.08,4.2,6.44,6.22,9.87.26.45.89.11.72-.38-.07-.2-.16-.39-.29-.57-.95-1.36-1.87-2.75-2.91-4.03Z"/><path class="cls-1" d="m79.55,48.64c-.18.11-.21.45-.12.69.09.23.27.38.44.52,1.82,1.57,3.2,3.93,4.13,6.52.56,1.55.91,2.93,1.11,4.59.21,1.74.17,3.73.27,5.48.01.24.03.47.05.71.02.2.04.41.13.58s.28.3.46.25c.12-.04.16-.78.17-.97.02-.48-.03-.96-.03-1.44-.02-.84-.04-1.68-.09-2.52-.09-1.7-.28-3.4-.67-5.05-.46-1.96-1.11-3.75-2.08-5.37-.19-.32-.39-.63-.6-.94-.78-1.14-1.69-2.13-2.69-2.92-.15-.12-.33-.24-.49-.14Z"/><path class="cls-1" d="m113.41,40.86c-.19-.06-.39.05-.45.26-3.6,12.53-20.87,12.99-22.57,21-.09.44.46.67.66.28,4.91-9.22,18.79-7.35,22.59-21.04.06-.21-.05-.43-.24-.49Z"/><path class="cls-1" d="m81.3,33.06c-.19.01-.35.18-.37.39-.47,7.5,5.49,13.97,9.45,19.72.13.18.36.22.53.09h.01c.17-.14.21-.39.11-.58-4.25-7.7-8.45-9.09-9.33-19.24-.02-.23-.2-.4-.41-.39Z"/><path class="cls-1" d="m80.6,44.09c-.61.19.3.97.65,1.3,6.16,5.77,7.06,12.12,7.47,15.98.41,3.86.09,6.79,1.06,6.21.26-.16.14-2.1.05-3.19-.49-6.14-1.32-11.26-5.04-16.39-.96-1.32-3.48-4.13-4.2-3.91Z"/></g></svg>