<?xml version="1.0" encoding="utf-8"?>
<!-- Generator: Adobe Illustrator 19.1.0, SVG Export Plug-In . SVG Version: 6.00 Build 0)  -->
<svg version="1.1" id="Layer_1" xmlns="http://www.w3.org/2000/svg" xmlns:xlink="http://www.w3.org/1999/xlink" x="0px" y="0px"
	 viewBox="-268.7 144.6 189.4 154.9" style="enable-background:new -268.7 144.6 189.4 154.9;" xml:space="preserve">
<path d="M-92.1,270.6v20.8h9.7v-1.3h-8.4v-9.2h7.1v-1.3h-7.1v-7.8h7.8v-1.2H-92.1z M-106.1,270.6l-2.7,10.7l-1.8,8l0,0l-1.8-8
	l-2.6-10.7h-1.5l5.2,20.9h1.4l5.2-20.9H-106.1z M-131.5,291.5h1.4v-20.8h-1.4V291.5z M-154,270.6v1.3h4.2v19.6h1.3v-19.6h4.2v-1.3
	H-154z M-170.1,270.6l-5.2,20.8h1.4l1.3-5.1h6.5l1.3,5.1h1.4l-5.2-20.8H-170.1z M-169.3,272.6L-169.3,272.6l2.9,12.5h-5.9
	L-169.3,272.6z M-190.3,291.5h1.4v-20.8h-1.4V291.5z M-212.6,270.6v1.3h4.2v19.6h1.3v-19.6h4.2v-1.3H-212.6z M-226.7,291.5h1.4
	v-20.8h-1.4V291.5z M-241.3,270.6V281l0.2,7.4h-0.1l-7.2-17.9h-1.4v20.9h1.4v-11.1l-0.2-6.5h0.1l7,17.7h1.5v-20.8L-241.3,270.6
	L-241.3,270.6z M-263.6,291.5h1.4v-20.8h-1.4V291.5z"/>
<g>
	<path d="M-263.8,262.5h2.7v-21.9c0-4.4,1.6-7.1,7.4-7.1c5.8,0,7.1,3.1,7.1,8.9v20.1h2.7v-20.9c0-4.5,1.7-8.1,7.5-8.1
		s7.1,2.3,7.1,8.9v20.1h2.7v-20.1c0-7.3-1.9-11.4-9.5-11.4c-3.4,0-6.4,0.7-8.9,4.6c-1.1-2.7-3.8-4.6-8.3-4.6c-3.4,0-6,0.8-7.6,3.1
		l-0.3-2.5h-2.6L-263.8,262.5L-263.8,262.5z M-210.3,260.5c-6.1,0-7.2-2.7-7.2-9.4v-8.2c0-6.5,1.4-9.1,7.2-9.1
		c6.1,0,7.2,2.5,7.2,9.2v8.2C-203.1,257.8-204.6,260.5-210.3,260.5 M-210.3,263c6.7,0,9.8-3,9.8-11.6V243c0-9.1-3.1-11.7-9.8-11.7
		c-6.7,0-9.8,2.8-9.8,11.6v8.5C-220.1,260.3-217,263-210.3,263 M-193.6,231.7v30.8h2.7v-21.7c0-3.6,1.9-7.4,7.4-7.4
		c5.6,0,7.1,2.1,7.1,9v20.1h2.7v-20.1c0-8-2.2-11.3-9.5-11.3c-3.8,0-6.4,1.6-7.8,3.9l-0.3-3.3H-193.6z M-147.7,262.5v-20.9
		c0-7.2-3-10.2-9.3-10.2c-6.7,0-9.3,3.1-9.3,9.7h2.5c0-5.9,2.3-7.3,6.7-7.3c4.9,0,6.8,2.3,6.7,7.9v4.5c-10.9-0.8-17.5,0.7-17.5,8.4
		c0,5.9,3.6,8.2,8.7,8.2c4.1,0,7-1,9.1-4.4l0.1,4.1H-147.7z M-150.3,252.6c0,3.2-2,7.6-7.9,7.6c-4.7,0-7-1.7-7-5.7
		c0-5.4,4.7-7,14.9-5.9V252.6z M-141.2,231.2v31.3h2.7l0.1-22.1c0-4.4,3.4-7.4,8.1-6.7v-2.5c-3.8-0.7-7,1.1-8.3,3.7l-0.2-3.7H-141.2
		z M-109.2,253.3c-0.1,4.4-1.3,7-7.2,7c-5.9,0-7.2-2.9-7.2-9.3v-8.1c0-6.5,1.8-9.1,7.4-9.1c5.4,0,6.6,2.6,6.8,6.4h2.5
		c-0.3-5.9-2.5-8.9-9.3-8.9c-6.7,0-10,3-10,11.6v8.2c0,8.5,3.1,11.7,9.8,11.7c6.5,0,9.7-3.1,9.7-9.6h-2.5
		C-109.2,253.2-109.2,253.3-109.2,253.3z M-82.2,262.5v-19.6c0-8.7-2.7-11.8-9.6-11.8c-2.4,0-5.6,0.9-7,3.2v-12.8h-2.7v41h2.6v-21
		c0-5.6,2.2-7.8,7-7.8c5.7,0,7,2.5,7,9.1v19.7H-82.2L-82.2,262.5z"/>
</g>
<g>
	<path d="M-209.1,177.1c2.8,0,5.5,1,7.5,2.9l24,24.2l5.4-5.3l-24.1-24.3l-0.2-0.2c-3.4-3.1-7.9-4.8-12.6-4.9h-0.1
		c-10.4,0-18.9,8.5-18.9,18.9v2h0.1c1,9.5,9,16.9,18.8,16.9c4.4,0,8.7-1.6,12.2-4.4l2-2l0,0c0.7-0.7,1.1-1.7,1.1-2.7
		c0-2.1-1.7-3.8-3.8-3.8c-0.9,0-1.7,0.3-2.4,0.8l-1.9,1.9c-2,1.7-4.6,2.6-7.2,2.6c-5.8,0-10.7-4.5-11.2-10.2v-1.1
		C-220.3,182.2-215.3,177.2-209.1,177.1z"/>
	<path d="M-146.4,169.5c-4.7,0-9.2,1.7-12.7,4.9l-4,4l5.4,5.4l3.7-3.7c2.1-1.9,4.7-2.9,7.5-2.9c6.2,0,11.2,5,11.2,11.2
		c0,6.2-5,11.2-11.2,11.2c-2.6,0-5.1-0.9-7.1-2.6l-1.4-1.4l-0.5-0.5c-0.7-0.5-1.5-0.8-2.4-0.8c-2.1,0-3.8,1.7-3.8,3.8
		c0,1,0.4,2,1.1,2.7l0,0l1.7,1.8l0.2,0.2c3.4,2.9,7.7,4.4,12.1,4.4c10.4,0,18.8-8.5,18.8-18.8C-127.5,178-136,169.5-146.4,169.5z"/>
</g>
<g>
	<path d="M-187.8,204.3c-1,0-1.9,0.3-2.6,1l-2.7,2.7c-4.7,4-10.6,6.1-16.7,6.1c-1.8,0-3.5-0.2-5.2-0.5
		c-11.4-2.4-19.8-12.2-20.5-23.7v-1.5c0-12.2,8.7-22.8,20.6-25.3l0.6-0.1c1.5-0.3,3-0.4,4.5-0.4c6.6,0,12.9,2.5,17.7,7
		c0.5,0.4,15.3,15.4,23,23.2l0.9,0.9l0,0l0.2,0.1l5.5-5.5l-11.1-11.2l-11.8-11.7c-0.4-0.5-0.9-0.9-1.4-1.4c-6.2-5.9-14.4-9.2-23-9.2
		c-2.3,0-4.6,0.2-6.8,0.7c-15.5,3.2-26.8,17-26.8,32.9v1.5l0,0c0.7,15.2,11.8,28.3,26.8,31.4c2.2,0.5,4.5,0.7,6.8,0.7
		c8.1,0,15.8-2.9,21.9-8.2l3-3c0.7-0.7,1-1.7,1-2.6C-183.9,206.1-185.6,204.3-187.8,204.3z"/>
	<path d="M-138.9,155.5c-2.2-0.5-4.4-0.7-6.7-0.7c-8.6,0-16.8,3.3-23,9.2c-0.5,0.4-0.9,0.9-1.3,1.3l-3.1,3.1l5.5,5.5l3.1-3.1
		l0.1-0.1c0.3-0.4,0.7-0.7,1.1-1.1c4.8-4.5,11.1-7,17.7-7c1.8,0,3.5,0.2,5.2,0.5c11.9,2.5,20.6,13.1,20.6,25.3s-8.6,22.8-20.5,25.2
		c-1.7,0.4-3.5,0.5-5.2,0.5c-6.1,0-12-2.2-16.7-6.1l-2.8-2.8c-0.7-0.6-1.6-1-2.6-1c-2.2,0-3.9,1.8-3.9,3.9c0,1,0.4,1.9,1.1,2.7
		l2.8,2.8l0,0c6.1,5.3,13.8,8.4,21.8,8.4c2.3,0,4.6-0.2,6.8-0.7c15.5-3.2,26.8-17,26.8-32.9C-112,172.5-123.3,158.7-138.9,155.5z"/>
</g>
</svg>
