<?xml version="1.0" encoding="utf-8"?>
<!-- Generator: Adobe Illustrator 19.1.0, SVG Export Plug-In . SVG Version: 6.00 Build 0)  -->
<svg version="1.1" id="Layer_1" xmlns="http://www.w3.org/2000/svg" xmlns:xlink="http://www.w3.org/1999/xlink" x="0px" y="0px"
	 viewBox="-50 331.3 510 130.7" style="enable-background:new -50 331.3 510 130.7;" xml:space="preserve">
<style type="text/css">
	.st0{fill:#3FA395;}
</style>
<path class="st0" d="M441.5,425v31.2H456v-2h-12.6v-13.7H456v-1.9h-12.6v-11.8H456v-1.9h-14.5V425z M420.3,425l-4,16l-2.7,12l0,0
	l-2.8-12l-3.9-16h-2.2l7.8,31.2h2.2l7.8-31.2H420.3z M382.2,456.2h2.1V425h-2.1V456.2z M348.5,425v1.9h6.3v29.3h2v-29.3h6.3V425
	H348.5z M324.4,425l-7.8,31.2h2l1.9-7.7h9.7l2,7.7h2.1l-7.8-31.2H324.4z M325.5,427.9L325.5,427.9l4.4,18.7H321L325.5,427.9z
	 M294.1,456.2h2.1V425h-2.1V456.2z M260.5,425v1.9h6.3v29.3h2v-29.3h6.3V425H260.5z M239.5,456.2h2.1V425h-2.1V456.2z M217.4,425
	v15.6l0.4,11.1h-0.1L206.9,425h-2.1v31.1h2.1v-16.7l-0.3-9.8h0.1l10.5,26.5h2.3V425H217.4z M184,456.2h2.1V425H184V456.2z"/>
<g>
	<path class="st0" d="M184,394.7h4v-32.9c0-6.5,2.5-10.6,11.1-10.6c8.7,0,10.7,4.6,10.7,13.3v30.1h4v-31.2c0-6.7,2.5-12.1,11.2-12.1
		s10.7,3.4,10.7,13.3v30.1h4v-30.1c0-11-2.9-17-14.2-17c-5.1,0-9.5,1-13.4,6.8c-1.7-4-5.6-6.8-12.5-6.8c-5.1,0-9,1.3-11.4,4.6
		l-0.4-3.7H184V394.7z M264.2,391.6c-9.1,0-10.7-4.1-10.7-14.1v-12.3c0-9.8,2.1-13.7,10.7-13.7c9.1,0,10.7,3.8,10.7,13.8v12.3
		C274.9,387.4,272.7,391.6,264.2,391.6 M264.2,395.2c10,0,14.7-4.5,14.7-17.4v-12.5c0-13.7-4.7-17.6-14.7-17.6s-14.7,4.2-14.7,17.3
		v12.7C249.4,391.3,254.1,395.2,264.2,395.2 M289.1,348.5v46.2h4v-32.5c0-5.3,2.8-11.1,11.1-11.1c8.3,0,10.7,3.1,10.7,13.4v30.1h4
		v-30.1c0-12-3.3-16.9-14.2-16.9c-5.7,0-9.5,2.4-11.7,5.8l-0.3-4.9C292.7,348.5,289.1,348.5,289.1,348.5z M357.8,394.7v-31.3
		c0-10.8-4.5-15.3-13.9-15.3c-10,0-13.9,4.7-13.9,14.5h3.8c0-8.8,3.5-10.9,10.1-10.9c7.3,0,10.2,3.5,10.1,11.8v6.7
		c-16.3-1.3-26.2,1.1-26.2,12.6c0,8.8,5.3,12.3,13,12.3c6.2,0,10.5-1.4,13.7-6.6l0.1,6.2H357.8z M354,379.9c0,4.8-3,11.4-11.8,11.4
		c-7,0-10.4-2.5-10.4-8.5c0-8.1,7.1-10.4,22.3-8.9v6H354z M367.6,347.8v46.9h4l0.1-33.1c0-6.6,5.1-11.1,12.2-10v-3.7
		c-5.7-1-10.5,1.7-12.4,5.5l-0.2-5.6C371.3,347.8,367.6,347.8,367.6,347.8z M415.5,380.8c-0.2,6.6-1.9,10.5-10.7,10.5
		c-8.8,0-10.7-4.4-10.7-13.9v-12.1c0-9.8,2.6-13.7,11.1-13.7c8,0,9.9,3.9,10.3,9.6h3.7c-0.4-8.8-3.8-13.4-14-13.4
		c-10,0-15,4.5-15,17.4v12.3c0,12.7,4.7,17.6,14.7,17.6c9.7,0,14.5-4.6,14.5-14.4h-3.9V380.8z M456,394.7v-29.4
		c0-13-4.1-17.6-14.4-17.6c-3.6,0-8.4,1.3-10.4,4.8v-19.2h-4v61.4h3.9v-31.4c0-8.4,3.3-11.7,10.5-11.7c8.6,0,10.4,3.8,10.4,13.6
		v29.5H456z"/>
</g>
<path class="st0" d="M8,382.8c4.6,0,8.9,1.7,12.2,4.7l39.4,39.6l8.8-8.6L29,378.6l-0.3-0.3c-5.6-5.1-12.9-7.9-20.6-8H8
	c-17.1,0-31,13.9-31,30.9v3.3h0.2C-21.1,420-8,432.1,8,432.1c7.3,0,14.3-2.6,19.9-7.3l3.3-3.2l0,0c1.2-1.2,1.8-2.8,1.8-4.4
	c0-3.4-2.8-6.2-6.2-6.2c-1.4,0-2.8,0.5-3.9,1.4l-3.1,3.1c-3.3,2.7-7.5,4.2-11.8,4.2c-9.6,0-17.4-7.3-18.4-16.6v-1.8
	C-10.4,391.1-2.1,382.8,8,382.8z"/>
<path class="st0" d="M110.7,370.3c-7.7,0-15,2.8-20.7,8l-6.5,6.5l8.9,8.8l6-6c3.4-3.1,7.8-4.8,12.3-4.8c10.1,0,18.4,8.2,18.4,18.4
	c0,10.1-8.2,18.4-18.4,18.4c-4.3,0-8.4-1.5-11.7-4.2l-2.4-2.4l-0.8-0.7c-1.1-0.9-2.5-1.4-3.9-1.4c-3.4,0-6.3,2.8-6.3,6.3
	c0,1.7,0.7,3.3,1.9,4.4l0,0l2.9,2.9l0.4,0.4c5.6,4.7,12.6,7.2,19.8,7.2c17,0,30.8-13.8,30.8-30.8
	C141.6,384.2,127.7,370.3,110.7,370.3z"/>
<g>
	<path class="st0" d="M42.9,427.3c-1.6,0-3.1,0.6-4.3,1.7l-4.4,4.4c-7.6,6.5-17.3,10.1-27.3,10.1c-2.9,0-5.8-0.3-8.6-0.9
		c-18.7-3.9-32.5-20-33.6-38.9v-2.5c0-20,14.2-37.3,33.7-41.4l1-0.2c2.4-0.4,4.9-0.6,7.4-0.6c10.8,0,21.1,4.1,28.9,11.5
		c0.7,0.7,25,25.2,37.7,38l1.5,1.5l0,0l0.3,0.2l9-9L66,382.7l-19.2-19.2c-0.7-0.8-1.5-1.5-2.3-2.3c-10.3-9.7-23.7-15-37.7-15
		c-3.7,0-7.5,0.4-11.1,1.1c-25.4,5.3-43.9,27.9-43.9,53.9v2.5h0.1c1.1,24.9,19.2,46.3,43.8,51.4c3.7,0.8,7.4,1.1,11.2,1.1
		c13.2,0,25.9-4.8,35.9-13.4l4.8-4.8c1.1-1.2,1.7-2.7,1.7-4.3C49.3,430.1,46.4,427.3,42.9,427.3z"/>
	<path class="st0" d="M123,347.3c-3.6-0.7-7.3-1.1-11.1-1.1c-14.1,0-27.5,5.3-37.7,15c-0.8,0.7-1.5,1.5-2.2,2.2l-5,5l9.1,9l5-5
		l0.2-0.2c0.6-0.6,1.1-1.2,1.7-1.7c7.9-7.4,18.2-11.5,29-11.5c2.9,0,5.7,0.3,8.5,0.9c19.5,4,33.7,21.4,33.7,41.4
		c0,19.9-14.1,37.3-33.6,41.3c-2.8,0.6-5.7,0.9-8.6,0.9c-10,0-19.7-3.6-27.3-10.1l-4.5-4.5c-1.2-1-2.7-1.6-4.2-1.6
		c-3.5,0-6.4,2.9-6.4,6.4c0,1.6,0.6,3.1,1.8,4.4l4.6,4.6l0.1,0.1c10,8.6,22.8,13.4,35.9,13.4c3.8,0,7.5-0.4,11.2-1.1
		c25.4-5.3,43.8-27.9,43.8-53.8C166.9,375.2,148.5,352.6,123,347.3z"/>
</g>
</svg>
