<svg id="Layer_1" data-name="Layer 1" xmlns="http://www.w3.org/2000/svg" viewBox="0 0 1069 332"><defs><style>.cls-1{fill:#231f20;}.cls-2{fill:#fff;}</style></defs><rect class="cls-1" x="0.25" width="1069" height="332"/><path class="cls-2" d="M440,119.92l-4-16.63h-.06c-1.1-.14-2.21-.26-3.32-.35s-2.24-.15-3.37-.18-2.25,0-3.39,0c-.83,0-1.66.07-2.49.12L417.85,119c-.22,0-.44.11-.66.15l0,.1c-1.58.31-3.13.68-4.65,1.13s-3,1-4.46,1.53L395.16,111c-.59.32-1.17.64-1.75,1-1,.56-1.9,1.13-2.82,1.74s-1.84,1.23-2.73,1.88-1.77,1.31-2.63,2l-.73.6,4.85,16.21c-.14.16-.27.33-.42.48v0c-1.11,1.18-2.16,2.42-3.16,3.69s-1.95,2.59-2.84,4h-.06l0,0-16.83-1c-.3.62-.61,1.22-.9,1.85-.46,1-.88,2-1.3,3.07-.27.69-.52,1.39-.78,2.09-.12.35-.27.69-.39,1.05-.35,1-.69,2.1-1,3.16-.1.34-.17.69-.27,1l13.41,10.12a54.43,54.43,0,0,0-.56,10.74l-14.36,9.25c.09.52.16,1,.26,1.55.2,1.08.44,2.16.7,3.23s.54,2.14.85,3.2.65,2.11,1,3.16c.15.41.32.82.47,1.23h0l16.67.09s0,0,0,.05H380a52,52,0,0,0,5.88,9l-6.39,15.94c.61.59,1.21,1.18,1.83,1.74.85.76,1.71,1.49,2.58,2.2s1.78,1.41,2.68,2.06,1.63,1.15,2.46,1.7l13.68-9.92c.14.07.29.12.43.18l.1-.06c1.22.59,2.47,1.1,3.73,1.59A19.94,19.94,0,0,1,416.28,192,22.88,22.88,0,0,1,433,149.63a19.93,19.93,0,0,1,11.53-27.81l.16-.41Q442.35,120.56,440,119.92Z"/><path class="cls-2" d="M481.44,164.11a4.34,4.34,0,0,0-3.28,1.51l-6.24-3a8,8,0,0,0,.37-2.42,8.19,8.19,0,0,0-2.5-5.89l3.73-5.14a3.29,3.29,0,0,0,.63.07,2.93,2.93,0,1,0-2.93-2.93,2.9,2.9,0,0,0,.42,1.48L467.9,153a8.11,8.11,0,0,0-3.83-1,8.21,8.21,0,0,0-8.21,8.21,9,9,0,0,0,.1,1.28l-16.48,5.08a13.57,13.57,0,0,0-3.38-4.86l10.69-13.85a8.22,8.22,0,1,0-1.85-1.43l-10.69,13.85a13.54,13.54,0,1,0-9.51,24.74l-1.3,17.14a8.21,8.21,0,0,0,.56,16.41l.49,0,1.37,6.7a2.29,2.29,0,1,0,3.54.58,2.16,2.16,0,0,0-1.25-1l-1.37-6.71a8.2,8.2,0,0,0-1-15.73l1.3-17.13a13.5,13.5,0,0,0,6.26-1.61l8.18,12.52a8.2,8.2,0,0,0,3.6,14.16l-.47,5.65a4.38,4.38,0,1,0,2.33.2l.47-5.67a8.22,8.22,0,0,0,6.68-4.2l7.1,2.71a2.29,2.29,0,1,0,2.25-2.69,2.33,2.33,0,0,0-1.41.5l-7.11-2.7a8.22,8.22,0,0,0-8-10,8,8,0,0,0-3.47.78l-8.19-12.52a13.6,13.6,0,0,0,3.8-4.71l14.68,5.65a8.48,8.48,0,0,0-.21,1.83,8.22,8.22,0,1,0,1.05-4l-14.67-5.65a13.78,13.78,0,0,0,.54-3.76,13.47,13.47,0,0,0-.31-2.86l16.48-5.08a8.21,8.21,0,0,0,14.27,1l6.24,2.94a3.65,3.65,0,0,0-.08.74,4.36,4.36,0,1,0,4.36-4.36Z"/><path class="cls-2" d="M536.77,168.49V154.9c0-14,5-18.53,15.72-18.53s15.72,4.17,15.72,18.78v13.34c0,13.77-5,18.61-15.72,18.61S536.77,182.94,536.77,168.49Zm27.19-.17V155.15c0-10.7-1.7-14.78-11.47-14.78-9.18,0-11.47,4.16-11.47,14.61v13.17c0,10.71,1.7,15,11.47,15C561.67,183.19,564,178.77,564,168.32Z"/><path class="cls-2" d="M585.45,168.83V152.77c0-11.72,5.87-16.57,15.72-16.57,5.19,0,8.76,1.28,11.48,4.42V117.51h4.24v69h-3.73l-.43-5.44c-2.38,3.48-6.2,5.69-12.32,5.69C590,186.76,585.45,181.83,585.45,168.83Zm15.38,13.94c8.67-.17,11.82-4.85,11.82-12.92v-16.4c.08-9.43-2.3-13.34-11.48-13.34s-11.47,4.51-11.47,12.83v15.81C589.7,179.88,593.36,182.77,600.83,182.77Z"/><path class="cls-2" d="M645.61,161.78h-4.67v24.73h-4.42v-65.6h4.33v36.45h4.68l15.89-21.16h5.1L649.1,159.57l19.54,26.94h-5.27Z"/><path class="cls-2" d="M499.67,209.18v-.25c0-3.34,1.74-5.3,4.58-5.3s4.55,1.88,4.55,5.31v.25c0,3.31-1.74,5.3-4.58,5.3S499.67,212.61,499.67,209.18Zm8,.18v-.42c0-2.73-1.06-4.44-3.49-4.45-2.23,0-3.44,1.69-3.44,4.25v.42c0,2.73,1.07,4.47,3.47,4.47S507.7,211.92,507.7,209.36Z"/><path class="cls-2" d="M511,203.8h1.23l5.42,8.81h0V203.8h.94v10.52h-1.06L512,205.2h0v9.12H511Z"/><path class="cls-2" d="M523.8,204.66h-3.32v-.86h7.66v.86h-3.32v9.66h-1Z"/><path class="cls-2" d="M529.42,209.18v-.25c0-3.34,1.74-5.3,4.57-5.3s4.55,1.88,4.55,5.31v.25c0,3.31-1.74,5.3-4.58,5.3S529.42,212.61,529.42,209.18Zm8,.18v-.42c0-2.73-1.06-4.44-3.49-4.45-2.23,0-3.44,1.69-3.44,4.25v.42c0,2.73,1.07,4.47,3.47,4.47S537.44,211.92,537.44,209.36Z"/><path class="cls-2" d="M540.73,203.8h1v9.66h4.94v.86h-5.94Z"/><path class="cls-2" d="M548.08,209.18v-.25c0-3.34,1.74-5.3,4.58-5.3s4.55,1.88,4.55,5.31v.25c0,3.31-1.74,5.3-4.58,5.3S548.08,212.61,548.08,209.18Zm8,.18v-.42c0-2.73-1.07-4.44-3.5-4.45-2.22,0-3.43,1.69-3.43,4.25v.42c0,2.73,1.07,4.47,3.47,4.47S556.11,211.92,556.11,209.36Z"/><path class="cls-2" d="M558.8,209.24V209c0-3.83,2.14-5.36,4.87-5.36a5.5,5.5,0,0,1,2.71.61v.88a5.92,5.92,0,0,0-2.77-.6c-2.67,0-3.72,1.9-3.72,4.33v.37c0,2.64.88,4.38,3.75,4.38a6.29,6.29,0,0,0,2.13-.32V210.2h-2.33v-.85h3.34v4.56a8.68,8.68,0,0,1-3.15.58C560.62,214.49,558.8,212.8,558.8,209.24Z"/><path class="cls-2" d="M571.74,210.1l-3.5-6.3h1.07l3,5.35h0l2.93-5.35h1l-3.5,6.3v4.22h-1Z"/><path class="cls-2" d="M582.15,203.8h3c3.26,0,5,1.61,5,5v.25c0,3.37-1.56,5.24-5,5.24h-3Zm3,9.64c2.65,0,3.86-1.28,3.86-4.22v-.39c0-3-1.38-4.15-4-4.15h-1.89v8.76Z"/><path class="cls-2" d="M592.32,203.8h6.17v.86h-5.17v3.81h4v.88h-4v4.11h5.22v.86h-6.22Z"/><path class="cls-2" d="M599.85,203.8h1.06l3.3,9.14h0l3.29-9.14h1l-3.86,10.52h-.94Z"/><path class="cls-2" d="M610.23,203.8h6.18v.86h-5.17v3.81h4v.88h-4v4.11h5.22v.86h-6.23Z"/><path class="cls-2" d="M618.78,203.8h1v9.66h4.94v.86h-5.94Z"/><path class="cls-2" d="M626.14,209.18v-.25c0-3.34,1.74-5.3,4.58-5.3s4.54,1.88,4.54,5.31v.25c0,3.31-1.74,5.3-4.58,5.3S626.14,212.61,626.14,209.18Zm8,.18v-.42c0-2.73-1.07-4.44-3.5-4.45-2.23,0-3.43,1.69-3.43,4.25v.42c0,2.73,1.06,4.47,3.46,4.47S634.17,211.92,634.17,209.36Z"/><path class="cls-2" d="M637.45,203.8h3.06c2.42,0,3.49,1.13,3.49,3.06s-1.28,3.12-3.34,3.12h-2.19v4.34h-1Zm3,5.33c1.76,0,2.46-.74,2.46-2.19s-.61-2.28-2.5-2.28h-1.93v4.47Z"/><path class="cls-2" d="M646,203.8h1.52l3.26,9.16h.05l3.26-9.16h1.5v10.52h-1v-9.2h0l-3.31,9.2h-1l-3.31-9.2h0v9.2H646Z"/><path class="cls-2" d="M658.39,203.8h6.18v.86h-5.18v3.81h4v.88h-4v4.11h5.22v.86h-6.22Z"/><path class="cls-2" d="M666.94,203.8h1.22l5.43,8.81h0V203.8h.94v10.52h-1.07l-5.58-9.12h0v9.12h-.94Z"/><path class="cls-2" d="M679.75,204.66h-3.32v-.86h7.67v.86h-3.33v9.66h-1Z"/><path class="cls-2" d="M690.17,203.8h1v10.52h-1Zm1.3,5.16L696,203.8h1.16l-4.43,5.11,4.62,5.41H696Z"/><path class="cls-2" d="M699,203.8h1v10.52h-1Z"/><path class="cls-2" d="M705.27,204.66H702v-.86h7.67v.86h-3.33v9.66h-1Z"/></svg>