<svg id="Layer_1" data-name="Layer 1" xmlns="http://www.w3.org/2000/svg" viewBox="0 0 220.47 226.08"><defs><style>.cls-1{fill:#fff;}</style></defs><path class="cls-1" d="M54.75,185.34v-10.4c0-10.73,3.83-14.17,12-14.17s12,3.18,12,14.36v10.21c0,10.53-3.84,14.23-12,14.23S54.75,196.39,54.75,185.34Zm20.8-.13V175.13c0-8.19-1.3-11.31-8.78-11.31-7,0-8.77,3.19-8.77,11.18v10.08c0,8.19,1.3,11.5,8.77,11.5C73.79,196.58,75.55,193.2,75.55,185.21Z"/><path class="cls-1" d="M92,185.6V173.31c0-9,4.49-12.67,12-12.67,4,0,6.69,1,8.77,3.38V146.33H116v52.79h-2.86l-.32-4.16c-1.82,2.66-4.75,4.35-9.43,4.35C95.44,199.31,92,195.54,92,185.6Zm11.77,10.66c6.63-.13,9-3.71,9-9.88V173.83c.07-7.21-1.75-10.2-8.77-10.2s-8.78,3.44-8.78,9.81v12.09C95.24,194.05,98,196.26,103.76,196.26Z"/><path class="cls-1" d="M138,180.2h-3.57v18.92h-3.38V148.94h3.31v27.88H138l12.15-16.18H154l-13.32,17.87,14.95,20.61h-4Z"/><path class="cls-1" d="M123.69,22.75l-4-16.64h-.06c-1.1-.14-2.21-.26-3.32-.35s-2.24-.15-3.37-.18-2.25,0-3.39,0c-.83,0-1.66.06-2.49.11l-5.47,16.14c-.22,0-.44.11-.66.15l0,.11c-1.57.3-3.12.68-4.64,1.12s-3,1-4.46,1.53L78.9,13.81c-.59.32-1.17.63-1.75,1-1,.56-1.9,1.14-2.82,1.74s-1.84,1.23-2.73,1.88-1.78,1.31-2.63,2c-.25.19-.49.39-.73.59L73.09,37.2c-.15.16-.27.33-.42.48v0c-1.11,1.18-2.16,2.42-3.17,3.7S67.57,44,66.68,45.37h-.06s0,0,0,0l-16.83-1c-.3.61-.62,1.22-.9,1.84-.46,1-.88,2-1.3,3.07-.27.69-.52,1.39-.78,2.09-.13.35-.27.7-.39,1-.36,1.05-.69,2.1-1,3.17-.1.33-.17.68-.27,1l13.4,10.13A55.06,55.06,0,0,0,58,77.46L43.63,86.71c.08.52.16,1,.26,1.55.2,1.08.44,2.16.7,3.23s.54,2.14.85,3.2.65,2.12,1,3.16c.15.42.32.82.47,1.24h0l16.67.08,0,0h.14a51.6,51.6,0,0,0,5.88,9l-6.39,15.94c.61.59,1.21,1.18,1.83,1.74.85.76,1.71,1.49,2.58,2.2s1.78,1.41,2.68,2.07,1.63,1.14,2.46,1.69L86.48,122c.14.07.29.11.43.18l.1-.07c1.22.59,2.47,1.11,3.73,1.59A19.92,19.92,0,0,1,100,94.79a22.89,22.89,0,0,1,10.65-43.16,23.17,23.17,0,0,1,6,.82,19.73,19.73,0,0,1-2.11-8.88,20,20,0,0,1,13.64-18.92l.15-.42A47.46,47.46,0,0,0,123.69,22.75Z"/><path class="cls-1" d="M165.18,66.93a4.33,4.33,0,0,0-3.28,1.52l-6.24-3a8.24,8.24,0,0,0-2.13-8.31L157.26,52a2.59,2.59,0,0,0,.63.07,3,3,0,1,0-2.52-1.45l-3.73,5.15a8.22,8.22,0,0,0-12,7.27,8.82,8.82,0,0,0,.11,1.27l-16.48,5.09a13.63,13.63,0,0,0-3.39-4.87l10.7-13.85a8.22,8.22,0,1,0-1.85-1.43L118,63.14a13.54,13.54,0,1,0-9.51,24.75L107.18,105a8.21,8.21,0,0,0,.55,16.4l.49,0,1.38,6.7a2.3,2.3,0,1,0,2.29-.47l-1.38-6.7a8.21,8.21,0,0,0-1-15.74l1.3-17.13a13.51,13.51,0,0,0,6.27-1.6L125.26,99a8.2,8.2,0,0,0,3.59,14.16l-.46,5.65a4.38,4.38,0,1,0,2.33.2l.46-5.66a8.2,8.2,0,0,0,6.68-4.21l7.11,2.71a2.29,2.29,0,1,0,2.25-2.68,2.24,2.24,0,0,0-1.41.5l-7.12-2.71a8.19,8.19,0,0,0-11.47-9.24L119,85.18a13.6,13.6,0,0,0,3.8-4.71l14.68,5.66A8.41,8.41,0,0,0,137.3,88a8.22,8.22,0,1,0,1-4l-14.67-5.65a13.72,13.72,0,0,0,.54-3.76,13.47,13.47,0,0,0-.31-2.86l16.48-5.08a8.21,8.21,0,0,0,14.27,1l6.23,3a4.4,4.4,0,0,0-.07.73,4.36,4.36,0,1,0,4.36-4.36Z"/><path class="cls-1" d="M26.37,216.46v-.19c0-2.56,1.33-4.06,3.5-4.06s3.48,1.44,3.48,4.07v.19c0,2.53-1.33,4.06-3.5,4.06S26.37,219.09,26.37,216.46Zm6.14.14v-.32c0-2.09-.81-3.39-2.67-3.41s-2.63,1.3-2.63,3.25v.33c0,2.09.82,3.42,2.65,3.42S32.51,218.56,32.51,216.6Z"/><path class="cls-1" d="M35,212.35H36l4.15,6.74h0v-6.74h.72v8H40l-4.27-7h0v7H35Z"/><path class="cls-1" d="M44.82,213H42.28v-.66h5.87V213H45.6v7.38h-.78Z"/><path class="cls-1" d="M49.12,216.46v-.19c0-2.56,1.33-4.06,3.5-4.06s3.48,1.44,3.48,4.07v.19c0,2.53-1.33,4.06-3.5,4.06S49.12,219.09,49.12,216.46Zm6.14.14v-.32c0-2.09-.81-3.39-2.67-3.41-1.7,0-2.63,1.3-2.63,3.25v.33c0,2.09.82,3.42,2.65,3.42S55.26,218.56,55.26,216.6Z"/><path class="cls-1" d="M57.77,212.35h.77v7.38h3.78v.66H57.77Z"/><path class="cls-1" d="M63.4,216.46v-.19c0-2.56,1.33-4.06,3.5-4.06s3.48,1.44,3.48,4.07v.19c0,2.53-1.33,4.06-3.5,4.06S63.4,219.09,63.4,216.46Zm6.14.14v-.32c0-2.09-.81-3.39-2.67-3.41-1.7,0-2.63,1.3-2.63,3.25v.33c0,2.09.82,3.42,2.65,3.42S69.54,218.56,69.54,216.6Z"/><path class="cls-1" d="M71.6,216.51v-.19c0-2.93,1.64-4.11,3.73-4.11a4.19,4.19,0,0,1,2.07.47v.67a4.75,4.75,0,0,0-2.12-.45c-2,0-2.84,1.45-2.84,3.31v.29c0,2,.67,3.34,2.86,3.34a4.83,4.83,0,0,0,1.63-.24v-2.36H75.15v-.65H77.7v3.49a6.72,6.72,0,0,1-2.41.45C73,220.53,71.6,219.23,71.6,216.51Z"/><path class="cls-1" d="M81.5,217.17l-2.68-4.82h.82l2.26,4.09h0l2.24-4.09h.77l-2.68,4.82v3.22H81.5Z"/><path class="cls-1" d="M89.46,212.35h2.28c2.5,0,3.83,1.23,3.83,3.85v.19c0,2.58-1.2,4-3.8,4H89.46Zm2.32,7.37c2,0,3-1,3-3.22v-.3c0-2.33-1.06-3.18-3-3.18H90.23v6.7Z"/><path class="cls-1" d="M97.24,212.35H102V213H98v2.91h3v.67H98v3.14h4v.66H97.24Z"/><path class="cls-1" d="M103,212.35h.82l2.52,7h0l2.52-7h.74l-3,8h-.72Z"/><path class="cls-1" d="M110.94,212.35h4.73V213h-4v2.91h3.05v.67h-3.05v3.14h4v.66h-4.77Z"/><path class="cls-1" d="M117.48,212.35h.77v7.38H122v.66h-4.55Z"/><path class="cls-1" d="M123.11,216.46v-.19c0-2.56,1.33-4.06,3.51-4.06s3.47,1.44,3.47,4.07v.19c0,2.53-1.33,4.06-3.5,4.06S123.11,219.09,123.11,216.46Zm6.14.14v-.32c0-2.09-.81-3.39-2.67-3.41-1.7,0-2.63,1.3-2.63,3.25v.33c0,2.09.82,3.42,2.65,3.42S129.25,218.56,129.25,216.6Z"/><path class="cls-1" d="M131.76,212.35h2.34c1.86,0,2.68.86,2.68,2.33a2.27,2.27,0,0,1-2.56,2.39h-1.68v3.32h-.78Zm2.3,4.07c1.34,0,1.88-.56,1.88-1.67S135.47,213,134,213h-1.48v3.41Z"/><path class="cls-1" d="M138.3,212.35h1.17l2.49,7h0l2.49-7h1.16v8h-.78v-7h0l-2.53,7h-.73l-2.53-7h0v7h-.72Z"/><path class="cls-1" d="M147.78,212.35h4.73V213h-4v2.91h3v.67h-3v3.14h4v.66h-4.77Z"/><path class="cls-1" d="M154.32,212.35h.94l4.15,6.74h0v-6.74h.72v8h-.81l-4.27-7h0v7h-.72Z"/><path class="cls-1" d="M164.13,213h-2.55v-.66h5.87V213h-2.54v7.38h-.78Z"/><path class="cls-1" d="M172.1,212.35h.76v8h-.76Zm1,3.94,3.43-3.94h.89l-3.4,3.91,3.54,4.13h-1Z"/><path class="cls-1" d="M178.86,212.35h.78v8h-.78Z"/><path class="cls-1" d="M183.65,213h-2.54v-.66H187V213h-2.54v7.38h-.78Z"/></svg>