<svg id="Layer_1" data-name="Layer 1" xmlns="http://www.w3.org/2000/svg" viewBox="0 0 220.47 241.33"><defs><style>.cls-1{fill:#828385;}</style></defs><path class="cls-1" d="M54.75,193v-10.4c0-10.72,3.83-14.17,12-14.17s12,3.19,12,14.37V193c0,10.53-3.84,14.24-12,14.24S54.75,204,54.75,193Zm20.8-.13V182.76c0-8.19-1.3-11.31-8.78-11.31-7,0-8.77,3.18-8.77,11.18V192.7c0,8.19,1.3,11.51,8.77,11.51C73.79,204.21,75.55,200.83,75.55,192.83Z"/><path class="cls-1" d="M92,193.22V180.94c0-9,4.49-12.68,12-12.68,4,0,6.69,1,8.77,3.38V154H116v52.78h-2.86l-.32-4.16c-1.82,2.67-4.75,4.36-9.43,4.36C95.44,206.94,92,203.17,92,193.22Zm11.77,10.66c6.63-.13,9-3.7,9-9.88V181.46c.07-7.22-1.75-10.21-8.77-10.21s-8.78,3.45-8.78,9.82v12.09C95.24,201.67,98,203.88,103.76,203.88Z"/><path class="cls-1" d="M138,187.83h-3.57v18.91h-3.38V156.56h3.31v27.89H138l12.15-16.19H154l-13.32,17.88,14.95,20.6h-4Z"/><path class="cls-1" d="M123.69,30.37l-4-16.63h-.06c-1.1-.14-2.21-.26-3.32-.35s-2.24-.15-3.37-.18-2.25,0-3.39,0c-.83,0-1.66.07-2.49.12l-5.47,16.14c-.22,0-.44.11-.66.15l0,.1c-1.57.31-3.12.68-4.64,1.13s-3,.95-4.46,1.53L78.9,21.43l-1.75,1c-1,.56-1.9,1.14-2.82,1.74S72.49,25.38,71.6,26,69.82,27.33,69,28c-.25.2-.49.39-.73.6l4.85,16.21c-.15.15-.27.32-.42.48v0c-1.11,1.18-2.16,2.41-3.17,3.69s-1.94,2.59-2.83,4H66.6L49.77,52c-.3.62-.62,1.22-.9,1.85-.46,1-.88,2-1.3,3.07-.27.69-.52,1.39-.78,2.09-.13.35-.27.69-.39,1-.36,1.06-.69,2.11-1,3.17-.1.34-.17.69-.27,1l13.4,10.13A55.16,55.16,0,0,0,58,85.09L43.63,94.34c.08.51.16,1,.26,1.55.2,1.08.44,2.15.7,3.23s.54,2.14.85,3.2.65,2.11,1,3.16c.15.41.32.82.47,1.23h0l16.67.09,0,0h.14a52.36,52.36,0,0,0,5.88,9L63.25,131.8c.61.58,1.21,1.18,1.83,1.74.85.76,1.71,1.49,2.58,2.2s1.78,1.4,2.68,2.06S72,139,72.8,139.5l13.68-9.92c.14.07.29.11.43.18l.1-.07c1.22.6,2.47,1.11,3.73,1.6A19.92,19.92,0,0,1,100,102.42a22.88,22.88,0,0,1,16.69-42.34,19.9,19.9,0,0,1,11.53-27.81l.15-.41C126.86,31.29,125.28,30.79,123.69,30.37Z"/><path class="cls-1" d="M165.18,74.56a4.32,4.32,0,0,0-3.28,1.51l-6.24-2.95A8.05,8.05,0,0,0,156,70.7a8.17,8.17,0,0,0-2.49-5.89l3.73-5.14a3.2,3.2,0,0,0,.63.07A2.93,2.93,0,1,0,155,56.81a3,3,0,0,0,.41,1.48l-3.73,5.15a8.22,8.22,0,0,0-12,7.26A9,9,0,0,0,139.7,72l-16.48,5.08a13.5,13.5,0,0,0-3.39-4.86l10.7-13.85a8.22,8.22,0,1,0-1.85-1.43L118,70.76a13.54,13.54,0,1,0-9.51,24.75l-1.3,17.14a8.21,8.21,0,0,0,.55,16.41c.17,0,.33,0,.49,0l1.38,6.7a2.3,2.3,0,1,0,2.29-.47l-1.38-6.7a8.21,8.21,0,0,0-1-15.74l1.3-17.12a13.51,13.51,0,0,0,6.27-1.61l8.18,12.51a8.21,8.21,0,0,0,3.59,14.17l-.46,5.65a4.38,4.38,0,1,0,2.33.2l.46-5.67a8.19,8.19,0,0,0,6.68-4.2l7.11,2.7a2.29,2.29,0,1,0,2.25-2.68,2.24,2.24,0,0,0-1.41.5l-7.12-2.71a8.2,8.2,0,0,0-11.47-9.24L119,92.8a13.42,13.42,0,0,0,3.8-4.71l14.68,5.66a8.48,8.48,0,0,0-.21,1.83,8.22,8.22,0,1,0,1-4l-14.67-5.66a13.67,13.67,0,0,0,.54-3.76,13.38,13.38,0,0,0-.31-2.85l16.48-5.09a8.2,8.2,0,0,0,14.27,1l6.23,3a4.53,4.53,0,0,0-.07.74,4.36,4.36,0,1,0,4.36-4.36Z"/><path class="cls-1" d="M26.37,224.09v-.2c0-2.55,1.33-4,3.5-4s3.48,1.44,3.48,4.07v.19c0,2.53-1.33,4.05-3.5,4.05S26.37,226.71,26.37,224.09Zm6.14.14v-.32c0-2.09-.81-3.4-2.67-3.41s-2.63,1.29-2.63,3.25v.32c0,2.09.82,3.42,2.65,3.42S32.51,226.18,32.51,224.23Z"/><path class="cls-1" d="M35,220H36l4.15,6.74h0V220h.72V228H40l-4.27-7h0v7H35Z"/><path class="cls-1" d="M44.82,220.63H42.28V220h5.87v.66H45.6V228h-.78Z"/><path class="cls-1" d="M49.12,224.09v-.2c0-2.55,1.33-4,3.5-4s3.48,1.44,3.48,4.07v.19c0,2.53-1.33,4.05-3.5,4.05S49.12,226.71,49.12,224.09Zm6.14.14v-.32c0-2.09-.81-3.4-2.67-3.41-1.7,0-2.63,1.29-2.63,3.25v.32c0,2.09.82,3.42,2.65,3.42S55.26,226.18,55.26,224.23Z"/><path class="cls-1" d="M57.77,220h.77v7.39h3.78V228H57.77Z"/><path class="cls-1" d="M63.4,224.09v-.2c0-2.55,1.33-4,3.5-4s3.48,1.44,3.48,4.07v.19c0,2.53-1.33,4.05-3.5,4.05S63.4,226.71,63.4,224.09Zm6.14.14v-.32c0-2.09-.81-3.4-2.67-3.41-1.7,0-2.63,1.29-2.63,3.25v.32c0,2.09.82,3.42,2.65,3.42S69.54,226.18,69.54,224.23Z"/><path class="cls-1" d="M71.6,224.13v-.19c0-2.93,1.64-4.1,3.73-4.1a4.19,4.19,0,0,1,2.07.47V221a4.59,4.59,0,0,0-2.12-.46c-2,0-2.84,1.45-2.84,3.31v.29c0,2,.67,3.35,2.86,3.35a5.1,5.1,0,0,0,1.63-.24v-2.37H75.15v-.64H77.7v3.49a6.74,6.74,0,0,1-2.41.44C73,228.15,71.6,226.86,71.6,224.13Z"/><path class="cls-1" d="M81.5,224.79,78.82,220h.82l2.26,4.09h0L84.17,220h.77l-2.68,4.82V228H81.5Z"/><path class="cls-1" d="M89.46,220h2.28c2.5,0,3.83,1.24,3.83,3.85V224c0,2.58-1.2,4-3.8,4H89.46Zm2.32,7.38c2,0,3-1,3-3.23v-.3c0-2.33-1.06-3.18-3-3.18H90.23v6.71Z"/><path class="cls-1" d="M97.24,220H102v.66H98v2.92h3v.67H98v3.14h4V228H97.24Z"/><path class="cls-1" d="M103,220h.82l2.52,7h0l2.52-7h.74l-3,8.05h-.72Z"/><path class="cls-1" d="M110.94,220h4.73v.66h-4v2.92h3.05v.67h-3.05v3.14h4V228h-4.77Z"/><path class="cls-1" d="M117.48,220h.77v7.39H122V228h-4.55Z"/><path class="cls-1" d="M123.11,224.09v-.2c0-2.55,1.33-4,3.51-4s3.47,1.44,3.47,4.07v.19c0,2.53-1.33,4.05-3.5,4.05S123.11,226.71,123.11,224.09Zm6.14.14v-.32c0-2.09-.81-3.4-2.67-3.41-1.7,0-2.63,1.29-2.63,3.25v.32c0,2.09.82,3.42,2.65,3.42S129.25,226.18,129.25,224.23Z"/><path class="cls-1" d="M131.76,220h2.34c1.86,0,2.68.87,2.68,2.34a2.27,2.27,0,0,1-2.56,2.39h-1.68V228h-.78Zm2.3,4.08c1.34,0,1.88-.56,1.88-1.68s-.47-1.74-1.92-1.74h-1.48v3.42Z"/><path class="cls-1" d="M138.3,220h1.17l2.49,7h0l2.49-7h1.16V228h-.78v-7h0l-2.53,7h-.73l-2.53-7h0v7h-.72Z"/><path class="cls-1" d="M147.78,220h4.73v.66h-4v2.92h3v.67h-3v3.14h4V228h-4.77Z"/><path class="cls-1" d="M154.32,220h.94l4.15,6.74h0V220h.72V228h-.81l-4.27-7h0v7h-.72Z"/><path class="cls-1" d="M164.13,220.63h-2.55V220h5.87v.66h-2.54V228h-.78Z"/><path class="cls-1" d="M172.1,220h.76V228h-.76Zm1,3.95,3.43-3.95h.89l-3.4,3.91,3.54,4.14h-1Z"/><path class="cls-1" d="M178.86,220h.78V228h-.78Z"/><path class="cls-1" d="M183.65,220.63h-2.54V220H187v.66h-2.54V228h-.78Z"/></svg>