<svg id="Layer_1" data-name="Layer 1" xmlns="http://www.w3.org/2000/svg" viewBox="0 0 373.67 155"><defs><style>.cls-1{fill:#fff;}</style></defs><path class="cls-1" d="M86.61,30.85l-4-16.63h-.06c-1.1-.14-2.21-.26-3.32-.35s-2.24-.15-3.37-.18-2.25,0-3.39,0c-.83,0-1.66.07-2.49.12L64.51,29.94c-.22,0-.44.11-.66.15l0,.1c-1.58.31-3.13.68-4.65,1.13s-3,1-4.46,1.53L41.82,21.91c-.59.32-1.17.64-1.75,1-1,.56-1.9,1.13-2.82,1.74s-1.84,1.23-2.73,1.88-1.77,1.31-2.63,2l-.73.6L36,45.31c-.14.16-.27.33-.42.48v0c-1.11,1.18-2.16,2.42-3.16,3.69s-1.95,2.59-2.84,4h-.06s0,0,0,0l-16.83-1c-.3.62-.61,1.22-.9,1.85-.46,1-.88,2-1.29,3.07-.28.69-.53,1.39-.79,2.09-.12.35-.27.69-.39,1.05-.35,1-.69,2.1-1,3.16-.1.34-.17.69-.27,1L21.47,74.83a54.43,54.43,0,0,0-.56,10.74L6.55,94.82c.09.52.16,1,.26,1.55.2,1.08.44,2.16.7,3.23s.54,2.14.85,3.2.65,2.11,1,3.16c.15.41.32.82.47,1.23h0l16.68.08s0,0,0,0h.14a52,52,0,0,0,5.88,9l-6.39,15.94c.61.59,1.21,1.18,1.83,1.74.85.76,1.71,1.49,2.58,2.2s1.78,1.41,2.68,2.06,1.63,1.15,2.46,1.7l13.68-9.92c.14.07.29.12.43.18l.1-.06c1.22.59,2.47,1.1,3.73,1.59a19.94,19.94,0,0,1,9.28-28.87A22.88,22.88,0,0,1,79.63,60.56,19.93,19.93,0,0,1,91.16,32.75l.16-.41Q89,31.49,86.61,30.85Z"/><path class="cls-1" d="M128.1,75a4.34,4.34,0,0,0-3.28,1.51l-6.24-3a8,8,0,0,0,.37-2.42,8.19,8.19,0,0,0-2.5-5.89l3.73-5.14a3.38,3.38,0,0,0,.63.07,2.93,2.93,0,1,0-2.93-2.93,2.9,2.9,0,0,0,.42,1.48l-3.74,5.15a8.11,8.11,0,0,0-3.83-1,8.21,8.21,0,0,0-8.21,8.21,7.71,7.71,0,0,0,.11,1.28L86.14,77.54a13.57,13.57,0,0,0-3.38-4.86L93.45,58.83A8.22,8.22,0,1,0,91.6,57.4L80.91,71.25A13.54,13.54,0,1,0,71.4,96l-1.3,17.14a8.21,8.21,0,0,0,.56,16.41l.49,0,1.37,6.7a2.29,2.29,0,1,0,3.55.58,2.21,2.21,0,0,0-1.26-1L73.44,129a8.2,8.2,0,0,0-1-15.73l1.3-17.13A13.5,13.5,0,0,0,80,94.57l8.18,12.52a8.2,8.2,0,0,0,3.6,14.16l-.47,5.65a4.38,4.38,0,1,0,2.33.2l.47-5.67a8.22,8.22,0,0,0,6.68-4.2l7.1,2.71a2.29,2.29,0,1,0,2.25-2.69,2.33,2.33,0,0,0-1.41.5l-7.11-2.7a8.22,8.22,0,0,0-8-10,8,8,0,0,0-3.47.78L82,93.29a13.6,13.6,0,0,0,3.8-4.71l14.68,5.65a8.48,8.48,0,0,0-.21,1.83,8.22,8.22,0,1,0,1-4L86.6,86.4a13.78,13.78,0,0,0,.54-3.76,13.47,13.47,0,0,0-.31-2.86l16.48-5.08a8.21,8.21,0,0,0,14.27,1l6.24,2.94a3.65,3.65,0,0,0-.08.74A4.36,4.36,0,1,0,128.1,75Z"/><path class="cls-1" d="M183.43,79.42V65.83c0-14,5-18.53,15.72-18.53s15.72,4.17,15.72,18.78V79.42c0,13.77-5,18.61-15.72,18.61S183.43,93.87,183.43,79.42Zm27.19-.17V66.08c0-10.7-1.7-14.78-11.47-14.78-9.18,0-11.47,4.16-11.47,14.61V79.08c0,10.71,1.7,15,11.47,15C208.33,94.12,210.62,89.7,210.62,79.25Z"/><path class="cls-1" d="M232.12,79.76V63.7c0-11.72,5.86-16.57,15.71-16.57,5.19,0,8.76,1.28,11.48,4.42V28.44h4.24v69h-3.73L259.39,92c-2.38,3.48-6.2,5.69-12.32,5.69C236.62,97.69,232.12,92.76,232.12,79.76ZM247.49,93.7c8.67-.17,11.82-4.85,11.82-12.92V64.38C259.39,55,257,51,247.83,51s-11.47,4.51-11.47,12.83V79.68C236.36,90.81,240,93.7,247.49,93.7Z"/><path class="cls-1" d="M292.27,72.71H287.6V97.44h-4.42V31.84h4.33V68.29h4.68l15.89-21.16h5.1L295.76,70.5,315.3,97.44H310Z"/><path class="cls-1" d="M146.34,120.11v-.25c0-3.34,1.74-5.3,4.57-5.3s4.55,1.88,4.55,5.31v.25c0,3.31-1.74,5.3-4.58,5.3S146.34,123.54,146.34,120.11Zm8,.18v-.42c0-2.73-1.06-4.44-3.49-4.45-2.23,0-3.44,1.69-3.44,4.25v.42c0,2.73,1.07,4.47,3.47,4.47S154.36,122.85,154.36,120.29Z"/><path class="cls-1" d="M157.64,114.73h1.23l5.42,8.81h0v-8.81h.94v10.52H164.2l-5.58-9.12h0v9.12h-1Z"/><path class="cls-1" d="M170.46,115.59h-3.32v-.86h7.66v.86h-3.32v9.66h-1Z"/><path class="cls-1" d="M176.08,120.11v-.25c0-3.34,1.74-5.3,4.57-5.3s4.55,1.88,4.55,5.31v.25c0,3.31-1.74,5.3-4.58,5.3S176.08,123.54,176.08,120.11Zm8,.18v-.42c0-2.73-1.06-4.44-3.49-4.45-2.23,0-3.44,1.69-3.44,4.25v.42c0,2.73,1.07,4.47,3.47,4.47S184.1,122.85,184.1,120.29Z"/><path class="cls-1" d="M187.39,114.73h1v9.66h4.94v.86h-5.94Z"/><path class="cls-1" d="M194.74,120.11v-.25c0-3.34,1.74-5.3,4.58-5.3s4.55,1.88,4.55,5.31v.25c0,3.31-1.74,5.3-4.58,5.3S194.74,123.54,194.74,120.11Zm8,.18v-.42c0-2.73-1.07-4.44-3.5-4.45-2.22,0-3.43,1.69-3.43,4.25v.42c0,2.73,1.07,4.47,3.47,4.47S202.77,122.85,202.77,120.29Z"/><path class="cls-1" d="M205.46,120.17v-.25c0-3.83,2.14-5.36,4.87-5.36a5.58,5.58,0,0,1,2.72.61v.88a6,6,0,0,0-2.78-.6c-2.67,0-3.72,1.9-3.72,4.33v.37c0,2.64.88,4.38,3.75,4.38a6.56,6.56,0,0,0,2.13-.31v-3.09H210.1v-.85h3.34v4.56a8.68,8.68,0,0,1-3.15.58C207.28,125.42,205.46,123.73,205.46,120.17Z"/><path class="cls-1" d="M218.4,121l-3.5-6.3H216l3,5.35h0l2.93-5.35h1l-3.5,6.3v4.22h-1Z"/><path class="cls-1" d="M228.81,114.73h3c3.26,0,5,1.61,5,5V120c0,3.37-1.56,5.24-5,5.24h-3Zm3,9.64c2.65,0,3.86-1.28,3.86-4.22v-.39c0-3-1.38-4.15-4-4.15h-1.89v8.76Z"/><path class="cls-1" d="M239,114.73h6.18v.86H240v3.81h4v.88h-4v4.11h5.22v.86H239Z"/><path class="cls-1" d="M246.51,114.73h1.06l3.3,9.14h0l3.29-9.14h1l-3.86,10.52h-.94Z"/><path class="cls-1" d="M256.89,114.73h6.18v.86H257.9v3.81h4v.88h-4v4.11h5.22v.86h-6.23Z"/><path class="cls-1" d="M265.44,114.73h1v9.66h4.94v.86h-5.94Z"/><path class="cls-1" d="M272.8,120.11v-.25c0-3.34,1.74-5.3,4.58-5.3s4.54,1.88,4.54,5.31v.25c0,3.31-1.74,5.3-4.57,5.3S272.8,123.54,272.8,120.11Zm8,.18v-.42c0-2.73-1.07-4.44-3.5-4.45-2.23,0-3.43,1.69-3.43,4.25v.42c0,2.73,1.06,4.47,3.46,4.47S280.83,122.85,280.83,120.29Z"/><path class="cls-1" d="M284.11,114.73h3.06c2.43,0,3.49,1.13,3.49,3.06s-1.28,3.12-3.34,3.12h-2.19v4.34h-1Zm3,5.33c1.76,0,2.46-.74,2.46-2.19s-.61-2.28-2.5-2.28h-1.93v4.47Z"/><path class="cls-1" d="M292.66,114.73h1.52l3.26,9.16h.05l3.26-9.16h1.5v10.52h-1v-9.2h0l-3.31,9.2h-.95l-3.31-9.2h0v9.2h-.94Z"/><path class="cls-1" d="M305.05,114.73h6.18v.86h-5.18v3.81h4v.88h-4v4.11h5.22v.86h-6.22Z"/><path class="cls-1" d="M313.6,114.73h1.22l5.43,8.81h0v-8.81h.94v10.52h-1.07l-5.58-9.12h0v9.12h-.94Z"/><path class="cls-1" d="M326.41,115.59h-3.32v-.86h7.67v.86h-3.33v9.66h-1Z"/><path class="cls-1" d="M336.83,114.73h1v10.52h-1Zm1.3,5.16,4.48-5.16h1.17l-4.44,5.11,4.62,5.41h-1.27Z"/><path class="cls-1" d="M345.68,114.73h1v10.52h-1Z"/><path class="cls-1" d="M351.93,115.59h-3.32v-.86h7.67v.86H353v9.66h-1Z"/></svg>