<svg id="Layer_1" data-name="Layer 1" xmlns="http://www.w3.org/2000/svg" viewBox="0 0 373.67 155"><defs><style>.cls-1{fill:#828385;}</style></defs><path class="cls-1" d="M86.61,26.53l-4-16.64h-.06c-1.1-.14-2.21-.26-3.32-.35S77,9.39,75.86,9.36s-2.25,0-3.39,0q-1.25,0-2.49.12L64.51,25.62c-.22,0-.44.1-.66.15l0,.1c-1.58.31-3.13.68-4.65,1.12s-3,1-4.46,1.53L41.82,17.59c-.59.32-1.17.63-1.75,1-1,.56-1.9,1.14-2.82,1.74s-1.84,1.23-2.73,1.88-1.77,1.31-2.63,2c-.25.19-.49.39-.73.59L36,41c-.14.15-.27.32-.42.48v0c-1.11,1.18-2.16,2.42-3.16,3.7s-1.95,2.59-2.84,3.95h-.06l0,0-16.83-1c-.3.61-.61,1.22-.9,1.85-.46,1-.88,2-1.29,3.06-.28.69-.53,1.39-.79,2.09-.12.35-.27.7-.39,1-.35,1.05-.69,2.1-1,3.17-.1.33-.17.68-.27,1L21.47,70.51a54.29,54.29,0,0,0-.56,10.73L6.55,90.49c.09.52.16,1,.26,1.55.2,1.08.44,2.16.7,3.23s.54,2.14.85,3.2.65,2.12,1,3.16c.15.42.32.83.47,1.24h0l16.68.08s0,0,0,0h.14a51.6,51.6,0,0,0,5.88,9L26.17,128c.61.59,1.21,1.18,1.83,1.74.85.76,1.71,1.49,2.58,2.2s1.78,1.41,2.68,2.07,1.63,1.14,2.46,1.69l13.68-9.91c.14.07.29.11.43.18l.1-.07c1.22.59,2.47,1.11,3.73,1.59a19.94,19.94,0,0,1,9.28-28.87A22.89,22.89,0,0,1,73.59,55.41a23.17,23.17,0,0,1,6,.82,19.92,19.92,0,0,1,11.53-27.8l.16-.42A47.65,47.65,0,0,0,86.61,26.53Z"/><path class="cls-1" d="M128.1,70.71a4.35,4.35,0,0,0-3.28,1.52l-6.24-3A8.16,8.16,0,0,0,116.45,61l3.73-5.15a2.7,2.7,0,0,0,.63.07A2.93,2.93,0,1,0,117.88,53a2.84,2.84,0,0,0,.42,1.48l-3.74,5.15a8.21,8.21,0,0,0-12,7.27,7.59,7.59,0,0,0,.11,1.27L86.14,73.22a13.6,13.6,0,0,0-3.38-4.87L93.45,54.5a8.22,8.22,0,1,0-1.85-1.43L80.91,66.92A13.54,13.54,0,1,0,71.4,91.67l-1.3,17.14a8.21,8.21,0,0,0,.56,16.4l.49,0,1.37,6.7a2.31,2.31,0,1,0,2.29-.47l-1.37-6.7a8.21,8.21,0,0,0-1-15.74l1.3-17.13A13.5,13.5,0,0,0,80,90.25l8.18,12.51a8.2,8.2,0,0,0,3.6,14.16l-.47,5.65a4.38,4.38,0,1,0,2.33.2l.47-5.66a8.23,8.23,0,0,0,6.68-4.21l7.1,2.71a2.29,2.29,0,1,0,2.25-2.68,2.26,2.26,0,0,0-1.41.5l-7.11-2.71a8.2,8.2,0,0,0-11.48-9.24L82,89a13.6,13.6,0,0,0,3.8-4.71l14.68,5.66a8.48,8.48,0,0,0-.21,1.83,8.22,8.22,0,1,0,1-4L86.6,82.07a13.67,13.67,0,0,0,.54-3.76,13.47,13.47,0,0,0-.31-2.86l16.48-5.08a8.21,8.21,0,0,0,14.27,1l6.24,3a3.55,3.55,0,0,0-.08.73,4.36,4.36,0,1,0,4.36-4.36Z"/><path class="cls-1" d="M183.43,75.1V61.5c0-14,5-18.52,15.72-18.52s15.72,4.16,15.72,18.77V75.1c0,13.76-5,18.6-15.72,18.6S183.43,89.54,183.43,75.1Zm27.19-.17V61.75c0-10.7-1.7-14.78-11.47-14.78-9.18,0-11.47,4.16-11.47,14.61V74.76c0,10.7,1.7,15,11.47,15C208.33,89.8,210.62,85.38,210.62,74.93Z"/><path class="cls-1" d="M232.12,75.44V59.38c0-11.73,5.86-16.57,15.71-16.57,5.19,0,8.76,1.27,11.48,4.41V24.11h4.24v69h-3.73l-.43-5.44c-2.38,3.49-6.2,5.7-12.32,5.7C236.62,93.37,232.12,88.44,232.12,75.44Zm15.37,13.93c8.67-.17,11.82-4.84,11.82-12.91V60.06c.08-9.44-2.3-13.34-11.48-13.34s-11.47,4.5-11.47,12.83v15.8C236.36,86.48,240,89.37,247.49,89.37Z"/><path class="cls-1" d="M292.27,68.38H287.6V93.11h-4.42V27.51h4.33V64h4.68l15.89-21.15h5.1L295.76,66.17,315.3,93.11H310Z"/><path class="cls-1" d="M146.34,115.78v-.25c0-3.34,1.74-5.3,4.57-5.3s4.55,1.88,4.55,5.32v.25c0,3.3-1.74,5.29-4.58,5.29S146.34,119.21,146.34,115.78Zm8,.19v-.42c0-2.73-1.06-4.44-3.49-4.46-2.23,0-3.44,1.7-3.44,4.25v.43c0,2.72,1.07,4.46,3.47,4.46S154.36,118.52,154.36,116Z"/><path class="cls-1" d="M157.64,110.4h1.23l5.42,8.81h0V110.4h.94v10.52H164.2l-5.58-9.12h0v9.12h-1Z"/><path class="cls-1" d="M170.46,111.27h-3.32v-.87h7.66v.87h-3.32v9.65h-1Z"/><path class="cls-1" d="M176.08,115.78v-.25c0-3.34,1.74-5.3,4.57-5.3s4.55,1.88,4.55,5.32v.25c0,3.3-1.74,5.29-4.58,5.29S176.08,119.21,176.08,115.78Zm8,.19v-.42c0-2.73-1.06-4.44-3.49-4.46-2.23,0-3.44,1.7-3.44,4.25v.43c0,2.72,1.07,4.46,3.47,4.46S184.1,118.52,184.1,116Z"/><path class="cls-1" d="M187.39,110.4h1v9.66h4.94v.86h-5.94Z"/><path class="cls-1" d="M194.74,115.78v-.25c0-3.34,1.74-5.3,4.58-5.3s4.55,1.88,4.55,5.32v.25c0,3.3-1.74,5.29-4.58,5.29S194.74,119.21,194.74,115.78Zm8,.19v-.42c0-2.73-1.07-4.44-3.5-4.46-2.22,0-3.43,1.7-3.43,4.25v.43c0,2.72,1.07,4.46,3.47,4.46S202.77,118.52,202.77,116Z"/><path class="cls-1" d="M205.46,115.84v-.25c0-3.82,2.14-5.36,4.87-5.36a5.58,5.58,0,0,1,2.72.61v.88a6.13,6.13,0,0,0-2.78-.6c-2.67,0-3.72,1.9-3.72,4.33v.38c0,2.63.88,4.37,3.75,4.37a6.56,6.56,0,0,0,2.13-.31V116.8H210.1V116h3.34v4.57a8.91,8.91,0,0,1-3.15.57C207.28,121.09,205.46,119.4,205.46,115.84Z"/><path class="cls-1" d="M218.4,116.71l-3.5-6.31H216l3,5.35h0l2.93-5.35h1l-3.5,6.31v4.21h-1Z"/><path class="cls-1" d="M228.81,110.4h3c3.26,0,5,1.62,5,5v.25c0,3.37-1.56,5.23-5,5.23h-3Zm3,9.64c2.65,0,3.86-1.28,3.86-4.21v-.39c0-3-1.38-4.16-4-4.16h-1.89V120Z"/><path class="cls-1" d="M239,110.4h6.18v.87H240v3.8h4V116h-4v4.11h5.22v.86H239Z"/><path class="cls-1" d="M246.51,110.4h1.06l3.3,9.14h0l3.29-9.14h1l-3.86,10.52h-.94Z"/><path class="cls-1" d="M256.89,110.4h6.18v.87H257.9v3.8h4V116h-4v4.11h5.22v.86h-6.23Z"/><path class="cls-1" d="M265.44,110.4h1v9.66h4.94v.86h-5.94Z"/><path class="cls-1" d="M272.8,115.78v-.25c0-3.34,1.74-5.3,4.58-5.3s4.54,1.88,4.54,5.32v.25c0,3.3-1.74,5.29-4.57,5.29S272.8,119.21,272.8,115.78Zm8,.19v-.42c0-2.73-1.07-4.44-3.5-4.46-2.23,0-3.43,1.7-3.43,4.25v.43c0,2.72,1.06,4.46,3.46,4.46S280.83,118.52,280.83,116Z"/><path class="cls-1" d="M284.11,110.4h3.06c2.43,0,3.49,1.13,3.49,3.06s-1.28,3.12-3.34,3.12h-2.19v4.34h-1Zm3,5.33c1.76,0,2.46-.73,2.46-2.19s-.61-2.27-2.5-2.27h-1.93v4.46Z"/><path class="cls-1" d="M292.66,110.4h1.52l3.26,9.16h.05l3.26-9.16h1.5v10.52h-1v-9.2h0l-3.31,9.2h-.95l-3.31-9.2h0v9.2h-.94Z"/><path class="cls-1" d="M305.05,110.4h6.18v.87h-5.18v3.8h4V116h-4v4.11h5.22v.86h-6.22Z"/><path class="cls-1" d="M313.6,110.4h1.22l5.43,8.81h0V110.4h.94v10.52h-1.07l-5.58-9.12h0v9.12h-.94Z"/><path class="cls-1" d="M326.41,111.27h-3.32v-.87h7.67v.87h-3.33v9.65h-1Z"/><path class="cls-1" d="M336.83,110.4h1v10.52h-1Zm1.3,5.16,4.48-5.16h1.17l-4.44,5.11,4.62,5.41h-1.27Z"/><path class="cls-1" d="M345.68,110.4h1v10.52h-1Z"/><path class="cls-1" d="M351.93,111.27h-3.32v-.87h7.67v.87H353v9.65h-1Z"/></svg>