<svg id="Layer_1" data-name="Layer 1" xmlns="http://www.w3.org/2000/svg" viewBox="0 0 220.47 241.33"><defs><style>.cls-1{fill:#231f20;}.cls-2{fill:#010101;}</style></defs><path class="cls-1" d="M54.75,187.11v-10.4c0-10.72,3.83-14.17,12-14.17s12,3.19,12,14.37v10.2c0,10.53-3.84,14.24-12,14.24S54.75,198.16,54.75,187.11Zm20.8-.13V176.91c0-8.19-1.3-11.31-8.78-11.31-7,0-8.77,3.18-8.77,11.18v10.07c0,8.19,1.3,11.51,8.77,11.51C73.79,198.36,75.55,195,75.55,187Z"/><path class="cls-1" d="M92,187.37V175.09c0-9,4.49-12.68,12-12.68,4,0,6.69,1,8.77,3.38V148.11H116v52.78h-2.86l-.32-4.16c-1.82,2.67-4.75,4.36-9.43,4.36C95.44,201.09,92,197.32,92,187.37ZM103.76,198c6.63-.13,9-3.7,9-9.88V175.61c.07-7.22-1.75-10.21-8.77-10.21s-8.78,3.45-8.78,9.82v12.09C95.24,195.82,98,198,103.76,198Z"/><path class="cls-1" d="M138,182h-3.57v18.91h-3.38V150.71h3.31V178.6H138l12.15-16.19H154l-13.32,17.88,14.95,20.6h-4Z"/><path class="cls-2" d="M123.69,24.52l-4-16.63h-.06c-1.1-.14-2.21-.26-3.32-.35s-2.24-.15-3.37-.18-2.25,0-3.39,0c-.83,0-1.66.07-2.49.12l-5.47,16.14c-.22,0-.44.11-.66.15l0,.1c-1.57.31-3.12.68-4.64,1.13s-3,1-4.46,1.53L78.9,15.58c-.59.32-1.17.64-1.75,1-1,.56-1.9,1.13-2.82,1.74s-1.84,1.23-2.73,1.88-1.78,1.31-2.63,2l-.73.6L73.09,39c-.15.16-.27.33-.42.48v0c-1.11,1.18-2.16,2.42-3.17,3.69s-1.94,2.59-2.83,4h-.06l0,0-16.83-1c-.3.62-.62,1.23-.9,1.85-.46,1-.88,2-1.3,3.07-.27.69-.52,1.39-.78,2.09-.13.35-.27.69-.39,1-.36,1.05-.69,2.1-1,3.16-.1.34-.17.69-.27,1L58.54,68.5A55.2,55.2,0,0,0,58,79.24L43.63,88.49c.08.52.16,1,.26,1.55.2,1.08.44,2.16.7,3.23s.54,2.14.85,3.2.65,2.11,1,3.16c.15.41.32.82.47,1.23h0l16.67.08,0,0h.14a52,52,0,0,0,5.88,9L63.25,126c.61.59,1.21,1.18,1.83,1.74.85.76,1.71,1.49,2.58,2.2s1.78,1.41,2.68,2.06,1.63,1.15,2.46,1.7l13.68-9.92c.14.07.29.12.43.18l.1-.06c1.22.59,2.47,1.1,3.73,1.59A19.92,19.92,0,0,1,100,96.57a22.88,22.88,0,0,1,16.69-42.34,19.76,19.76,0,0,1-2.11-8.88,20,20,0,0,1,13.64-18.93l.15-.41C126.86,25.44,125.28,24.94,123.69,24.52Z"/><path class="cls-2" d="M165.18,68.71a4.32,4.32,0,0,0-3.28,1.51l-6.24-3a8,8,0,0,0,.36-2.42A8.18,8.18,0,0,0,153.53,59l3.73-5.14a3.2,3.2,0,0,0,.63.07A2.93,2.93,0,1,0,155,51a3,3,0,0,0,.41,1.48l-3.73,5.15a8.22,8.22,0,0,0-12,7.26,9,9,0,0,0,.11,1.28l-16.48,5.08a13.59,13.59,0,0,0-3.39-4.86l10.7-13.85a8.22,8.22,0,1,0-1.85-1.43L118,64.92a13.54,13.54,0,1,0-9.51,24.74l-1.3,17.15a8.21,8.21,0,0,0,.55,16.4c.17,0,.33,0,.49,0l1.38,6.7a2.29,2.29,0,1,0,3.54.58,2.19,2.19,0,0,0-1.25-1l-1.38-6.71a8.2,8.2,0,0,0-1-15.73l1.3-17.13a13.51,13.51,0,0,0,6.27-1.61l8.18,12.52a8.2,8.2,0,0,0,3.59,14.16l-.46,5.65a4.38,4.38,0,1,0,2.33.2l.46-5.67a8.19,8.19,0,0,0,6.68-4.2l7.11,2.71a2.29,2.29,0,1,0,2.25-2.69,2.25,2.25,0,0,0-1.41.51l-7.12-2.71a8.18,8.18,0,0,0-8-10,8,8,0,0,0-3.46.78L119,87a13.6,13.6,0,0,0,3.8-4.71l14.68,5.65a8.48,8.48,0,0,0-.21,1.83,8.22,8.22,0,1,0,1-4l-14.67-5.65a13.78,13.78,0,0,0,.54-3.76,13.47,13.47,0,0,0-.31-2.86l16.48-5.08a8.21,8.21,0,0,0,14.27,1l6.23,2.94a4.53,4.53,0,0,0-.07.74,4.36,4.36,0,1,0,4.36-4.36Z"/><path class="cls-1" d="M26.37,218.24V218c0-2.55,1.33-4,3.5-4s3.48,1.44,3.48,4.07v.19c0,2.53-1.33,4.05-3.5,4.05S26.37,220.86,26.37,218.24Zm6.14.14v-.32c0-2.09-.81-3.4-2.67-3.41s-2.63,1.3-2.63,3.25v.33c0,2.08.82,3.41,2.65,3.41S32.51,220.34,32.51,218.38Z"/><path class="cls-1" d="M35,214.12H36l4.15,6.74h0v-6.74h.72v8H40l-4.27-7h0v7H35Z"/><path class="cls-1" d="M44.82,214.78H42.28v-.66h5.87v.66H45.6v7.39h-.78Z"/><path class="cls-1" d="M49.12,218.24V218c0-2.55,1.33-4,3.5-4s3.48,1.44,3.48,4.07v.19c0,2.53-1.33,4.05-3.5,4.05S49.12,220.86,49.12,218.24Zm6.14.14v-.32c0-2.09-.81-3.4-2.67-3.41-1.7,0-2.63,1.3-2.63,3.25v.33c0,2.08.82,3.41,2.65,3.41S55.26,220.34,55.26,218.38Z"/><path class="cls-1" d="M57.77,214.12h.77v7.39h3.78v.66H57.77Z"/><path class="cls-1" d="M63.4,218.24V218c0-2.55,1.33-4,3.5-4s3.48,1.44,3.48,4.07v.19c0,2.53-1.33,4.05-3.5,4.05S63.4,220.86,63.4,218.24Zm6.14.14v-.32c0-2.09-.81-3.4-2.67-3.41-1.7,0-2.63,1.3-2.63,3.25v.33c0,2.08.82,3.41,2.65,3.41S69.54,220.34,69.54,218.38Z"/><path class="cls-1" d="M71.6,218.29v-.2c0-2.92,1.64-4.1,3.73-4.1a4.19,4.19,0,0,1,2.07.47v.67a4.72,4.72,0,0,0-2.12-.46c-2,0-2.84,1.46-2.84,3.32v.28c0,2,.67,3.35,2.86,3.35a4.83,4.83,0,0,0,1.63-.24V219H75.15v-.65H77.7v3.49a6.74,6.74,0,0,1-2.41.44C73,222.3,71.6,221,71.6,218.29Z"/><path class="cls-1" d="M81.5,219l-2.68-4.83h.82l2.26,4.09h0l2.24-4.09h.77L82.26,219v3.22H81.5Z"/><path class="cls-1" d="M89.46,214.12h2.28c2.5,0,3.83,1.24,3.83,3.85v.2c0,2.57-1.2,4-3.8,4H89.46Zm2.32,7.38c2,0,3-1,3-3.23V218c0-2.32-1.06-3.18-3-3.18H90.23v6.71Z"/><path class="cls-1" d="M97.24,214.12H102v.66H98v2.92h3v.67H98v3.14h4v.66H97.24Z"/><path class="cls-1" d="M103,214.12h.82l2.52,7h0l2.52-7h.74l-3,8h-.72Z"/><path class="cls-1" d="M110.94,214.12h4.73v.66h-4v2.92h3.05v.67h-3.05v3.14h4v.66h-4.77Z"/><path class="cls-1" d="M117.48,214.12h.77v7.39H122v.66h-4.55Z"/><path class="cls-1" d="M123.11,218.24V218c0-2.55,1.33-4,3.51-4s3.47,1.44,3.47,4.07v.19c0,2.53-1.33,4.05-3.5,4.05S123.11,220.86,123.11,218.24Zm6.14.14v-.32c0-2.09-.81-3.4-2.67-3.41-1.7,0-2.63,1.3-2.63,3.25v.33c0,2.08.82,3.41,2.65,3.41S129.25,220.34,129.25,218.38Z"/><path class="cls-1" d="M131.76,214.12h2.34c1.86,0,2.68.87,2.68,2.34a2.27,2.27,0,0,1-2.56,2.39h-1.68v3.32h-.78Zm2.3,4.08c1.34,0,1.88-.56,1.88-1.68s-.47-1.74-1.92-1.74h-1.48v3.42Z"/><path class="cls-1" d="M138.3,214.12h1.17l2.49,7h0l2.49-7h1.16v8h-.78v-7h0l-2.53,7h-.73l-2.53-7h0v7h-.72Z"/><path class="cls-1" d="M147.78,214.12h4.73v.66h-4v2.92h3v.67h-3v3.14h4v.66h-4.77Z"/><path class="cls-1" d="M154.32,214.12h.94l4.15,6.74h0v-6.74h.72v8h-.81l-4.27-7h0v7h-.72Z"/><path class="cls-1" d="M164.13,214.78h-2.55v-.66h5.87v.66h-2.54v7.39h-.78Z"/><path class="cls-1" d="M172.1,214.12h.76v8h-.76Zm1,3.95,3.43-3.95h.89L174,218l3.54,4.14h-1Z"/><path class="cls-1" d="M178.86,214.12h.78v8h-.78Z"/><path class="cls-1" d="M183.65,214.78h-2.54v-.66H187v.66h-2.54v7.39h-.78Z"/></svg>