<?xml version="1.0" encoding="UTF-8"?>
<svg id="Layer_1" data-name="Layer 1" xmlns="http://www.w3.org/2000/svg" viewBox="0 0 206.18 313.56">
  <defs>
    <style>
      .cls-1 {
        fill: #231f20;
      }
    </style>
  </defs>
  <path class="cls-1" d="m155.06,130.94c10.88-12.59,17.49-28.97,17.49-46.87,0-39.57-32.19-71.77-71.76-71.77S29.02,44.5,29.02,84.07v126.35h41.2v-61.44c9.28,4.39,19.64,6.85,30.57,6.85,16.73,0,32.12-5.77,44.34-15.4l-27.35-30.97c-4.86,3.26-10.71,5.17-16.99,5.17-16.86,0-30.57-13.71-30.57-30.57s13.71-30.57,30.57-30.57,30.57,13.71,30.57,30.57c0,5.58-1.53,10.81-4.15,15.31l27.86,31.56Z"/>
  <g>
    <path class="cls-1" d="m86.79,107.4v-33.03h-9.01v24.23c2.28,3.59,5.37,6.61,9.01,8.81Z"/>
    <path class="cls-1" d="m101.07,111.3v-50.3h-9.02v48.85c2.75.93,5.68,1.46,8.73,1.46.09,0,.19-.01.28-.01Z"/>
    <path class="cls-1" d="m114.37,80.05h-9.02v30.85c3.23-.55,6.27-1.66,9.02-3.25v-27.6Z"/>
  </g>
  <g>
    <path class="cls-1" d="m33.98,232.92h10.71c7.65,0,12.73,2.26,12.73,11.75v2.94c0,9.12-3.86,11.81-12.3,11.81h-7.96v20.14h-3.18v-46.64Zm3.18,23.69h8.14c7.04,0,8.94-2.14,8.94-9.12v-2.45c0-8.02-3.49-9.3-9.67-9.3h-7.41v20.87Z"/>
    <path class="cls-1" d="m67.39,232.31v14.87c1.71-2.57,4.9-4.23,9.24-4.23,8.26,0,10.53,4.71,10.53,12.86v23.75h-3v-23.57c0-7.1-1.84-10.28-8.26-10.28-4.96,0-8.51,2.94-8.51,8.45v25.4h-3v-47.25h3Z"/>
    <path class="cls-1" d="m99.89,253.97h16.65v2.82h-16.65v19.95h19.4v2.82h-22.59v-46.64h21.97v2.82h-18.79v18.24Z"/>
    <path class="cls-1" d="m126.15,243.69l9.24,32.32,9.36-32.32h3.37l-10.77,35.87h-3.98l-10.71-35.87h3.49Z"/>
    <path class="cls-1" d="m172.11,279.56l-.12-4.47c-1.9,3.37-5.51,5.2-9.92,5.2-5.94,0-9.98-3.12-9.98-9.98s4.04-10.47,13.34-10.47c1.78,0,4.59.24,6.49.55v-6c0-6.12-2.33-8.75-7.77-8.75-5.08,0-8.14,1.96-8.14,8.51h-2.75c0-7.53,3.31-11.2,10.96-11.2,6.86,0,10.65,3.25,10.65,11.45v25.16h-2.75Zm-.18-16.59c-1.96-.31-4.96-.55-6.67-.55-7.41,0-10.04,2.63-10.04,7.77,0,4.84,2.39,7.47,7.41,7.47s9.3-3.12,9.3-9.55v-5.14Z"/>
    <path class="cls-1" d="m192.67,279.68c-7.65.8-8.94-2.21-8.94-10.1v-37.27h3v37.52c0,6.55.86,7.35,5.94,7.28v2.57Z"/>
  </g>
</svg>