<svg id="Layer_1" data-name="Layer 1" xmlns="http://www.w3.org/2000/svg" viewBox="0 0 2247.7 535.92"><defs><style>.cls-1,.cls-20,.cls-9{fill:#231f20;}.cls-1{opacity:0.21;}.cls-10,.cls-18,.cls-2{fill:#fff;}.cls-17,.cls-3{fill:#a4a3a4;}.cls-4{fill:#0f6577;}.cls-10,.cls-4{opacity:0.51;}.cls-15,.cls-5{fill:#fba91d;}.cls-12,.cls-14,.cls-6{fill:#036b95;}.cls-16,.cls-7{fill:#666766;}.cls-21,.cls-8{fill:#727172;}.cls-11{opacity:0.71;}.cls-12{stroke:#036b95;stroke-miterlimit:10;stroke-width:0.5px;}.cls-13{fill:#020202;}.cls-14,.cls-16,.cls-18,.cls-20{font-size:62.52px;font-family:Kelson-Medium, Kelson;font-weight:500;}.cls-15,.cls-17,.cls-19,.cls-21{letter-spacing:-0.02em;}</style></defs><title>TISLab logo</title><path class="cls-1" d="M1354.05,539.3a101.62,101.62,0,0,0-6.48-16.1h-34.08a104.15,104.15,0,0,0-8.14,22.46,27,27,0,0,0-.83,6.64,3.76,3.76,0,0,0,2.09,3.5,15.05,15.05,0,0,0,5.12,1.51,4.61,4.61,0,0,0,1,0v.08h35.71v0a3.58,3.58,0,0,0,.85,0,13.32,13.32,0,0,0,5.5-1.72,3.71,3.71,0,0,0,1.88-3,18.43,18.43,0,0,0-.16-3A71.78,71.78,0,0,0,1354.05,539.3Z" transform="translate(-36.38 -66.93)"/><circle class="cls-2" cx="1293.72" cy="471.07" r="8.27"/><circle class="cls-3" cx="1293.87" cy="470.85" r="4.28"/><path class="cls-3" d="M1330.25,549.29a11.51,11.51,0,1,1,11.5-11.5A11.52,11.52,0,0,1,1330.25,549.29Zm0-19.47a8,8,0,1,0,8,8A8,8,0,0,0,1330.25,529.82Z" transform="translate(-36.38 -66.93)"/><path class="cls-3" d="M1424,466a22.52,22.52,0,0,0-9.6-2.6,3.12,3.12,0,0,1-2.07-.8,8.45,8.45,0,0,0-3.94-2.33h-1.63l-.89.28a5.91,5.91,0,0,0-4.5,6.57,6.09,6.09,0,0,0,9.7,4.31,6.26,6.26,0,0,0,.78-.67,3.43,3.43,0,0,1,3.21-1.07,17.56,17.56,0,0,1,6,1.75,4.38,4.38,0,0,1,2.43,4.08,31.5,31.5,0,0,1-1,7.74,127.61,127.61,0,0,1-12,31,14.5,14.5,0,0,1-.94,1.5,1.31,1.31,0,0,1-1.16.61,1.81,1.81,0,0,0-1.11.81c-1.07,1.5-2,3.08-3.12,4.57a31.25,31.25,0,0,1-7.15,7.41c-3,2.09-4.95,2.06-8,0a30.14,30.14,0,0,1-6.68-6.94c-1.19-1.59-2.27-3.27-3.38-4.93-.37-.55-.71-1.05-1.52-.89-.19,0-.5-.18-.66-.36a5.73,5.73,0,0,1-.68-1.05,131.77,131.77,0,0,1-10.42-24.34,82.47,82.47,0,0,1-2.84-12,21.07,21.07,0,0,1-.18-3.46,4.33,4.33,0,0,1,2.18-3.49c1.94-1.31,4.17-1.61,6.41-2a3.4,3.4,0,0,1,3.28,1.19,5.6,5.6,0,0,0,6.49,1.36,6.68,6.68,0,0,0,3.94-6.17,6.24,6.24,0,0,0-4.93-5.65,3.12,3.12,0,0,1-.39-.15H1378a2.73,2.73,0,0,1-.31.14,6.84,6.84,0,0,0-3.59,2.07,2.56,2.56,0,0,1-1.93.9,26.56,26.56,0,0,0-6.73,1.19c-3.57,1.24-6.48,3.26-8.07,6.86a13.89,13.89,0,0,0-.61,7.76,88.1,88.1,0,0,0,3.15,13.4A140.81,140.81,0,0,0,1370,516.77a27.66,27.66,0,0,1,1.17,2.54c.11.28.15.79,0,.94-.46.43-.31.79-.06,1.18,1,1.51,1.9,3.05,2.93,4.51,3.8,5.42,8.12,10.29,14.35,13a.92.92,0,0,1,.39.74q-.06,13.75-.16,27.5h8.85q.07-13.66.12-27.34a1.07,1.07,0,0,1,.75-1.14,24.52,24.52,0,0,0,3.12-1.66,30.81,30.81,0,0,0,7.5-7c2.11-2.69,4-5.54,6-8.33.36-.51.65-1,.08-1.66-.15-.17-.09-.62,0-.9a6.48,6.48,0,0,1,.54-1.13,137.38,137.38,0,0,0,12.28-30.23,43.67,43.67,0,0,0,1.86-12.35A10.33,10.33,0,0,0,1424,466Z" transform="translate(-36.38 -66.93)"/><path class="cls-3" d="M1362,597.21c-19,0-34.53-16.33-34.53-36.4h5.74c0,16.9,12.92,30.65,28.79,30.65s28.79-13.75,28.79-30.65h5.74C1396.55,580.88,1381.06,597.21,1362,597.21Z" transform="translate(-36.38 -66.93)"/><path class="cls-4" d="M96,542a103.55,103.55,0,0,0-6.48-16.1H55.47a104.88,104.88,0,0,0-8.14,22.46,27,27,0,0,0-.82,6.64,3.74,3.74,0,0,0,2.09,3.5A15.05,15.05,0,0,0,53.72,560a4,4,0,0,0,1,0v.08H90.41v-.05a3.58,3.58,0,0,0,.85,0,13.45,13.45,0,0,0,5.5-1.71,3.73,3.73,0,0,0,1.87-3,17.35,17.35,0,0,0-.16-3A70.74,70.74,0,0,0,96,542Z" transform="translate(-36.38 -66.93)"/><circle class="cls-2" cx="35.7" cy="473.78" r="8.27"/><circle class="cls-5" cx="35.86" cy="473.57" r="4.28"/><path class="cls-5" d="M72.23,552a11.51,11.51,0,1,1,11.51-11.5A11.52,11.52,0,0,1,72.23,552Zm0-19.47a8,8,0,1,0,8,8A8,8,0,0,0,72.23,532.53Z" transform="translate(-36.38 -66.93)"/><path class="cls-5" d="M166,468.75a22.44,22.44,0,0,0-9.59-2.6,3.1,3.1,0,0,1-2.07-.8A8.45,8.45,0,0,0,150.4,463h-1.63l-.9.28a5.92,5.92,0,0,0-4.5,6.57,5.68,5.68,0,0,0,3.73,5.05,5.61,5.61,0,0,0,6-.74,5.7,5.7,0,0,0,.79-.67,3.41,3.41,0,0,1,3.2-1.07,17.5,17.5,0,0,1,6,1.75,4.36,4.36,0,0,1,2.43,4.08,31.49,31.49,0,0,1-1,7.74,127.86,127.86,0,0,1-12,31,16.43,16.43,0,0,1-.94,1.5,1.32,1.32,0,0,1-1.16.61,1.81,1.81,0,0,0-1.11.81c-1.07,1.5-2,3.08-3.12,4.57a31.64,31.64,0,0,1-7.15,7.41c-3,2.09-4.95,2.06-8,0a30.14,30.14,0,0,1-6.68-6.94c-1.2-1.59-2.27-3.27-3.39-4.92-.37-.56-.71-1.06-1.52-.9-.19,0-.49-.18-.65-.36a5.25,5.25,0,0,1-.68-1,131.09,131.09,0,0,1-10.42-24.34,82.47,82.47,0,0,1-2.84-12,20,20,0,0,1-.18-3.46,4.31,4.31,0,0,1,2.18-3.49c1.93-1.31,4.17-1.61,6.41-2a3.43,3.43,0,0,1,3.28,1.19A5.59,5.59,0,0,0,123.1,475a6.67,6.67,0,0,0,3.93-6.17,6.23,6.23,0,0,0-4.92-5.65,2.62,2.62,0,0,1-.39-.15h-1.78a1.23,1.23,0,0,1-.31.14,6.88,6.88,0,0,0-3.59,2.07,2.51,2.51,0,0,1-1.92.9,26.56,26.56,0,0,0-6.73,1.19c-3.58,1.24-6.49,3.26-8.07,6.86a13.89,13.89,0,0,0-.61,7.76,89.27,89.27,0,0,0,3.14,13.4A140.85,140.85,0,0,0,112,519.48c.43.83.82,1.68,1.17,2.54.11.28.15.79,0,.94-.46.43-.3.79-.06,1.18,1,1.51,1.9,3.05,2.93,4.51,3.81,5.42,8.12,10.29,14.36,13a.94.94,0,0,1,.39.74q-.06,13.76-.16,27.5h8.85q.08-13.66.12-27.34a1.06,1.06,0,0,1,.75-1.14,22.61,22.61,0,0,0,3.11-1.66,30.68,30.68,0,0,0,7.51-6.95c2.1-2.69,4-5.54,6-8.33.36-.51.64-1,.07-1.66-.15-.17-.08-.62,0-.9a6.07,6.07,0,0,1,.54-1.12,137.17,137.17,0,0,0,12.28-30.24,43.68,43.68,0,0,0,1.87-12.35A10.35,10.35,0,0,0,166,468.75Z" transform="translate(-36.38 -66.93)"/><path class="cls-5" d="M104,599.92c-19.05,0-34.54-16.33-34.54-36.4h5.75c0,16.9,12.91,30.65,28.79,30.65s28.78-13.75,28.78-30.65h5.75C138.54,583.59,123.05,599.92,104,599.92Z" transform="translate(-36.38 -66.93)"/><rect class="cls-5" x="33.1" y="483.3" width="5.74" height="13.29"/><path class="cls-6" d="M109.36,554.18a89.27,89.27,0,0,0-3.14-13.4,139.33,139.33,0,0,0-9.74-23.33s-4.67-9.74-7-14.62a9.89,9.89,0,0,1-.93-4c-.08-7.84,0-15.69,0-23.53V474h3.1a3.35,3.35,0,1,0,0-6.69c-2,0-3.9,0-5.85,0-2.5,0-3.77,1.32-3.77,3.9q0,13.82,0,27.63a15.21,15.21,0,0,0,1.58,6.86c1.87,3.82,6.21,12.36,6.38,12.68a131.38,131.38,0,0,1,10.42,24.34,81.79,81.79,0,0,1,2.84,12,21.07,21.07,0,0,1,.19,3.46,4.33,4.33,0,0,1-2.19,3.49c-1.93,1.31-4.17,1.61-6.41,2a3.39,3.39,0,0,1-1,.05v.07H52.15v-.1a4.85,4.85,0,0,1-1.14,0,17.58,17.58,0,0,1-6-1.76,4.36,4.36,0,0,1-2.43-4.08,31.62,31.62,0,0,1,1-7.74,127.58,127.58,0,0,1,12-31c.28-.52,5-9.57,6.86-13.4a13.76,13.76,0,0,0,1.55-6q0-14.4,0-28.79a3.3,3.3,0,0,0-3.46-3.55c-2,0-4,0-6,0a3.35,3.35,0,1,0,0,6.69h3v1.41c0,7.78,0,15.55,0,23.33a9.1,9.1,0,0,1-.95,4.13q-3.5,7.14-7,14.29h0a137.79,137.79,0,0,0-11.28,28.37,43.7,43.7,0,0,0-1.87,12.36,10.34,10.34,0,0,0,5.69,9.48A22.64,22.64,0,0,0,51.66,570a4.18,4.18,0,0,1,1,.17H93.16A3.35,3.35,0,0,1,94,570a26,26,0,0,0,6.73-1.19c3.58-1.24,6.49-3.26,8.07-6.85A13.94,13.94,0,0,0,109.36,554.18Z" transform="translate(-36.38 -66.93)"/><circle class="cls-6" cx="33.27" cy="449.54" r="5.38"/><path class="cls-6" d="M141.05,501.86a5.38,5.38,0,0,1-10.76,0c0-3,5.38-11.32,5.38-11.32S141.05,498.89,141.05,501.86Z" transform="translate(-36.38 -66.93)"/><circle class="cls-6" cx="38.95" cy="432.87" r="3.98"/><circle class="cls-6" cx="33.64" cy="416.48" r="2.66"/><circle class="cls-6" cx="40.14" cy="404.54" r="2.66"/><circle class="cls-6" cx="36.16" cy="394.81" r="2.66"/><path class="cls-6" d="M138.54,453.45h-5.75c0-16.91-12.91-30.66-28.78-30.66s-28.79,13.75-28.79,30.66H69.47c0-20.07,15.49-36.4,34.54-36.4S138.54,433.38,138.54,453.45Z" transform="translate(-36.38 -66.93)"/><rect class="cls-6" x="96.42" y="386.35" width="5.74" height="32.99"/><rect class="cls-3" x="1291.11" y="480.59" width="5.74" height="13.29"/><path class="cls-7" d="M1367.38,551.47a88.1,88.1,0,0,0-3.15-13.4,138.5,138.5,0,0,0-9.74-23.33s-4.67-9.74-7-14.62a9.72,9.72,0,0,1-.92-4c-.09-7.84,0-15.69,0-23.53v-1.29h3.1a3.35,3.35,0,1,0,0-6.69c-2,0-3.9,0-5.85,0-2.49,0-3.76,1.32-3.76,3.9,0,9.21,0,18.42,0,27.63a15.2,15.2,0,0,0,1.57,6.86c1.88,3.82,6.22,12.36,6.39,12.68A132.06,132.06,0,0,1,1358.33,540a84.42,84.42,0,0,1,2.84,12,21.07,21.07,0,0,1,.18,3.46,4.32,4.32,0,0,1-2.18,3.49c-1.94,1.31-4.17,1.61-6.42,2a3.33,3.33,0,0,1-1,0v.06h-41.61V561a4.85,4.85,0,0,1-1.14,0,17.81,17.81,0,0,1-6-1.76,4.38,4.38,0,0,1-2.43-4.08,31.62,31.62,0,0,1,1-7.74,127.61,127.61,0,0,1,12-31c.27-.52,5-9.57,6.85-13.4a13.63,13.63,0,0,0,1.55-6q0-14.4,0-28.79a3.3,3.3,0,0,0-3.46-3.55c-2,0-4,0-6,0a3.35,3.35,0,1,0,0,6.69h3v1.41c0,7.78,0,15.55,0,23.33a9.09,9.09,0,0,1-.94,4.13q-3.49,7.14-7,14.29h0a138.36,138.36,0,0,0-11.28,28.37,44,44,0,0,0-1.87,12.35,10.36,10.36,0,0,0,5.69,9.49,22.68,22.68,0,0,0,9.6,2.61,4.37,4.37,0,0,1,1,.17h40.53a3.17,3.17,0,0,1,.78-.15,26.13,26.13,0,0,0,6.74-1.19c3.57-1.24,6.48-3.26,8.07-6.86A13.89,13.89,0,0,0,1367.38,551.47Z" transform="translate(-36.38 -66.93)"/><circle class="cls-7" cx="1291.28" cy="446.83" r="5.38"/><path class="cls-7" d="M1399.06,499.15a5.38,5.38,0,1,1-10.76,0c0-3,5.38-11.32,5.38-11.32S1399.06,496.17,1399.06,499.15Z" transform="translate(-36.38 -66.93)"/><circle class="cls-7" cx="1296.96" cy="430.16" r="3.98"/><circle class="cls-7" cx="1291.66" cy="413.77" r="2.66"/><circle class="cls-7" cx="1298.15" cy="401.83" r="2.66"/><circle class="cls-7" cx="1294.17" cy="392.1" r="2.66"/><path class="cls-7" d="M1396.55,450.73h-5.74c0-16.9-12.92-30.65-28.79-30.65s-28.79,13.75-28.79,30.65h-5.74c0-20.06,15.49-36.39,34.53-36.39S1396.55,430.67,1396.55,450.73Z" transform="translate(-36.38 -66.93)"/><rect class="cls-7" x="1354.43" y="383.64" width="5.74" height="32.99"/><path class="cls-1" d="M1952.39,545a103,103,0,0,0-6.47-16.11h-34.09a104.35,104.35,0,0,0-8.14,22.46,26.54,26.54,0,0,0-.82,6.64,3.73,3.73,0,0,0,2.08,3.5,14.82,14.82,0,0,0,5.13,1.51,3.51,3.51,0,0,0,1,0V563h35.71v0a3.58,3.58,0,0,0,.85,0,13.45,13.45,0,0,0,5.51-1.71,3.71,3.71,0,0,0,1.87-3,17.35,17.35,0,0,0-.16-3A69.09,69.09,0,0,0,1952.39,545Z" transform="translate(-36.38 -66.93)"/><circle class="cls-2" cx="1892.06" cy="476.72" r="8.27"/><circle class="cls-8" cx="1892.21" cy="476.5" r="4.28"/><path class="cls-8" d="M1928.59,554.94a11.51,11.51,0,1,1,11.51-11.51A11.52,11.52,0,0,1,1928.59,554.94Zm0-19.48a8,8,0,1,0,8,8A8,8,0,0,0,1928.59,535.46Z" transform="translate(-36.38 -66.93)"/><path class="cls-8" d="M2022.36,471.68a22.62,22.62,0,0,0-9.59-2.6,3,3,0,0,1-2.08-.8,8.49,8.49,0,0,0-3.94-2.33h-1.62l-.9.29a5.91,5.91,0,0,0-4.5,6.57,5.65,5.65,0,0,0,3.73,5,5.59,5.59,0,0,0,6-.74,7.18,7.18,0,0,0,.79-.67,3.44,3.44,0,0,1,3.2-1.07,17.36,17.36,0,0,1,6,1.76,4.34,4.34,0,0,1,2.43,4.07,31.5,31.5,0,0,1-1,7.74,127.28,127.28,0,0,1-12,31.05,15.56,15.56,0,0,1-.93,1.5,1.36,1.36,0,0,1-1.17.6,1.9,1.9,0,0,0-1.1.81c-1.08,1.5-2,3.08-3.13,4.57a31.21,31.21,0,0,1-7.14,7.41c-3,2.09-5,2.06-8,0a29.74,29.74,0,0,1-6.68-6.94c-1.2-1.59-2.28-3.27-3.39-4.92-.37-.55-.71-1.06-1.52-.89a.92.92,0,0,1-.65-.37,6.06,6.06,0,0,1-.69-1,131.63,131.63,0,0,1-10.41-24.34,81.79,81.79,0,0,1-2.84-12,21.07,21.07,0,0,1-.19-3.46,4.32,4.32,0,0,1,2.19-3.49c1.93-1.31,4.17-1.62,6.41-2a3.44,3.44,0,0,1,3.28,1.2,5.59,5.59,0,0,0,6.49,1.36,6.7,6.7,0,0,0,3.93-6.18,6.26,6.26,0,0,0-4.93-5.65,3.12,3.12,0,0,1-.39-.15h-1.77a1.77,1.77,0,0,1-.31.15,6.93,6.93,0,0,0-3.59,2.06,2.55,2.55,0,0,1-1.92.91,25.71,25.71,0,0,0-6.74,1.19c-3.57,1.23-6.48,3.26-8.06,6.85-1.12,2.52-1,5.15-.61,7.77a89.15,89.15,0,0,0,3.14,13.39,141.71,141.71,0,0,0,10.15,24.15,25.41,25.41,0,0,1,1.17,2.54c.12.28.15.79,0,.94-.46.42-.31.78-.06,1.17,1,1.51,1.9,3,2.93,4.52,3.81,5.41,8.12,10.28,14.36,13a1,1,0,0,1,.39.75q-.08,13.74-.16,27.5h8.85q.06-13.68.12-27.35a1.06,1.06,0,0,1,.75-1.13,24.47,24.47,0,0,0,3.11-1.67,30.45,30.45,0,0,0,7.5-7c2.11-2.68,4-5.54,6-8.33.36-.51.64-1,.07-1.66-.15-.16-.09-.61,0-.89a5.86,5.86,0,0,1,.54-1.13,137.29,137.29,0,0,0,12.28-30.23,43.81,43.81,0,0,0,1.87-12.36A10.36,10.36,0,0,0,2022.36,471.68Z" transform="translate(-36.38 -66.93)"/><path class="cls-8" d="M1960.36,602.85c-19,0-34.53-16.33-34.53-36.4h5.74c0,16.91,12.92,30.66,28.79,30.66s28.79-13.75,28.79-30.66h5.75C1994.9,586.52,1979.41,602.85,1960.36,602.85Z" transform="translate(-36.38 -66.93)"/><rect class="cls-8" x="1889.45" y="486.24" width="5.74" height="13.29"/><path class="cls-9" d="M1965.72,557.11a88,88,0,0,0-3.15-13.39,139.74,139.74,0,0,0-9.73-23.34l-7-14.62a9.85,9.85,0,0,1-.93-4c-.09-7.85,0-15.69,0-23.54v-1.28c1.12,0,2.11,0,3.09,0a3.35,3.35,0,1,0,0-6.69h-5.84c-2.5,0-3.77,1.32-3.77,3.89q0,13.81,0,27.63a15.15,15.15,0,0,0,1.58,6.87c1.87,3.82,6.21,12.35,6.38,12.67a131.67,131.67,0,0,1,10.42,24.34,83.09,83.09,0,0,1,2.84,12,21.07,21.07,0,0,1,.18,3.46,4.28,4.28,0,0,1-2.18,3.49c-1.93,1.31-4.17,1.62-6.41,2a3.75,3.75,0,0,1-1,0v.07H1908.5v-.1a4.37,4.37,0,0,1-1.14,0,17.3,17.3,0,0,1-6-1.76,4.34,4.34,0,0,1-2.43-4.07,31,31,0,0,1,1-7.74,128.09,128.09,0,0,1,12-31c.28-.52,5-9.56,6.86-13.39a13.66,13.66,0,0,0,1.54-6q0-14.38,0-28.78a3.32,3.32,0,0,0-3.46-3.56h-6a3.36,3.36,0,1,0,0,6.7h3v1.41c0,7.77,0,15.55,0,23.32a9,9,0,0,1-.94,4.13q-3.49,7.14-7,14.3h0a137.74,137.74,0,0,0-11.29,28.36,43.74,43.74,0,0,0-1.86,12.36,10.36,10.36,0,0,0,5.69,9.49,22.59,22.59,0,0,0,9.59,2.6,4.18,4.18,0,0,1,1,.17h40.53a3.26,3.26,0,0,1,.79-.16,25.71,25.71,0,0,0,6.73-1.19c3.58-1.23,6.49-3.26,8.07-6.85A13.93,13.93,0,0,0,1965.72,557.11Z" transform="translate(-36.38 -66.93)"/><circle class="cls-9" cx="1889.63" cy="452.48" r="5.38"/><path class="cls-9" d="M1997.4,504.79a5.38,5.38,0,0,1-10.76,0c0-3,5.38-11.31,5.38-11.31S1997.4,501.82,1997.4,504.79Z" transform="translate(-36.38 -66.93)"/><circle class="cls-9" cx="1895.31" cy="435.8" r="3.98"/><circle class="cls-9" cx="1890" cy="419.41" r="2.66"/><circle class="cls-9" cx="1896.49" cy="407.48" r="2.66"/><circle class="cls-9" cx="1892.51" cy="397.74" r="2.66"/><path class="cls-9" d="M1994.9,456.38h-5.75c0-16.9-12.91-30.65-28.79-30.65s-28.79,13.75-28.79,30.65h-5.74c0-20.07,15.49-36.4,34.53-36.4S1994.9,436.31,1994.9,456.38Z" transform="translate(-36.38 -66.93)"/><rect class="cls-9" x="1952.78" y="389.28" width="5.74" height="32.99"/><path class="cls-10" d="M744,541a102.11,102.11,0,0,0-6.48-16.11H703.43a103.82,103.82,0,0,0-8.14,22.46,27,27,0,0,0-.83,6.64,3.74,3.74,0,0,0,2.09,3.5,15.05,15.05,0,0,0,5.12,1.51,3.59,3.59,0,0,0,1,0v.08h35.71v-.05a3.58,3.58,0,0,0,.85,0,13.45,13.45,0,0,0,5.5-1.71,3.74,3.74,0,0,0,1.88-3,18.43,18.43,0,0,0-.16-3A71.65,71.65,0,0,0,744,541Z" transform="translate(-36.38 -66.93)"/><circle class="cls-10" cx="683.66" cy="472.78" r="8.27"/><g class="cls-11"><circle class="cls-2" cx="683.81" cy="472.56" r="4.28"/><path class="cls-2" d="M720.19,551a11.51,11.51,0,1,1,11.5-11.51A11.53,11.53,0,0,1,720.19,551Zm0-19.48a8,8,0,1,0,8,8A8,8,0,0,0,720.19,531.52Z" transform="translate(-36.38 -66.93)"/><path class="cls-2" d="M814,467.74a22.67,22.67,0,0,0-9.6-2.6,3,3,0,0,1-2.07-.8,8.54,8.54,0,0,0-3.94-2.33h-1.63l-.9.29a5.89,5.89,0,0,0-4.49,6.56,5.65,5.65,0,0,0,3.72,5.05,5.58,5.58,0,0,0,6-.74,5.7,5.7,0,0,0,.79-.67,3.46,3.46,0,0,1,3.21-1.07,17.42,17.42,0,0,1,6,1.76,4.36,4.36,0,0,1,2.43,4.07,31.5,31.5,0,0,1-1,7.74,127.68,127.68,0,0,1-12,31,15.66,15.66,0,0,1-.94,1.5,1.33,1.33,0,0,1-1.16.6,1.85,1.85,0,0,0-1.11.81c-1.07,1.5-2,3.08-3.12,4.57a31.06,31.06,0,0,1-7.15,7.41c-3,2.09-4.95,2.06-8,0a29.94,29.94,0,0,1-6.68-6.94c-1.19-1.59-2.27-3.27-3.38-4.92-.37-.55-.71-1.06-1.52-.9-.19,0-.5-.17-.66-.36a5.73,5.73,0,0,1-.68-1,131.29,131.29,0,0,1-10.42-24.33,82.91,82.91,0,0,1-2.84-12,21,21,0,0,1-.18-3.45,4.34,4.34,0,0,1,2.18-3.5c1.94-1.3,4.17-1.61,6.41-2a3.43,3.43,0,0,1,3.28,1.2,5.59,5.59,0,0,0,6.49,1.35,6.68,6.68,0,0,0,3.94-6.17,6.26,6.26,0,0,0-4.93-5.65,3.12,3.12,0,0,1-.39-.15H767.9a2.3,2.3,0,0,1-.32.15,6.86,6.86,0,0,0-3.58,2.06,2.57,2.57,0,0,1-1.93.91,25.71,25.71,0,0,0-6.73,1.19c-3.58,1.23-6.48,3.26-8.07,6.85a13.92,13.92,0,0,0-.61,7.77,88.25,88.25,0,0,0,3.15,13.39A140.47,140.47,0,0,0,760,518.47c.43.83.82,1.68,1.17,2.54.11.28.15.79,0,1-.46.42-.31.78-.06,1.17,1,1.51,1.9,3,2.93,4.52,3.8,5.41,8.11,10.28,14.35,13a1,1,0,0,1,.39.75q-.06,13.74-.16,27.49h8.85q.08-13.67.12-27.34a1.07,1.07,0,0,1,.75-1.13,24.59,24.59,0,0,0,3.12-1.67,30.81,30.81,0,0,0,7.5-6.95c2.11-2.68,4-5.54,6-8.33.36-.51.65-1,.08-1.66-.15-.16-.09-.61,0-.89a5.86,5.86,0,0,1,.54-1.13,138.15,138.15,0,0,0,12.28-30.24,43.67,43.67,0,0,0,1.86-12.35A10.35,10.35,0,0,0,814,467.74Z" transform="translate(-36.38 -66.93)"/><path class="cls-2" d="M752,598.91c-19,0-34.53-16.33-34.53-36.4h5.74c0,16.91,12.92,30.66,28.79,30.66s28.79-13.75,28.79-30.66h5.74C786.49,582.58,771,598.91,752,598.91Z" transform="translate(-36.38 -66.93)"/></g><rect class="cls-2" x="681.05" y="482.29" width="5.74" height="13.29"/><path class="cls-2" d="M757.32,553.17a88,88,0,0,0-3.15-13.39,138.94,138.94,0,0,0-9.74-23.34s-4.67-9.74-7-14.62a9.69,9.69,0,0,1-.92-4c-.09-7.84-.05-15.68-.05-23.53V473h3.1a3.35,3.35,0,1,0,0-6.69h-5.85c-2.49,0-3.77,1.31-3.77,3.89,0,9.21,0,18.42,0,27.63a15.34,15.34,0,0,0,1.58,6.86c1.88,3.83,6.22,12.36,6.39,12.68a132.06,132.06,0,0,1,10.42,24.34,83.05,83.05,0,0,1,2.83,12,20,20,0,0,1,.19,3.46,4.3,4.3,0,0,1-2.18,3.49c-1.94,1.31-4.17,1.61-6.42,2a3.73,3.73,0,0,1-1,0v.07H700.1v-.1a4.85,4.85,0,0,1-1.14,0,17.58,17.58,0,0,1-6-1.76,4.34,4.34,0,0,1-2.43-4.07,31.5,31.5,0,0,1,1-7.74,127.12,127.12,0,0,1,12-31.05c.27-.52,5-9.57,6.85-13.39a13.67,13.67,0,0,0,1.55-6q0-14.38,0-28.78a3.31,3.31,0,0,0-3.46-3.56c-2,0-4,0-6,0a3.35,3.35,0,1,0,0,6.69h3v1.41c0,7.77,0,15.55,0,23.32a9,9,0,0,1-.94,4.13q-3.5,7.14-7,14.3h0a138,138,0,0,0-11.28,28.36,44.11,44.11,0,0,0-1.87,12.36,10.34,10.34,0,0,0,5.69,9.48,22.54,22.54,0,0,0,9.6,2.61,4.19,4.19,0,0,1,1,.17h40.53a4,4,0,0,1,.79-.15,25.71,25.71,0,0,0,6.74-1.19c3.57-1.23,6.48-3.26,8.07-6.85A13.94,13.94,0,0,0,757.32,553.17Z" transform="translate(-36.38 -66.93)"/><circle class="cls-2" cx="681.22" cy="448.54" r="5.38"/><path class="cls-2" d="M789,500.85a5.38,5.38,0,0,1-10.76,0c0-3,5.38-11.31,5.38-11.31S789,497.88,789,500.85Z" transform="translate(-36.38 -66.93)"/><circle class="cls-2" cx="686.9" cy="431.86" r="3.98"/><circle class="cls-2" cx="681.6" cy="415.47" r="2.66"/><circle class="cls-2" cx="688.09" cy="403.54" r="2.66"/><circle class="cls-2" cx="684.11" cy="393.8" r="2.66"/><path class="cls-2" d="M786.49,452.44h-5.74c0-16.9-12.92-30.65-28.79-30.65s-28.79,13.75-28.79,30.65h-5.74c0-20.07,15.49-36.4,34.53-36.4S786.49,432.37,786.49,452.44Z" transform="translate(-36.38 -66.93)"/><rect class="cls-2" x="744.37" y="385.34" width="5.74" height="32.99"/><path class="cls-1" d="M1844.72,199.75a101.62,101.62,0,0,0-6.48-16.1h-34.08A104.07,104.07,0,0,0,1796,206.1a26.62,26.62,0,0,0-.82,6.65,3.75,3.75,0,0,0,2.08,3.5,15,15,0,0,0,5.12,1.5,3.59,3.59,0,0,0,1,0v.09h35.71v-.06a2.77,2.77,0,0,0,.85,0,13.45,13.45,0,0,0,5.5-1.71,3.72,3.72,0,0,0,1.88-3,18.3,18.3,0,0,0-.16-3A70.47,70.47,0,0,0,1844.72,199.75Z" transform="translate(-36.38 -66.93)"/><circle class="cls-2" cx="1784.39" cy="131.52" r="8.27"/><circle class="cls-3" cx="1784.54" cy="131.3" r="4.28"/><path class="cls-3" d="M1820.92,209.74a11.51,11.51,0,1,1,11.51-11.51A11.52,11.52,0,0,1,1820.92,209.74Zm0-19.47a8,8,0,1,0,8,8A8,8,0,0,0,1820.92,190.27Z" transform="translate(-36.38 -66.93)"/><path class="cls-3" d="M1914.69,126.49a22.68,22.68,0,0,0-9.6-2.61,3,3,0,0,1-2.07-.8,8.62,8.62,0,0,0-3.94-2.33h-1.63l-.89.29a5.92,5.92,0,0,0-4.5,6.57,6.08,6.08,0,0,0,9.7,4.3,7.08,7.08,0,0,0,.79-.66,3.44,3.44,0,0,1,3.2-1.08,17.58,17.58,0,0,1,6,1.76,4.38,4.38,0,0,1,2.43,4.08,31.62,31.62,0,0,1-1,7.74,127.21,127.21,0,0,1-12,31,15.56,15.56,0,0,1-.93,1.5,1.36,1.36,0,0,1-1.17.61,1.84,1.84,0,0,0-1.11.8c-1.07,1.5-2,3.09-3.12,4.57a31.06,31.06,0,0,1-7.15,7.41c-3,2.09-5,2.07-8,0a30.23,30.23,0,0,1-6.69-6.95c-1.19-1.58-2.27-3.27-3.38-4.92-.37-.55-.71-1.06-1.52-.89-.19,0-.5-.18-.66-.36a6.09,6.09,0,0,1-.68-1,132.06,132.06,0,0,1-10.42-24.34,83.05,83.05,0,0,1-2.83-12,20,20,0,0,1-.19-3.46,4.32,4.32,0,0,1,2.18-3.49c1.94-1.31,4.17-1.61,6.42-2a3.45,3.45,0,0,1,3.28,1.2,5.58,5.58,0,0,0,6.48,1.36,6.68,6.68,0,0,0,3.94-6.17,6.24,6.24,0,0,0-4.93-5.65,3.2,3.2,0,0,1-.39-.16h-1.77a2.2,2.2,0,0,1-.31.15,6.84,6.84,0,0,0-3.59,2.07,2.54,2.54,0,0,1-1.92.9,26.13,26.13,0,0,0-6.74,1.19c-3.57,1.24-6.48,3.26-8.07,6.85a13.94,13.94,0,0,0-.61,7.77,87.69,87.69,0,0,0,3.15,13.39,140.57,140.57,0,0,0,10.15,24.15,25.41,25.41,0,0,1,1.17,2.54c.11.28.15.79,0,.94-.46.42-.31.79-.06,1.17,1,1.52,1.9,3,2.93,4.52,3.81,5.42,8.12,10.28,14.36,13a1,1,0,0,1,.39.75q-.08,13.76-.17,27.5h8.85q.07-13.68.13-27.35a1,1,0,0,1,.74-1.13,25.86,25.86,0,0,0,3.12-1.66,30.83,30.83,0,0,0,7.5-6.95c2.11-2.69,4-5.54,6-8.33.36-.51.65-1.05.08-1.67-.15-.16-.09-.61,0-.89a6.16,6.16,0,0,1,.54-1.13,137.58,137.58,0,0,0,12.28-30.23,44.06,44.06,0,0,0,1.87-12.36A10.34,10.34,0,0,0,1914.69,126.49Z" transform="translate(-36.38 -66.93)"/><path class="cls-3" d="M1852.69,257.65c-19,0-34.53-16.32-34.53-36.39h5.74c0,16.9,12.92,30.65,28.79,30.65s28.79-13.75,28.79-30.65h5.75C1887.23,241.33,1871.73,257.65,1852.69,257.65Z" transform="translate(-36.38 -66.93)"/><path class="cls-4" d="M1062.38,191.9a102.11,102.11,0,0,0-6.48-16.11h-34.08a104.37,104.37,0,0,0-8.15,22.46,27.5,27.5,0,0,0-.82,6.64,3.74,3.74,0,0,0,2.09,3.5,15.05,15.05,0,0,0,5.12,1.51,3.59,3.59,0,0,0,1,0V210h35.71v-.05a3.58,3.58,0,0,0,.85,0,13.45,13.45,0,0,0,5.5-1.71,3.69,3.69,0,0,0,1.87-3,18.42,18.42,0,0,0-.15-3A71.65,71.65,0,0,0,1062.38,191.9Z" transform="translate(-36.38 -66.93)"/><circle class="cls-2" cx="1002.05" cy="123.67" r="8.27"/><circle class="cls-5" cx="1002.2" cy="123.45" r="4.28"/><path class="cls-5" d="M1038.58,201.89a11.51,11.51,0,1,1,11.5-11.51A11.53,11.53,0,0,1,1038.58,201.89Zm0-19.48a8,8,0,1,0,8,8A8,8,0,0,0,1038.58,182.41Z" transform="translate(-36.38 -66.93)"/><path class="cls-5" d="M1132.35,118.63a22.67,22.67,0,0,0-9.6-2.6,3,3,0,0,1-2.07-.8,8.54,8.54,0,0,0-3.94-2.33h-1.63l-.9.29a5.9,5.9,0,0,0-4.49,6.56,5.65,5.65,0,0,0,3.72,5,5.58,5.58,0,0,0,6-.74,5.7,5.7,0,0,0,.79-.67,3.45,3.45,0,0,1,3.21-1.07,17.42,17.42,0,0,1,6,1.76,4.36,4.36,0,0,1,2.43,4.07,31.5,31.5,0,0,1-1,7.74,127.68,127.68,0,0,1-12,31.05,15.66,15.66,0,0,1-.94,1.5,1.33,1.33,0,0,1-1.16.6,1.85,1.85,0,0,0-1.11.81c-1.07,1.5-2,3.08-3.12,4.57a31.25,31.25,0,0,1-7.15,7.41c-3,2.09-5,2.06-8,0a29.94,29.94,0,0,1-6.68-6.94c-1.2-1.59-2.27-3.27-3.38-4.92-.37-.55-.71-1.06-1.52-.9-.19,0-.5-.17-.66-.36a6,6,0,0,1-.68-1,131.67,131.67,0,0,1-10.42-24.34,83.09,83.09,0,0,1-2.84-12,21.07,21.07,0,0,1-.18-3.46,4.3,4.3,0,0,1,2.18-3.49c1.94-1.31,4.17-1.62,6.41-2a3.43,3.43,0,0,1,3.28,1.2,5.59,5.59,0,0,0,6.49,1.35,6.68,6.68,0,0,0,3.94-6.17,6.26,6.26,0,0,0-4.93-5.65,3.12,3.12,0,0,1-.39-.15h-1.77a2.3,2.3,0,0,1-.32.15,6.86,6.86,0,0,0-3.58,2.06,2.59,2.59,0,0,1-1.93.91,25.71,25.71,0,0,0-6.73,1.19c-3.58,1.23-6.48,3.26-8.07,6.85a13.93,13.93,0,0,0-.61,7.77,88.25,88.25,0,0,0,3.15,13.39,140.91,140.91,0,0,0,10.15,24.15,27.87,27.87,0,0,1,1.17,2.54c.11.28.15.79,0,.94-.46.42-.31.78-.06,1.17,1,1.51,1.9,3,2.93,4.52,3.8,5.41,8.11,10.28,14.35,13a1,1,0,0,1,.39.75q-.06,13.74-.16,27.5h8.85q.07-13.68.12-27.35a1.06,1.06,0,0,1,.75-1.13,24.59,24.59,0,0,0,3.12-1.67,30.81,30.81,0,0,0,7.5-6.95c2.11-2.68,4-5.54,6-8.33.36-.51.65-1,.08-1.66-.15-.16-.09-.61,0-.89a5.86,5.86,0,0,1,.54-1.13,138.27,138.27,0,0,0,12.28-30.23,43.8,43.8,0,0,0,1.86-12.36A10.37,10.37,0,0,0,1132.35,118.63Z" transform="translate(-36.38 -66.93)"/><path class="cls-5" d="M1070.35,249.8c-19,0-34.54-16.33-34.54-36.4h5.75c0,16.91,12.91,30.66,28.79,30.66s28.79-13.75,28.79-30.66h5.74C1104.88,233.47,1089.39,249.8,1070.35,249.8Z" transform="translate(-36.38 -66.93)"/><rect class="cls-5" x="999.44" y="133.19" width="5.74" height="13.29"/><path class="cls-6" d="M1075.71,204.06a90.42,90.42,0,0,0-3.15-13.39,138.94,138.94,0,0,0-9.74-23.34s-4.67-9.74-7-14.62a9.68,9.68,0,0,1-.92-4c-.09-7.85,0-15.69,0-23.54v-1.28c1.13,0,2.11,0,3.1,0a3.35,3.35,0,1,0,0-6.69h-5.85c-2.49,0-3.77,1.32-3.77,3.89,0,9.21,0,18.42,0,27.63a15.41,15.41,0,0,0,1.58,6.87c1.87,3.82,6.22,12.35,6.39,12.67a131.63,131.63,0,0,1,10.41,24.34,81.79,81.79,0,0,1,2.84,12,21.07,21.07,0,0,1,.19,3.46,4.33,4.33,0,0,1-2.18,3.49c-1.94,1.31-4.17,1.62-6.42,2a3.73,3.73,0,0,1-1,0v.07h-41.6v-.1a4.36,4.36,0,0,1-1.14,0,17.36,17.36,0,0,1-6-1.76,4.34,4.34,0,0,1-2.43-4.07,31.5,31.5,0,0,1,1-7.74,127.28,127.28,0,0,1,12-31.05c.27-.52,5-9.56,6.85-13.39a13.8,13.8,0,0,0,1.55-6q0-14.39,0-28.78a3.31,3.31,0,0,0-3.46-3.56h-6a3.35,3.35,0,1,0,0,6.69h3v1.41c0,7.77,0,15.55,0,23.32a9,9,0,0,1-.94,4.13q-3.5,7.14-7,14.3h0a138.27,138.27,0,0,0-11.28,28.36,44.11,44.11,0,0,0-1.87,12.36,10.36,10.36,0,0,0,5.69,9.49,22.67,22.67,0,0,0,9.6,2.6,4.19,4.19,0,0,1,1,.17h40.53a3.36,3.36,0,0,1,.79-.16,25.71,25.71,0,0,0,6.74-1.19c3.57-1.23,6.48-3.26,8.07-6.85A13.93,13.93,0,0,0,1075.71,204.06Z" transform="translate(-36.38 -66.93)"/><circle class="cls-6" cx="999.61" cy="99.43" r="5.38"/><path class="cls-6" d="M1107.39,151.74a5.38,5.38,0,0,1-10.76,0c0-3,5.38-11.31,5.38-11.31S1107.39,148.77,1107.39,151.74Z" transform="translate(-36.38 -66.93)"/><circle class="cls-6" cx="1005.29" cy="82.75" r="3.98"/><circle class="cls-6" cx="999.99" cy="66.36" r="2.66"/><circle class="cls-6" cx="1006.48" cy="54.43" r="2.66"/><circle class="cls-6" cx="1002.5" cy="44.69" r="2.66"/><path class="cls-6" d="M1104.88,103.33h-5.74c0-16.9-12.92-30.65-28.79-30.65s-28.79,13.75-28.79,30.65h-5.75c0-20.07,15.5-36.4,34.54-36.4S1104.88,83.26,1104.88,103.33Z" transform="translate(-36.38 -66.93)"/><rect class="cls-6" x="1062.76" y="36.23" width="5.74" height="32.99"/><rect class="cls-3" x="1781.78" y="141.04" width="5.74" height="13.29"/><path class="cls-7" d="M1858.05,211.91a88.25,88.25,0,0,0-3.15-13.39,138.5,138.5,0,0,0-9.74-23.33s-4.67-9.75-7-14.63a9.53,9.53,0,0,1-.93-4c-.09-7.84,0-15.69,0-23.53v-1.29h3.09a3.35,3.35,0,1,0,0-6.7c-2,0-3.9,0-5.85,0-2.49,0-3.76,1.32-3.76,3.89,0,9.21,0,18.42,0,27.63a15.27,15.27,0,0,0,1.57,6.87c1.88,3.82,6.22,12.36,6.39,12.68A131.09,131.09,0,0,1,1849,200.45a82.47,82.47,0,0,1,2.84,12,21,21,0,0,1,.18,3.46,4.33,4.33,0,0,1-2.18,3.49c-1.94,1.3-4.17,1.61-6.41,2a3.78,3.78,0,0,1-1,.05v.06h-41.61v-.1a4,4,0,0,1-1.14,0,17.56,17.56,0,0,1-6-1.75,4.38,4.38,0,0,1-2.43-4.08,31.5,31.5,0,0,1,1-7.74,127.68,127.68,0,0,1,12-31c.27-.52,5-9.56,6.86-13.39a13.65,13.65,0,0,0,1.54-6q0-14.4,0-28.79a3.32,3.32,0,0,0-3.46-3.56q-3,0-6,0a3.36,3.36,0,1,0,0,6.7h3v1.41c0,7.77,0,15.55,0,23.32a9,9,0,0,1-.94,4.13q-3.5,7.14-7,14.3h0a138.13,138.13,0,0,0-11.28,28.37,43.67,43.67,0,0,0-1.86,12.35,10.34,10.34,0,0,0,5.68,9.49,22.67,22.67,0,0,0,9.6,2.6,5,5,0,0,1,1,.17h40.53a3.17,3.17,0,0,1,.79-.15,26.56,26.56,0,0,0,6.73-1.19c3.58-1.24,6.48-3.26,8.07-6.86A13.92,13.92,0,0,0,1858.05,211.91Z" transform="translate(-36.38 -66.93)"/><circle class="cls-7" cx="1781.96" cy="107.28" r="5.38"/><path class="cls-7" d="M1889.73,159.59a5.38,5.38,0,0,1-10.76,0c0-3,5.38-11.31,5.38-11.31S1889.73,156.62,1889.73,159.59Z" transform="translate(-36.38 -66.93)"/><circle class="cls-7" cx="1787.63" cy="90.6" r="3.98"/><circle class="cls-7" cx="1782.33" cy="74.21" r="2.66"/><circle class="cls-7" cx="1788.82" cy="62.28" r="2.66"/><circle class="cls-7" cx="1784.84" cy="52.54" r="2.66"/><path class="cls-7" d="M1887.23,111.18h-5.75c0-16.9-12.91-30.65-28.79-30.65s-28.79,13.75-28.79,30.65h-5.74c0-20.07,15.49-36.4,34.53-36.4S1887.23,91.11,1887.23,111.18Z" transform="translate(-36.38 -66.93)"/><rect class="cls-7" x="1845.1" y="44.08" width="5.74" height="32.99"/><path class="cls-1" d="M2205.38,205.92a103.55,103.55,0,0,0-6.48-16.1h-34.09a104.6,104.6,0,0,0-8.14,22.45,27.1,27.1,0,0,0-.82,6.65,3.76,3.76,0,0,0,2.08,3.5,15.16,15.16,0,0,0,5.13,1.5,3.51,3.51,0,0,0,1,0V224h35.72V224a2.69,2.69,0,0,0,.84,0,13.45,13.45,0,0,0,5.51-1.71,3.7,3.7,0,0,0,1.87-3,17.29,17.29,0,0,0-.16-3A70.44,70.44,0,0,0,2205.38,205.92Z" transform="translate(-36.38 -66.93)"/><circle class="cls-2" cx="2145.04" cy="137.69" r="8.27"/><circle class="cls-8" cx="2145.2" cy="137.47" r="4.28"/><path class="cls-8" d="M2181.57,215.91a11.51,11.51,0,1,1,11.51-11.51A11.53,11.53,0,0,1,2181.57,215.91Zm0-19.47a8,8,0,1,0,8,8A8,8,0,0,0,2181.57,196.44Z" transform="translate(-36.38 -66.93)"/><path class="cls-8" d="M2275.34,132.66a22.64,22.64,0,0,0-9.59-2.61,3.09,3.09,0,0,1-2.08-.79,8.45,8.45,0,0,0-3.94-2.34h-1.62l-.9.29a5.92,5.92,0,0,0-4.5,6.57,5.68,5.68,0,0,0,3.73,5.05,5.61,5.61,0,0,0,6-.75,5,5,0,0,0,.79-.66,3.44,3.44,0,0,1,3.2-1.08,17.51,17.51,0,0,1,6,1.76,4.36,4.36,0,0,1,2.43,4.08,31.14,31.14,0,0,1-1,7.74,127.58,127.58,0,0,1-12,31c-.28.52-.61,1-.94,1.5a1.35,1.35,0,0,1-1.16.61,1.84,1.84,0,0,0-1.11.8c-1.07,1.5-2,3.09-3.12,4.57a31.45,31.45,0,0,1-7.15,7.41c-3,2.09-4.95,2.07-8,0a30.14,30.14,0,0,1-6.68-6.94c-1.2-1.59-2.27-3.28-3.39-4.93-.37-.55-.71-1.06-1.52-.89-.19,0-.5-.18-.65-.36a5.55,5.55,0,0,1-.68-1.05,131.38,131.38,0,0,1-10.42-24.34,81.79,81.79,0,0,1-2.84-12,20,20,0,0,1-.18-3.46,4.3,4.3,0,0,1,2.18-3.49c1.93-1.31,4.17-1.61,6.41-2a3.44,3.44,0,0,1,3.28,1.2,5.59,5.59,0,0,0,6.49,1.36,6.68,6.68,0,0,0,3.93-6.17,6.23,6.23,0,0,0-4.92-5.65,2.66,2.66,0,0,1-.39-.16h-1.78a1.77,1.77,0,0,1-.31.15,6.88,6.88,0,0,0-3.59,2.07,2.54,2.54,0,0,1-1.92.9,26.13,26.13,0,0,0-6.73,1.19c-3.58,1.24-6.49,3.26-8.07,6.85a13.94,13.94,0,0,0-.61,7.77,89.27,89.27,0,0,0,3.14,13.4,140.85,140.85,0,0,0,10.16,24.14c.43.83.82,1.67,1.17,2.54.11.28.15.79,0,.94-.46.42-.3.79-.06,1.17,1,1.52,1.9,3.05,2.93,4.52,3.81,5.42,8.12,10.28,14.36,13a1,1,0,0,1,.39.75q-.06,13.75-.16,27.5h8.85q.06-13.68.12-27.35a1.06,1.06,0,0,1,.75-1.13,25,25,0,0,0,3.11-1.66,30.87,30.87,0,0,0,7.51-6.95c2.1-2.69,4-5.54,6-8.33.36-.51.64-1,.07-1.67-.15-.16-.08-.61,0-.89a6.48,6.48,0,0,1,.54-1.13,137.09,137.09,0,0,0,12.28-30.23,43.7,43.7,0,0,0,1.87-12.36A10.34,10.34,0,0,0,2275.34,132.66Z" transform="translate(-36.38 -66.93)"/><path class="cls-8" d="M2213.35,263.83c-19,0-34.54-16.33-34.54-36.4h5.75c0,16.9,12.91,30.65,28.79,30.65s28.78-13.75,28.78-30.65h5.75C2247.88,247.5,2232.39,263.83,2213.35,263.83Z" transform="translate(-36.38 -66.93)"/><rect class="cls-8" x="2142.43" y="147.21" width="5.74" height="13.29"/><path class="cls-9" d="M2218.7,218.09a89.27,89.27,0,0,0-3.14-13.4,139.33,139.33,0,0,0-9.74-23.33s-4.67-9.74-7-14.63a9.85,9.85,0,0,1-.93-4c-.08-7.84,0-15.69,0-23.53v-1.29h3.1a3.35,3.35,0,1,0,0-6.7c-2,0-3.9,0-5.85,0-2.5,0-3.77,1.32-3.77,3.89q0,13.82,0,27.64a15.14,15.14,0,0,0,1.58,6.86c1.87,3.82,6.21,12.36,6.38,12.68a131.09,131.09,0,0,1,10.42,24.34,81.2,81.2,0,0,1,2.84,12,20,20,0,0,1,.18,3.46,4.31,4.31,0,0,1-2.18,3.49c-1.93,1.3-4.17,1.61-6.41,2a3.78,3.78,0,0,1-1,0v.06h-41.61v-.1a3.9,3.9,0,0,1-1.13,0,17.5,17.5,0,0,1-6-1.75,4.36,4.36,0,0,1-2.43-4.08,31,31,0,0,1,1-7.74,127.43,127.43,0,0,1,12-31c.28-.53,5-9.57,6.86-13.4a13.8,13.8,0,0,0,1.55-6q0-14.4,0-28.79a3.32,3.32,0,0,0-3.46-3.56q-3,0-6,0a3.36,3.36,0,1,0,0,6.7h3v1.41c0,7.78,0,15.55,0,23.32a9.17,9.17,0,0,1-1,4.13q-3.49,7.14-7,14.3h0a137.57,137.57,0,0,0-11.28,28.37,43.68,43.68,0,0,0-1.87,12.35,10.35,10.35,0,0,0,5.69,9.49,22.62,22.62,0,0,0,9.59,2.6,4.78,4.78,0,0,1,1,.17h40.53a3.35,3.35,0,0,1,.79-.15,26.56,26.56,0,0,0,6.73-1.19c3.58-1.24,6.49-3.26,8.07-6.86A13.89,13.89,0,0,0,2218.7,218.09Z" transform="translate(-36.38 -66.93)"/><circle class="cls-9" cx="2142.61" cy="113.45" r="5.38"/><path class="cls-9" d="M2250.39,165.76a5.38,5.38,0,1,1-10.76,0c0-3,5.38-11.31,5.38-11.31S2250.39,162.79,2250.39,165.76Z" transform="translate(-36.38 -66.93)"/><circle class="cls-9" cx="2148.29" cy="96.78" r="3.98"/><circle class="cls-9" cx="2142.98" cy="80.38" r="2.66"/><circle class="cls-9" cx="2149.48" cy="68.45" r="2.66"/><circle class="cls-9" cx="2145.49" cy="58.71" r="2.66"/><path class="cls-9" d="M2247.88,117.35h-5.75c0-16.9-12.91-30.65-28.78-30.65s-28.79,13.75-28.79,30.65h-5.75c0-20.07,15.49-36.4,34.54-36.4S2247.88,97.28,2247.88,117.35Z" transform="translate(-36.38 -66.93)"/><rect class="cls-9" x="2205.76" y="50.25" width="5.74" height="32.99"/><path class="cls-10" d="M1453.16,197.84a102.11,102.11,0,0,0-6.48-16.11H1412.6a104.35,104.35,0,0,0-8.14,22.46,26.54,26.54,0,0,0-.82,6.64,3.74,3.74,0,0,0,2.08,3.5,15.05,15.05,0,0,0,5.12,1.51,3.59,3.59,0,0,0,1,0v.08h35.71v-.05a3.58,3.58,0,0,0,.85,0,13.45,13.45,0,0,0,5.5-1.71,3.74,3.74,0,0,0,1.88-3,18.43,18.43,0,0,0-.16-3A71.65,71.65,0,0,0,1453.16,197.84Z" transform="translate(-36.38 -66.93)"/><circle class="cls-10" cx="1392.83" cy="129.61" r="8.27"/><g class="cls-11"><circle class="cls-2" cx="1392.98" cy="129.39" r="4.28"/><path class="cls-2" d="M1429.36,207.83a11.51,11.51,0,1,1,11.51-11.51A11.53,11.53,0,0,1,1429.36,207.83Zm0-19.48a8,8,0,1,0,8,8A8,8,0,0,0,1429.36,188.35Z" transform="translate(-36.38 -66.93)"/><path class="cls-2" d="M1523.13,124.57a22.67,22.67,0,0,0-9.6-2.6,3.09,3.09,0,0,1-2.07-.8,8.54,8.54,0,0,0-3.94-2.33h-1.63l-.89.28a5.92,5.92,0,0,0-4.5,6.57,6.09,6.09,0,0,0,9.7,4.31,6.26,6.26,0,0,0,.78-.67,3.43,3.43,0,0,1,3.21-1.07,17.56,17.56,0,0,1,6,1.75,4.38,4.38,0,0,1,2.43,4.08,31.5,31.5,0,0,1-1,7.74,127.68,127.68,0,0,1-12,31,13.9,13.9,0,0,1-.94,1.5,1.33,1.33,0,0,1-1.16.6,1.85,1.85,0,0,0-1.11.81c-1.07,1.5-2,3.08-3.12,4.57a31.06,31.06,0,0,1-7.15,7.41c-3,2.09-5,2.06-8,0a30.35,30.35,0,0,1-6.68-6.94c-1.19-1.59-2.27-3.27-3.38-4.92-.37-.55-.71-1.06-1.52-.9-.19,0-.5-.18-.66-.36a5.73,5.73,0,0,1-.68-1.05,131.77,131.77,0,0,1-10.42-24.34,83.79,83.79,0,0,1-2.84-12,21,21,0,0,1-.18-3.46,4.33,4.33,0,0,1,2.18-3.49c1.94-1.3,4.17-1.61,6.42-2a3.42,3.42,0,0,1,3.27,1.2,5.61,5.61,0,0,0,6.49,1.35,6.67,6.67,0,0,0,3.94-6.17,6.24,6.24,0,0,0-4.93-5.65,3.12,3.12,0,0,1-.39-.15h-1.77a2.2,2.2,0,0,1-.31.15,6.82,6.82,0,0,0-3.59,2.06,2.55,2.55,0,0,1-1.92.91,26.12,26.12,0,0,0-6.74,1.18c-3.57,1.24-6.48,3.27-8.07,6.86a13.92,13.92,0,0,0-.61,7.77,88.25,88.25,0,0,0,3.15,13.39,140.81,140.81,0,0,0,10.15,24.14,27.66,27.66,0,0,1,1.17,2.54c.11.28.15.79,0,.95-.46.42-.31.78-.06,1.17,1,1.51,1.9,3,2.93,4.52,3.81,5.41,8.12,10.28,14.35,13a.92.92,0,0,1,.39.74q-.06,13.75-.16,27.5h8.85q.08-13.67.12-27.34a1.09,1.09,0,0,1,.75-1.14,23.31,23.31,0,0,0,3.12-1.66,30.63,30.63,0,0,0,7.5-7c2.11-2.68,4-5.54,6-8.33.36-.51.65-1,.08-1.66-.15-.17-.09-.61,0-.9a6.07,6.07,0,0,1,.54-1.12A137.66,137.66,0,0,0,1527,146.41a44,44,0,0,0,1.87-12.35A10.37,10.37,0,0,0,1523.13,124.57Z" transform="translate(-36.38 -66.93)"/><path class="cls-2" d="M1461.13,255.74c-19,0-34.53-16.33-34.53-36.4h5.74c0,16.9,12.92,30.66,28.79,30.66s28.79-13.76,28.79-30.66h5.74C1495.66,239.41,1480.17,255.74,1461.13,255.74Z" transform="translate(-36.38 -66.93)"/></g><rect class="cls-2" x="1390.22" y="139.12" width="5.74" height="13.29"/><path class="cls-2" d="M1466.49,210a88,88,0,0,0-3.15-13.39,138.94,138.94,0,0,0-9.74-23.34s-4.67-9.74-7-14.62a9.54,9.54,0,0,1-.93-4c-.09-7.84,0-15.68,0-23.53v-1.29c1.12,0,2.1,0,3.09,0a3.35,3.35,0,1,0,0-6.69c-2,0-3.9,0-5.85,0-2.49,0-3.76,1.31-3.76,3.89,0,9.21,0,18.42,0,27.63a15.2,15.2,0,0,0,1.57,6.86c1.88,3.82,6.22,12.36,6.39,12.68a132.06,132.06,0,0,1,10.42,24.34,83.09,83.09,0,0,1,2.84,12,21.07,21.07,0,0,1,.18,3.46,4.3,4.3,0,0,1-2.18,3.49c-1.94,1.31-4.17,1.61-6.41,2a3.76,3.76,0,0,1-1,0v.07h-41.61v-.1a4.85,4.85,0,0,1-1.14,0,17.58,17.58,0,0,1-6-1.76,4.37,4.37,0,0,1-2.43-4.07,31.5,31.5,0,0,1,1-7.74,127.53,127.53,0,0,1,12-31.05c.27-.52,5-9.57,6.86-13.39a13.79,13.79,0,0,0,1.54-6q0-14.39,0-28.78a3.31,3.31,0,0,0-3.46-3.56c-2,0-4,0-6,0a3.35,3.35,0,1,0,0,6.69c1,0,1.94,0,3,0v1.42c0,7.77,0,15.54,0,23.32a9.06,9.06,0,0,1-.94,4.13q-3.49,7.14-7,14.3h0a138,138,0,0,0-11.28,28.36,43.69,43.69,0,0,0-1.86,12.36,10.33,10.33,0,0,0,5.68,9.48,22.68,22.68,0,0,0,9.6,2.61,4.37,4.37,0,0,1,1,.17h40.53a3.69,3.69,0,0,1,.79-.15,25.71,25.71,0,0,0,6.73-1.19c3.57-1.24,6.48-3.26,8.07-6.85A13.94,13.94,0,0,0,1466.49,210Z" transform="translate(-36.38 -66.93)"/><circle class="cls-2" cx="1390.39" cy="105.37" r="5.38"/><path class="cls-2" d="M1498.17,157.68a5.38,5.38,0,0,1-10.76,0c0-3,5.38-11.32,5.38-11.32S1498.17,154.71,1498.17,157.68Z" transform="translate(-36.38 -66.93)"/><circle class="cls-2" cx="1396.07" cy="88.69" r="3.98"/><circle class="cls-2" cx="1390.77" cy="72.3" r="2.66"/><circle class="cls-2" cx="1397.26" cy="60.37" r="2.66"/><circle class="cls-2" cx="1393.28" cy="50.63" r="2.66"/><path class="cls-2" d="M1495.66,109.27h-5.74c0-16.9-12.92-30.66-28.79-30.66s-28.79,13.76-28.79,30.66h-5.74c0-20.07,15.49-36.4,34.53-36.4S1495.66,89.2,1495.66,109.27Z" transform="translate(-36.38 -66.93)"/><rect class="cls-2" x="1453.54" y="42.17" width="5.74" height="32.99"/><polygon class="cls-6" points="137.85 386.74 137.85 362.58 130.81 362.58 130.81 356.41 151.83 356.41 151.83 362.58 144.74 362.58 144.74 386.74 137.85 386.74"/><path class="cls-6" d="M194.66,430.34l.2,2.83a6.58,6.58,0,0,1,5.81-3.18,9.14,9.14,0,0,1,1.15.08v2a10.72,10.72,0,0,0-1.27-.08c-3.27,0-5.69,2.07-5.69,6v15.68h-2V430.34Z" transform="translate(-36.38 -66.93)"/><path class="cls-6" d="M212.57,429.87c-5,0-7.12,2.39-7.12,7.28h1.79c0-4.26,2-5.53,5.29-5.53,3.55,0,5.06,1.71,5.06,5.69v3.9a31.23,31.23,0,0,0-4.22-.36c-6.05,0-8.68,2.31-8.68,6.81s2.63,6.49,6.49,6.49a7.06,7.06,0,0,0,6.45-3.38l.08,2.9h1.79V437.31C219.5,432,217,429.87,212.57,429.87Zm5,16.36c0,4.18-2.79,6.21-6.05,6.21s-4.82-1.71-4.82-4.86c0-3.34,1.71-5.05,6.53-5.05a36,36,0,0,1,4.34.35Z" transform="translate(-36.38 -66.93)"/><path class="cls-6" d="M227.3,430.34l.16,2.31c1.12-1.67,3.19-2.78,6-2.78,5.38,0,6.85,3.06,6.85,8.36v15.44h-2V438.35c0-4.62-1.19-6.69-5.37-6.69-3.23,0-5.54,1.91-5.54,5.49v16.52h-1.95V430.34Z" transform="translate(-36.38 -66.93)"/><path class="cls-6" d="M260,447.34c0,4.22-2.35,6.81-7.44,6.81-4.94,0-7.45-2.07-7.45-6.65h1.87c0,3.07,1.48,4.94,5.58,4.94,3.62,0,5.53-1.63,5.53-5,0-3.82-2.59-4.54-6.09-5.21s-6.25-1.75-6.25-6.33c0-3.54,2.15-6.05,7-6.05s7,2.27,7,6.21H257.8c-.12-2.95-1.43-4.5-5.13-4.5s-5.1,1.63-5.1,4.26c0,3.34,1.79,4.06,5,4.7C256.29,441.29,260,442.25,260,447.34Z" transform="translate(-36.38 -66.93)"/><path class="cls-6" d="M270.86,453.75c-5,.52-5.81-1.43-5.81-6.57V422.94H267v24.4c0,4.26.56,4.78,3.86,4.74Z" transform="translate(-36.38 -66.93)"/><path class="cls-6" d="M282.29,429.87c-5,0-7.13,2.39-7.13,7.28H277c0-4.26,2-5.53,5.3-5.53,3.54,0,5.06,1.71,5.06,5.69v3.9a31.23,31.23,0,0,0-4.22-.36c-6,0-8.68,2.31-8.68,6.81s2.63,6.49,6.49,6.49a7.06,7.06,0,0,0,6.45-3.38l.08,2.9h1.79V437.31C289.22,432,286.75,429.87,282.29,429.87Zm5,16.36c0,4.18-2.79,6.21-6.06,6.21s-4.81-1.71-4.81-4.86c0-3.34,1.71-5.05,6.53-5.05a36,36,0,0,1,4.34.35Z" transform="translate(-36.38 -66.93)"/><path class="cls-6" d="M302.79,452.08v1.79a10,10,0,0,1-2.34.28c-4.22,0-5.58-2.15-5.58-6.73V425.29h2v5.53h5.89v1.75h-5.89v14.85c0,4,1.16,4.9,3.9,4.9A9.66,9.66,0,0,0,302.79,452.08Z" transform="translate(-36.38 -66.93)"/><rect class="cls-6" x="271.47" y="355.57" width="2.03" height="2.63"/><rect class="cls-6" x="271.51" y="363.41" width="1.95" height="23.33"/><path class="cls-6" d="M323.06,429.87c-5.17,0-7.48,2-7.48,8.8v6.68c0,6.77,2.31,8.8,7.48,8.8s7.45-2,7.45-8.8v-6.68C330.51,431.9,328.2,429.87,323.06,429.87Zm5.46,15.4c0,5.54-1.32,7.13-5.46,7.13s-5.49-1.59-5.49-7.13v-6.53c0-5.49,1.31-7.08,5.49-7.08s5.46,1.59,5.46,7.08Z" transform="translate(-36.38 -66.93)"/><path class="cls-6" d="M338,430.34l.16,2.31c1.12-1.67,3.19-2.78,6.05-2.78,5.38,0,6.85,3.06,6.85,8.36v15.44H349.1V438.35c0-4.62-1.19-6.69-5.38-6.69-3.22,0-5.53,1.91-5.53,5.49v16.52h-1.95V430.34Z" transform="translate(-36.38 -66.93)"/><path class="cls-6" d="M364.23,429.87c-5,0-7.13,2.39-7.13,7.28h1.79c0-4.26,2-5.53,5.3-5.53,3.54,0,5.05,1.71,5.05,5.69v3.9a31,31,0,0,0-4.21-.36c-6.06,0-8.68,2.31-8.68,6.81s2.62,6.49,6.49,6.49a7.06,7.06,0,0,0,6.45-3.38l.08,2.9h1.79V437.31C371.16,432,368.69,429.87,364.23,429.87Zm5,16.36c0,4.18-2.78,6.21-6.05,6.21s-4.81-1.71-4.81-4.86c0-3.34,1.71-5.05,6.53-5.05a35.64,35.64,0,0,1,4.33.35Z" transform="translate(-36.38 -66.93)"/><path class="cls-6" d="M382.86,453.75c-5,.52-5.81-1.43-5.81-6.57V422.94H379v24.4c0,4.26.56,4.78,3.86,4.74Z" transform="translate(-36.38 -66.93)"/><path class="cls-12" d="M416.9,452.24c-2.62,0-3.7-1-3.7-5v-8.83h4.54v-1.64h-11.9c-4.66,0-6.41-3-6.41-6.21,0-4.54,3-6.05,6.13-6.05s5.81,1.44,6.13,5.5h2c-.36-4.94-3.7-7.17-8.12-7.17-4.7,0-8.08,2.47-8.08,7.68,0,3.39,1.43,6.09,4.77,7.13-2.82.76-5.45,3.1-5.45,8,0,5.18,2.79,8.52,8.2,8.52,3.54,0,5.81-1.51,6.73-3.38.48,2.15,1.79,3.3,4.89,3.3a9,9,0,0,0,2.08-.24V452A7.82,7.82,0,0,1,416.9,452.24Zm-5.61-6.57c0,4.06-1.59,6.69-6.09,6.69s-6.41-2.95-6.41-6.81c0-5.69,3.9-7.12,7.33-7.12h5.17Z" transform="translate(-36.38 -66.93)"/><rect class="cls-6" x="156.19" y="410.89" width="6.93" height="30.33"/><path class="cls-6" d="M206.94,484.83l.16,2.31c1.11-1.67,3.18-2.79,6.05-2.79,5.38,0,6.85,3.07,6.85,8.36v15.45h-1.95V492.83c0-4.61-1.2-6.68-5.38-6.68-3.22,0-5.53,1.91-5.53,5.49v16.52h-1.95V484.83Z" transform="translate(-36.38 -66.93)"/><path class="cls-6" d="M236.6,506.57v1.79a10.11,10.11,0,0,1-2.35.28c-4.22,0-5.57-2.15-5.57-6.73V479.78h2v5.53h5.89v1.75h-5.89v14.85c0,4,1.15,4.9,3.9,4.9A9.75,9.75,0,0,0,236.6,506.57Z" transform="translate(-36.38 -66.93)"/><path class="cls-6" d="M258.38,496.77v-3.9c0-5.85-2.15-8.52-7.21-8.52s-7.36,2.47-7.36,8.84V500c0,6.33,2.31,8.68,7.48,8.68,4.74,0,6.85-2.15,6.89-6.53h-1.87c-.08,3.18-1.35,4.78-5.06,4.78-4.14,0-5.49-2.11-5.49-6.89v-3.23Zm-12.62-3.7c0-5.05,1.35-7,5.41-7s5.3,2.19,5.3,6.76v2.23H245.76Z" transform="translate(-36.38 -66.93)"/><path class="cls-6" d="M279.28,484.83l-.12,2.27a6.55,6.55,0,0,0-5.73-2.75c-4,0-7.2,2.23-7.2,8.72v6.41c0,5.7,2.14,8.84,6.92,8.84,2.71,0,4.78-.88,6-2.75v1.6c0,5.33-1.23,7.36-5.57,7.36-3.5,0-4.74-1.51-4.9-4h-1.87c.2,3.94,2.23,5.73,6.73,5.73,5.14,0,7.6-2.15,7.6-9.27V484.83Zm-.16,16.2c0,3.59-2.27,5.54-5.53,5.54-3.78,0-5.37-2.39-5.37-7v-6.33c0-5.29,2.19-7.08,5.49-7.08,3,0,5.41,1.55,5.41,6.13Z" transform="translate(-36.38 -66.93)"/><path class="cls-6" d="M292.3,484.83l.2,2.83a6.62,6.62,0,0,1,5.82-3.19,9.28,9.28,0,0,1,1.15.08v2a10.86,10.86,0,0,0-1.27-.08c-3.27,0-5.7,2.07-5.7,6v15.68h-1.95V484.83Z" transform="translate(-36.38 -66.93)"/><path class="cls-6" d="M313.17,484.35c-5,0-7.13,2.39-7.13,7.29h1.79c0-4.26,2-5.53,5.3-5.53,3.54,0,5.05,1.71,5.05,5.69v3.9a31,31,0,0,0-4.22-.36c-6,0-8.68,2.31-8.68,6.81s2.63,6.49,6.49,6.49a7,7,0,0,0,6.45-3.39l.08,2.91h1.79V491.8C320.09,486.46,317.63,484.35,313.17,484.35Zm5,16.37c0,4.18-2.78,6.21-6.05,6.21s-4.82-1.71-4.82-4.86c0-3.34,1.72-5.06,6.53-5.06a33.83,33.83,0,0,1,4.34.36Z" transform="translate(-36.38 -66.93)"/><path class="cls-6" d="M336.62,506.57v1.79a10.18,10.18,0,0,1-2.35.28c-4.22,0-5.57-2.15-5.57-6.73V479.78h2v5.53h5.89v1.75h-5.89v14.85c0,4,1.15,4.9,3.9,4.9A9.83,9.83,0,0,0,336.62,506.57Z" transform="translate(-36.38 -66.93)"/><rect class="cls-6" x="308.24" y="410.06" width="2.03" height="2.63"/><rect class="cls-6" x="308.28" y="417.9" width="1.95" height="23.33"/><polygon class="cls-6" points="319.47 417.9 325.48 438.92 331.57 417.9 333.76 417.9 326.76 441.23 324.17 441.23 317.2 417.9 319.47 417.9"/><path class="cls-6" d="M390.85,496.77v-3.9c0-5.85-2.15-8.52-7.21-8.52s-7.36,2.47-7.36,8.84V500c0,6.33,2.3,8.68,7.48,8.68,4.74,0,6.85-2.15,6.89-6.53h-1.87c-.08,3.18-1.36,4.78-5.06,4.78-4.14,0-5.49-2.11-5.49-6.89v-3.23Zm-12.62-3.7c0-5.05,1.35-7,5.41-7s5.29,2.19,5.29,6.76v2.23h-10.7Z" transform="translate(-36.38 -66.93)"/><path class="cls-6" d="M167.6,541.18c0-5.7,3.43-8.8,9.84-8.8,6.25,0,10.15,2.39,10.67,9.16h-6.85c-.28-2.27-1.28-3.19-3.86-3.19-2.23,0-3,1-3,2.59,0,2,1.12,2.95,4.26,3.66,4.58,1.12,10.07,2.47,10.07,9.72,0,5.69-2.9,9.35-11,9.35s-10.66-4.42-10.66-9.27h6.84c.08,2,1.08,3.3,4.14,3.3,2.59,0,3.75-1.08,3.75-3.19s-1.32-3.1-5.58-4.1S167.6,548,167.6,541.18Z" transform="translate(-36.38 -66.93)"/><path class="cls-6" d="M207.66,556.31v.23c0,4.66-2,7.13-7.24,7.13-5.06,0-7.37-2.31-7.37-8.8v-6.76c0-6.49,2.51-8.72,7.53-8.72s7,2.42,7,6.92v.24h-1.91v-.24c0-3.14-1.11-5.13-5.13-5.13s-5.5,1.91-5.5,6.93v6.68c0,4.86,1.16,7.13,5.42,7.13s5.33-2.19,5.33-5.38v-.23Z" transform="translate(-36.38 -66.93)"/><rect class="cls-6" x="175.55" y="465.09" width="2.03" height="2.63"/><rect class="cls-6" x="175.59" y="472.93" width="1.95" height="23.33"/><path class="cls-6" d="M233.15,551.81v-3.9c0-5.86-2.15-8.52-7.21-8.52s-7.36,2.47-7.36,8.83V555c0,6.33,2.3,8.68,7.48,8.68,4.74,0,6.85-2.15,6.89-6.53h-1.87c-.08,3.19-1.36,4.78-5.06,4.78-4.14,0-5.49-2.11-5.49-6.89v-3.22Zm-12.62-3.7c0-5.06,1.35-7,5.41-7s5.3,2.19,5.3,6.77v2.23H220.53Z" transform="translate(-36.38 -66.93)"/><path class="cls-6" d="M239.48,539.86l.16,2.31c1.11-1.67,3.18-2.78,6.05-2.78,5.37,0,6.85,3.06,6.85,8.36v15.44h-1.95V547.87c0-4.62-1.2-6.69-5.38-6.69-3.22,0-5.53,1.91-5.53,5.49v16.52h-2V539.86Z" transform="translate(-36.38 -66.93)"/><path class="cls-6" d="M271.45,556.31v.23c0,4.66-2,7.13-7.25,7.13-5.05,0-7.36-2.31-7.36-8.8v-6.76c0-6.49,2.51-8.72,7.52-8.72s7,2.42,7,6.92v.24h-1.91v-.24c0-3.14-1.12-5.13-5.14-5.13s-5.49,1.91-5.49,6.93v6.68c0,4.86,1.15,7.13,5.41,7.13s5.34-2.19,5.34-5.38v-.23Z" transform="translate(-36.38 -66.93)"/><path class="cls-6" d="M289.56,551.81v-3.9c0-5.86-2.15-8.52-7.2-8.52s-7.37,2.47-7.37,8.83V555c0,6.33,2.31,8.68,7.49,8.68,4.74,0,6.85-2.15,6.89-6.53h-1.88c-.08,3.19-1.35,4.78-5.05,4.78-4.14,0-5.5-2.11-5.5-6.89v-3.22Zm-12.62-3.7c0-5.06,1.36-7,5.42-7s5.29,2.19,5.29,6.77v2.23H276.94Z" transform="translate(-36.38 -66.93)"/><path class="cls-6" d="M307.6,556.86c0,4.22-2.35,6.81-7.44,6.81s-7.45-2.07-7.45-6.65h1.87c0,3.07,1.48,4.94,5.58,4.94,3.62,0,5.53-1.63,5.53-5,0-3.82-2.59-4.54-6.09-5.21s-6.25-1.75-6.25-6.33c0-3.54,2.15-6.05,7-6.05s7,2.27,7,6.21h-1.87c-.12-3-1.43-4.5-5.13-4.5s-5.1,1.63-5.1,4.26c0,3.34,1.79,4.06,5,4.7C303.94,550.81,307.6,551.77,307.6,556.86Z" transform="translate(-36.38 -66.93)"/><path class="cls-7" d="M1438.2,450.18V426h-7v-6.17h21V426h-7.09v24.17Zm20.42-23.33.2,2.83a6.59,6.59,0,0,1,5.81-3.19,9.31,9.31,0,0,1,1.16.08v2a10.9,10.9,0,0,0-1.28-.08c-3.26,0-5.69,2.07-5.69,6v15.69h-2V426.85Zm23.05,23.33-.08-2.91a7,7,0,0,1-6.45,3.39c-3.86,0-6.49-2-6.49-6.49s2.63-6.81,8.68-6.81a31,31,0,0,1,4.22.36v-3.9c0-4-1.51-5.7-5-5.7-3.31,0-5.3,1.28-5.3,5.54h-1.79c0-4.9,2.15-7.29,7.13-7.29,4.46,0,6.92,2.11,6.92,7.45v16.36Zm-.12-10.79a33.83,33.83,0,0,0-4.34-.36c-4.81,0-6.53,1.71-6.53,5.06,0,3.14,1.56,4.85,4.82,4.85s6-2,6-6.21Zm9.72-12.54.16,2.31c1.11-1.67,3.18-2.79,6-2.79,5.37,0,6.85,3.07,6.85,8.36v15.45h-1.95V434.85c0-4.62-1.2-6.69-5.38-6.69-3.22,0-5.53,1.91-5.53,5.5v16.52h-2V426.85Zm32.65,17c0,4.22-2.35,6.81-7.45,6.81-4.93,0-7.44-2.07-7.44-6.65h1.87c0,3.06,1.47,4.93,5.57,4.93,3.63,0,5.54-1.63,5.54-5,0-3.82-2.59-4.54-6.09-5.22s-6.25-1.75-6.25-6.33c0-3.54,2.14-6.05,7-6.05s7,2.27,7,6.21h-1.87c-.12-2.94-1.44-4.5-5.14-4.5s-5.09,1.64-5.09,4.26c0,3.35,1.79,4.06,5,4.7C1520.25,437.8,1523.92,438.75,1523.92,443.85Zm10.91,6.41c-5,.51-5.82-1.44-5.82-6.57V419.44h2v24.41c0,4.26.55,4.78,3.86,4.74Zm16.56-.08-.08-2.91a7,7,0,0,1-6.45,3.39c-3.86,0-6.49-2-6.49-6.49s2.63-6.81,8.68-6.81a31,31,0,0,1,4.22.36v-3.9c0-4-1.51-5.7-5.06-5.7-3.3,0-5.29,1.28-5.29,5.54h-1.79c0-4.9,2.15-7.29,7.12-7.29,4.46,0,6.93,2.11,6.93,7.45v16.36Zm-.12-10.79a33.83,33.83,0,0,0-4.34-.36c-4.82,0-6.53,1.71-6.53,5.06,0,3.14,1.56,4.85,4.82,4.85s6-2,6-6.21Zm15.49,9.2v1.79a10.11,10.11,0,0,1-2.35.28c-4.22,0-5.57-2.15-5.57-6.73V421.79h2v5.54h5.89v1.75h-5.89v14.85c0,4,1.15,4.89,3.9,4.89A10.53,10.53,0,0,0,1566.76,448.59Zm7.09-27h-2V419h2Zm0,28.55h-2V426.85h2Zm20.66-15v6.69c0,6.77-2.31,8.8-7.44,8.8s-7.49-2-7.49-8.8v-6.69c0-6.77,2.31-8.8,7.49-8.8S1594.47,428.4,1594.47,435.17Zm-12.94,6.61c0,5.53,1.32,7.12,5.5,7.12s5.45-1.59,5.45-7.12v-6.53c0-5.5-1.31-7.09-5.45-7.09s-5.5,1.59-5.5,7.09ZM1602,426.85l.16,2.31c1.11-1.67,3.18-2.79,6.05-2.79,5.37,0,6.84,3.07,6.84,8.36v15.45h-2V434.85c0-4.62-1.19-6.69-5.37-6.69-3.23,0-5.53,1.91-5.53,5.5v16.52h-2V426.85Zm31.37,23.33-.08-2.91a7,7,0,0,1-6.45,3.39c-3.86,0-6.49-2-6.49-6.49s2.63-6.81,8.68-6.81a31.09,31.09,0,0,1,4.22.36v-3.9c0-4-1.51-5.7-5.06-5.7-3.3,0-5.29,1.28-5.29,5.54h-1.79c0-4.9,2.15-7.29,7.12-7.29,4.46,0,6.93,2.11,6.93,7.45v16.36Zm-.12-10.79a33.83,33.83,0,0,0-4.34-.36c-4.82,0-6.53,1.71-6.53,5.06,0,3.14,1.55,4.85,4.82,4.85s6-2,6-6.21Zm13.62,10.87c-5,.51-5.81-1.44-5.81-6.57V419.44h2v24.41c0,4.26.55,4.78,3.86,4.74Zm30.34-15.33v8.84c0,4,1.07,5,3.7,5a7.79,7.79,0,0,0,1.83-.19v1.79a8.9,8.9,0,0,1-2.07.24c-3.1,0-4.42-1.16-4.9-3.31-.91,1.87-3.18,3.39-6.72,3.39-5.42,0-8.21-3.35-8.21-8.52,0-4.86,2.63-7.21,5.46-8-3.34-1-4.78-3.74-4.78-7.12,0-5.22,3.39-7.69,8.08-7.69,4.42,0,7.77,2.23,8.12,7.17h-2c-.31-4.06-3.14-5.49-6.13-5.49s-6.13,1.51-6.13,6c0,3.22,1.75,6.21,6.41,6.21h11.91v1.63Zm-1.91,0h-5.18c-3.42,0-7.32,1.43-7.32,7.13,0,3.86,1.91,6.8,6.41,6.8s6.09-2.62,6.09-6.68Zm-211.8,69.74h-6.93V474.33h6.93Zm7.45-23.33.15,2.31c1.12-1.68,3.19-2.79,6.06-2.79,5.37,0,6.84,3.06,6.84,8.36v15.45h-2V489.34c0-4.62-1.19-6.69-5.37-6.69-3.23,0-5.54,1.91-5.54,5.49v16.53h-1.95V481.34Zm29.66,21.73v1.79a10.18,10.18,0,0,1-2.35.28c-4.22,0-5.58-2.15-5.58-6.72V476.28h2v5.53h5.9v1.76h-5.9v14.85c0,4,1.16,4.89,3.91,4.89A9.83,9.83,0,0,0,1500.57,503.07Zm21.58-4.46c0,4.38-2.15,6.53-6.89,6.53-5.18,0-7.49-2.35-7.49-8.68V489.7c0-6.37,2.43-8.84,7.37-8.84s7.2,2.67,7.2,8.52v3.9h-12.62v3.22c0,4.78,1.36,6.89,5.5,6.89,3.7,0,5-1.59,5-4.78Zm-12.43-9v2h10.71v-2.23c0-4.58-1.11-6.77-5.29-6.77S1509.72,484.52,1509.72,489.58Zm33.37,14.09v-1.59c-1.2,1.87-3.27,2.74-6,2.74-4.78,0-6.93-3.14-6.93-8.83v-6.41c0-6.49,3.19-8.72,7.21-8.72a6.55,6.55,0,0,1,5.73,2.75l.12-2.27h1.83v22.13c0,7.13-2.47,9.28-7.6,9.28-4.5,0-6.53-1.79-6.73-5.74h1.87c.16,2.51,1.39,4,4.9,4C1541.85,511,1543.09,509,1543.09,503.67Zm-10.91-7.6c0,4.61,1.59,7,5.37,7,3.27,0,5.54-1.95,5.54-5.53v-8.76c0-4.58-2.39-6.13-5.42-6.13-3.3,0-5.49,1.79-5.49,7.09Zm24.09-14.73.2,2.82a6.6,6.6,0,0,1,5.81-3.18,9.31,9.31,0,0,1,1.16.08v2a10.9,10.9,0,0,0-1.28-.08c-3.26,0-5.69,2.07-5.69,6v15.69h-2V481.34Zm26,23.33-.08-2.91a7.06,7.06,0,0,1-6.45,3.38c-3.86,0-6.49-2-6.49-6.49s2.63-6.8,8.68-6.8a31.23,31.23,0,0,1,4.22.36V488.3c0-4-1.52-5.69-5.06-5.69-3.3,0-5.29,1.27-5.29,5.53H1570c0-4.89,2.15-7.28,7.12-7.28,4.46,0,6.93,2.11,6.93,7.44v16.37Zm-.12-10.79a34.12,34.12,0,0,0-4.34-.36c-4.82,0-6.53,1.71-6.53,5.05,0,3.15,1.55,4.86,4.82,4.86s6.05-2,6.05-6.21Zm18.43,9.19v1.79a10,10,0,0,1-2.35.28c-4.22,0-5.57-2.15-5.57-6.72V476.28h2v5.53h5.89v1.76h-5.89v14.85c0,4,1.16,4.89,3.9,4.89A9.66,9.66,0,0,0,1600.58,503.07Zm10-26.95h-2v-2.63h2Zm0,28.55h-1.95V481.34h1.95Zm9.23-23.33,6,21,6.09-21h2.19l-7,23.33h-2.59l-7-23.33Zm34.8,17.27c0,4.38-2.15,6.53-6.89,6.53-5.17,0-7.48-2.35-7.48-8.68V489.7c0-6.37,2.43-8.84,7.36-8.84s7.21,2.67,7.21,8.52v3.9h-12.62v3.22c0,4.78,1.35,6.89,5.49,6.89,3.71,0,5-1.59,5.06-4.78Zm-12.42-9v2h10.71v-2.23c0-4.58-1.11-6.77-5.3-6.77S1642.19,484.52,1642.19,489.58Zm-210.62,48.1c0-5.69,3.42-8.8,9.83-8.8,6.25,0,10.15,2.39,10.67,9.16h-6.85c-.28-2.27-1.27-3.18-3.86-3.18-2.23,0-3,1-3,2.58,0,2,1.11,2.95,4.26,3.67,4.57,1.11,10.07,2.46,10.07,9.71,0,5.69-2.91,9.35-11,9.35S1431,555.76,1431,550.9h6.85c.08,2,1.07,3.3,4.14,3.3,2.59,0,3.74-1.07,3.74-3.18s-1.31-3.11-5.57-4.1S1431.57,544.53,1431.57,537.68Zm40.06,15.13v.24c0,4.66-2,7.12-7.25,7.12-5.05,0-7.36-2.3-7.36-8.79v-6.77c0-6.49,2.51-8.72,7.52-8.72s7,2.43,7,6.93v.24h-1.91v-.24c0-3.15-1.12-5.14-5.14-5.14s-5.49,1.91-5.49,6.93v6.69c0,4.85,1.15,7.12,5.41,7.12s5.34-2.19,5.34-5.37v-.24Zm6.29-21.66h-2v-2.62h2Zm0,28.55h-2V536.37h2Zm19-6.05c0,4.38-2.15,6.52-6.88,6.52-5.18,0-7.49-2.34-7.49-8.67v-6.77c0-6.37,2.43-8.84,7.37-8.84s7.2,2.67,7.2,8.52v3.9h-12.62v3.23c0,4.77,1.35,6.88,5.5,6.88,3.7,0,5-1.59,5-4.77Zm-12.42-9v2h10.71v-2.23c0-4.58-1.11-6.77-5.29-6.77S1484.49,539.55,1484.49,544.61Zm19-8.24.16,2.31a7,7,0,0,1,6.05-2.79c5.38,0,6.85,3.07,6.85,8.36V559.7h-2V544.37c0-4.62-1.19-6.69-5.37-6.69-3.23,0-5.54,1.91-5.54,5.5V559.7h-2V536.37Zm32,16.44v.24c0,4.66-2,7.12-7.24,7.12s-7.37-2.3-7.37-8.79v-6.77c0-6.49,2.51-8.72,7.53-8.72s7,2.43,7,6.93v.24h-1.91v-.24c0-3.15-1.11-5.14-5.13-5.14s-5.5,1.91-5.5,6.93v6.69c0,4.85,1.16,7.12,5.42,7.12s5.33-2.19,5.33-5.37v-.24Zm17.92.84c0,4.38-2.15,6.52-6.89,6.52-5.17,0-7.48-2.34-7.48-8.67v-6.77c0-6.37,2.43-8.84,7.36-8.84s7.21,2.67,7.21,8.52v3.9h-12.62v3.23c0,4.77,1.35,6.88,5.49,6.88,3.71,0,5-1.59,5.06-4.77Zm-12.42-9v2h10.71v-2.23c0-4.58-1.12-6.77-5.3-6.77S1540.91,539.55,1540.91,544.61Zm30.66,8.76c0,4.22-2.35,6.8-7.45,6.8-4.94,0-7.44-2.06-7.44-6.64h1.87c0,3.06,1.47,4.93,5.57,4.93,3.62,0,5.53-1.63,5.53-5,0-3.82-2.58-4.54-6.09-5.22s-6.25-1.75-6.25-6.33c0-3.54,2.15-6.05,7-6.05s7,2.27,7,6.21h-1.87c-.12-2.94-1.44-4.5-5.14-4.5s-5.1,1.64-5.1,4.26c0,3.35,1.8,4.06,5,4.7C1567.9,547.32,1571.57,548.27,1571.57,553.37Z" transform="translate(-36.38 -66.93)"/><path class="cls-2" d="M831.86,454.19V430h-7v-6.17h21V430h-7.09v24.16Zm20.43-23.32.2,2.82a6.58,6.58,0,0,1,5.81-3.18,9.14,9.14,0,0,1,1.15.08v2a10.57,10.57,0,0,0-1.27-.08c-3.27,0-5.69,2.07-5.69,6v15.68h-2V430.87Zm23.05,23.32-.08-2.9a7.05,7.05,0,0,1-6.45,3.38c-3.86,0-6.49-2-6.49-6.49s2.63-6.8,8.68-6.8a32.88,32.88,0,0,1,4.22.35v-3.9c0-4-1.51-5.69-5.06-5.69-3.3,0-5.29,1.27-5.29,5.53h-1.79c0-4.89,2.15-7.28,7.12-7.28,4.46,0,6.93,2.11,6.93,7.44v16.36Zm-.12-10.78a34,34,0,0,0-4.34-.36c-4.82,0-6.53,1.71-6.53,5.05,0,3.15,1.55,4.86,4.82,4.86s6.05-2,6.05-6.21Zm9.72-12.54.16,2.31c1.11-1.68,3.18-2.79,6-2.79,5.37,0,6.84,3.06,6.84,8.36v15.44h-2V438.87c0-4.62-1.19-6.69-5.37-6.69-3.23,0-5.53,1.91-5.53,5.49v16.52h-2V430.87Zm32.64,17c0,4.21-2.35,6.8-7.44,6.8-4.94,0-7.45-2.07-7.45-6.65h1.88c0,3.07,1.47,4.94,5.57,4.94,3.62,0,5.53-1.63,5.53-5,0-3.82-2.58-4.53-6.09-5.21s-6.25-1.75-6.25-6.33c0-3.54,2.15-6.05,7-6.05s7,2.27,7,6.21h-1.88c-.12-3-1.43-4.5-5.13-4.5s-5.1,1.63-5.1,4.26c0,3.34,1.79,4.06,5,4.7C913.92,441.81,917.58,442.77,917.58,447.87Zm10.91,6.4c-5,.52-5.81-1.43-5.81-6.56V423.46h2v24.41c0,4.25.56,4.77,3.86,4.73Zm16.57-.08-.08-2.9a7.06,7.06,0,0,1-6.45,3.38c-3.86,0-6.49-2-6.49-6.49s2.63-6.8,8.68-6.8a32.88,32.88,0,0,1,4.22.35v-3.9c0-4-1.52-5.69-5.06-5.69-3.3,0-5.29,1.27-5.29,5.53H932.8c0-4.89,2.14-7.28,7.12-7.28,4.46,0,6.93,2.11,6.93,7.44v16.36Zm-.12-10.78a34.12,34.12,0,0,0-4.34-.36c-4.82,0-6.53,1.71-6.53,5.05,0,3.15,1.55,4.86,4.82,4.86s6.05-2,6.05-6.21Zm15.49,9.19v1.79a10.18,10.18,0,0,1-2.35.28c-4.22,0-5.58-2.15-5.58-6.73V425.81h2v5.53h5.9v1.76h-5.9v14.84c0,4,1.16,4.9,3.91,4.9A9.83,9.83,0,0,0,960.43,452.6Zm7.08-27h-2V423h2Zm0,28.54h-2V430.87h2Zm20.67-15v6.68c0,6.77-2.31,8.8-7.45,8.8s-7.48-2-7.48-8.8v-6.68c0-6.77,2.31-8.8,7.48-8.8S988.14,432.42,988.14,439.19Zm-12.94,6.6c0,5.54,1.31,7.13,5.49,7.13s5.46-1.59,5.46-7.13v-6.52c0-5.5-1.32-7.09-5.46-7.09s-5.49,1.59-5.49,7.09Zm20.42-14.92.16,2.31c1.12-1.68,3.19-2.79,6.05-2.79,5.38,0,6.85,3.06,6.85,8.36v15.44h-1.95V438.87c0-4.62-1.19-6.69-5.37-6.69-3.23,0-5.54,1.91-5.54,5.49v16.52h-2V430.87ZM1027,454.19l-.08-2.9a7.06,7.06,0,0,1-6.45,3.38c-3.86,0-6.49-2-6.49-6.49s2.63-6.8,8.68-6.8a32.88,32.88,0,0,1,4.22.35v-3.9c0-4-1.52-5.69-5.06-5.69-3.3,0-5.29,1.27-5.29,5.53h-1.8c0-4.89,2.15-7.28,7.13-7.28,4.46,0,6.93,2.11,6.93,7.44v16.36Zm-.12-10.78a34.12,34.12,0,0,0-4.34-.36c-4.82,0-6.53,1.71-6.53,5.05,0,3.15,1.55,4.86,4.82,4.86s6.05-2,6.05-6.21Zm13.61,10.86c-5,.52-5.81-1.43-5.81-6.56V423.46h2v24.41c0,4.25.56,4.77,3.86,4.73ZM1070.83,439v8.84c0,4,1.08,5,3.71,5a7.8,7.8,0,0,0,1.83-.2v1.79a9,9,0,0,1-2.07.24c-3.11,0-4.42-1.15-4.9-3.3-.92,1.87-3.18,3.38-6.73,3.38-5.41,0-8.2-3.34-8.2-8.52,0-4.85,2.63-7.2,5.46-8-3.35-1-4.78-3.74-4.78-7.13,0-5.21,3.38-7.68,8.08-7.68,4.42,0,7.76,2.23,8.12,7.17h-2c-.32-4.06-3.14-5.5-6.13-5.5s-6.13,1.52-6.13,6.06c0,3.22,1.75,6.21,6.41,6.21h11.9V439Zm-1.91,0h-5.17c-3.43,0-7.33,1.43-7.33,7.12,0,3.87,1.91,6.81,6.41,6.81s6.09-2.63,6.09-6.69ZM857.13,508.68H850.2V478.35h6.93Zm7.44-23.33.16,2.31c1.12-1.67,3.19-2.78,6-2.78,5.38,0,6.85,3.06,6.85,8.36v15.44h-2V493.36c0-4.62-1.2-6.69-5.38-6.69-3.22,0-5.53,1.91-5.53,5.49v16.52h-1.95V485.35Zm29.66,21.74v1.79a10,10,0,0,1-2.35.28c-4.22,0-5.57-2.15-5.57-6.73V480.3h2v5.53h5.89v1.75H888.3v14.85c0,4,1.16,4.9,3.9,4.9A9.66,9.66,0,0,0,894.23,507.09Zm21.58-4.46c0,4.38-2.15,6.53-6.88,6.53-5.18,0-7.49-2.35-7.49-8.68v-6.77c0-6.37,2.43-8.83,7.37-8.83s7.2,2.66,7.2,8.52v3.9H903.39v3.22c0,4.78,1.35,6.89,5.5,6.89,3.7,0,5-1.59,5.05-4.78Zm-12.42-9v2H914.1V493.4c0-4.58-1.11-6.77-5.29-6.77S903.39,488.54,903.39,493.59Zm33.37,14.1v-1.6c-1.2,1.88-3.27,2.75-6,2.75-4.77,0-6.92-3.14-6.92-8.84v-6.41c0-6.48,3.18-8.71,7.2-8.71a6.57,6.57,0,0,1,5.74,2.74l.11-2.27h1.84v22.14c0,7.12-2.47,9.27-7.61,9.27-4.5,0-6.53-1.79-6.73-5.73h1.87c.16,2.51,1.4,4,4.9,4C935.52,515.05,936.76,513,936.76,507.69Zm-10.91-7.61c0,4.62,1.59,7,5.37,7,3.27,0,5.54-1.95,5.54-5.53V492.8c0-4.58-2.39-6.13-5.42-6.13-3.3,0-5.49,1.79-5.49,7.08Zm24.09-14.73.2,2.83A6.58,6.58,0,0,1,956,485a9.33,9.33,0,0,1,1.15.07v2a10.72,10.72,0,0,0-1.27-.08c-3.27,0-5.69,2.07-5.69,6v15.68h-2V485.35Zm26,23.33-.08-2.9a7,7,0,0,1-6.45,3.38c-3.86,0-6.48-2-6.48-6.49s2.62-6.81,8.67-6.81a31,31,0,0,1,4.22.36v-3.9c0-4-1.51-5.69-5-5.69-3.31,0-5.3,1.27-5.3,5.53h-1.79c0-4.9,2.15-7.28,7.13-7.28,4.46,0,6.93,2.11,6.93,7.44v16.36Zm-.12-10.79a33.74,33.74,0,0,0-4.33-.35c-4.82,0-6.53,1.71-6.53,5,0,3.15,1.55,4.86,4.81,4.86s6-2,6-6.21Zm18.44,9.2v1.79a10.11,10.11,0,0,1-2.35.28c-4.22,0-5.57-2.15-5.57-6.73V480.3h2v5.53h5.89v1.75h-5.89v14.85c0,4,1.15,4.9,3.9,4.9A9.75,9.75,0,0,0,994.25,507.09Zm10-26.95h-2v-2.63h2Zm0,28.54h-2V485.35h2Zm9.24-23.33,6,21,6.09-21h2.19l-7,23.33h-2.59l-7-23.33Zm34.8,17.28c0,4.38-2.15,6.53-6.89,6.53-5.17,0-7.48-2.35-7.48-8.68v-6.77c0-6.37,2.42-8.83,7.36-8.83s7.21,2.66,7.21,8.52v3.9h-12.62v3.22c0,4.78,1.35,6.89,5.49,6.89,3.7,0,5-1.59,5.06-4.78Zm-12.42-9v2h10.71V493.4c0-4.58-1.12-6.77-5.3-6.77S1035.86,488.54,1035.86,493.59ZM825.23,541.7c0-5.69,3.43-8.8,9.84-8.8,6.25,0,10.15,2.39,10.67,9.16h-6.85c-.28-2.27-1.27-3.19-3.86-3.19-2.23,0-3,1-3,2.59,0,2,1.12,2.95,4.26,3.66,4.58,1.12,10.07,2.47,10.07,9.72,0,5.69-2.9,9.35-11,9.35s-10.67-4.42-10.67-9.27h6.84c.08,2,1.08,3.3,4.14,3.3,2.59,0,3.75-1.07,3.75-3.18s-1.32-3.11-5.58-4.1S825.23,548.55,825.23,541.7Zm40.07,15.13v.24c0,4.65-2,7.12-7.25,7.12-5.06,0-7.36-2.31-7.36-8.8v-6.76c0-6.49,2.5-8.72,7.52-8.72s7,2.43,7,6.93v.23h-1.91v-.23c0-3.15-1.12-5.14-5.14-5.14s-5.49,1.91-5.49,6.93v6.68c0,4.86,1.15,7.13,5.41,7.13s5.34-2.19,5.34-5.37v-.24Zm6.29-21.66h-2v-2.63h2Zm0,28.54H869.6V540.39h1.95Zm19-6.05c0,4.38-2.15,6.53-6.89,6.53-5.17,0-7.48-2.35-7.48-8.68v-6.76c0-6.37,2.43-8.84,7.36-8.84s7.21,2.67,7.21,8.52v3.9H878.16v3.22c0,4.78,1.35,6.89,5.49,6.89,3.7,0,5-1.59,5.06-4.78Zm-12.42-9v2h10.71v-2.23c0-4.58-1.12-6.77-5.3-6.77S878.16,543.57,878.16,548.63Zm19-8.24.16,2.3c1.11-1.67,3.18-2.78,6.05-2.78,5.37,0,6.85,3.06,6.85,8.36v15.44h-1.95V548.39c0-4.62-1.2-6.69-5.38-6.69-3.22,0-5.53,1.91-5.53,5.49v16.52h-1.95V540.39Zm32,16.44v.24c0,4.65-2,7.12-7.25,7.12-5.05,0-7.36-2.31-7.36-8.8v-6.76c0-6.49,2.51-8.72,7.52-8.72s7,2.43,7,6.93v.23h-1.91v-.23c0-3.15-1.11-5.14-5.14-5.14s-5.49,1.91-5.49,6.93v6.68c0,4.86,1.15,7.13,5.41,7.13s5.34-2.19,5.34-5.37v-.24Zm17.92.83c0,4.38-2.15,6.53-6.89,6.53-5.18,0-7.48-2.35-7.48-8.68v-6.76c0-6.37,2.42-8.84,7.36-8.84s7.21,2.67,7.21,8.52v3.9H934.58v3.22c0,4.78,1.35,6.89,5.49,6.89,3.7,0,5-1.59,5.06-4.78Zm-12.42-9v2h10.7v-2.23c0-4.58-1.11-6.77-5.29-6.77S934.58,543.57,934.58,548.63Zm30.65,8.76c0,4.22-2.35,6.8-7.44,6.8-4.94,0-7.45-2.07-7.45-6.65h1.87c0,3.07,1.48,4.94,5.58,4.94,3.62,0,5.53-1.63,5.53-5,0-3.82-2.59-4.53-6.09-5.21S951,550.54,951,546c0-3.54,2.15-6.05,7-6.05s7,2.27,7,6.21h-1.87c-.12-3-1.43-4.5-5.13-4.5s-5.1,1.63-5.1,4.26c0,3.34,1.79,4.06,5,4.7C961.57,551.33,965.23,552.29,965.23,557.39Z" transform="translate(-36.38 -66.93)"/><path class="cls-13" d="M2039.57,453.67V429.51h-7v-6.17h21v6.17h-7.09v24.16ZM2060,430.34l.2,2.83A6.58,6.58,0,0,1,2066,430a9.31,9.31,0,0,1,1.16.08v2a10.9,10.9,0,0,0-1.28-.08c-3.26,0-5.69,2.07-5.69,6v15.68h-1.95V430.34Zm23.05,23.33-.08-2.9a7,7,0,0,1-6.45,3.38c-3.86,0-6.49-2-6.49-6.49s2.63-6.81,8.68-6.81a31,31,0,0,1,4.22.36v-3.9c0-4-1.51-5.69-5-5.69-3.31,0-5.3,1.27-5.3,5.53h-1.79c0-4.89,2.15-7.28,7.13-7.28,4.45,0,6.92,2.11,6.92,7.44v16.36Zm-.12-10.79a35.64,35.64,0,0,0-4.34-.35c-4.82,0-6.53,1.71-6.53,5.05,0,3.15,1.56,4.86,4.82,4.86s6-2,6-6.21Zm9.72-12.54.16,2.31c1.11-1.67,3.18-2.78,6.05-2.78,5.37,0,6.85,3.06,6.85,8.36v15.44h-2V438.35c0-4.62-1.19-6.69-5.37-6.69-3.22,0-5.53,1.91-5.53,5.49v16.52h-1.95V430.34Zm32.64,17c0,4.22-2.34,6.81-7.44,6.81-4.94,0-7.44-2.07-7.44-6.65h1.87c0,3.07,1.47,4.94,5.57,4.94,3.62,0,5.53-1.63,5.53-5,0-3.82-2.58-4.54-6.09-5.21s-6.25-1.75-6.25-6.33c0-3.54,2.15-6.05,7-6.05s7,2.27,7,6.21h-1.87c-.12-2.95-1.44-4.5-5.14-4.5s-5.1,1.63-5.1,4.26c0,3.34,1.8,4.06,5,4.7C2121.63,441.29,2125.29,442.25,2125.29,447.34Zm10.92,6.41c-5,.52-5.82-1.43-5.82-6.57V422.94h2v24.4c0,4.26.56,4.78,3.87,4.74Zm16.56-.08-.08-2.9a7.05,7.05,0,0,1-6.45,3.38c-3.86,0-6.49-2-6.49-6.49s2.63-6.81,8.68-6.81a31.09,31.09,0,0,1,4.22.36v-3.9c0-4-1.51-5.69-5.06-5.69-3.3,0-5.29,1.27-5.29,5.53h-1.79c0-4.89,2.15-7.28,7.12-7.28,4.46,0,6.93,2.11,6.93,7.44v16.36Zm-.12-10.79a35.8,35.8,0,0,0-4.34-.35c-4.82,0-6.53,1.71-6.53,5.05,0,3.15,1.55,4.86,4.82,4.86s6.05-2,6.05-6.21Zm15.49,9.2v1.79a10.18,10.18,0,0,1-2.35.28c-4.22,0-5.57-2.15-5.57-6.73V425.29h2v5.53h5.89v1.75h-5.89v14.85c0,4,1.15,4.9,3.9,4.9A9.83,9.83,0,0,0,2168.14,452.08Zm7.09-26.95h-2V422.5h2Zm0,28.54h-2V430.34h2Zm20.66-15v6.68c0,6.77-2.31,8.8-7.45,8.8s-7.48-2-7.48-8.8v-6.68c0-6.77,2.31-8.8,7.48-8.8S2195.85,431.9,2195.85,438.67Zm-12.94,6.6c0,5.54,1.31,7.13,5.49,7.13s5.46-1.59,5.46-7.13v-6.53c0-5.49-1.32-7.08-5.46-7.08s-5.49,1.59-5.49,7.08Zm20.42-14.93.16,2.31c1.12-1.67,3.19-2.78,6.05-2.78,5.38,0,6.85,3.06,6.85,8.36v15.44h-1.95V438.35c0-4.62-1.19-6.69-5.37-6.69-3.23,0-5.54,1.91-5.54,5.49v16.52h-2V430.34Zm31.38,23.33-.08-2.9a7.06,7.06,0,0,1-6.45,3.38c-3.86,0-6.49-2-6.49-6.49s2.63-6.81,8.68-6.81a31.23,31.23,0,0,1,4.22.36v-3.9c0-4-1.51-5.69-5.06-5.69-3.3,0-5.29,1.27-5.29,5.53h-1.79c0-4.89,2.15-7.28,7.12-7.28,4.46,0,6.93,2.11,6.93,7.44v16.36Zm-.12-10.79a36,36,0,0,0-4.34-.35c-4.82,0-6.53,1.71-6.53,5.05,0,3.15,1.55,4.86,4.82,4.86s6.05-2,6.05-6.21Zm13.62,10.87c-5,.52-5.82-1.43-5.82-6.57V422.94h2v24.4c0,4.26.56,4.78,3.87,4.74Zm30.33-15.32v8.83c0,4,1.08,5,3.71,5a7.8,7.8,0,0,0,1.83-.2v1.79a9,9,0,0,1-2.07.24c-3.11,0-4.42-1.15-4.9-3.3-.91,1.87-3.18,3.38-6.73,3.38-5.41,0-8.2-3.34-8.2-8.52,0-4.86,2.63-7.2,5.46-8-3.35-1-4.78-3.74-4.78-7.13,0-5.21,3.38-7.68,8.08-7.68,4.42,0,7.76,2.23,8.12,7.17h-2c-.32-4.06-3.14-5.5-6.13-5.5s-6.13,1.51-6.13,6.05c0,3.23,1.75,6.21,6.41,6.21h11.9v1.64Zm-1.91,0h-5.17c-3.42,0-7.33,1.43-7.33,7.12,0,3.86,1.91,6.81,6.41,6.81s6.09-2.63,6.09-6.69Zm-211.79,69.73h-6.93V477.83h6.93Zm7.44-23.33.16,2.31a7,7,0,0,1,6-2.79c5.38,0,6.85,3.07,6.85,8.36v15.45h-2V492.83c0-4.61-1.19-6.68-5.37-6.68-3.23,0-5.54,1.91-5.54,5.49v16.52h-1.95V484.83Zm29.66,21.74v1.79a10,10,0,0,1-2.34.28c-4.22,0-5.58-2.15-5.58-6.73V479.78h2v5.53h5.89v1.75H2096v14.85c0,4,1.16,4.9,3.9,4.9A9.66,9.66,0,0,0,2101.94,506.57Zm21.58-4.46c0,4.38-2.15,6.53-6.88,6.53-5.18,0-7.49-2.35-7.49-8.68v-6.77c0-6.37,2.43-8.84,7.37-8.84s7.2,2.67,7.2,8.52v3.9H2111.1V500c0,4.78,1.36,6.89,5.5,6.89,3.7,0,5-1.6,5.05-4.78Zm-12.42-9v2h10.71v-2.23c0-4.57-1.11-6.76-5.29-6.76S2111.1,488,2111.1,493.07Zm33.37,14.1v-1.6c-1.2,1.87-3.27,2.75-6,2.75-4.78,0-6.93-3.14-6.93-8.84v-6.41c0-6.49,3.18-8.72,7.2-8.72a6.58,6.58,0,0,1,5.74,2.75l.12-2.27h1.83V507c0,7.12-2.47,9.27-7.61,9.27-4.5,0-6.53-1.79-6.72-5.73H2134c.16,2.51,1.39,4,4.89,4C2143.23,514.53,2144.47,512.5,2144.47,507.17Zm-10.91-7.61c0,4.62,1.59,7,5.37,7,3.27,0,5.54-1.95,5.54-5.54v-8.75c0-4.58-2.39-6.13-5.42-6.13-3.3,0-5.49,1.79-5.49,7.08Zm24.09-14.73.2,2.83a6.59,6.59,0,0,1,5.81-3.19,9.14,9.14,0,0,1,1.15.08v2a10.57,10.57,0,0,0-1.27-.08c-3.27,0-5.69,2.07-5.69,6v15.68h-1.95V484.83Zm26,23.33-.08-2.91a7.07,7.07,0,0,1-6.45,3.39c-3.87,0-6.49-2-6.49-6.49s2.62-6.81,8.68-6.81a31.23,31.23,0,0,1,4.22.36v-3.9c0-4-1.52-5.69-5.06-5.69-3.3,0-5.3,1.27-5.3,5.53h-1.79c0-4.9,2.15-7.29,7.13-7.29,4.46,0,6.93,2.11,6.93,7.45v16.36Zm-.12-10.79a34.12,34.12,0,0,0-4.34-.36c-4.82,0-6.53,1.72-6.53,5.06,0,3.15,1.55,4.86,4.81,4.86s6.06-2,6.06-6.21Zm18.43,9.2v1.79a10.11,10.11,0,0,1-2.35.28c-4.22,0-5.57-2.15-5.57-6.73V479.78h2v5.53h5.89v1.75H2196v14.85c0,4,1.15,4.9,3.9,4.9A9.75,9.75,0,0,0,2202,506.57Zm10-26.95h-2V477h2Zm0,28.54h-2V484.83h2Zm9.23-23.33,6,21,6.09-21h2.19l-7,23.33h-2.59l-7-23.33Zm34.8,17.28c0,4.38-2.15,6.53-6.89,6.53-5.17,0-7.48-2.35-7.48-8.68v-6.77c0-6.37,2.43-8.84,7.36-8.84s7.21,2.67,7.21,8.52v3.9h-12.62V500c0,4.78,1.35,6.89,5.49,6.89,3.7,0,5-1.6,5.06-4.78Zm-12.42-9v2h10.71v-2.23c0-4.57-1.12-6.76-5.3-6.76S2243.57,488,2243.57,493.07ZM2033,541.18c0-5.7,3.42-8.8,9.83-8.8,6.25,0,10.15,2.39,10.67,9.16h-6.85c-.28-2.27-1.27-3.19-3.86-3.19-2.23,0-3,1-3,2.59,0,2,1.12,2.95,4.26,3.66,4.58,1.12,10.07,2.47,10.07,9.72,0,5.69-2.9,9.35-11,9.35s-10.67-4.42-10.67-9.27h6.85c.08,2,1.07,3.3,4.14,3.3,2.58,0,3.74-1.08,3.74-3.19s-1.32-3.1-5.58-4.1S2033,548,2033,541.18ZM2073,556.31v.23c0,4.66-2,7.13-7.25,7.13-5.05,0-7.36-2.31-7.36-8.8v-6.76c0-6.49,2.51-8.72,7.52-8.72s7,2.42,7,6.92v.24H2071v-.24c0-3.14-1.12-5.13-5.14-5.13s-5.49,1.91-5.49,6.93v6.68c0,4.86,1.15,7.13,5.41,7.13s5.34-2.19,5.34-5.38v-.23Zm6.29-21.66h-2V532h2Zm0,28.54h-2V539.86h2Zm19-6.05c0,4.38-2.15,6.53-6.89,6.53-5.17,0-7.48-2.35-7.48-8.68v-6.77c0-6.36,2.43-8.83,7.36-8.83s7.21,2.66,7.21,8.52v3.9h-12.62V555c0,4.78,1.35,6.89,5.49,6.89,3.71,0,5-1.59,5.06-4.78Zm-12.42-9v2h10.71v-2.23c0-4.58-1.12-6.77-5.3-6.77S2085.87,543.05,2085.87,548.11Zm19-8.25.16,2.31c1.11-1.67,3.19-2.78,6.05-2.78,5.38,0,6.85,3.06,6.85,8.36v15.44h-2V547.87c0-4.62-1.2-6.69-5.38-6.69-3.22,0-5.53,1.91-5.53,5.49v16.52h-1.95V539.86Zm32,16.45v.23c0,4.66-2,7.13-7.24,7.13s-7.37-2.31-7.37-8.8v-6.76c0-6.49,2.51-8.72,7.53-8.72s7,2.42,7,6.92v.24h-1.91v-.24c0-3.14-1.11-5.13-5.13-5.13s-5.5,1.91-5.5,6.93v6.68c0,4.86,1.16,7.13,5.42,7.13s5.33-2.19,5.33-5.38v-.23Zm17.92.83c0,4.38-2.15,6.53-6.89,6.53-5.17,0-7.48-2.35-7.48-8.68v-6.77c0-6.36,2.42-8.83,7.36-8.83s7.21,2.66,7.21,8.52v3.9h-12.62V555c0,4.78,1.35,6.89,5.49,6.89,3.7,0,5-1.59,5.06-4.78Zm-12.42-9v2H2153v-2.23c0-4.58-1.12-6.77-5.3-6.77S2142.29,543.05,2142.29,548.11Zm30.65,8.75c0,4.22-2.35,6.81-7.44,6.81-4.94,0-7.45-2.07-7.45-6.65h1.88c0,3.07,1.47,4.94,5.57,4.94,3.62,0,5.53-1.63,5.53-5,0-3.82-2.58-4.54-6.09-5.21s-6.25-1.75-6.25-6.33c0-3.54,2.15-6.05,7-6.05s7,2.27,7,6.21h-1.88c-.12-3-1.43-4.5-5.13-4.5s-5.1,1.63-5.1,4.26c0,3.34,1.79,4.06,5,4.7C2169.28,550.81,2172.94,551.77,2172.94,556.86Z" transform="translate(-36.38 -66.93)"/><path class="cls-6" d="M337.87,563.31h-17V532.63h7.38v23.43h9.63Z" transform="translate(-36.38 -66.93)"/><text class="cls-14" transform="translate(959.64 172.84) rotate(-90) scale(0.92 1)">TIS<tspan class="cls-15" x="88.4" y="0">L</tspan><tspan class="cls-5" x="118.91" y="0">ab</tspan></text><text class="cls-16" transform="translate(1737.72 172.84) rotate(-90) scale(0.92 1)">TIS<tspan class="cls-17" x="88.4" y="0">L</tspan><tspan class="cls-3" x="118.91" y="0">ab</tspan></text><text class="cls-18" transform="translate(1343.78 172.84) rotate(-90) scale(0.92 1)">TIS<tspan class="cls-19" x="88.4" y="0">L</tspan><tspan x="118.91" y="0">ab</tspan></text><text class="cls-20" transform="translate(2095.71 172.84) rotate(-90) scale(0.92 1)">TIS<tspan class="cls-21" x="88.4" y="0">L</tspan><tspan class="cls-8" x="118.91" y="0">ab</tspan></text><path class="cls-6" d="M356.05,563.69l-.08-3a7.26,7.26,0,0,1-6.66,3.54c-4,0-6.7-2.12-6.7-6.79s2.71-7.12,9-7.12a31.73,31.73,0,0,1,4.36.38v-4.08c0-4.17-1.57-6-5.22-6-3.42,0-5.47,1.34-5.47,5.79h-1.85c0-5.12,2.22-7.62,7.36-7.62,4.6,0,7.15,2.21,7.15,7.79v17.11Zm-.12-11.28a34.58,34.58,0,0,0-4.48-.38c-5,0-6.75,1.79-6.75,5.29,0,3.29,1.61,5.08,5,5.08s6.25-2.12,6.25-6.49Z" transform="translate(-36.38 -66.93)"/><path class="cls-6" d="M380.88,555.07c0,6.79-3.29,9.12-7.44,9.12a6.74,6.74,0,0,1-5.92-2.87l-.16,2.37h-1.85V531.55h2v10.2c1.19-2,3.37-3,6.21-3,4.93,0,7.15,3.29,7.15,9.25ZM378.83,548c0-4.83-1.65-7.33-5.55-7.33-3.38,0-5.72,2-5.72,5.79v9.5c0,4.78,2.47,6.41,5.59,6.41,3.41,0,5.68-1.88,5.68-7.41Z" transform="translate(-36.38 -66.93)"/><path class="cls-2" d="M995,564.19H978V533.51h7.38v23.43H995Z" transform="translate(-36.38 -66.93)"/><path class="cls-2" d="M1013.17,563.69l-.08-3a7.26,7.26,0,0,1-6.66,3.54c-4,0-6.7-2.12-6.7-6.79s2.71-7.12,9-7.12a31.73,31.73,0,0,1,4.36.38v-4.08c0-4.17-1.57-6-5.22-6-3.42,0-5.47,1.34-5.47,5.79h-1.85c0-5.12,2.22-7.62,7.36-7.62,4.6,0,7.15,2.21,7.15,7.79v17.11Zm-.12-11.28a34.58,34.58,0,0,0-4.48-.38c-5,0-6.75,1.79-6.75,5.29,0,3.29,1.61,5.08,5,5.08s6.25-2.12,6.25-6.49Z" transform="translate(-36.38 -66.93)"/><path class="cls-2" d="M1038,555.07c0,6.79-3.29,9.12-7.44,9.12a6.74,6.74,0,0,1-5.92-2.87l-.16,2.37h-1.85V531.55h2v10.2c1.19-2,3.37-3,6.21-3,4.93,0,7.15,3.29,7.15,9.25Zm-2-7.12c0-4.83-1.65-7.33-5.55-7.33-3.38,0-5.72,2-5.72,5.79v9.5c0,4.78,2.47,6.41,5.59,6.41,3.41,0,5.68-1.88,5.68-7.41Z" transform="translate(-36.38 -66.93)"/><path class="cls-7" d="M1601.85,560.17h-17V529.49h7.38v23.44h9.62Z" transform="translate(-36.38 -66.93)"/><path class="cls-7" d="M1620,559.68l-.08-3a7.26,7.26,0,0,1-6.66,3.53c-4,0-6.7-2.12-6.7-6.78s2.71-7.12,9-7.12a31.68,31.68,0,0,1,4.36.37v-4.08c0-4.16-1.57-5.95-5.22-5.95-3.42,0-5.47,1.33-5.47,5.78h-1.85c0-5.12,2.22-7.62,7.36-7.62,4.6,0,7.15,2.21,7.15,7.79v17.12Zm-.12-11.29a34.49,34.49,0,0,0-4.48-.37c-5,0-6.75,1.79-6.75,5.28,0,3.29,1.61,5.08,5,5.08s6.25-2.12,6.25-6.49Z" transform="translate(-36.38 -66.93)"/><path class="cls-7" d="M1644.87,551.06c0,6.78-3.29,9.11-7.44,9.11a6.74,6.74,0,0,1-5.92-2.87l-.16,2.38h-1.85V527.53h2v10.2c1.19-2,3.37-3,6.21-3,4.93,0,7.15,3.29,7.15,9.25Zm-2.06-7.12c0-4.84-1.64-7.33-5.54-7.33-3.38,0-5.72,2-5.72,5.78v9.5c0,4.79,2.47,6.41,5.59,6.41,3.41,0,5.67-1.87,5.67-7.41Z" transform="translate(-36.38 -66.93)"/><path class="cls-13" d="M2204.61,563.67h-17V533H2195v23.43h9.63Z" transform="translate(-36.38 -66.93)"/><path class="cls-13" d="M2222.79,563.17l-.08-3a7.25,7.25,0,0,1-6.66,3.54c-4,0-6.7-2.12-6.7-6.79s2.72-7.12,9-7.12a31.46,31.46,0,0,1,4.36.38v-4.08c0-4.17-1.56-6-5.22-6-3.41,0-5.47,1.33-5.47,5.79h-1.85c0-5.12,2.22-7.62,7.36-7.62,4.61,0,7.15,2.21,7.15,7.79v17.11Zm-.12-11.28a34.43,34.43,0,0,0-4.48-.38c-5,0-6.74,1.79-6.74,5.29,0,3.29,1.6,5.08,5,5.08s6.25-2.12,6.25-6.5Z" transform="translate(-36.38 -66.93)"/><path class="cls-13" d="M2247.62,554.55c0,6.79-3.28,9.12-7.44,9.12a6.74,6.74,0,0,1-5.92-2.87l-.16,2.37h-1.85V531h2v10.21c1.2-2,3.38-3,6.21-3,4.93,0,7.15,3.29,7.15,9.24Zm-2-7.12c0-4.83-1.65-7.33-5.55-7.33-3.37,0-5.71,2-5.71,5.79v9.49c0,4.79,2.46,6.42,5.59,6.42,3.41,0,5.67-1.88,5.67-7.41Z" transform="translate(-36.38 -66.93)"/></svg>